<?xml version="1.0" standalone="no"?>
<!DOCTYPE svg PUBLIC "-//W3C//DTD SVG 1.1//EN" "http://www.w3.org/Graphics/SVG/1.1/DTD/svg11.dtd" >
<svg xmlns="http://www.w3.org/2000/svg" xmlns:xlink="http://www.w3.org/1999/xlink" version="1.1">
<metadata>
Created by FontForge 20170731 at Tue Aug 18 03:03:35 2020
 By Aleksey,,,
Copyright (c) 2020 by Cut Story / Ramadhana. All rights reserved.
</metadata>
<defs>
<font id="HanselScript" horiz-adv-x="1166" >
  <font-face 
    font-family="Hansel Script"
    font-weight="400"
    font-stretch="normal"
    units-per-em="1000"
    panose-1="2 0 5 7 0 0 0 2 0 4"
    ascent="800"
    descent="-200"
    x-height="512.5"
    cap-height="1041"
    bbox="-2068.63 -1002.79 2556.68 1514.79"
    underline-thickness="50"
    underline-position="-150"
    unicode-range="U+000D-E0C5"
  />
<missing-glyph horiz-adv-x="300" 
 />
    <glyph glyph-name="t.t" unicode="th" horiz-adv-x="559" 
d="M186 777q-4 -12 -10.5 -39t-15.5 -65q42 5 81.5 11.5t80.5 11.5q6 35 12 63t11 49q5 27 25 38.5t41.5 12.5t37 -8t11.5 -23q-4 -15 -9.5 -45t-13.5 -73q85 10 163 16.5t141.5 4.5t108 -15.5t62.5 -42.5q11 -17 7 -34.5t-12 -31.5q-10 -17 -25 -32q-12 43 -52.5 65.5
t-101.5 30.5t-138.5 3.5t-162.5 -15.5q-11 -59 -22.5 -127.5t-21 -137t-16 -132t-7.5 -112.5t5 -78.5t21 -29.5q10 0 25.5 17t33.5 43t36.5 57.5t34.5 60t27.5 50.5t15.5 30q5 9 13 11t14.5 -1t8.5 -10t-5 -15l-21 -42t-32 -62.5t-38.5 -71t-42 -66.5t-42.5 -49t-38 -19
q-28 0 -47.5 17.5t-31.5 48.5t-17.5 73.5t-5.5 93.5q-19 -34 -41.5 -70.5t-46 -67t-46.5 -50t-42 -19.5q-36 0 -57.5 28t-32 74.5t-11.5 108t4 128t14.5 134.5t19.5 128q-85 -12 -161 -19t-133 -2.5t-91.5 23.5t-36.5 57q-2 16 4.5 29t14.5 22q10 11 23 19q9 -33 43.5 -51
t86.5 -25t119.5 -4.5t142.5 10.5q6 28 11 51t10 43q3 20 20.5 32.5t38.5 16t38.5 -3t20.5 -23.5zM150 619q-10 -54 -21.5 -116t-21 -123.5t-16 -118t-7.5 -100t5 -69t22 -25.5q13 0 36 26.5t47 63t46 73.5t34 58q2 43 5.5 89t9 92t11.5 90t14 83q-41 -6 -82 -11t-82 -12z
" />
    <glyph glyph-name="l.l" unicode="ll" horiz-adv-x="556" 
d="M203 866q-4 -19 -13.5 -63t-21.5 -103.5t-25 -130t-24.5 -140.5t-19.5 -135.5t-10.5 -116t3 -81t21.5 -30.5q12 0 33.5 25.5t45.5 60.5t46 71.5t35 58.5q3 85 14 176.5t25 175.5t28 153.5t23 108.5q5 18 22 28.5t36.5 13t36 -3.5t20.5 -21q-4 -19 -13.5 -66.5
t-21.5 -112.5t-25.5 -142t-24.5 -154.5t-19.5 -149.5t-11 -128t3 -89.5t20.5 -33.5q9 1 24 18.5t32.5 44t36 58t34.5 60.5t27.5 51.5t15.5 30.5q5 9 13 10.5t14.5 -1.5t9.5 -9.5t-2 -14.5q-8 -14 -22 -42.5t-32 -63.5t-39 -72t-42.5 -67t-42.5 -49.5t-38 -19.5
q-28 0 -47.5 17t-31.5 48t-18 74t-7 93q-18 -34 -40.5 -70t-45.5 -65t-45 -48t-40 -19q-38 -1 -60.5 27.5t-32.5 77.5t-10.5 113.5t6 135t17.5 143.5t23.5 139t24 120.5t18.5 88.5q1 16 16.5 28t35 16t38.5 -1.5t27 -22.5z" />
    <glyph glyph-name="r.r" unicode="rr" horiz-adv-x="1040" 
d="M55 535q7 17 30 28.5t44 9.5q17 -3 24.5 -19.5t-2.5 -45.5q23 6 38 13t27 15t24 18.5t29 24.5q5 6 20.5 5.5t32 -4t30 -9.5t15.5 -12q-6 -21 -15.5 -68t-19 -105.5t-17 -121t-10 -114.5t2.5 -86.5t20 -36.5q11 -2 32.5 22t48.5 63t55.5 88t53.5 98.5t43.5 94.5t24.5 75
q-21 21 -18.5 42t16.5 36.5t34 23t35 2t19.5 -26.5t-13.5 -63q23 -4 39.5 -2t30.5 9t28 17.5t31 24.5q4 6 20 6t33 -3.5t31 -10.5t15 -15q-6 -20 -15.5 -59.5t-19 -88t-17.5 -99.5t-10.5 -93t2 -70.5t20.5 -30.5q14 -2 38.5 21t52 58.5t55 77t47.5 76.5q5 9 13.5 11.5t15 0
t9.5 -9t-2 -14.5q-10 -19 -26.5 -47.5t-37.5 -60.5t-45.5 -64t-49.5 -57t-50.5 -41t-48.5 -15q-35 1 -55.5 24t-29.5 60t-9 84.5t6 97.5t16 98t20 87q-34 -18 -67 -20.5t-61 5.5q-18 -42 -43.5 -94t-55.5 -105.5t-62 -103.5t-63.5 -89t-60.5 -62.5t-52 -22.5q-36 0 -56.5 28
t-30 73.5t-9.5 103t6 117.5t16 116.5t20 99.5q-31 -19 -60.5 -27.5t-55.5 -7.5q-11 -24 -23.5 -49.5t-25.5 -49.5t-26 -46t-25 -40q-2 -4 -8 -3.5t-12 3.5t-10 8.5t-1 11.5q6 13 16 36t20 49t18 51.5t11 43.5q-15 11 -18.5 24t8.5 31z" />
    <glyph glyph-name="s.s" unicode="ss" horiz-adv-x="652" 
d="M274 497q-12 3 -25.5 5.5t-25 2t-20.5 -6t-13 -20.5q-7 -25 1 -76.5t20 -116.5q24 -7 44.5 -8.5t41 13t41 49t44.5 100.5q12 33 35 55t47.5 35t47 18t33.5 3q25 2 42.5 -6.5t26 -19t7 -19.5t-14.5 -8q-12 3 -25 1.5t-25 -7t-21 -15.5t-13 -25q-9 -28 -4 -66.5t15.5 -81.5
t22 -87.5t16 -86t-1.5 -77t-31 -58.5q-35 -33 -73.5 -37t-73 12t-62.5 47.5t-43 69t-13.5 77.5t25.5 72q-21 -11 -40.5 -9.5t-39.5 9.5q10 -61 14.5 -119.5t-5 -104t-36.5 -72t-80 -22.5q-35 1 -66.5 23t-55 56t-37.5 75t-13 81t19.5 73.5t58.5 53.5q-8 2 -15 8.5t-3 14.5
q5 9 11 28.5t12.5 43t13.5 48t13 44.5q9 33 31.5 55t48 34.5t49 17t34.5 4.5q24 0 41.5 -12.5t26.5 -28t7.5 -28t-14.5 -11.5zM404 361q-14 -29 -29 -50.5t-27 -37.5q5 2 9 4.5t9 4.5q8 3 14 -1t8.5 -11.5t1 -15t-8.5 -11.5q-42 -17 -53 -44t-3 -55.5t30 -55.5t46 -42.5
t44 -16t24 22.5q5 20 -3 54t-20.5 76t-25 88t-16.5 91zM33 288q13 5 26 6.5t29 2.5q-4 24 -7 44.5t-7 39.5q-10 -29 -19.5 -54t-21.5 -39zM120 -18q15 3 17 27.5t-3.5 63.5t-16.5 88t-22 100q-52 -5 -75.5 -28.5t-27 -55.5t8.5 -68t32 -65t43.5 -47t43.5 -15z" />
    <glyph glyph-name=".notdef" horiz-adv-x="300" 
 />
    <glyph glyph-name=".null" horiz-adv-x="0" 
 />
    <glyph glyph-name="nonmarkingreturn" unicode="&#xd;" horiz-adv-x="300" 
 />
    <glyph glyph-name="NULL" horiz-adv-x="0" 
 />
    <glyph glyph-name="NULL" horiz-adv-x="0" 
 />
    <glyph glyph-name="space" unicode=" " horiz-adv-x="300" 
 />
    <glyph glyph-name="exclam" unicode="!" horiz-adv-x="343" 
d="M211 685q2 11 16 18t29 7.5t26.5 -5.5t9.5 -20q-18 -105 -34 -191t-32 -168t-32.5 -165.5t-35.5 -183.5q-2 -13 -12.5 -18.5t-21.5 -5t-19.5 6.5t-6.5 16q11 71 20.5 131.5t18 115.5t17 107.5t17.5 107.5t18.5 115.5t21.5 131.5zM115 -86q26 0 36 -17.5t6.5 -38t-20 -38
t-43.5 -17.5q-26 0 -36.5 17.5t-6.5 38t20.5 38t43.5 17.5z" />
    <glyph glyph-name="quotedbl" unicode="&#x22;" horiz-adv-x="328" 
d="M51 567q0 2 13 8.5t29 11t29.5 4.5t15.5 -12q3 -14 3.5 -35.5t0 -42.5t-1.5 -38t-2 -21q0 -8 -8.5 -15t-19 -10.5t-19.5 -2t-11 10.5q-10 35 -17 71t-12 71zM186 567q0 2 13 8.5t29 11t29.5 4.5t15.5 -12q3 -14 3.5 -35.5t0 -42.5t-1.5 -38t-2 -21q0 -8 -8.5 -15
t-19 -10.5t-19.5 -2t-11 10.5q-10 35 -17 71t-12 71z" />
    <glyph glyph-name="numbersign" unicode="#" horiz-adv-x="618" 
d="M498 179q11 19 23 13.5t15.5 -24.5t-6 -46.5t-39.5 -51.5q-11 -8 -22 -12.5t-22 -7.5l-36 -212q-3 -12 -17 -18.5t-29 -6.5t-26.5 6.5t-8.5 21.5q8 52 17 104.5t19 106.5q-42 8 -84.5 24t-80.5 26l-27.5 -137.5l-26.5 -132.5q-1 -14 -10 -19t-19.5 -4t-19 7t-6.5 16
q10 69 20 137.5t21 137.5q-25 -5 -42 -17.5t-22 -33.5q-7 -1 -12 9t-6.5 26t2.5 34.5t15 34.5t30.5 27t49.5 11l18 114q-14 -2 -27.5 -5t-25 -10t-19 -17t-7.5 -25q-10 0 -14.5 11.5t-3.5 28t7.5 35.5t20.5 35t34.5 26.5t49.5 9.5q12 71 24 141.5t25 142.5q2 11 16.5 18
t30 7.5t27 -5.5t8.5 -20l-53 -289q42 -10 83.5 -26t79.5 -25q17 90 34.5 176.5t34.5 169.5q2 13 12 16.5t20.5 1.5t19 -7.5t7.5 -10.5q-14 -88 -27.5 -174t-27.5 -173q28 9 44 41q5 8 12.5 3t12 -18t4.5 -31t-8.5 -35.5t-27 -31.5t-51.5 -19l-19 -110q21 9 36 36zM219 191
q42 -10 83.5 -26.5t79.5 -24.5l22 116q-41 9 -82.5 25t-79.5 26z" />
    <glyph glyph-name="dollar" unicode="$" horiz-adv-x="565" 
d="M310 685q2 12 16.5 18.5t30 7.5t26.5 -5.5t8 -20.5l-8 -49q32 -6 59.5 -23t45.5 -46t24 -70t-3 -96q-1 -6 -11 -12t-22 -7.5t-20.5 2.5t-6.5 17q13 70 -12.5 106t-68.5 45l-45 -244h1q72 -18 108 -54.5t43.5 -81t-9.5 -93t-50 -91t-79 -73t-96 -40.5q-2 -11 -4 -21.5
t-4 -21.5q-2 -14 -12.5 -19t-21.5 -4t-19 7.5t-6 15.5l6 41q-53 6 -85 41t-41 81.5t5.5 96.5t54.5 86q7 4 14 2.5t10.5 -6t4 -11.5t-4.5 -13q-27 -32 -35 -66.5t-0.5 -65t30 -53.5t56.5 -30q13 84 25.5 167t26.5 167q-31 9 -59.5 21t-49.5 30t-32 43.5t-7 61.5q4 43 23 78.5
t48 62.5t64.5 44.5t72.5 24.5zM313 251l-60 -316q37 9 66 33t47.5 55.5t26 67t2 67.5t-25.5 57t-56 36zM157 431q-3 -25 3.5 -42.5t19 -29.5t31 -19.5t39.5 -13.5l37 224q-24 -6 -47 -17t-40.5 -26t-29 -34.5t-13.5 -41.5z" />
    <glyph glyph-name="percent" unicode="%" horiz-adv-x="627" 
d="M236 655q31 0 48 -16.5t22 -41.5t-0.5 -54t-20 -54t-37 -41.5t-49.5 -16.5q-30 0 -46 16.5t-21 41.5t1 54t20 54t35.5 41.5t47.5 16.5zM474 709q6 11 25.5 13t38 -2.5t31 -15t5.5 -23.5q-49 -99 -105 -211.5t-114 -226.5t-115 -223t-106 -202q-6 -15 -22 -19.5
t-31.5 -0.5t-25 15t-1.5 25q49 101 101 212t106 223.5t107.5 223t105.5 212.5zM227 591q-17 0 -29 -15.5t-16 -33.5t2.5 -33.5t26.5 -15.5q18 0 30.5 15.5t16 33.5t-3 33.5t-27.5 15.5zM407 90q31 0 48 -16.5t22 -41.5t-0.5 -54t-20 -54t-37 -41.5t-49.5 -16.5
q-30 0 -46 16.5t-21 41.5t1 54t20 54t35.5 41.5t47.5 16.5zM398 26q-17 0 -29 -15.5t-16 -33.5t2.5 -33.5t26.5 -15.5q18 0 30.5 15.5t16 33.5t-3 33.5t-27.5 15.5z" />
    <glyph glyph-name="ampersand" unicode="&#x26;" horiz-adv-x="699" 
d="M389 -199q-10 -2 -15 4.5t-4.5 15t5.5 16.5t14 10q36 6 63 30t41.5 56t13 69t-23.5 69q-26 -33 -60 -64t-72.5 -54t-79.5 -36.5t-80 -12.5q-60 1 -93 25t-45.5 62t-5.5 85.5t28.5 96.5t55 95.5t74.5 81.5q-41 56 -48 105t9 90t50.5 72.5t77 52.5t87.5 31t82.5 7.5
t62 -18.5t26.5 -46q1 -24 -12.5 -51t-36 -55.5t-51.5 -57t-58.5 -54.5t-56 -49t-44.5 -40q34 -29 55 -47t34.5 -30t22 -19.5t17 -16.5t20 -20.5t31.5 -30.5q34 54 60.5 119.5t49.5 150.5q3 10 14 14t23 3t21 -6.5t7 -15.5q-26 -93 -59 -170t-74 -134q34 -43 43 -98.5
t-6.5 -106.5t-56 -87.5t-106.5 -40.5zM440 124q-26 26 -40 40.5t-30 30t-41.5 38t-73.5 64.5q-20 -21 -41 -53t-37 -68.5t-25.5 -73.5t-7 -66.5t20 -49t54.5 -20.5q31 -1 63 14.5t61.5 39.5t54.5 52t42 52zM245 385q12 12 32.5 30t44.5 39.5t48.5 44.5t44.5 44.5t32.5 38.5
t12.5 28q-2 24 -29 32t-64 0.5t-75.5 -28.5t-62 -54t-23.5 -77.5t39 -97.5z" />
    <glyph glyph-name="quotesingle" unicode="'" horiz-adv-x="193" 
d="M51 567q0 2 13 8.5t29 11t29.5 4.5t15.5 -12q3 -14 3.5 -35.5t0 -42.5t-1.5 -38t-2 -21q0 -8 -8.5 -15t-19 -10.5t-19.5 -2t-11 10.5q-10 35 -17 71t-12 71z" />
    <glyph glyph-name="parenleft" unicode="(" horiz-adv-x="475" 
d="M405 666q-38 -6 -72.5 -41.5t-64.5 -89.5t-53 -122t-36.5 -139.5t-16.5 -141t8 -127.5t36.5 -98.5t68.5 -54.5q18 -7 11 -17t-27.5 -16t-49.5 -5t-54 18q-40 26 -64 73t-33.5 107.5t-6.5 130.5t17 140t38 137t55.5 122.5t69.5 95t80 54.5q28 10 54 8.5t42 -8t17.5 -15
t-19.5 -11.5z" />
    <glyph glyph-name="parenright" unicode=")" horiz-adv-x="475" 
d="M70 -160q37 6 72 41.5t65 89.5t53 122t36.5 139.5t16.5 141t-8 127.5t-36.5 98.5t-68.5 54.5q-18 7 -11 17t27.5 16t49 4.5t54.5 -17.5q40 -26 64 -73t33.5 -107.5t6.5 -130.5t-17 -140t-38 -137t-55.5 -122.5t-69.5 -95t-80 -54.5q-28 -10 -54 -8.5t-42 8t-17.5 15
t19.5 11.5z" />
    <glyph glyph-name="asterisk" unicode="*" horiz-adv-x="354" 
d="M277 447q11 -8 6 -23t-16 -28.5t-25 -21t-21 -0.5q-9 5 -17.5 11.5t-16.5 13.5q-3 -11 -5.5 -22t-4.5 -22q-4 -12 -14 -16.5t-19.5 -4t-17 6t-7.5 14.5l3 32q-6 -4 -12 -7t-11 -7q-14 -9 -26 -0.5t-18 23t-4.5 29t13.5 19.5q11 7 23.5 13.5t25.5 13.5l-39 37
q-9 7 -7 17.5t9.5 18.5t18 12t18.5 0l27 -18q2 9 3.5 17.5t3.5 17.5q2 15 17 21t30.5 5t27 -7.5t7.5 -18.5q-3 -25 -9 -50l47 23q12 6 20.5 1.5t13 -13.5t2.5 -19.5t-11 -16.5l-45 -30z" />
    <glyph glyph-name="plus" unicode="+" horiz-adv-x="434" 
d="M197 450q4 15 18.5 21.5t30.5 6t27.5 -8.5t9.5 -22l-18 -94h95q14 0 19.5 -13.5t3.5 -29t-11 -29t-24 -13.5h-100q-5 -26 -11 -51l-12 -50q-3 -12 -14 -17.5t-23 -4t-21 8t-7 18.5l12 96l-103 2q-11 0 -15.5 13t-3 28.5t9.5 28.5t21 13q25 0 50.5 0.5t51.5 0.5
q3 25 6.5 49t7.5 47z" />
    <glyph glyph-name="comma" unicode="," horiz-adv-x="222" 
d="M77 77q-18 12 -20 32.5t7.5 41t28.5 35t42 14.5q19 -2 28 -15.5t8.5 -32.5t-10 -39.5t-26.5 -35.5q-10 -5 -18 -11t-16 -17q-5 -4 -8 -10.5t-6 -11.5t-8 -8.5t-14 -1.5q-11 0 -13 8t1.5 18t10.5 19.5t13 14.5z" />
    <glyph glyph-name="hyphen" unicode="-" horiz-adv-x="430" 
d="M344 212q-64 0 -129.5 6.5t-144.5 18.5q-11 0 -16 9.5t-3.5 21t9 21t19.5 9.5q68 4 138.5 3.5t139.5 -3.5q13 0 18.5 -13.5t3.5 -29.5t-11 -29.5t-24 -13.5z" />
    <glyph glyph-name="period" unicode="." horiz-adv-x="209" 
d="M113 183q26 0 37 -17.5t8 -39t-19 -39t-44 -17.5q-27 0 -37 17.5t-6.5 39t19.5 39t42 17.5z" />
    <glyph glyph-name="slash" unicode="/" horiz-adv-x="607" 
d="M475 692q7 12 23 14.5t31 -1.5t23.5 -14.5t1.5 -24.5q-54 -104 -110.5 -211.5t-114 -214.5t-113.5 -210.5t-108 -198.5q-6 -14 -17 -16t-21 2.5t-16 13.5t-1 18q106 215 211 424t211 419z" />
    <glyph glyph-name="zero" unicode="0" horiz-adv-x="598" 
d="M252 -75q-60 0 -101.5 29t-65.5 77t-31 109t2.5 124.5t35.5 124t68 107t99.5 74.5t129.5 26q52 -1 86.5 -30.5t52 -77t19.5 -108t-10 -123t-37 -122t-61.5 -106.5t-83.5 -75.5t-103 -28.5zM270 6q45 1 83.5 39.5t66 96t41.5 125t10 125.5t-29 97t-74 41q-41 1 -75 -20.5
t-59 -58.5t-41.5 -84.5t-24 -97.5t-5.5 -97.5t14.5 -84.5t35.5 -59.5t57 -21.5z" />
    <glyph glyph-name="one" unicode="1" horiz-adv-x="335" 
d="M284 573q-27 -156 -53 -313t-49 -316q-1 -5 -11.5 -11t-22.5 -8t-21.5 1t-6.5 16q11 133 29 283.5t40 304.5q-18 -10 -37.5 -19.5t-38 -14.5t-34 -4.5t-23.5 11.5q-8 9 -5 23.5t10.5 26t16.5 15.5t13 -6q4 -9 17.5 -9t31 4.5t34.5 12.5t27 14q7 10 22.5 13t30 1
t24.5 -8.5t6 -16.5z" />
    <glyph glyph-name="two" unicode="2" horiz-adv-x="542" 
d="M136 373q-1 -2 -5.5 0t-9.5 7.5t-9 14.5t-4 21q-2 36 27 70t72.5 58.5t94.5 37.5t92.5 9t66.5 -29t17 -76q-5 -33 -23.5 -73t-45 -82.5t-58.5 -86t-64 -84.5t-61.5 -78t-50.5 -66q39 16 73.5 18.5t64 -1t53.5 -9t43 -7t31.5 6t19.5 29.5q6 23 14 21t13 -17.5t4.5 -39
t-11.5 -45t-35.5 -35.5t-67.5 -9q-33 4 -63 17t-59.5 22.5t-58.5 9t-59 -23.5q-6 -4 -20 -11t-29 -11t-26.5 -1t-11.5 20q3 20 28 56.5t61 82.5t78 98.5t79 105.5t64 102.5t33 90.5q2 16 -15 21.5t-44 2.5t-59.5 -14t-62 -29t-51 -42t-25.5 -52z" />
    <glyph glyph-name="three" unicode="3" horiz-adv-x="484" 
d="M109 361q-1 -5 -5 -3t-8.5 9t-7.5 17.5t-3 22.5q2 38 25 71.5t57 58t73.5 39t74.5 15.5q43 1 66 -13.5t30.5 -39t1.5 -56.5t-21.5 -66.5t-38.5 -69.5t-49 -64q54 8 85 -15t40.5 -63.5t-1.5 -89.5t-40.5 -91.5t-77 -70.5t-109.5 -27q-50 1 -80.5 15t-46.5 34.5t-20.5 44
t-2 43.5t9 33.5t11.5 13.5q1 0 3 -18.5t14.5 -40.5t41 -40.5t82.5 -18.5q33 0 61 23.5t46.5 57t25 69.5t-2 61.5t-34.5 33t-73 -15.5q-11 -3 -17.5 1t-9 11t-0.5 15t9 14q14 10 31.5 33t34 51.5t29 59t15 55.5t-7 42t-36.5 18q-23 1 -51 -12.5t-54.5 -35.5t-46 -51
t-23.5 -60z" />
    <glyph glyph-name="four" unicode="4" horiz-adv-x="536" 
d="M399 573q3 15 18 21t31.5 5t28 -7.5t7.5 -18.5q-14 -80 -27 -159.5t-25 -160.5q14 -6 25.5 -14t17.5 -19q4 -7 1.5 -14t-9 -11t-14.5 -3.5t-14 8.5q-4 7 -13 12q-11 -67 -21 -134l-20 -134q-2 -5 -12.5 -11t-22.5 -8t-21.5 1t-7.5 16q5 67 13.5 139t17.5 148
q-25 1 -53 -0.5t-55.5 -4t-52.5 -6t-43 -6.5q-9 -2 -31.5 -3.5t-41 1.5t-24.5 12t19 27q16 12 38.5 37.5t47.5 57t50 67.5t45.5 69.5t34.5 61.5t17 45q2 15 14.5 18t26.5 0t25 -9.5t11 -10.5q-3 -18 -15 -45t-30 -58.5t-39.5 -65t-43.5 -64.5t-42.5 -57t-35.5 -42
q38 7 87.5 11.5t95.5 2.5q10 75 20.5 152t21.5 154z" />
    <glyph glyph-name="five" unicode="5" horiz-adv-x="574" 
d="M499 585q1 2 7 -6t11 -19t6.5 -23t-6.5 -19q-39 -36 -69.5 -50t-54 -13t-41.5 12t-33 24.5t-27.5 24.5t-24.5 12q3 -14 -3 -41t-15.5 -60t-20 -68.5t-16.5 -67.5q67 36 113.5 44t78.5 -5q35 -17 49.5 -53.5t10.5 -81.5t-24.5 -93t-55 -87.5t-81.5 -65t-104 -25.5
q-60 0 -92 20.5t-45 49t-11 59.5t10 51.5t18.5 24.5t14.5 -20q4 -25 17 -44t32 -32t42.5 -19.5t49.5 -6.5q39 0 70.5 15t54 38t35 51t15 54.5t-7 48t-30.5 30.5q-24 13 -70 2.5t-115 -52.5q-10 -6 -14.5 17.5t-5 62t2 86.5t5.5 90.5t6 73.5t3 36q1 24 24.5 28.5t53 -1
t56.5 -15t35 -12.5q15 -9 30 -15t31.5 -5.5t37 11t47.5 34.5z" />
    <glyph glyph-name="six" unicode="6" horiz-adv-x="591" 
d="M518 549q-62 7 -115 -13t-96.5 -57t-76.5 -87.5t-54.5 -104.5t-30.5 -107t-4.5 -95.5t23 -69.5t53.5 -30q43 -1 76.5 18.5t56.5 49t34 64t10.5 64t-13.5 49t-40 19.5q-31 -1 -57 -14t-46 -34t-33.5 -48.5t-19.5 -57.5q-2 -11 -9 -15.5t-13.5 -4t-11 6.5t-2.5 16
q4 43 21.5 81.5t44 67.5t61.5 47t76 20q47 1 70 -27.5t25 -72t-14 -94t-48 -94t-77 -72.5t-100 -29q-61 1 -97 30t-50 77t-8 108.5t29 123t61.5 122t88.5 105.5t110 72.5t127 23.5q24 -1 41.5 -8t25 -14t4 -12.5t-21.5 -3.5z" />
    <glyph glyph-name="seven" unicode="7" horiz-adv-x="439" 
d="M363 303q9 4 15.5 -2.5t9 -17.5t0 -22.5t-10.5 -16.5q-23 -13 -48.5 -14.5t-51.5 1.5q-17 -44 -32 -85t-25.5 -77.5t-15 -67t-0.5 -52.5q2 -15 -7.5 -20.5t-22 -4.5t-23.5 5.5t-11 7.5q-4 25 0 58.5t13 72.5t23 82t29 88q-20 1 -39 -3t-36 -17q-9 -6 -16 -1t-10 15
t-1.5 21.5t9.5 17.5q28 20 57 25.5t58 3.5q18 53 35 104t28 99q-27 -9 -61.5 -17t-68.5 -11.5t-61.5 -3t-40.5 8.5q-9 6 -7 17t8.5 21t14.5 16.5t12 5.5q12 -9 45 -5t69.5 14t69.5 21.5t47 16.5h1q9 3 21.5 5.5t23.5 2t18 -5t6 -15.5q-6 -59 -31 -132t-55 -149q18 -2 33.5 0
t28.5 10z" />
    <glyph glyph-name="eight" unicode="8" horiz-adv-x="525" 
d="M279 366q41 37 70 72t41.5 62.5t7.5 45.5t-32 21q-48 4 -84 -10t-51 -41.5t-5.5 -66t53.5 -83.5zM317 314q46 -46 69.5 -94.5t26 -94.5t-14 -87t-50 -71t-83.5 -46.5t-113 -13.5q-44 2 -68 23t-31 55t2.5 77t32.5 88.5t59.5 90t83.5 81.5q-52 55 -61 110t14.5 99t75 70.5
t122.5 25.5q45 -1 70 -23.5t22 -63t-40 -98t-117 -128.5zM269 272q-49 -44 -84 -96t-48.5 -97t0 -75.5t61.5 -30.5q73 0 111.5 28.5t46 72t-15 96.5t-71.5 102z" />
    <glyph glyph-name="nine" unicode="9" horiz-adv-x="543" 
d="M72 -34q57 0 105.5 23.5t87 62.5t67 88.5t46 101.5t23.5 102.5t-1 90.5t-27 65.5t-54 27.5q-44 0 -75 -17t-49.5 -43.5t-25.5 -57.5t-2.5 -57.5t19 -44.5t38.5 -18q31 0 52.5 9.5t35.5 26.5t22.5 41t13.5 53q3 9 11 13t15 3.5t11.5 -6.5t1.5 -16q-6 -38 -18.5 -71.5
t-33.5 -58t-51 -39t-71 -14.5q-45 0 -69 26.5t-30 66.5t6 86.5t40 86.5t70.5 66.5t98.5 26.5q61 -1 98 -31t52.5 -78t12.5 -109t-22.5 -124t-53.5 -123t-78.5 -105.5t-99 -72t-115.5 -22.5q-24 2 -41.5 9.5t-25.5 15t-4.5 13t20.5 3.5z" />
    <glyph glyph-name="colon" unicode=":" horiz-adv-x="240" 
d="M115 209q26 0 36.5 -17.5t6.5 -39t-20.5 -39t-43.5 -17.5q-26 0 -36 17.5t-6.5 39t20 39t43.5 17.5zM146 391q26 0 36.5 -17t6.5 -37t-20 -37t-43 -17q-26 0 -37 17t-7.5 37t20 37t44.5 17z" />
    <glyph glyph-name="semicolon" unicode=";" horiz-adv-x="240" 
d="M145 391q25 0 36 -17t8 -37t-18.5 -37t-42.5 -17q-28 0 -39 17t-8 37t19.5 37t44.5 17zM77 109q-17 12 -19 32.5t7 40.5t27.5 34.5t42.5 13.5q20 -2 29 -15t8 -32t-10.5 -39t-26.5 -35q-8 -6 -16.5 -13.5t-16.5 -16.5q-5 -3 -8 -9t-6.5 -12t-8.5 -10t-14 -4
q-12 2 -14 10.5t2 19t11 20.5t13 15z" />
    <glyph glyph-name="less" unicode="&#x3c;" horiz-adv-x="557" 
d="M399 25q8 -8 3 -19.5t-15.5 -22t-22.5 -16t-18 -0.5q-72 69 -140.5 138t-140.5 139q-11 8 -14 19t9 20q47 36 98 73.5t103.5 75.5t104 75t99.5 72q6 4 16 0t17.5 -12.5t8 -20.5t-12.5 -22q-89 -63 -174.5 -127t-172.5 -128z" />
    <glyph glyph-name="equal" unicode="=" horiz-adv-x="430" 
d="M346 263q-66 2 -130.5 7t-144.5 16q-12 0 -17 10t-3.5 21.5t8.5 21.5t19 10q72 3 141 2t138 -1q13 0 18.5 -14t3.5 -30t-10.5 -29.5t-22.5 -13.5zM346 106q-66 2 -130.5 8.5t-144.5 16.5q-12 0 -17 10t-3.5 22t8.5 22t19 10q72 2 141 1t138 -1q13 0 18.5 -14t3.5 -30.5
t-10.5 -30.5t-22.5 -14z" />
    <glyph glyph-name="greater" unicode="&#x3e;" horiz-adv-x="557" 
d="M158 519q-8 7 -3 19t15.5 22.5t22.5 16t18 0.5q72 -69 140.5 -138t140.5 -139q11 -8 14 -19t-9 -20q-47 -36 -98 -73.5t-103.5 -75.5t-104 -75t-99.5 -72q-6 -5 -16 -0.5t-17.5 13t-8.5 20t13 22.5q89 63 174.5 127t172.5 128z" />
    <glyph glyph-name="question" unicode="?" horiz-adv-x="467" 
d="M114 633q26 28 62.5 45t74 23t72.5 0.5t58.5 -23.5t32.5 -48.5t-6 -74.5q-14 -41 -38.5 -85t-53 -90.5t-57.5 -95.5t-51 -99.5t-34 -103.5t-6 -108q-1 -12 -15 -19t-30 -7.5t-29 7t-12 25.5q-5 57 8.5 112.5t37.5 108.5t55.5 102.5t63 94.5t59 85t44.5 74q16 31 2 53.5
t-43 31.5t-65 1t-64 -36q-20 -21 -33.5 -50.5t-16.5 -59.5t7 -55t37 -37q17 -7 17.5 -13.5t-8.5 -11.5t-24.5 -7t-30.5 0q-43 3 -61 33t-17 71t18.5 84.5t45.5 72.5zM130 -86q26 0 36.5 -17.5t7 -38t-19.5 -38t-43 -17.5q-26 0 -36.5 17.5t-7 38t19.5 38t43 17.5z" />
    <glyph glyph-name="at" unicode="@" horiz-adv-x="927" 
d="M501 366q-6 16 -21.5 32t-35.5 16q-32 0 -58 -28t-44.5 -70.5t-29 -92.5t-12 -92.5t6.5 -71.5t26 -29q12 0 30 17.5t38 45t40 60.5t37 65q4 38 9.5 75t13.5 73zM477 131q-17 -30 -36.5 -58t-40.5 -49.5t-44 -34.5t-48 -13q-51 0 -78 36.5t-33.5 90.5t7 117t44 117t77 90
t106.5 36q28 0 48.5 -9.5t34.5 -26.5q7 27 13 45t9 32q2 7 18 8t34 -2.5t33.5 -10t16.5 -13.5q-6 -21 -16 -61t-19.5 -88t-17.5 -99.5t-10.5 -93.5t2.5 -70.5t20 -30.5q14 -2 39 20.5t53 61t55 88.5t45 103t23 104.5t-11.5 93.5t-58.5 69.5t-118 32.5q-97 6 -177.5 -23
t-141 -80t-100.5 -119t-56.5 -139t-8.5 -139.5t43 -122t98.5 -85t157.5 -29.5q52 2 106.5 15t104 37.5t91 59.5t68.5 80q5 9 12.5 9t13.5 -5t8 -14t-3 -17q-36 -55 -84.5 -95.5t-103.5 -67.5t-113.5 -41t-115.5 -15q-118 -3 -196.5 34.5t-121.5 100.5t-52 143.5t12.5 164
t71 162.5t124.5 138t173 91.5t216 22.5q91 -7 141.5 -41t70.5 -85t14 -113.5t-29.5 -127t-59 -125t-74.5 -107.5t-77 -75.5t-65 -28.5q-25 0 -43 11.5t-29 32t-16.5 48t-5.5 60.5z" />
    <glyph glyph-name="A" unicode="A" horiz-adv-x="1549" 
d="M668 451q5 1 2.5 -11.5t-15.5 -28t-38 -29.5t-64 -17q-73 -3 -112 25.5t-47 77.5t12.5 112t66.5 128.5t114.5 127.5t156 108t192 70.5t222.5 15.5q32 -3 64.5 -10t58 -22t39 -40t6.5 -64q-5 -37 -11.5 -99.5t-14 -143t-14.5 -175t-11 -193.5q62 12 116.5 24.5t98.5 24.5
q8 1 8.5 -11t-4.5 -31t-14 -40.5t-20 -40.5t-22 -32t-20 -13q-32 -2 -68.5 -4.5t-75.5 -6.5q-1 -83 1 -163t9 -151.5t18.5 -131.5t29.5 -104t42.5 -69t57.5 -25q1 -10 -12.5 -24.5t-35.5 -28.5t-49.5 -26t-55.5 -16.5t-52.5 1t-39.5 24.5q-32 42 -51.5 113t-28.5 162.5
t-9 199t6 221.5q-53 -5 -104 -9.5t-103 -9.5q-15 -41 -31 -78t-30 -70q-32 -74 -66 -136.5t-80 -108.5t-109.5 -72.5t-154.5 -27.5q-101 -2 -173 26t-117 75t-65.5 107t-19.5 123.5t22 124.5t59 109t91 78.5t118 32.5q46 0 72 -12.5t36.5 -28.5t9 -30t-8.5 -16q-3 0 -5 6.5
t-8 15t-18 15t-34 5.5q-45 -3 -74 -32.5t-43 -74t-15 -99t10 -109t32.5 -103t51.5 -81t67 -43.5t80 10t90 79t96 164q12 26 27.5 60t32.5 74q-29 -2 -54.5 -4t-48.5 -4q0 -1 -2 16t-1.5 39t6 41.5t20.5 23.5q27 4 59.5 6t68.5 6q43 103 84.5 210t84 203t89 175t100.5 127
q-92 -2 -172 -25t-147.5 -59.5t-121.5 -83t-92.5 -95t-61 -95.5t-27 -84.5t9.5 -61.5t49 -27q21 -1 35.5 6t24 15.5t15.5 15.5t10 7zM1114 259q11 125 26.5 247.5t32.5 228.5q-26 -51 -54.5 -110.5t-57 -123.5t-56.5 -130.5t-55 -131.5q42 7 82 11.5t82 8.5z" />
    <glyph glyph-name="B" unicode="B" horiz-adv-x="1275" 
d="M844 1043q119 2 198.5 -24t123.5 -72.5t54.5 -108.5t-8.5 -130.5t-65.5 -139t-117 -134t-162.5 -116.5t-201 -85q146 28 236.5 12t133.5 -62t43 -114.5t-35 -144t-100.5 -151t-153 -136t-193.5 -98.5t-222 -39q-77 0 -126 13.5t-76.5 35.5t-37 49.5t-8 54.5t10.5 50.5
t19 38.5t17.5 17.5t5.5 -12.5q-8 -43 8.5 -71t45.5 -44.5t65 -23t67 -6.5q99 -1 185 30t154 79.5t115 109.5t67.5 121t13 113t-49.5 85.5t-120.5 38.5t-199.5 -27q-14 -91 -32 -167t-44 -129q-33 -69 -73.5 -101.5t-73 -40t-49 5t-2.5 32.5q19 25 34 60.5t26 79t20 93
t17 103.5q-16 -8 -32 -15t-33 -15q-14 -6 -17 11t1.5 40.5t14.5 44t21 21.5q14 2 29.5 4.5t32.5 6.5q9 73 19.5 148t24.5 145.5t33.5 133.5t46.5 113q38 68 80.5 97.5t75.5 34.5t48 -8.5t-1 -32.5q-30 -35 -52.5 -96t-40 -138.5t-31.5 -165t-27 -174.5q87 37 166.5 89.5
t146 112.5t116 123t75.5 122.5t25.5 111t-34.5 87t-104.5 52t-184.5 6.5q-76 -7 -146 -35t-132 -69t-113.5 -91.5t-90 -102t-62 -100.5t-30 -87.5t6.5 -63.5t48 -28q21 -2 36.5 4.5t26 15t17 16t9.5 7.5q6 1 2.5 -12t-17 -29.5t-38 -31t-62.5 -16.5q-72 -5 -110 23t-45.5 77
t14 113.5t68.5 132.5t117 133.5t160.5 118t199.5 86t232 35.5z" />
    <glyph glyph-name="C" unicode="C" horiz-adv-x="1037" 
d="M838 0q-19 -1 -31.5 -10t-15.5 -9q-5 2 1 13t19.5 23t33 21t42.5 7q45 -4 63 -30t14.5 -66t-27.5 -89.5t-64 -100.5t-93 -99t-116 -85.5t-133.5 -59.5t-144.5 -21q-99 1 -166.5 46.5t-107.5 122t-53.5 177.5t-4.5 213.5t40 230.5t80 229t114.5 208.5t144.5 168t170 108.5
t190 30q77 -6 121.5 -45t61 -98t8 -132.5t-36 -149.5t-72 -148t-100 -128.5t-119 -91.5t-130.5 -36q-31 0 -65 11t-59 32t-35 52t7 70q16 -36 52.5 -58.5t78.5 -23.5q47 0 93 25t88 66.5t77 95t59 109t36 108.5t7 94.5t-28.5 67t-69.5 25.5q-65 1 -127.5 -33.5t-119.5 -94
t-107 -139t-89.5 -169.5t-66.5 -185t-38.5 -185.5t-5.5 -171.5t32 -143t75 -99.5t123 -40.5q55 -3 108.5 13t102 44t90.5 64t73.5 74t51.5 74t24 63.5t-8.5 43t-46.5 12.5z" />
    <glyph glyph-name="D" unicode="D" horiz-adv-x="1213" 
d="M833 1043q98 0 165 -43t106 -117t51.5 -172.5t2 -209.5t-43 -228t-82.5 -228t-117.5 -210t-148 -173t-173 -117.5t-193.5 -44.5q-77 0 -126.5 13.5t-78 35.5t-39 49.5t-9.5 54.5t9.5 50.5t17.5 38.5t16 17.5t5 -12.5q-6 -43 11.5 -71t47.5 -44.5t67 -23t70 -6.5
q73 5 141 44.5t129 104.5t113.5 150t93.5 180t69 195t41 195t9 180t-27 149.5t-67 103.5t-111 43q-71 4 -140 -17.5t-133 -60.5t-120 -90t-99 -105t-71.5 -107t-37 -96t4.5 -70.5t53 -30.5q21 -2 36 4.5t25 15t15.5 16t8.5 7.5q7 1 4.5 -12t-16 -29.5t-39 -31t-65.5 -16.5
q-71 -5 -109 24t-46.5 78.5t12 114.5t66 133.5t114.5 134.5t158.5 118t197.5 84t232 32zM283 -244q33 38 55.5 109.5t39 160.5t29 188t25.5 193t29 176t40 136q21 46 47 74.5t51 44t47.5 19.5t37.5 0t20 -14.5t-5 -23.5q-31 -41 -50 -111t-32 -157t-23 -184t-24 -191.5
t-34.5 -180t-54.5 -149.5q-24 -45 -50.5 -73t-52 -42t-47 -16.5t-36 2.5t-18.5 16t6 23z" />
    <glyph glyph-name="E" unicode="E" horiz-adv-x="1094" 
d="M472 -377q61 0 120 17t111.5 45.5t97.5 64.5t78.5 73t54 72.5t24.5 62t-10.5 41.5t-51.5 12q-20 -1 -35 -11t-16 -8q-7 1 -1.5 11.5t20 22.5t37 20.5t48.5 6.5q49 -3 70.5 -28t19 -63.5t-26.5 -87t-65.5 -98.5t-98.5 -98t-126 -86t-148 -62t-163 -26q-107 -3 -181.5 31
t-117.5 92t-56 132.5t3 152.5t60.5 152.5t116 132.5t169 92t219.5 31q-104 23 -175 66t-112 98.5t-53.5 118.5t0 126t48 121t91 103t129 72.5t161.5 29.5q38 1 80.5 -5t82.5 -19.5t74.5 -34t57.5 -48.5t32 -63.5t-3 -78.5q-16 -49 -43.5 -77.5t-54 -42t-46 -14.5t-19.5 6
q5 -2 14.5 0.5t20 10t22 20.5t20.5 33q19 43 6.5 77t-43 58t-73.5 37t-84 15q-84 4 -154 -27t-114 -83.5t-57.5 -118.5t14.5 -130.5t103 -120.5t208 -88q22 -5 29 -26t3 -44t-18 -40t-34 -14q-94 5 -174 -18.5t-143.5 -66t-108.5 -98t-68.5 -114.5t-23.5 -116t27 -101.5
t82.5 -72t143.5 -27.5z" />
    <glyph glyph-name="F" unicode="F" horiz-adv-x="1076" 
d="M105 1024q-8 -54 15.5 -77.5t68 -27t106.5 9.5t132.5 33t145 42.5t144 39t129.5 22t102 -9.5q35 -13 52 -37.5t22.5 -54t1.5 -60.5t-11.5 -56.5t-15.5 -42t-11 -16.5q-26 50 -66.5 71.5t-95 24.5t-120.5 -7t-142.5 -23.5t-161.5 -25t-176 -10.5q-52 1 -85.5 13t-52.5 30
t-26 40t-6.5 43.5t6.5 40t12 29.5q10 17 22.5 18t10.5 -9zM424 808q-6 -33 -19.5 -101t-32.5 -154q30 7 72.5 16.5t87.5 15t86.5 4t70.5 -16.5q27 -14 33 -36.5t1.5 -44t-14 -37.5t-11.5 -17q1 18 -16.5 28.5t-46.5 15t-66.5 3.5t-76.5 -5t-76 -10.5t-64 -13.5
q-18 -87 -34.5 -180.5t-28 -183t-17 -170t-1 -141.5t21.5 -97.5t49 -37.5t65 25.5t63 70t55 100.5t39.5 116.5t17 116.5t-12.5 103t-48.5 74.5t-91.5 30.5q-24 0 -49.5 -5.5t-48.5 -19.5q12 41 48 65.5t83 24.5q77 2 124 -32t69 -92t21 -133t-21 -154t-56.5 -155
t-85.5 -136.5t-108 -99t-123 -41.5q-61 -3 -95.5 37t-50 109.5t-14 163t13 197t31 211t39.5 206.5q-41 -4 -76 1t-58 25q-20 20 -21 45.5t8 44.5t22 26t21 -11q9 -26 43 -32.5t82 -2.5q17 77 31.5 139.5t22.5 101.5q3 16 26.5 28t50 18.5t47.5 6t19 -9.5z" />
    <glyph glyph-name="G" unicode="G" horiz-adv-x="858" 
d="M604 471q-40 -50 -84 -94.5t-91.5 -78t-98 -53.5t-103.5 -21q-56 -1 -92.5 34t-54.5 93t-18 132.5t16 153t48 153.5t78.5 134.5t107 97t133.5 39.5q67 2 109 -20t63 -58.5t23.5 -84.5t-9.5 -98t-36 -98.5t-56 -86.5t-69.5 -61.5t-76.5 -24.5q-47 -2 -73 18t-37 44.5
t-10.5 45t7.5 20.5q5 -24 16 -42q9 -16 23.5 -29.5t37.5 -13.5q32 0 66 29.5t62 74.5t47.5 96.5t24 96.5t-10.5 74.5t-55 29.5q-42 0 -80.5 -27.5t-71 -72t-58.5 -101.5t-43 -117t-23.5 -118t0 -103.5t26.5 -74t57 -30.5q27 -1 58 12.5t63 37.5t64.5 56t62.5 66.5t56.5 69.5
t46.5 66q24 51 55.5 71.5t57 22t39 -11.5t1.5 -31q-26 -40 -43.5 -111.5t-32 -162t-29.5 -192.5t-35.5 -203t-49.5 -193t-72.5 -162.5t-104 -112.5t-144.5 -42q-64 0 -110 21.5t-75 57t-42.5 82t-13.5 96.5t13 101t37 95t58 78t76 51q28 12 52 10.5t40 -8.5t21.5 -16.5
t-2.5 -14.5q-2 -2 -8.5 1t-16 5t-21 1t-24.5 -11q-24 -18 -43 -59t-31 -92.5t-14.5 -106.5t7.5 -100t33.5 -74.5t64.5 -29.5q46 0 82 25t63.5 68t48 102t35.5 126.5t26 140.5t20.5 145.5t18 141t18.5 126.5z" />
    <glyph glyph-name="H" unicode="H" horiz-adv-x="1245" 
d="M893 288q-19 -84 -38 -170.5t-33 -166.5t-21 -150t-1.5 -122.5t24.5 -83t57 -31.5q51 0 87 27t56 66.5t24 86t-8.5 85.5t-40.5 64t-72 23q-22 -1 -28.5 3.5t-0.5 11.5t21.5 15.5t37 15.5t46.5 12t50 4q57 -2 91.5 -39t45 -92.5t-3.5 -119.5t-53.5 -119t-106 -91.5
t-161.5 -36.5q-67 0 -106.5 33t-58 90t-19.5 133.5t9.5 164.5t29 184t38.5 190q-56 -12 -119 -30.5t-128 -39.5q-21 -91 -38.5 -174.5t-26 -151.5t-5 -118t24.5 -73l-11 -0.5t-28.5 1.5t-37.5 8t-38 19.5t-30 35.5t-14 56q-1 26 3 63.5t12.5 84t20 100t25.5 111.5
q-72 -16 -134.5 -23t-106.5 10q-35 11 -52 35.5t-22 54t-1 60.5t12 56.5t16.5 42t12.5 16.5q9 -36 24.5 -61.5t48.5 -40t89 -17.5t146 7q19 82 37 165t30.5 159t17.5 142t-0.5 115t-24.5 77.5t-54 29.5q-52 0 -88 -27t-56 -67.5t-23.5 -87t8 -86t39 -64.5t70.5 -23
q35 1 33.5 -8.5t-24 -21t-59.5 -21t-74 -8.5q-42 1 -71.5 22.5t-46 56.5t-20 80t7 91.5t35 91.5t64 79.5t94 56t125.5 21.5q64 0 103.5 -30t59 -82.5t22.5 -124t-5 -154.5t-25 -173.5t-36 -180.5q61 14 123.5 27.5t120.5 21.5q19 86 35 164t22.5 141.5t2 110t-25.5 69.5
l11.5 0.5t29 -1.5t38.5 -8t39 -19t31 -35t14 -55q1 -27 -4 -66t-14 -86.5t-21.5 -102.5t-25.5 -115q41 -7 63.5 -26t31.5 -43.5t7.5 -50.5t-7.5 -47.5t-14.5 -34.5t-13.5 -12q-1 1 -1.5 18.5t-8.5 39t-26 40.5t-54 23z" />
    <glyph glyph-name="I" unicode="I" horiz-adv-x="909" 
d="M488 514q3 2 0.5 -17t-19 -43t-50.5 -44.5t-92 -21.5q-43 0 -71.5 21t-42 57t-11.5 84t20.5 101t54.5 108.5t90.5 106.5t128 94t166.5 72q9 3 28 5t41.5 3t46 1t42 -2t29.5 -6.5t9 -11.5q-27 -78 -50 -167t-41 -183t-31.5 -191t-22.5 -192q-4 -41 -9 -96t-13 -117
t-20.5 -127.5t-31 -128t-44.5 -117.5t-60.5 -97t-78.5 -66.5t-100 -24.5q-71 -1 -124 21t-89.5 60t-57.5 88t-29 105.5t-4.5 113.5t17 111t35 98.5t49.5 76.5q20 22 46.5 32t54 12t53.5 -1.5t45 -9.5t28 -12t3 -9q-55 -14 -94.5 -47.5t-63.5 -78t-34.5 -96.5t-8.5 -104
t16 -100.5t38 -85.5t58 -59t76 -21q35 0 62 23.5t48 62.5t36.5 90.5t26 108t17.5 114.5t12 110.5t8 95.5t5 70q8 87 16.5 176t20.5 176t27.5 170t37.5 160q-104 -42 -174.5 -100t-113 -119.5t-58.5 -120t-10 -101.5t31 -64.5t65 -8.5q19 7 29.5 17t16.5 19.5t8.5 17t6.5 9.5
z" />
    <glyph glyph-name="J" unicode="J" horiz-adv-x="963" 
d="M324 465q6 1 4 -11t-15 -28t-38 -30.5t-63 -16.5q-74 -4 -112.5 25.5t-47 80t12.5 116t67 133t115 131t157 110t193 69.5t224 10q26 -3 49.5 -8t42.5 -13q-30 -83 -53.5 -176.5t-41.5 -190.5t-30.5 -193.5t-20.5 -184.5q-5 -55 -13 -133.5t-23.5 -164.5t-40.5 -171
t-64 -152.5t-93.5 -110t-129.5 -42.5q-91 0 -154 36.5t-100.5 95.5t-50.5 133t-4.5 148.5t37 142t75.5 113.5q28 28 62.5 43.5t67 18t59 -8.5t39.5 -36q-57 -8 -97 -38t-65 -73.5t-36 -96t-9 -106t16 -104t38.5 -89.5t59 -62t76.5 -23q46 1 79.5 41t56.5 103.5t37.5 140.5
t23 152t13 138.5t7.5 99.5q7 87 15.5 175t20 174t27 168.5t38.5 158.5q-84 -11 -156.5 -39.5t-133.5 -67t-108.5 -85t-81.5 -93t-52.5 -90.5t-21 -78.5t11.5 -56.5t47 -25q21 -2 36 4t24.5 14t15 15.5t8.5 7.5z" />
    <glyph glyph-name="K" unicode="K" horiz-adv-x="1610" 
d="M1518 -448q-32 -49 -69.5 -75t-77 -33.5t-79.5 -0.5t-76.5 23.5t-68 39.5t-54.5 46q-42 42 -80 97.5t-72 115.5t-65.5 120.5t-61 111.5t-57.5 89t-55 54q-7 -63 -18.5 -134t-29.5 -140.5t-43.5 -133t-61.5 -112t-83.5 -77.5t-108.5 -29q-71 -1 -123.5 21t-89 59.5t-58 88
t-30 106t-5 113.5t16.5 111.5t34.5 99t49.5 75.5q20 22 47.5 32t56 12.5t55 -1.5t46 -10t29 -12t2.5 -9q-56 -14 -96 -47.5t-65 -78t-35.5 -96.5t-8 -104t16.5 -100t38.5 -85t59 -59t76.5 -22q45 1 77.5 41t55 103.5t36.5 140.5t22.5 152t12.5 138.5t7 99.5q8 87 16.5 176
t20 176t27 170t37.5 160q-102 -42 -172 -100t-111.5 -120t-57.5 -120.5t-9.5 -102t31.5 -64.5t66 -7q18 6 28.5 16.5t16.5 20t8.5 17t4.5 9.5q3 1 3 -7.5t-4.5 -22.5t-15.5 -30.5t-30 -31t-47 -24.5t-67 -10q-52 -1 -82 22.5t-40 62.5t-0.5 90.5t35.5 107.5t68 112.5t98 106
t124.5 88.5t148.5 59q24 6 55.5 7.5t59.5 -1t46.5 -8.5t15.5 -14q-40 -118 -71 -257t-51 -282q38 72 89.5 135.5t110 116.5t121.5 95.5t125 71.5t120 44.5t107 15.5q50 0 86 -25.5t52 -64t8.5 -83t-44.5 -81.5q-13 -13 -26 -22.5t-24 -15t-17.5 -6.5t-5.5 3l10.5 11.5t23 28
t21.5 36t6.5 36t-21.5 28t-64 12.5q-44 1 -104 -16t-127.5 -50t-137.5 -82t-133.5 -113t-115.5 -142.5t-84 -169.5q46 6 87.5 -15t78 -58.5t68 -86t56.5 -96.5t43.5 -90t30.5 -68q22 -49 54.5 -93t70 -79t76.5 -59.5t75.5 -34.5t67.5 -5t51 30q25 32 27 57.5t-5.5 44
t-18.5 29t-11 11.5q1 7 11 6t23.5 -10t26 -24.5t18.5 -38t1 -51t-26 -62.5z" />
    <glyph glyph-name="L" unicode="L" horiz-adv-x="1121" 
d="M269 -355q-21 6 -42 8.5t-38 2.5q-38 0 -57 -21t-22 -45.5t9.5 -45.5t37.5 -21q29 0 62 29.5t50 92.5zM295 -217q6 41 13.5 118t18.5 175.5t26.5 210t38 222t52 211.5t69 177.5t89 121.5t111.5 42t107.5 -42t74 -99.5t40 -137.5t6 -156t-28.5 -154t-63.5 -133t-99 -92
t-134.5 -31q-45 1 -74.5 23.5t-26.5 63.5q19 -12 42.5 -17t47.5 -5q58 1 101.5 29.5t73 74t46 103t21.5 117.5t-1 117t-22 101t-40.5 70.5t-57.5 25.5q-35 -2 -65 -46t-56.5 -115.5t-48 -164.5t-39.5 -193t-32.5 -201t-25 -188.5t-18.5 -155t-12 -101.5q44 -13 89 -29
t88.5 -30t85.5 -23.5t80 -9.5q46 0 89 9t76.5 25.5t54.5 40.5t24 55q3 37 -8.5 55.5t-27.5 26.5q-18 9 -43 7q-3 4 5 9.5t22.5 8.5t32 1t33.5 -12.5t27.5 -32t13.5 -56.5q3 -53 -11 -94.5t-39.5 -72.5t-58.5 -52t-69 -34t-71.5 -19t-64.5 -6q-44 0 -91 8.5t-94 22.5
t-93.5 31t-90.5 32q-19 -40 -46.5 -70.5t-59.5 -50t-66.5 -29t-67.5 -7.5q-48 1 -71 29.5t-25.5 69t14.5 86t49.5 81t78.5 54t102 5.5z" />
    <glyph glyph-name="M" unicode="M" horiz-adv-x="1908" 
d="M1382 119q7 46 22.5 114t32 142.5t31.5 148.5t21.5 133t2 95.5t-26.5 36.5q-38 0 -81.5 -42.5t-87 -112.5t-84.5 -158.5t-74 -181.5q-18 -61 -32.5 -118t-20.5 -107.5t-1.5 -93t23.5 -72.5q5 -8 -3 -16.5t-23 -14t-34.5 -6.5t-38 4.5t-33 19.5t-19.5 39q-8 44 -2 104.5
t20.5 129t34 142t38.5 143t33.5 131.5t19.5 108.5t-4 74t-37 27.5q-29 0 -60.5 -26t-63.5 -70t-64 -103t-62 -126t-56.5 -138t-48 -138.5t-37 -128.5t-22.5 -108q-4 -26 -9 -71.5t-5 -93.5t8 -90.5t30 -63.5q-44 -2 -80 9q-15 5 -30.5 13.5t-28.5 22t-22 32.5t-12 45
q-5 43 2.5 118.5t21.5 169t30.5 198.5t30 208t20 197t0.5 166t-28 115t-66 44q-43 1 -85.5 -19.5t-80.5 -54.5t-69 -78.5t-51.5 -93t-28 -96.5t2.5 -90t39 -73.5t82 -45.5q6 -2 -4.5 -7t-31 -10t-48.5 -8t-55.5 -1t-52.5 11t-39 29q-21 28 -29 70.5t-4.5 92t19.5 104
t43.5 106.5t66.5 99t89 82t111 55t132 19q55 -1 93.5 -24.5t63 -65t37 -98.5t15.5 -125t-1.5 -144t-13.5 -155q36 88 80 169.5t94 143.5t107 99t119 36q44 -1 71.5 -17t42 -44t17.5 -66t-1 -82q28 46 60 85t66.5 67t71.5 43t76 14q50 -1 78.5 -25.5t40 -65.5t9 -96
t-13.5 -116.5t-28 -127t-34 -128.5t-31.5 -120t-21.5 -102q-5 -23 -15 -73t-19 -111t-14.5 -126t-0.5 -118.5t23.5 -88t56.5 -35.5q52 0 88 27t55.5 66.5t23 86t-8.5 85.5t-40 64t-71 23q-23 -1 -29.5 3.5t-0.5 11.5t22 15.5t37.5 15.5t47.5 12t51 4q57 -2 91.5 -39
t45 -92.5t-3.5 -119.5t-53.5 -119t-106.5 -91.5t-161 -36.5q-49 0 -82.5 20t-54.5 54t-32 79.5t-14 96.5t0.5 105t9.5 105.5t13.5 97.5t13.5 81z" />
    <glyph glyph-name="N" unicode="N" horiz-adv-x="1555" 
d="M86 433q-28 38 -33.5 99.5t10 132t52.5 142t94 128.5t133.5 92t171.5 34q55 -1 93.5 -24.5t63.5 -64.5t37.5 -97.5t16 -123.5t-0.5 -142.5t-12 -154.5q37 88 83.5 169t102 142.5t119.5 97.5t135 34q58 -1 91.5 -25.5t48 -65.5t13 -96t-12.5 -116.5t-28.5 -127
t-35.5 -128.5t-33.5 -120t-22.5 -102l-15 -75t-19.5 -111t-15.5 -125.5t-2 -118t21 -87.5t52 -35q51 0 87 27t56 66.5t24 86t-7.5 85.5t-39 64t-70.5 23q-35 -1 -34 9t23.5 22t59.5 22t73 9q56 -2 90 -39t45 -92.5t-3 -119.5t-53 -119t-105 -91.5t-160 -36.5q-51 0 -86 20
t-57.5 53.5t-34 78t-15.5 95t-1 104.5t8.5 105.5t13 98.5t13.5 84q8 46 24.5 114t34 142.5t33 148.5t22 133t-1 95.5t-34.5 36.5q-38 0 -80.5 -33.5t-86 -90t-85 -129.5t-78 -153t-65 -161t-45.5 -152q-11 -78 -18 -148.5t-7.5 -128t7.5 -99t29 -62.5q-44 -2 -80 9
q-15 5 -30.5 13.5t-28 22t-22 32.5t-12.5 45q-5 43 3 118.5t22 169t30.5 198.5t30 208t20.5 197t0.5 166t-28.5 115t-67 44q-42 1 -84.5 -19.5t-80.5 -54.5t-69 -78.5t-51.5 -93t-28 -96.5t2 -90t38.5 -73.5t82 -45.5q7 -2 -3.5 -7t-31 -10t-48 -8t-55.5 -1t-52.5 11
t-39.5 29z" />
    <glyph glyph-name="O" unicode="O" 
d="M435 -554q-72 10 -121 53t-77 108.5t-36 149.5t0.5 176.5t33 188.5t63 187t89 171.5t111 141.5t129.5 97.5t144 39.5q42 1 71 -18t45 -50.5t18 -72t-11 -83.5q-10 -32 -24.5 -53t-28 -32.5t-24.5 -15t-14 -1.5q12 12 23 28q9 14 16.5 32.5t7.5 41.5q2 37 -14.5 56
t-50.5 15q-65 -3 -125 -49t-111.5 -119t-91.5 -164.5t-65 -187t-32 -186.5t8 -162.5t53.5 -115t106.5 -43.5q55 -1 109 39t103.5 108.5t92 160t75 194t52.5 209.5t24.5 207t-9 187.5t-48.5 149.5t-93 93.5t-143 19.5q-77 -11 -150 -55t-135 -105t-110 -131.5t-76 -134.5
t-33 -113.5t19 -69.5q-2 -2 -17.5 1.5t-36 14t-43 28t-38 43t-20 59.5t10.5 77q21 65 59.5 126t88 114t108 97t119.5 77t122.5 53.5t118.5 26.5q115 10 197.5 -29t135.5 -113t78.5 -176.5t26 -219.5t-22 -242t-64.5 -244t-103 -225t-136.5 -186t-165 -127t-189.5 -47z" />
    <glyph glyph-name="P" unicode="P" horiz-adv-x="1464" 
d="M77 341q-25 43 -26 113t19 150t61.5 160.5t101.5 145.5t138.5 105.5t172.5 39.5q51 0 86.5 -23.5t57.5 -65t32.5 -99t12.5 -126.5q38 69 85 124t98.5 93.5t106 59t106.5 20.5q98 0 161 -41t93 -107.5t30.5 -152t-26 -175t-77.5 -175t-123 -153t-163.5 -109t-197.5 -42.5
q-66 0 -105.5 11.5t-62.5 28.5q-22 -120 -42 -232t-30.5 -205t-8 -161t26.5 -99q-49 -4 -89 9q-17 6 -33 15.5t-29 24.5t-21.5 37t-9.5 52q-2 40 6.5 103.5t23 142.5t33.5 170.5t38 186.5t37 190t30.5 182.5t18 163t-0.5 131t-24.5 87.5t-54.5 32q-41 0 -84 -23.5
t-82.5 -62.5t-73.5 -90.5t-57.5 -106.5t-34 -110t-3 -102t34.5 -82t79 -50q6 -2 -5.5 -7.5t-32.5 -11.5t-49 -10t-55.5 -2t-51.5 12.5t-37 33.5zM717 496q-7 -72 -18.5 -144.5t-23.5 -146.5q29 -18 62.5 -28.5t72.5 -7.5q78 6 145 42t120.5 91t92.5 124t61.5 140t27.5 139
t-10 122t-50.5 87.5t-94.5 36.5q-53 1 -111.5 -32t-111.5 -93.5t-96.5 -145t-65.5 -184.5z" />
    <glyph glyph-name="Q" unicode="Q" horiz-adv-x="1504" 
d="M601 -8q-9 -2 -13.5 16t-1.5 42.5t14.5 47t33.5 29.5q34 14 60.5 0.5t50 -46.5t46 -81t49.5 -102q47 105 81 225.5t49.5 239t10 226.5t-37.5 187t-94 120.5t-158 28.5q-77 -10 -149.5 -53t-134.5 -103.5t-110 -130t-76 -132.5t-33 -112t19 -68q-1 -2 -16 1.5t-36 13.5
t-43.5 26.5t-38 41t-21 57.5t7.5 76q33 97 96.5 186t146.5 158.5t180 114.5t197 54q112 9 195.5 -22t140.5 -91.5t89.5 -146t42.5 -186t-1 -211t-40 -221.5t-75.5 -216.5t-106.5 -196.5q35 -45 81.5 -85t108 -68t140 -40.5t179.5 -2.5q11 1 15.5 -9.5t4 -27t-5 -36.5
t-10.5 -37.5t-13 -29.5t-13 -12q-112 -12 -199 5t-154.5 54t-118 87.5t-89.5 106.5q-42 -51 -89.5 -92t-99.5 -70t-107.5 -45t-113.5 -16q-91 13 -145 75t-77.5 154.5t-17.5 206t36 231t82 228.5t120.5 198.5t152 141.5t176.5 57q41 1 70 -17.5t44 -49.5t17 -70.5t-11 -81.5
q-9 -32 -23 -53t-27.5 -32t-24.5 -14.5t-14 -0.5q13 12 24 27q9 13 17 31.5t10 41.5q0 35 -17 55t-52 18q-51 -3 -99.5 -33.5t-91.5 -80.5t-80.5 -115t-66.5 -137.5t-49 -149t-28 -148.5t-3.5 -136t24 -112t55 -76t89.5 -29q32 0 65 14.5t65 42.5t62 67t57 87
q-26 50 -48 93.5t-42.5 73t-42 41.5t-46.5 -2z" />
    <glyph glyph-name="R" unicode="R" horiz-adv-x="1718" 
d="M832 184q77 -20 145 1.5t122.5 70.5t95 119t63.5 146t27 151.5t-14 136.5t-59.5 100t-109.5 42q-53 1 -111 -32t-110.5 -93.5t-94.5 -145t-63 -184.5q-12 -108 -30.5 -221.5t-38 -223.5t-36 -211t-23.5 -184t-2.5 -143t28.5 -87q-53 -4 -94 9q-18 6 -35 15.5t-31 24.5
t-23 37t-10 52q-2 40 5.5 103.5t21.5 143t33 171t38 186.5t36.5 190t30 182.5t18 162.5t0 131t-24.5 88t-54 32q-42 1 -85.5 -22.5t-83 -63t-73.5 -90.5t-57.5 -106.5t-33.5 -110.5t-3 -102t34.5 -82.5t79.5 -50.5q6 -2 -4.5 -7.5t-32 -11.5t-49.5 -9.5t-55.5 -1.5t-52 12
t-38.5 33q-26 44 -28 114t18 150t61 160.5t101.5 145.5t139.5 105.5t175 39.5q51 0 86.5 -23.5t58 -65t33 -99t12.5 -126.5q38 69 85.5 123.5t99.5 93t106 59t105 20.5q80 0 139 -28t97.5 -76t57 -111.5t18.5 -134.5t-17.5 -145t-51.5 -143t-84 -129t-115 -102.5t-143.5 -63
t-169.5 -11.5q20 -60 44.5 -133t54 -147t65 -145t77.5 -127.5t90.5 -93t104.5 -43.5q46 -5 86 15.5t70 55.5t47.5 79t18 84.5t-18.5 72.5t-61 44q-24 6 -24.5 14t15 14t43 8t57.5 -3.5t59.5 -20t49.5 -42t26 -69.5t-10 -103q-15 -56 -53 -102t-89.5 -78.5t-112 -49.5
t-119.5 -15q-76 2 -136.5 37t-109 91t-85.5 127.5t-65.5 145t-50 144t-38 125.5t-30 88.5t-26.5 32.5q-33 0 -43.5 17.5t-5.5 41t21 46.5t37 32.5t43.5 -1t38.5 -52.5z" />
    <glyph glyph-name="S" unicode="S" horiz-adv-x="1015" 
d="M954 778q-6 6 -12 21t-19.5 31.5t-37 30t-63.5 16.5q-53 4 -111.5 -8.5t-116.5 -39t-112 -65.5t-99 -86t-76.5 -101t-44.5 -112q-12 -52 6 -89t56 -66t89.5 -53.5t106.5 -50t108 -55.5t92.5 -71.5t61 -96.5t13.5 -130q-7 -65 -42 -122.5t-87 -105.5t-116.5 -85
t-131.5 -61.5t-131.5 -35t-116.5 -5.5q-49 3 -76.5 29t-37 65t-3.5 86.5t24.5 94t47.5 88.5t64.5 69.5t75 36.5t80.5 -10q-21 1 -44.5 -19.5t-44 -52t-35 -68.5t-15.5 -69t14.5 -53.5t53.5 -22.5q60 0 128 18t127 49.5t100 74t49 91.5q10 58 -10 101t-59.5 77.5t-93 62.5
t-110.5 55t-113.5 56t-101.5 65.5t-73 83.5t-30 109q-3 59 29 127t87 136t127.5 130t151.5 109t158.5 74t148.5 24q48 -3 80.5 -23.5t53 -50.5t30 -64t11.5 -64t-1.5 -51t-8.5 -24z" />
    <glyph glyph-name="T" unicode="T" horiz-adv-x="1242" 
d="M149 1024q-8 -54 18.5 -77.5t77 -27t120.5 9.5t149.5 33t163 42.5t162 39t147 22t117.5 -9.5q39 -13 58.5 -37.5t25.5 -54t2.5 -60.5t-11.5 -56.5t-17 -42t-13 -16.5q-51 57 -116.5 81t-140 27.5t-155 -8.5t-159.5 -27.5t-154 -29t-140 -13.5q-64 -1 -103.5 14
t-60.5 37.5t-26 49t1 49.5t21 38.5t33 16.5zM670 802q0 1 -20.5 10.5t-46 16.5t-47 7t-24.5 -18q-4 -35 -8.5 -103t-11.5 -155t-17 -187t-23.5 -199.5t-31.5 -192t-41 -164.5t-52 -117t-65 -50q-32 -5 -58 18t-43.5 64.5t-26.5 96.5t-6.5 113.5t16.5 116.5t42 105.5
t70.5 79.5t101.5 39q52 6 91 -14q0 41 -30 61t-75 17q-78 -6 -135.5 -45.5t-96.5 -100.5t-59 -136.5t-22 -153t13 -151t47 -129.5t80 -88.5t111 -28.5q64 2 112.5 50t85 126t62 179t43 211t28 221t17.5 208.5t11 174.5t9 118z" />
    <glyph glyph-name="U" unicode="U" horiz-adv-x="1510" 
d="M87 451q-29 37 -35 97t9 128t51.5 137t93.5 124.5t133.5 90t172.5 33.5q80 0 128.5 -38.5t72.5 -104t27 -153t-7 -186t-30 -203t-41.5 -203t-42 -186t-31.5 -153t-9.5 -104t23.5 -38.5q31 0 69.5 29.5t81 80t85.5 117t82.5 140t73 149.5t55.5 146q19 80 33.5 153t21 133
t2 104t-24.5 67q43 2 78 -9q15 -5 29 -13.5t26 -22t20 -32t10 -43.5q1 -34 -12 -100.5t-33.5 -152t-44 -183.5t-44 -195t-33.5 -186.5t-12.5 -158t19 -109.5t61.5 -42q52 0 88 27t56 66.5t24 86t-8 85.5t-40 64t-71 23q-36 -1 -34.5 9t24.5 22t60.5 22t74.5 9
q57 -2 91.5 -39t45 -92.5t-3.5 -119.5t-54 -119t-106.5 -91.5t-161.5 -36.5q-53 0 -88.5 19.5t-57.5 54t-31.5 81.5t-10 104t7 122t20.5 133q-42 -83 -90 -158t-100.5 -132t-108.5 -90.5t-114 -32.5q-61 2 -91.5 42t-38.5 107t2 156.5t29.5 189.5t44.5 205t46.5 205
t35.5 188.5t12.5 155t-23.5 105t-72 38.5q-56 1 -111 -33.5t-99 -88t-72 -118t-30 -124.5t27 -107t99 -65q6 -1 -4.5 -6t-31 -9.5t-48 -8t-55 -1.5t-51.5 10.5t-39 28.5z" />
    <glyph glyph-name="V" unicode="V" horiz-adv-x="1251" 
d="M101 419q-32 39 -43.5 102.5t-3 135t38.5 144t81 131t123.5 94.5t166.5 35q85 0 140 -40t87.5 -109t45 -161t12 -195.5t-10.5 -213t-23 -213t-25.5 -195.5t-18.5 -161t-1.5 -109t26.5 -40q30 0 67.5 51.5t77 137.5t78 198.5t71 235.5t56.5 247t34 233.5t3.5 195.5
t-34.5 133q37 2 68 -10q13 -5 26.5 -14t24.5 -22.5t19.5 -32.5t12.5 -45q3 -73 -7 -173t-31 -214t-51.5 -235t-69 -236t-83 -217.5t-93 -180t-100 -122.5t-103.5 -45q-61 0 -95 41t-49 111t-14 163.5t10 198.5t23 216.5t25 216.5t16.5 198.5t-2.5 163.5t-33.5 111t-74.5 41
q-42 0 -82 -20.5t-74.5 -56t-61 -81t-42 -95t-18 -99t11.5 -92t46 -74.5t86 -46q7 -2 -3 -7t-30 -10.5t-47.5 -9t-55.5 -1.5t-54 11.5t-43 29.5z" />
    <glyph glyph-name="W" unicode="W" horiz-adv-x="1725" 
d="M1222 324q0 -49 -3 -116.5t-5.5 -139.5t-3 -142.5t4.5 -126t17.5 -90t35.5 -34.5q24 0 50 32t52.5 88t51.5 131.5t47.5 163t41 183t31 190.5t18.5 185.5t3 168.5t-16 140t-38 99l9.5 0.5t24.5 -1.5t33.5 -8.5t36.5 -20.5t32.5 -36.5t22.5 -57.5q8 -73 5.5 -171
t-14.5 -208.5t-33.5 -227.5t-50.5 -227.5t-65.5 -209t-79 -172.5t-91 -117t-100.5 -43q-51 0 -84.5 23.5t-53.5 64t-28 95t-9 116t3 127t9 128.5q-24 -72 -53.5 -144.5t-64 -140t-73 -125.5t-81 -101t-88.5 -67t-94 -23q-60 2 -92 44t-44 112.5t-7.5 164t17.5 198.5
t31.5 215.5t33.5 215.5t23.5 197.5t2 162.5t-30.5 110.5t-75 40.5q-42 0 -82.5 -20.5t-76 -56t-63.5 -81t-45.5 -95t-22 -99t8 -92t44 -74.5t85.5 -46q6 -2 -4.5 -7t-31 -10.5t-47.5 -9t-55 -1.5t-53.5 11.5t-41.5 29.5q-31 39 -40.5 102.5t1.5 135t43 144t85 131t127 94.5
t169 35q87 0 142 -40t85.5 -109t40.5 -161t6 -195.5t-18 -213t-31.5 -213t-34 -195.5t-26 -161t-7 -109t22.5 -40q36 0 80.5 41.5t90.5 109t90.5 154.5t81 179t60.5 182t29 164q33 -2 57.5 -5t40.5 -15t23.5 -37t7.5 -73z" />
    <glyph glyph-name="X" unicode="X" horiz-adv-x="1548" 
d="M687 192q-10 66 -24.5 152t-33.5 176t-43 174.5t-54 147.5t-65.5 95t-77.5 17q-56 -21 -98.5 -72.5t-67.5 -116.5t-30 -133.5t14.5 -123t65.5 -85.5t122 -21q7 1 -2 -7.5t-27.5 -20.5t-45 -25t-54.5 -21.5t-56 -9.5t-50 11q-42 22 -69 73.5t-36 119t2.5 143.5t48 147.5
t100 131t158.5 93.5q79 28 139.5 14.5t105.5 -58t76.5 -113t53.5 -149t35.5 -167.5t23.5 -168q57 98 112.5 190t109 170t103.5 137.5t96 91.5q33 21 59 24.5t45 -4.5t30.5 -23t15 -29.5t-0.5 -24.5t-16 -8q-34 4 -72.5 -21.5t-80.5 -73.5t-87.5 -115t-93.5 -146.5
t-97.5 -167.5t-99.5 -178q10 -62 25 -144.5t39 -171t58.5 -175.5t82 -156t109.5 -113t143 -48q39 0 65 21.5t37.5 53.5t7 69t-25 69t-58 53t-93.5 21q-33 0 -62.5 -12t-51.5 -40q-21 -25 -28.5 -21t-3 24t20 50.5t42 59.5t62 51t80.5 24q62 2 106.5 -18t72.5 -55t39.5 -81
t8 -95t-21.5 -96.5t-49.5 -85.5t-77 -63.5t-102.5 -29.5q-77 -6 -141.5 26.5t-118.5 90.5t-97.5 134.5t-77 158.5t-57.5 163.5t-39 148.5q-62 -107 -123.5 -202.5t-120.5 -167.5t-115.5 -114.5t-107.5 -42.5q-36 0 -52 16.5t-21 36.5t-3 36t2 15q31 -17 68 -4.5t77.5 48.5
t84 92.5t90 127t95 152.5t98.5 168z" />
    <glyph glyph-name="Y" unicode="Y" 
d="M655 51q-2 -2 -8.5 1t-16 5t-21 0.5t-23.5 -11.5q-23 -20 -42.5 -62.5t-32 -95t-16 -108t5 -101.5t31.5 -75.5t64 -29.5q60 0 103 40.5t73.5 108t51 155.5t34.5 183t25 190t22 177q-31 -45 -68 -86.5t-77 -72.5t-82.5 -49.5t-84.5 -18.5q-50 0 -76 21.5t-35.5 58.5
t-4.5 86t16.5 104.5t27 114t28.5 114t20.5 104.5t2 86t-27 58.5t-64.5 21.5q-42 0 -83 -21t-76.5 -56t-63.5 -81t-45.5 -95t-21.5 -98.5t8.5 -92t44 -74.5t85.5 -46q7 -2 -3.5 -7t-31 -10.5t-48 -9t-55.5 -1.5t-53.5 11.5t-40.5 29.5q-31 39 -41 102.5t1.5 135t44 144
t86 131t128 94.5t170.5 35q64 -1 104 -23.5t62 -61t28.5 -89t2.5 -107.5t-15 -117t-23.5 -116.5t-24 -107t-16 -88.5t0 -60t24.5 -22q31 0 72.5 25.5t83.5 67.5t81 96.5t67 111.5q14 53 35.5 87t44.5 52.5t44.5 23.5t36.5 0.5t20.5 -16t-3.5 -26.5q-26 -41 -43 -114
t-32 -165.5t-30 -197t-36 -207.5t-50.5 -197.5t-73.5 -166.5t-105.5 -115t-145.5 -43q-64 0 -109 22t-74 58.5t-42 84t-12.5 99t13.5 103.5t37.5 97.5t58.5 80t76 51.5q28 11 51.5 9.5t39.5 -9t22 -17t0 -13.5z" />
    <glyph glyph-name="Z" unicode="Z" horiz-adv-x="1219" 
d="M1168 -312q-4 35 -17.5 56t-31 32t-37.5 13t-35.5 -1t-24.5 -9.5t-6 -11.5q27 2 47 -6q17 -7 31 -24.5t12 -55.5q-2 -30 -23 -53.5t-56.5 -40t-81.5 -26t-96.5 -10.5t-102.5 6t-99 24q-22 9 -57 23t-78 28t-91 25.5t-96 16t-93 -1.5t-82 -27t-62.5 -59.5t-35.5 -99.5
q-4 -37 3.5 -61.5t20 -40t28 -23t28.5 -9t21.5 1.5t6.5 8q-1 2 -13 5t-24 14.5t-18.5 35.5t2.5 68q9 43 46 53.5t93 2t126.5 -30.5t146.5 -45t154 -40.5t149 -17.5q32 0 71 6t78.5 19.5t76 35t64.5 53t43.5 73t12.5 94.5zM1086 824q-19 -38 -48.5 -94.5t-65.5 -125.5
t-76 -146.5t-80 -158.5q25 5 68 8.5t88.5 1.5t86 -12.5t60.5 -33.5q15 -15 18 -34.5t-3 -36.5t-19 -29t-30 -10q7 46 -17 65t-69 20t-106.5 -12t-129.5 -32q-54 -103 -101 -196.5t-80 -164.5q-6 -15 -16.5 -41t-20 -53t-15 -51.5t-0.5 -37.5q0 -1 -13 2.5t-31 13t-36.5 26
t-28.5 42.5t-7 62.5t28 85.5q26 54 59.5 121.5t71.5 143.5q-77 -18 -145 -26t-112 6q-32 9 -48 29t-21 44.5t-2 50t9.5 47t14 35t10.5 13.5q0 -25 18 -43t48 -30t67.5 -18.5t76.5 -8t76 2.5t66 13q45 90 90.5 180t87 170.5t75.5 147.5t56 111q6 13 16 37.5t18.5 51.5
t13 52.5t0.5 41.5q-19 -65 -59.5 -92.5t-94.5 -30t-117.5 12.5t-129 34.5t-129.5 37.5t-117.5 20t-94 -17t-59.5 -74q-19 -56 -1 -109t60 -94.5t101 -67t122 -25t123 31.5t103 102q4 6 6 -4.5t0 -31t-8 -47.5t-17.5 -54.5t-30 -52.5t-44.5 -40q-50 -30 -116 -38.5t-133 4
t-127.5 46t-99.5 87.5t-49 129t24 170q23 65 63.5 104t93 58.5t114.5 22.5t128.5 -3.5t134 -19.5t131.5 -26t121 -22.5t103 -9.5q45 0 73 -22t40 -56t7.5 -74.5t-23.5 -78.5z" />
    <glyph glyph-name="bracketleft" unicode="[" horiz-adv-x="405" 
d="M341 704q9 0 11.5 -9.5t1 -20.5t-8 -20.5t-15.5 -9.5q-2 -1 -8 -1.5t-13 -0.5h-13.5t-8.5 -1q-18 -101 -33.5 -194.5t-30 -186t-29 -187t-30.5 -196.5q20 2 44.5 3.5t42.5 1.5q10 1 14.5 -8t3.5 -20t-7.5 -21t-18.5 -11q-11 -2 -43 -5t-66.5 -3.5t-60 4t-22.5 16.5
q2 18 9 64t16.5 108.5t21.5 136.5t24 148.5t23.5 145t20.5 125.5t15.5 90t8.5 38q6 7 27 10.5t45.5 4t47 0t31.5 -0.5z" />
    <glyph glyph-name="backslash" unicode="\" horiz-adv-x="607" 
d="M475 -174q-106 210 -211 419t-211 424q-5 9 1 18t16 13.5t21 2t17 -15.5q52 -95 108 -198.5t113.5 -210.5t114 -214.5t110.5 -211.5q7 -14 -1.5 -24.5t-23.5 -14.5t-31 -1.5t-23 14.5z" />
    <glyph glyph-name="bracketright" unicode="]" horiz-adv-x="405" 
d="M64 -193q-9 0 -11.5 9.5t-1 20.5t8 20.5t15.5 9.5q2 1 8 1h13t13.5 0.5t8.5 1.5q18 100 33.5 194t30 186.5t29 187t30.5 196.5q-20 -2 -44.5 -3.5t-42.5 -1.5q-10 -1 -14.5 8t-3.5 20t7.5 21t18.5 11q7 1 24.5 3t39.5 3.5t45.5 2t42.5 -1.5t30.5 -6.5t9.5 -12.5
q-2 -18 -9 -64t-16.5 -108.5t-21.5 -136.5t-24 -148.5t-23.5 -145t-20.5 -125.5t-15.5 -90t-8.5 -38q-6 -8 -27 -11t-45.5 -3.5t-47 0t-31.5 0.5z" />
    <glyph glyph-name="asciicircum" unicode="^" horiz-adv-x="397" 
d="M265 594q9 -21 21.5 -50t24.5 -60t21.5 -61t13.5 -52q0 -3 -9 -9.5t-21 -11t-22.5 -3.5t-12.5 13q-3 18 -9.5 39t-14.5 43.5t-17 44t-17 39.5q-13 -17 -29.5 -38.5t-32.5 -43.5t-30 -43t-21 -37q-7 -12 -17.5 -13t-20.5 3t-16.5 11t-4.5 11q10 19 31 50.5t45.5 65.5
t48 64t38.5 46q4 3 10.5 5t14 2t14.5 -3.5t12 -11.5z" />
    <glyph glyph-name="underscore" unicode="_" horiz-adv-x="431" 
d="M344 31q-64 1 -129.5 7t-144.5 15q-11 0 -16 10.5t-3.5 23t9 23t19.5 10.5q69 2 139 1t141 -1q13 -1 18 -15t2.5 -30.5t-11.5 -30t-24 -13.5z" />
    <glyph glyph-name="grave" unicode="`" horiz-adv-x="234" 
d="M132 583q14 -33 27 -67t24 -69q3 -9 -4 -15t-17.5 -8.5t-21.5 -1t-15 7.5q-3 3 -13 17t-21.5 31.5t-22.5 36t-16 31.5q-5 11 6.5 19t27.5 12.5t30.5 6t15.5 -0.5z" />
    <glyph glyph-name="a" unicode="a" horiz-adv-x="573" 
d="M316 526q3 12 20 13.5t35 -5.5t30.5 -22.5t6.5 -38.5q-7 -30 -16 -70.5t-17 -85t-13.5 -88.5t-6.5 -79.5t4.5 -58t19.5 -24.5t38 21t51.5 58.5t55.5 77t49 76.5q5 9 13 11.5t15 0.5t10 -8.5t-2 -15.5q-10 -19 -27 -47.5t-38 -60.5t-45 -63.5t-49.5 -57t-51 -41.5
t-48.5 -16q-24 0 -41.5 11.5t-28.5 32t-16 49t-6 61.5q-17 -30 -35.5 -58.5t-39.5 -50.5t-45 -35t-51 -12q-38 1 -63 22.5t-37 56t-13 78t9 89t30 88.5t49 77t66.5 54.5t82.5 20.5q27 0 48.5 -9t37.5 -23q5 24 10 42t9 30zM258 243q3 37 9 74t11 73q-5 17 -19.5 33t-34.5 16
q-32 0 -57.5 -28t-44 -70.5t-29.5 -92t-13 -92.5t5.5 -72t25.5 -30q12 -1 30.5 16.5t39 45t40.5 61t37 66.5z" />
    <glyph glyph-name="b" unicode="b" horiz-adv-x="450" 
d="M74 156q7 -23 24 -41t40 -18q35 -1 62.5 25.5t47 66.5t29.5 87t10.5 87t-9 67t-30.5 27q-13 0 -31.5 -13t-38.5 -34t-40 -47t-36 -52q-8 -38 -14.5 -77.5t-13.5 -77.5zM119 408q26 35 58 61t70 34q43 10 72 -4.5t45 -44.5t19.5 -72t-4.5 -87.5t-26.5 -90t-47.5 -80
t-67 -58t-85 -23.5q-30 0 -53 10t-41 23q-2 -16 -4 -33.5t-5 -34.5q-1 -2 -8.5 -5t-19 -4.5t-24 0t-22.5 10t-14.5 25t-0.5 44.5q16 97 34 199t36 204.5t35.5 203t34.5 195.5l14 3t30.5 0.5t31 -13.5t15.5 -38q-16 -103 -35.5 -209t-37.5 -215z" />
    <glyph glyph-name="c" unicode="c" horiz-adv-x="407" 
d="M356 410q-2 -9 -9 -13.5t-14.5 -4.5t-12 4.5t-2.5 13.5q5 29 -8 47t-42 20q-41 2 -75 -27.5t-58.5 -75.5t-37.5 -100t-12.5 -100.5t16.5 -78t50 -31.5q19 0 42 13.5t48 35t50 48t47.5 52.5t40 49t28.5 38q6 9 14 10t13.5 -2t7 -10t-4.5 -15q-15 -23 -36 -53t-46 -61.5
t-53.5 -62t-59.5 -54.5t-63 -38.5t-64 -14.5q-46 1 -75.5 26t-44 64.5t-15 89.5t12 102t37.5 101t61 86t82.5 58t102.5 17q54 -4 72.5 -40t7.5 -93z" />
    <glyph glyph-name="d" unicode="d" horiz-adv-x="449" 
d="M356 832q10 27 28.5 38t36.5 13.5t31 -0.5l13 -3q-15 -95 -30 -195.5t-30.5 -203t-31 -204.5t-30.5 -199q-7 -42 -25.5 -59.5t-38 -20.5t-34.5 2.5t-15 7.5l10 70t13 74q-15 -20 -33 -39t-39 -34t-45 -24.5t-52 -9.5q-35 0 -57 19.5t-33 51.5t-11.5 73.5t9.5 84.5
t29 84.5t47.5 73.5t65 52t80.5 20q56 0 87 -31q15 93 28 182t27 177zM291 401q-8 20 -24 37t-40 17q-34 0 -61.5 -26.5t-46.5 -67t-29 -87t-11 -87t7.5 -67t28.5 -26.5q15 0 34.5 13.5t40 35t41 48.5t36.5 54q5 39 10.5 76.5t13.5 79.5z" />
    <glyph glyph-name="e" unicode="e" horiz-adv-x="406" 
d="M103 310q-5 -17 -10 -41.5t-7.5 -51.5t-1.5 -53.5t7.5 -48t20 -34.5t36.5 -13q31 0 67.5 26.5t72.5 64t67 76.5t51 65q5 8 12.5 9.5t13.5 -2t8 -10.5t-4 -16q-16 -24 -37 -54t-46 -61.5t-53 -61.5t-58 -54t-61 -38t-61 -14q-43 0 -71.5 23.5t-44.5 61.5t-18.5 87t7 100.5
t30.5 100.5t54 88t76 63t97 25q48 0 71.5 -19t25.5 -47.5t-15 -61t-49 -59t-78 -41.5t-102 -9zM115 351q36 -6 67.5 1t55.5 21t39.5 32.5t20 35t-3 28.5t-29.5 14q-26 0 -49 -11t-42 -29.5t-34 -42.5t-25 -49z" />
    <glyph glyph-name="f" unicode="f" horiz-adv-x="366" 
d="M103 195q31 0 65.5 5.5t69 18t67.5 32.5t61 49q7 7 15 7t13.5 -4.5t6 -11.5t-6.5 -14q-51 -54 -107.5 -86t-119.5 -46q56 -32 82.5 -91t30 -129.5t-13 -143.5t-46.5 -132.5t-70.5 -97.5t-85.5 -39q-40 -1 -64.5 31t-36.5 88.5t-14 132.5t4.5 164t18.5 183t27 189.5
t31.5 184t32 165t27.5 133.5t18 90q1 0 19 3t38.5 0.5t37.5 -13.5t17 -38q-15 -84 -30.5 -163.5t-30.5 -157t-29 -154t-27 -155.5zM96 125q-17 -105 -28 -201.5t-12.5 -170.5t8 -118.5t34.5 -44.5q26 0 50.5 36.5t41.5 92.5t24 122t-2 125.5t-36.5 103.5t-79.5 55z" />
    <glyph glyph-name="g" unicode="g" horiz-adv-x="453" 
d="M293 397q-8 22 -24.5 40t-40.5 18q-35 0 -62.5 -26.5t-46.5 -66.5t-29.5 -86.5t-11 -86.5t8.5 -67t29 -28q13 0 32.5 13.5t40 35.5t41 49.5t36.5 55.5q8 37 13.5 74t13.5 75zM248 148q-32 -42 -72.5 -72.5t-93.5 -30.5q-45 1 -69 36t-29 86t8 110t43 109.5t75 84
t103 33.5q30 0 52.5 -8t39.5 -27l13 74q27 6 48 2q18 -3 33.5 -14.5t17.5 -38.5q-27 -145 -50 -288.5t-51 -289.5q-11 -59 -30.5 -124t-53 -119t-85.5 -89t-128 -35q-56 1 -86 30t-39.5 72t0 92.5t32 93t55.5 73t72 31.5q11 0 18.5 -5t12 -11t5.5 -11t-2 -5
q-32 -2 -58 -26.5t-44.5 -59.5t-27 -75.5t-4.5 -74.5t22.5 -56t54.5 -21q30 0 53.5 17.5t42 45t32 62t23.5 69.5t16 66.5l10 52.5q11 61 21 120t20 121z" />
    <glyph glyph-name="h" unicode="h" horiz-adv-x="516" 
d="M516 300q5 8 12.5 9.5t13.5 -1.5t7.5 -9.5t-4.5 -15.5q-9 -16 -25.5 -42.5t-37 -57.5t-44 -63.5t-47 -58.5t-45 -43.5t-39.5 -18.5q-40 -1 -59.5 18.5t-25.5 52t-1 74.5t15.5 86t24 86.5t24 75.5t15 53.5t-2.5 20.5q-14 1 -34 -22.5t-42.5 -61t-46.5 -84t-45.5 -91.5
t-38.5 -84t-26 -61q-10 -36 -28 -50t-36 -16.5t-31.5 2.5t-13.5 7q15 99 30.5 203t31 209t31.5 209t31 203q11 27 29.5 38t36 13.5t30.5 -0.5l13 -3q-23 -149 -47.5 -310t-48.5 -319q22 52 49.5 105.5t58.5 96t65 68.5t70 24q30 -1 43 -22t13.5 -54.5t-8.5 -76t-21 -87
t-25 -87t-20.5 -76t-7.5 -54t14 -21.5q11 0 28 15t36 38t39 51t37.5 54t31.5 47t21 31z" />
    <glyph glyph-name="i" unicode="i" horiz-adv-x="307" 
d="M50 530q1 0 9.5 2t20 3t24 -2t21.5 -13.5t12.5 -30t-3.5 -52.5t-14.5 -72t-14 -79.5t-11 -79t-4.5 -68.5t5.5 -49.5t18.5 -21.5q14 -2 38 21t51.5 58.5t55 77t48.5 76.5q4 9 12 11.5t14 0.5t8.5 -8.5t-2.5 -15.5q-10 -19 -25.5 -47.5t-36 -60.5t-44 -63.5t-48.5 -57
t-50 -41.5t-48 -16q-44 1 -65.5 33.5t-28.5 83t-2 111.5t15.5 119.5t23 107t20.5 73.5zM173 729q23 -7 26.5 -30t-6 -47t-28.5 -40.5t-41 -10.5q-15 3 -21 14.5t-5.5 27t7 32t17 30t24 20.5t27.5 4z" />
    <glyph glyph-name="j" unicode="j" horiz-adv-x="176" 
d="M118 731q24 0 34 -20t7 -45t-17 -46.5t-38 -22.5q-23 -1 -33 19t-7.5 45t16.5 46.5t38 23.5zM41 -86q-8 -40 -19 -82.5t-27 -83t-38 -77.5t-52.5 -64.5t-70 -43.5t-90.5 -16q-57 1 -88 30t-40.5 72.5t-0.5 93.5t32 93.5t57 73.5t74 32q12 0 19.5 -5.5t11.5 -12t4.5 -12
t-1.5 -5.5q-32 -2 -59 -26.5t-45.5 -59.5t-27.5 -75.5t-5 -74.5t22.5 -56t54.5 -21q31 0 55 17.5t42.5 45t31.5 62t22.5 69.5t15.5 66.5l10 52.5q29 161 56.5 318.5t55.5 317.5q26 6 47 2q18 -3 33.5 -14.5t17.5 -38.5q-26 -145 -49 -288.5t-49 -289.5z" />
    <glyph glyph-name="k" unicode="k" horiz-adv-x="457" 
d="M79 829q11 27 29.5 38t36.5 13.5t31.5 -0.5l13.5 -3q-20 -118 -40 -247t-41 -260q21 30 44.5 61t49.5 56t53.5 40.5t54.5 15.5q43 0 64 -25t23 -62t-14 -79.5t-48 -77.5t-78.5 -56.5t-104.5 -16.5q14 -24 25.5 -52.5t23.5 -52.5t25.5 -40.5t31.5 -16.5q13 0 30.5 14.5
t37.5 37t40 50t38 54t31.5 48t20.5 32.5q5 8 12.5 10t13.5 -1t8.5 -9.5t-2.5 -14.5q-13 -21 -29.5 -50.5t-37 -61.5t-44 -63t-49 -56t-52 -40.5t-53.5 -15.5q-26 0 -42.5 15t-27.5 38.5t-18 51.5t-13 54t-13 47t-19 30q-7 -39 -13 -79.5t-11 -79.5q-7 -42 -25.5 -59.5
t-38 -20.5t-34.5 2.5t-15 7.5q15 99 31 203t31.5 209t31.5 209t31 203zM97 281q44 -17 80.5 -8t64 33t45.5 57t25.5 62.5t4 50.5t-18.5 21q-18 0 -38.5 -13.5t-41.5 -34.5t-41 -47t-36.5 -49.5t-28 -42.5t-15.5 -27v-2z" />
    <glyph glyph-name="l" unicode="l" horiz-adv-x="282" 
d="M201 867q-3 -19 -12 -63t-21 -103.5t-24.5 -130t-24 -140.5t-19.5 -135.5t-10.5 -116t2.5 -81t20 -30.5q9 0 24.5 15t33 38.5t35.5 52t34 54.5t27.5 46t15.5 27q5 9 13 11.5t14.5 -0.5t9 -9.5t-3.5 -15.5q-7 -14 -20.5 -40.5t-31.5 -58.5t-39 -65t-42.5 -60t-42.5 -44.5
t-38 -17.5q-37 0 -59.5 28.5t-33 76t-11 111t5.5 133.5t16.5 142.5t22.5 138.5t24 121.5l20 92.5q6 26 26 37.5t40.5 12t35.5 -7t13 -19.5z" />
    <glyph glyph-name="m" unicode="m" horiz-adv-x="690" 
d="M47 526q0 1 8.5 4.5t20.5 5.5t25 -0.5t23 -13.5t13.5 -33t-3.5 -60q-9 -54 -22.5 -119t-22.5 -125q19 59 44 123.5t55.5 118.5t66.5 89t77 34q21 -2 31.5 -19t12.5 -46t-2 -67t-12 -80q17 36 36.5 68t40 55.5t42 36t44.5 11.5q32 -2 46.5 -22t16.5 -51.5t-5.5 -71
t-18.5 -81t-24 -80.5t-21.5 -70t-9.5 -49.5t10 -18.5q10 0 26 15.5t33.5 39t35.5 52t33.5 54.5t27 46.5t15.5 27.5q4 9 11.5 11.5t14 0.5t9 -8.5t-1.5 -15.5q-10 -19 -24.5 -47.5t-33 -60.5t-39.5 -64t-43.5 -58t-46 -42t-46.5 -16q-30 0 -43 19.5t-15 52t4.5 73.5
t17.5 83.5t23 83.5t20.5 73.5t11 52t-5.5 19.5q-15 -1 -34.5 -26.5t-40 -65t-40.5 -87t-36 -92t-27 -80t-13 -51.5q4 -18 -11.5 -23.5t-36 -4.5t-39 5.5t-20.5 6.5q-4 13 2.5 50.5t18.5 85.5t26 100.5t24 96t13 72t-6 28.5q-11 0 -29.5 -29t-39.5 -74t-43 -99t-41 -104
t-32.5 -89t-18.5 -54q-6 -13 -23.5 -19t-37 -5t-35.5 10t-17 26q-2 25 2 65t11.5 86.5t16.5 96t18.5 95.5t18.5 85t14 63z" />
    <glyph glyph-name="n" unicode="n" horiz-adv-x="510" 
d="M-34 39q-2 25 2 64.5t11.5 86t17 96.5t19 96t18 85t14.5 63l8 3.5t20 5.5t25 0t22 -13t12.5 -33t-3.5 -60q-9 -53 -20 -116.5t-22 -121.5q23 54 53 110t63.5 102t69.5 74.5t71 27.5q28 -2 39 -22t10.5 -52t-9 -71.5t-20 -81t-23 -81t-17.5 -70t-4 -49t17 -17.5
q10 0 25.5 15.5t32.5 39t35 52t33.5 54.5t27 46.5t16.5 27.5q4 9 11.5 11.5t13.5 0t8.5 -9t-3.5 -14.5q-10 -19 -24.5 -47.5t-32.5 -60.5t-38.5 -64t-43 -58t-47 -42t-48.5 -16q-47 0 -62 33.5t-11 84.5t21 109.5t34.5 109.5t29 84.5t4.5 33.5q-16 0 -38.5 -26t-48.5 -66
t-52 -89.5t-48 -96t-37.5 -85t-19.5 -57.5q4 -17 -12.5 -25.5t-37.5 -8t-40.5 10t-21.5 27.5z" />
    <glyph glyph-name="o" unicode="o" horiz-adv-x="459" 
d="M370 386q-2 -10 -9 -15t-14 -5t-12 5t-3 15q3 16 1.5 33t-9 30.5t-20 22.5t-30.5 11q-45 4 -79 -24.5t-55 -74t-30 -99.5t-4.5 -100.5t23 -78t50.5 -31.5t57 19t43 45q-29 8 -43.5 27t-18 43t4 50t22.5 47t36.5 35t47.5 14q30 0 39.5 -19.5t7 -47t-12 -56t-18.5 -46.5
q16 4 32 17.5t31 30t28.5 34.5t23.5 32q4 8 12 10t14 -1t8.5 -9.5t-2.5 -14.5q-21 -35 -44 -62t-46.5 -46.5t-44.5 -30.5t-37 -12q-14 -22 -35.5 -46t-47 -43t-54 -31t-55.5 -10q-62 1 -96 41t-43.5 100t5 129.5t48.5 129t87 99t121 39.5q28 0 53.5 -12t42.5 -33t24.5 -49.5
t0.5 -61.5zM298 181q6 7 15 29.5t15.5 45.5t7.5 41.5t-11 18.5q-13 0 -24.5 -18.5t-17 -42t-3 -45.5t17.5 -29z" />
    <glyph glyph-name="p" unicode="p" horiz-adv-x="462" 
d="M77 148q9 -21 31 -36t45 -15q35 -1 62.5 25.5t46.5 66t28.5 86.5t10 87t-8.5 67.5t-29 27.5q-15 0 -37 -17.5t-46 -44t-46.5 -58t-37.5 -60.5zM111 381q16 20 33 40t35.5 36.5t38.5 28.5t42 17q43 10 71.5 -4.5t44.5 -44.5t19.5 -72t-4.5 -87.5t-27 -90t-47.5 -80
t-66.5 -58t-84 -23.5q-31 0 -56.5 10.5t-43.5 24.5q-19 -112 -35.5 -222t-34.5 -217q-5 -33 -15.5 -51.5t-23 -28t-25.5 -11.5t-24 0t-18 5.5t-7 4.5q18 111 36.5 228t36.5 235.5t35.5 236t34.5 228.5q11 31 29.5 44t36.5 16t31 0.5t13 -3.5q-5 -39 -11 -79.5t-14 -82.5z
" />
    <glyph glyph-name="q" unicode="q" horiz-adv-x="462" 
d="M170 -393q23 137 48 277t50 284q-16 -21 -36.5 -44t-44 -41t-50.5 -29t-55 -9q-45 4 -68.5 39.5t-28 86.5t8.5 109.5t42.5 108t74.5 82.5t103 33q31 0 58 -9t47 -28q2 19 4.5 35.5t6.5 33.5q1 1 9.5 4.5t20.5 5.5t24.5 0t21.5 -11t13 -27.5t-1 -50.5q-18 -110 -38 -225
t-40.5 -231t-40.5 -229.5t-39 -219.5l-14 -3t-30.5 0t-31 15.5t-14.5 42.5zM287 280q5 30 9.5 60.5t9.5 56.5q-3 11 -11.5 21.5t-19.5 18.5t-23 13t-24 5q-35 0 -62.5 -26.5t-46.5 -66.5t-29.5 -86.5t-11 -86.5t9 -67t29.5 -28q15 -1 38 17t47.5 46t47 61t37.5 62z" />
    <glyph glyph-name="r" unicode="r" horiz-adv-x="524" 
d="M267 531q4 6 20 5.5t33.5 -4.5t31.5 -10.5t15 -13.5q-6 -20 -15.5 -59.5t-19.5 -88t-18 -99.5t-10.5 -93t2 -70.5t20.5 -30.5q14 -2 38.5 20.5t52.5 58t56.5 77t50.5 77.5q4 9 11.5 11.5t13.5 -0.5t8.5 -10t-3.5 -15q-9 -19 -25 -47.5t-36.5 -60t-44.5 -63t-49 -56.5
t-50 -41t-47 -16q-37 0 -58.5 23t-31.5 60t-10 85t6 98t16 99t20 88q-33 -20 -67 -23.5t-62 6.5q-11 -20 -22 -41.5t-22 -42.5t-22 -39.5t-21 -33.5q-3 -5 -9.5 -5t-12 3t-8.5 8t2 11q5 12 13.5 33.5t17 46t16 48.5t10.5 42q-19 22 -15 43t19 36.5t36 22t36 1t18.5 -26
t-15.5 -60.5q22 -5 39 -3.5t32 8t29 17.5t31 25z" />
    <glyph glyph-name="s" unicode="s" horiz-adv-x="316" 
d="M273 500q-26 5 -51 -5.5t-35 -39.5q-8 -29 -3.5 -68t15 -82t21.5 -88t15.5 -86t-1.5 -76.5t-30 -59.5q-30 -28 -62 -34t-62 3t-57 31t-46 51t-29 62.5t-6 65.5t23.5 60t58.5 46q-5 -1 -10 1t-9 6t-6 8.5t1 9.5q5 9 11 24.5t12.5 34t12.5 38t11 37.5q10 34 33 56.5
t48.5 36t48.5 19t35 5.5q23 0 40 -9.5t26 -20.5t8 -19.5t-13 -6.5zM34 286q7 3 12 -1.5t7.5 -12t1 -15.5t-7.5 -12q-42 -17 -52.5 -44t-2.5 -56t30 -56t45.5 -43t44 -17t25.5 21q4 21 -4 56t-20 76.5t-24.5 87t-16.5 88.5q-11 -20 -20 -39t-18 -33z" />
    <glyph glyph-name="t" unicode="t" horiz-adv-x="286" 
d="M339 597q4 26 -10 36.5t-41 10.5t-62.5 -7t-74.5 -16q-11 -55 -23 -117t-21.5 -123.5t-15.5 -118t-6.5 -100t5.5 -69.5t22 -26q9 0 24 15t32.5 38.5t36 52t35 54.5t29 46t17.5 27q4 9 11.5 11.5t13.5 0.5t8.5 -8.5t-1.5 -15.5q-8 -15 -22 -41.5t-32.5 -58.5t-40 -65.5
t-43 -60.5t-42.5 -44.5t-38 -17.5q-37 0 -58.5 27t-32.5 73t-12 106t4 125.5t14.5 132.5t19.5 127q-36 -8 -66 -11t-51 5q-26 9 -33.5 28.5t-5.5 39.5t8.5 35t8.5 15q2 -12 15.5 -24.5t34.5 -20.5t47.5 -10.5t53.5 6.5q6 40 13 74t10 53q2 3 21.5 10t41 10.5t38 0
t12.5 -21.5l-9 -42t-14 -66q30 6 59.5 11.5t60.5 5.5q39 0 57.5 -11t24.5 -25t3 -29t-8 -22q-5 -6 -11.5 -6.5t-6.5 1.5z" />
    <glyph glyph-name="u" unicode="u" horiz-adv-x="624" 
d="M368 530q2 12 18.5 17t35 2.5t34 -12.5t14.5 -28q-7 -20 -16.5 -60t-19 -88t-17.5 -99t-10 -93.5t3 -70.5t20 -31q13 -2 37 21t52 58.5t56 77t49 76.5q5 9 12.5 11.5t14.5 0.5t10 -8.5t-1 -15.5q-11 -19 -28 -47.5t-38 -60.5t-45 -63.5t-49 -57t-50.5 -41.5t-48.5 -16
q-32 0 -51.5 20.5t-28.5 54.5t-10.5 78.5t2.5 92.5q-22 -48 -47.5 -93t-53 -79.5t-57.5 -55t-62 -20.5q-41 0 -63.5 27.5t-31.5 71.5t-7 99t10 110.5t19 105.5t20 84q6 28 27.5 39.5t44 12t39 -7.5t13.5 -18q-5 -18 -14 -58t-18 -90t-16.5 -103.5t-10 -98.5t2 -75t19.5 -32
q16 -2 35.5 17t40.5 51.5t42 74.5t40 86t35.5 87t27.5 77z" />
    <glyph glyph-name="v" unicode="v" horiz-adv-x="422" 
d="M285 236q15 -7 35 -1.5t39.5 16.5t36 25t26.5 24q9 7 17 5.5t13 -6.5t5 -12.5t-9 -13.5q-15 -14 -36 -30.5t-44.5 -29t-48 -18.5t-47.5 0q-15 -42 -30.5 -81t-32 -68t-34 -46.5t-35.5 -17.5q-36 0 -61 23.5t-41.5 61.5t-25.5 87t-11.5 100t-0.5 100t7 88q7 42 26.5 55.5
t40.5 12.5t37 -10t15 -11q-4 -16 -8.5 -55.5t-8 -89t-4 -103.5t3.5 -99t13.5 -74.5t27.5 -31.5q7 0 15.5 15.5t18.5 42t21 61.5t22 75q-14 27 -10 66.5t21 79t43.5 75t57.5 55.5q7 7 18.5 6.5t21 -6t13.5 -13t-3 -14.5q-12 -12 -25 -36.5t-26 -57.5t-26.5 -71.5t-26.5 -77.5
z" />
    <glyph glyph-name="w" unicode="w" horiz-adv-x="634" 
d="M144 504q-6 -16 -13.5 -55.5t-14.5 -89t-12 -103.5t-4.5 -99t7.5 -74.5t23 -31.5q9 0 19.5 13.5t22.5 37t25 55t26 67.5q0 48 9 98q1 11 13.5 15t28 3.5t31.5 -5.5t24 -13q-8 -46 -13.5 -93.5t-6 -86.5t5.5 -64t21 -27q8 0 18.5 17.5t23 47t26 68t27.5 80.5
q-3 30 4.5 66.5t23.5 72.5t39.5 67.5t51.5 50.5q7 7 18.5 6.5t21 -6t12.5 -13t-6 -14.5q-13 -12 -27 -36t-29.5 -56.5t-31.5 -71t-33 -78.5q13 -22 35.5 -20.5t46.5 13.5t45 29t32 26q8 8 15.5 7t11.5 -6t4 -13t-7 -14q-17 -15 -42 -34t-52 -32t-54.5 -15.5t-50.5 14.5
q-18 -42 -35 -80t-34 -67t-34 -46t-33 -17q-45 0 -69 34t-29 90q-28 -53 -54 -88.5t-51 -35.5q-37 0 -61 22.5t-38 59.5t-19.5 84.5t-4.5 97.5t7.5 99t15.5 88q10 45 31 60.5t42 15.5t36.5 -8.5t14.5 -11.5z" />
    <glyph glyph-name="x" unicode="x" horiz-adv-x="491" 
d="M46 -1q-13 -8 -24.5 -4.5t-18.5 11.5t-8.5 18t5.5 15q31 22 69 69t80 110q-11 30 -22.5 63t-18.5 64q-23 -22 -47 -41t-40 -30q-6 -5 -12.5 -3t-11 7t-4.5 11t7 11q6 6 17 15.5t24.5 21t28 25t27.5 26.5q-11 43 -14.5 76t0.5 52q2 18 15.5 25.5t30.5 6t34.5 -11.5t28 -26
t9.5 -38t-20 -48q5 -28 13 -59.5t16 -62.5q28 39 56.5 77t54.5 70t50 56t44 35q15 7 23 2t10.5 -15t0 -20t-8.5 -13q-18 -11 -42 -35.5t-52 -58.5t-57.5 -75t-59.5 -83q11 -34 23 -65.5t23.5 -56t22 -39.5t18.5 -17q12 -1 27.5 13t32.5 36t34.5 49t32.5 53.5t27.5 49
t20.5 35.5q5 9 13 11t14 -1t8.5 -9.5t-2.5 -15.5q-10 -15 -24.5 -42t-33 -59t-39 -65t-41.5 -60t-42 -44t-39 -17t-35.5 12.5t-34.5 34.5t-33 52t-31 65q-37 -51 -69 -94.5t-56 -68.5z" />
    <glyph glyph-name="y" unicode="y" horiz-adv-x="456" 
d="M43 527q3 12 20 15.5t35.5 1.5t33.5 -8.5t15 -14.5q-5 -18 -13 -58t-17 -90t-16.5 -103.5t-10.5 -98.5t0 -75t15 -32q14 -2 31 18t36 53.5t38.5 76.5t37 88.5t32.5 88t26 75.5q3 19 6.5 37t7.5 39l14.5 2.5t31.5 -0.5t32.5 -14.5t17.5 -38.5q-23 -145 -46.5 -288.5
t-49.5 -289.5q-8 -40 -19 -82.5t-27 -83t-38.5 -77.5t-53.5 -64.5t-71 -43.5t-92 -16q-57 1 -87.5 30t-40 72.5t-0.5 93.5t32 93.5t56.5 73.5t73.5 32q13 0 21.5 -5.5t12.5 -12t4.5 -12t-2.5 -5.5q-33 -2 -60 -26.5t-45 -59.5t-26.5 -75.5t-4.5 -74.5t22 -56t53 -21
q31 0 55.5 17.5t43.5 45t33 62t23.5 69.5t16 66.5t10.5 52.5q15 88 30.5 173.5t29.5 175.5q-20 -49 -42.5 -95t-48 -82t-52.5 -57.5t-55 -21.5q-39 0 -57.5 32t-24 82.5t0 112t15 120.5t20.5 108t17 75z" />
    <glyph glyph-name="z" unicode="z" horiz-adv-x="542" 
d="M33 285q-5 -9 -13 -11t-14.5 0.5t-9 9.5t3.5 16q22 43 55.5 92.5t75.5 91t91.5 68.5t104.5 25q35 -1 60 -19t36 -47.5t7.5 -68t-26.5 -79.5t-66 -81.5t-110 -74.5q80 -3 127.5 -33.5t67.5 -79t16 -109.5t-26.5 -124.5t-60.5 -123.5t-86 -106.5t-103 -75t-111 -27.5
q-58 1 -89 31t-40 75t1 97.5t33 98t57 76.5t73 33q11 0 19 -5.5t12 -12t5 -12t-2 -5.5q-32 -2 -59 -26t-45 -59.5t-26.5 -75.5t-4 -74t23 -56t53.5 -21q32 0 69 26.5t71 69t63 97t45 110t16.5 107.5t-21.5 90.5t-70 58t-129 10.5q-8 0 -13.5 9.5t-7 21t4 22t20.5 12.5
q60 9 102 33.5t67 55.5t34.5 64.5t5.5 61t-20.5 45.5t-43.5 18q-31 0 -63.5 -24.5t-62.5 -59t-55.5 -72t-41.5 -63.5z" />
    <glyph glyph-name="braceleft" unicode="{" horiz-adv-x="533" 
d="M462 666q-34 -6 -58.5 -27.5t-44.5 -53t-39 -69.5t-42.5 -78.5t-54.5 -80t-75 -72.5q39 -31 56.5 -71t24.5 -83t8 -86.5t8.5 -81.5t26 -68t60.5 -46q19 -6 12.5 -15t-26.5 -15t-46.5 -6t-47.5 12q-43 22 -62 58.5t-25.5 80t-6 89.5t-3.5 87.5t-17.5 74.5t-48.5 50
q-8 3 -9.5 8t0.5 11t6.5 11.5t9.5 8.5q42 26 68.5 62t45.5 75.5t34 79.5t34 75t45.5 62t68.5 40q27 7 54 4.5t44.5 -9.5t20 -15t-20.5 -12z" />
    <glyph glyph-name="bar" unicode="|" horiz-adv-x="321" 
d="M189 685q3 11 16.5 18t28.5 7.5t26.5 -5.5t9.5 -20q-18 -105 -38 -214t-41 -218t-42 -215.5t-41 -205.5q-2 -14 -12 -19t-20.5 -4t-18.5 7.5t-6 15.5q32 216 66 427.5t72 425.5z" />
    <glyph glyph-name="braceright" unicode="}" horiz-adv-x="533" 
d="M71 -155q34 6 58.5 27.5t44.5 53t39 69.5t42.5 78.5t54.5 80t75 72.5q-40 31 -57 71t-24 83t-8 86.5t-8.5 81.5t-26.5 68t-60 46q-20 6 -13 15t27 15t46.5 6t47.5 -12q43 -22 62 -58.5t25.5 -80t6 -89.5t3.5 -87.5t17.5 -74.5t48.5 -50q8 -3 9.5 -8t-0.5 -11t-6.5 -11.5
t-9.5 -8.5q-42 -27 -68.5 -62.5t-45.5 -75t-34 -79.5t-34 -75t-45.5 -62t-68.5 -40q-27 -7 -54 -4.5t-44.5 9.5t-20 15t20.5 12z" />
    <glyph glyph-name="asciitilde" unicode="~" horiz-adv-x="564" 
d="M84 172q-10 -19 -20.5 -13.5t-13 24t6.5 45t38 49.5q30 24 66 24.5t74.5 -9.5t76.5 -25.5t71.5 -22.5t61 0.5t43.5 41.5q3 7 9 3t10.5 -15.5t6 -27.5t-5 -33t-22.5 -32.5t-46 -24.5q-30 -8 -63.5 -1.5t-68 18t-67.5 24t-62.5 17t-54 -3.5t-40.5 -38z" />
    <glyph glyph-name="exclamdown" unicode="&#xa1;" horiz-adv-x="343" 
d="M111 -159q-2 -11 -16 -18t-29 -7.5t-26.5 5.5t-9.5 20q18 105 34 191t32 168t32.5 165.5t35.5 183.5q2 13 12.5 18.5t21.5 5t19 -6.5t7 -16q-17 -107 -30 -191t-25.5 -163.5t-26 -164t-31.5 -190.5zM207 612q-26 0 -36 17.5t-6.5 38t20 38t43.5 17.5q26 0 36 -17.5
t6.5 -38t-20 -38t-43.5 -17.5z" />
    <glyph glyph-name="cent" unicode="&#xa2;" horiz-adv-x="562" 
d="M302 685q3 11 16.5 18t28.5 7.5t26.5 -5.5t9.5 -20l-25 -144q47 -8 63 -42.5t5 -88.5q-2 -9 -9 -13.5t-14.5 -4.5t-12 4.5t-2.5 13.5q5 26 -6 43.5t-36 22.5q-18 -100 -37 -198.5t-38 -195.5q28 17 59 46.5t59.5 62t51.5 62t36 47.5q6 9 14 10t13.5 -2t7 -10t-4.5 -15
q-19 -28 -45.5 -65.5t-59 -76t-69 -71.5t-75.5 -52q-9 -48 -18.5 -94.5t-18.5 -91.5q-2 -14 -12 -19t-20.5 -4t-18.5 7.5t-6 15.5l25 167q-57 1 -89.5 37t-43 90.5t-0.5 119.5t39 124.5t74.5 104.5t106.5 61q6 38 12.5 74.5t13.5 74.5zM200 68q15 96 30 190.5t31 189.5
q-26 -22 -46.5 -56t-34.5 -73.5t-20.5 -80t-4.5 -75.5t13 -60.5t32 -34.5z" />
    <glyph glyph-name="sterling" unicode="&#xa3;" horiz-adv-x="691" 
d="M388 230q-48 0 -96 3q-8 -62 -13.5 -112t-9.5 -77q25 -8 51 -17.5t51 -18t49 -14.5t46 -6q28 0 53.5 5.5t45 15t31 23.5t13.5 32q2 22 -5 32.5t-16 15t-16.5 5t-7.5 1.5q-3 4 8 9t25.5 2t27.5 -16.5t15 -46.5q2 -46 -16 -76.5t-46 -49t-60.5 -26t-57.5 -7.5
q-53 0 -107.5 18t-108.5 36q-22 -48 -60 -69.5t-77 -20.5q-25 1 -38.5 16t-16.5 36.5t4.5 46t25 45t45.5 33.5t66 12q3 26 7.5 72t10.5 106q-51 3 -107 9q-11 0 -15.5 7.5t-2 17t10 17t20.5 7.5q25 0 50 0.5t51 0.5q7 55 16.5 114t22.5 115t30 105.5t39 86.5t48.5 58
t59.5 20q48 -3 78 -33t43 -73t9.5 -93t-22 -92.5t-51.5 -70.5t-78 -28q-28 0 -43.5 13t-13.5 36q10 -6 22.5 -9t25.5 -3q31 0 52.5 20.5t34 51t16 65.5t-3 65t-22 50t-40.5 19t-46 -39.5t-38.5 -98.5t-31.5 -133.5t-24 -145.5h100q13 0 18.5 -10.5t3.5 -23t-11 -23
t-24 -10.5zM177 -21q-26 6 -45 6q-23 -1 -34 -13t-13 -26.5t5 -26t21 -11.5q17 0 37 17.5t29 53.5z" />
    <glyph glyph-name="yen" unicode="&#xa5;" horiz-adv-x="603" 
d="M550 768q-16 -25 -29 -68t-24 -98t-22 -118.5t-24 -129.5q18 0 36 -0.5t36 -0.5q15 0 20 -10.5t3 -23t-12 -23t-25 -10.5h-35.5t-35.5 2l-12 -52h97q15 0 20 -11t3 -23.5t-12 -23.5t-25 -11q-49 0 -100 3q-17 -60 -39 -112t-51 -90.5t-65 -61t-82 -22.5q-36 0 -63.5 18.5
t-42.5 45.5t-15.5 57t17.5 53q7 9 17.5 12t20 2.5t15 -3t4.5 -5.5q-4 1 -8 0q-8 -2 -15 -6q-12 -12 -13 -32t8 -38.5t29 -32.5t50 -14t54.5 17.5t44 49t34.5 74.5t27 93q-25 2 -51.5 4.5t-54.5 5.5q-13 0 -18 8t-3.5 17.5t9 17.5t19.5 8h112q3 14 6 28.5t5 28.5q-31 3 -63 6
t-67 5q-13 0 -18 7.5t-3.5 17t9 17t19.5 7.5q29 1 57.5 1h57.5q-17 18 -32 50t-28.5 69.5t-26.5 76.5t-27 72t-29 55.5t-32 26.5q-14 4 -27 -4.5t-23.5 -22.5t-19 -29.5t-12.5 -25.5q-26 23 -31 45t3.5 41t28 34t41.5 25t44 13t36 -2q25 -9 44 -35t33 -61t25 -76t20 -81
t17 -74.5t18 -57.5q7 55 13.5 107t12.5 96t12.5 79t15.5 55q15 34 38.5 48.5t44.5 16t33.5 -6.5t5.5 -20z" />
    <glyph glyph-name="section" unicode="&#xa7;" horiz-adv-x="1108" 
d="M882 1055q48 -3 80.5 -23.5t53 -50.5t30 -64t11.5 -64t-1.5 -51t-8.5 -24q-6 6 -12 21t-19.5 31.5t-37 30t-63.5 16.5q-53 4 -111.5 -8.5t-116.5 -39t-112 -65.5t-99 -86t-76.5 -101t-44.5 -112q-12 -52 6 -89t56 -66t89.5 -53.5t106.5 -50t108 -55.5t92.5 -71.5
t61 -96.5t13.5 -130q-6 -55 -32 -104t-65 -92q-13 -62 -49.5 -116.5t-89 -99.5t-115.5 -80t-128 -57.5t-127 -32.5t-112 -5q-49 3 -76.5 29t-37 65t-3.5 86.5t24.5 94t47.5 88.5t64.5 69.5t75 36.5t80.5 -10q-21 1 -44.5 -19.5t-44 -52t-35 -68.5t-15.5 -69t14.5 -53.5
t53.5 -22.5q60 0 128 18t127 49.5t100 74t49 91.5q10 58 -10 101t-59.5 77.5t-93 62.5t-110.5 55t-113.5 56t-101.5 65.5t-73 83.5t-30 109q-2 55 25.5 118.5t76.5 127.5q16 58 56.5 120.5t97 122t124.5 112t139.5 91.5t142.5 61t133 19zM771 -155q10 60 -12 104.5t-64.5 80
t-100 64t-117.5 57t-117 60t-100 72.5q-7 -42 6 -73.5t41 -57.5t67 -47t83 -41.5t90.5 -42t88.5 -48t77 -59t56 -75.5z" />
    <glyph glyph-name="dieresis" unicode="&#xa8;" horiz-adv-x="357" 
d="M113 555q26 0 37 -17.5t8 -39t-19 -39t-44 -17.5q-27 0 -37 17.5t-6.5 39t19.5 39t42 17.5zM261 555q26 0 37 -17.5t8 -39t-19 -39t-44 -17.5q-27 0 -37 17.5t-6.5 39t19.5 39t42 17.5z" />
    <glyph glyph-name="copyright" unicode="&#xa9;" horiz-adv-x="845" 
d="M601 232q6 9 14 10.5t14.5 -1.5t9 -10t-3.5 -16q-23 -38 -55 -81.5t-71 -80.5t-83.5 -62t-91.5 -25q-50 -1 -80.5 27t-43.5 73.5t-10.5 104.5t18 120.5t43.5 120.5t65 105t83 74.5t97 28.5q39 0 62.5 -18.5t32 -47.5t2.5 -64.5t-26 -68.5q-5 -8 -12.5 -9.5t-13.5 1.5
t-9 9.5t3 15.5q13 22 16 42.5t-4.5 36t-23.5 24.5t-40 9q-32 0 -60.5 -23t-52 -60t-41 -84.5t-28.5 -97.5t-14 -98t3 -85.5t22 -60.5t43 -23q20 0 43.5 12.5t47.5 32.5t47 44.5t42.5 48t34 44t21.5 32.5zM500 745q89 0 149.5 -39.5t95.5 -104.5t45 -148t-3 -169.5
t-48.5 -169.5t-91.5 -148t-131.5 -104.5t-168.5 -39.5q-91 0 -152.5 39.5t-96 104.5t-44 148t5 169.5t51 169.5t92.5 148t131 104.5t166 39.5zM487 670q-70 0 -127 -33t-100.5 -87t-72 -123t-40 -141.5t-5.5 -141.5t32 -123t73 -87t116 -33q70 0 128.5 33t103 87t73.5 123
t41 141.5t5.5 141.5t-33 123t-74.5 87t-120 33z" />
    <glyph glyph-name="guillemotleft" unicode="&#xab;" horiz-adv-x="711" 
d="M554 25q8 -8 2.5 -20t-16 -22.5t-22.5 -15.5t-16 0q-8 7 -30 27t-50.5 46.5t-59.5 56t-57 55.5t-43 44.5t-16 23.5q0 4 2.5 19.5t6.5 32.5t7.5 31.5t5.5 16.5q83 65 174.5 131.5t175.5 127.5q7 4 17.5 0t18 -12.5t7.5 -20.5t-14 -22q-78 -58 -156 -114.5t-158 -113.5
q-3 -11 -6 -21q-2 -8 -4 -15.5t-2 -9.5q60 -57 118 -113.5t115 -111.5zM359 25q8 -8 2.5 -20t-16 -22.5t-22.5 -15.5t-16 0q-8 7 -30 27t-50.5 46.5t-59.5 56t-57 55.5t-43 44.5t-16 23.5q0 4 2.5 19.5t6.5 32.5t7.5 31.5t5.5 16.5q83 65 174.5 131.5t175.5 127.5
q7 4 17.5 0t18 -12.5t7.5 -20.5t-14 -22q-78 -58 -156 -114.5t-158 -113.5q-3 -11 -6 -21q-2 -8 -4 -15.5t-2 -9.5q60 -57 118 -113.5t115 -111.5z" />
    <glyph glyph-name="registered" unicode="&#xae;" horiz-adv-x="841" 
d="M498 745q88 0 148.5 -39.5t95.5 -104.5t44.5 -148t-3.5 -169.5t-48.5 -169.5t-91 -148t-130.5 -104.5t-167 -39.5q-90 0 -151.5 39.5t-96.5 104.5t-44 148t5 169.5t50 169.5t92 148t131 104.5t166 39.5zM485 670q-70 0 -127.5 -33t-101 -87t-72 -123t-40 -141.5
t-5.5 -141.5t32 -123t72.5 -87t115.5 -33q70 0 127.5 33t101.5 87t73.5 123t41.5 141.5t6 141.5t-32 123t-73.5 87t-118.5 33zM427 265q8 3 18.5 18.5t19.5 36.5t15 44t6 42.5t-8.5 32t-27.5 11.5q-17 0 -31 -10t-25 -25t-19 -33t-13 -34q-6 -36 -15 -75t-17.5 -75.5
t-13.5 -68t-4 -52.5q0 -2 -12 -7.5t-27 -9t-27 -2t-12 12.5q-1 12 7.5 46.5t20.5 79.5t25.5 94.5t22.5 90.5t11 67t-8 26q-14 -1 -29 -13t-28 -29t-23 -36.5t-13 -36t1.5 -26t20.5 -6.5q8 1 12.5 -3t5 -10t-3.5 -12t-13 -7q-29 -5 -42.5 9t-14.5 37t8.5 51t28 53t45 41.5
t57.5 16.5q24 -1 34 -19t12 -48q20 29 47 49t60 22q33 0 51.5 -16.5t25 -43t1 -58.5t-21 -62.5t-41 -55t-59.5 -36.5q7 -23 17 -47.5t28 -44t46 -30t70 -5.5q12 1 14.5 -7t-0.5 -18t-8.5 -19.5t-9.5 -11.5q-57 -6 -94 11.5t-58.5 45.5t-32 60t-15.5 56q-20 1 -27 12.5
t-5.5 24.5t9 25.5t18 16.5t22 -4.5t19.5 -35.5z" />
    <glyph glyph-name="degree" unicode="&#xb0;" horiz-adv-x="304" 
d="M171 375q34 0 53.5 -15.5t26 -38t1 -49.5t-21 -49.5t-39.5 -38t-54 -15.5q-36 0 -56 15.5t-27 38t-1 49.5t21.5 49.5t40.5 38t56 15.5zM158 311q-18 0 -30 -12.5t-15.5 -27t4 -27t28.5 -12.5q18 0 29.5 12.5t14.5 27t-4 27t-27 12.5z" />
    <glyph glyph-name="plusminus" unicode="&#xb1;" horiz-adv-x="456" 
d="M219 450q4 15 18.5 21.5t30.5 6t27.5 -8.5t9.5 -22l-18 -94h95q14 0 19.5 -13.5t3.5 -29t-11 -29t-24 -13.5h-100q-5 -26 -11 -51l-12 -50q-3 -12 -14 -17.5t-23 -4t-21 8t-7 18.5l12 96l-103 2q-11 0 -15.5 13t-3 28.5t9.5 28.5t21 13q25 0 50.5 0.5t51.5 0.5
q3 25 6.5 49t7.5 47zM351 34q-66 0 -132 0.5t-150 2.5q-12 0 -15.5 13.5t-1.5 29t10 29t20 13.5q69 2 140 1t141 -1q13 0 18.5 -14t3.5 -30.5t-11 -30t-23 -13.5z" />
    <glyph glyph-name="twosuperior" unicode="&#xb2;" horiz-adv-x="350" 
d="M94 503q0 -2 -2 3t-4 13.5t-3.5 19t-2.5 18.5q-2 20 14 38.5t40.5 32.5t53 21t52 4.5t37.5 -16.5t9 -43q-4 -26 -21 -57.5t-39.5 -64t-47.5 -63.5t-44 -56q30 10 55 8t43.5 -4.5t30.5 -1t17 19.5q4 13 8.5 10t7 -14t1.5 -27.5t-7.5 -31t-19.5 -23.5t-36 -5q-20 3 -37 9
t-33.5 9.5t-33.5 2.5t-38 -13q-15 -9 -23.5 -10t-13 1.5t-5.5 6.5t-1 6q3 16 27 48t53.5 70t55 78.5t30.5 75.5q2 14 -15 15t-39.5 -8.5t-43 -28t-25.5 -43.5z" />
    <glyph glyph-name="threesuperior" unicode="&#xb3;" horiz-adv-x="312" 
d="M94 524q0 -2 -4.5 0t-9.5 6.5t-8 12.5t-1 19q4 19 17 35.5t31 29t38.5 20t38.5 8.5q35 0 47.5 -17t9.5 -43t-19 -56t-38 -55q28 1 44 -13.5t20 -37t-2.5 -49.5t-23 -49.5t-42.5 -37.5t-60 -14q-38 0 -56 16t-23 35t-1 35t10 16q1 -13 7 -24q5 -10 16.5 -18.5t33.5 -12.5
q21 -4 38 6.5t28 27t15.5 35.5t1 33.5t-15 20t-33.5 -5.5q-9 -7 -14.5 2.5t2.5 20.5q12 8 27.5 30t25.5 45t8.5 41.5t-25.5 19.5q-13 0 -27.5 -6t-27 -16.5t-20.5 -25.5t-8 -34z" />
    <glyph glyph-name="acute" unicode="&#xb4;" horiz-adv-x="234" 
d="M102 583q1 2 15.5 0.5t30.5 -6t27.5 -12.5t6.5 -19q-5 -13 -16 -31.5t-22.5 -36t-21.5 -31.5t-13 -17q-5 -6 -15.5 -7.5t-21 1t-17.5 8.5t-4 15q11 35 24 69t27 67z" />
    <glyph glyph-name="cedilla" unicode="&#xb8;" horiz-adv-x="250" 
d="M75 215q2 8 10 11.5t16.5 3.5t15 -4.5t5.5 -13.5q-5 -21 -5.5 -33.5t1 -19t5.5 -8t9 -1.5q7 0 17 -0.5t20 -2t17.5 -6t10.5 -11.5q3 -8 3 -25.5t-5.5 -35.5t-19.5 -32.5t-39 -16.5q-22 -2 -44.5 -2h-30.5q-5 0 -8 6.5t-2.5 14.5t5 14.5t14.5 6.5h10t18 0.5t19.5 1
t14.5 1.5q5 0 9 7.5t5.5 16.5t0.5 16.5t-4 8.5q-8 2 -25 0.5t-29 2.5q-8 3 -13.5 9t-7 17.5t0 29.5t6.5 44z" />
    <glyph glyph-name="onesuperior" unicode="&#xb9;" horiz-adv-x="249" 
d="M198 644q-17 -88 -30.5 -175t-27.5 -173q-1 -4 -7.5 -7.5t-14 -5t-13 1t-4.5 11.5q6 68 11 146t16 161q-9 -6 -20.5 -11t-22 -8t-19 -3t-13.5 6q-5 5 -2.5 15.5t7 20.5t10 15t7.5 0q1 -6 8.5 -6.5t17.5 2.5t19.5 7.5t15.5 7.5q4 7 15 9.5t21.5 1.5t18.5 -5.5t7 -10.5z
" />
    <glyph glyph-name="ordmasculine" unicode="&#xba;" horiz-adv-x="361" 
d="M140 272q-38 0 -59.5 28t-27.5 71t2.5 92.5t31 91.5t57.5 70t81 27q40 -1 60.5 -29t24.5 -70t-7 -90.5t-33.5 -90.5t-55.5 -70.5t-74 -29.5zM152 314q24 -3 46.5 18.5t39 55t26.5 72.5t9 73t-13.5 57t-39.5 22q-24 0 -43 -21.5t-33 -54.5t-21.5 -71t-7.5 -71t9 -56
t28 -24z" />
    <glyph glyph-name="guillemotright" unicode="&#xbb;" horiz-adv-x="711" 
d="M157 519q-8 8 -2.5 20t16 22.5t22.5 15.5t16 0q7 -7 29.5 -27t51 -46.5t59.5 -56t57 -55.5t42.5 -44.5t16.5 -23.5t-2.5 -20t-6.5 -32t-7.5 -31.5t-5.5 -16.5q-83 -65 -174.5 -131.5t-175.5 -127.5q-7 -5 -17.5 -0.5t-18 13t-7.5 20t14 22.5q78 58 156 114.5t158 113.5
q3 11 6 21q2 8 3.5 15.5t2.5 9.5q-60 57 -118 113.5t-115 111.5zM352 519q-8 8 -2.5 20t16 22.5t22.5 15.5t16 0q7 -7 29.5 -27t51 -46.5t59.5 -56t57 -55.5t42.5 -44.5t16.5 -23.5t-2.5 -20t-6.5 -32t-7.5 -31.5t-5.5 -16.5q-83 -65 -174.5 -131.5t-175.5 -127.5
q-7 -5 -17.5 -0.5t-18 13t-7.5 20t14 22.5q78 58 156 114.5t158 113.5q3 11 6 21q2 8 3.5 15.5t2.5 9.5q-60 57 -118 113.5t-115 111.5z" />
    <glyph glyph-name="onequarter" unicode="&#xbc;" horiz-adv-x="607" 
d="M479 692q6 12 21.5 14.5t29.5 -1.5t22.5 -14.5t1.5 -24.5q-53 -104 -109 -211.5t-113.5 -214.5t-114 -210.5t-109.5 -198.5q-7 -14 -18 -16t-21 2.5t-15.5 13.5t-1.5 18q106 215 211.5 424t215.5 419zM442 198q1 8 11.5 11t22 2.5t20.5 -4.5t7 -9l-29 -186q19 -6 26 -17
q2 -5 0 -10.5t-6.5 -10t-9 -6t-6.5 2.5q-5 7 -9 9l-23 -136q0 -2 -6.5 -5t-14 -4t-13 0.5t-3.5 8.5q3 35 5.5 71t5.5 74q-29 -1 -64 -6t-64 -4q-5 0 -15.5 1.5t-18.5 4.5t-10.5 9t9.5 15q13 10 34 36t41.5 56t36.5 57.5t18 42.5q1 7 9 8.5t18 0t18 -5t8 -4.5q-3 -15 -16 -41
t-30 -54.5t-35.5 -54t-31.5 -38.5q20 3 45.5 5.5t50.5 1.5q4 44 8.5 88.5t10.5 90.5zM279 644q-17 -88 -30.5 -175t-27.5 -173q-1 -4 -7.5 -7.5t-14 -5t-13 1t-4.5 11.5q6 68 11 146t16 161q-9 -6 -20.5 -11t-22 -8t-19 -3t-13.5 6q-5 5 -2.5 15.5t7 20.5t10 15t7.5 0
q1 -6 8.5 -6.5t17.5 2.5t19.5 7.5t15.5 7.5q4 7 15 9.5t21.5 1.5t18.5 -5.5t7 -10.5z" />
    <glyph glyph-name="onehalf" unicode="&#xbd;" horiz-adv-x="611" 
d="M479 692q6 12 22 14.5t31 -1.5t24 -14.5t2 -24.5q-54 -104 -111 -211.5t-114 -214.5t-113.5 -210.5t-109.5 -198.5q-7 -14 -18.5 -16t-21.5 2.5t-16 13.5t-2 18q106 215 212 424t215 419zM334 77q0 -2 -1.5 3t-3.5 13.5t-4 19t-3 18.5q-1 20 15 38.5t40.5 32.5t53 21
t51.5 4.5t37 -16.5t9 -43q-4 -26 -21 -57.5t-39.5 -64t-47.5 -63.5t-44 -56q30 10 55 8t43.5 -4.5t30.5 -1t17 19.5q4 13 8.5 10t7 -14t1.5 -27.5t-7.5 -31t-20 -23t-35.5 -5.5q-20 3 -37 9t-33.5 9.5t-33.5 2.5t-38 -13q-15 -9 -23.5 -10t-13 1.5t-5.5 6.5t-1 6q3 16 27 48
t53.5 70t55 78.5t30.5 75.5q2 14 -15 15t-39.5 -8.5t-43 -28t-25.5 -43.5zM296 644q-14 -88 -27.5 -175t-24.5 -173q-2 -4 -9.5 -7.5t-15.5 -5t-14.5 1t-5.5 11.5q8 68 14 145.5t16 160.5q-10 -6 -21.5 -11t-22 -8t-19.5 -2.5t-14 6.5q-3 5 -0.5 15.5t7 20.5t9.5 15t7 0
q1 -6 8 -6.5t16 1.5t18.5 6t17.5 8q4 8 14.5 11t22 2t19 -5t5.5 -11z" />
    <glyph glyph-name="threequarters" unicode="&#xbe;" horiz-adv-x="606" 
d="M476 692q6 12 21.5 14.5t30.5 -1.5t23.5 -14.5t-0.5 -24.5q-53 -104 -109 -211.5t-112.5 -214.5t-112.5 -210.5t-108 -198.5q-7 -14 -18 -16t-20.5 2.5t-15.5 13.5t-3 18q106 215 212 424t212 419zM448 198q2 8 13 11t23 2.5t21 -4.5t7 -9q-9 -48 -16.5 -93.5
t-15.5 -91.5q19 -6 26 -18q2 -5 0 -10.5t-5.5 -10t-8 -6t-7.5 2.5q-4 6 -10 10l-21 -137q0 -2 -6.5 -5t-13.5 -4t-13 0.5t-5 8.5q3 35 5.5 71t5.5 74q-29 -1 -62.5 -6t-57.5 -4q-6 0 -17.5 1.5t-19.5 4.5t-10.5 9t9.5 15q13 10 33 36t40 56t35 57.5t17 42.5q2 7 10.5 8.5
t18 0t17 -5t7.5 -4.5q-2 -15 -15 -41t-29.5 -54.5t-34 -54t-29.5 -38.5q18 3 42.5 5.5t48.5 1.5q6 88 18 179zM102 524q0 -2 -4.5 0t-9.5 6.5t-8 12.5t-1 19q4 19 17 35.5t31 29t38.5 20t38.5 8.5q35 0 47.5 -17t9.5 -43t-19 -56t-38 -55q28 1 44 -13.5t20 -37t-2.5 -49.5
t-23 -49.5t-42.5 -37.5t-60 -14q-38 0 -56 16t-23 35t-1 35t10 16q1 -13 7 -24q5 -10 16.5 -18.5t33.5 -12.5q21 -4 38 6t28 26.5t15.5 36t1 34t-15 20t-33.5 -5.5q-9 -7 -14.5 2.5t2.5 20.5q12 8 27.5 30t25.5 45t8.5 41.5t-25.5 19.5q-13 0 -27.5 -6t-27 -16.5
t-20.5 -25.5t-8 -34z" />
    <glyph glyph-name="questiondown" unicode="&#xbf;" horiz-adv-x="467" 
d="M353 -86q-27 -28 -63 -45t-73.5 -23t-72.5 -0.5t-58.5 23.5t-32.5 48.5t6 74.5q14 41 38.5 85t53 90.5t57.5 95.5t51 99.5t34 103.5t6 108q1 12 15 19t30 7.5t29 -7t12 -25.5q4 -57 -9 -112.5t-37 -108.5t-55.5 -102.5t-63 -94.5t-59 -85t-44.5 -74q-16 -32 -2 -54
t43 -31t65 -1.5t64 36.5q20 21 33.5 50.5t16.5 59.5t-7 55t-37 37q-17 7 -17.5 13.5t8.5 11.5t24.5 7t30.5 0q43 -3 61 -33t17 -71t-18.5 -84.5t-45.5 -72.5zM337 633q-26 0 -36.5 17.5t-7 38t19.5 38t43 17.5q26 0 36.5 -17.5t7 -38t-19.5 -38t-43 -17.5z" />
    <glyph glyph-name="Agrave" unicode="&#xc0;" horiz-adv-x="1549" 
d="M668 451q5 1 2.5 -11.5t-15.5 -28t-38 -29.5t-64 -17q-73 -3 -112 25.5t-47 77.5t12.5 112t66.5 128.5t114.5 127.5t156 108t192 70.5t222.5 15.5q32 -3 64.5 -10t58 -22t39 -40t6.5 -64q-5 -37 -11.5 -99.5t-14 -143t-14.5 -175t-11 -193.5q62 12 116.5 24.5t98.5 24.5
q8 1 8.5 -11t-4.5 -31t-14 -40.5t-20 -40.5t-22 -32t-20 -13q-32 -2 -68.5 -4.5t-75.5 -6.5q-1 -83 1 -163t9 -151.5t18.5 -131.5t29.5 -104t42.5 -69t57.5 -25q1 -10 -12.5 -24.5t-35.5 -28.5t-49.5 -26t-55.5 -16.5t-52.5 1t-39.5 24.5q-32 42 -51.5 113t-28.5 162.5
t-9 199t6 221.5q-53 -5 -104 -9.5t-103 -9.5q-15 -41 -31 -78t-30 -70q-32 -74 -66 -136.5t-80 -108.5t-109.5 -72.5t-154.5 -27.5q-101 -2 -173 26t-117 75t-65.5 107t-19.5 123.5t22 124.5t59 109t91 78.5t118 32.5q46 0 72 -12.5t36.5 -28.5t9 -30t-8.5 -16q-3 0 -5 6.5
t-8 15t-18 15t-34 5.5q-45 -3 -74 -32.5t-43 -74t-15 -99t10 -109t32.5 -103t51.5 -81t67 -43.5t80 10t90 79t96 164q12 26 27.5 60t32.5 74q-29 -2 -54.5 -4t-48.5 -4q0 -1 -2 16t-1.5 39t6 41.5t20.5 23.5q27 4 59.5 6t68.5 6q43 103 84.5 210t84 203t89 175t100.5 127
q-92 -2 -172 -25t-147.5 -59.5t-121.5 -83t-92.5 -95t-61 -95.5t-27 -84.5t9.5 -61.5t49 -27q21 -1 35.5 6t24 15.5t15.5 15.5t10 7zM1114 259q11 125 26.5 247.5t32.5 228.5q-26 -51 -54.5 -110.5t-57 -123.5t-56.5 -130.5t-55 -131.5q42 7 82 11.5t82 8.5zM1189 1236
q14 -33 27 -67t24 -69q3 -9 -4 -15t-17.5 -8.5t-21.5 -1t-15 7.5q-3 3 -13 17t-21.5 31.5t-22.5 36t-16 31.5q-5 11 6.5 19t27.5 12.5t30.5 6t15.5 -0.5z" />
    <glyph glyph-name="Aacute" unicode="&#xc1;" horiz-adv-x="1549" 
d="M668 451q5 1 2.5 -11.5t-15.5 -28t-38 -29.5t-64 -17q-73 -3 -112 25.5t-47 77.5t12.5 112t66.5 128.5t114.5 127.5t156 108t192 70.5t222.5 15.5q32 -3 64.5 -10t58 -22t39 -40t6.5 -64q-5 -37 -11.5 -99.5t-14 -143t-14.5 -175t-11 -193.5q62 12 116.5 24.5t98.5 24.5
q8 1 8.5 -11t-4.5 -31t-14 -40.5t-20 -40.5t-22 -32t-20 -13q-32 -2 -68.5 -4.5t-75.5 -6.5q-1 -83 1 -163t9 -151.5t18.5 -131.5t29.5 -104t42.5 -69t57.5 -25q1 -10 -12.5 -24.5t-35.5 -28.5t-49.5 -26t-55.5 -16.5t-52.5 1t-39.5 24.5q-32 42 -51.5 113t-28.5 162.5
t-9 199t6 221.5q-53 -5 -104 -9.5t-103 -9.5q-15 -41 -31 -78t-30 -70q-32 -74 -66 -136.5t-80 -108.5t-109.5 -72.5t-154.5 -27.5q-101 -2 -173 26t-117 75t-65.5 107t-19.5 123.5t22 124.5t59 109t91 78.5t118 32.5q46 0 72 -12.5t36.5 -28.5t9 -30t-8.5 -16q-3 0 -5 6.5
t-8 15t-18 15t-34 5.5q-45 -3 -74 -32.5t-43 -74t-15 -99t10 -109t32.5 -103t51.5 -81t67 -43.5t80 10t90 79t96 164q12 26 27.5 60t32.5 74q-29 -2 -54.5 -4t-48.5 -4q0 -1 -2 16t-1.5 39t6 41.5t20.5 23.5q27 4 59.5 6t68.5 6q43 103 84.5 210t84 203t89 175t100.5 127
q-92 -2 -172 -25t-147.5 -59.5t-121.5 -83t-92.5 -95t-61 -95.5t-27 -84.5t9.5 -61.5t49 -27q21 -1 35.5 6t24 15.5t15.5 15.5t10 7zM1114 259q11 125 26.5 247.5t32.5 228.5q-26 -51 -54.5 -110.5t-57 -123.5t-56.5 -130.5t-55 -131.5q42 7 82 11.5t82 8.5zM1236 1225
q1 2 15.5 0.5t30.5 -6t27.5 -12.5t6.5 -19q-5 -13 -16 -31.5t-22.5 -36t-21.5 -31.5t-13 -17q-5 -6 -15.5 -7.5t-21 1t-17.5 8.5t-4 15q11 35 24 69t27 67z" />
    <glyph glyph-name="Acircumflex" unicode="&#xc2;" horiz-adv-x="1549" 
d="M668 451q5 1 2.5 -11.5t-15.5 -28t-38 -29.5t-64 -17q-73 -3 -112 25.5t-47 77.5t12.5 112t66.5 128.5t114.5 127.5t156 108t192 70.5t222.5 15.5q32 -3 64.5 -10t58 -22t39 -40t6.5 -64q-5 -37 -11.5 -99.5t-14 -143t-14.5 -175t-11 -193.5q62 12 116.5 24.5t98.5 24.5
q8 1 8.5 -11t-4.5 -31t-14 -40.5t-20 -40.5t-22 -32t-20 -13q-32 -2 -68.5 -4.5t-75.5 -6.5q-1 -83 1 -163t9 -151.5t18.5 -131.5t29.5 -104t42.5 -69t57.5 -25q1 -10 -12.5 -24.5t-35.5 -28.5t-49.5 -26t-55.5 -16.5t-52.5 1t-39.5 24.5q-32 42 -51.5 113t-28.5 162.5
t-9 199t6 221.5q-53 -5 -104 -9.5t-103 -9.5q-15 -41 -31 -78t-30 -70q-32 -74 -66 -136.5t-80 -108.5t-109.5 -72.5t-154.5 -27.5q-101 -2 -173 26t-117 75t-65.5 107t-19.5 123.5t22 124.5t59 109t91 78.5t118 32.5q46 0 72 -12.5t36.5 -28.5t9 -30t-8.5 -16q-3 0 -5 6.5
t-8 15t-18 15t-34 5.5q-45 -3 -74 -32.5t-43 -74t-15 -99t10 -109t32.5 -103t51.5 -81t67 -43.5t80 10t90 79t96 164q12 26 27.5 60t32.5 74q-29 -2 -54.5 -4t-48.5 -4q0 -1 -2 16t-1.5 39t6 41.5t20.5 23.5q27 4 59.5 6t68.5 6q43 103 84.5 210t84 203t89 175t100.5 127
q-92 -2 -172 -25t-147.5 -59.5t-121.5 -83t-92.5 -95t-61 -95.5t-27 -84.5t9.5 -61.5t49 -27q21 -1 35.5 6t24 15.5t15.5 15.5t10 7zM1114 259q11 125 26.5 247.5t32.5 228.5q-26 -51 -54.5 -110.5t-57 -123.5t-56.5 -130.5t-55 -131.5q42 7 82 11.5t82 8.5zM1215 1281
q8 -18 18.5 -42.5t20 -51t18 -51.5t11.5 -43q0 -2 -7.5 -7.5t-17.5 -9.5t-18.5 -3t-10.5 11q-2 15 -7.5 32.5t-12.5 36.5t-15 37.5t-14 33.5q-11 -15 -25 -33t-27.5 -36.5t-25 -36t-17.5 -31.5q-6 -10 -15 -11t-17 2.5t-13.5 9.5t-3.5 9q8 16 26 42.5t38 55t40 54t32 39.5
q7 5 21 6t22 -13z" />
    <glyph glyph-name="Atilde" unicode="&#xc3;" horiz-adv-x="1549" 
d="M668 451q5 1 2.5 -11.5t-15.5 -28t-38 -29.5t-64 -17q-73 -3 -112 25.5t-47 77.5t12.5 112t66.5 128.5t114.5 127.5t156 108t192 70.5t222.5 15.5q32 -3 64.5 -10t58 -22t39 -40t6.5 -64q-5 -37 -11.5 -99.5t-14 -143t-14.5 -175t-11 -193.5q62 12 116.5 24.5t98.5 24.5
q8 1 8.5 -11t-4.5 -31t-14 -40.5t-20 -40.5t-22 -32t-20 -13q-32 -2 -68.5 -4.5t-75.5 -6.5q-1 -83 1 -163t9 -151.5t18.5 -131.5t29.5 -104t42.5 -69t57.5 -25q1 -10 -12.5 -24.5t-35.5 -28.5t-49.5 -26t-55.5 -16.5t-52.5 1t-39.5 24.5q-32 42 -51.5 113t-28.5 162.5
t-9 199t6 221.5q-53 -5 -104 -9.5t-103 -9.5q-15 -41 -31 -78t-30 -70q-32 -74 -66 -136.5t-80 -108.5t-109.5 -72.5t-154.5 -27.5q-101 -2 -173 26t-117 75t-65.5 107t-19.5 123.5t22 124.5t59 109t91 78.5t118 32.5q46 0 72 -12.5t36.5 -28.5t9 -30t-8.5 -16q-3 0 -5 6.5
t-8 15t-18 15t-34 5.5q-45 -3 -74 -32.5t-43 -74t-15 -99t10 -109t32.5 -103t51.5 -81t67 -43.5t80 10t90 79t96 164q12 26 27.5 60t32.5 74q-29 -2 -54.5 -4t-48.5 -4q0 -1 -2 16t-1.5 39t6 41.5t20.5 23.5q27 4 59.5 6t68.5 6q43 103 84.5 210t84 203t89 175t100.5 127
q-92 -2 -172 -25t-147.5 -59.5t-121.5 -83t-92.5 -95t-61 -95.5t-27 -84.5t9.5 -61.5t49 -27q21 -1 35.5 6t24 15.5t15.5 15.5t10 7zM1114 259q11 125 26.5 247.5t32.5 228.5q-26 -51 -54.5 -110.5t-57 -123.5t-56.5 -130.5t-55 -131.5q42 7 82 11.5t82 8.5zM998 1091
q-7 -15 -13.5 -13t-10 14t-2.5 29.5t9 32.5q17 33 38.5 46.5t45.5 14.5t49 -7t50.5 -18.5t49.5 -20t45 -11.5t38 7t28 35q4 8 9 3t8.5 -18t3 -30.5t-8 -33.5t-23.5 -29t-43 -16q-24 -3 -50 4.5t-52 18t-51 21t-47.5 13t-41 -6t-31.5 -35.5z" />
    <glyph glyph-name="Adieresis" unicode="&#xc4;" horiz-adv-x="1549" 
d="M668 451q5 1 2.5 -11.5t-15.5 -28t-38 -29.5t-64 -17q-73 -3 -112 25.5t-47 77.5t12.5 112t66.5 128.5t114.5 127.5t156 108t192 70.5t222.5 15.5q32 -3 64.5 -10t58 -22t39 -40t6.5 -64q-5 -37 -11.5 -99.5t-14 -143t-14.5 -175t-11 -193.5q62 12 116.5 24.5t98.5 24.5
q8 1 8.5 -11t-4.5 -31t-14 -40.5t-20 -40.5t-22 -32t-20 -13q-32 -2 -68.5 -4.5t-75.5 -6.5q-1 -83 1 -163t9 -151.5t18.5 -131.5t29.5 -104t42.5 -69t57.5 -25q1 -10 -12.5 -24.5t-35.5 -28.5t-49.5 -26t-55.5 -16.5t-52.5 1t-39.5 24.5q-32 42 -51.5 113t-28.5 162.5
t-9 199t6 221.5q-53 -5 -104 -9.5t-103 -9.5q-15 -41 -31 -78t-30 -70q-32 -74 -66 -136.5t-80 -108.5t-109.5 -72.5t-154.5 -27.5q-101 -2 -173 26t-117 75t-65.5 107t-19.5 123.5t22 124.5t59 109t91 78.5t118 32.5q46 0 72 -12.5t36.5 -28.5t9 -30t-8.5 -16q-3 0 -5 6.5
t-8 15t-18 15t-34 5.5q-45 -3 -74 -32.5t-43 -74t-15 -99t10 -109t32.5 -103t51.5 -81t67 -43.5t80 10t90 79t96 164q12 26 27.5 60t32.5 74q-29 -2 -54.5 -4t-48.5 -4q0 -1 -2 16t-1.5 39t6 41.5t20.5 23.5q27 4 59.5 6t68.5 6q43 103 84.5 210t84 203t89 175t100.5 127
q-92 -2 -172 -25t-147.5 -59.5t-121.5 -83t-92.5 -95t-61 -95.5t-27 -84.5t9.5 -61.5t49 -27q21 -1 35.5 6t24 15.5t15.5 15.5t10 7zM1114 259q11 125 26.5 247.5t32.5 228.5q-26 -51 -54.5 -110.5t-57 -123.5t-56.5 -130.5t-55 -131.5q42 7 82 11.5t82 8.5zM1111 1179
q26 0 37 -17.5t8 -39t-19 -39t-44 -17.5q-27 0 -37 17.5t-6.5 39t19.5 39t42 17.5zM1259 1179q26 0 37 -17.5t8 -39t-19 -39t-44 -17.5q-27 0 -37 17.5t-6.5 39t19.5 39t42 17.5z" />
    <glyph glyph-name="Aring" unicode="&#xc5;" horiz-adv-x="1549" 
d="M668 451q5 1 2.5 -11.5t-15.5 -28t-38 -29.5t-64 -17q-73 -3 -112 25.5t-47 77.5t12.5 112t66.5 128.5t114.5 127.5t156 108t192 70.5t222.5 15.5q32 -3 64.5 -10t58 -22t39 -40t6.5 -64q-5 -37 -11.5 -99.5t-14 -143t-14.5 -175t-11 -193.5q62 12 116.5 24.5t98.5 24.5
q8 1 8.5 -11t-4.5 -31t-14 -40.5t-20 -40.5t-22 -32t-20 -13q-32 -2 -68.5 -4.5t-75.5 -6.5q-1 -83 1 -163t9 -151.5t18.5 -131.5t29.5 -104t42.5 -69t57.5 -25q1 -10 -12.5 -24.5t-35.5 -28.5t-49.5 -26t-55.5 -16.5t-52.5 1t-39.5 24.5q-32 42 -51.5 113t-28.5 162.5
t-9 199t6 221.5q-53 -5 -104 -9.5t-103 -9.5q-15 -41 -31 -78t-30 -70q-32 -74 -66 -136.5t-80 -108.5t-109.5 -72.5t-154.5 -27.5q-101 -2 -173 26t-117 75t-65.5 107t-19.5 123.5t22 124.5t59 109t91 78.5t118 32.5q46 0 72 -12.5t36.5 -28.5t9 -30t-8.5 -16q-3 0 -5 6.5
t-8 15t-18 15t-34 5.5q-45 -3 -74 -32.5t-43 -74t-15 -99t10 -109t32.5 -103t51.5 -81t67 -43.5t80 10t90 79t96 164q12 26 27.5 60t32.5 74q-29 -2 -54.5 -4t-48.5 -4q0 -1 -2 16t-1.5 39t6 41.5t20.5 23.5q27 4 59.5 6t68.5 6q43 103 84.5 210t84 203t89 175t100.5 127
q-92 -2 -172 -25t-147.5 -59.5t-121.5 -83t-92.5 -95t-61 -95.5t-27 -84.5t9.5 -61.5t49 -27q21 -1 35.5 6t24 15.5t15.5 15.5t10 7zM1114 259q11 125 26.5 247.5t32.5 228.5q-26 -51 -54.5 -110.5t-57 -123.5t-56.5 -130.5t-55 -131.5q42 7 82 11.5t82 8.5zM1247 1270
q34 0 53.5 -15.5t26 -38t1 -49.5t-21 -49.5t-39.5 -38t-54 -15.5q-36 0 -56 15.5t-27 38t-1 49.5t21.5 49.5t40.5 38t56 15.5zM1234 1206q-18 0 -30 -12.5t-15.5 -27t4 -27t28.5 -12.5q18 0 29.5 12.5t14.5 27t-4 27t-27 12.5z" />
    <glyph glyph-name="AE" unicode="&#xc6;" horiz-adv-x="1946" 
d="M1437 -345q61 0 120 17t111.5 45.5t97.5 64.5t78.5 73t54 72.5t24.5 62t-10.5 41.5t-51.5 12q-20 -1 -35 -11t-16 -8q-7 1 -1.5 11.5t20 22.5t37 20.5t48.5 6.5q49 -3 70.5 -28t19 -63.5t-26.5 -87t-65.5 -98.5t-98.5 -98t-126 -86t-148 -62t-163 -26q-120 -3 -199 39.5
t-119 112.5t-42.5 157.5t31.5 173.5l2 58t3 58q-53 -5 -104 -9.5t-103 -9.5q-15 -41 -31 -78t-30 -70q-32 -74 -66 -136.5t-80 -108.5t-109.5 -72.5t-154.5 -27.5q-101 -2 -173 26t-117 75t-65.5 107t-19.5 123.5t22 124.5t59 109t91 78.5t118 32.5q46 0 72 -12.5
t36.5 -28.5t9 -30t-8.5 -16q-3 0 -5 6.5t-8 15t-18 15t-34 5.5q-45 -3 -74 -32.5t-43 -74t-15 -99t10 -109t32.5 -103t51.5 -81t67 -43.5t80 10t90 79t96 164q12 26 27.5 60t32.5 74q-29 -2 -54.5 -4t-48.5 -4q0 -1 -2 16t-1.5 39t6 41.5t20.5 23.5q27 4 59.5 6t68.5 6
q43 103 84.5 210t84 203t89 175t100.5 127q-92 -2 -172 -25t-147.5 -59.5t-121.5 -83t-92.5 -95t-61 -95.5t-27 -84.5t9.5 -61.5t49 -27q21 -1 35.5 6t24 15.5t15.5 15.5t10 7q5 1 2.5 -11.5t-15.5 -28t-38 -29.5t-64 -17q-73 -3 -112 25.5t-47 77.5t12.5 112t66.5 128.5
t114.5 127.5t156 108t192 70.5t222.5 15.5q32 -3 64.5 -10t58 -22t39 -40t6.5 -64q-4 -29 -9 -77q20 54 58 102t91 85t119.5 59t144.5 24q38 1 80.5 -5t82.5 -19.5t74.5 -34t57.5 -48.5t32 -63.5t-3 -78.5q-16 -49 -43.5 -77.5t-54 -42t-46 -14.5t-19.5 6q5 -2 14.5 0.5
t20 10t22 20.5t20.5 33q19 43 6.5 77t-43 58t-73.5 37t-84 15q-84 4 -154 -27t-114 -83.5t-57.5 -118.5t14.5 -130.5t103 -120.5t208 -88q22 -5 29 -26t3 -44t-18 -40t-34 -14q-89 5 -165.5 -16.5t-138.5 -59.5q-9 -13 -17 -21t-15 -8q-4 -1 -12 -1q-57 -44 -96 -98.5
t-58 -111t-15.5 -110.5t31.5 -95.5t82.5 -67t138.5 -25.5zM1223 283q27 5 53.5 10.5t51.5 11.5q56 23 121 36t140 11q-80 17 -140 47t-102 68t-66.5 83t-33.5 93q-7 -80 -13.5 -171.5t-10.5 -188.5zM1062 259q11 125 26.5 247.5t32.5 228.5q-26 -51 -54.5 -110.5t-57 -123.5
t-56.5 -130.5t-55 -131.5q42 7 82 11.5t82 8.5z" />
    <glyph glyph-name="Ccedilla" unicode="&#xc7;" horiz-adv-x="1037" 
d="M838 0q-19 -1 -31.5 -10t-15.5 -9q-5 2 1 13t19.5 23t33 21t42.5 7q44 -4 62 -29t15 -63.5t-25 -87t-60 -98.5t-89 -97.5t-112 -85.5t-129 -62t-140 -27q-6 -32 -1.5 -40t14.5 -8q7 0 17 -0.5t20 -2t17.5 -6t10.5 -11.5q3 -8 3 -25.5t-5.5 -35.5t-19.5 -32.5t-39 -16.5
q-22 -2 -44.5 -2h-30.5q-5 0 -8 6.5t-2.5 14.5t5 14.5t14.5 6.5h10t18 0.5t19.5 1t14.5 1.5q5 0 9 7.5t5.5 16.5t0.5 16.5t-4 8.5q-8 2 -25 0.5t-29 2.5q-15 6 -20 23.5t3 60.5q-93 7 -157 56t-100.5 127t-48 179t-0.5 213t42.5 228.5t80.5 225.5t114.5 204t143.5 164
t168 106t188 29q77 -6 121.5 -45t61 -98t8 -132.5t-36 -149.5t-72 -148t-100 -128.5t-119 -91.5t-130.5 -36q-31 0 -65 11t-59 32t-35 52t7 70q16 -36 52.5 -58.5t78.5 -23.5q47 0 93 25t88 66.5t77 95t59 109t36 108.5t7 94.5t-28.5 67t-69.5 25.5q-65 1 -127.5 -33.5
t-119.5 -94t-107 -139t-89.5 -169.5t-66.5 -185t-38.5 -185.5t-5.5 -171.5t32 -143t75 -99.5t123 -40.5q55 -3 108.5 13t102 44t90.5 64t73.5 74t51.5 74t24 63.5t-8.5 43t-46.5 12.5z" />
    <glyph glyph-name="Egrave" unicode="&#xc8;" horiz-adv-x="1094" 
d="M472 -377q61 0 120 17t111.5 45.5t97.5 64.5t78.5 73t54 72.5t24.5 62t-10.5 41.5t-51.5 12q-20 -1 -35 -11t-16 -8q-7 1 -1.5 11.5t20 22.5t37 20.5t48.5 6.5q49 -3 70.5 -28t19 -63.5t-26.5 -87t-65.5 -98.5t-98.5 -98t-126 -86t-148 -62t-163 -26q-107 -3 -181.5 31
t-117.5 92t-56 132.5t3 152.5t60.5 152.5t116 132.5t169 92t219.5 31q-104 23 -175 66t-112 98.5t-53.5 118.5t0 126t48 121t91 103t129 72.5t161.5 29.5q38 1 80.5 -5t82.5 -19.5t74.5 -34t57.5 -48.5t32 -63.5t-3 -78.5q-16 -49 -43.5 -77.5t-54 -42t-46 -14.5t-19.5 6
q5 -2 14.5 0.5t20 10t22 20.5t20.5 33q19 43 6.5 77t-43 58t-73.5 37t-84 15q-84 4 -154 -27t-114 -83.5t-57.5 -118.5t14.5 -130.5t103 -120.5t208 -88q22 -5 29 -26t3 -44t-18 -40t-34 -14q-94 5 -174 -18.5t-143.5 -66t-108.5 -98t-68.5 -114.5t-23.5 -116t27 -101.5
t82.5 -72t143.5 -27.5zM718 1238q14 -33 27 -67t24 -69q3 -9 -4 -15t-17.5 -8.5t-21.5 -1t-15 7.5q-3 3 -13 17t-21.5 31.5t-22.5 36t-16 31.5q-5 11 6.5 19t27.5 12.5t30.5 6t15.5 -0.5z" />
    <glyph glyph-name="Eacute" unicode="&#xc9;" horiz-adv-x="1094" 
d="M472 -377q61 0 120 17t111.5 45.5t97.5 64.5t78.5 73t54 72.5t24.5 62t-10.5 41.5t-51.5 12q-20 -1 -35 -11t-16 -8q-7 1 -1.5 11.5t20 22.5t37 20.5t48.5 6.5q49 -3 70.5 -28t19 -63.5t-26.5 -87t-65.5 -98.5t-98.5 -98t-126 -86t-148 -62t-163 -26q-107 -3 -181.5 31
t-117.5 92t-56 132.5t3 152.5t60.5 152.5t116 132.5t169 92t219.5 31q-104 23 -175 66t-112 98.5t-53.5 118.5t0 126t48 121t91 103t129 72.5t161.5 29.5q38 1 80.5 -5t82.5 -19.5t74.5 -34t57.5 -48.5t32 -63.5t-3 -78.5q-16 -49 -43.5 -77.5t-54 -42t-46 -14.5t-19.5 6
q5 -2 14.5 0.5t20 10t22 20.5t20.5 33q19 43 6.5 77t-43 58t-73.5 37t-84 15q-84 4 -154 -27t-114 -83.5t-57.5 -118.5t14.5 -130.5t103 -120.5t208 -88q22 -5 29 -26t3 -44t-18 -40t-34 -14q-94 5 -174 -18.5t-143.5 -66t-108.5 -98t-68.5 -114.5t-23.5 -116t27 -101.5
t82.5 -72t143.5 -27.5zM757 1244q1 2 15.5 0.5t30.5 -6t27.5 -12.5t6.5 -19q-5 -13 -16 -31.5t-22.5 -36t-21.5 -31.5t-13 -17q-5 -6 -15.5 -7.5t-21 1t-17.5 8.5t-4 15q11 35 24 69t27 67z" />
    <glyph glyph-name="Ecircumflex" unicode="&#xca;" horiz-adv-x="1094" 
d="M472 -377q61 0 120 17t111.5 45.5t97.5 64.5t78.5 73t54 72.5t24.5 62t-10.5 41.5t-51.5 12q-20 -1 -35 -11t-16 -8q-7 1 -1.5 11.5t20 22.5t37 20.5t48.5 6.5q49 -3 70.5 -28t19 -63.5t-26.5 -87t-65.5 -98.5t-98.5 -98t-126 -86t-148 -62t-163 -26q-107 -3 -181.5 31
t-117.5 92t-56 132.5t3 152.5t60.5 152.5t116 132.5t169 92t219.5 31q-104 23 -175 66t-112 98.5t-53.5 118.5t0 126t48 121t91 103t129 72.5t161.5 29.5q38 1 80.5 -5t82.5 -19.5t74.5 -34t57.5 -48.5t32 -63.5t-3 -78.5q-16 -49 -43.5 -77.5t-54 -42t-46 -14.5t-19.5 6
q5 -2 14.5 0.5t20 10t22 20.5t20.5 33q19 43 6.5 77t-43 58t-73.5 37t-84 15q-84 4 -154 -27t-114 -83.5t-57.5 -118.5t14.5 -130.5t103 -120.5t208 -88q22 -5 29 -26t3 -44t-18 -40t-34 -14q-94 5 -174 -18.5t-143.5 -66t-108.5 -98t-68.5 -114.5t-23.5 -116t27 -101.5
t82.5 -72t143.5 -27.5zM772 1290q8 -18 18.5 -42.5t20 -51t18 -51.5t11.5 -43q0 -2 -7.5 -7.5t-17.5 -9.5t-18.5 -3t-10.5 11q-2 15 -7.5 32.5t-12.5 36.5t-15 37.5t-14 33.5q-11 -15 -25 -33t-27.5 -36.5t-25 -36t-17.5 -31.5q-6 -10 -15 -11t-17 2.5t-13.5 9.5t-3.5 9
q8 16 26 42.5t38 55t40 54t32 39.5q7 5 21 6t22 -13z" />
    <glyph glyph-name="Edieresis" unicode="&#xcb;" horiz-adv-x="1094" 
d="M472 -377q61 0 120 17t111.5 45.5t97.5 64.5t78.5 73t54 72.5t24.5 62t-10.5 41.5t-51.5 12q-20 -1 -35 -11t-16 -8q-7 1 -1.5 11.5t20 22.5t37 20.5t48.5 6.5q49 -3 70.5 -28t19 -63.5t-26.5 -87t-65.5 -98.5t-98.5 -98t-126 -86t-148 -62t-163 -26q-107 -3 -181.5 31
t-117.5 92t-56 132.5t3 152.5t60.5 152.5t116 132.5t169 92t219.5 31q-104 23 -175 66t-112 98.5t-53.5 118.5t0 126t48 121t91 103t129 72.5t161.5 29.5q38 1 80.5 -5t82.5 -19.5t74.5 -34t57.5 -48.5t32 -63.5t-3 -78.5q-16 -49 -43.5 -77.5t-54 -42t-46 -14.5t-19.5 6
q5 -2 14.5 0.5t20 10t22 20.5t20.5 33q19 43 6.5 77t-43 58t-73.5 37t-84 15q-84 4 -154 -27t-114 -83.5t-57.5 -118.5t14.5 -130.5t103 -120.5t208 -88q22 -5 29 -26t3 -44t-18 -40t-34 -14q-94 5 -174 -18.5t-143.5 -66t-108.5 -98t-68.5 -114.5t-23.5 -116t27 -101.5
t82.5 -72t143.5 -27.5zM653 1210q26 0 37 -17.5t8 -39t-19 -39t-44 -17.5q-27 0 -37 17.5t-6.5 39t19.5 39t42 17.5zM801 1210q26 0 37 -17.5t8 -39t-19 -39t-44 -17.5q-27 0 -37 17.5t-6.5 39t19.5 39t42 17.5z" />
    <glyph glyph-name="Igrave" unicode="&#xcc;" horiz-adv-x="909" 
d="M488 514q3 2 0.5 -17t-19 -43t-50.5 -44.5t-92 -21.5q-43 0 -71.5 21t-42 57t-11.5 84t20.5 101t54.5 108.5t90.5 106.5t128 94t166.5 72q9 3 28 5t41.5 3t46 1t42 -2t29.5 -6.5t9 -11.5q-27 -78 -50 -167t-41 -183t-31.5 -191t-22.5 -192q-4 -41 -9 -96t-13 -117
t-20.5 -127.5t-31 -128t-44.5 -117.5t-60.5 -97t-78.5 -66.5t-100 -24.5q-71 -1 -124 21t-89.5 60t-57.5 88t-29 105.5t-4.5 113.5t17 111t35 98.5t49.5 76.5q20 22 46.5 32t54 12t53.5 -1.5t45 -9.5t28 -12t3 -9q-55 -14 -94.5 -47.5t-63.5 -78t-34.5 -96.5t-8.5 -104
t16 -100.5t38 -85.5t58 -59t76 -21q35 0 62 23.5t48 62.5t36.5 90.5t26 108t17.5 114.5t12 110.5t8 95.5t5 70q8 87 16.5 176t20.5 176t27.5 170t37.5 160q-104 -42 -174.5 -100t-113 -119.5t-58.5 -120t-10 -101.5t31 -64.5t65 -8.5q19 7 29.5 17t16.5 19.5t8.5 17t6.5 9.5
zM743 1231q14 -33 27 -67t24 -69q3 -9 -4 -15t-17.5 -8.5t-21.5 -1t-15 7.5q-3 3 -13 17t-21.5 31.5t-22.5 36t-16 31.5q-5 11 6.5 19t27.5 12.5t30.5 6t15.5 -0.5z" />
    <glyph glyph-name="Iacute" unicode="&#xcd;" horiz-adv-x="909" 
d="M488 514q3 2 0.5 -17t-19 -43t-50.5 -44.5t-92 -21.5q-43 0 -71.5 21t-42 57t-11.5 84t20.5 101t54.5 108.5t90.5 106.5t128 94t166.5 72q9 3 28 5t41.5 3t46 1t42 -2t29.5 -6.5t9 -11.5q-27 -78 -50 -167t-41 -183t-31.5 -191t-22.5 -192q-4 -41 -9 -96t-13 -117
t-20.5 -127.5t-31 -128t-44.5 -117.5t-60.5 -97t-78.5 -66.5t-100 -24.5q-71 -1 -124 21t-89.5 60t-57.5 88t-29 105.5t-4.5 113.5t17 111t35 98.5t49.5 76.5q20 22 46.5 32t54 12t53.5 -1.5t45 -9.5t28 -12t3 -9q-55 -14 -94.5 -47.5t-63.5 -78t-34.5 -96.5t-8.5 -104
t16 -100.5t38 -85.5t58 -59t76 -21q35 0 62 23.5t48 62.5t36.5 90.5t26 108t17.5 114.5t12 110.5t8 95.5t5 70q8 87 16.5 176t20.5 176t27.5 170t37.5 160q-104 -42 -174.5 -100t-113 -119.5t-58.5 -120t-10 -101.5t31 -64.5t65 -8.5q19 7 29.5 17t16.5 19.5t8.5 17t6.5 9.5
zM785 1226q1 2 15.5 0.5t30.5 -6t27.5 -12.5t6.5 -19q-5 -13 -16 -31.5t-22.5 -36t-21.5 -31.5t-13 -17q-5 -6 -15.5 -7.5t-21 1t-17.5 8.5t-4 15q11 35 24 69t27 67z" />
    <glyph glyph-name="Icircumflex" unicode="&#xce;" horiz-adv-x="909" 
d="M488 514q3 2 0.5 -17t-19 -43t-50.5 -44.5t-92 -21.5q-43 0 -71.5 21t-42 57t-11.5 84t20.5 101t54.5 108.5t90.5 106.5t128 94t166.5 72q9 3 28 5t41.5 3t46 1t42 -2t29.5 -6.5t9 -11.5q-27 -78 -50 -167t-41 -183t-31.5 -191t-22.5 -192q-4 -41 -9 -96t-13 -117
t-20.5 -127.5t-31 -128t-44.5 -117.5t-60.5 -97t-78.5 -66.5t-100 -24.5q-71 -1 -124 21t-89.5 60t-57.5 88t-29 105.5t-4.5 113.5t17 111t35 98.5t49.5 76.5q20 22 46.5 32t54 12t53.5 -1.5t45 -9.5t28 -12t3 -9q-55 -14 -94.5 -47.5t-63.5 -78t-34.5 -96.5t-8.5 -104
t16 -100.5t38 -85.5t58 -59t76 -21q35 0 62 23.5t48 62.5t36.5 90.5t26 108t17.5 114.5t12 110.5t8 95.5t5 70q8 87 16.5 176t20.5 176t27.5 170t37.5 160q-104 -42 -174.5 -100t-113 -119.5t-58.5 -120t-10 -101.5t31 -64.5t65 -8.5q19 7 29.5 17t16.5 19.5t8.5 17t6.5 9.5
zM786 1293q8 -18 18.5 -42.5t20 -51t18 -51.5t11.5 -43q0 -2 -7.5 -7.5t-17.5 -9.5t-18.5 -3t-10.5 11q-2 15 -7.5 32.5t-12.5 36.5t-15 37.5t-14 33.5q-11 -15 -25 -33t-27.5 -36.5t-25 -36t-17.5 -31.5q-6 -10 -15 -11t-17 2.5t-13.5 9.5t-3.5 9q8 16 26 42.5t38 55t40 54
t32 39.5q7 5 21 6t22 -13z" />
    <glyph glyph-name="Idieresis" unicode="&#xcf;" horiz-adv-x="909" 
d="M488 514q3 2 0.5 -17t-19 -43t-50.5 -44.5t-92 -21.5q-43 0 -71.5 21t-42 57t-11.5 84t20.5 101t54.5 108.5t90.5 106.5t128 94t166.5 72q9 3 28 5t41.5 3t46 1t42 -2t29.5 -6.5t9 -11.5q-27 -78 -50 -167t-41 -183t-31.5 -191t-22.5 -192q-4 -41 -9 -96t-13 -117
t-20.5 -127.5t-31 -128t-44.5 -117.5t-60.5 -97t-78.5 -66.5t-100 -24.5q-71 -1 -124 21t-89.5 60t-57.5 88t-29 105.5t-4.5 113.5t17 111t35 98.5t49.5 76.5q20 22 46.5 32t54 12t53.5 -1.5t45 -9.5t28 -12t3 -9q-55 -14 -94.5 -47.5t-63.5 -78t-34.5 -96.5t-8.5 -104
t16 -100.5t38 -85.5t58 -59t76 -21q35 0 62 23.5t48 62.5t36.5 90.5t26 108t17.5 114.5t12 110.5t8 95.5t5 70q8 87 16.5 176t20.5 176t27.5 170t37.5 160q-104 -42 -174.5 -100t-113 -119.5t-58.5 -120t-10 -101.5t31 -64.5t65 -8.5q19 7 29.5 17t16.5 19.5t8.5 17t6.5 9.5
zM687 1192q26 0 37 -17.5t8 -39t-19 -39t-44 -17.5q-27 0 -37 17.5t-6.5 39t19.5 39t42 17.5zM835 1192q26 0 37 -17.5t8 -39t-19 -39t-44 -17.5q-27 0 -37 17.5t-6.5 39t19.5 39t42 17.5z" />
    <glyph glyph-name="Ntilde" unicode="&#xd1;" horiz-adv-x="1555" 
d="M86 433q-28 38 -33.5 99.5t10 132t52.5 142t94 128.5t133.5 92t171.5 34q55 -1 93.5 -24.5t63.5 -64.5t37.5 -97.5t16 -123.5t-0.5 -142.5t-12 -154.5q37 88 83.5 169t102 142.5t119.5 97.5t135 34q58 -1 91.5 -25.5t48 -65.5t13 -96t-12.5 -116.5t-28.5 -127
t-35.5 -128.5t-33.5 -120t-22.5 -102l-15 -75t-19.5 -111t-15.5 -125.5t-2 -118t21 -87.5t52 -35q51 0 87 27t56 66.5t24 86t-7.5 85.5t-39 64t-70.5 23q-35 -1 -34 9t23.5 22t59.5 22t73 9q56 -2 90 -39t45 -92.5t-3 -119.5t-53 -119t-105 -91.5t-160 -36.5q-51 0 -86 20
t-57.5 53.5t-34 78t-15.5 95t-1 104.5t8.5 105.5t13 98.5t13.5 84q8 46 24.5 114t34 142.5t33 148.5t22 133t-1 95.5t-34.5 36.5q-38 0 -80.5 -33.5t-86 -90t-85 -129.5t-78 -153t-65 -161t-45.5 -152q-11 -78 -18 -148.5t-7.5 -128t7.5 -99t29 -62.5q-44 -2 -80 9
q-15 5 -30.5 13.5t-28 22t-22 32.5t-12.5 45q-5 43 3 118.5t22 169t30.5 198.5t30 208t20.5 197t0.5 166t-28.5 115t-67 44q-42 1 -84.5 -19.5t-80.5 -54.5t-69 -78.5t-51.5 -93t-28 -96.5t2 -90t38.5 -73.5t82 -45.5q7 -2 -3.5 -7t-31 -10t-48 -8t-55.5 -1t-52.5 11
t-39.5 29zM805 1061q-7 -15 -13.5 -13t-10 14t-2.5 29.5t9 32.5q17 33 38.5 46.5t45.5 14.5t49 -7t50.5 -18.5t49.5 -20t45 -11.5t38 7t28 35q4 8 9 3t8.5 -18t3 -30.5t-8 -33.5t-23.5 -29t-43 -16q-24 -3 -50 4.5t-52 18t-51 21t-47.5 13t-41 -6t-31.5 -35.5z" />
    <glyph glyph-name="Ograve" unicode="&#xd2;" 
d="M435 -554q-72 10 -121 53t-77 108.5t-36 149.5t0.5 176.5t33 188.5t63 187t89 171.5t111 141.5t129.5 97.5t144 39.5q42 1 71 -18t45 -50.5t18 -72t-11 -83.5q-10 -32 -24.5 -53t-28 -32.5t-24.5 -15t-14 -1.5q12 12 23 28q9 14 16.5 32.5t7.5 41.5q2 37 -14.5 56
t-50.5 15q-65 -3 -125 -49t-111.5 -119t-91.5 -164.5t-65 -187t-32 -186.5t8 -162.5t53.5 -115t106.5 -43.5q55 -1 109 39t103.5 108.5t92 160t75 194t52.5 209.5t24.5 207t-9 187.5t-48.5 149.5t-93 93.5t-143 19.5q-77 -11 -150 -55t-135 -105t-110 -131.5t-76 -134.5
t-33 -113.5t19 -69.5q-2 -2 -17.5 1.5t-36 14t-43 28t-38 43t-20 59.5t10.5 77q21 65 59.5 126t88 114t108 97t119.5 77t122.5 53.5t118.5 26.5q115 10 197.5 -29t135.5 -113t78.5 -176.5t26 -219.5t-22 -242t-64.5 -244t-103 -225t-136.5 -186t-165 -127t-189.5 -47z
M688 1251q14 -33 27 -67t24 -69q3 -9 -4 -15t-17.5 -8.5t-21.5 -1t-15 7.5q-3 3 -13 17t-21.5 31.5t-22.5 36t-16 31.5q-5 11 6.5 19t27.5 12.5t30.5 6t15.5 -0.5z" />
    <glyph glyph-name="Oacute" unicode="&#xd3;" 
d="M435 -554q-72 10 -121 53t-77 108.5t-36 149.5t0.5 176.5t33 188.5t63 187t89 171.5t111 141.5t129.5 97.5t144 39.5q42 1 71 -18t45 -50.5t18 -72t-11 -83.5q-10 -32 -24.5 -53t-28 -32.5t-24.5 -15t-14 -1.5q12 12 23 28q9 14 16.5 32.5t7.5 41.5q2 37 -14.5 56
t-50.5 15q-65 -3 -125 -49t-111.5 -119t-91.5 -164.5t-65 -187t-32 -186.5t8 -162.5t53.5 -115t106.5 -43.5q55 -1 109 39t103.5 108.5t92 160t75 194t52.5 209.5t24.5 207t-9 187.5t-48.5 149.5t-93 93.5t-143 19.5q-77 -11 -150 -55t-135 -105t-110 -131.5t-76 -134.5
t-33 -113.5t19 -69.5q-2 -2 -17.5 1.5t-36 14t-43 28t-38 43t-20 59.5t10.5 77q21 65 59.5 126t88 114t108 97t119.5 77t122.5 53.5t118.5 26.5q115 10 197.5 -29t135.5 -113t78.5 -176.5t26 -219.5t-22 -242t-64.5 -244t-103 -225t-136.5 -186t-165 -127t-189.5 -47z
M751 1255q1 2 15.5 0.5t30.5 -6t27.5 -12.5t6.5 -19q-5 -13 -16 -31.5t-22.5 -36t-21.5 -31.5t-13 -17q-5 -6 -15.5 -7.5t-21 1t-17.5 8.5t-4 15q11 35 24 69t27 67z" />
    <glyph glyph-name="Ocircumflex" unicode="&#xd4;" 
d="M435 -554q-72 10 -121 53t-77 108.5t-36 149.5t0.5 176.5t33 188.5t63 187t89 171.5t111 141.5t129.5 97.5t144 39.5q42 1 71 -18t45 -50.5t18 -72t-11 -83.5q-10 -32 -24.5 -53t-28 -32.5t-24.5 -15t-14 -1.5q12 12 23 28q9 14 16.5 32.5t7.5 41.5q2 37 -14.5 56
t-50.5 15q-65 -3 -125 -49t-111.5 -119t-91.5 -164.5t-65 -187t-32 -186.5t8 -162.5t53.5 -115t106.5 -43.5q55 -1 109 39t103.5 108.5t92 160t75 194t52.5 209.5t24.5 207t-9 187.5t-48.5 149.5t-93 93.5t-143 19.5q-77 -11 -150 -55t-135 -105t-110 -131.5t-76 -134.5
t-33 -113.5t19 -69.5q-2 -2 -17.5 1.5t-36 14t-43 28t-38 43t-20 59.5t10.5 77q21 65 59.5 126t88 114t108 97t119.5 77t122.5 53.5t118.5 26.5q115 10 197.5 -29t135.5 -113t78.5 -176.5t26 -219.5t-22 -242t-64.5 -244t-103 -225t-136.5 -186t-165 -127t-189.5 -47z
M799 1295q8 -18 18.5 -42.5t20 -51t18 -51.5t11.5 -43q0 -2 -7.5 -7.5t-17.5 -9.5t-18.5 -3t-10.5 11q-2 15 -7.5 32.5t-12.5 36.5t-15 37.5t-14 33.5q-11 -15 -25 -33t-27.5 -36.5t-25 -36t-17.5 -31.5q-6 -10 -15 -11t-17 2.5t-13.5 9.5t-3.5 9q8 16 26 42.5t38 55t40 54
t32 39.5q7 5 21 6t22 -13z" />
    <glyph glyph-name="Otilde" unicode="&#xd5;" 
d="M435 -554q-72 10 -121 53t-77 108.5t-36 149.5t0.5 176.5t33 188.5t63 187t89 171.5t111 141.5t129.5 97.5t144 39.5q42 1 71 -18t45 -50.5t18 -72t-11 -83.5q-10 -32 -24.5 -53t-28 -32.5t-24.5 -15t-14 -1.5q12 12 23 28q9 14 16.5 32.5t7.5 41.5q2 37 -14.5 56
t-50.5 15q-65 -3 -125 -49t-111.5 -119t-91.5 -164.5t-65 -187t-32 -186.5t8 -162.5t53.5 -115t106.5 -43.5q55 -1 109 39t103.5 108.5t92 160t75 194t52.5 209.5t24.5 207t-9 187.5t-48.5 149.5t-93 93.5t-143 19.5q-77 -11 -150 -55t-135 -105t-110 -131.5t-76 -134.5
t-33 -113.5t19 -69.5q-2 -2 -17.5 1.5t-36 14t-43 28t-38 43t-20 59.5t10.5 77q21 65 59.5 126t88 114t108 97t119.5 77t122.5 53.5t118.5 26.5q115 10 197.5 -29t135.5 -113t78.5 -176.5t26 -219.5t-22 -242t-64.5 -244t-103 -225t-136.5 -186t-165 -127t-189.5 -47z
M550 1107q-7 -15 -13.5 -13t-10 14t-2.5 29.5t9 32.5q17 33 38.5 46.5t45.5 14.5t49 -7t50.5 -18.5t49.5 -20t45 -11.5t38 7t28 35q4 8 9 3t8.5 -18t3 -30.5t-8 -33.5t-23.5 -29t-43 -16q-24 -3 -50 4.5t-52 18t-51 21t-47.5 13t-41 -6t-31.5 -35.5z" />
    <glyph glyph-name="Odieresis" unicode="&#xd6;" 
d="M435 -554q-72 10 -121 53t-77 108.5t-36 149.5t0.5 176.5t33 188.5t63 187t89 171.5t111 141.5t129.5 97.5t144 39.5q42 1 71 -18t45 -50.5t18 -72t-11 -83.5q-10 -32 -24.5 -53t-28 -32.5t-24.5 -15t-14 -1.5q12 12 23 28q9 14 16.5 32.5t7.5 41.5q2 37 -14.5 56
t-50.5 15q-65 -3 -125 -49t-111.5 -119t-91.5 -164.5t-65 -187t-32 -186.5t8 -162.5t53.5 -115t106.5 -43.5q55 -1 109 39t103.5 108.5t92 160t75 194t52.5 209.5t24.5 207t-9 187.5t-48.5 149.5t-93 93.5t-143 19.5q-77 -11 -150 -55t-135 -105t-110 -131.5t-76 -134.5
t-33 -113.5t19 -69.5q-2 -2 -17.5 1.5t-36 14t-43 28t-38 43t-20 59.5t10.5 77q21 65 59.5 126t88 114t108 97t119.5 77t122.5 53.5t118.5 26.5q115 10 197.5 -29t135.5 -113t78.5 -176.5t26 -219.5t-22 -242t-64.5 -244t-103 -225t-136.5 -186t-165 -127t-189.5 -47z
M676 1201q26 0 37 -17.5t8 -39t-19 -39t-44 -17.5q-27 0 -37 17.5t-6.5 39t19.5 39t42 17.5zM824 1201q26 0 37 -17.5t8 -39t-19 -39t-44 -17.5q-27 0 -37 17.5t-6.5 39t19.5 39t42 17.5z" />
    <glyph glyph-name="Oslash" unicode="&#xd8;" 
d="M984 1146q9 15 26.5 22t37 8t39.5 -5t33.5 -16t18.5 -25t-4 -33l-108 -209q48 -77 69 -180.5t19 -219t-26 -238t-67 -238.5t-103.5 -219t-135 -180t-162.5 -122t-186 -45q-45 7 -80 26t-62 48l-11 -21q-12 -26 -33 -30t-40.5 4.5t-30.5 25.5t-2 34l50 103
q-23 68 -28 151.5t6 174.5t37 184.5t64.5 181.5t88.5 165t109.5 135.5t127 93t140.5 37.5h8t8 -1l76 150q-33 25 -75.5 36t-96.5 3q-77 -11 -150 -55t-135 -105t-110 -131.5t-76 -134.5t-33 -113.5t19 -69.5q-2 -2 -17.5 1.5t-36 14t-43 28t-38 43t-20 59.5t10.5 77
q21 65 59.5 126t88 114t108 97t119.5 77t122.5 53.5t118.5 26.5q72 6 129.5 -7.5t105.5 -42.5zM894 535q-10 -32 -24.5 -53t-28 -32.5t-24.5 -15t-14 -1.5q12 12 23 30q9 15 16.5 37t7.5 51q-118 -223 -236 -441t-231 -425q20 -49 55.5 -77.5t89.5 -28.5q51 -1 101.5 34
t97 95.5t87.5 142t74 174.5t56 192.5t33.5 195.5t6 184.5t-25.5 159.5l-57 -109q11 -55 -7 -113zM360 -93q85 170 168.5 337.5t168.5 335.5q-44 -23 -84.5 -64.5t-76 -95t-65.5 -116.5t-53 -130t-38 -135t-20 -132z" />
    <glyph glyph-name="Ugrave" unicode="&#xd9;" horiz-adv-x="1510" 
d="M87 451q-29 37 -35 97t9 128t51.5 137t93.5 124.5t133.5 90t172.5 33.5q80 0 128.5 -38.5t72.5 -104t27 -153t-7 -186t-30 -203t-41.5 -203t-42 -186t-31.5 -153t-9.5 -104t23.5 -38.5q31 0 69.5 29.5t81 80t85.5 117t82.5 140t73 149.5t55.5 146q19 80 33.5 153t21 133
t2 104t-24.5 67q43 2 78 -9q15 -5 29 -13.5t26 -22t20 -32t10 -43.5q1 -34 -12 -100.5t-33.5 -152t-44 -183.5t-44 -195t-33.5 -186.5t-12.5 -158t19 -109.5t61.5 -42q52 0 88 27t56 66.5t24 86t-8 85.5t-40 64t-71 23q-36 -1 -34.5 9t24.5 22t60.5 22t74.5 9
q57 -2 91.5 -39t45 -92.5t-3.5 -119.5t-54 -119t-106.5 -91.5t-161.5 -36.5q-53 0 -88.5 19.5t-57.5 54t-31.5 81.5t-10 104t7 122t20.5 133q-42 -83 -90 -158t-100.5 -132t-108.5 -90.5t-114 -32.5q-61 2 -91.5 42t-38.5 107t2 156.5t29.5 189.5t44.5 205t46.5 205
t35.5 188.5t12.5 155t-23.5 105t-72 38.5q-56 1 -111 -33.5t-99 -88t-72 -118t-30 -124.5t27 -107t99 -65q6 -1 -4.5 -6t-31 -9.5t-48 -8t-55 -1.5t-51.5 10.5t-39 28.5zM912 1195q14 -33 27 -67t24 -69q3 -9 -4 -15t-17.5 -8.5t-21.5 -1t-15 7.5q-3 3 -13 17t-21.5 31.5
t-22.5 36t-16 31.5q-5 11 6.5 19t27.5 12.5t30.5 6t15.5 -0.5z" />
    <glyph glyph-name="Uacute" unicode="&#xda;" horiz-adv-x="1510" 
d="M87 451q-29 37 -35 97t9 128t51.5 137t93.5 124.5t133.5 90t172.5 33.5q80 0 128.5 -38.5t72.5 -104t27 -153t-7 -186t-30 -203t-41.5 -203t-42 -186t-31.5 -153t-9.5 -104t23.5 -38.5q31 0 69.5 29.5t81 80t85.5 117t82.5 140t73 149.5t55.5 146q19 80 33.5 153t21 133
t2 104t-24.5 67q43 2 78 -9q15 -5 29 -13.5t26 -22t20 -32t10 -43.5q1 -34 -12 -100.5t-33.5 -152t-44 -183.5t-44 -195t-33.5 -186.5t-12.5 -158t19 -109.5t61.5 -42q52 0 88 27t56 66.5t24 86t-8 85.5t-40 64t-71 23q-36 -1 -34.5 9t24.5 22t60.5 22t74.5 9
q57 -2 91.5 -39t45 -92.5t-3.5 -119.5t-54 -119t-106.5 -91.5t-161.5 -36.5q-53 0 -88.5 19.5t-57.5 54t-31.5 81.5t-10 104t7 122t20.5 133q-42 -83 -90 -158t-100.5 -132t-108.5 -90.5t-114 -32.5q-61 2 -91.5 42t-38.5 107t2 156.5t29.5 189.5t44.5 205t46.5 205
t35.5 188.5t12.5 155t-23.5 105t-72 38.5q-56 1 -111 -33.5t-99 -88t-72 -118t-30 -124.5t27 -107t99 -65q6 -1 -4.5 -6t-31 -9.5t-48 -8t-55 -1.5t-51.5 10.5t-39 28.5zM932 1201q1 2 15.5 0.5t30.5 -6t27.5 -12.5t6.5 -19q-5 -13 -16 -31.5t-22.5 -36t-21.5 -31.5t-13 -17
q-5 -6 -15.5 -7.5t-21 1t-17.5 8.5t-4 15q11 35 24 69t27 67z" />
    <glyph glyph-name="Ucircumflex" unicode="&#xdb;" horiz-adv-x="1510" 
d="M87 451q-29 37 -35 97t9 128t51.5 137t93.5 124.5t133.5 90t172.5 33.5q80 0 128.5 -38.5t72.5 -104t27 -153t-7 -186t-30 -203t-41.5 -203t-42 -186t-31.5 -153t-9.5 -104t23.5 -38.5q31 0 69.5 29.5t81 80t85.5 117t82.5 140t73 149.5t55.5 146q19 80 33.5 153t21 133
t2 104t-24.5 67q43 2 78 -9q15 -5 29 -13.5t26 -22t20 -32t10 -43.5q1 -34 -12 -100.5t-33.5 -152t-44 -183.5t-44 -195t-33.5 -186.5t-12.5 -158t19 -109.5t61.5 -42q52 0 88 27t56 66.5t24 86t-8 85.5t-40 64t-71 23q-36 -1 -34.5 9t24.5 22t60.5 22t74.5 9
q57 -2 91.5 -39t45 -92.5t-3.5 -119.5t-54 -119t-106.5 -91.5t-161.5 -36.5q-53 0 -88.5 19.5t-57.5 54t-31.5 81.5t-10 104t7 122t20.5 133q-42 -83 -90 -158t-100.5 -132t-108.5 -90.5t-114 -32.5q-61 2 -91.5 42t-38.5 107t2 156.5t29.5 189.5t44.5 205t46.5 205
t35.5 188.5t12.5 155t-23.5 105t-72 38.5q-56 1 -111 -33.5t-99 -88t-72 -118t-30 -124.5t27 -107t99 -65q6 -1 -4.5 -6t-31 -9.5t-48 -8t-55 -1.5t-51.5 10.5t-39 28.5zM1004 1247q8 -18 18.5 -42.5t20 -51t18 -51.5t11.5 -43q0 -2 -7.5 -7.5t-17.5 -9.5t-18.5 -3t-10.5 11
q-2 15 -7.5 32.5t-12.5 36.5t-15 37.5t-14 33.5q-11 -15 -25 -33t-27.5 -36.5t-25 -36t-17.5 -31.5q-6 -10 -15 -11t-17 2.5t-13.5 9.5t-3.5 9q8 16 26 42.5t38 55t40 54t32 39.5q7 5 21 6t22 -13z" />
    <glyph glyph-name="Udieresis" unicode="&#xdc;" horiz-adv-x="1510" 
d="M87 451q-29 37 -35 97t9 128t51.5 137t93.5 124.5t133.5 90t172.5 33.5q80 0 128.5 -38.5t72.5 -104t27 -153t-7 -186t-30 -203t-41.5 -203t-42 -186t-31.5 -153t-9.5 -104t23.5 -38.5q31 0 69.5 29.5t81 80t85.5 117t82.5 140t73 149.5t55.5 146q19 80 33.5 153t21 133
t2 104t-24.5 67q43 2 78 -9q15 -5 29 -13.5t26 -22t20 -32t10 -43.5q1 -34 -12 -100.5t-33.5 -152t-44 -183.5t-44 -195t-33.5 -186.5t-12.5 -158t19 -109.5t61.5 -42q52 0 88 27t56 66.5t24 86t-8 85.5t-40 64t-71 23q-36 -1 -34.5 9t24.5 22t60.5 22t74.5 9
q57 -2 91.5 -39t45 -92.5t-3.5 -119.5t-54 -119t-106.5 -91.5t-161.5 -36.5q-53 0 -88.5 19.5t-57.5 54t-31.5 81.5t-10 104t7 122t20.5 133q-42 -83 -90 -158t-100.5 -132t-108.5 -90.5t-114 -32.5q-61 2 -91.5 42t-38.5 107t2 156.5t29.5 189.5t44.5 205t46.5 205
t35.5 188.5t12.5 155t-23.5 105t-72 38.5q-56 1 -111 -33.5t-99 -88t-72 -118t-30 -124.5t27 -107t99 -65q6 -1 -4.5 -6t-31 -9.5t-48 -8t-55 -1.5t-51.5 10.5t-39 28.5zM891 1169q26 0 37 -17.5t8 -39t-19 -39t-44 -17.5q-27 0 -37 17.5t-6.5 39t19.5 39t42 17.5z
M1039 1169q26 0 37 -17.5t8 -39t-19 -39t-44 -17.5q-27 0 -37 17.5t-6.5 39t19.5 39t42 17.5z" />
    <glyph glyph-name="Yacute" unicode="&#xdd;" 
d="M655 51q6 4 0 13.5t-22 17t-39.5 9t-51.5 -9.5q-42 -17 -76 -51.5t-58.5 -80t-37.5 -97.5t-13.5 -103.5t12.5 -99t42 -84t74 -58.5t109 -22q84 0 145.5 43t105.5 115t73.5 166.5t50.5 197.5t36 207.5t30 197t32 165.5t43 114q9 15 3.5 26.5t-20.5 16t-36.5 -0.5
t-44.5 -23.5t-44.5 -52.5t-35.5 -87q-28 -57 -67 -111.5t-81 -96.5t-83.5 -67.5t-72.5 -25.5q-20 0 -24.5 22t0 60t16 88.5t24 107t23.5 116.5t15 117t-2.5 107.5t-28.5 89t-62 61t-104 23.5q-96 1 -170.5 -35t-128 -94.5t-86 -131t-44 -144t-1.5 -135t41 -102.5
q15 -20 40.5 -29.5t53.5 -11.5t55.5 1.5t48 9t31 10.5t3.5 7q-54 14 -85.5 46t-44 74.5t-8.5 92t21.5 98.5t45.5 95t63.5 81t76.5 56t83 21q43 0 64.5 -21.5t27 -58.5t-2 -86t-20.5 -104.5t-28.5 -114t-27 -114t-16.5 -104.5t4.5 -86t35.5 -58.5t76 -21.5q42 0 84.5 18.5
t82.5 49.5t77 72.5t68 86.5q-11 -82 -22 -177t-25 -190t-34.5 -183t-51 -155.5t-73.5 -108t-103 -40.5q-41 0 -64 29.5t-31.5 75.5t-5 101.5t16 108t32 95t42.5 62.5q12 10 23.5 11.5t21 -0.5t16 -5t8.5 -1zM909 1217q1 2 15.5 0.5t30.5 -6t27.5 -12.5t6.5 -19
q-5 -13 -16 -31.5t-22.5 -36t-21.5 -31.5t-13 -17q-5 -6 -15.5 -7.5t-21 1t-17.5 8.5t-4 15q11 35 24 69t27 67z" />
    <glyph glyph-name="agrave" unicode="&#xe0;" horiz-adv-x="573" 
d="M316 526q3 12 20 13.5t35 -5.5t30.5 -22.5t6.5 -38.5q-7 -30 -16 -70.5t-17 -85t-13.5 -88.5t-6.5 -79.5t4.5 -58t19.5 -24.5t38 21t51.5 58.5t55.5 77t49 76.5q5 9 13 11.5t15 0.5t10 -8.5t-2 -15.5q-10 -19 -27 -47.5t-38 -60.5t-45 -63.5t-49.5 -57t-51 -41.5
t-48.5 -16q-24 0 -41.5 11.5t-28.5 32t-16 49t-6 61.5q-17 -30 -35.5 -58.5t-39.5 -50.5t-45 -35t-51 -12q-38 1 -63 22.5t-37 56t-13 78t9 89t30 88.5t49 77t66.5 54.5t82.5 20.5q27 0 48.5 -9t37.5 -23q5 24 10 42t9 30zM258 243q3 37 9 74t11 73q-5 17 -19.5 33t-34.5 16
q-32 0 -57.5 -28t-44 -70.5t-29.5 -92t-13 -92.5t5.5 -72t25.5 -30q12 -1 30.5 16.5t39 45t40.5 61t37 66.5zM265 750q14 -33 27 -67t24 -69q3 -9 -4 -15t-17.5 -8.5t-21.5 -1t-15 7.5q-3 3 -13 17t-21.5 31.5t-22.5 36t-16 31.5q-5 11 6.5 19t27.5 12.5t30.5 6t15.5 -0.5z
" />
    <glyph glyph-name="aacute" unicode="&#xe1;" horiz-adv-x="573" 
d="M316 526q3 12 20 13.5t35 -5.5t30.5 -22.5t6.5 -38.5q-7 -30 -16 -70.5t-17 -85t-13.5 -88.5t-6.5 -79.5t4.5 -58t19.5 -24.5t38 21t51.5 58.5t55.5 77t49 76.5q5 9 13 11.5t15 0.5t10 -8.5t-2 -15.5q-10 -19 -27 -47.5t-38 -60.5t-45 -63.5t-49.5 -57t-51 -41.5
t-48.5 -16q-24 0 -41.5 11.5t-28.5 32t-16 49t-6 61.5q-17 -30 -35.5 -58.5t-39.5 -50.5t-45 -35t-51 -12q-38 1 -63 22.5t-37 56t-13 78t9 89t30 88.5t49 77t66.5 54.5t82.5 20.5q27 0 48.5 -9t37.5 -23q5 24 10 42t9 30zM258 243q3 37 9 74t11 73q-5 17 -19.5 33t-34.5 16
q-32 0 -57.5 -28t-44 -70.5t-29.5 -92t-13 -92.5t5.5 -72t25.5 -30q12 -1 30.5 16.5t39 45t40.5 61t37 66.5zM260 736q1 2 15.5 0.5t30.5 -6t27.5 -12.5t6.5 -19q-5 -13 -16 -31.5t-22.5 -36t-21.5 -31.5t-13 -17q-5 -6 -15.5 -7.5t-21 1t-17.5 8.5t-4 15q11 35 24 69t27 67
z" />
    <glyph glyph-name="acircumflex" unicode="&#xe2;" horiz-adv-x="573" 
d="M316 526q3 12 20 13.5t35 -5.5t30.5 -22.5t6.5 -38.5q-7 -30 -16 -70.5t-17 -85t-13.5 -88.5t-6.5 -79.5t4.5 -58t19.5 -24.5t38 21t51.5 58.5t55.5 77t49 76.5q5 9 13 11.5t15 0.5t10 -8.5t-2 -15.5q-10 -19 -27 -47.5t-38 -60.5t-45 -63.5t-49.5 -57t-51 -41.5
t-48.5 -16q-24 0 -41.5 11.5t-28.5 32t-16 49t-6 61.5q-17 -30 -35.5 -58.5t-39.5 -50.5t-45 -35t-51 -12q-38 1 -63 22.5t-37 56t-13 78t9 89t30 88.5t49 77t66.5 54.5t82.5 20.5q27 0 48.5 -9t37.5 -23q5 24 10 42t9 30zM258 243q3 37 9 74t11 73q-5 17 -19.5 33t-34.5 16
q-32 0 -57.5 -28t-44 -70.5t-29.5 -92t-13 -92.5t5.5 -72t25.5 -30q12 -1 30.5 16.5t39 45t40.5 61t37 66.5zM344 785q8 -18 18.5 -42.5t20 -51t18 -51.5t11.5 -43q0 -2 -7.5 -7.5t-17.5 -9.5t-18.5 -3t-10.5 11q-2 15 -7.5 32.5t-12.5 36.5t-15 37.5t-14 33.5
q-11 -15 -25 -33t-27.5 -36.5t-25 -36t-17.5 -31.5q-6 -10 -15 -11t-17 2.5t-13.5 9.5t-3.5 9q8 16 26 42.5t38 55t40 54t32 39.5q7 5 21 6t22 -13z" />
    <glyph glyph-name="atilde" unicode="&#xe3;" horiz-adv-x="573" 
d="M316 526q3 12 20 13.5t35 -5.5t30.5 -22.5t6.5 -38.5q-7 -30 -16 -70.5t-17 -85t-13.5 -88.5t-6.5 -79.5t4.5 -58t19.5 -24.5t38 21t51.5 58.5t55.5 77t49 76.5q5 9 13 11.5t15 0.5t10 -8.5t-2 -15.5q-10 -19 -27 -47.5t-38 -60.5t-45 -63.5t-49.5 -57t-51 -41.5
t-48.5 -16q-24 0 -41.5 11.5t-28.5 32t-16 49t-6 61.5q-17 -30 -35.5 -58.5t-39.5 -50.5t-45 -35t-51 -12q-38 1 -63 22.5t-37 56t-13 78t9 89t30 88.5t49 77t66.5 54.5t82.5 20.5q27 0 48.5 -9t37.5 -23q5 24 10 42t9 30zM258 243q3 37 9 74t11 73q-5 17 -19.5 33t-34.5 16
q-32 0 -57.5 -28t-44 -70.5t-29.5 -92t-13 -92.5t5.5 -72t25.5 -30q12 -1 30.5 16.5t39 45t40.5 61t37 66.5zM114 615q-7 -15 -13.5 -13t-10 14t-2.5 29.5t9 32.5q17 33 38.5 46.5t45.5 14.5t49 -7t50.5 -18.5t49.5 -20t45 -11.5t38 7t28 35q4 8 9 3t8.5 -18t3 -30.5
t-8 -33.5t-23 -29t-43.5 -16q-24 -3 -50 4.5t-52 18t-51 21t-47.5 13t-41 -6t-31.5 -35.5z" />
    <glyph glyph-name="adieresis" unicode="&#xe4;" horiz-adv-x="573" 
d="M316 526q3 12 20 13.5t35 -5.5t30.5 -22.5t6.5 -38.5q-7 -30 -16 -70.5t-17 -85t-13.5 -88.5t-6.5 -79.5t4.5 -58t19.5 -24.5t38 21t51.5 58.5t55.5 77t49 76.5q5 9 13 11.5t15 0.5t10 -8.5t-2 -15.5q-10 -19 -27 -47.5t-38 -60.5t-45 -63.5t-49.5 -57t-51 -41.5
t-48.5 -16q-24 0 -41.5 11.5t-28.5 32t-16 49t-6 61.5q-17 -30 -35.5 -58.5t-39.5 -50.5t-45 -35t-51 -12q-38 1 -63 22.5t-37 56t-13 78t9 89t30 88.5t49 77t66.5 54.5t82.5 20.5q27 0 48.5 -9t37.5 -23q5 24 10 42t9 30zM258 243q3 37 9 74t11 73q-5 17 -19.5 33t-34.5 16
q-32 0 -57.5 -28t-44 -70.5t-29.5 -92t-13 -92.5t5.5 -72t25.5 -30q12 -1 30.5 16.5t39 45t40.5 61t37 66.5zM222 704q26 0 37 -17.5t8 -39t-19 -39t-44 -17.5q-27 0 -37 17.5t-6.5 39t19.5 39t42 17.5zM370 704q26 0 37 -17.5t8 -39t-19 -39t-44 -17.5q-27 0 -37 17.5
t-6.5 39t19.5 39t42 17.5z" />
    <glyph glyph-name="aring" unicode="&#xe5;" horiz-adv-x="573" 
d="M316 526q3 12 20 13.5t35 -5.5t30.5 -22.5t6.5 -38.5q-7 -30 -16 -70.5t-17 -85t-13.5 -88.5t-6.5 -79.5t4.5 -58t19.5 -24.5t38 21t51.5 58.5t55.5 77t49 76.5q5 9 13 11.5t15 0.5t10 -8.5t-2 -15.5q-10 -19 -27 -47.5t-38 -60.5t-45 -63.5t-49.5 -57t-51 -41.5
t-48.5 -16q-24 0 -41.5 11.5t-28.5 32t-16 49t-6 61.5q-17 -30 -35.5 -58.5t-39.5 -50.5t-45 -35t-51 -12q-38 1 -63 22.5t-37 56t-13 78t9 89t30 88.5t49 77t66.5 54.5t82.5 20.5q27 0 48.5 -9t37.5 -23q5 24 10 42t9 30zM258 243q3 37 9 74t11 73q-5 17 -19.5 33t-34.5 16
q-32 0 -57.5 -28t-44 -70.5t-29.5 -92t-13 -92.5t5.5 -72t25.5 -30q12 -1 30.5 16.5t39 45t40.5 61t37 66.5zM302 800q34 0 53.5 -15.5t26 -38t1 -49.5t-21 -49.5t-39.5 -38t-54 -15.5q-36 0 -56 15.5t-27 38t-1 49.5t21.5 49.5t40.5 38t56 15.5zM289 736q-18 0 -30 -12.5
t-15.5 -27t4 -27t28.5 -12.5q18 0 29.5 12.5t14.5 27t-4 27t-27 12.5z" />
    <glyph glyph-name="ae" unicode="&#xe6;" horiz-adv-x="676" 
d="M373 310q-5 -17 -10 -41.5t-7.5 -51.5t-1.5 -53.5t7.5 -48t20 -34.5t36.5 -13q31 0 67.5 26.5t72.5 64t67 76.5t51 65q5 8 12.5 9.5t13.5 -2t8 -10.5t-4 -16q-16 -24 -37 -54t-46 -61.5t-53 -61.5t-58 -54t-61 -38t-61 -14t-53.5 12t-40 33t-26.5 49.5t-13 61.5
q-17 -30 -35.5 -58t-39.5 -49.5t-44.5 -34.5t-50.5 -12q-38 1 -63 22.5t-37 56t-13 78t9 89t30 88.5t49 77t66.5 54.5t82.5 20.5q27 0 48.5 -9t37.5 -23q5 24 10 42t9 30q3 9 14 12t24.5 1t27 -9.5t21.5 -19.5q25 17 54.5 26.5t62.5 10.5q48 0 71.5 -19t25.5 -47.5t-15 -61
t-49 -59t-78 -41.5t-102 -9zM258 243q3 37 9 74t11 73q-5 17 -19.5 33t-34.5 16q-32 0 -57.5 -28t-44 -70.5t-29.5 -92t-13 -92.5t5.5 -72t25.5 -30q12 -1 30.5 16.5t39 45t40.5 61t37 66.5zM385 351q36 -6 67.5 1t55.5 21t39.5 32.5t20 35t-3 28.5t-29.5 14q-26 0 -49 -11
t-42 -29.5t-34 -42.5t-25 -49z" />
    <glyph glyph-name="ccedilla" unicode="&#xe7;" horiz-adv-x="407" 
d="M356 410q-2 -9 -9 -13.5t-14.5 -4.5t-12 4.5t-2.5 13.5q5 29 -8 47t-42 20q-41 2 -75 -27.5t-58.5 -75.5t-37.5 -100t-12.5 -100.5t16.5 -78t50 -31.5q19 0 42 13.5t48 35t50 48t47.5 52.5t40 49t28.5 38q6 9 14 10t13.5 -2t7 -10t-4.5 -15q-21 -32 -52.5 -76t-70 -86.5
t-81.5 -75.5t-87 -43q-6 -31 -1.5 -38.5t14.5 -7.5q7 0 17 -0.5t20 -2t17.5 -6t10.5 -11.5q3 -8 3 -25.5t-5.5 -35.5t-19.5 -32.5t-39 -16.5q-22 -2 -44.5 -2h-30.5q-5 0 -8 6.5t-2.5 14.5t5 14.5t14.5 6.5h10t18 0.5t19.5 1t14.5 1.5q5 0 9 7.5t5.5 16.5t0.5 16.5t-4 8.5
q-8 2 -25 0.5t-29 2.5q-15 5 -20 22t2 57q-41 6 -67.5 33.5t-38.5 68t-11 90t14.5 99.5t38.5 97t60.5 83t81.5 56t100 16t72.5 -40t7.5 -93z" />
    <glyph glyph-name="egrave" unicode="&#xe8;" horiz-adv-x="406" 
d="M103 310q-5 -17 -10 -41.5t-7.5 -51.5t-1.5 -53.5t7.5 -48t20 -34.5t36.5 -13q31 0 67.5 26.5t72.5 64t67 76.5t51 65q5 8 12.5 9.5t13.5 -2t8 -10.5t-4 -16q-16 -24 -37 -54t-46 -61.5t-53 -61.5t-58 -54t-61 -38t-61 -14q-43 0 -71.5 23.5t-44.5 61.5t-18.5 87t7 100.5
t30.5 100.5t54 88t76 63t97 25q48 0 71.5 -19t25.5 -47.5t-15 -61t-49 -59t-78 -41.5t-102 -9zM115 351q36 -6 67.5 1t55.5 21t39.5 32.5t20 35t-3 28.5t-29.5 14q-26 0 -49 -11t-42 -29.5t-34 -42.5t-25 -49zM220 757q14 -33 27 -67t24 -69q3 -9 -4 -15t-17.5 -8.5
t-21.5 -1t-15 7.5q-3 3 -13 17t-21.5 31.5t-22.5 36t-16 31.5q-5 11 6.5 19t27.5 12.5t30.5 6t15.5 -0.5z" />
    <glyph glyph-name="eacute" unicode="&#xe9;" horiz-adv-x="406" 
d="M103 310q-5 -17 -10 -41.5t-7.5 -51.5t-1.5 -53.5t7.5 -48t20 -34.5t36.5 -13q31 0 67.5 26.5t72.5 64t67 76.5t51 65q5 8 12.5 9.5t13.5 -2t8 -10.5t-4 -16q-16 -24 -37 -54t-46 -61.5t-53 -61.5t-58 -54t-61 -38t-61 -14q-43 0 -71.5 23.5t-44.5 61.5t-18.5 87t7 100.5
t30.5 100.5t54 88t76 63t97 25q48 0 71.5 -19t25.5 -47.5t-15 -61t-49 -59t-78 -41.5t-102 -9zM115 351q36 -6 67.5 1t55.5 21t39.5 32.5t20 35t-3 28.5t-29.5 14q-26 0 -49 -11t-42 -29.5t-34 -42.5t-25 -49zM263 754q1 2 15.5 0.5t30.5 -6t27.5 -12.5t6.5 -19
q-5 -13 -16 -31.5t-22.5 -36t-21.5 -31.5t-13 -17q-5 -6 -15.5 -7.5t-21 1t-17.5 8.5t-4 15q11 35 24 69t27 67z" />
    <glyph glyph-name="ecircumflex" unicode="&#xea;" horiz-adv-x="406" 
d="M103 310q-5 -17 -10 -41.5t-7.5 -51.5t-1.5 -53.5t7.5 -48t20 -34.5t36.5 -13q31 0 67.5 26.5t72.5 64t67 76.5t51 65q5 8 12.5 9.5t13.5 -2t8 -10.5t-4 -16q-16 -24 -37 -54t-46 -61.5t-53 -61.5t-58 -54t-61 -38t-61 -14q-43 0 -71.5 23.5t-44.5 61.5t-18.5 87t7 100.5
t30.5 100.5t54 88t76 63t97 25q48 0 71.5 -19t25.5 -47.5t-15 -61t-49 -59t-78 -41.5t-102 -9zM115 351q36 -6 67.5 1t55.5 21t39.5 32.5t20 35t-3 28.5t-29.5 14q-26 0 -49 -11t-42 -29.5t-34 -42.5t-25 -49zM317 800q8 -18 18.5 -42.5t20 -51t18 -51.5t11.5 -43
q0 -2 -7.5 -7.5t-17.5 -9.5t-18.5 -3t-10.5 11q-2 15 -7.5 32.5t-12.5 36.5t-15 37.5t-14 33.5q-11 -15 -25 -33t-27.5 -36.5t-25 -36t-17.5 -31.5q-6 -10 -15 -11t-17 2.5t-13.5 9.5t-3.5 9q8 16 26 42.5t38 55t40 54t32 39.5q7 5 21 6t22 -13z" />
    <glyph glyph-name="edieresis" unicode="&#xeb;" horiz-adv-x="406" 
d="M103 310q-5 -17 -10 -41.5t-7.5 -51.5t-1.5 -53.5t7.5 -48t20 -34.5t36.5 -13q31 0 67.5 26.5t72.5 64t67 76.5t51 65q5 8 12.5 9.5t13.5 -2t8 -10.5t-4 -16q-16 -24 -37 -54t-46 -61.5t-53 -61.5t-58 -54t-61 -38t-61 -14q-43 0 -71.5 23.5t-44.5 61.5t-18.5 87t7 100.5
t30.5 100.5t54 88t76 63t97 25q48 0 71.5 -19t25.5 -47.5t-15 -61t-49 -59t-78 -41.5t-102 -9zM115 351q36 -6 67.5 1t55.5 21t39.5 32.5t20 35t-3 28.5t-29.5 14q-26 0 -49 -11t-42 -29.5t-34 -42.5t-25 -49zM187 707q26 0 37 -17.5t8 -39t-19 -39t-44 -17.5
q-27 0 -37 17.5t-6.5 39t19.5 39t42 17.5zM335 707q26 0 37 -17.5t8 -39t-19 -39t-44 -17.5q-27 0 -37 17.5t-6.5 39t19.5 39t42 17.5z" />
    <glyph glyph-name="igrave" unicode="&#xec;" horiz-adv-x="307" 
d="M50 530q1 0 9.5 2t20 3t24 -2t21.5 -13.5t12.5 -30t-3.5 -52.5t-14.5 -72t-14 -79.5t-11 -79t-4.5 -68.5t5.5 -49.5t18.5 -21.5q14 -2 38 21t51.5 58.5t55 77t48.5 76.5q4 9 12 11.5t14 0.5t8.5 -8.5t-2.5 -15.5q-10 -19 -25.5 -47.5t-36 -60.5t-44 -63.5t-48.5 -57
t-50 -41.5t-48 -16q-44 1 -65.5 33.5t-28.5 83t-2 111.5t15.5 119.5t23 107t20.5 73.5zM87 760q14 -33 27 -67t24 -69q3 -9 -4 -15t-17.5 -8.5t-21.5 -1t-15 7.5q-3 3 -13 17t-21.5 31.5t-22.5 36t-16 31.5q-5 11 6.5 19t27.5 12.5t30.5 6t15.5 -0.5z" />
    <glyph glyph-name="iacute" unicode="&#xed;" horiz-adv-x="307" 
d="M50 530q1 0 9.5 2t20 3t24 -2t21.5 -13.5t12.5 -30t-3.5 -52.5t-14.5 -72t-14 -79.5t-11 -79t-4.5 -68.5t5.5 -49.5t18.5 -21.5q14 -2 38 21t51.5 58.5t55 77t48.5 76.5q4 9 12 11.5t14 0.5t8.5 -8.5t-2.5 -15.5q-10 -19 -25.5 -47.5t-36 -60.5t-44 -63.5t-48.5 -57
t-50 -41.5t-48 -16q-44 1 -65.5 33.5t-28.5 83t-2 111.5t15.5 119.5t23 107t20.5 73.5zM131 753q1 2 15.5 0.5t30.5 -6t27.5 -12.5t6.5 -19q-5 -13 -16 -31.5t-22.5 -36t-21.5 -31.5t-13 -17q-5 -6 -15.5 -7.5t-21 1t-17.5 8.5t-4 15q11 35 24 69t27 67z" />
    <glyph glyph-name="icircumflex" unicode="&#xee;" horiz-adv-x="307" 
d="M50 530q1 0 9.5 2t20 3t24 -2t21.5 -13.5t12.5 -30t-3.5 -52.5t-14.5 -72t-14 -79.5t-11 -79t-4.5 -68.5t5.5 -49.5t18.5 -21.5q14 -2 38 21t51.5 58.5t55 77t48.5 76.5q4 9 12 11.5t14 0.5t8.5 -8.5t-2.5 -15.5q-10 -19 -25.5 -47.5t-36 -60.5t-44 -63.5t-48.5 -57
t-50 -41.5t-48 -16q-44 1 -65.5 33.5t-28.5 83t-2 111.5t15.5 119.5t23 107t20.5 73.5zM174 797q8 -18 18.5 -42.5t20 -51t18 -51.5t11.5 -43q0 -2 -7.5 -7.5t-17.5 -9.5t-18.5 -3t-10.5 11q-2 15 -7.5 32.5t-12.5 36.5t-15 37.5t-14 33.5q-11 -15 -25 -33t-27.5 -36.5
t-25 -36t-17.5 -31.5q-6 -10 -15 -11t-17 2.5t-13.5 9.5t-3.5 9q8 16 26 42.5t38 55t40 54t32 39.5q7 5 21 6t22 -13z" />
    <glyph glyph-name="idieresis" unicode="&#xef;" horiz-adv-x="307" 
d="M50 530q1 0 9.5 2t20 3t24 -2t21.5 -13.5t12.5 -30t-3.5 -52.5t-14.5 -72t-14 -79.5t-11 -79t-4.5 -68.5t5.5 -49.5t18.5 -21.5q14 -2 38 21t51.5 58.5t55 77t48.5 76.5q4 9 12 11.5t14 0.5t8.5 -8.5t-2.5 -15.5q-10 -19 -25.5 -47.5t-36 -60.5t-44 -63.5t-48.5 -57
t-50 -41.5t-48 -16q-44 1 -65.5 33.5t-28.5 83t-2 111.5t15.5 119.5t23 107t20.5 73.5zM64 710q26 0 37 -17.5t8 -39t-19 -39t-44 -17.5q-27 0 -37 17.5t-6.5 39t19.5 39t42 17.5zM212 710q26 0 37 -17.5t8 -39t-19 -39t-44 -17.5q-27 0 -37 17.5t-6.5 39t19.5 39t42 17.5z
" />
    <glyph glyph-name="ntilde" unicode="&#xf1;" horiz-adv-x="510" 
d="M-34 39q-2 25 2 64.5t11.5 86t17 96.5t19 96t18 85t14.5 63l8 3.5t20 5.5t25 0t22 -13t12.5 -33t-3.5 -60q-9 -53 -20 -116.5t-22 -121.5q23 54 53 110t63.5 102t69.5 74.5t71 27.5q28 -2 39 -22t10.5 -52t-9 -71.5t-20 -81t-23 -81t-17.5 -70t-4 -49t17 -17.5
q10 0 25.5 15.5t32.5 39t35 52t33.5 54.5t27 46.5t16.5 27.5q4 9 11.5 11.5t13.5 0t8.5 -9t-3.5 -14.5q-10 -19 -24.5 -47.5t-32.5 -60.5t-38.5 -64t-43 -58t-47 -42t-48.5 -16q-47 0 -62 33.5t-11 84.5t21 109.5t34.5 109.5t29 84.5t4.5 33.5q-16 0 -38.5 -26t-48.5 -66
t-52 -89.5t-48 -96t-37.5 -85t-19.5 -57.5q4 -17 -12.5 -25.5t-37.5 -8t-40.5 10t-21.5 27.5zM82 610q-7 -15 -13.5 -13t-10 14t-2.5 29.5t9 32.5q17 33 38.5 46.5t45.5 14.5t49 -7t50.5 -18.5t49.5 -20t45 -11.5t38 7t28 35q4 8 9 3t8.5 -18t3 -30.5t-8 -33.5t-23.5 -29
t-43 -16q-24 -3 -50 4.5t-52 18t-51 21t-47.5 13t-41 -6t-31.5 -35.5z" />
    <glyph glyph-name="ograve" unicode="&#xf2;" horiz-adv-x="459" 
d="M370 386q-2 -10 -9 -15t-14 -5t-12 5t-3 15q3 16 1.5 33t-9 30.5t-20 22.5t-30.5 11q-45 4 -79 -24.5t-55 -74t-30 -99.5t-4.5 -100.5t23 -78t50.5 -31.5t57 19t43 45q-29 8 -43.5 27t-18 43t4 50t22.5 47t36.5 35t47.5 14q30 0 39.5 -19.5t7 -47t-12 -56t-18.5 -46.5
q16 4 32 17.5t31 30t28.5 34.5t23.5 32q4 8 12 10t14 -1t8.5 -9.5t-2.5 -14.5q-21 -35 -44 -62t-46.5 -46.5t-44.5 -30.5t-37 -12q-14 -22 -35.5 -46t-47 -43t-54 -31t-55.5 -10q-62 1 -96 41t-43.5 100t5 129.5t48.5 129t87 99t121 39.5q28 0 53.5 -12t42.5 -33t24.5 -49.5
t0.5 -61.5zM298 181q6 7 15 29.5t15.5 45.5t7.5 41.5t-11 18.5q-13 0 -24.5 -18.5t-17 -42t-3 -45.5t17.5 -29zM229 756q14 -33 27 -67t24 -69q3 -9 -4 -15t-17.5 -8.5t-21.5 -1t-15 7.5q-3 3 -13 17t-21.5 31.5t-22.5 36t-16 31.5q-5 11 6.5 19t27.5 12.5t30.5 6t15.5 -0.5
z" />
    <glyph glyph-name="oacute" unicode="&#xf3;" horiz-adv-x="459" 
d="M370 386q-2 -10 -9 -15t-14 -5t-12 5t-3 15q3 16 1.5 33t-9 30.5t-20 22.5t-30.5 11q-45 4 -79 -24.5t-55 -74t-30 -99.5t-4.5 -100.5t23 -78t50.5 -31.5t57 19t43 45q-29 8 -43.5 27t-18 43t4 50t22.5 47t36.5 35t47.5 14q30 0 39.5 -19.5t7 -47t-12 -56t-18.5 -46.5
q16 4 32 17.5t31 30t28.5 34.5t23.5 32q4 8 12 10t14 -1t8.5 -9.5t-2.5 -14.5q-21 -35 -44 -62t-46.5 -46.5t-44.5 -30.5t-37 -12q-14 -22 -35.5 -46t-47 -43t-54 -31t-55.5 -10q-62 1 -96 41t-43.5 100t5 129.5t48.5 129t87 99t121 39.5q28 0 53.5 -12t42.5 -33t24.5 -49.5
t0.5 -61.5zM298 181q6 7 15 29.5t15.5 45.5t7.5 41.5t-11 18.5q-13 0 -24.5 -18.5t-17 -42t-3 -45.5t17.5 -29zM257 753q1 2 15.5 0.5t30.5 -6t27.5 -12.5t6.5 -19q-5 -13 -16 -31.5t-22.5 -36t-21.5 -31.5t-13 -17q-5 -6 -15.5 -7.5t-21 1t-17.5 8.5t-4 15q11 35 24 69
t27 67z" />
    <glyph glyph-name="ocircumflex" unicode="&#xf4;" horiz-adv-x="459" 
d="M370 386q-2 -10 -9 -15t-14 -5t-12 5t-3 15q3 16 1.5 33t-9 30.5t-20 22.5t-30.5 11q-45 4 -79 -24.5t-55 -74t-30 -99.5t-4.5 -100.5t23 -78t50.5 -31.5t57 19t43 45q-29 8 -43.5 27t-18 43t4 50t22.5 47t36.5 35t47.5 14q30 0 39.5 -19.5t7 -47t-12 -56t-18.5 -46.5
q16 4 32 17.5t31 30t28.5 34.5t23.5 32q4 8 12 10t14 -1t8.5 -9.5t-2.5 -14.5q-21 -35 -44 -62t-46.5 -46.5t-44.5 -30.5t-37 -12q-14 -22 -35.5 -46t-47 -43t-54 -31t-55.5 -10q-62 1 -96 41t-43.5 100t5 129.5t48.5 129t87 99t121 39.5q28 0 53.5 -12t42.5 -33t24.5 -49.5
t0.5 -61.5zM298 181q6 7 15 29.5t15.5 45.5t7.5 41.5t-11 18.5q-13 0 -24.5 -18.5t-17 -42t-3 -45.5t17.5 -29zM308 788q8 -18 18.5 -42.5t20 -51t18 -51.5t11.5 -43q0 -2 -7.5 -7.5t-17.5 -9.5t-18.5 -3t-10.5 11q-2 15 -7.5 32.5t-12.5 36.5t-15 37.5t-14 33.5
q-11 -15 -25 -33t-27.5 -36.5t-25 -36t-17.5 -31.5q-6 -10 -15 -11t-17 2.5t-13.5 9.5t-3.5 9q8 16 26 42.5t38 55t40 54t32 39.5q7 5 21 6t22 -13z" />
    <glyph glyph-name="otilde" unicode="&#xf5;" horiz-adv-x="459" 
d="M370 386q-2 -10 -9 -15t-14 -5t-12 5t-3 15q3 16 1.5 33t-9 30.5t-20 22.5t-30.5 11q-45 4 -79 -24.5t-55 -74t-30 -99.5t-4.5 -100.5t23 -78t50.5 -31.5t57 19t43 45q-29 8 -43.5 27t-18 43t4 50t22.5 47t36.5 35t47.5 14q30 0 39.5 -19.5t7 -47t-12 -56t-18.5 -46.5
q16 4 32 17.5t31 30t28.5 34.5t23.5 32q4 8 12 10t14 -1t8.5 -9.5t-2.5 -14.5q-21 -35 -44 -62t-46.5 -46.5t-44.5 -30.5t-37 -12q-14 -22 -35.5 -46t-47 -43t-54 -31t-55.5 -10q-62 1 -96 41t-43.5 100t5 129.5t48.5 129t87 99t121 39.5q28 0 53.5 -12t42.5 -33t24.5 -49.5
t0.5 -61.5zM298 181q6 7 15 29.5t15.5 45.5t7.5 41.5t-11 18.5q-13 0 -24.5 -18.5t-17 -42t-3 -45.5t17.5 -29zM101 615q-7 -15 -13.5 -13t-10 14t-2.5 29.5t9 32.5q17 33 38.5 46.5t45.5 14.5t49 -7t50.5 -18.5t49.5 -20t45 -11.5t38 7t28 35q4 8 9 3t8.5 -18t3 -30.5
t-8 -33.5t-23.5 -29t-43 -16q-24 -3 -50 4.5t-52 18t-51 21t-47.5 13t-41 -6t-31.5 -35.5z" />
    <glyph glyph-name="odieresis" unicode="&#xf6;" horiz-adv-x="459" 
d="M370 386q-2 -10 -9 -15t-14 -5t-12 5t-3 15q3 16 1.5 33t-9 30.5t-20 22.5t-30.5 11q-45 4 -79 -24.5t-55 -74t-30 -99.5t-4.5 -100.5t23 -78t50.5 -31.5t57 19t43 45q-29 8 -43.5 27t-18 43t4 50t22.5 47t36.5 35t47.5 14q30 0 39.5 -19.5t7 -47t-12 -56t-18.5 -46.5
q16 4 32 17.5t31 30t28.5 34.5t23.5 32q4 8 12 10t14 -1t8.5 -9.5t-2.5 -14.5q-21 -35 -44 -62t-46.5 -46.5t-44.5 -30.5t-37 -12q-14 -22 -35.5 -46t-47 -43t-54 -31t-55.5 -10q-62 1 -96 41t-43.5 100t5 129.5t48.5 129t87 99t121 39.5q28 0 53.5 -12t42.5 -33t24.5 -49.5
t0.5 -61.5zM298 181q6 7 15 29.5t15.5 45.5t7.5 41.5t-11 18.5q-13 0 -24.5 -18.5t-17 -42t-3 -45.5t17.5 -29zM170 713q26 0 37 -17.5t8 -39t-19 -39t-44 -17.5q-27 0 -37 17.5t-6.5 39t19.5 39t42 17.5zM318 713q26 0 37 -17.5t8 -39t-19 -39t-44 -17.5q-27 0 -37 17.5
t-6.5 39t19.5 39t42 17.5z" />
    <glyph glyph-name="oslash" unicode="&#xf8;" horiz-adv-x="459" 
d="M398 692q7 12 23 14.5t31 -1.5t23.5 -14.5t1.5 -24.5l-54 -104t-56 -106q11 -32 3 -70q-2 -10 -8.5 -15t-13 -4.5t-11.5 6t-5 17.5q-5 -9 -9.5 -18.5t-9.5 -18.5q10 2 15 2q30 0 39.5 -19.5t7 -47t-12 -56t-18.5 -46.5q16 4 32 17.5t31 30t28.5 34.5t23.5 32q4 8 12 10
t14 -1t8.5 -9.5t-2.5 -14.5q-21 -35 -44 -62t-46.5 -46.5t-44.5 -30.5t-37 -12q-14 -22 -35.5 -46t-47 -43t-54 -31t-55.5 -10h-2l-94 -173q-6 -14 -17 -16t-21 2.5t-16 13.5t-1 18q21 44 42 86.5t43 85.5q-40 23 -59 70.5t-18 105t19.5 119t52.5 111.5t83 82.5t110 32.5
q17 0 33.5 -5t30.5 -13l42 84t43 84zM274 483q-35 3 -63 -13.5t-48.5 -46t-34 -67.5t-19.5 -78.5t-4.5 -78.5t11.5 -67l174 347q-6 2 -16 4zM179 75q32 0 57 19t43 45q-22 6 -35.5 18t-20.5 29q-14 -28 -29 -55t-29 -54q8 -2 14 -2zM298 181q6 7 15 29.5t15.5 45.5t7.5 41.5
t-11 18.5q-13 0 -24.5 -18.5t-17 -42t-3 -45.5t17.5 -29z" />
    <glyph glyph-name="ugrave" unicode="&#xf9;" horiz-adv-x="624" 
d="M368 530q2 12 18.5 17t35 2.5t34 -12.5t14.5 -28q-7 -20 -16.5 -60t-19 -88t-17.5 -99t-10 -93.5t3 -70.5t20 -31q13 -2 37 21t52 58.5t56 77t49 76.5q5 9 12.5 11.5t14.5 0.5t10 -8.5t-1 -15.5q-11 -19 -28 -47.5t-38 -60.5t-45 -63.5t-49 -57t-50.5 -41.5t-48.5 -16
q-32 0 -51.5 20.5t-28.5 54.5t-10.5 78.5t2.5 92.5q-22 -48 -47.5 -93t-53 -79.5t-57.5 -55t-62 -20.5q-41 0 -63.5 27.5t-31.5 71.5t-7 99t10 110.5t19 105.5t20 84q6 28 27.5 39.5t44 12t39 -7.5t13.5 -18q-5 -18 -14 -58t-18 -90t-16.5 -103.5t-10 -98.5t2 -75t19.5 -32
q16 -2 35.5 17t40.5 51.5t42 74.5t40 86t35.5 87t27.5 77zM252 757q14 -33 27 -67t24 -69q3 -9 -4 -15t-17.5 -8.5t-21.5 -1t-15 7.5q-3 3 -13 17t-21.5 31.5t-22.5 36t-16 31.5q-5 11 6.5 19t27.5 12.5t30.5 6t15.5 -0.5z" />
    <glyph glyph-name="uacute" unicode="&#xfa;" horiz-adv-x="624" 
d="M368 530q2 12 18.5 17t35 2.5t34 -12.5t14.5 -28q-7 -20 -16.5 -60t-19 -88t-17.5 -99t-10 -93.5t3 -70.5t20 -31q13 -2 37 21t52 58.5t56 77t49 76.5q5 9 12.5 11.5t14.5 0.5t10 -8.5t-1 -15.5q-11 -19 -28 -47.5t-38 -60.5t-45 -63.5t-49 -57t-50.5 -41.5t-48.5 -16
q-32 0 -51.5 20.5t-28.5 54.5t-10.5 78.5t2.5 92.5q-22 -48 -47.5 -93t-53 -79.5t-57.5 -55t-62 -20.5q-41 0 -63.5 27.5t-31.5 71.5t-7 99t10 110.5t19 105.5t20 84q6 28 27.5 39.5t44 12t39 -7.5t13.5 -18q-5 -18 -14 -58t-18 -90t-16.5 -103.5t-10 -98.5t2 -75t19.5 -32
q16 -2 35.5 17t40.5 51.5t42 74.5t40 86t35.5 87t27.5 77zM285 753q1 2 15.5 0.5t30.5 -6t27.5 -12.5t6.5 -19q-5 -13 -16 -31.5t-22.5 -36t-21.5 -31.5t-13 -17q-5 -6 -15.5 -7.5t-21 1t-17.5 8.5t-4 15q11 35 24 69t27 67z" />
    <glyph glyph-name="ucircumflex" unicode="&#xfb;" horiz-adv-x="624" 
d="M368 530q2 12 18.5 17t35 2.5t34 -12.5t14.5 -28q-7 -20 -16.5 -60t-19 -88t-17.5 -99t-10 -93.5t3 -70.5t20 -31q13 -2 37 21t52 58.5t56 77t49 76.5q5 9 12.5 11.5t14.5 0.5t10 -8.5t-1 -15.5q-11 -19 -28 -47.5t-38 -60.5t-45 -63.5t-49 -57t-50.5 -41.5t-48.5 -16
q-32 0 -51.5 20.5t-28.5 54.5t-10.5 78.5t2.5 92.5q-22 -48 -47.5 -93t-53 -79.5t-57.5 -55t-62 -20.5q-41 0 -63.5 27.5t-31.5 71.5t-7 99t10 110.5t19 105.5t20 84q6 28 27.5 39.5t44 12t39 -7.5t13.5 -18q-5 -18 -14 -58t-18 -90t-16.5 -103.5t-10 -98.5t2 -75t19.5 -32
q16 -2 35.5 17t40.5 51.5t42 74.5t40 86t35.5 87t27.5 77zM319 805q8 -18 18.5 -42.5t20 -51t18 -51.5t11.5 -43q0 -2 -7.5 -7.5t-17.5 -9.5t-18.5 -3t-10.5 11q-2 15 -7.5 32.5t-12.5 36.5t-15 37.5t-14 33.5q-11 -15 -25 -33t-27.5 -36.5t-25 -36t-17.5 -31.5
q-6 -10 -15 -11t-17 2.5t-13.5 9.5t-3.5 9q8 16 26 42.5t38 55t40 54t32 39.5q7 5 21 6t22 -13z" />
    <glyph glyph-name="udieresis" unicode="&#xfc;" horiz-adv-x="624" 
d="M368 530q2 12 18.5 17t35 2.5t34 -12.5t14.5 -28q-7 -20 -16.5 -60t-19 -88t-17.5 -99t-10 -93.5t3 -70.5t20 -31q13 -2 37 21t52 58.5t56 77t49 76.5q5 9 12.5 11.5t14.5 0.5t10 -8.5t-1 -15.5q-11 -19 -28 -47.5t-38 -60.5t-45 -63.5t-49 -57t-50.5 -41.5t-48.5 -16
q-32 0 -51.5 20.5t-28.5 54.5t-10.5 78.5t2.5 92.5q-22 -48 -47.5 -93t-53 -79.5t-57.5 -55t-62 -20.5q-41 0 -63.5 27.5t-31.5 71.5t-7 99t10 110.5t19 105.5t20 84q6 28 27.5 39.5t44 12t39 -7.5t13.5 -18q-5 -18 -14 -58t-18 -90t-16.5 -103.5t-10 -98.5t2 -75t19.5 -32
q16 -2 35.5 17t40.5 51.5t42 74.5t40 86t35.5 87t27.5 77zM222 714q26 0 37 -17.5t8 -39t-19 -39t-44 -17.5q-27 0 -37 17.5t-6.5 39t19.5 39t42 17.5zM370 714q26 0 37 -17.5t8 -39t-19 -39t-44 -17.5q-27 0 -37 17.5t-6.5 39t19.5 39t42 17.5z" />
    <glyph glyph-name="yacute" unicode="&#xfd;" horiz-adv-x="456" 
d="M43 527q3 12 20 15.5t35.5 1.5t33.5 -8.5t15 -14.5q-5 -18 -13 -58t-17 -90t-16.5 -103.5t-10.5 -98.5t0 -75t15 -32q14 -2 31 18t36 53.5t38.5 76.5t37 88.5t32.5 88t26 75.5q3 19 6.5 37t7.5 39l14.5 2.5t31.5 -0.5t32.5 -14.5t17.5 -38.5q-23 -145 -46.5 -288.5
t-49.5 -289.5q-8 -40 -19 -82.5t-27 -83t-38.5 -77.5t-53.5 -64.5t-71 -43.5t-92 -16q-57 1 -87.5 30t-40 72.5t-0.5 93.5t32 93.5t56.5 73.5t73.5 32q13 0 21.5 -5.5t12.5 -12t4.5 -12t-2.5 -5.5q-33 -2 -60 -26.5t-45 -59.5t-26.5 -75.5t-4.5 -74.5t22 -56t53 -21
q31 0 55.5 17.5t43.5 45t33 62t23.5 69.5t16 66.5t10.5 52.5q15 88 30.5 173.5t29.5 175.5q-20 -49 -42.5 -95t-48 -82t-52.5 -57.5t-55 -21.5q-39 0 -57.5 32t-24 82.5t0 112t15 120.5t20.5 108t17 75zM250 756q1 2 15.5 0.5t30.5 -6t27.5 -12.5t6.5 -19q-5 -13 -16 -31.5
t-22.5 -36t-21.5 -31.5t-13 -17q-5 -6 -15.5 -7.5t-21 1t-17.5 8.5t-4 15q11 35 24 69t27 67z" />
    <glyph glyph-name="ydieresis" unicode="&#xff;" horiz-adv-x="456" 
d="M43 527q3 12 20 15.5t35.5 1.5t33.5 -8.5t15 -14.5q-5 -18 -13 -58t-17 -90t-16.5 -103.5t-10.5 -98.5t0 -75t15 -32q14 -2 31 18t36 53.5t38.5 76.5t37 88.5t32.5 88t26 75.5q3 19 6.5 37t7.5 39l14.5 2.5t31.5 -0.5t32.5 -14.5t17.5 -38.5q-23 -145 -46.5 -288.5
t-49.5 -289.5q-8 -40 -19 -82.5t-27 -83t-38.5 -77.5t-53.5 -64.5t-71 -43.5t-92 -16q-57 1 -87.5 30t-40 72.5t-0.5 93.5t32 93.5t56.5 73.5t73.5 32q13 0 21.5 -5.5t12.5 -12t4.5 -12t-2.5 -5.5q-33 -2 -60 -26.5t-45 -59.5t-26.5 -75.5t-4.5 -74.5t22 -56t53 -21
q31 0 55.5 17.5t43.5 45t33 62t23.5 69.5t16 66.5t10.5 52.5q15 88 30.5 173.5t29.5 175.5q-20 -49 -42.5 -95t-48 -82t-52.5 -57.5t-55 -21.5q-39 0 -57.5 32t-24 82.5t0 112t15 120.5t20.5 108t17 75zM163 712q26 0 37 -17.5t8 -39t-19 -39t-44 -17.5q-27 0 -37 17.5
t-6.5 39t19.5 39t42 17.5zM311 712q26 0 37 -17.5t8 -39t-19 -39t-44 -17.5q-27 0 -37 17.5t-6.5 39t19.5 39t42 17.5z" />
    <glyph glyph-name="OE" unicode="&#x152;" horiz-adv-x="1672" 
d="M386 -554q-72 10 -121 53t-77 108.5t-36 149.5t0.5 176.5t33 188.5t63 187t89 171.5t111 141.5t129.5 97.5t144 39.5q42 1 71 -18t45 -50.5t18 -72t-11 -83.5q-10 -32 -24.5 -53t-28 -32.5t-24.5 -15t-14 -1.5q12 12 23 28q9 14 16.5 32.5t7.5 41.5q2 37 -14.5 56
t-50.5 15q-65 -3 -125 -49t-111.5 -119t-91.5 -164.5t-65 -187t-32 -186.5t8 -162.5t53.5 -115t106.5 -43.5q55 -1 109 39t103.5 108.5t92 160t75 194t52.5 209.5t24.5 207t-9 187.5t-48.5 149.5t-93 93.5t-143 19.5q-77 -11 -150 -55t-135 -105t-110 -131.5t-76 -134.5
t-33 -113.5t19 -69.5q-2 -2 -17.5 1.5t-36 14t-43 28t-38 43t-20 59.5t10.5 77q21 65 59.5 126t88 114t108 97t119.5 77t123 53.5t118 26.5q85 7 152 -13t117 -61.5t84.5 -102t54.5 -133.5q15 60 51.5 115.5t91 98t126 68.5t157.5 28q38 1 80.5 -5t82.5 -19.5t74.5 -34
t57.5 -48.5t32 -63.5t-3 -78.5q-16 -49 -43.5 -77.5t-54 -42t-46 -14.5t-19.5 6q5 -2 14.5 0.5t20 10t22 20.5t20.5 33q19 43 6.5 77t-43 58t-73.5 37t-84 15q-84 4 -154 -27t-114 -83.5t-57.5 -118.5t14.5 -130.5t103 -120.5t208 -88q22 -5 29 -26t3 -44t-18 -40t-34 -14
q-94 5 -174 -18.5t-143.5 -66t-108.5 -98t-68.5 -114.5t-23.5 -116t27 -101.5t82.5 -72t143.5 -27.5q61 0 120 17t111.5 45.5t97.5 64.5t78.5 73t54 72.5t24.5 62t-10.5 41.5t-51.5 12q-20 -1 -35 -11t-16 -8q-7 1 -1.5 11.5t20 22.5t37 20.5t48.5 6.5q49 -3 70.5 -28
t19 -63.5t-26.5 -87t-65.5 -98.5t-98.5 -98t-126 -86t-148 -62t-163 -26q-72 -2 -129 13t-99.5 43.5t-71.5 67.5t-44 85q-43 -60 -92 -109t-103.5 -84t-113.5 -54.5t-122 -19.5z" />
    <glyph glyph-name="Scaron" unicode="&#x160;" horiz-adv-x="1015" 
d="M954 778q-6 6 -12 21t-19.5 31.5t-37 30t-63.5 16.5q-53 4 -111.5 -8.5t-116.5 -39t-112 -65.5t-99 -86t-76.5 -101t-44.5 -112q-12 -52 6 -89t56 -66t89.5 -53.5t106.5 -50t108 -55.5t92.5 -71.5t61 -96.5t13.5 -130q-7 -65 -42 -122.5t-87 -105.5t-116.5 -85
t-131.5 -61.5t-131.5 -35t-116.5 -5.5q-49 3 -76.5 29t-37 65t-3.5 86.5t24.5 94t47.5 88.5t64.5 69.5t75 36.5t80.5 -10q-21 1 -44.5 -19.5t-44 -52t-35 -68.5t-15.5 -69t14.5 -53.5t53.5 -22.5q60 0 128 18t127 49.5t100 74t49 91.5q10 58 -10 101t-59.5 77.5t-93 62.5
t-110.5 55t-113.5 56t-101.5 65.5t-73 83.5t-30 109q-3 59 29 127t87 136t127.5 130t151.5 109t158.5 74t148.5 24q48 -3 80.5 -23.5t53 -50.5t30 -64t11.5 -64t-1.5 -51t-8.5 -24zM727 1121q-8 18 -18.5 42.5t-20 50.5t-18 51.5t-11.5 43.5q0 2 7.5 7.5t17 9.5t18.5 3
t11 -11q2 -15 7.5 -33t12.5 -36.5t15 -37t14 -33.5q11 15 24.5 33t27 36.5t25.5 36t18 31.5q6 10 15 11t17 -2.5t13.5 -9.5t3.5 -9q-8 -16 -26 -42.5t-38 -55t-40 -54.5t-32 -39q-7 -5 -21 -6t-22 13z" />
    <glyph glyph-name="scaron" unicode="&#x161;" horiz-adv-x="316" 
d="M273 500q-26 5 -51 -5.5t-35 -39.5q-8 -29 -3.5 -68t15 -82t21.5 -88t15.5 -86t-1.5 -76.5t-30 -59.5q-30 -28 -62 -34t-62 3t-57 31t-46 51t-29 62.5t-6 65.5t23.5 60t58.5 46q-5 -1 -10 1t-9 6t-6 8.5t1 9.5q5 9 11 24.5t12.5 34t12.5 38t11 37.5q10 34 33 56.5
t48.5 36t48.5 19t35 5.5q23 0 40 -9.5t26 -20.5t8 -19.5t-13 -6.5zM34 286q7 3 12 -1.5t7.5 -12t1 -15.5t-7.5 -12q-42 -17 -52.5 -44t-2.5 -56t30 -56t45.5 -43t44 -17t25.5 21q4 21 -4 56t-20 76.5t-24.5 87t-16.5 88.5q-11 -20 -20 -39t-18 -33zM188 608q-6 12 -13 29.5
t-14 36t-13 36t-8 30.5q0 1 5 5t12 6.5t13 2t8 -7.5q3 -20 14 -48t20 -50q8 10 17.5 22.5t19 25.5t17.5 25.5t13 22.5q4 7 10.5 8t12.5 -1.5t9.5 -6.5t2.5 -7q-6 -11 -18.5 -29.5t-27 -39t-28 -38.5t-22.5 -27q-5 -3 -15 -4.5t-15 9.5z" />
    <glyph glyph-name="Ydieresis" unicode="&#x178;" 
d="M655 51q6 4 0 13.5t-22 17t-39.5 9t-51.5 -9.5q-42 -17 -76 -51.5t-58.5 -80t-37.5 -97.5t-13.5 -103.5t12.5 -99t42 -84t74 -58.5t109 -22q84 0 145.5 43t105.5 115t73.5 166.5t50.5 197.5t36 207.5t30 197t32 165.5t43 114q9 15 3.5 26.5t-20.5 16t-36.5 -0.5
t-44.5 -23.5t-44.5 -52.5t-35.5 -87q-28 -57 -67 -111.5t-81 -96.5t-83.5 -67.5t-72.5 -25.5q-20 0 -24.5 22t0 60t16 88.5t24 107t23.5 116.5t15 117t-2.5 107.5t-28.5 89t-62 61t-104 23.5q-96 1 -170.5 -35t-128 -94.5t-86 -131t-44 -144t-1.5 -135t41 -102.5
q15 -20 40.5 -29.5t53.5 -11.5t55.5 1.5t48 9t31 10.5t3.5 7q-54 14 -85.5 46t-44 74.5t-8.5 92t21.5 98.5t45.5 95t63.5 81t76.5 56t83 21q43 0 64.5 -21.5t27 -58.5t-2 -86t-20.5 -104.5t-28.5 -114t-27 -114t-16.5 -104.5t4.5 -86t35.5 -58.5t76 -21.5q42 0 84.5 18.5
t82.5 49.5t77 72.5t68 86.5q-11 -82 -22 -177t-25 -190t-34.5 -183t-51 -155.5t-73.5 -108t-103 -40.5q-41 0 -64 29.5t-31.5 75.5t-5 101.5t16 108t32 95t42.5 62.5q12 10 23.5 11.5t21 -0.5t16 -5t8.5 -1zM834 1166q26 0 37 -17.5t8 -39t-19 -39t-44 -17.5q-27 0 -37 17.5
t-6.5 39t19.5 39t42 17.5zM982 1166q26 0 37 -17.5t8 -39t-19 -39t-44 -17.5q-27 0 -37 17.5t-6.5 39t19.5 39t42 17.5z" />
    <glyph glyph-name="circumflex" unicode="&#x2c6;" horiz-adv-x="349" 
d="M230 587q8 -18 18.5 -42.5t20 -51t18 -51.5t11.5 -43q0 -2 -7.5 -7.5t-17.5 -9.5t-18.5 -3t-10.5 11q-2 15 -7.5 32.5t-12.5 36.5t-15 37.5t-14 33.5q-11 -15 -25 -33t-27.5 -36.5t-25 -36t-17.5 -31.5q-6 -10 -15 -11t-17 2.5t-13.5 9.5t-3.5 9q8 16 26 42.5t38 55
t40 54t32 39.5q7 5 21 6t22 -13z" />
    <glyph glyph-name="caron" unicode="&#x2c7;" horiz-adv-x="349" 
d="M119 382q-8 18 -18.5 42.5t-20 50.5t-18 51.5t-11.5 43.5q0 2 7.5 7.5t17 9.5t18.5 3t11 -11q2 -15 7.5 -33t12.5 -36.5t15 -37t14 -33.5q11 15 24.5 33t27 36.5t25.5 36t18 31.5q6 10 15 11t17 -2.5t13.5 -9.5t3.5 -9q-8 -16 -26 -42.5t-38 -55t-40 -54.5t-32 -39
q-7 -5 -21 -6t-22 13z" />
    <glyph glyph-name="breve" unicode="&#x2d8;" horiz-adv-x="365" 
d="M258 567q-7 6 -3 14t13 13t19 6.5t16 -4.5q7 -9 10 -25.5t1.5 -35.5t-5.5 -36t-10 -27q-10 -17 -31 -29.5t-46.5 -20t-53.5 -9t-52 3t-41 16.5t-22 33q-3 11 -2.5 26.5t3.5 31.5t7.5 30.5t9.5 25.5q5 10 15.5 12.5t20 -0.5t15 -9.5t1.5 -15.5q-8 -14 -13 -31t0 -32
q3 -18 22.5 -24.5t44 -4t47.5 12t32 22.5q3 4 4.5 12t1.5 16.5t-1 16.5t-3 12z" />
    <glyph glyph-name="dotaccent" unicode="&#x2d9;" horiz-adv-x="209" 
d="M114 552q27 0 37 -17t6 -37.5t-20.5 -37.5t-40.5 -17q-29 0 -39 17t-5.5 37.5t21 37.5t41.5 17z" />
    <glyph glyph-name="ring" unicode="&#x2da;" horiz-adv-x="304" 
d="M171 611q34 0 53.5 -15.5t26 -38t1 -49.5t-21 -49.5t-39.5 -38t-54 -15.5q-36 0 -56 15.5t-27 38t-1 49.5t21.5 49.5t40.5 38t56 15.5zM158 547q-18 0 -30 -12.5t-15.5 -27t4 -27t28.5 -12.5q18 0 29.5 12.5t14.5 27t-4 27t-27 12.5z" />
    <glyph glyph-name="ogonek" unicode="&#x2db;" horiz-adv-x="301" 
d="M186 216q12 0 16 -8.5t3 -19t-7.5 -19.5t-15.5 -9h-54q-4 -21 -6 -42.5t-6 -41.5h61t60 1q9 0 12 -9t1 -19.5t-7.5 -19.5t-14.5 -9q-39 -2 -79 -1t-80 1q-10 0 -14 11t-4 28t2.5 37.5t6 40t6.5 35.5t4 23q1 10 16.5 15t35 6t38 0.5t26.5 -0.5z" />
    <glyph glyph-name="tilde" unicode="&#x2dc;" horiz-adv-x="474" 
d="M76 427q-7 -15 -13.5 -13t-10 14t-2.5 29.5t9 32.5q17 33 38.5 46.5t45.5 14.5t49 -7t50.5 -18.5t49.5 -20t45 -11.5t38 7t28 35q4 8 9 3t8.5 -18t3 -30.5t-8 -33.5t-23 -29t-43.5 -16q-24 -3 -50 4.5t-52 18t-51 21t-47.5 13t-41 -6t-31.5 -35.5z" />
    <glyph glyph-name="hungarumlaut" unicode="&#x2dd;" horiz-adv-x="371" 
d="M102 583q1 2 15.5 0.5t30.5 -6t27.5 -12.5t6.5 -19q-5 -13 -16 -31.5t-22.5 -36t-21.5 -31.5t-13 -17q-5 -6 -15.5 -7.5t-21 1t-17.5 8.5t-4 15q11 35 24 69t27 67zM239 583q1 2 15.5 0.5t30.5 -6t27.5 -12.5t6.5 -19q-5 -13 -16 -31.5t-22.5 -36t-21.5 -31.5t-13 -17
q-5 -6 -15.5 -7.5t-21 1t-17.5 8.5t-4 15q11 35 24 69t27 67z" />
    <glyph glyph-name="endash" unicode="&#x2013;" horiz-adv-x="430" 
d="M344 212q-64 0 -129.5 6.5t-144.5 18.5q-11 0 -16 9.5t-3.5 21t9 21t19.5 9.5q68 4 138.5 3.5t139.5 -3.5q13 0 18.5 -13.5t3.5 -29.5t-11 -29.5t-24 -13.5z" />
    <glyph glyph-name="emdash" unicode="&#x2014;" horiz-adv-x="460" 
d="M374 212q-64 0 -144.5 6.5t-159.5 18.5q-11 0 -16 9.5t-3.5 21t9 21t19.5 9.5q34 2 73.5 2.5t80 0.5t80 -1t74.5 -2q13 0 18.5 -13.5t3.5 -29.5t-11 -29.5t-24 -13.5z" />
    <glyph glyph-name="quoteleft" unicode="&#x2018;" horiz-adv-x="224" 
d="M147 493q18 -12 20 -32.5t-7.5 -41t-28.5 -35t-42 -14.5q-20 2 -29 16.5t-9 34t9.5 39.5t28.5 33q9 7 17 12.5t17 15.5q4 5 7 11t6.5 11.5t8.5 8.5t14 1q11 0 13 -8t-1.5 -18t-10.5 -20t-13 -14z" />
    <glyph glyph-name="quoteright" unicode="&#x2019;" horiz-adv-x="224" 
d="M77 434q-18 12 -20 32.5t7.5 41t28.5 35t42 14.5q19 -2 28.5 -16.5t9.5 -34t-9.5 -39.5t-28.5 -33q-9 -7 -17 -12.5t-17 -15.5q-5 -5 -7.5 -11.5t-6 -11.5t-8.5 -8t-14 -1q-11 0 -13 8t1.5 18t10.5 19.5t13 14.5z" />
    <glyph glyph-name="quotesinglbase" unicode="&#x201a;" horiz-adv-x="222" 
d="M77 77q-18 12 -20 32.5t7.5 41t28.5 35t42 14.5q19 -2 28 -15.5t8.5 -32.5t-10 -39.5t-26.5 -35.5q-10 -5 -18 -11t-16 -17q-5 -4 -8 -10.5t-6 -11.5t-8 -8.5t-14 -1.5q-11 0 -13 8t1.5 18t10.5 19.5t13 14.5z" />
    <glyph glyph-name="quotedblleft" unicode="&#x201c;" horiz-adv-x="377" 
d="M147 493q18 -12 20 -32.5t-7.5 -41t-28.5 -35t-42 -14.5q-20 2 -29 16.5t-9 34t9.5 39.5t28.5 33q9 7 17 12.5t17 15.5q4 5 7 11t6.5 11.5t8.5 8.5t14 1q11 0 13 -8t-1.5 -18t-10.5 -20t-13 -14zM300 493q18 -12 20 -32.5t-7.5 -41t-28.5 -35t-42 -14.5q-20 2 -29 16.5
t-9 34t9.5 39.5t28.5 33q9 7 17 12.5t17 15.5q4 5 7 11t6.5 11.5t8.5 8.5t14 1q11 0 13 -8t-1.5 -18t-10.5 -20t-13 -14z" />
    <glyph glyph-name="quotedblright" unicode="&#x201d;" horiz-adv-x="377" 
d="M230 434q-18 12 -20 32.5t7.5 41t28.5 35t42 14.5q19 -2 28.5 -16.5t9.5 -34t-9.5 -39.5t-28.5 -33q-9 -7 -17 -12.5t-17 -15.5q-5 -5 -7.5 -11.5t-6 -11.5t-8.5 -8t-14 -1q-11 0 -13 8t1.5 18t10.5 19.5t13 14.5zM77 434q-18 12 -20 32.5t7.5 41t28.5 35t42 14.5
q19 -2 28.5 -16.5t9.5 -34t-9.5 -39.5t-28.5 -33q-9 -7 -17 -12.5t-17 -15.5q-5 -5 -7.5 -11.5t-6 -11.5t-8.5 -8t-14 -1q-11 0 -13 8t1.5 18t10.5 19.5t13 14.5z" />
    <glyph glyph-name="quotedblbase" unicode="&#x201e;" horiz-adv-x="371" 
d="M77 77q-18 12 -20 32.5t7.5 41t28.5 35t42 14.5q19 -2 28 -15.5t8.5 -32.5t-10 -39.5t-26.5 -35.5q-10 -5 -18 -11t-16 -17q-5 -4 -8 -10.5t-6 -11.5t-8 -8.5t-14 -1.5q-11 0 -13 8t1.5 18t10.5 19.5t13 14.5zM226 77q-18 12 -20 32.5t7.5 41t28.5 35t42 14.5
q19 -2 28 -15.5t8.5 -32.5t-10 -39.5t-26.5 -35.5q-10 -5 -18 -11t-16 -17q-5 -4 -8 -10.5t-6 -11.5t-8 -8.5t-14 -1.5q-11 0 -13 8t1.5 18t10.5 19.5t13 14.5z" />
    <glyph glyph-name="dagger" unicode="&#x2020;" horiz-adv-x="430" 
d="M344 410q-45 0 -91 3q-28 -150 -57.5 -297.5t-56.5 -283.5q-2 -14 -12 -19t-20.5 -4t-18.5 7.5t-6 15.5q22 149 45 295t47 293q-25 3 -50.5 6.5t-53.5 8.5q-11 0 -16 9.5t-3.5 21t9 21t19.5 9.5q52 3 109 3q8 47 16 93t16 93q3 11 16.5 18t28.5 7.5t26.5 -5.5t9.5 -20
q-15 -92 -33 -186l89 -3q13 0 18.5 -13.5t3.5 -29.5t-11 -29.5t-24 -13.5z" />
    <glyph glyph-name="daggerdbl" unicode="&#x2021;" horiz-adv-x="497" 
d="M413 411q-23 0 -44.5 1t-43.5 3l-57 -299h89q13 0 18.5 -14t3.5 -30.5t-10.5 -30.5t-22.5 -14q-24 0 -47.5 1.5t-47.5 3.5l-40 -200q-2 -14 -12 -19t-20.5 -4t-18.5 7.5t-6 15.5l31 206l-114 14q-12 0 -17 10t-3.5 22t8.5 22t19 10q30 1 60 1h59q12 77 24 152.5t25 151.5
q-26 2 -52.5 5.5t-55.5 7.5q-12 0 -17 10t-3.5 21.5t8.5 21.5t19 10q29 1 57 1.5t57 0.5l33 186q3 11 16.5 18t28.5 7.5t26.5 -5.5t9.5 -20q-8 -46 -16 -92.5t-17 -94.5h84q13 0 18.5 -14t3.5 -30t-10.5 -29.5t-22.5 -13.5z" />
    <glyph glyph-name="bullet" unicode="&#x2022;" horiz-adv-x="304" 
d="M171 375q34 0 53.5 -15.5t26 -38t1 -49.5t-21 -49.5t-39.5 -38t-54 -15.5q-36 0 -56 15.5t-27 38t-1 49.5t21.5 49.5t40.5 38t56 15.5z" />
    <glyph glyph-name="ellipsis" unicode="&#x2026;" horiz-adv-x="476" 
d="M113 183q26 0 37 -17.5t8 -39t-19 -39t-44 -17.5q-27 0 -37 17.5t-6.5 39t19.5 39t42 17.5zM247 183q26 0 37 -17.5t8 -39t-19 -39t-44 -17.5q-27 0 -37 17.5t-6.5 39t19.5 39t42 17.5zM380 183q26 0 37 -17.5t8 -39t-19 -39t-44 -17.5q-27 0 -37 17.5t-6.5 39t19.5 39
t42 17.5z" />
    <glyph glyph-name="perthousand" unicode="&#x2030;" horiz-adv-x="750" 
d="M236 655q31 0 48 -16.5t22 -41.5t-0.5 -54t-20 -54t-37 -41.5t-49.5 -16.5q-30 0 -46 16.5t-21 41.5t1 54t20 54t35.5 41.5t47.5 16.5zM474 709q6 11 25.5 13t38 -2.5t31 -15t5.5 -23.5q-49 -99 -105 -211.5t-114 -226.5t-115 -223t-106 -202q-6 -15 -22 -19.5
t-31.5 -0.5t-25 15t-1.5 25q49 101 101 212t106 223.5t107.5 223t105.5 212.5zM227 591q-17 0 -29 -15.5t-16 -33.5t2.5 -33.5t26.5 -15.5q18 0 30.5 15.5t16 33.5t-3 33.5t-27.5 15.5zM407 90q31 0 48 -16.5t22 -41.5t-0.5 -54t-20 -54t-37 -41.5t-49.5 -16.5
q-30 0 -46 16.5t-21 41.5t1 54t20 54t35.5 41.5t47.5 16.5zM398 26q-17 0 -29 -15.5t-16 -33.5t2.5 -33.5t26.5 -15.5q18 0 30.5 15.5t16 33.5t-3 33.5t-27.5 15.5zM627 90q31 0 48 -16.5t22 -41.5t-0.5 -54t-20 -54t-37 -41.5t-49.5 -16.5q-30 0 -46 16.5t-21 41.5t1 54
t20 54t35.5 41.5t47.5 16.5zM618 26q-17 0 -29 -15.5t-16 -33.5t2.5 -33.5t26.5 -15.5q18 0 30.5 15.5t16 33.5t-3 33.5t-27.5 15.5z" />
    <glyph glyph-name="guilsinglleft" unicode="&#x2039;" horiz-adv-x="516" 
d="M359 25q8 -8 2.5 -20t-16 -22.5t-22.5 -15.5t-16 0q-8 7 -30 27t-50.5 46.5t-59.5 56t-57 55.5t-43 44.5t-16 23.5q0 4 2.5 19.5t6.5 32.5t7.5 31.5t5.5 16.5q83 65 174.5 131.5t175.5 127.5q7 4 17.5 0t18 -12.5t7.5 -20.5t-14 -22q-78 -58 -156 -114.5t-158 -113.5
q-3 -11 -6 -21q-2 -8 -4 -15.5t-2 -9.5q60 -57 118 -113.5t115 -111.5z" />
    <glyph glyph-name="guilsinglright" unicode="&#x203a;" horiz-adv-x="516" 
d="M157 519q-8 8 -2.5 20t16 22.5t22.5 15.5t16 0q7 -7 29.5 -27t51 -46.5t59.5 -56t57 -55.5t42.5 -44.5t16.5 -23.5t-2.5 -20t-6.5 -32t-7.5 -31.5t-5.5 -16.5q-83 -65 -174.5 -131.5t-175.5 -127.5q-7 -5 -17.5 -0.5t-18 13t-7.5 20t14 22.5q78 58 156 114.5t158 113.5
q3 11 6 21q2 8 3.5 15.5t2.5 9.5q-60 57 -118 113.5t-115 111.5z" />
    <glyph glyph-name="fraction" unicode="&#x2044;" horiz-adv-x="607" 
d="M475 692q7 12 23 14.5t31 -1.5t23.5 -14.5t1.5 -24.5q-54 -104 -110.5 -211.5t-114 -214.5t-113.5 -210.5t-108 -198.5q-6 -14 -17 -16t-21 2.5t-16 13.5t-1 18q106 215 211 424t211 419z" />
    <glyph glyph-name="Euro" unicode="&#x20ac;" horiz-adv-x="717" 
d="M351 336q-25 0 -49.5 0.5t-50.5 1.5q-9 -27 -15 -56q64 0 127 -3q15 0 20.5 -10t3.5 -22.5t-11.5 -22.5t-24.5 -10q-32 0 -63 1t-63 3q-6 -51 -2 -97t19.5 -81t43.5 -56t70 -23q51 -3 95 22.5t75 62.5t46.5 75t11.5 61q-4 15 -13 18.5t-18.5 2t-17.5 -5t-9 -3.5q-3 0 1 6
t12 13t19.5 12.5t24.5 5.5q35 -3 45 -29.5t0 -64.5t-37.5 -81t-68.5 -79.5t-92.5 -61t-108.5 -23.5q-58 1 -97.5 28t-62.5 72.5t-30 106t0 127.5l-61 6q-12 0 -16.5 7.5t-3 16t9 16t19.5 7.5l60 2q3 16 6 31.5t8 32.5q-20 2 -40.5 4t-42.5 4q-12 0 -16.5 7.5t-3 16.5t9 16.5
t19.5 7.5q23 1 45.5 1h45.5q25 76 64 146.5t89 123t109 82t125 24.5q38 -3 63 -25t36.5 -53t9.5 -67t-17.5 -66t-45 -50.5t-72.5 -20.5q-17 0 -37 6t-34.5 17.5t-20 28t5.5 37.5q8 -19 29 -32t45 -13q35 0 53.5 23.5t21.5 51.5t-9.5 51.5t-40.5 23.5q-41 0 -80.5 -23.5
t-74.5 -63.5t-65 -92t-52 -110h91q15 0 20.5 -10t3.5 -22.5t-11.5 -22.5t-24.5 -10z" />
    <glyph glyph-name="trademark" unicode="&#x2122;" horiz-adv-x="475" 
d="M59 589q-2 -13 12 -12.5t33.5 6t40.5 11t33 1.5q7 -2 9 -9t1.5 -14.5t-2.5 -13.5l-2 -6q-10 10 -23.5 12t-28.5 0t-29.5 -5.5t-26.5 -3.5t-17.5 5.5t-6.5 11.5t1.5 11.5t5.5 5.5zM134 554q-7 2 -13 3q-5 1 -9.5 1t-5.5 -2q-1 -9 -1 -32t-2 -47.5t-6.5 -44t-13.5 -20.5
q-8 -1 -14 10.5t-6.5 25.5t4.5 27t20 15q7 1 12 -2q0 10 -13 10q-20 -2 -28 -18.5t-7 -35.5t10 -34t25 -14q16 0 25 21t13.5 48t6.5 52.5t3 36.5zM355 470q1 9 5 22.5t7 27t4 23t-3 9.5q-9 0 -16.5 -19t-15.5 -42q-5 -14 -7 -27t3 -21q1 -2 -3 -3t-9 -1.5t-9.5 1t-5.5 6.5
q-2 11 2.5 29t9 35t6.5 29.5t-5 12.5t-14 -11.5t-13 -28t-10 -34t-6 -29.5q-1 -7 -1.5 -20.5t4.5 -18.5q-8 -1 -14 1q-5 2 -10.5 4.5t-6.5 9.5q-1 10 3 35t7.5 50t3 44.5t-11.5 19.5t-21 -9t-15 -21t-3 -23t15 -14q1 0 -2.5 -1.5t-8.5 -2t-10 0.5t-8 5q-5 7 -4 21t8 28
t19.5 25t30.5 11q10 0 15.5 -8t8 -20t2 -26.5t-1.5 -28.5q9 21 20.5 41.5t29.5 20.5q11 0 14.5 -11t1.5 -22q7 11 18 22t25 11q13 0 15 -12t-0.5 -28.5t-7.5 -34t-7 -28.5q-1 -5 -3 -16t-3 -22.5t1 -20.5t9 -9q10 0 15 7t5.5 15t-3 14.5t-11.5 6.5q-9 0 -1.5 4t17.5 4
t14 -10t0.5 -21.5t-14 -21t-28.5 -9.5q-12 0 -18 9t-8.5 22t-2 26t2.5 22z" />
    <glyph glyph-name="minus" unicode="&#x2212;" horiz-adv-x="430" 
d="M344 212q-64 0 -129.5 6.5t-144.5 18.5q-11 0 -16 9.5t-3.5 21t9 21t19.5 9.5q68 4 138.5 3.5t139.5 -3.5q13 0 18.5 -13.5t3.5 -29.5t-11 -29.5t-24 -13.5z" />
    <glyph glyph-name="a.001" unicode="&#xe000;" horiz-adv-x="574" 
d="M317 530q3 11 19.5 12t34 -6.5t30 -23.5t6.5 -39q-9 -33 -19.5 -76.5t-18 -90.5t-10 -92.5t4 -82t25 -59.5t52.5 -24q48 -2 96.5 17t91 51t77 74.5t55.5 88t25.5 91t-12.5 83.5q-4 13 9 21t32 7.5t39 -12.5t31 -37.5t7.5 -67.5t-31.5 -104q-26 -59 -72.5 -108.5
t-104.5 -85t-123 -54.5t-126 -17q-43 2 -74.5 15.5t-52.5 35t-33 51t-15 63.5q-18 -30 -37.5 -58t-41 -50t-45 -35t-48.5 -12q-51 0 -78.5 35.5t-34 89.5t7 116t44.5 116t78 89.5t107 35.5q54 0 82 -32q5 22 11.5 40t11.5 35zM255 237q2 38 8.5 79t15.5 79q-8 17 -21.5 29
t-33.5 12q-32 0 -58 -28t-45 -70.5t-29.5 -92t-12 -92t7 -71t27.5 -28.5q12 0 29.5 16.5t37 42.5t39 59t35.5 65z" />
    <glyph glyph-name="b.001" unicode="&#xe001;" horiz-adv-x="448" 
d="M74 150q7 -20 23.5 -37t39.5 -17q36 0 64 26t47 65.5t29.5 85.5t11 86t-9 67t-29.5 28q-12 0 -30 -12t-37.5 -31t-39 -43.5t-36.5 -49.5q-8 -48 -15.5 -89t-17.5 -79zM125 412q26 29 57 53.5t66 32.5q42 10 70.5 -4.5t44 -44.5t19 -71.5t-4.5 -87t-26.5 -89.5t-47 -79.5
t-67 -57t-84.5 -21.5q-59 0 -92 37q-19 -57 -53.5 -93t-90.5 -40q-48 -2 -94 15.5t-88.5 48t-79 71.5t-64.5 87t-45 94t-21 92q-6 68 3.5 107.5t26 58.5t37.5 21t39.5 -3.5t31 -15.5t12.5 -16q-35 -35 -44.5 -85.5t0 -105.5t34.5 -109t59.5 -97t76 -68.5t82.5 -23.5
q21 1 37 12.5t26.5 29t17 39t9.5 42.5q15 90 31.5 184t33 188.5t33 187t31.5 179.5l14 2.5t31 -0.5t32 -15t17 -40q-5 -27 -12.5 -71.5t-16.5 -100t-20 -118t-21 -125.5z" />
    <glyph glyph-name="c.001" unicode="&#xe002;" horiz-adv-x="415" 
d="M360 410q-2 -9 -9 -14t-14.5 -5t-12.5 5t-3 15q5 29 -7.5 48t-40.5 21q-35 2 -69 -29t-61 -78.5t-43.5 -104t-16 -106.5t21 -84.5t68.5 -38.5q34 -2 77.5 10.5t87 37.5t83 61.5t66.5 82.5t37 101t-6 117q-4 17 11 24t36 3t42.5 -21.5t30 -49.5t-2 -80t-53.5 -114
q-33 -51 -81.5 -92.5t-104.5 -70.5t-115 -45t-113 -14q-62 1 -102 26.5t-61 66t-23.5 91t10.5 103t39.5 102t64.5 87.5t85.5 59.5t102.5 18.5q50 -4 70 -41t6 -92z" />
    <glyph glyph-name="d.001" unicode="&#xe003;" horiz-adv-x="449" 
d="M290 400q-7 18 -23 35t-40 17q-35 0 -62.5 -26t-46.5 -65.5t-29 -85.5t-10.5 -85.5t8.5 -66t29 -26.5q14 -2 34 11t41 35t41.5 49t36.5 54q5 38 10 76.5t11 77.5zM259 155q-15 -18 -31.5 -35t-34 -31.5t-36 -24.5t-38.5 -14q-57 -13 -89.5 15.5t-42.5 79t1 113
t40.5 117.5t76.5 92t109 37q27 0 48.5 -8t38.5 -22q8 56 16 109.5t15.5 99.5t13 83.5t8.5 62.5q10 28 29 40t37 15t31.5 0.5l13.5 -2.5q-13 -87 -27.5 -185t-29.5 -199t-29.5 -200.5t-28.5 -189.5q-3 -21 -3.5 -43.5t4.5 -42.5t17 -36t33 -24q38 -15 84.5 -4t92.5 40
t87 72.5t67 92.5t33 99.5t-15 94.5q1 6 15.5 11.5t33.5 5.5t38 -9t29 -32t6.5 -62.5t-29.5 -101.5q-18 -42 -49.5 -82t-72 -75t-88 -62t-97.5 -42t-99 -16t-93 16q-57 22 -78 73t-16 122q2 13 4 25.5t5 26.5z" />
    <glyph glyph-name="e.001" unicode="&#xe004;" horiz-adv-x="409" 
d="M175 -14q-60 0 -100 24t-62 63t-26.5 89.5t5 102.5t32.5 102.5t57 90t77.5 64t94.5 25.5q47 1 70.5 -18t25.5 -47.5t-14.5 -61t-49 -59t-78.5 -41t-102 -7.5q-7 -22 -12 -50.5t-7 -58.5t1 -59t14 -52t31 -38t52 -16q35 -2 76.5 13.5t81.5 43t76 66.5t60.5 85t33.5 97.5
t-5 104.5q-4 18 12 25.5t37.5 2.5t43 -23.5t29.5 -51.5t-4.5 -82t-57.5 -115q-33 -48 -79.5 -88t-99.5 -69t-108 -45.5t-105 -16.5zM116 350q37 -6 68.5 1.5t55.5 22t39.5 33t20 35.5t-3 28.5t-28.5 12.5q-26 0 -48.5 -11t-42 -29.5t-35 -42.5t-26.5 -50z" />
    <glyph glyph-name="f.001" unicode="&#xe005;" horiz-adv-x="367" 
d="M108 165q57 -12 93.5 -47t55 -83.5t21.5 -106t-6.5 -116t-30 -113t-48 -97t-61.5 -68.5t-70 -26q-39 -1 -63.5 31.5t-36.5 88.5t-13.5 133t4.5 165t18.5 183.5t27.5 190t32 184t32 165.5t27.5 134t18.5 90l16.5 2.5t37 -0.5t37.5 -15t18 -40q-26 -161 -55.5 -308.5
t-53.5 -298.5q42 -6 89.5 10.5t92.5 47t83.5 73t63 90t31 96t-13.5 91.5q-3 13 10 21.5t32.5 8t39.5 -12t31.5 -37t8.5 -67.5t-30 -104q-26 -60 -74 -111.5t-108 -87.5t-126.5 -54t-130.5 -12zM93 126q-16 -107 -26 -204.5t-11.5 -172t8 -119t33.5 -44.5q26 0 50.5 36.5
t41.5 93t23.5 123t-2.5 126.5t-37 104.5t-80 56.5z" />
    <glyph glyph-name="g.001" unicode="&#xe006;" horiz-adv-x="454" 
d="M314 -101q-12 -60 -32 -123t-53.5 -114t-83 -83.5t-121.5 -32.5q-57 0 -88.5 31t-41 75.5t1.5 94.5t39 88q33 44 73 64t79 27.5t72.5 7.5t54.5 5q11 54 19.5 106t17.5 105q-28 -34 -61 -62t-70 -36q-57 -13 -89 15.5t-42 79t0.5 113t40 117.5t76 92t108.5 37
q32 0 55 -9.5t40 -24.5l10 71l15 3t33 0t33 -14.5t16 -39.5q-23 -131 -42.5 -258.5t-42.5 -258.5q55 24 104.5 60t84 78.5t49.5 90.5t2 98q-5 20 11 26.5t38.5 -1.5t45 -29t30.5 -54.5t-5 -79t-62 -102.5q-26 -30 -61 -55.5t-75.5 -46.5t-86 -36.5t-92.5 -24.5zM268 247
l25 144q-2 23 -16.5 43t-46.5 20q-36 0 -63.5 -26t-46.5 -65.5t-29.5 -85.5t-11 -85.5t9 -66t28.5 -26.5q13 -2 32.5 11t40.5 35t42 49t36 53zM30 -406q27 0 49.5 14.5t40 38t31.5 53.5t24 62t16.5 62.5t11.5 55.5q-79 -6 -128 -20t-81 -51q-21 -24 -32 -61.5t-8.5 -72.5
t21 -59t55.5 -22z" />
    <glyph glyph-name="h.001" unicode="&#xe007;" horiz-adv-x="519" 
d="M82 829q10 28 28 40t36 15t31 0.5l13 -2.5q-23 -151 -47.5 -313t-48.5 -319q22 52 49 105t58 95.5t65 68.5t70 25t49 -22t11.5 -55.5t-13.5 -78.5t-26 -90.5t-26 -91t-13.5 -80t12 -58t50.5 -24.5q31 -3 71.5 10t82 39t79.5 63t64.5 83t36.5 99.5t-4 111.5
q-4 16 10.5 23.5t34.5 3.5t40.5 -19.5t29.5 -46.5t0.5 -77.5t-46.5 -111.5q-30 -51 -77 -94t-102 -74t-112 -48.5t-108 -18.5q-62 -1 -96.5 19t-49 53.5t-13 77t11 89t24.5 89.5t26.5 78.5t16.5 55.5t-5 21q-13 0 -33 -23.5t-43 -61.5t-46.5 -84.5t-44.5 -91.5t-38 -83.5
t-26 -59.5q-10 -35 -28.5 -48.5t-36.5 -16t-31.5 2t-13.5 5.5q15 98 31 201.5t32 208.5t32 208.5t33 201.5z" />
    <glyph glyph-name="i.001" unicode="&#xe008;" horiz-adv-x="304" 
d="M171 731q15 -4 21 -16t5 -27.5t-8 -33t-17.5 -31t-23.5 -21t-26 -4.5q-22 6 -25.5 30.5t5.5 49.5t27.5 42.5t41.5 10.5zM47 530q3 8 19 7.5t33 -10t28 -29t3 -49.5q-9 -34 -18.5 -75.5t-16.5 -85t-9 -85t4.5 -74.5t23.5 -53.5t48 -21.5q50 -2 99 12.5t92.5 42t78.5 65.5
t57.5 82.5t29.5 95t-6 101.5q-4 18 11.5 25.5t37.5 2t43 -24.5t28 -54t-7.5 -86.5t-62.5 -120.5q-29 -42 -70 -77.5t-88 -62t-98.5 -42.5t-102.5 -18q-67 -2 -109.5 22.5t-65.5 66.5t-29 97t-1 115t18.5 120.5t29.5 113.5z" />
    <glyph glyph-name="j.001" unicode="&#xe009;" horiz-adv-x="176" 
d="M114 732q25 2 34.5 -18t6.5 -45.5t-17.5 -47.5t-37.5 -24q-24 -1 -34 19t-7.5 45.5t16.5 47t39 23.5zM35 -101q-12 -60 -32 -123t-53.5 -114t-83.5 -83.5t-123 -32.5q-36 0 -61.5 14.5t-41.5 38t-22 53.5t-3.5 62t13.5 63.5t30 57.5q32 44 71.5 64t78 27.5t72 7.5t53.5 5
q29 152 55.5 302.5t52.5 301.5l14.5 3t32.5 0t33.5 -14.5t16.5 -39.5q-24 -131 -45.5 -258.5t-44.5 -258.5q57 24 107 60t85 78.5t50.5 90.5t3.5 98q-6 20 9.5 26.5t37.5 -1t44 -28.5t29.5 -54.5t-6 -79.5t-62.5 -103q-25 -29 -59 -54.5t-74.5 -46.5t-85.5 -37t-92 -25z
M-249 -406q27 0 49.5 14.5t40 38t31 53.5t24 62t18 62.5t12.5 55.5q-42 -3 -74.5 -7.5t-58.5 -12t-46 -20t-36 -31.5q-20 -23 -29.5 -59.5t-6.5 -71t21 -59.5t55 -25z" />
    <glyph glyph-name="k.001" unicode="&#xe00a;" horiz-adv-x="457" 
d="M79 829q10 28 28.5 40t36.5 15t31 0.5l13 -2.5q-20 -119 -38.5 -245.5t-36.5 -254.5q18 28 40.5 57t47.5 52t52 38t54 15q42 1 63 -23t22.5 -60.5t-14 -78.5t-47 -77.5t-76.5 -58t-102 -19.5q16 -26 26.5 -57t25.5 -58t39 -46t69 -21q49 -3 96 12.5t88 44.5t74.5 69
t54 86t27 95.5t-5.5 97.5q-5 18 11 25.5t38 2t43.5 -25t29 -54.5t-6.5 -86t-62 -120q-30 -42 -70.5 -77.5t-88 -62t-99 -42t-102.5 -18.5q-71 -3 -111.5 7.5t-61.5 30t-28 45t-11.5 53t-11 54.5t-27.5 50q-7 -39 -12 -77.5t-13 -75.5q-6 -42 -24.5 -58.5t-38 -19.5t-35 2
t-15.5 6q17 98 33.5 201.5t32.5 208.5t31.5 208.5t30.5 201.5zM95 279q44 -15 80 -5t63 34.5t44 57t24 62t3.5 50t-18.5 20.5q-24 1 -53 -23.5t-56.5 -57.5t-50.5 -67t-35 -53z" />
    <glyph glyph-name="l.001" unicode="&#xe00b;" horiz-adv-x="297" 
d="M217 870q-8 -40 -24.5 -101.5t-34 -134.5t-33.5 -151t-23.5 -150t-3 -133.5t27.5 -101.5t68 -52t119 14q57 20 105.5 61.5t81 94.5t45.5 114t-2 120q-5 18 10 25.5t36.5 2t43 -25t28.5 -54.5t-7 -86t-62 -120q-30 -44 -71.5 -80t-90 -62t-102 -41.5t-106.5 -16.5
q-70 0 -114.5 26t-69.5 70.5t-33.5 105t-5.5 128t15 139.5t27 140.5t31 130t27 108.5q2 17 19 29t37.5 17.5t38.5 2t23 -18.5z" />
    <glyph glyph-name="m.001" unicode="&#xe00c;" horiz-adv-x="694" 
d="M482 434q-14 0 -31 -24.5t-35 -62t-35 -83t-32 -88t-26 -77t-16 -49.5q1 -16 -14.5 -20.5t-35 -3t-36 6.5t-16.5 7q-5 13 1.5 50t17.5 85t24.5 100t23.5 95.5t14 72t-5 28.5q-11 0 -28.5 -29t-38.5 -74t-42.5 -99t-40.5 -104t-33 -89t-20 -54q-4 -13 -21.5 -18.5
t-37 -3.5t-36 11.5t-17.5 26.5q-2 25 2 64t11 85t16.5 95.5t19.5 95.5t19 85t14 64q1 6 10 9.5t20.5 2.5t24 -6.5t22 -18.5t13 -33.5t-1.5 -50.5q-9 -57 -24 -125t-25 -130q18 60 42.5 126t54.5 121.5t65.5 91t76.5 34.5q22 0 33 -18t13 -48t-2.5 -68.5t-12.5 -80.5
q16 35 33.5 67t38 56t44.5 38.5t51 14.5q35 -1 49.5 -21t15.5 -52.5t-7.5 -73.5t-19 -83.5t-19 -83.5t-7 -74t16.5 -54t52 -23q31 -3 72 10t82.5 39t79.5 63t64 83t36 99.5t-4 111.5q-4 16 10 23.5t34.5 3.5t41.5 -19.5t30 -46.5t1 -77.5t-46 -111.5q-31 -51 -78.5 -94
t-102 -74t-112 -48.5t-108.5 -18.5q-62 -1 -98 17.5t-53 49.5t-19 71t4.5 82.5t17.5 83t20 72.5t12 51.5t-7 19.5z" />
    <glyph glyph-name="n.001" unicode="&#xe00d;" horiz-adv-x="508" 
d="M297 434q-15 0 -36 -26.5t-44 -67.5t-46.5 -91t-43.5 -95.5t-35 -81.5t-21 -50q-3 -12 -19 -17.5t-34.5 -3.5t-34 11t-17.5 27q-2 26 2 65t11.5 85t16.5 95t18.5 95t18 84.5t13.5 63.5q0 4 8.5 7t20 3.5t25 -4t23 -16.5t14 -33t-1.5 -53q-13 -57 -28 -126t-26 -131
q22 53 49.5 112.5t59.5 109t68.5 82t75.5 31.5q36 -1 49.5 -21t12.5 -52.5t-12.5 -73.5t-25 -83.5t-25 -83.5t-12.5 -74t12.5 -54t49.5 -23q31 -3 72 10t82.5 39t80 63t64.5 83t36 99.5t-4 111.5q-3 16 11.5 23.5t35.5 3.5t42 -19.5t30 -46.5t-0.5 -77.5t-48.5 -111.5
q-30 -51 -77 -94t-101.5 -74t-111.5 -48.5t-108 -18.5q-62 -1 -97 17.5t-50.5 49.5t-14.5 71t10.5 82.5t24 83t26 72.5t16.5 51.5t-4 19.5z" />
    <glyph glyph-name="o.001" unicode="&#xe00e;" horiz-adv-x="461" 
d="M374 384q-3 -10 -10.5 -15t-15 -5t-13 5t-3.5 15q3 18 1 35t-9 30.5t-19 22t-30 8.5q-45 2 -79 -26.5t-55.5 -73.5t-30.5 -98t-5 -98.5t22 -76t50 -30.5q33 0 59 19t43 45q-29 8 -43.5 27t-18 42.5t4 49.5t22.5 47t36.5 34.5t46.5 13.5q33 -1 43 -25.5t5.5 -57t-17.5 -63
t-26 -43.5q53 -15 106 -6t100.5 35.5t86.5 67t65 89t35 102t-3 106.5q-5 18 10.5 25.5t37 2t42 -25t27.5 -54.5t-6.5 -86.5t-61.5 -120.5q-36 -52 -89.5 -91.5t-115 -63t-126.5 -28.5t-125 11q-14 -22 -35.5 -44t-46.5 -40t-52 -29.5t-53 -11.5q-47 1 -78 25t-47 62
t-18.5 86.5t8 99t33 98.5t55.5 85.5t76 60t94 21.5q28 0 52.5 -12t42 -33t25.5 -50t3 -63zM299 178q7 8 16 30.5t15 46t5.5 41.5t-12.5 18t-23 -18t-16.5 -41.5t-2.5 -46t18 -30.5z" />
    <glyph glyph-name="p.001" unicode="&#xe00f;" horiz-adv-x="467" 
d="M95 133q12 -16 28 -24.5t30 -8.5q36 0 63.5 26t47 65.5t29.5 85.5t11 86t-8 67t-28 28q-17 0 -40 -17.5t-46 -44.5t-44.5 -59.5t-36.5 -62.5q-2 -34 -3 -69t-3 -72zM103 361q16 22 34 44.5t38.5 42t42.5 34t45 20.5q43 10 72 -4.5t45 -44.5t19.5 -71.5t-4 -87
t-26.5 -89.5t-47.5 -79.5t-66.5 -57t-84 -21.5q-23 0 -43 5t-37 17q-5 -90 -14.5 -183t-26.5 -179t-41.5 -159.5t-60.5 -123t-84.5 -70t-111.5 -0.5q-58 18 -112 58t-97 93t-71 116.5t-33 128.5q-5 68 6.5 108.5t30.5 61.5t42 25t41.5 -1.5t28 -17.5t2.5 -23
q-29 -31 -40.5 -75.5t-7.5 -94.5t22 -102t47.5 -97.5t68.5 -80t86 -49.5q40 -12 71.5 22t55.5 99t41 152.5t29 182.5t19.5 189t12 171.5t7 130t3.5 65.5q3 32 12 49.5t20.5 24t24 4.5t23 -6.5t17.5 -10t7 -7.5q-2 -18 -3.5 -46t-2.5 -63z" />
    <glyph glyph-name="q.001" unicode="&#xe010;" horiz-adv-x="455" 
d="M329 536q0 1 8.5 4.5t20.5 4.5t25 -1t23 -12t14.5 -29t-1.5 -51q-2 -10 -10.5 -45t-20.5 -88.5t-26 -120.5t-27.5 -141t-25 -150.5t-18 -148.5t-6.5 -135t9 -109.5t29 -73.5t54 -26q48 3 94 25.5t86 58.5t71.5 80.5t49 91.5t18.5 92.5t-19 82.5q-4 14 9 23.5t32 10
t40.5 -9.5t34.5 -35.5t12.5 -67.5t-23.5 -105q-23 -61 -67 -114.5t-99.5 -93t-118 -63.5t-123.5 -26q-64 -2 -104 29.5t-61.5 87.5t-26.5 132t1 162t20.5 177.5t32.5 178.5q-24 -29 -53.5 -51t-60.5 -30q-43 -10 -72 4.5t-45 44.5t-19.5 71.5t4 86.5t26.5 89.5t47.5 79.5
t67 56.5t85.5 21.5q31 0 56 -9.5t45 -24.5q4 18 7.5 35t4.5 31zM260 233q12 49 21.5 93t20.5 82q-12 19 -32 31.5t-42 12.5q-35 0 -62.5 -26t-46.5 -65.5t-29 -85.5t-10.5 -85.5t9 -66t29.5 -26.5q13 -2 30.5 9.5t37 31t39 44.5t35.5 51z" />
    <glyph glyph-name="r.001" unicode="&#xe011;" horiz-adv-x="524" 
d="M263 528q7 7 23.5 7t34 -4t31 -10.5t13.5 -11.5q-7 -25 -18 -68.5t-21 -94.5t-16 -104t-1.5 -96t23 -71t56.5 -30q49 -3 98 15.5t92 51t77 75t55 88t25 90.5t-13 82q-3 13 10 21.5t32 8t39.5 -12t31.5 -37.5t8.5 -68.5t-29.5 -105.5q-27 -58 -74 -107t-105.5 -84
t-123.5 -53.5t-128 -15.5q-59 2 -95.5 24t-56.5 58t-25.5 82t-1.5 96t15 101.5t24 96.5q-32 -17 -65 -20.5t-61 4.5q-21 -41 -44 -84t-42 -72q-3 -5 -9.5 -5t-12.5 3t-9.5 8.5t0.5 12.5q6 12 15 33t18 45.5t17.5 49t13.5 43.5q-20 21 -17 41.5t17.5 35t35.5 21t36 0.5
t18.5 -27t-15.5 -61q29 -5 62 4t62 45z" />
    <glyph glyph-name="s.001" unicode="&#xe012;" horiz-adv-x="316" 
d="M270 502q-23 3 -48 -8.5t-34 -39.5q-9 -30 -2.5 -73.5t17.5 -93.5q57 18 106.5 55.5t83 87.5t47 108.5t-1.5 119.5q-4 18 11.5 25t37.5 1t43.5 -25.5t29 -54.5t-6.5 -87t-63 -122q-48 -66 -120 -106.5t-154 -53.5q9 -36 15.5 -70.5t7 -65.5t-7.5 -56.5t-28 -44.5
q-30 -28 -62.5 -34.5t-62.5 2t-56.5 30.5t-45.5 50.5t-28.5 62t-5 65.5t24 60t58.5 47q-11 -1 -20 6t-5 18q12 18 25.5 57.5t25.5 78.5q9 33 31 55.5t47 35.5t47.5 18t32.5 5q24 0 41.5 -9.5t26.5 -20t7.5 -18.5t-14.5 -5zM32 286q9 -5 27 -6.5t28 -1.5q-5 20 -9 41.5
t-8 39.5l-19 -38t-19 -35zM32 241q-34 -19 -41 -46t2.5 -55t31 -53t44.5 -39.5t42 -15t24 20.5q6 26 -6.5 72.5t-28.5 101.5q-18 2 -34.5 5.5t-33.5 8.5z" />
    <glyph glyph-name="t.001" unicode="&#xe013;" horiz-adv-x="295" 
d="M83 786q0 2 18.5 8t40 9t38 0t12.5 -18q-3 -18 -4.5 -26t-3 -16.5t-4.5 -22.5t-10 -44q30 5 59.5 10t58.5 5q51 -1 69 -15.5t18.5 -31.5t-9 -31.5t-15.5 -15.5q3 28 -12 39t-42 11t-64 -8.5t-77 -18.5q-18 -71 -33.5 -147.5t-22.5 -147t-1.5 -130.5t29.5 -98.5t69 -49.5
t118 15q56 20 104 61.5t80.5 94.5t45.5 114t-2 120q-5 18 11 25.5t38 2t43.5 -25t28.5 -54.5t-6.5 -86t-62.5 -120q-31 -44 -73 -80t-91 -62t-102.5 -41.5t-106.5 -16.5q-69 -1 -113.5 24.5t-69.5 69t-33.5 102t-6 124.5t14 136.5t26.5 138.5q-35 -5 -64.5 -7.5t-51.5 2.5
q-24 9 -30.5 30t-4.5 42t8.5 36.5t7.5 13.5q11 -25 30 -37t40.5 -15.5t42 -2t35.5 2.5q9 33 12.5 50.5t6 28.5t4.5 22t7 31z" />
    <glyph glyph-name="u.001" unicode="&#xe014;" horiz-adv-x="623" 
d="M364 535q2 8 19 12t36 2.5t34 -9.5t14 -24q-7 -25 -18.5 -68.5t-21.5 -94.5t-16 -104t-1 -96t24 -71t58 -30q48 -3 95.5 15.5t89 50t74.5 73.5t53.5 87.5t26.5 91t-8 84.5q-5 13 7.5 21.5t32 7.5t40.5 -12.5t32.5 -37.5t8.5 -68.5t-31 -104.5q-26 -58 -72.5 -107
t-104.5 -84t-122.5 -53.5t-125.5 -15.5q-57 1 -94 21.5t-57.5 54.5t-27.5 78t-5 92q-21 -48 -45.5 -92t-52 -77.5t-57 -53t-59.5 -19.5q-40 0 -62 27t-31 70t-7 97t9.5 108.5t19 104.5t20.5 85q5 22 26 35.5t43.5 18t38.5 -1.5t12 -24q-5 -18 -14 -58t-17.5 -90t-15.5 -103
t-9.5 -97t2.5 -73.5t20 -30.5q15 -3 33.5 15t38.5 49t41 71.5t40 84t36 85.5t30 76q5 23 10 42.5t10 39.5z" />
    <glyph glyph-name="v.001" unicode="&#xe015;" horiz-adv-x="423" 
d="M284 234q54 -13 107 -3.5t101 35.5t87 66t65 88t35 101.5t-3 106.5q-5 19 10 26t36.5 1.5t43 -25t28.5 -54.5t-7 -86.5t-62 -120.5q-37 -53 -89.5 -92t-113.5 -62t-126.5 -28.5t-126.5 8.5q-14 -41 -29.5 -79t-32 -67t-33.5 -46.5t-35 -17.5q-36 0 -61 23t-41.5 60.5
t-25 86t-11.5 99t-1 99.5t7 87q4 30 18.5 47t33.5 22t38 -0.5t31 -19.5q-5 -17 -9.5 -56t-8 -88.5t-4.5 -103t2.5 -98.5t13 -75t26.5 -33q8 0 17 15.5t19.5 42t21 61.5t21.5 74q-19 34 -12.5 73.5t27 77.5t47.5 71.5t50 54.5q7 7 18.5 7t21.5 -5t14 -13.5t-4 -16.5
q-13 -11 -25.5 -35.5t-25 -57.5t-26 -71.5t-27.5 -78.5z" />
    <glyph glyph-name="w.001" unicode="&#xe016;" horiz-adv-x="633" 
d="M479 261q19 -25 61.5 -26t92.5 18t101.5 55.5t89.5 87.5t56.5 113.5t1.5 133.5q-6 19 9 26t36.5 1.5t42.5 -25t28.5 -54.5t-6.5 -86.5t-62 -120.5q-21 -30 -55 -59.5t-75 -54.5t-87 -43.5t-91 -27t-86.5 -5t-73.5 23.5q-17 -42 -35 -81.5t-35.5 -69.5t-35.5 -48.5
t-35 -18.5q-46 0 -68.5 33t-30.5 87q-26 -54 -53.5 -87t-51.5 -33q-37 0 -60.5 23.5t-37.5 62t-18.5 88t-3 100.5t8 100t15.5 87q6 28 20 42.5t31.5 19t37 -1t36.5 -17.5q-6 -17 -14.5 -56t-16 -88.5t-12.5 -103t-5 -98.5t7.5 -75t24.5 -33q7 0 17.5 14t22.5 38t24.5 55
t24.5 66q2 24 4.5 48.5t5.5 48.5q1 12 13.5 17t28.5 4t32 -6.5t24 -14.5q-8 -46 -13.5 -93t-6 -86t5 -64t20.5 -27q7 0 17 17.5t22 47.5t26 68.5t29 79.5q-8 33 1 70t27.5 72t43 65t47.5 50q8 7 19.5 7t20.5 -5t12 -13.5t-6 -16.5q-13 -11 -27 -33.5t-28.5 -53.5t-29 -68
t-28.5 -76z" />
    <glyph glyph-name="x.001" unicode="&#xe017;" horiz-adv-x="491" 
d="M45 3q-13 -9 -24 -6t-18 11t-8.5 18t5.5 15q32 21 70 66.5t78 103.5q-12 32 -23.5 64t-19.5 64q-23 -21 -44.5 -40t-35.5 -26q-8 -5 -15.5 -3.5t-12 6.5t-5 11.5t7.5 12.5q14 9 41 32.5t54 46.5q-16 73 -9.5 112t23 53t38 6.5t36.5 -27.5t17.5 -48.5t-19.5 -57.5
q5 -29 11.5 -59t14.5 -63q30 40 59.5 79.5t56 72.5t50 57t43.5 35q15 7 23.5 2t11 -15t0 -20.5t-9.5 -14.5q-18 -9 -42 -34t-52 -60t-58.5 -76.5t-59.5 -84.5q13 -38 29.5 -73t36.5 -61.5t43.5 -42.5t49.5 -16q38 0 81.5 18.5t85 49.5t77 72t57.5 86t27 91.5t-14 88.5
q-3 13 10 21.5t32 8t39.5 -12t31.5 -37.5t8 -68.5t-30 -105.5q-22 -47 -68.5 -95t-105 -87t-123.5 -62.5t-124 -21.5q-31 1 -58.5 15t-52.5 37t-47.5 54t-41.5 66q-35 -51 -68.5 -92.5t-58.5 -65.5z" />
    <glyph glyph-name="y.001" unicode="&#xe018;" horiz-adv-x="460" 
d="M313 -103q-13 -60 -33 -123t-53.5 -114t-83.5 -83.5t-122 -32.5q-58 0 -90.5 31t-42 75.5t1.5 94.5t40 88q34 45 74 65t79 27t73 7t55 5q15 81 28.5 158.5t25.5 155.5q-19 -49 -41.5 -94t-47 -79.5t-50.5 -55t-52 -20.5q-39 0 -58 31.5t-24.5 81.5t-0.5 111t15 119
t22 107t19 75q0 12 15.5 15.5t33.5 1.5t33 -8.5t15 -13.5q-5 -18 -13.5 -58t-17 -90t-16 -103t-10.5 -97t0 -73.5t16 -30.5q13 -3 30 16t35.5 51t37.5 74t37 85.5t33.5 86t26.5 75.5q4 20 7.5 41.5t5.5 41.5l15 3t33 0t33.5 -14.5t17.5 -39.5q-23 -131 -44 -258.5
t-44 -258.5q57 24 107 60t84.5 78.5t50 90.5t2.5 98q-5 20 10 26.5t36.5 -1t43 -28t28.5 -54t-6.5 -79.5t-62.5 -104q-24 -29 -58 -54.5t-73.5 -46.5t-84.5 -37t-91 -25zM27 -408q28 0 50.5 14.5t40 38t31.5 53.5t23.5 62t16 62.5t10.5 55.5q-80 -6 -129 -20t-81 -51
q-21 -24 -32 -60.5t-8 -71t21.5 -59t56.5 -24.5z" />
    <glyph glyph-name="z.001" unicode="&#xe019;" horiz-adv-x="542" 
d="M32 284q-5 -8 -12 -9.5t-13 1.5t-8.5 9.5t1.5 14.5q23 44 57 93.5t76 91t92.5 69t106.5 26.5q35 -1 60 -19.5t36 -48t6.5 -67.5t-27.5 -78.5t-66 -81t-110 -74.5q55 -2 94.5 -18.5t65 -42.5t38.5 -61t15 -75q35 25 69 55t58 65.5t34.5 77t-0.5 88.5q-5 20 11 26.5
t38.5 -1.5t45 -29t30.5 -54.5t-5.5 -79t-62.5 -102.5q-49 -56 -107.5 -88t-121.5 -51q-15 -69 -52 -138.5t-87.5 -125.5t-111.5 -91t-124 -35q-59 0 -90.5 33t-40.5 80.5t2 99.5t38 89q25 35 65.5 54.5t89 32t102 22.5t106.5 26q6 44 -2.5 83t-35 66.5t-72 40.5t-113.5 5
q-7 0 -12.5 9t-6.5 20.5t4.5 21.5t20.5 13q61 10 103 34.5t67 55.5t35 64t6 60.5t-20.5 45t-43.5 17.5q-33 0 -66 -24t-63 -58.5t-55.5 -72.5t-43.5 -65zM60 -405q30 0 59 15.5t55 41t49 57.5t41.5 65.5t32 65.5t20.5 57q-48 -9 -92 -15.5t-82 -15.5t-68 -22.5t-50 -36.5
q-21 -24 -31.5 -60t-7.5 -69.5t20.5 -58t53.5 -24.5z" />
    <glyph glyph-name="a.002" unicode="&#xe01a;" horiz-adv-x="571" 
d="M314 526q7 14 24.5 14t34 -10t27.5 -28t5 -40q-11 -41 -20 -88.5t-13 -95.5t-2 -93t12 -80t29.5 -57t49.5 -24q46 -4 89 17.5t80.5 59.5t68.5 87.5t53.5 102t34.5 103.5t11 91t-15 64.5t-45 25.5q-28 0 -55.5 -20t-51 -53t-41 -74.5t-25 -83t-3 -79t24.5 -62.5
q2 -8 -10.5 -16t-31.5 -11.5t-41 1t-39 21t-24.5 49t2.5 85.5t43.5 111t81 106.5t104.5 79t114 27.5q47 -2 74 -34t35 -82.5t-2 -113.5t-35.5 -128t-65.5 -126t-93 -108t-118 -73.5t-140 -21.5q-77 5 -118 64.5t-51 153.5q-17 -33 -37.5 -67t-44 -61.5t-50 -44.5t-55.5 -17
q-51 0 -78.5 36t-33.5 90t7.5 117t44 116.5t77 89.5t106.5 36q28 0 49 -7.5t38 -24.5q2 17 6.5 38t12.5 38zM270 267q0 28 2.5 56.5t10.5 57.5q-8 20 -23.5 38t-37.5 18q-32 0 -58 -28.5t-44.5 -71t-29.5 -92.5t-12.5 -93t6 -72t26.5 -30q15 -1 35.5 20t43 53t44 70.5
t37.5 73.5z" />
    <glyph glyph-name="b.002" unicode="&#xe01b;" horiz-adv-x="449" 
d="M73 160q8 -23 21.5 -43t44.5 -20q35 -1 63 26t47 67t29.5 87t11.5 87t-8.5 67t-29.5 27q-14 0 -33.5 -14t-40.5 -36.5t-42 -50t-38 -54.5q-6 -37 -11.5 -72.5t-13.5 -70.5zM117 404q28 33 61 61.5t69 36.5q43 10 71.5 -4.5t44 -45t19 -73t-4 -88t-26.5 -90t-47.5 -80
t-66 -57.5t-83.5 -22q-32 0 -55.5 11t-40.5 29q-10 -32 -23.5 -60.5t-32.5 -50.5t-45.5 -35t-61.5 -13q-75 -1 -138 29t-113.5 79t-87.5 112.5t-58.5 129.5t-28 129.5t5 113t40.5 80t77 30.5q55 0 109.5 -33.5t99.5 -84t76.5 -110.5t39.5 -114q7 -54 -2.5 -85.5t-27 -47.5
t-40 -18.5t-41.5 2t-31 14t-9 17.5q21 24 27 61.5t0.5 79t-20.5 83.5t-37 76t-48.5 55.5t-54.5 22.5q-31 1 -46.5 -23.5t-18.5 -64t6.5 -91t28.5 -105t47.5 -105t64.5 -91t78 -64t89 -23.5q22 0 38 18t28 46t19.5 62t13 67t8.5 61.5t6 44.5q26 152 54 306.5t52 297.5
q0 1 14 3.5t31 -0.5t31.5 -14.5t16.5 -38.5q-18 -103 -37.5 -211t-39.5 -215z" />
    <glyph glyph-name="c.002" unicode="&#xe01c;" horiz-adv-x="410" 
d="M359 407q-2 -10 -9 -14t-14.5 -4t-12.5 5t-2 13q5 29 -9 48t-41 22q-39 3 -74.5 -28.5t-61 -80.5t-38 -107.5t-5 -109.5t38 -86.5t90.5 -38.5q42 -3 89 14t94 47.5t91 70.5t81.5 84t65 88t40.5 83q12 34 15.5 64t0 52t-15 34.5t-30.5 12.5q-23 0 -52 -18.5t-56.5 -49
t-50.5 -69.5t-34 -80.5t-6.5 -82.5t31.5 -75q2 -8 -10 -16t-31.5 -11.5t-41.5 1t-39 21t-24 49t3 85.5q8 45 28.5 87t48.5 78t61.5 65t69 49.5t71 31t66.5 9.5q42 -2 68.5 -24t37.5 -58.5t7 -83.5t-22 -99q-27 -76 -87 -150.5t-138 -133.5t-165.5 -95.5t-169.5 -36.5
q-75 1 -123.5 26.5t-75.5 67t-33 94t5 107t37 106t64 91t86 62t103 19.5q54 -5 72.5 -41.5t6.5 -93.5z" />
    <glyph glyph-name="d.002" unicode="&#xe01d;" horiz-adv-x="452" 
d="M291 401q-7 21 -22.5 38.5t-37.5 17.5q-36 0 -64 -26.5t-47 -66t-29.5 -86t-10.5 -86.5t9.5 -67t29.5 -28q15 -1 38 16.5t47 44.5t46 59.5t36 61.5q0 30 1.5 60.5t3.5 61.5zM291 201q-16 -23 -35 -47t-40.5 -45.5t-45.5 -38t-49 -22.5q-43 -10 -72 4.5t-45 45t-19.5 73
t4.5 88t27 90t47.5 80t66.5 57.5t85 22q54 0 86 -29q6 57 14 111t16 100.5t15 82.5t13 59q7 28 24.5 39.5t36 14t32.5 0t13 -3.5q-2 -13 -11 -56.5t-20 -105.5t-23 -136.5t-20 -150.5t-10 -148t6 -128.5t27.5 -91.5t55.5 -37q47 -4 90 17.5t81 59.5t69 88t53 102.5
t33.5 103.5t10.5 91t-15.5 64.5t-44.5 24.5q-28 1 -55 -19.5t-50.5 -53.5t-41 -74t-25.5 -83t-4 -79.5t24 -62.5q2 -8 -10 -16t-31 -11.5t-41 1t-39 21t-24.5 49t2.5 85.5q7 35 25 73.5t43.5 74.5t57.5 69t67.5 57t73 37.5t74.5 12.5q48 -3 75.5 -35t36 -82t-1 -113.5
t-34.5 -128t-65.5 -126t-93.5 -108t-118 -73t-140 -21.5q-40 1 -68.5 18.5t-48 48t-30 71.5t-14.5 90z" />
    <glyph glyph-name="e.002" unicode="&#xe01e;" horiz-adv-x="410" 
d="M104 313q-11 -41 -16.5 -89t4 -89.5t38 -68.5t86.5 -25q71 2 133 26t114 62t93.5 86t71.5 98t46.5 97.5t19.5 85t-8.5 60.5t-38.5 24q-24 0 -53 -18t-57 -48.5t-51 -70t-34 -81t-6.5 -82.5t31.5 -75q2 -8 -10 -16t-31 -11.5t-41 1t-38.5 21t-24 49t2.5 85.5
q13 68 51 127.5t88 103t105 67.5t101 22q50 -2 78 -32t35 -77t-7 -107t-46.5 -122t-83.5 -121.5t-119 -106t-152.5 -75t-183.5 -28.5q-69 -1 -114.5 23t-70 63t-30.5 89.5t4 103t34 103.5t58.5 90.5t78.5 64t93 25.5q48 1 71 -17.5t25 -47t-15 -60.5t-49.5 -58.5t-79 -41.5
t-102.5 -9zM119 351q36 -6 67.5 2t55 22.5t39 33t20 35t-2.5 28t-28 12.5q-26 0 -49.5 -11t-43 -29t-34.5 -42t-24 -51z" />
    <glyph glyph-name="f.002" unicode="&#xe01f;" horiz-adv-x="367" 
d="M104 209q59 -23 117.5 -12t111.5 45.5t99 86t81 108.5t56 114.5t24.5 103t-13 74.5t-56.5 30q-28 1 -55.5 -19.5t-51 -53.5t-41 -74t-25.5 -82.5t-4 -79t23 -62.5q3 -8 -9 -16.5t-31 -12t-41 0.5t-38.5 20.5t-24 49t2.5 86.5q6 35 24 73t43.5 74t57.5 68t67.5 56t73 37
t74.5 12q55 -2 83.5 -35.5t34 -85.5t-10 -117.5t-47.5 -133t-79 -130t-105.5 -109.5t-126 -71.5t-140.5 -15.5q51 -35 75 -95t26 -129.5t-14.5 -140.5t-46.5 -129t-70 -95t-84 -37q-40 -1 -64.5 31t-36.5 88t-14 132.5t4 164t18 183t27.5 190t32 184t32 165t28 133.5
t18.5 90q0 1 17 3.5t37 -0.5t37.5 -14.5t17.5 -38.5q-15 -83 -29.5 -160t-29 -152t-28.5 -150t-27 -152zM92 128q-15 -107 -25.5 -204.5t-12 -172t8.5 -119t34 -44.5q26 0 50.5 36.5t41.5 93t23.5 123t-2.5 126.5t-37.5 104.5t-80.5 56.5z" />
    <glyph glyph-name="g.002" unicode="&#xe020;" horiz-adv-x="457" 
d="M295 -187q107 -10 195 11.5t157.5 64t121.5 100t86.5 119t52 122t18.5 108.5t-14.5 77.5t-46.5 30.5q-27 1 -54.5 -19.5t-51.5 -54t-42 -75.5t-26 -84t-4.5 -79.5t22.5 -62.5q4 -8 -8 -16.5t-31 -11.5t-41 1t-39 21.5t-24.5 50t2.5 85.5q7 35 25 73t43.5 74.5t57.5 69
t67.5 56.5t73.5 37t75 11q54 -2 83 -40t33 -98t-15 -134.5t-61 -149.5t-106 -144t-148 -117.5t-188.5 -69.5t-227.5 -1q-15 -45 -37.5 -84.5t-53.5 -69.5t-72 -47.5t-94 -17.5q-59 0 -91 30t-42 74t0 95.5t36 95t66 72t89 27.5q37 -74 117 -105q17 78 31.5 156t29.5 163
q-29 -38 -64 -68.5t-73 -39.5q-43 -10 -71.5 4.5t-44.5 45t-20 73t4 88t26.5 90t47.5 80t67 57.5t85 22q32 0 54 -9.5t38 -26.5q4 17 7 34.5t7 35.5l14.5 3t32.5 1t33.5 -13t17.5 -38q-15 -81 -28 -169t-27 -176.5t-31 -174t-39 -163.5zM274 253q5 38 11 72.5t10 69.5
q0 23 -15 43t-50 20t-62.5 -26.5t-46.5 -66.5t-29.5 -86.5t-11.5 -86.5t8.5 -67t29.5 -27q15 0 35 14t41.5 36.5t42 50t37.5 54.5zM57 -107q-32 -5 -55 -29t-36.5 -57t-17 -70t4 -68.5t27 -52t51.5 -20.5q31 0 55.5 17.5t43.5 45.5t33 62.5t25 69.5q-44 17 -78 40t-53 62z
" />
    <glyph glyph-name="h.002" unicode="&#xe021;" horiz-adv-x="515" 
d="M295 469q-11 2 -29.5 -21.5t-41.5 -61t-48 -84.5t-47 -93t-40.5 -86t-27.5 -63q-9 -34 -27 -47t-36 -14.5t-31.5 3t-13.5 6.5q16 98 32 201.5t31.5 208t31 208.5t30.5 203q10 27 28.5 38.5t36.5 14.5t31.5 0.5t13.5 -3.5q-23 -149 -47.5 -310t-49.5 -322q22 54 50 107.5
t59 95.5t65 68t70 25q29 -1 40 -23t12 -57.5t-5 -81t-13 -93.5t-10.5 -94t2.5 -82.5t25.5 -60t58.5 -26.5q47 -4 90.5 17.5t81.5 59.5t69 88t53 102.5t34 103.5t11 91t-15.5 64.5t-44.5 24.5q-27 1 -54.5 -19.5t-51 -53.5t-41 -74t-25.5 -83t-4 -79.5t24 -62.5q2 -8 -10 -16
t-31 -11.5t-40.5 1t-38.5 21t-24.5 49t1.5 85.5q7 35 25 73.5t43.5 74.5t57.5 69t67.5 57t73 38t74.5 12q49 -3 76 -35t35.5 -82t-1 -113.5t-35 -128t-66 -126t-93.5 -108t-118 -73t-139 -21.5q-54 3 -87 26t-51 58.5t-23.5 79.5t-3 90t9 89.5t13 78t10 55.5t-1.5 22z" />
    <glyph glyph-name="i.002" unicode="&#xe022;" horiz-adv-x="300" 
d="M167 730q23 -6 26 -29t-7.5 -47.5t-30 -41.5t-41.5 -11q-14 3 -19.5 14.5t-4.5 27t7.5 32.5t17 30t24 20.5t28.5 4.5zM43 530q36 9 55 2t26.5 -23.5t6 -39.5t-6.5 -47q-12 -61 -18.5 -129t-1.5 -126t25 -97t62 -42q46 -4 89 17.5t80.5 59.5t68.5 88t53 102.5t34 103.5
t11 91t-15 64.5t-45 24.5q-28 1 -55.5 -19.5t-51 -53.5t-41 -74t-25 -83t-3.5 -79.5t24 -62.5q3 -8 -9.5 -16t-31.5 -11.5t-41 1t-39 21t-24 49t3 85.5q6 35 23.5 73.5t43 74.5t57.5 69t67.5 57t73.5 37.5t75 12.5q48 -3 75.5 -35t36 -82t-1 -113.5t-34.5 -128t-65.5 -126
t-94 -108t-118.5 -73t-141 -21.5q-47 2 -80.5 26.5t-54 65t-29.5 94.5t-7.5 115t13 126.5t31.5 129.5z" />
    <glyph glyph-name="j.002" unicode="&#xe023;" horiz-adv-x="175" 
d="M116 732q16 0 25.5 -9t13 -23.5t1.5 -31.5t-8.5 -32t-18 -25t-26.5 -10q-23 -2 -33 17.5t-7.5 44.5t16 46t37.5 23zM14 -187q106 -10 193 11.5t156.5 64t121.5 100t86.5 119t52 122t18 108.5t-15.5 77.5t-48 30.5q-26 1 -53 -19.5t-50 -54t-40.5 -75.5t-25 -84
t-3.5 -79.5t25 -62.5q2 -8 -11 -16.5t-32.5 -11.5t-41.5 1t-39 21.5t-24.5 50t2.5 85.5q7 35 25 73t44 74.5t58 69t67.5 56.5t73.5 37t75 11q54 -2 83 -40t33.5 -98t-14.5 -134.5t-60.5 -149.5t-105 -144t-148 -117.5t-189 -69.5t-227.5 -1q-17 -45 -40 -84.5t-54 -69.5
t-72 -47.5t-94 -17.5q-59 0 -93 29.5t-46.5 73.5t-4 95.5t34.5 95.5t69 72.5t99 27.5q19 -38 48 -64t66 -41q39 171 68 352t59 353l14.5 3t32 1t32.5 -13t16 -38q-14 -81 -26 -169t-25.5 -176.5t-30.5 -174t-39 -163.5zM-228 -107q-31 -5 -54 -29t-36.5 -57t-16.5 -70
t4.5 -68.5t27 -52t51.5 -20.5q31 0 55.5 17.5t43.5 45.5t33 62.5t25 69.5q-44 17 -78 40t-55 62z" />
    <glyph glyph-name="k.002" unicode="&#xe024;" horiz-adv-x="457" 
d="M100 281q44 -18 81 -8.5t64.5 33.5t46 57.5t26 63.5t4 51.5t-18.5 21.5q-19 0 -40 -14.5t-42.5 -36.5t-42 -49t-36.5 -51t-27.5 -43t-14.5 -25zM90 235q-7 -40 -12.5 -78t-10.5 -82q-8 -41 -27 -57t-38.5 -19t-34.5 2t-15 7q16 98 32.5 201.5t32.5 208t31.5 208.5
t30.5 203q11 27 29.5 38.5t36.5 14.5t31 0.5t13 -3.5q-20 -122 -39.5 -251.5t-39.5 -259.5q20 30 44 61t50 56.5t54 41.5t57 16q42 0 62.5 -23.5t22.5 -60t-13.5 -78t-46 -77t-75 -58t-100.5 -19.5q17 -22 28.5 -48t20 -52t17.5 -50.5t22.5 -44.5t33.5 -33.5t51 -18.5
q45 -5 93 17.5t94 63t88 94t74 110.5t53 112.5t26 99t-9 71t-51 28.5q-28 1 -55.5 -19.5t-51 -53.5t-41 -74t-25.5 -83t-4.5 -79.5t23.5 -62.5q3 -8 -9 -16t-31 -11.5t-40.5 0.5t-38 21t-24 49.5t2.5 85.5t43.5 111t81 106t104 78.5t111.5 28.5q59 -3 86 -36.5t28.5 -86.5
t-19.5 -120t-58.5 -135.5t-89 -134t-110 -116.5t-121.5 -81.5t-125 -28.5q-61 2 -97.5 20t-57.5 46t-31 62t-17.5 69t-18 66.5t-31.5 53.5z" />
    <glyph glyph-name="l.002" unicode="&#xe025;" horiz-adv-x="288" 
d="M207 867q-2 -11 -12.5 -52.5t-24 -102t-28 -134t-25 -149t-15 -147t2 -128t26.5 -91.5t58 -38q46 -4 88.5 17.5t80 59.5t68.5 88t53 102.5t33.5 103.5t10.5 91t-15.5 64.5t-45.5 24.5q-27 1 -54 -19.5t-50 -53.5t-40.5 -74t-25 -83t-3 -79.5t24.5 -62.5q2 -8 -10 -16
t-31.5 -11.5t-41.5 1t-38.5 21t-24 49t3.5 85.5q10 53 43.5 111t80.5 106t102.5 78.5t111.5 28.5q48 -3 75.5 -35t36 -82t-1 -113.5t-35 -128t-65.5 -126t-93 -108t-118 -73t-140 -21.5q-55 4 -89.5 34.5t-53.5 80t-24.5 113.5t-1.5 134t14.5 142.5t23.5 139.5t26 123.5
t22 94.5q8 35 29 48.5t42 14t36.5 -8.5t13.5 -19z" />
    <glyph glyph-name="m.002" unicode="&#xe026;" horiz-adv-x="687" 
d="M47 531q33 6 52.5 1t28.5 -19t9.5 -35t-4.5 -48q-12 -55 -25.5 -122.5t-23.5 -130.5q19 60 44 126t56 121.5t67 91t78 34.5q21 -1 32 -18t13 -45.5t-2 -66t-13 -77.5q17 35 37 66.5t41 54.5t43 36t43 12q35 -2 49.5 -21t16 -49.5t-6.5 -70t-18 -81.5t-18.5 -83.5
t-9 -77.5t11.5 -62.5t44 -37.5q44 -16 91.5 -6.5t93.5 36t89 66.5t77.5 85t59 91t34.5 85t2 67t-37 37q-26 8 -58 -4.5t-63 -38t-59 -61.5t-46.5 -74t-25 -75t5.5 -66q1 -9 -12.5 -13.5t-32.5 -3t-38.5 11t-31.5 30.5t-10.5 54t24.5 82q15 32 42 64t61 60t73 50.5t80 36
t81 16t75 -8.5q46 -15 64 -53t13 -88.5t-30.5 -108.5t-66.5 -114t-95.5 -104.5t-117.5 -79t-132.5 -39t-140.5 16.5q-45 15 -69.5 44t-34.5 65.5t-8 78.5t10 83t19 79t19.5 67t11 46.5t-6.5 17.5q-15 -1 -35 -27t-40.5 -65.5t-41 -88t-36.5 -93t-27 -80.5t-12 -52
q2 -12 -4.5 -18t-18 -8t-25.5 -1t-26.5 3.5t-21.5 5.5t-9 4q-5 14 1.5 51.5t18 85.5t24.5 100t23 95.5t12.5 72t-6.5 28.5q-11 0 -28 -29t-37.5 -74t-42 -99t-40 -104t-32.5 -89t-20 -54q-5 -13 -22 -18.5t-36 -4t-34.5 10.5t-16.5 25q-3 26 0.5 66t10.5 86.5t16 96
t18.5 95.5t18 85t14.5 64z" />
    <glyph glyph-name="n.002" unicode="&#xe027;" horiz-adv-x="509" 
d="M47 530q30 13 50 9t30 -18.5t12 -36.5t-4 -46q-5 -27 -12 -58t-13.5 -64t-13.5 -66.5t-12 -64.5q24 55 54.5 113.5t64.5 106.5t70 77.5t71 28.5q29 -2 40.5 -21t10.5 -49.5t-9.5 -70t-19 -81.5t-18.5 -83.5t-8 -77.5t12.5 -62.5t43.5 -37.5q44 -16 91 -6.5t93.5 36
t89.5 66.5t78 85t59.5 91t34 85t2 67t-37.5 37q-27 8 -58.5 -4.5t-63 -38t-59 -61.5t-46 -74t-24.5 -75t7 -66q0 -9 -14.5 -13.5t-34 -3t-40 11.5t-32.5 30.5t-10.5 54t25.5 81.5q16 32 43 64t61.5 60t74 50.5t80.5 36t81 16t75 -8.5q46 -15 63.5 -53t13 -88.5t-30 -109
t-67 -114.5t-96 -104.5t-118 -79t-133.5 -38.5t-141 17q-45 16 -69 44.5t-33.5 65t-7 78t11 82.5t21 78.5t22.5 66.5t15 46t-1 17q-16 0 -40 -28t-51 -71t-54 -95t-49 -99.5t-36.5 -84.5t-16.5 -51q-1 -14 -17 -20.5t-35.5 -5t-36 10t-16.5 25.5q-3 26 0.5 66t10.5 86
t16 95.5t18.5 95.5t18 85t14.5 64z" />
    <glyph glyph-name="o.002" unicode="&#xe028;" horiz-adv-x="464" 
d="M375 386q-2 -9 -8.5 -14t-14 -5t-12.5 5t-3 14q3 18 0.5 35t-9.5 31t-19.5 23t-30.5 10q-45 3 -78.5 -26t-55.5 -74.5t-31 -99t-4.5 -100t22.5 -77.5t51 -31q32 0 57 21t45 48q-29 7 -43.5 25.5t-18 42.5t4 49.5t22.5 46.5t36 35t47 14q21 0 31 -11.5t13 -29t-0.5 -39.5
t-9.5 -43t-14 -39.5t-14 -29.5q41 -14 88 -6.5t94 30t92 56.5t82.5 73.5t65 80t40.5 76t9 63t-31 39.5q-25 11 -55 3t-59.5 -30t-56 -53.5t-45 -67t-26 -71t1.5 -64.5q0 -9 -14.5 -12.5t-33.5 0.5t-37.5 16t-27.5 33.5t-3.5 54.5t34.5 78q28 45 74.5 85.5t100.5 67t110.5 33
t106.5 -16.5q43 -20 57 -57.5t5.5 -84t-37 -97.5t-72 -99t-99.5 -88.5t-118.5 -64.5t-129.5 -28.5t-133 20.5q-15 -23 -36 -46.5t-46.5 -42t-53.5 -30t-56 -11.5q-47 1 -78 24.5t-47.5 61.5t-18.5 86.5t8.5 99t32.5 98.5t55 85.5t76 60.5t95 23q30 0 55 -12t42 -33
t24.5 -50.5t1.5 -63.5zM304 182q4 9 13 31t15.5 45.5t7.5 41.5t-9 18q-14 0 -25.5 -18.5t-17 -42.5t-2.5 -46t18 -29z" />
    <glyph glyph-name="p.002" unicode="&#xe029;" horiz-adv-x="463" 
d="M76 148q10 -18 31.5 -33.5t43.5 -15.5q35 -1 63 25.5t47 66.5t29 86.5t11 87t-9 67.5t-30 28q-15 0 -37.5 -17t-46.5 -43.5t-46 -59t-37 -62.5q-5 -32 -9.5 -63.5zM112 383q15 20 31.5 39.5t35.5 36t39 28.5t41 16q43 10 72.5 -5t45.5 -45.5t19.5 -72.5t-4.5 -87.5
t-26.5 -90t-47.5 -79.5t-67.5 -57t-85.5 -22q-29 0 -54.5 9.5t-46.5 23.5q-12 -93 -26 -185.5t-30 -187.5q-9 -55 -24.5 -113.5t-42.5 -105t-69 -72.5t-104 -16q-74 10 -132 49t-101 95.5t-70.5 124.5t-39.5 136.5t-9.5 132t20.5 111t51 73t81 18.5q55 -9 105 -50t87 -97.5
t59 -119.5t22 -116q0 -55 -13 -85t-32.5 -43.5t-42 -13t-40.5 8t-28 18.5t-6 18q23 20 33.5 55.5t11 78t-8.5 86.5t-25.5 81.5t-40 63t-51.5 30.5q-29 5 -47.5 -17t-26.5 -61t-6 -91t13.5 -108t32 -110.5t49.5 -99.5t66.5 -75t82.5 -36q34 -5 59 17.5t42.5 60t28.5 84.5
t19 92q32 195 59.5 390t56.5 388q10 31 28 44t35.5 16.5t30.5 0.5t13 -4q-5 -38 -10 -79t-12 -81z" />
    <glyph glyph-name="q.002" unicode="&#xe02a;" horiz-adv-x="463" 
d="M342 -618q45 -10 90.5 5.5t88 48t79.5 78t65.5 94.5t46.5 98.5t22.5 89.5t-6.5 67t-41 32q-27 4 -57 -12.5t-57.5 -46.5t-50.5 -69t-36 -79t-14.5 -78t14.5 -66q2 -8 -11 -15t-32 -7.5t-40.5 6.5t-36 25.5t-17.5 51.5t14 84q11 34 33 69.5t52 68.5t66 61t74 47.5t77 28
t76 2.5q48 -8 71 -43t25.5 -86t-15 -112.5t-51 -123t-81 -117t-106.5 -95.5t-127.5 -58.5t-142.5 -4.5q-59 12 -89.5 51t-42 91.5t-8.5 113t11 116.5q18 117 39 232.5t42 233.5q-29 -42 -67 -75.5t-80 -44.5q-57 -13 -89 16t-42 80t0.5 114.5t40 119t76.5 93t109 37.5
q65 0 102 -37q3 18 7 34t8 35q30 11 51 6q9 -2 17 -8t12.5 -17t5.5 -28.5t-3 -42.5q-32 -193 -66 -387.5t-67 -389.5q-7 -45 -11.5 -93t0 -89t21 -70t51.5 -35zM284 274q6 31 11.5 61.5t10.5 61.5q-8 21 -31 38.5t-47 17.5q-36 0 -63.5 -26.5t-46 -66.5t-29 -86.5t-11 -86.5
t8.5 -67t28 -27q16 -1 39 16.5t47 44t46 59t37 61.5z" />
    <glyph glyph-name="r.002" unicode="&#xe02b;" horiz-adv-x="524" 
d="M140 482q28 -5 62.5 3t65.5 41q9 12 27 13.5t35.5 -3t29 -13.5t8.5 -19q-10 -38 -20 -88t-16 -103t-7 -104.5t7 -92.5t27 -67t53 -28q46 -4 89.5 17.5t81 59.5t68.5 87.5t52.5 102t33.5 103.5t11 91t-15 64.5t-44 25.5q-28 0 -55 -20t-50.5 -53t-41 -74.5t-25 -83t-3 -79
t24.5 -62.5q2 -8 -11 -16t-32 -11.5t-40.5 1t-38 21t-23.5 49t3 85.5t43.5 111t80.5 106.5t103 79t112 27.5q48 -2 75.5 -34t36 -82.5t-1 -113.5t-35 -128t-65.5 -126t-93 -108t-117.5 -73.5t-138.5 -21.5q-66 4 -105 47.5t-56 112t-13.5 154.5t24.5 175q-32 -21 -65 -24
t-65 6q-19 -43 -43.5 -84t-45.5 -72q-3 -5 -8.5 -5.5t-11 2t-8.5 8t0 12.5q6 12 15 33t18.5 45.5t17.5 49t13 44.5q-21 20 -18 39.5t17.5 34.5t35.5 22.5t36.5 2t19.5 -26t-15 -60.5z" />
    <glyph glyph-name="s.002" unicode="&#xe02c;" horiz-adv-x="316" 
d="M69 360q-20 -42 -37 -68q10 2 22.5 4t25.5 2q-2 14 -5.5 30.5t-5.5 31.5zM13 283q-8 2 -13 9t0 13q4 10 9.5 25.5t12 34.5t13.5 38.5t13 37.5q9 34 31 56.5t47.5 35.5t48 18t33.5 3q24 0 41.5 -9t26.5 -19t7.5 -17.5t-14.5 -5.5q-25 4 -50 -7t-33 -39q-11 -38 -2 -88
t24 -104q55 -26 100.5 -49t90 -33.5t91 -4t103.5 39.5q45 27 87 67t76.5 84.5t58.5 89.5t33 83.5t0.5 66t-38.5 36.5q-26 8 -58 -4t-63.5 -37.5t-60 -61t-47.5 -73.5t-25.5 -75.5t6.5 -66.5q0 -8 -13.5 -12.5t-31 -3t-36 11t-28.5 30t-7.5 53t26.5 80.5t70 95t103 80.5
t118.5 48t115.5 -1.5q47 -15 65 -53.5t12.5 -90.5t-32 -111t-69.5 -115.5t-100 -104.5t-123 -77q-63 -30 -113.5 -35.5t-98 5.5t-95.5 34.5t-107 52.5q7 -33 12 -64.5t4 -59.5t-8.5 -51.5t-25.5 -41.5q-44 -42 -86.5 -42t-78 25.5t-59.5 69t-30.5 89t9 86t58.5 59.5zM135 52
q3 16 0 38.5t-10.5 49.5t-17 57.5t-18.5 62.5q-39 1 -59.5 -13.5t-26.5 -37.5t-0.5 -51t18 -55t30 -48.5t34 -31t30.5 -4.5t20 33z" />
    <glyph glyph-name="t.002" unicode="&#xe02d;" horiz-adv-x="296" 
d="M324 597q3 25 -10 35.5t-36 11.5t-55 -5t-67 -15q-12 -55 -24 -120.5t-20 -131t-9.5 -127t7 -110t29 -78.5t56.5 -32q46 -4 88.5 17.5t80 59.5t68.5 88t53 102.5t33.5 103.5t11 91t-15 64.5t-44.5 24.5q-27 1 -54.5 -19.5t-51 -53.5t-41 -74t-25 -83t-3.5 -79.5t23 -62.5
q3 -8 -9.5 -16t-31.5 -11.5t-41 1t-38.5 21t-23.5 49t4 85.5q6 35 23 73.5t42 74.5t57 69t67.5 57t73.5 38t75 12q48 -3 75 -35t35.5 -82t-1 -113.5t-35 -128t-65.5 -126t-93 -108t-117.5 -73t-139.5 -21.5q-58 3 -94 34t-55.5 80t-24.5 111.5t-1 130.5t15 137t23 129
q-40 -10 -75 -12.5t-60 2.5q-26 8 -34 27.5t-6 40t9.5 36t12.5 15.5q-2 -12 13 -23t39 -18.5t54 -9.5t60 3q8 41 16 73t13 55q1 1 19 6.5t39 8.5t38 0t14 -19q-2 -9 -7.5 -35.5t-17.5 -66.5q26 5 50 8t47 3q38 -1 56.5 -12t24.5 -25t3 -28t-8 -21q-5 -6 -10 -6.5t-4 3.5z
" />
    <glyph glyph-name="u.002" unicode="&#xe02e;" horiz-adv-x="624" 
d="M164 524q-5 -19 -13.5 -59t-17.5 -90t-16 -103.5t-9 -98t2.5 -73.5t19.5 -31q16 -3 35.5 16t40 51.5t41.5 74.5t40 86.5t35.5 87.5t28.5 77q6 16 10.5 33t8.5 34q2 13 19.5 17.5t37 1.5t34 -12.5t10.5 -25.5q-10 -38 -20 -88t-16.5 -103t-6.5 -104.5t8.5 -92.5t28.5 -67
t55 -28q46 -4 89.5 17.5t81 59.5t69 87.5t53.5 102t34 103.5t11.5 91t-14.5 64.5t-44 25.5q-29 0 -57 -20t-52 -53t-41.5 -74.5t-25.5 -83t-4.5 -79t23.5 -62.5q3 -8 -9 -16t-31 -11.5t-41 1t-38.5 21t-24 49t2.5 85.5q6 35 23.5 73.5t43 75t57.5 69t68 57t74 38t75 11.5
q48 -2 75.5 -34t35.5 -82.5t-1.5 -113.5t-35 -128t-66 -126t-93.5 -108t-118 -73.5t-140 -21.5q-49 2 -82.5 26.5t-54.5 65.5t-29.5 95.5t-6.5 117.5q-23 -51 -49.5 -101t-56 -89t-62 -63t-65.5 -24q-41 0 -64 27t-32 71t-7 99t9.5 110t18.5 105.5t20 85.5q4 20 25.5 31.5
t44.5 14.5t40.5 -2t14.5 -18z" />
    <glyph glyph-name="v.002" unicode="&#xe02f;" horiz-adv-x="424" 
d="M293 253q13 -22 34.5 -32.5t46.5 -13t50.5 2t45.5 12.5q52 19 102 57.5t92.5 86t74 98.5t46 95.5t8.5 77t-38 42.5q-26 8 -55 -4.5t-56 -38t-50.5 -61t-38 -74t-18 -76t8.5 -67.5q1 -8 -13 -13t-33 -3.5t-39 11.5t-31.5 30.5t-10.5 53.5t25 82t66 96t93.5 81t107.5 48.5
t108 -2.5q51 -17 68 -62t6 -104.5t-46.5 -125.5t-89 -124.5t-121.5 -103.5t-143 -61q-23 -5 -51.5 -6.5t-58.5 1.5t-58 11t-49 23q-15 -40 -31 -77t-32.5 -66t-34.5 -46.5t-36 -17.5q-37 0 -62.5 23.5t-42 62.5t-25.5 88.5t-11.5 100.5t0 100.5t8.5 87.5q4 24 16 39t28.5 20
t36 1.5t38.5 -15.5q-4 -16 -9 -55.5t-8 -89.5t-3.5 -103.5t3 -99t12.5 -75.5t26 -32q9 0 19 16.5t20.5 44t22 63t23.5 74.5q-16 34 -12.5 73t20 76.5t42.5 69.5t55 50q8 8 20.5 8t22.5 -4.5t14 -12t-5 -14.5q-12 -10 -24 -32.5t-24 -53.5t-24.5 -67.5t-25.5 -73.5z" />
    <glyph glyph-name="w.002" unicode="&#xe030;" horiz-adv-x="628" 
d="M489 297q5 -34 26 -50.5t49.5 -22t58.5 -1.5t53 12q51 19 101.5 57.5t93 86t74 99t46.5 96t9.5 77t-37.5 41.5q-26 8 -55.5 -4.5t-57 -38t-51 -61t-38.5 -74t-18 -76t10 -67.5q0 -8 -14 -13t-33.5 -3t-39.5 11.5t-31.5 30t-10.5 54t25 81.5q24 49 66 96.5t94 81.5t109 48
t110 -3q51 -17 67.5 -62t5.5 -104t-47 -125t-90 -125t-122 -104t-143 -61q-26 -5 -59 -6t-66 4t-63 17t-51 34q-18 -45 -36 -86t-36 -72.5t-36 -50t-36 -18.5q-45 0 -68.5 34.5t-30.5 89.5q-27 -54 -53 -89t-50 -35q-36 0 -59.5 23.5t-37 62.5t-18 88.5t-2.5 100.5
t8.5 100.5t15.5 87.5q14 54 46 63.5t71 -18.5q-6 -16 -13.5 -55.5t-14.5 -89.5t-12 -103.5t-4.5 -99t8 -75.5t24.5 -32q7 -1 17.5 13.5t22.5 38.5t24.5 55.5t24.5 66.5q0 25 3 50t8 49q1 10 12.5 14.5t27.5 3.5t31.5 -5.5t24.5 -12.5q-7 -47 -12 -95t-5 -87t5.5 -64
t20.5 -27q7 0 17.5 19.5t23.5 52t28 73.5t31 84q-7 34 1 68.5t24.5 66t40 59.5t47.5 48q8 7 19.5 6t20.5 -6t12 -12.5t-6 -14.5q-11 -10 -23.5 -29t-25 -45t-26 -57.5t-26.5 -64.5z" />
    <glyph glyph-name="x.002" unicode="&#xe031;" horiz-adv-x="491" 
d="M46 1q-14 -9 -25.5 -6.5t-19 10.5t-8.5 18t7 15q29 20 66 65.5t75 98.5q-14 32 -25.5 65.5t-19.5 66.5q-21 -20 -41 -36t-33 -25q-7 -5 -14.5 -3t-12 7t-4 11.5t8.5 11.5q13 8 37.5 30t49.5 46q-14 79 -6 139q5 22 20 30t32 5.5t34 -14.5t26 -30t7 -41t-22 -47
q5 -27 11.5 -58t16.5 -63q30 39 59 78t56 71.5t51 56.5t44 35q15 8 23.5 3.5t11.5 -14t0 -20t-10 -14.5q-18 -10 -42.5 -34.5t-52.5 -59t-58.5 -76.5t-61.5 -85q14 -40 32 -77.5t39 -66t44 -45t49 -16.5q43 0 86 21.5t81.5 56t72.5 79.5t59 91.5t41 92.5t18.5 83t-8.5 61.5
t-40 29.5q-27 4 -57 -12t-57.5 -46t-50.5 -68.5t-36 -78.5t-13.5 -77.5t15.5 -64.5q1 -9 -12.5 -16t-33 -8t-41 6t-36 26t-18 52t13.5 83q18 51 59.5 103.5t95 94t113.5 63.5t115 12q44 -8 66.5 -40t26 -79t-10.5 -103.5t-43 -115t-70.5 -113t-94 -96.5t-113.5 -67.5
t-128 -24.5q-35 0 -66.5 13.5t-60 37t-53 56t-45.5 70.5q-35 -49 -66 -90t-53 -64z" />
    <glyph glyph-name="y.002" unicode="&#xe032;" horiz-adv-x="457" 
d="M291 -192q106 -10 193 11.5t156 64t121 100t86 119t51.5 122t18.5 108.5t-14.5 77.5t-46.5 30.5q-27 1 -54.5 -19.5t-51 -54t-41 -75.5t-25 -84t-3.5 -79.5t25 -62.5q2 -8 -10.5 -16.5t-32 -11.5t-41.5 1t-39 21.5t-25 50t2 85.5q7 35 25.5 73t44.5 74.5t58 68.5t68 56
t73.5 37.5t74.5 11.5q55 -3 83.5 -41t33 -98t-15 -134.5t-61 -149.5t-105.5 -144t-148 -117t-188.5 -69t-227.5 -1q-16 -45 -38 -85t-53 -70.5t-71.5 -48t-93.5 -15.5q-53 0 -85 25t-45 63.5t-9 85t22 90t49 77.5t72 48q2 2 10 4t17 3t17.5 1t12.5 -3q17 -38 46 -64t64 -41
q24 104 43.5 213.5t34.5 220.5q-20 -51 -42.5 -99.5t-48 -86.5t-53 -61t-56.5 -23q-38 0 -56 32t-23 82.5t0.5 112t15.5 120.5t21 108t18 75q2 12 18 15t34.5 0.5t33.5 -8.5t15 -13q-5 -19 -13.5 -59t-17.5 -90t-17 -103.5t-11 -98t0 -73.5t16 -31q14 -3 31 17t36 53.5
t38 77t36.5 89t32.5 89t26 76.5q5 19 8 36t4 34q1 0 15.5 3t32.5 1t33.5 -13t17.5 -38q-14 -81 -26.5 -169t-26.5 -176.5t-30.5 -174t-38.5 -163.5zM50 -112q-31 -5 -53.5 -29t-35.5 -57.5t-16.5 -70.5t4 -68.5t26.5 -52t51 -19.5q31 0 55.5 17.5t43 45.5t32 62.5t22.5 69.5
q-41 17 -73.5 40t-55.5 62z" />
    <glyph glyph-name="z.002" unicode="&#xe033;" horiz-adv-x="542" 
d="M33 283q-6 -8 -14 -9.5t-14 1.5t-8.5 9.5t3.5 15.5q22 43 55 92.5t75.5 91t93 68.5t107.5 25q35 0 60 -18t36 -47.5t7 -68t-27 -79t-66 -81t-110 -74.5q91 -4 139.5 -44.5t63 -101t0 -133.5t-50.5 -143q103 -22 192 -11t162.5 45t131.5 85t99.5 108t65.5 114.5
t30.5 104.5t-5.5 78t-43 35q-27 5 -56.5 -12t-57 -47t-50 -69.5t-35 -80.5t-12.5 -79t17 -65q1 -8 -12 -14.5t-32 -7.5t-39.5 6t-34.5 25.5t-17 52t14 84.5q9 34 30 70t50 69.5t64 62t73.5 48.5t77.5 29t76 3q54 -9 78 -51t21.5 -102t-30 -132t-77.5 -141.5t-121.5 -130.5
t-160.5 -99t-195 -47t-226 26q-20 -42 -46.5 -78.5t-61 -62.5t-77 -38t-95.5 -5q-60 8 -89 42.5t-34 81t11 96.5t47.5 89.5t75.5 61t93 9.5q13 -37 39.5 -66.5t61.5 -51.5q28 64 38.5 129t-6.5 116t-67 79t-143 18q-8 0 -14 9t-7.5 20t3.5 21.5t19 12.5q61 10 104 35
t68.5 56t35 64t5.5 60.5t-21 45.5t-45 18q-31 0 -64 -24.5t-63 -59.5t-55 -73t-41 -66zM152 -105q-32 -1 -57 -22t-42 -52.5t-24.5 -68t-3.5 -69t20.5 -55t47.5 -25.5t57.5 11.5t48.5 40t40 58.5t32 67q-42 22 -72 48.5t-47 66.5z" />
    <glyph glyph-name="a.003" unicode="&#xe034;" horiz-adv-x="573" 
d="M316 530q20 4 38.5 4t31 -6t18.5 -19.5t2 -35.5q-6 -32 -16 -75t-18.5 -89t-13.5 -92.5t-1.5 -85t17.5 -66t44 -36.5q34 -10 80 -3.5t94.5 25t95.5 48t83 65.5t55.5 76.5t14.5 80.5q1 18 18.5 20.5t37.5 -8.5t36 -34t14.5 -56t-27 -75.5t-87.5 -90.5q-36 -29 -96.5 -55
t-128.5 -42t-135.5 -16t-118.5 24q-48 19 -69 66t-26 107q-16 -30 -35 -59t-40.5 -51.5t-46 -36.5t-50.5 -14q-50 0 -77.5 36.5t-34 90.5t6.5 117t43.5 117t76.5 90t105 36q29 0 49.5 -8.5t37.5 -23.5q5 21 11 39.5t11 35.5zM259 243q1 39 7 76t12 72q-6 17 -20.5 32
t-35.5 15q-32 1 -57.5 -27t-44 -70.5t-29 -93t-12 -93.5t6.5 -72.5t26 -30.5q13 0 31.5 18t38.5 46t40 62t37 66z" />
    <glyph glyph-name="c.003" unicode="&#xe035;" horiz-adv-x="406" 
d="M357 409q-2 -9 -9 -13.5t-14 -4.5t-12.5 5t-4.5 14q8 30 -5 49t-42 21q-32 2 -59 -15t-48.5 -46.5t-37 -68t-24.5 -79.5t-10.5 -82t4 -74.5t19.5 -57.5t37 -31q34 -10 80 -3.5t95.5 25t97 48t83.5 65.5t56 76.5t14 80.5q1 18 18.5 20.5t37 -8.5t35.5 -34t15 -56
t-26 -75.5t-86 -90.5q-36 -29 -97 -55t-129 -42t-136.5 -16t-119.5 24q-54 25 -79.5 77.5t-27 116t19 130.5t59.5 121t94.5 86.5t123.5 27.5q54 -4 73 -41t5 -94z" />
    <glyph glyph-name="e.003" unicode="&#xe036;" horiz-adv-x="406" 
d="M101 311q-8 -31 -10.5 -75.5t5 -87.5t26.5 -77.5t55 -45.5q34 -10 78 -3.5t90.5 25t90.5 48t77.5 65.5t51.5 76.5t12 80.5q2 18 19.5 20.5t37 -8.5t35.5 -34t14.5 -56t-26.5 -75.5t-87 -90.5q-36 -29 -96.5 -55t-129 -42t-136.5 -16t-118 24q-48 22 -73.5 72t-29.5 112
t11.5 128.5t49.5 121.5t85 90.5t118 35.5q47 1 70.5 -17.5t25.5 -46.5t-15 -60.5t-49.5 -58.5t-79 -41.5t-102.5 -8.5zM115 349q37 -5 68 2.5t55 22t39 33t19.5 35t-3 28.5t-28.5 13q-26 0 -49 -11t-42 -29.5t-34 -43t-25 -50.5z" />
    <glyph glyph-name="f.003" unicode="&#xe037;" horiz-adv-x="365" 
d="M178 135q51 -34 75 -93.5t26 -128.5t-15 -140.5t-46.5 -129.5t-69.5 -95t-83 -38q-50 -1 -76 48.5t-35 133t-3 192.5t20.5 227t35 237t40 222.5t36.5 183.5t24 119q1 0 17.5 2.5t37 0t37.5 -13.5t19 -38q-15 -85 -30.5 -164.5t-30 -157.5t-28.5 -155.5t-26 -157.5
q35 -3 79.5 13t89.5 45.5t86.5 69t69.5 83t39 88t-4 83.5q-3 18 13.5 24.5t38.5 0.5t43 -24.5t27 -51t-9 -78.5t-64 -108q-22 -29 -59 -59.5t-82 -58t-95 -49t-98 -32.5zM96 128q-18 -107 -29 -204t-12.5 -171t9 -118t35.5 -44q26 0 51 36.5t42 92t24 122t-2.5 126t-37 104
t-80.5 56.5z" />
    <glyph glyph-name="h.003" unicode="&#xe038;" horiz-adv-x="516" 
d="M79 829q10 26 28.5 37.5t36.5 13.5q21 3 44 -2q-21 -142 -44.5 -295.5t-46.5 -304.5q24 49 52 96.5t58 85t61 59.5t60 20q37 -2 51.5 -23t14 -54.5t-11.5 -77t-25.5 -90t-28 -93.5t-17.5 -88t5.5 -73t39.5 -48q32 -16 79 -19t98.5 6t103 29t93 48t68 64t28.5 77
q5 17 23 15.5t36 -16t29.5 -40.5t3.5 -57.5t-41 -67.5t-104 -71q-27 -14 -65.5 -25.5t-82.5 -18.5t-91.5 -8.5t-92.5 3.5t-85 18.5t-70 36.5q-42 31 -53 81.5t-4.5 108.5t24.5 116.5t34 106t23 77.5t-7 30q-13 0 -33 -22t-43 -56.5t-47 -78t-46 -87t-39.5 -84t-27.5 -68.5
q-5 -31 -15 -50t-22.5 -29t-26 -12.5t-24.5 -1.5t-18 4.5t-7 6.5q15 97 30.5 200t31.5 208t31.5 209.5t31.5 203.5z" />
    <glyph glyph-name="i.003" unicode="&#xe039;" horiz-adv-x="307" 
d="M175 731q22 -6 24.5 -29.5t-7.5 -48t-29.5 -42t-40.5 -11.5t-24 29t6.5 47.5t28.5 42t42 12.5zM50 530q32 6 50 -0.5t26.5 -20t9 -30t-2.5 -31.5q-7 -34 -16 -76t-16 -85.5t-10 -86t1.5 -78t19 -60.5t42.5 -33q34 -10 80 -3.5t94.5 25t95.5 48t82.5 65.5t55 76.5
t13.5 80.5q1 18 19 20.5t38 -8.5t36.5 -34t15.5 -56t-25 -75.5t-86 -90.5q-25 -19 -61 -37.5t-78.5 -33.5t-89 -26t-92 -14.5t-88 1.5t-75.5 21q-41 19 -62.5 57t-29 87t-4.5 104.5t12.5 109.5t22 102t22.5 82z" />
    <glyph glyph-name="k.003" unicode="&#xe03a;" horiz-adv-x="456" 
d="M78 829q10 27 29 38t37 13.5t31 0t12 -2.5q-17 -118 -35.5 -243.5t-38.5 -253.5q21 29 43.5 58t46.5 52.5t49.5 38t51.5 14.5q43 0 63.5 -25t22.5 -62.5t-14 -80t-47.5 -78t-77.5 -57t-103 -15.5q20 -33 36.5 -75.5t39.5 -81.5t58 -66t92 -28q38 -1 80.5 6t84 20.5
t79.5 34t67.5 45.5t47.5 54.5t20 62.5q5 17 22.5 16.5t35 -15t29 -40t4 -57.5t-40 -68t-102.5 -72q-41 -21 -105.5 -35.5t-134.5 -16.5t-136 11.5t-111 47.5q-35 25 -53 62t-28.5 75t-19.5 71t-25 50q-5 -38 -10.5 -75t-11.5 -74q-7 -42 -26 -59t-38.5 -20t-34.5 2t-15 7
q16 97 32.5 200t32.5 208t31.5 209.5t29.5 203.5zM99 278q43 -16 78 -5.5t61 35t43.5 57.5t24.5 63t4 50.5t-17 20.5q-26 0 -55 -24.5t-55.5 -58t-48.5 -67.5t-34 -52z" />
    <glyph glyph-name="l.003" unicode="&#xe03b;" horiz-adv-x="282" 
d="M201 868q-3 -15 -14.5 -59.5t-26 -108t-29.5 -140t-25.5 -155t-14.5 -153t4 -134.5t30 -99t64 -47q34 -8 78.5 3t91 35t90.5 58.5t75.5 74.5t47.5 83t6 83q0 17 17 21t37.5 -4.5t38.5 -30t20.5 -54.5t-18.5 -77.5t-77 -99.5q-23 -22 -57 -44t-74.5 -41.5t-85.5 -35
t-89.5 -23.5t-86 -7.5t-76.5 13.5q-43 15 -69.5 52.5t-40.5 90.5t-17.5 118.5t0.5 136t13.5 142.5t21.5 138t24.5 122.5t21.5 96.5q5 19 16.5 36t27.5 25t35.5 5.5t40.5 -21.5z" />
    <glyph glyph-name="m.003" unicode="&#xe03c;" horiz-adv-x="687" 
d="M360 339q16 36 35 67t40 54.5t43.5 36.5t45.5 13q38 -2 53 -22t15 -51.5t-10.5 -72.5t-23.5 -84.5t-25.5 -88t-16 -83.5t6.5 -69.5t40 -46.5q32 -17 78.5 -19.5t98.5 6.5t104 29t94.5 48t70 64t29.5 77q4 17 21 15.5t34.5 -16t28.5 -40.5t3.5 -57.5t-39.5 -67.5t-102 -71
q-27 -14 -66 -25.5t-83.5 -18.5t-92.5 -8.5t-93.5 3.5t-85.5 18.5t-70 36.5q-42 31 -53.5 79.5t-6 103t22 109.5t31.5 98.5t21 70.5t-9 26q-15 0 -35 -25.5t-40.5 -64.5t-40.5 -86.5t-36.5 -92.5t-27 -80.5t-11.5 -51.5q4 -18 -11 -24t-35.5 -4.5t-38.5 7t-19 8.5
q-4 13 2 50.5t17.5 85t25 99.5t23 95.5t13 71.5t-5.5 28q-11 0 -29 -29t-38.5 -74t-42 -99t-40.5 -104t-33 -89t-20 -53q-5 -13 -22 -18.5t-36.5 -4t-35 10.5t-15.5 25q-3 25 0.5 64.5t11 86t16.5 96.5t18.5 96.5t18 85.5t12.5 64q34 15 54 10t29.5 -20.5t10.5 -36t-2 -36.5
q-11 -57 -26 -130.5t-25 -141.5q12 40 27 84t32.5 85.5t38 79t43.5 65.5t49 44t55 15q21 0 30.5 -17t12 -45.5t-1.5 -66t-11 -77.5z" />
    <glyph glyph-name="n.003" unicode="&#xe03d;" horiz-adv-x="510" 
d="M77 32q-1 -15 -17.5 -21.5t-36.5 -5t-37 10.5t-19 26q-2 26 2 65.5t11.5 85.5t17 95.5t19 95t18 84t13.5 62.5q36 14 55 7.5t27 -23.5t8 -39t-3 -39q-11 -53 -24 -117t-22 -125q21 55 49.5 112.5t61 104.5t67.5 76.5t68 28.5q38 -2 53.5 -22t16 -51.5t-10 -72.5
t-23.5 -84.5t-25.5 -88t-16 -83.5t5.5 -69.5t39 -46.5q31 -17 78 -19.5t98.5 6.5t103 29t93.5 48t68.5 64t28.5 77q5 17 23 15.5t36 -16t29.5 -40.5t4 -57.5t-40 -67.5t-102.5 -71q-43 -21 -107.5 -35.5t-134.5 -17t-136 10.5t-112 48q-42 31 -54 79.5t-6.5 103t22 109.5
t31.5 98.5t21.5 70.5t-7.5 26q-15 0 -38 -28t-49 -71t-51.5 -94.5t-46.5 -99t-34.5 -84.5t-14.5 -50z" />
    </font>
</defs>
</svg>
