<?xml version="1.0" standalone="no"?>
<!DOCTYPE svg PUBLIC "-//W3C//DTD SVG 1.1//EN" "http://www.w3.org/Graphics/SVG/1.1/DTD/svg11.dtd" >
<svg xmlns="http://www.w3.org/2000/svg" xmlns:xlink="http://www.w3.org/1999/xlink" version="1.1">
<metadata>
Created by FontForge 20170731 at Wed Sep 13 12:47:35 2023
 By Aleksey,,,
Honest Sky (c) Nathatype. 2022. All Rights Reserved
</metadata>
<defs>
<font id="HonestSky" horiz-adv-x="187" >
  <font-face 
    font-family="Honest Sky"
    font-weight="400"
    font-stretch="normal"
    units-per-em="2048"
    panose-1="2 0 5 3 0 0 0 2 0 3"
    ascent="1638"
    descent="-410"
    x-height="876"
    cap-height="1812"
    bbox="-1972 -1059 5418 2221"
    underline-thickness="236"
    underline-position="-578"
    unicode-range="U+0020-E13E"
  />
<missing-glyph horiz-adv-x="1613" 
 />
    <glyph glyph-name="f_f" unicode="ff" horiz-adv-x="1159" 
d="M430 -548q60 0 142 112q78 111 132 258q27 78 27 135q0 196 -183 196q-3 0 -6 -10q-74 -194 -128 -411q-30 -123 -30 -203q0 -77 46 -77zM-189 -659q50 0 115 62q60 57 121 156q59 96 95 194q36 99 36 179q0 60 -38 142q-38 79 -183 79q-3 0 -6 -5q-73 -193 -140 -463
q-43 -180 -43 -263q0 -81 43 -81zM-208 -704q-135 0 -135 173q0 110 58 309q105 369 231 651q83 198 243 510q237 459 406 562q48 27 79 27q38 0 54 -19q11 -17 11 -53q0 -93 -43 -211q-48 -125 -77 -125q-27 0 -27 22q0 4 5 17q58 119 58 254q0 29 -1 33q-63 -40 -156 -178
q-89 -130 -175 -305q-215 -428 -334 -725q27 0 43 3l31 6q159 36 299 111q159 87 273 302q0 4 1 5q13 31 43 90q238 463 406 562q48 27 79 27q68 0 65 -70q0 -47 -29 -126q-50 -137 -83 -137q-27 0 -27 22q0 5 5 18q15 33 33 77q19 53 19 102l-2 33q-71 -45 -157 -179
q-66 -99 -109 -183q-35 -67 -109 -233q-147 -327 -189 -430q27 0 43 3l31 6q161 36 300 111q136 75 245 258l51 85q17 22 36 22q11 0 11 -9q0 -12 -55 -101q-171 -283 -562 -407q35 -9 69 -50q42 -54 42 -147q0 -78 -42 -189q-39 -110 -95 -208q-55 -96 -115 -149
q-65 -57 -129 -57q-135 0 -135 173q0 157 121 500q65 177 176 431q-49 -56 -111 -110q-131 -116 -374 -194q37 -12 79 -66q41 -57 57 -154q3 -21 3 -46q0 -84 -40 -189q-43 -122 -108 -220q-71 -106 -144 -169q-78 -66 -143 -66z" />
    <glyph glyph-name="r_r" unicode="rr" horiz-adv-x="1309" 
d="M588 -35q-84 0 -84 104q0 70 36 169q72 180 87 222q49 144 49 186q0 33 -22 58q-16 12 -29.5 16.5t-66.5 15.5q-3 -7 -10 -21t-11 -21t-10 -18t-10.5 -17t-10.5 -12.5t-12 -9t-12 -2.5q-13 0 -13 11l2 6q16 33 54 99q-41 25 -41 78q0 29 11 56q19 56 58 102t91 46
q14 0 23.5 -12t9.5 -32q0 -14 -4 -26q-13 -32 -74 -153q13 -6 56 -22q36 -15 48.5 -32t21.5 -52q8 -22 8 -49q0 -56 -41 -171q-16 -43 -57.5 -138.5t-50.5 -121.5q-34 -94 -34 -150q0 -69 53 -72q49 0 98 37q52 38 102.5 97.5t143.5 199.5q123 185 238 415q-40 25 -40 76
q0 31 11 58q17 49 51.5 92t74.5 53q9 3 24 3q14 0 23 -11.5t9 -30.5q0 -17 -7 -35q-13 -32 -71 -146q14 -7 55 -22q25 -11 39 -24t19 -23.5t13 -36.5q7 -20 7 -47q0 -63 -38 -167q-2 -6 -10 -26.5t-21 -52.5t-23 -60q-55 -155 -55 -220q0 -55 36 -55q48 0 111 49t115 112.5
t109.5 148.5t84.5 130.5t50 86.5q10 17 27.5 54.5t29.5 52.5t28 15q13 0 13 -11l-2 -8q-11 -26 -55 -103q-23 -41 -49 -83.5t-71.5 -113.5t-92.5 -129.5t-100 -114.5t-108 -88.5t-102 -32.5q-85 0 -85 98q0 74 42 181q13 35 29.5 74t28 64.5t13.5 31.5q38 105 38 153
q0 36 -22 61q-15 13 -29.5 17.5t-66.5 14.5q-13 -25 -68 -120.5t-148.5 -242.5t-164.5 -239q-63 -79 -130 -124t-119 -45zM1226 837l52 104q4 11 4 17q0 8 -6 8q-4 0 -11 -7q-25 -28 -38 -63q-9 -21 -9 -39q0 -15 8 -20zM564 837l52 104q5 13 5 17q0 8 -7 8q-4 0 -11 -7
q-21 -21 -37 -61q-7 -20 -7 -38q0 -15 5 -23z" />
    <glyph glyph-name="s_s" unicode="ss" horiz-adv-x="702" 
d="M-61 13q81 0 135 145q16 45 54 223q-159 -111 -208 -247q-15 -42 -15 -71v-28q3 -22 34 -22zM328 66q74 0 126 144q15 40 23 100l13 71q-64 -44 -115 -93q-50 -50 -73 -116q-12 -30 -12 -57q0 -8 3 -28q3 -21 35 -21zM-60 -17q-69 0 -69 72q0 29 14 68q56 151 249 294
q11 43 17 78q8 39 22 159q36 289 148 361q21 12 51 12q16 0 23 -3q24 -12 24 -24v-4q-8 -18 -22 -18q-9 0 -14 5q-2 1 -7 2.5t-7 2.5q-27 0 -57 -74q-19 -47 -43 -265q-21 -162 -23 -172q234 114 283 199l11 20q8 64 24 111q64 174 162 174q14 0 22 -3q26 -13 26 -23l-2 -5
q-8 -17 -22 -17q-10 0 -14 4q-2 1 -6 2.5t-7 2.5q-12 0 -28 -20q-51 -66 -55 -205l-32 -240q233 114 281 196q19 52 48 52q13 0 13 -10q0 -6 -19 -45q-39 -55 -115 -104q-72 -46 -214 -123q-12 -136 -32 -189q-29 -79 -72 -128q-82 -91 -167 -91q-73 0 -73 82q0 127 238 300
q7 25 11 60q16 64 24 148q-28 -28 -77 -59q-57 -38 -213 -123q-28 -236 -134 -366q-81 -94 -167 -94z" />
    <glyph glyph-name="o_m" unicode="om" horiz-adv-x="1773" 
d="M941 317q-27 3 -27 39q0 39 22 123q34 130 58 195q13 34 39.5 96.5t46 110t23.5 58.5l1 3q-46 -29 -123 -124q-11 -13 -95 -123.5t-139 -162.5q-81 -78 -141 -117t-118 -43q-59 0 -94 53q-22 27 -22 74q0 53 31 141q41 113 115.5 187t152.5 74q85 0 85 -93
q0 -52 -28 -129l-21 -52q-69 -150 -152 -202q78 30 192 144q56 55 117.5 134.5t100 136t80 98.5t72.5 42q55 -4 55 -60q0 -47 -61 -238q162 200 327.5 351.5t283.5 188.5q22 5 36 5q76 0 76 -94q0 -82 -57 -241q-34 -94 -105 -258t-73 -168l-3 -8l1 -1q1 0 21 22
q98 120 162 165q59 41 109 41q30 0 48.5 -16t20.5 -48q5 -46 21.5 -67.5t51.5 -21.5q36 0 67 15t55 43.5t39 52.5t32 58q14 24 35 24q13 0 13 -11l-2 -8q-62 -143 -200 -194q-48 -19 -93 -19q-36 0 -64 13q-39 23 -46 85q-4 32 -7 38t-14 6q-33 -2 -107 -74t-156 -175
q-25 -30 -50 -30q-14 0 -14 14l3 16q27 76 92 236.5t117 299.5q48 131 48 182q0 29 -13 42t-39 15q-70 0 -232 -121q-144 -107 -292.5 -294t-186.5 -292q-5 -11 -28 -95q-15 -42 -47 -42zM488 440q91 0 180 187q26 60 36 95t10 75q0 66 -41 66q-49 0 -125 -116q2 0 7.5 -6.5
t10.5 -13.5l4 -7q-36 -24 -64 -49l-21 -50q-27 -75 -27 -128t30 -53z" />
    <glyph glyph-name="o_n" unicode="on" horiz-adv-x="1260" 
d="M1378 279q-34 0 -54.5 12t-28.5 46q-5 23 -5 44q0 63 57 227l42 114q35 102 35 135q0 37 -27 44l-12 2q-85 0 -214 -181q-103 -141 -139 -234l-11 -37q-6 -18 -21 -31.5t-31 -13.5q-30 0 -30 45q0 19 3 31q10 51 44 142q12 35 95 239q32 78 61 159q-17 -9 -42 -39.5
t-63 -85.5t-56 -79q-18 -23 -53 -70t-57.5 -76.5t-56.5 -69t-67 -70.5q-81 -78 -141 -117t-118 -43q-59 0 -94 53q-22 27 -22 74q0 53 31 141q30 86 79 146q38 50 91 82.5t98 32.5q84 0 84 -96q0 -54 -27 -128l-21 -50q-68 -148 -152 -202q79 31 192 144q55 54 127.5 154
t133 187t87.5 112q39 35 74 35q49 0 49 -60q0 -41 -24 -107q-14 -39 -24.5 -63.5t-29 -66t-36.5 -84.5l46 61q70 99 130 149t130 50q107 0 107 -96q0 -43 -22 -103q-93 -260 -107 -320q-6 -26 -6 -53q0 -46 30 -46q50 0 127 96t136 211q9 16 21.5 41.5t17.5 34.5
q14 24 35 24q12 0 12 -11l-1 -8l-46 -88q-46 -80 -104 -157.5t-88 -107.5q-36 -36 -76 -55t-68 -19zM488 440q91 0 180 187q44 104 44 169q0 67 -41 67q-47 0 -123 -116q2 0 7.5 -6.5t10.5 -13.5l4 -7q-36 -24 -64 -49q-17 -37 -22 -50q-26 -76 -26 -125q0 -56 30 -56z" />
    <glyph glyph-name="t_t" unicode="tt" horiz-adv-x="1058" 
d="M-132 2q-74 0 -104 78q-19 47 -19 122q0 30 16 165q16 110 104 355q101 276 288 667q-75 9 -347 13q-233 -9 -379 -49q-149 -41 -161 -74l-3 -14q-6 -17 -29 -20q-19 0 -19 11q0 32 63 75q108 62 249 82q144 20 383 28q118 -4 262 -14l83 166q71 150 99 190q45 59 82 59
q29 0 29 -26v-4q-25 -76 -95 -221q-21 -45 -36 -71l-50 -102l345 -25l61 -4q146 282 167 306q36 30 57 30q25 0 25 -20q0 -28 -129 -295q-5 -8 -11 -24l132 -1q360 0 588 121l44 22q149 74 156 93q1 1 3 4.5t3 6.5q18 13 27 13t9 -11q0 -25 -53 -60q-213 -139 -443 -192
q-129 -28 -353 -37q-62 -3 -135 -3q-175 -369 -215 -482l-48 -134q-72 -197 -101 -381q-11 -63 -11 -117q0 -113 60 -113q47 0 97 41q49 41 100 104q94 115 149 205q66 115 110 206q12 24 37 24q12 0 12 -10l-3 -9q-9 -28 -19 -38l-4 -11q-170 -299 -325 -454
q-102 -99 -170 -99q-134 0 -134 208q0 104 30 239q-73 -110 -134 -196q-107 -155 -173 -224q-98 -99 -167 -99zM-117 43q49 0 97 42q97 86 252 323q66 97 146 244q81 270 290 692q-121 5 -403 34l-100 -207q-100 -213 -220 -538q-51 -141 -79 -266q-31 -140 -31 -224v-52
q0 -48 48 -48z" />
    <glyph glyph-name="l_l" unicode="ll" horiz-adv-x="1309" 
d="M567 835q96 31 173 83q76 54 163 136q311 299 376 616q16 76 16 135q0 134 -69 134q-58 0 -125 -67q-74 -74 -173 -216q-70 -100 -140 -254q-69 -153 -123 -288q-2 -6 -18 -43q-32 -86 -80 -236zM1238 835q97 32 172 83q70 47 162 136q120 113 202 230q3 8 9 14
q36 51 68 106q33 62 57 127q30 85 30 169q0 41 -14 88q-12 46 -68 46q-123 0 -300 -284q-74 -116 -126 -222q-78 -159 -148 -354l-17 -51zM1216 58q-68 0 -104 41q-53 84 -53 237q0 106 20 242q-55 -95 -85 -140q-164 -259 -367 -361q-44 -19 -82 -19q-69 0 -102 41
q-55 87 -55 238q0 51 6 142q9 129 68 337q22 113 67 238q203 551 400 756q75 78 161 128q79 47 139 47q112 0 112 -153q0 -110 -59 -279q-49 -141 -163 -297q-115 -171 -289 -306q-112 -97 -272 -162l-11 -30q-37 -127 -43 -156q-28 -149 -28 -304q0 -208 99 -208
q42 0 96 33t95 74q119 119 186 230q73 117 115 203q14 31 34 68l11 47q17 63 21 84q18 82 67 225q107 293 186 417q84 133 159 216q9 9 13 16q55 66 125 110q112 65 174 65q67 0 92 -58q25 -57 25 -123q0 -97 -88 -293q-26 -55 -96 -148q-115 -171 -289 -306
q-114 -98 -272 -162l-11 -30q-37 -127 -43 -156q-28 -149 -28 -282v-22q0 -208 98 -208q42 0 99 36q62 42 93 71q173 173 297 432q20 42 38 72q16 24 35 24q13 0 13 -11q0 -16 -79 -153q-9 -11 -13 -21l-5 -8q-20 -35 -75 -118q-158 -239 -350 -337q-44 -19 -82 -19z" />
    <glyph glyph-name=".notdef" horiz-adv-x="1613" 
 />
    <glyph glyph-name=".null" horiz-adv-x="0" 
 />
    <glyph glyph-name="nonmarkingreturn" horiz-adv-x="682" 
 />
    <glyph glyph-name="space" unicode=" " horiz-adv-x="809" 
 />
    <glyph glyph-name="space" unicode="&#xa0;" horiz-adv-x="809" 
 />
    <glyph glyph-name="exclam" unicode="!" horiz-adv-x="266" 
d="M222 198q-8 0 -14 11.5t-6 26.5v5q0 23 42 137q70 195 246 622q191 464 302 686q50 102 71 121q7 6 18 6q10 0 17.5 -10t8.5 -26q0 -13 -17 -66q-14 -44 -32.5 -87t-161.5 -367q-103 -235 -255 -594.5t-178 -429.5q-6 -13 -18.5 -24t-22.5 -11zM129 -38q-31 0 -31 33
l3 19q7 18 10 24.5t10 14t18 10.5q13 5 19 5q7 0 18 -7q18 -8 18 -34q0 -10 -3 -19q-6 -15 -18.5 -28t-22.5 -15q-12 -3 -21 -3z" />
    <glyph glyph-name="quotedbl" unicode="&#x22;" horiz-adv-x="318" 
d="M958 1106h-5q-9 0 -16 9q-8 8 -8 16q0 10 7 30q40 120 75 177q6 11 21 31q11 11 24 11q10 0 15 -9l2 -16q0 -16 -6 -35l-37 -79q-29 -56 -38 -82l-6 -23q-10 -26 -28 -30zM1122 1115q-15 0 -27 10t-16 28l-1 14q0 15 12 52q37 100 69 131q16 16 21 16q4 0 14 -8
q8 -8 8 -13l-6 -22l-35 -78l-28 -54q20 -22 20 -36l-3 -16q-8 -21 -28 -24z" />
    <glyph glyph-name="numbersign" unicode="#" horiz-adv-x="1132" 
d="M918 452q-15 0 -22 11t-7 27q0 28 37 142l37 105q-53 -8 -116 -16.5t-90 -12t-56.5 -8.5t-42.5 -8t-20 -7q-18 -6 -22 -6q-14 0 -14 14v5q5 12 8 17t10.5 11.5t20.5 10.5q16 5 154.5 25.5t159.5 20.5q20 0 29 13t37 77q14 37 41 97l11 22h-68q-55 0 -175 -6l-86 -3
q-23 0 -26 5v4l2 10q6 15 14 19q29 20 274 20h85q165 360 215 402q11 8 20 8q17 0 17 -27q0 -8 -3 -20q-12 -46 -32 -92t-76 -160l-51 -106q0 -6 98 -6q115 0 120 8q121 225 152 264q12 14 27 14q12 0 16 -9q1 -1 1 -9q0 -9 -4 -21q-10 -28 -70 -139l-55 -108v-2
q13 -3 31.5 -5.5t28 -4.5t20.5 -5t18 -8q19 -12 19 -27l-2 -8q-6 -15 -25 -24l-8 -3q-1 0 -5 6q-5 22 -66 26l-39 3q-64 -122 -77 -158l-2 -3q0 -5 8 -5q43 6 221 13l53 2q43 0 43 -11l-3 -12q-6 -16 -27 -19.5t-130 -8.5q-16 -1 -25 -1l-160 -10q-11 -14 -26 -52
q-20 -48 -23 -55q-25 -71 -25 -82q0 -7 3 -16q1 -3 1 -17q0 -12 -3 -17q-9 -24 -28 -24q-10 0 -16 6q-14 12 -14 43q0 49 30 132l30 76q-219 -22 -222 -25q-6 -4 -46 -108q-5 -14 -12.5 -32.5t-10.5 -27t-7 -19.5t-5.5 -16.5t-2.5 -12t-1 -11.5l1 -11q0 -8 -5 -21
q-5 -16 -17 -25q-10 -8 -24 -8zM1071 799q16 0 116.5 9t102.5 11l84 173h-216q-79 -159 -87 -193z" />
    <glyph glyph-name="dollar" unicode="$" horiz-adv-x="1057" 
d="M718 -14q-12 0 -17 3.5t-5 15.5q0 29 65 212l53 147q-189 0 -282 107q-31 35 -31 73q0 13 5 28q9 22 26 41q15 16 32.5 29t24.5 13t10 -9q1 -2 1 -10q-5 -8 -25 -28q-23 -23 -30 -35q-1 -2 -1 -12q0 -49 83 -98t170 -49h35l235 585q-205 5 -229 8q-116 11 -135 60
q-4 16 -4 18q0 7 10 35q10 31 39 66q87 103 282 229q124 81 252 141l49 24q5 4 41.5 77t45.5 98q17 46 36 55q5 3 13 3t12 -8q5 -8 5 -12q0 -11 -11 -41q-29 -74 -49 -134q14 4 54.5 16.5t54 16t40.5 10t46.5 8.5t40.5 2q23 0 45 -6q43 -18 48 -53v-8q0 -11 -4 -22
q-11 -31 -41.5 -58.5t-64.5 -34.5l-17 -3q-6 0 -8 6l-3 9l1 8q3 9 16 19q30 17 36 38q0 4 -1.5 5t-10.5 2t-30 1q-38 0 -95 -16q-48 -13 -101.5 -32t-57.5 -25t-92.5 -210t-101.5 -237v-3q0 -2 48 -8q326 -43 334 -197v-6q0 -19 -11 -48q-19 -52 -52 -93q-75 -94 -229 -181
q-163 -92 -323 -132l-53 -13q-67 -167 -106 -275q-29 -76 -39 -93.5t-29 -18.5zM1090 1056q76 181 145 326l32 66l3 8l-2 1q-11 0 -184 -96q-67 -39 -152 -95.5t-116 -82.5q-51 -46 -58 -69l-3 -13q0 -14 23 -25q36 -17 221 -20h91zM922 432q22 0 127 39q138 52 254 126
t165 142q18 26 27 52q9 24 9 42l-1 11q-7 29 -37.5 56t-77.5 45q-61 28 -164 41l-71 10q-44 -97 -125.5 -293t-104.5 -259l-3 -12h2z" />
    <glyph glyph-name="percent" unicode="%" horiz-adv-x="1184" 
d="M818 -14h-10q-9 0 -20 12l-13 15q7 19 14.5 41.5l10 30t12 26t23 41t39.5 64.5q248 397 580 819q312 397 337 432q97 133 118 195q10 27 10 43q0 26 -19 39q-18 10 -69 14q-50 0 -84 -5.5t-126 -30.5q-147 -43 -264.5 -89.5t-159.5 -79.5l-17 -12q46 -36 46 -76
q0 -15 -7 -33q-32 -85 -165 -183q-82 -58 -125 -58q-30 0 -37 35l-2 12q0 10 16 57q18 50 50 96q60 84 138 159t138 107q35 19 50 19q8 0 16 -5l8 -1q6 0 28 8q81 35 235 79.5t224 54.5q6 1 42 1q59 0 76 -6q28 -8 44 -31t16 -53v-11q-3 -14 -13 -44q-28 -75 -93 -169
t-258 -341q-314 -399 -603 -815q-167 -239 -186 -293q-4 -8 -4 -15q0 -5 2 -7q0 -3 6 -3q37 0 268 151q249 166 405 237q40 18 41 22l-2 11l4 11q5 13 15.5 23.5t20.5 11.5q10 0 34 -53.5t30 -88.5l2 -19q0 -16 -11 -46q-21 -56 -87 -118q-43 -36 -80 -39q-36 0 -36 44
q0 22 9 52q7 26 13 38.5t34 54.5l48 69l-2 2q-60 -26 -131.5 -65.5t-123 -71.5t-195.5 -122q-146 -93 -186 -115t-74 -28zM958 1259q27 0 96 53q89 67 110 112q7 13 7 22q0 12 -24 30q-13 13 -19 13q-4 0 -37.5 -36t-61.5 -71q-61 -74 -74 -106q-2 -3 -2 -9q0 -5 2 -7z
M1490 206q9 0 44 37t41 52l2 9l-3 22q0 25 -5 25q-4 0 -39 -58q-29 -47 -40 -72q-1 -2 -1 -11q0 -4 1 -4z" />
    <glyph glyph-name="ampersand" unicode="&#x26;" horiz-adv-x="1173" 
d="M830 -14q-19 0 -19 31q0 36 24 126q14 47 14 57l-1 3l-30 -7.5t-28.5 -7t-24.5 -6t-25 -6t-21.5 -4t-22.5 -3.5l-20 -2.5t-22 -2t-21 -0.5q-64 0 -113 25q-82 40 -82 131q0 47 20 101q17 49 62 126q91 149 225 281t276 212q8 5 17 10.5t13.5 8t5.5 3.5q0 3 -11 3l-76 -5
q-73 -4 -146 -4q-74 0 -93 6q-52 16 -52 57q0 18 6 31q11 38 76 109q103 111 263 216t323 167q15 6 33 13t20.5 6.5t11 7.5t8.5 10t9 19.5t16 31.5q32 65 39 74q7 11 19 11q8 0 11 -11q0 -8 -3 -16q-12 -28 -51 -102l4 -2q19 5 55 13.5t49.5 11.5t39 7.5t49 7t54.5 3.5
q104 0 155 -20.5t61 -72.5q1 -3 1 -16q0 -20 -6 -36q-27 -70 -104 -139q-24 -23 -53.5 -44t-36.5 -21q-4 0 -8 6t-4 12v3q7 11 39 38q89 80 110 134q5 15 5 23v5q0 30 -27.5 42.5t-93.5 12.5q-122 0 -285 -53l-56 -18q-3 -8 -8 -22q-14 -38 -20.5 -51t-16.5 -13
q-13 0 -13 11q0 8 8 30l11 30q-140 -62 -213.5 -99.5t-167.5 -101.5q-98 -66 -165.5 -126t-80.5 -93l-3 -15q0 -7 16 -14q14 -8 29 -9.5t75 -3.5h42q20 0 44 0.5t31.5 1t19.5 0.5t16.5 0.5t12.5 1t17 1t21.5 1.5t34 3t47.5 4q19 -22 19 -30l-1 -8q-11 -26 -92 -66
q-55 -28 -125 -75.5t-113 -85.5q-175 -158 -286 -355q-31 -59 -43 -91q-16 -44 -16 -79q0 -77 87 -110q30 -9 80 -9q45 0 76 5t93 23l18 4t13 3.5t7.5 1.5t5 4t3 5.5t5 11t6.5 16.5q13 42 29 42q2 0 5 -0.5t4 -1t2.5 -1.5t2 -3t0.5 -5l-5 -22l-8 -28q272 99 408 176
q66 39 107 82q18 19 30 19q10 -3 10 -10l-2 -7q-5 -15 -25 -35q-67 -73 -271 -165q-50 -22 -134 -55t-118 -43l-27 -10q-39 -137 -42 -190q0 -18 -4 -30q-4 -11 -14 -11z" />
    <glyph glyph-name="quotesingle" unicode="'" horiz-adv-x="168" 
d="M958 1106h-5q-9 0 -16 9q-8 8 -8 16q0 10 7 30q40 120 75 177q6 11 21 31q11 11 24 11q10 0 15 -9l2 -16q0 -16 -6 -35l-37 -79q-29 -56 -38 -82l-6 -23q-10 -26 -28 -30z" />
    <glyph glyph-name="parenleft" unicode="(" horiz-adv-x="535" 
d="M712 -14q-29 0 -40 2t-23 12q-88 63 -88 318q0 102 17 233q20 136 37 212.5t48 158.5q127 369 408 686q59 68 127.5 130.5t102.5 81.5q26 14 46 14q5 0 24 -7q15 -10 15 -28l-3 -14q-4 -11 -10.5 -15t-22.5 -4q-32 -3 -131 -98q-210 -201 -365 -482q-84 -149 -148 -324
q-33 -95 -44 -150q-41 -182 -41 -369q0 -72 8 -141q11 -91 41 -133q15 -19 26.5 -24.5t40.5 -5.5q32 0 35 -9q2 -3 2 -10l-2 -12q-8 -12 -11 -16q-6 -6 -49 -6z" />
    <glyph glyph-name="parenright" unicode=")" horiz-adv-x="608" 
d="M128 -14q-16 0 -23 3.5t-7 15.5q2 11 8 17t25 14q34 13 153 129t275 289q124 138 187 221.5t114 175.5q32 61 65 154q38 105 50 164q36 165 36 299q0 128 -34 230q-10 27 -18.5 40.5t-30.5 33.5q-6 6 -6 13l1 8q3 9 16 19q4 4 14 4q21 0 45.5 -29t38.5 -73
q31 -102 31 -227q0 -207 -79 -441q-6 -15 -18.5 -51t-16 -45t-13.5 -34t-18 -39t-20.5 -37.5t-28.5 -50.5q-52 -89 -120 -177t-187 -218q-160 -173 -282 -287t-157 -121z" />
    <glyph glyph-name="asterisk" unicode="*" horiz-adv-x="567" 
d="M1196 1093q-24 7 -24 48q0 44 24 110q15 41 15 49q0 3 -6 9q-5 5 -8 5q-10 0 -119 -68l-79 -49l-5 -1q-14 0 -14 20l1 6q4 8 48 40.5t94 62.5q41 24 41 25q0 6 -37.5 40t-44.5 36q-17 3 -17 17l3 11q6 28 36 28q14 0 29.5 -11t44.5 -41q41 -42 49 -42q4 0 16 6
q12 7 18 16.5t26 54.5q88 188 102 199q7 6 16 6q7 0 12.5 -7.5t5.5 -19.5q0 -10 -5 -19q-4 -14 -51 -110q-24 -47 -29 -61v-4q3 0 63 30q94 49 118 49q12 0 15 -14l-1 -11q-11 -19 -19 -22q-10 0 -16 -2q-8 0 -97.5 -46t-96.5 -53q-5 -5 -14 -30l-11 -27q6 -6 21.5 -21
t21 -20.5t18 -17t20 -17.5t19 -13.5t22.5 -14.5q33 -21 37 -34q-4 -13 -5.5 -18t-6.5 -11.5t-13 -7.5q-31 0 -118 74q-39 37 -41 37q-3 0 -8 -13q-24 -75 -24 -99v-10q0 -13 -3 -22q-8 -22 -23 -22z" />
    <glyph glyph-name="plus" unicode="+" horiz-adv-x="792" 
d="M1052 550q-20 0 -20 61q0 76 64 293l7 18q-16 -1 -29 -2t-39.5 -3.5t-54.5 -4.5q-48 -7 -137 -11l-73 -3q-1 4 -2 8.5t-1.5 7t-0.5 4.5l1 8q14 22 25 28.5t52 14.5q19 4 135.5 13.5t134.5 9.5q8 0 14.5 14t40.5 100q6 15 15 38q28 75 36 83q2 2 7 5q16 13 18 13
q11 -4 14.5 -7t3.5 -9v-3q-78 -218 -78 -226q35 1 88 4.5t101 5.5l50 1q32 0 43 -6q19 -7 19 -22l-2 -8q-5 -10 -14 -19q-11 -11 -22 -11l-32 2q-46 0 -129 -8l-120 -10q-6 0 -11 -14q-31 -106 -41 -143t-20 -87t-10 -88l2 -13l-2 -7q-3 -7 -11 -15q-12 -12 -22 -12z" />
    <glyph glyph-name="comma" unicode="," horiz-adv-x="200" 
d="M181 74q-11 0 -14 14q0 9 2 14q4 12 23 32q57 68 101 176q21 57 30 60q7 3 11 3q8 0 16 -11q4 -7 4 -19q0 -17 -7 -39q-36 -91 -88 -160.5t-78 -69.5z" />
    <glyph glyph-name="hyphenminus" unicode="-" horiz-adv-x="664" 
d="M799 923q-8 21 -8 27l1 11q10 27 49 36q43 8 199 16q17 2 77 2q176 0 198 -8q21 -6 33.5 -18t12.5 -25l-1 -11q-11 -27 -30 -27q-8 0 -22 8q-19 11 -86 13q-217 0 -356 -16z" />
    <glyph glyph-name="hyphenminus" unicode="&#xad;" horiz-adv-x="664" 
d="M799 923q-8 21 -8 27l1 11q10 27 49 36q43 8 199 16q17 2 77 2q176 0 198 -8q21 -6 33.5 -18t12.5 -25l-1 -11q-11 -27 -30 -27q-8 0 -22 8q-19 11 -86 13q-217 0 -356 -16z" />
    <glyph glyph-name="period" unicode="." horiz-adv-x="173" 
d="M399 340q-23 0 -27 13q-3 5 -3 14q0 11 1 13q4 13 22 26t33 13q27 0 27 -25l-3 -14q-13 -40 -50 -40z" />
    <glyph glyph-name="slash" unicode="/" horiz-adv-x="831" 
d="M82 -72q-11 0 -15 3.5t-4 13.5v6q2 14 10.5 27.5t65.5 93.5q93 133 316 438q676 922 815 1094q45 57 89.5 107.5t56.5 59.5q14 9 19 9q4 0 13 -9q6 -6 6 -13t-5 -17q-10 -28 -67 -106t-207 -271q-263 -338 -740 -978l-273 -367q-43 -61 -56 -76t-24 -15z" />
    <glyph glyph-name="zero" unicode="0" horiz-adv-x="1280" 
d="M726 -9q-44 0 -77 9q-202 50 -202 317v17q4 161 78 362q92 255 276.5 510.5t416.5 442.5q76 61 151.5 107.5t120.5 59.5q26 8 52 8q31 0 46 -11q22 -22 22 -50q0 -11 -5 -24t-22 -34q-19 -19 -30 -19q-9 0 -15 6q-5 8 -16 8q-9 0 -33.5 -11t-26.5 -16v-2q10 -6 37.5 -24
t34 -22t26 -17t26.5 -19t21 -17t24.5 -21t22.5 -23q69 -77 102 -162.5t40 -212.5q3 -41 3 -77q0 -138 -44 -260q-42 -114 -139 -250q-36 -50 -93 -114.5t-105 -108.5q-118 -110 -257 -197.5t-258 -126.5q-91 -28 -177 -28zM753 57q177 0 424 159q184 116 324.5 276.5
t198.5 318.5q16 48 22 78q20 86 20 160q0 73 -19 162q-27 140 -78.5 209.5t-184.5 147.5q-77 45 -80 48l-5 3q-5 0 -41 -25q-115 -83 -263 -233q-195 -200 -335 -432q-93 -150 -145 -297q-65 -177 -65 -317q0 -55 13 -107q10 -33 37.5 -71t52.5 -52q52 -28 124 -28z" />
    <glyph glyph-name="one" unicode="1" horiz-adv-x="434" 
d="M463 -8q-18 0 -26 10t-8 39q0 22 4 47q7 44 54 172q55 151 143 352.5t276 611.5q75 161 121 266q35 82 52 126q30 85 30 111q0 6 -3 9q-5 3 -39 3q-38 0 -92 -16q-53 -15 -64 -15q-15 3 -15 28l4 16q10 28 54 55.5t108 46.5q30 8 53 8q55 0 79.5 -22.5t24.5 -76.5
q0 -28 -8 -73q-10 -46 -25 -83q-32 -92 -130 -287q-57 -108 -144 -296q-247 -510 -357 -796q-10 -26 -20.5 -54t-15 -40.5t-9 -26t-6 -21t-1.5 -15.5l1 -25q0 -12 -3 -21q-2 -4 -6 -11t-5 -9t-4 -5.5t-5.5 -4.5t-7 -2t-10.5 -1z" />
    <glyph glyph-name="two" unicode="2" horiz-adv-x="1087" 
d="M156 -14q-15 0 -29 11t-14 25l2 8q18 50 56.5 91t175.5 161q23 21 36 32l461 396q233 200 351.5 312t208.5 216q128 149 171 266q19 48 19 89q0 105 -126 135q-40 10 -110 10q-91 0 -143 -11q-120 -24 -236.5 -73t-204.5 -112q-45 -34 -46 -36q0 -3 6 -3q17 0 32 5
q17 4 31 4q23 0 27 -12q2 -3 2 -10t-4 -17q-3 -7 -6 -9q-4 -2 -15 -6t-14.5 -5.5t-12.5 -4.5t-12.5 -4t-10.5 -3.5t-11.5 -3t-11 -1.5t-12.5 -1.5t-12 -0.5q-27 0 -39 9q-13 13 -13 32q0 11 5 26q10 24 28 46q23 25 81.5 66t114.5 70q221 117 431 137q27 3 74 3
q186 0 248 -96q30 -45 30 -108q0 -56 -26 -126q-49 -139 -193 -304q-147 -169 -457 -431l-203 -170q-234 -197 -418.5 -358.5t-188.5 -174.5l-2 -1l2 -2q274 102 531 102q80 0 139 -11q199 -34 241 -88l-2 -12q-5 -15 -18 -32t-23 -17l-8 3q-30 26 -55 41t-98 34t-182 26
l-51 1q-124 0 -268.5 -32.5t-207.5 -74.5q-7 -6 -20 -6z" />
    <glyph glyph-name="three" unicode="3" horiz-adv-x="1192" 
d="M550 -13q-273 21 -273 208l2 22q5 55 22 100q43 119 183 239q119 102 232.5 148t179.5 46q29 0 29 -11l-2 -10q-1 -2 -4 -7t-4 -6t-5 -3.5t-10 -3t-15 -0.5q-70 0 -175.5 -47t-197.5 -126q-125 -108 -165 -216q-11 -27 -21 -81l-1 -31q0 -103 107 -136q44 -14 127 -14
q57 0 120 10q187 29 364 122t288 221q90 101 128 202q28 84 28 135q0 73 -46 144q-37 61 -97.5 98.5t-157.5 61.5q-90 22 -209 22q-79 0 -134 -6l-51 -3q-17 0 -21 3t-4 14q1 7 10 22q12 13 94 46q224 91 317.5 135t174.5 97q88 57 156.5 122t81.5 104q3 12 3 16
q0 15 -11.5 32.5t-29.5 29.5q-56 37 -170 37q-120 0 -241 -40q-74 -25 -144 -65t-99 -74q-15 -15 -19 -21q0 -6 3 -9q7 -13 54 -24q14 -3 14 -15l-2 -8q-9 -24 -36 -32q-18 -5 -31 -5q-25 0 -44.5 11.5t-26.5 31.5q-3 9 -3 17q0 12 8 35q23 61 105 123q84 66 202 109.5
t238 54.5l53 3q99 0 166.5 -32.5t82.5 -87.5q6 -17 6 -35q0 -25 -15 -63q-39 -98 -197 -215q-190 -139 -475 -245l-36 -14l79 -6q439 -30 493 -295q6 -24 6 -64q0 -68 -30 -151q-72 -200 -272.5 -361.5t-462.5 -228.5q-46 -12 -112 -21t-107 -9z" />
    <glyph glyph-name="four" unicode="4" horiz-adv-x="1216" 
d="M1263 -14q-43 0 -47 58v16q0 78 60 241q56 149 99 247q40 98 48 111l6 12q-151 -3 -225 -3q-154 0 -240 8q-148 16 -153 16q-15 0 -66 -38q-133 -98 -198 -112l-10 -2q-27 0 -27 26l5 18q14 38 71.5 78.5t128.5 62.5q36 10 59.5 28t106.5 98q192 189 333.5 399.5
t219.5 424.5q12 29 23 56.5t15.5 40t9.5 24t8 16.5t7 9q11 11 23 11q10 0 19 -9q8 -8 8 -30q0 -50 -38 -155q-159 -440 -619 -860q-38 -36 -38 -38q0 -1 48 -7q30 -4 73.5 -10.5t64 -8.5t60 -5.5t89 -4.5t122.5 -1l98 1q27 1 34 9q9 11 35 72q149 336 218 474
q176 357 222 392q7 6 19 6q19 0 22 -20v-8q0 -18 -13 -58q-24 -65 -153 -333l-176 -372q-43 -99 -68 -149l-6 -13l42 6q11 1 26.5 7t31 13.5t19.5 8.5l21 5q2 0 6 -4l2 -9q0 -4 -2 -6q-10 -31 -102 -40q-28 -3 -37 -5t-13.5 -4.5t-7.5 -10.5q-24 -48 -90.5 -207t-94.5 -236
q-6 -19 -16 -47.5t-13 -38.5t-6 -23.5t-3 -24.5l5 -39q0 -14 -5 -27q-13 -33 -41 -36z" />
    <glyph glyph-name="five" unicode="5" horiz-adv-x="1107" 
d="M826 -14q-94 0 -143.5 55t-49.5 148q0 73 30 156q41 114 134.5 227t228.5 198q36 21 47 21q12 0 12 -14l-1 -10q-9 -23 -25 -27q-10 -3 -48 -28q-112 -71 -193.5 -171t-118.5 -201q-26 -72 -26 -134q0 -77 42.5 -122.5t127.5 -45.5q209 0 504 302q153 161 221 347
q40 113 40 219q0 39 -1 46q-21 253 -277 253q-61 0 -125 -16t-167 -59q-85 -34 -112 -34t-36 30l-1 13q0 24 15 65q19 53 95 209q133 266 156 299l3 5q0 2 -3 2q-13 -1 -96 -18q-50 -11 -62 -11q-12 3 -12 13l1 8q36 70 416 94q120 9 166 10q263 0 311 -10q55 -10 88 -28.5
t35 -42.5v-6l-1 -14q-8 -17 -21 -17q-11 0 -20 12q-18 24 -59 35.5t-130 15.5q-11 1 -82 1q-260 0 -426 -23l-20 -4q-66 -182 -224 -475q-31 -59 -34 -66v-2q62 18 127 37t84 24.5t43 10.5t54 8l49 3q116 0 198 -58t109 -160q16 -60 16 -125q0 -105 -46 -232
q-42 -108 -82.5 -177t-113.5 -160q-305 -376 -597 -376z" />
    <glyph glyph-name="six" unicode="6" horiz-adv-x="1288" 
d="M710 -38q-110 0 -177.5 41t-99.5 136q-20 59 -20 140q0 161 74 365q64 175 178 361q132 212 327.5 410t385.5 310q109 64 180 82q24 6 55 6q59 0 82 -34q11 -18 11 -38q0 -10 -3 -22l-13 -22q-9 -14 -14.5 -19t-16.5 -7l-13 -3q-10 0 -25 11q-20 13 -38 13q-21 0 -41 -6
q-108 -27 -288 -163q-176 -132 -334 -312t-265 -370q-47 -86 -71 -137t-52 -127q-61 -167 -61 -276q0 -28 5 -65q10 -80 48.5 -133t100.5 -71q54 -12 97 -12q23 2 42 5q-3 4 -8 11.5t-7 11t-4.5 9t-3.5 11t-1 11.5q0 4 1 9.5t3 14t3 14.5q5 22 9 31q33 93 133.5 239
t195.5 238q105 103 239.5 170t235.5 67q72 0 106.5 -25t38.5 -82l1 -22q0 -24 -17 -70q-19 -57 -49 -105q-108 -175 -342 -347q-148 -111 -304 -176.5t-284 -72.5zM832 35q175 46 335 140q49 28 139.5 95.5t136.5 109.5q116 110 165 193q25 36 38 78q16 44 16 71l-2 15
q-2 24 -16 41.5t-34 23.5q-21 8 -55 8q-47 0 -101 -18q-84 -28 -175.5 -85.5t-159.5 -122.5q-96 -90 -188.5 -219t-125.5 -217q-14 -39 -14 -53q0 -19 20 -26q16 -6 19 -20z" />
    <glyph glyph-name="seven" unicode="7" horiz-adv-x="1052" 
d="M402 -14q-4 0 -11 9q-3 9 -3 18v4q5 13 42 64.5t85 109.5q63 75 285.5 337t240.5 280l3 5q0 1 -9 1q-130 -4 -307 -28l-77 -9q-1 5 -4 11t-3 9l2 6q4 9 13 16q29 25 341 44l93 7q284 345 358 446q80 110 121 196q11 21 19 43q11 30 11 58v11q-1 19 -15.5 40.5t-33.5 33.5
q-56 32 -171 32q-154 0 -397 -54q-100 -23 -117 -23q-8 0 -13 11q-1 2 -1 11t1 11q4 15 24 26q38 24 192 59q133 30 254 39q30 3 82 3q266 0 266 -170l-2 -28q-3 -29 -20 -74q-31 -85 -63 -133q-50 -84 -124.5 -180.5t-225.5 -272.5l-71 -82q51 -1 110.5 -1t86.5 -0.5
t33 -1.5q104 -14 106 -32q0 -6 -2 -9q-11 -24 -22 -24l-31 8q-21 6 -172 9h-66q-84 0 -85 -1q-7 -3 -238 -271q-385 -447 -432 -512q-32 -42 -44 -49q-3 -3 -9 -3z" />
    <glyph glyph-name="eight" unicode="8" horiz-adv-x="1200" 
d="M559 -14q-63 0 -96 6.5t-68 26.5q-25 14 -48 45.5t-33 63.5q-8 32 -8 74q0 91 36 186q49 139 164 288q87 110 188.5 206.5t184.5 147.5l39 24q-34 90 -34 159q0 62 27 136q9 28 25 56q82 165 253 285q132 93 254 117q43 8 49 8t33 -5q50 -8 69 -42q14 -22 14 -51
q0 -18 -11 -53q-22 -61 -85 -133q-81 -92 -210 -219t-224 -209l-60 -52q-3 -5 -3 -8q0 -5 7 -16q56 -58 218 -167q104 -71 146 -106.5t71 -76.5q41 -60 41 -116q0 -34 -14 -73q-39 -104 -183 -217q-119 -92 -292 -169.5t-327 -106.5q-58 -9 -123 -9zM986 1071
q178 151 383 363q162 169 184 233l7 20v14q0 36 -24 49q-23 13 -61 13q-19 0 -46 -5q-58 -12 -136 -53t-135 -90q-95 -84 -142 -162q-35 -56 -49 -98q-23 -63 -23 -131q0 -74 33 -135zM607 65q72 0 111 7q99 19 219 66t219 106q47 27 102 66.5t83 67.5q71 65 93 125
q6 16 6 37v11q-7 54 -58 107.5t-186 146.5q-104 70 -133 95q-47 36 -66 58l-23 22l-48 -33q-132 -91 -264.5 -238.5t-203.5 -284.5q-23 -43 -33 -76q-30 -81 -30 -145l2 -28q17 -77 112 -103q27 -7 98 -7z" />
    <glyph glyph-name="nine" unicode="9" horiz-adv-x="960" 
d="M608 -9q-20 0 -38 6q-31 13 -31 49q0 13 5 28q26 60 50 60q11 0 11 -14q0 -6 -5 -19q-3 -7 -6.5 -13.5t-5 -10l-3 -7t-1.5 -7.5l2 -5q9 -9 33 -9q47 0 136 33q45 19 94 53q158 115 312 345t276 533l31 76l-66 -73q-151 -168 -296.5 -276.5t-254.5 -134.5q-24 -6 -63 -6
q-36 0 -57 8q-85 37 -85 189q0 54 14 130q10 47 36 117q46 124 84 191q146 262 357 436q61 51 131 88t126 49q24 6 59 6q60 0 95.5 -31t42.5 -90l2 -24q0 -40 -21 -99q-32 -78 -41 -88q-5 -5 -11 -5q-4 0 -8 3q-8 5 -8 18q0 12 13 56q16 57 16 93q0 53 -49 74q-29 8 -36 8
q-68 0 -186 -83t-222 -205q-82 -97 -151 -213t-106 -217q-14 -40 -21 -66q-22 -78 -22 -147q0 -80 37 -105q18 -10 45 -10q60 0 128 32q93 41 209 137.5t234 229.5l91 110l32 41q65 213 78 247q14 39 33 79q27 51 54.5 81.5t46.5 30.5q13 -5 18.5 -8t10 -12.5t4.5 -26.5
q0 -25 -8 -54q-4 -18 -14 -41q-50 -134 -131 -252q-22 -32 -33 -56t-53 -133q-216 -565 -500 -866q-85 -90 -157 -140t-151 -72q-60 -18 -106 -18zM1648 1451q2 0 38 80l3 13q-1 0 -8 -13t-15 -31.5t-12 -31.5z" />
    <glyph glyph-name="colon" unicode=":" horiz-adv-x="171" 
d="M632 953q-18 0 -18 28q0 12 5 27q10 22 19 29t17 7q9 0 15 -6q11 -11 11 -31l-4 -16q-4 -13 -19 -25.5t-26 -12.5zM406 364q-9 0 -17 13q-5 5 -5 14t5 19q10 35 47 56q13 8 26 8q12 0 18 -11v-5q0 -8 -3 -17q-5 -14 -11 -16q-4 -4 -12 -22q-6 -15 -11.5 -21.5
t-18.5 -12.5q-10 -5 -18 -5z" />
    <glyph glyph-name="semicolon" unicode=";" horiz-adv-x="174" 
d="M602 970q-19 0 -19 21q0 9 5 24q12 30 30 48q7 7 18 7q13 0 24 -10.5t11 -26.5v-4q-1 -1 -3.5 -7t-3.5 -7.5t-4 -6.5t-4.5 -7l-4.5 -6t-5.5 -6t-6.5 -5t-8 -5t-9 -4q-13 -5 -20 -5zM354 274q-14 0 -14 10l2 6q4 10 14 20q16 20 30 60q10 27 13 46q5 19 12 24l13 7
q6 0 11.5 -13.5t5.5 -27.5v-3q-12 -46 -39.5 -87.5t-47.5 -41.5z" />
    <glyph glyph-name="less" unicode="&#x3c;" horiz-adv-x="519" 
d="M1114 736q-9 0 -38 17q-66 37 -120 60q-123 58 -150.5 75.5t-27.5 39.5v6q0 7 3 14q7 24 43 57q31 30 151.5 112t218.5 140q50 29 63 29t17 -19q0 -9 -1 -10q-10 -24 -54 -49q-82 -48 -226.5 -145t-148.5 -107v-1q0 -13 147 -89q90 -46 120 -65.5t30 -33.5l-2 -6l-2 -4
t-3 -4.5t-3 -4.5q-9 -12 -17 -12z" />
    <glyph glyph-name="equal" unicode="=" horiz-adv-x="518" 
d="M1251 1081l-6 1q-42 15 -96 21.5t-163 8.5q-74 2 -94 4.5t-24 8.5q-3 5 -3 9v3q3 8 14 16q11 10 43 10q319 -9 351 -41q5 -8 5 -13l-2 -8q-11 -20 -25 -20zM821 900q-10 0 -12 2t-2 10q1 11 3 16.5t8.5 10.5t19.5 9q28 7 149.5 20.5t209.5 17.5q14 0 18 -2.5t6 -11.5v-11
q-2 -7 -7.5 -11t-29.5 -9.5t-69 -9.5q-13 -1 -52 -5.5t-95 -11t-124 -13.5z" />
    <glyph glyph-name="greater" unicode="&#x3e;" horiz-adv-x="519" 
d="M756 736q-13 0 -16 19q0 6 2 11q8 22 52 47q82 47 227 144t150 108q0 11 -149 90q-89 46 -118.5 65.5t-29.5 33.5l2 6q3 8 8 13q10 13 17 13q5 0 36 -18q60 -34 122 -60q125 -59 151.5 -76t26.5 -40v-5q0 -7 -3 -14q-9 -24 -45 -57q-31 -30 -151.5 -112t-218.5 -140
q-47 -28 -63 -28z" />
    <glyph glyph-name="question" unicode="?" horiz-adv-x="806" 
d="M525 239q-22 0 -31.5 8t-9.5 29q0 20 9 49q14 35 32 66q72 127 257.5 357.5t430.5 499.5q133 144 193 216t86 122q12 30 12 48q0 48 -58 69q-36 13 -101 13q-63 0 -126 -13q-88 -19 -173.5 -53t-138.5 -71q-23 -19 -23 -21v-2q0 -10 72 -18q57 -7 57 -26l-2 -8
q-4 -12 -14.5 -16.5t-40.5 -9.5q-32 -5 -53 -5q-89 0 -89 54l2 11q13 37 37 66.5t73 59.5q74 46 185 82.5t204 44.5q30 3 59 3q74 0 123 -20.5t63 -57.5q9 -24 9 -43q0 -22 -14 -61q-3 -8 -10 -25.5t-9 -22t-7 -17t-8 -17t-8.5 -14.5t-11.5 -18.5t-14 -19.5
q-71 -104 -307 -352q-227 -239 -416.5 -477t-218.5 -321l-11 -33l22 1q17 0 17 -16l-1 -9q-12 -29 -47 -32zM432 -14q-12 0 -16 11v5q0 9 5 22q18 48 39 61q8 5 16 5q17 0 17 -24q0 -13 -8 -34q-6 -19 -25 -34q-17 -12 -28 -12z" />
    <glyph glyph-name="at" unicode="@" horiz-adv-x="1104" 
d="M989 252q-267 11 -327 246q-16 69 -16 126q0 131 60 296q119 333 381 528q148 109 296 138q43 8 90 8q73 0 109 -12q89 -32 141 -107q63 -94 63 -240q0 -82 -18 -157q-9 -35 -26 -79q-46 -133 -113 -230q-40 -60 -97.5 -113.5t-99.5 -71.5q-34 -14 -65 -14q-21 0 -34 7
q-26 12 -41.5 47t-15.5 86l3 45q12 86 49 201l2 8q-4 0 -24 -38q-162 -293 -246 -293q-20 2 -29 14.5t-9 45.5q0 47 24 112q13 36 32 71q54 101 117 164t111 63l32 -7q11 0 18 16q0 3 11 14q8 8 19 8q16 0 21 -17l1 -11q0 -24 -41 -177q-42 -154 -42 -223q0 -22 3 -38
q12 -49 55 -49t106 49t117 131t89 178q44 121 47 233q0 141 -56 224q-57 87 -161 108q-13 3 -50 3q-71 0 -120 -12q-85 -23 -177 -74q-107 -62 -201.5 -161t-162.5 -220q-23 -43 -63 -149q-40 -110 -50 -170q-8 -61 -8 -110q0 -91 24.5 -160.5t84.5 -120.5t154 -67
q29 -6 70 -6q47 0 94 10.5t81 25t62.5 31t42.5 27t17 14.5q5 5 13 5q11 0 13 -6l-2 -14l-5 -7q-52 -47 -149 -88t-204 -41zM1084 703q14 0 53 43t74 98q60 92 79 144l2 9q0 5 -3 5q-11 0 -41 -24q-58 -46 -118 -152q-27 -48 -43 -92q-8 -21 -8 -27l2 -3z" />
    <glyph glyph-name="A" unicode="A" horiz-adv-x="1874" 
d="M1883 -151q-11 0 -21 11t-11 30l-1 20q0 143 160 794l41 167q-149 13 -239 43l-22 6q-1 -1 -8.5 -10.5t-22.5 -29.5t-28 -36q-289 -379 -520 -582q-92 -82 -203 -150t-197 -95q-58 -15 -116 -15q-42 0 -62 6q-98 24 -154.5 114.5t-56.5 220.5v5q5 116 51 243
q52 146 151.5 280t224.5 225q135 95 260 114q26 6 63 6q50 0 120 -20q47 -14 86 -31t120 -58q209 -110 240 -110h1q15 15 139.5 201.5t237.5 362.5q103 160 127.5 196t39.5 48q18 15 23 15q8 0 18 -15l14 -14l6 -12l2 -13q0 -40 -44 -186q-102 -349 -145 -509
q-35 -144 -38 -149q0 -7 27 -7q67 0 212.5 22.5t176.5 39.5q7 6 14 6q3 0 6 -9q0 -8 -1 -10q-5 -18 -46 -33q-34 -14 -179 -36t-199 -22h-24q-193 -751 -205 -931l-1 -13q0 -16 9 -25q8 -8 8 -14l-3 -11q-8 -23 -31 -30zM2051 915q13 0 13 3q64 254 148 542l47 159v4
q-1 0 -64 -101q-193 -303 -328 -492l-44 -63q0 -3 22 -10.5t58.5 -16t73.5 -15.5q55 -10 74 -10zM696 63q132 0 298 107q172 108 405 381q86 101 189.5 238t111.5 161v3q-101 40 -247 114q-92 48 -191 78q-60 19 -126 19q-43 0 -79 -9q-92 -22 -195 -95q-175 -130 -289 -331
q-33 -60 -59 -134q-32 -86 -40 -140q-8 -56 -8 -97q0 -66 18 -125q15 -49 51 -92.5t75 -60.5t86 -17z" />
    <glyph glyph-name="B" unicode="B" horiz-adv-x="1677" 
d="M681 -96q-94 0 -163 28q-59 22 -91.5 73t-32.5 118q5 41 22 88q18 51 37.5 83.5t58.5 78.5q79 93 181.5 160t267.5 135q220 90 320 90q34 0 49 -11q20 -17 20 -41q0 -10 -1 -11q-2 -7 -13 -16l-6 -2q-3 0 -16 15q-10 15 -19 20t-27 5q-168 -9 -463 -159
q-124 -63 -212 -146t-131 -177q-22 -61 -22 -98q0 -98 78 -145q55 -32 147 -36l30 -2q121 0 278.5 47.5t310.5 129.5q209 113 383 277.5t285 352.5q27 48 61 139q22 64 27.5 84.5t7.5 50.5q2 16 2 44q0 95 -43 161q-73 124 -235 161q-44 11 -140 11q-29 0 -77 -4
q-79 -9 -118 -18t-103 -35q-182 -74 -230 -74q-18 0 -23 9l-2 10l2 9q1 2 3 5.5t3 4.5l4.5 4.5t8.5 6t13.5 7t21.5 10t31 13.5q75 32 156 55q90 27 104 33q50 19 113 62.5t98 83.5q26 29 41 68q9 29 9 36q0 8 -4 19q-6 13 -27 32q-12 8 -25 9.5t-59 1.5q-55 0 -97.5 -9.5
t-108.5 -36.5q-88 -35 -177 -90q-5 -3 -12 -7q-23 -13 -34.5 -31.5t-56.5 -115.5q-6 -13 -9.5 -20t-9 -19t-10.5 -23q-104 -227 -209 -480l-52 -131q4 -25 4 -50q0 -29 -11 -62q-11 -23 -11 -30q0 -4 2 -6q1 -2 1 -11q0 -10 -3 -16q-6 -17 -17 -30q-35 -39 -65 -39
q-26 0 -30 31l-1 13q0 27 28 115l22 76q-49 74 -69.5 118t-20.5 91q0 50 26 122q53 145 241 326q46 46 96 86q49 43 52 49l38 74q38 68 47 77q18 18 31 18q24 0 24 -38l-3 -24l-5 -20q195 116 350 148q33 5 68 5q69 0 96 -13q26 -12 41 -36t15 -52q0 -23 -9 -49
q-17 -47 -55 -91q-34 -40 -79 -76l-47 -39h107q72 0 96 -2.5t58 -12.5q93 -26 159 -78q128 -104 128 -268q0 -53 -14 -117q-6 -27 -25 -82q-30 -86 -73 -159q-96 -167 -252 -322t-343 -270q-177 -111 -377 -181q-191 -68 -335 -68zM744 870q163 416 217 542l25 56l2 7
q-4 0 -58 -53t-90 -92q-106 -121 -137 -208q-18 -52 -18 -89q0 -64 38 -126z" />
    <glyph glyph-name="C" unicode="C" horiz-adv-x="1105" 
d="M729 -95q-65 0 -102 15.5t-80 65.5q-61 67 -85 175q-15 73 -15 138q0 62 13 147q24 135 82 298q104 287 280.5 547t360.5 392q111 80 210 113q47 14 86 14q99 0 147 -69q44 -68 44 -185q0 -72 -21 -129q-9 -20 -28 -20q-14 0 -14 11l1 6q26 70 26 132q0 36 -10 89
q-10 50 -50 88.5t-93 38.5q-64 0 -160 -69t-187.5 -166t-177.5 -211q-192 -258 -321 -590l-5 -11q-20 -58 -47 -154.5t-35 -141.5q-14 -81 -14 -145q0 -125 43 -207.5t122 -104.5q23 -5 56 -5q58 0 97 13q85 27 191 107.5t213 199.5q197 218 323 392q18 27 36 27
q11 0 11 -10l-2 -6q-1 -1 -2.5 -5t-3.5 -6q-124 -176 -332 -413q-195 -224 -394 -320q-51 -23 -83 -31.5t-80 -9.5z" />
    <glyph glyph-name="D" unicode="D" horiz-adv-x="1402" 
d="M581 -69q-76 0 -116 33t-40 97q0 44 22 108q68 176 268 337l38 30q-36 23 -36 69q0 39 20 118q11 40 11 47q-68 41 -95.5 78.5t-27.5 104.5v11q0 40 27 114q24 61 44 94q51 88 130 180q114 132 261 241q40 28 50 47q12 20 31 33.5t34 13.5q10 0 11 -1l8 -2q6 0 41 16
q174 92 339 110l48 2q102 0 177 -30q99 -41 150.5 -135t51.5 -234v-6q-3 -150 -60 -306q-66 -179 -196.5 -360t-314.5 -347q-177 -159 -373 -276.5t-364 -164.5q-85 -22 -139 -22zM608 -13q47 0 65 2.5t61 15.5q203 60 430.5 210.5t406.5 342.5q238 255 340 537
q55 150 58 280v16q0 145 -65.5 233t-191.5 112q-38 8 -80 8q-92 0 -198 -32q-36 -10 -92 -33.5t-86 -40.5l-29 -15q-44 -106 -96 -208q-164 -312 -246 -542l-26 -71q27 -18 38.5 -33.5t11.5 -40.5q0 -19 -3 -30l-2 -17q0 -11 3 -13t8 -21q0 -9 3 -9q5 0 10 3q100 52 196 87
t146 39l23 2q28 0 43 -18q6 -6 6 -15l-1 -10q-4 -10 -10 -16t-9 -6t-18 10q-16 11 -33 11q-73 0 -218.5 -65t-247.5 -137q-149 -104 -236 -222q-52 -69 -79 -137q-14 -44 -14 -76q0 -59 44 -88q15 -9 28 -11t60 -2zM774 848q3 0 52 126q130 333 222 501l20 42
q-4 0 -51 -40.5t-75 -68.5q-70 -69 -126 -140q-76 -101 -113 -205q-13 -34 -15 -44q-1 -4 -1 -27q0 -57 22 -88q10 -15 34 -35.5t31 -20.5zM826 641q1 0 7 6q6 9 15 30q3 12 3 18q0 7 -5 17q-2 2 -4 5.5t-3 5.5t-2 2q-5 -5 -9 -31t-4 -42v-5q0 -6 2 -6z" />
    <glyph glyph-name="E" unicode="E" horiz-adv-x="1348" 
d="M674 -16q-135 0 -230 61t-112 157q-4 23 -4 53q0 68 25 136q33 91 102 176q209 258 544 389l63 24q-9 5 -34.5 18t-36 19t-28 16.5t-28 19.5t-17.5 18q-22 27 -22 76q0 48 19 96q48 112 131 202.5t219 181.5q221 147 441 172q28 3 58 3q67 0 89 -11q24 -12 39.5 -34.5
t15.5 -47.5l-2 -11q0 -9 -5 -19q-15 -42 -34 -55q-12 -9 -21 -9q-14 0 -14 25q-3 22 -19 35q-12 8 -22.5 9.5t-48.5 1.5q-54 0 -116 -15q-132 -29 -230 -72t-197 -115q-131 -92 -197 -183q-30 -39 -47 -88q-11 -31 -11 -49q0 -12 3 -19q23 -74 89.5 -104.5t185.5 -30.5
q64 0 152 8q25 0 25 -8l-2 -5q-10 -26 -53 -36q-19 -5 -51 -12.5t-48.5 -12t-42.5 -11.5t-52.5 -15.5t-59.5 -19.5q-101 -34 -217.5 -97t-202.5 -127q-97 -71 -170 -158t-100 -163q-4 -11 -11 -36q-5 -28 -5 -49q0 -83 54.5 -146.5t147.5 -85.5q41 -9 91 -9q104 0 212 33.5
t272 111.5q94 46 229.5 131.5t199.5 136.5q12 12 25 12q11 0 11 -9l-2 -7q-4 -13 -22 -25q-142 -105 -258.5 -176.5t-295.5 -154.5q-212 -96 -374 -96z" />
    <glyph glyph-name="F" unicode="F" horiz-adv-x="1235" 
d="M933 -55q-13 0 -26 8q-44 31 -44 140q0 133 79 469l28 128q-176 -43 -244 -43q-43 5 -61.5 18t-18.5 44q0 11 5 24q24 48 41 48q1 0 4 -1q8 -5 8 -16l-1 -9l-5 -8q-7 -4 -10 -14q-1 -1 -1 -11t3 -13q16 -19 72 -19q54 0 122 16q14 4 34 8.5t32.5 7.5t15.5 4l15 7l30 94
q-4 19 -14.5 73.5t-24.5 114.5q-55 254 -55 374q0 114 31 202q53 143 186 207q85 42 200 42h49q20 0 27 3t11 13q7 18 17 28q14 14 30 14q13 0 25 -9l13 -10l3 -52q278 -40 555 -55q47 -3 115 -3q70 0 99 8q15 5 25 5q18 0 18 -11l-2 -5q-14 -39 -181 -39q-193 4 -504 37
l-144 15q-5 -11 -33 -80t-90 -212q-88 -206 -168 -416q-99 -276 -99 -302q15 0 88 25q244 71 413 79l56 3q20 0 38 -6q17 -9 17 -26l-1 -7q-1 -2 -3 -5.5t-3 -5.5t-2.5 -4.5t-2.5 -3.5t-2.5 -3t-2.5 -2.5t-2.5 -1t-3.5 -0.5q-3 0 -6 10q-4 19 -43 19q-19 0 -74 -5
q-143 -12 -292 -52q-172 -48 -187 -57q-2 -2 -2 -4q0 -7 15 -119q19 -147 19 -261q0 -33 -4 -77q-8 -83 -39 -163q-14 -40 -30 -66q-23 -42 -54.5 -66.5t-58.5 -24.5zM1043 937q9 25 80 240q71 195 210 490q40 85 53 118v3q-3 3 -34 3q-122 0 -169 -16q-61 -20 -101 -59
q-54 -51 -83 -128q-29 -76 -29 -183q0 -117 37 -299l22 -117q9 -52 14 -52zM955 30q28 22 41 24q9 0 12.5 4t12.5 24q32 75 42 161q5 45 5 104q0 85 -6 138q-5 74 -10 93q-1 3 -1.5 6.5t-1.5 3.5q-43 -135 -72 -288.5t-29 -227.5q0 -17 4 -29z" />
    <glyph glyph-name="G" unicode="G" horiz-adv-x="1351" 
d="M688 -228q-89 0 -89 69q0 21 9 50q40 110 197 226q123 90 260 144t239 54q38 0 48 6q14 14 49 65q98 130 237 376q97 175 223 443q7 16 9 25l-27 -34q-27 -36 -100.5 -122t-108.5 -121q-115 -120 -227 -217q-57 -50 -146 -115.5t-138 -94.5q-186 -109 -302 -109
q-89 0 -136 63.5t-47 187.5v13q3 128 57 275q99 276 324 522q123 131 252.5 221.5t229.5 115.5q35 8 62 8q94 0 143 -70q27 -36 27 -93q0 -37 -11 -67q-9 -25 -27 -48q-14 -17 -28 -17q-11 0 -13 6q-5 5 -5 11q0 9 7 24q6 17 6 35l-2 17q-15 76 -115 76q-54 0 -105 -23.5
t-134 -83.5q-183 -131 -328 -319t-217 -387q-54 -144 -54 -244q0 -72 30.5 -113t89.5 -45q121 0 287 95q55 30 159.5 106.5t160.5 126.5q273 241 474 535q7 10 12 18t10.5 17.5t8 14.5t9 19t9 19.5t12 26.5t14.5 32q70 168 92 195q12 14 27 14q16 0 20 -12q3 -5 3 -11
q0 -4 -5 -19q-33 -85 -67 -151q-37 -69 -57 -117q-137 -334 -259 -566t-258 -422l-58 -80v-2q0 -4 19 -7q190 -25 252 -73q18 -15 30 -35.5t12 -35.5v-8q-5 -27 -17 -27q-11 0 -14 24q-9 53 -113 85q-29 10 -93 21.5t-92 11.5h-20q-99 -123 -208.5 -228.5t-202.5 -166.5
q-174 -110 -286 -110zM688 -178q73 0 166 47q81 39 202 142.5t223 221.5l38 44q-88 -4 -156.5 -21.5t-177.5 -72.5q-123 -62 -213.5 -138t-122.5 -144q-9 -26 -9 -38q0 -19 13 -32q12 -9 37 -9z" />
    <glyph glyph-name="H" unicode="H" horiz-adv-x="1863" 
d="M1739 -162q-18 4 -25.5 14t-7.5 38q0 54 40 184q20 63 92 268q169 462 224 578l10 25q-105 5 -162.5 16.5t-173.5 56.5q-99 38 -104 38q-1 0 -3 -4l-6 -12t-7 -13q-111 -255 -206.5 -420.5t-205.5 -294.5q-42 -49 -80.5 -88.5t-95 -85t-112.5 -77t-127.5 -53.5
t-144.5 -24l-37 -1q-50 0 -84.5 10.5t-65.5 39.5q-81 75 -93 202q-2 14 -2 44q0 92 37 189q36 104 111 209q111 168 298 311q158 121 320 173q93 28 195 28q110 0 207 -33q12 -4 22 -4q4 0 9 3q3 3 31 74.5t66.5 172.5t64.5 173q28 73 45 144q10 44 12 49q7 20 27 36
q8 8 19 8t24 -13q15 -15 15 -49q0 -38 -15 -97q-14 -56 -104 -301q-16 -44 -27.5 -77t-13.5 -39t-9.5 -25t-14 -35t-28.5 -69q141 -63 223.5 -89t163.5 -26h49l54 125q83 202 184.5 401t141.5 240q15 11 25 11q7 0 17 -6q8 -5 8 -14q0 -14 -6 -27q-13 -35 -109 -218
q-151 -280 -236 -483l-11 -24q195 20 313 60q27 11 46 22q23 13 25 13q2 -1 4 -1q4 -1 4 -7l-3 -13l-3 -4q-15 -37 -161 -73q-48 -11 -126.5 -24.5t-97.5 -13.5h-17q-110 -245 -276 -702q-50 -139 -75 -219q-29 -99 -29 -118q0 -12 8 -15q16 -4 16 -22l-3 -15
q-4 -10 -17 -18.5t-26 -8.5zM629 28q193 0 341 117q68 53 126.5 118t104.5 131.5t97.5 165.5t92.5 189t102 234l37 87l6 23q0 2 -0.5 3.5t-2.5 3t-3.5 2t-5 2t-5.5 2.5q-24 9 -81 20q-82 16 -135 16q-228 0 -470 -179q-143 -106 -245 -233.5t-147 -253.5q-35 -95 -35 -174
q0 -35 8 -70q9 -42 38 -94t57 -72q55 -38 120 -38z" />
    <glyph glyph-name="I" unicode="I" horiz-adv-x="751" 
d="M239 -17q-15 0 -15 9v5q4 16 21 28.5t95 51.5q174 93 252 166l26 25q34 94 96 266t84 232.5t66.5 179.5t68.5 176t63.5 149t77.5 170t87 172q49 97 55 114v1q-38 0 -142 -8t-138 -14q-42 -7 -77.5 -21t-40.5 -25q-11 -18 -33 -18q-21 0 -21 11v3q0 7 2 12q12 33 75 63
t145 40q101 12 403 23q126 5 163 11l42 7q7 0 10 -7q3 -3 3 -9q0 -8 -2 -11q-5 -14 -17 -21q-13 -6 -72 -13.5t-122 -11.5l-66 -3q-18 -46 -107 -249q-159 -352 -232 -524.5t-167 -417.5q-131 -346 -148 -411q-8 -32 -8 -49l4 -20q189 -5 219 -11q63 -12 63 -41l-2 -7
q-9 -17 -21 -17q-5 0 -18 8q-21 14 -60 18t-159 4q-224 0 -375 -25q-71 -11 -78 -11zM359 44q36 8 173 17l46 4q0 10 0.5 13.5t2 7.5t2.5 12q6 50 11 66q6 32 6 34v2q-5 0 -58 -39q-69 -48 -112 -73l-65 -38l-6 -4v-2z" />
    <glyph glyph-name="J" unicode="J" horiz-adv-x="1391" 
d="M726 -27q-165 0 -248.5 93t-83.5 241q0 104 41 216q37 101 102 192.5t153.5 165.5t206.5 118t247 44q67 0 128.5 -17t100 -37t77.5 -54.5t52.5 -50.5t35.5 -43q142 297 230 537q94 261 105 371q-3 0 -279 -16t-285 -16q-23 0 -28 2t-5 11q2 15 8.5 22t21.5 11
q44 9 403.5 29t415.5 20q71 -2 93 -5.5t22 -13.5l-1 -7q-6 -16 -23 -19t-105 -4h-5.5h-5.5h-6q-90 0 -117 -5q-4 -47 -47 -200q-30 -110 -74 -225q-56 -154 -126 -314t-122 -250q5 -5 82 -114q7 -3 7 -9l-2 -5q-4 -9 -15.5 -18.5t-17.5 -9.5l-77 104q-35 -52 -95 -145
t-101.5 -150.5t-99.5 -123.5q-118 -135 -226.5 -210t-224.5 -104q-45 -11 -112 -11zM744 22q150 0 365 208q94 91 197 228q59 81 126 189t84 147q-6 7 -30 35.5t-39 44.5t-48 42.5t-65.5 42.5t-83.5 31t-109 20l-43 1q-103 0 -201.5 -42t-175.5 -112t-136 -157t-93 -182
q-41 -108 -41 -208q0 -129 73 -208.5t220 -79.5z" />
    <glyph glyph-name="K" unicode="K" horiz-adv-x="1094" 
d="M280 -17q-12 0 -20 8q-17 14 -17 53q0 35 12 104q11 51 84 282.5t123 369.5q18 48 51.5 141t46 128t38 105t36.5 98.5t31 80.5t32 79t28.5 66.5t31.5 70.5t32 65q74 142 103 162q15 11 31 11q13 0 21 -8q9 -9 9 -27q0 -20 -16 -64q-19 -52 -93 -208q-86 -183 -124 -273.5
t-104 -268.5l-46 -123q57 2 106 5q95 25 214 103.5t221 173.5q168 157 293 316t167 276q6 16 24 28t34 12q19 0 19 -19q0 -8 -5 -21q-15 -42 -80.5 -132t-165.5 -202t-211.5 -221t-234.5 -200.5t-220 -129.5l30 -24q6 -4 16.5 -38t22.5 -86t34 -118t49 -133.5t70.5 -132.5
t95 -115.5t125 -81t159.5 -30.5q20 0 29 -4.5t9 -17.5l-4 -15q-16 -37 -50 -37h-8q-78 0 -147 32t-118.5 84.5t-93.5 120.5t-74.5 139t-58 140t-47.5 124.5t-40 92.5t-38 43l-30 13q-96 -38 -103 -40l-23 -6q-16 -39 -32 -80q-90 -241 -148 -441q-30 -108 -30 -122
q0 -11 10 -14q14 -8 14 -27l-3 -15q-26 -52 -67 -52z" />
    <glyph glyph-name="L" unicode="L" horiz-adv-x="926" 
d="M903 -16h-13q-66 0 -106.5 2t-101 11t-113 31t-100.5 57q-11 8 -16.5 13t-6.5 7t-4 4t-10 6l-40 20q-105 -77 -160 -77q-22 0 -35.5 16t-13.5 38q0 14 3 20q16 39 53.5 60.5t80.5 21.5l49 -3q4 2 43 52.5t59 78.5q142 203 386 732q117 257 181 370.5t142 203.5
q52 71 118 117.5t115 46.5q88 0 88 -84q0 -33 -15 -80q-12 -36 -41 -82q-6 -10 -22 -10q-11 0 -11 8l1 7q20 29 28 61q19 52 19 85q0 49 -34 49q-33 0 -101.5 -79t-130.5 -175q-45 -70 -88 -153.5t-121 -255.5q-161 -347 -271 -542t-218 -320q-41 -49 -44 -57v-3
q5 -2 9 -4.5t8 -6t13.5 -12.5t20.5 -18q93 -72 183 -103t212 -31q87 0 185 27.5t155 55t63 37.5q7 11 19 11q16 0 16 -14l-2 -8q-7 -15 -34 -30q-46 -27 -168 -64t-229 -37zM244 123q22 0 55 25q2 2 5 3.5t4 2.5t1 2q0 2 -14 2q-16 0 -34.5 -9t-22.5 -18v-3q0 -2 3 -5h3z
" />
    <glyph glyph-name="M" unicode="M" horiz-adv-x="2043" 
d="M827 -16q-21 0 -36.5 8.5t-15.5 20.5l2 6q25 68 51.5 139.5t40 107.5t25.5 70t16.5 50t4.5 25l-1 10q-11 33 -88 99q-80 67 -116 122t-36 113q0 44 22 104q22 59 58.5 114t102.5 131q188 211 473 383l69 43q11 11 44 74q83 152 110 184l21 19q8 5 16 5q13 0 25 -11
t14 -26v-4q0 -40 -24 -115l-9 -25q105 46 156.5 63.5t115.5 27.5q48 6 65 6q60 0 112 -30q21 -13 41.5 -46t24.5 -62q5 -28 5 -56q0 -56 -23 -144.5t-86 -277.5q-149 -455 -159 -494l-5 -23q120 159 272.5 290t275.5 182q46 18 86 18q97 0 97 -121q0 -26 -8 -69
q-12 -59 -41 -133q-31 -84 -97 -248q-40 -95 -89 -219q-9 -24 -19.5 -50t-15 -37t-8.5 -24t-5.5 -20.5t-1.5 -16.5v-13l-2 -13q-6 -14 -20 -23.5t-27 -9.5q-9 0 -14 3q-14 9 -14 33q0 38 39 144q27 75 65 168q119 304 142 367q12 33 19.5 56.5t9 33.5t4 30.5t4.5 31.5l2 15
q0 52 -47 52q-18 0 -37 -4q-64 -16 -165.5 -87t-199.5 -167q-85 -83 -151.5 -167.5t-84.5 -133.5q-5 -14 -20.5 -25t-31.5 -11q-38 0 -38 60q0 15 5 47q20 86 164 485q7 20 11 31t10.5 29t11.5 33q104 282 104 407q0 50 -16 85q-28 58 -117 58q-64 0 -156 -28
q-32 -11 -98.5 -38t-72.5 -33q-7 -7 -40 -82q-27 -64 -91 -197q-138 -282 -347 -755q-126 -293 -209 -510q-11 -35 -54 -35zM953 479q76 215 345 819l68 159q-6 0 -80.5 -48.5t-121.5 -83.5q-160 -119 -270 -241.5t-147 -223.5q-18 -49 -18 -82q0 -49 30 -95.5t96 -102.5
q69 -63 79 -77z" />
    <glyph glyph-name="N" unicode="N" horiz-adv-x="1408" 
d="M1156 -16q-56 0 -96 20.5t-68.5 61t-48 114t-31.5 164t-22 226.5q-14 176 -14 375q0 259 24 530l4 77q-56 -153 -143.5 -392.5t-128.5 -352t-88 -237t-75 -192.5q-116 -286 -203 -367q-33 -27 -61 -27q-15 0 -32.5 16.5t-18.5 35.5v3q0 44 22 104q2 4 4.5 8.5t4 8
t2.5 4.5q9 9 27 9q12 0 14 -6q-1 -2 -2.5 -18.5t-4.5 -27.5q-8 -38 -8 -55q0 -25 12 -25l7 2q32 17 82.5 104t107.5 226q80 196 388 1039l94 261q5 13 11 31.5t9.5 29t8.5 24t9 20.5t9 13.5t11 9.5t13 3q18 0 25 -18q10 -28 10 -70q0 -21 -2 -55.5t-5.5 -92t-5.5 -108.5
q-11 -202 -11 -375q0 -139 8 -285q3 -73 6.5 -133t8.5 -131.5t12 -129t16.5 -116.5t22.5 -102t28.5 -78.5t36 -54t44.5 -19.5q44 0 93.5 52t92.5 130t94 193q39 88 187.5 483t266.5 718l63 174q21 57 25 60q7 7 18 7q7 0 12 -5l2 -6q0 -25 -101 -306q-378 -1039 -449 -1197
q-73 -162 -159.5 -258.5t-157.5 -96.5z" />
    <glyph glyph-name="O" unicode="O" horiz-adv-x="1570" 
d="M941 -16q-101 0 -172 41q-139 83 -139 300v14q4 144 66 316q12 31 17.5 46t8 20.5t9.5 23t19 46.5q-25 104 -25 148q0 61 26 129q64 151 168 276t267 246q179 130 359 187q88 27 144 32q16 3 66 3q57 0 115 -7q140 -25 227.5 -116t112.5 -238q13 -62 13 -113l-3 -67
q-12 -120 -57 -247q-119 -320 -405 -605q-115 -113 -260.5 -214.5t-265.5 -152.5q-158 -68 -291 -68zM977 69q67 0 143 19q47 12 123 43t128 60q173 96 335 250t271 326q69 109 118 233q34 92 47 142t19 118q4 44 4 66q0 149 -70 257t-195 147q-35 11 -63 14l-24 3
q-3 -17 -6 -25q-2 -5 -4.5 -12.5t-3.5 -9t-6.5 -5t-14 -6t-25.5 -5.5q-57 -12 -145 -72q-121 -82 -268.5 -225t-269.5 -295q-58 -72 -126.5 -175.5t-95.5 -158.5q-8 -18 -8 -24q0 -9 12 -28q16 -32 49 -70q117 -141 268 -141q39 0 80 9q43 8 51 8q11 0 11 -9
q-5 -19 -12.5 -25t-42.5 -16q-44 -11 -109 -11q-67 0 -88 7q-7 2 -15 5q-126 46 -220 180l-19 30q-16 -34 -20 -46q-36 -111 -48 -169q-12 -59 -12 -119q0 -62 15 -117q50 -153 237 -153zM789 868q4 4 30 50q102 181 288 394q190 217 388 361q66 46 66 50q-1 0 -20 -6.5
t-42.5 -15.5t-38.5 -15q-174 -72 -348 -222.5t-264 -307.5q-18 -33 -40 -86q-28 -77 -28 -128v-16q0 -58 9 -58z" />
    <glyph glyph-name="P" unicode="P" horiz-adv-x="1380" 
d="M780 -19q-17 0 -29 8q-17 12 -17 60q0 74 35 186q11 37 11 50q0 6 -5 19q-17 26 -61 65q-54 50 -73 71t-34 50q-30 57 -30 131q4 53 28 115q13 42 36 82q71 130 207.5 268t323.5 269q58 43 62 50q13 25 36.5 71t34 66t28 53t28.5 51.5t24.5 40t26.5 38.5q46 66 80 66
q19 0 28 -23q3 -5 3 -15q0 -14 -7 -33q-7 -28 -38 -93t-49 -97q0 -2 -1 -3t-1 -2l2 -2q5 0 69 35q385 212 645 249q56 6 78 6q99 0 153 -40.5t54 -112.5q0 -34 -18 -88q-107 -257 -439 -487q-351 -240 -618 -362q-93 -42 -138 -46h-15q-12 0 -23 13q-6 10 -6 19t1 11t3 6.5
t2.5 5.5l2 4t2.5 3.5t2.5 2.5t3 2t3.5 0.5t5 0.5q13 0 15 -9q4 -11 15 -11q17 0 67 20q146 58 391 208q297 180 455.5 321.5t215.5 278.5q25 67 25 96q0 35 -22 62q-25 28 -74 41q-35 8 -77 8q-224 0 -602 -196q-45 -23 -124 -67t-87 -51q-11 -8 -93.5 -181.5t-158.5 -347.5
q-129 -296 -220 -545q-57 -156 -68 -189.5t-13 -61.5l-3 -33q0 -18 3 -27q5 -8 5 -15q0 -8 -5 -21q-7 -20 -24.5 -32t-36.5 -12zM810 367q74 204 108.5 295.5t91.5 231.5t134 313l41 97v5q-6 0 -92.5 -68.5t-137.5 -115.5q-220 -200 -289 -367q-31 -80 -31 -134
q0 -94 101 -183z" />
    <glyph glyph-name="Q" unicode="Q" horiz-adv-x="1610" 
d="M1878 -402q-32 0 -52 7q-63 20 -134 83t-128 150q-29 43 -45.5 83t-58.5 164q-44 129 -45 129q-2 0 -60 -36q-169 -115 -342 -162q-111 -32 -187 -32h-21q-66 0 -112 11q-122 33 -190 130t-68 236l1 30q8 106 56 231q83 232 250 457l47 62q23 69 35 102q20 56 39.5 91
t53.5 78q127 162 316 271t375 127l49 2q95 0 178 -30q63 -25 107 -59.5t84 -91.5q83 -124 83 -284q0 -51 -4 -95q-9 -110 -55 -233q-65 -178 -194 -356q-149 -208 -350 -373l-47 -40q32 -96 61 -192q24 -84 45.5 -130.5t57.5 -96.5q142 -195 267 -195q40 0 76 24q10 6 16 6
q12 -4 12 -13v-4q-10 -23 -64 -44q-18 -7 -52 -7zM851 63q58 0 88 6q126 24 282 100q40 21 103 58.5t64 41.5v2q0 8 -23.5 31.5t-41.5 34.5q-47 25 -104 25q-71 0 -149 -34q-99 -40 -109 -68q-4 -12 -13 -17l-7 -4q-8 0 -12 8q-4 7 -4 16l3 11q8 25 48 55.5t98 54.5
q80 35 156 35q117 0 183 -87l24 -28q274 213 444 487q81 135 120 244q52 141 52 269q0 96 -30 182q-13 40 -49 91.5t-68 76.5q-69 56 -145 77q-35 10 -107 13q-77 0 -82 -2l-72 -12q26 -14 35.5 -24.5t9.5 -29.5v-11q-6 -17 -8.5 -23t-10 -12t-20.5 -9q-15 -2 -44 -9
q-44 -11 -141.5 -84t-201.5 -175q-70 -68 -167.5 -179.5t-116.5 -143.5q-3 -6 -3 -22q0 -22 1 -28q11 -65 46 -85q15 -8 36 -8l54 2q7 0 10 -1t4 -2.5t2 -6.5l1 -6l-1 -8q-5 -14 -19 -19q-2 -1 -49 -5l-25 -1q-19 0 -43 14q-46 27 -58 83q-7 21 -8 21l-8 -8
q-12 -18 -54.5 -86.5t-61.5 -102.5q-51 -88 -82 -177q-48 -123 -48 -226l2 -33q6 -93 63.5 -160.5t152.5 -92.5q33 -9 104 -9zM874 1251q140 153 220 230t182 151l39 30q-7 0 -62 -32t-92 -59q-205 -144 -287 -320z" />
    <glyph glyph-name="R" unicode="R" horiz-adv-x="1436" 
d="M1843 -17q-70 0 -129.5 27.5t-101 75.5t-70 105.5t-45.5 125.5q-20 84 -42 185t-34.5 162t-15.5 70q-11 27 -28.5 46t-32.5 19q-5 0 -35 -7q-50 -11 -74 -15l-17 -2q-32 0 -32 19l2 8q9 21 38 39q15 9 47.5 16.5t59.5 7.5l31 -2q20 0 63 16q184 64 397 167
q173 84 303 196t183 223q23 53 23 98q0 38 -14 68q-21 40 -87 65.5t-148 25.5q-79 0 -192 -26.5t-216 -69.5q-43 -17 -118.5 -55t-101.5 -54l-24 -14q-107 -232 -161 -339q-182 -355 -353 -789q-25 -59 -45 -118l-79 -222q-6 -19 -29 -32.5t-43 -13.5q-24 0 -24 19v6l61 192
q-100 132 -113 148q-85 112 -85 223q0 36 3 55q2 20 22 80q27 73 58 126q129 218 391 438q45 39 181 140l38 29q80 164 130 250.5t81 108.5q11 8 24 8q17 0 29 -13t12 -33q0 -23 -16 -68l-46 -123q322 164 555 188q30 3 69 3q78 0 118 -9q82 -20 126 -67t44 -113
q0 -39 -17 -88l-6 -19q-53 -123 -189.5 -249.5t-308.5 -212.5q-77 -39 -197 -89.5t-200 -77.5l-38 -14l14 -28q7 -10 19.5 -47.5t30 -102t29 -108t31 -118.5t20.5 -81q86 -331 280 -331q19 0 38 3q21 3 39 7.5t27 7.5t23.5 9t20.5 8q16 0 16 -19l-2 -5q0 -3 -3 -6
q-40 -25 -132 -32zM778 271q93 245 137 358q223 556 268 655l28 77q-2 0 -72 -55q-252 -196 -389 -380q-79 -103 -112 -195q-27 -78 -27 -140v-19q4 -55 27.5 -104t83.5 -126z" />
    <glyph glyph-name="S" unicode="S" horiz-adv-x="1520" 
d="M818 -17q-106 0 -169 31t-63 96q0 25 8 46q21 59 86 118.5t161 109.5q132 68 289 68q66 0 129 -30.5t63 -73.5l-3 -14q-13 -32 -33 -32q-13 0 -13 15q0 11 3 17q2 5 2 13q0 28 -42.5 47t-120.5 19q-100 0 -177 -23.5t-163 -83.5q-96 -66 -126 -136q-9 -26 -9 -42
q0 -49 49.5 -80.5t128.5 -31.5q215 10 462 137.5t380 273.5q58 65 74 113q13 45 13 65q0 74 -70 131.5t-202 90.5q-70 18 -150 29t-257 25q-186 16 -205 19q-77 12 -108.5 31.5t-37.5 59.5l-3 20q0 13 12 49q36 94 167 218q193 182 476.5 333.5t508.5 192.5q40 8 98 8
q72 0 99 -13q51 -22 58 -65l2 -17q0 -17 -8 -39q-28 -82 -174 -185q-52 -37 -69 -37q-9 0 -12 3q-4 3 -4 9t2 11q5 12 19 25q86 76 120 111q22 23 34 45l2 10q0 23 -69 27q-229 0 -605 -199q-181 -97 -340.5 -219.5t-211.5 -204.5q-15 -28 -16 -30q-3 -9 -3 -17
q0 -21 27 -36q52 -30 292 -52q34 -3 95 -9l60 -7q283 -30 411 -108.5t128 -181.5v-6q0 -31 -17 -80q-17 -50 -50 -95q-144 -202 -494 -354q-245 -107 -434 -115z" />
    <glyph glyph-name="T" unicode="T" horiz-adv-x="1184" 
d="M1523 -14q-14 0 -20 7.5t-6 30.5q0 34 19 113q4 27 40 126q65 180 256 648l3 48l-3 119q-14 376 -106 564l-27 42q-32 -5 -74 -5q-68 0 -113 11q-39 9 -72.5 29t-33.5 47l3 14q12 36 49 53t82 17q23 0 40 -4q70 -17 92 -33t59 -69q6 -9 9 -14q128 0 440 -2q21 37 31.5 51
t20.5 14q8 0 19 -7q14 -9 14 -33l-3 -25q872 -11 904 -38q22 -8 22 -23l-1 -5q-5 -16 -29 -16q-8 0 -16 3q-60 27 -891 34q-235 -566 -367 -875q-22 -168 -43 -270.5t-60 -208.5q-21 -57 -50 -118q-14 -27 -43 -72.5t-74 -98.5t-71 -54zM1575 72q38 46 89 139q18 35 37 88
q14 38 59 210l17 80l-2 3q-2 0 -26 -56q-57 -141 -144 -374q-30 -86 -30 -88v-2zM1872 1060q1 0 6 8q2 3 10 21.5t23 52t27 60.5l203 482h-303q-82 -4 -86 -8q0 -2 17 -47q43 -99 71 -247.5t32 -305.5l-2 -13zM1591 1728q30 0 57 8q-1 1 -10 11t-16.5 16.5t-19.5 16t-27 16
t-31 9.5l-30 4q-58 0 -82 -19q3 -5 9.5 -12.5t29 -22t48.5 -19.5q43 -8 72 -8z" />
    <glyph glyph-name="U" unicode="U" horiz-adv-x="1219" 
d="M1240 -173q-12 0 -21 9q-8 10 -8 30q0 28 24 126q39 145 199 616l9 30l-57 -79q-18 -24 -56.5 -78t-59 -81.5t-59 -77t-63.5 -77.5t-64 -69t-69.5 -64.5t-72 -51t-79 -42t-81.5 -24.5t-89 -10q-134 0 -197.5 61.5t-63.5 198.5q0 217 178 709q108 295 288 722
q51 116 74 137q12 12 28 12q9 0 16 -4q14 -9 14 -32q0 -29 -20 -83q-5 -14 -21 -67t-34 -104q-206 -554 -297.5 -854t-91.5 -456q0 -95 36 -140t112 -45q44 0 90 14t91 42.5t86 60.5t87 80.5t81.5 89t80.5 99.5t73.5 98t70.5 98q5 7 7.5 10t6 8.5t6.5 9.5q81 114 99 147
t60 143q200 538 358 802q43 68 76 68q10 0 20 -10q6 -7 6 -30q0 -53 -42 -168l-33 -87q-109 -267 -312 -599q-53 -92 -57 -102q-168 -452 -238 -681q-24 -74 -44 -155t-20 -103q0 -17 -5 -30t-14 -16zM1684 1103q6 0 59.5 101t90.5 182q45 96 75 177q44 130 44 142v1
q-1 0 -42 -79q-39 -77 -120.5 -262t-103.5 -245z" />
    <glyph glyph-name="V" unicode="V" horiz-adv-x="1274" 
d="M1497 -16q-21 0 -37 5.5t-26.5 18.5t-17 24t-10 32.5t-5 32t-3 34.5t-1.5 30q-4 59 -4 124q0 66 7 142.5t16 139t31.5 213.5t39.5 271q11 82 30.5 209t28.5 197.5t9 119.5v25q0 8 -1 27.5t-1.5 25.5t-2 21t-4.5 24l-7.5 22.5t-11.5 27.5q-9 21 -30 21q-27 0 -76 -43
q-20 -20 -58.5 -64.5t-40.5 -50.5q-4 -4 -14 -9l-13 -3q-9 0 -14 12q-2 2 -2 8q0 10 3 16q10 27 47 69.5t83 79.5q66 52 132 52q26 0 44 -7q76 -32 87 -196l1 -38q0 -114 -57 -452q-71 -413 -105 -728q-21 -209 -21 -299q0 -59 10 -69l3 -2q4 0 25 51q44 109 147 298
t205 351q187 299 382 550q148 195 328 403.5t232 248.5q23 19 36 19q6 0 14 -8l3 -10l-3 -12q-10 -25 -25 -25l-6 1q-9 0 -29 -20q-37 -37 -162.5 -183t-210.5 -252q-242 -304 -451 -623.5t-348 -602.5q-93 -187 -110 -231q-2 -8 -14 -13t-22 -5z" />
    <glyph glyph-name="W" unicode="W" horiz-adv-x="1710" 
d="M325 -16q-14 0 -27 10q-24 20 -24 77q0 87 57 283.5t186 560.5q99 271 132.5 359.5t82.5 201t106 216.5q66 119 88 145q15 11 29 11t22 -10q12 -12 12 -31q0 -20 -11 -46q-10 -27 -41 -91q-101 -208 -166 -362t-152 -393q-127 -353 -174 -491.5t-70 -232.5l-13 -51
q63 138 141.5 265.5t203.5 290.5q132 174 317 378.5t249 255.5q27 22 63 22q20 0 35 -6.5t17 -15.5q6 -16 6 -43q0 -57 -61 -276q-16 -55 -27.5 -101t-20.5 -90t-13.5 -67t-12 -70t-10.5 -62q-20 -140 -20 -192q0 -104 57 -141q15 -11 50 -11q74 0 134 37q119 71 217 186
t205 299q72 124 126 274q87 239 87 443q0 231 -106 321q-17 9 -28 9q-13 0 -24 -15q-16 -19 -23 -19q-11 4 -14.5 7t-3.5 12l3 12q5 16 21.5 31.5t34.5 19.5q3 1 17 1q59 0 123 -72q24 -27 41 -94.5t17 -160.5q0 -212 -90 -462q-31 -79 -52 -128q-99 -222 -219 -384
t-246 -257q-100 -75 -192 -90q-14 -3 -42 -3q-68 0 -114 40.5t-60 126.5q-4 27 -4 65q0 83 29 217.5t98 393.5q36 125 44 172l5 34l-3 10q-57 -31 -112 -86t-168 -185q-224 -265 -355.5 -439t-221.5 -346q-28 -57 -50 -119q-27 -70 -27 -95q0 -13 -3 -20q-4 -14 -26 -22
q-15 -7 -29 -7z" />
    <glyph glyph-name="X" unicode="X" horiz-adv-x="1224" 
d="M115 -50q-10 0 -17 10t-7 24l2 10q0 7 5 20q32 88 197.5 288t381.5 413q178 172 292 266l33 29q-14 61 -40 229t-34 253q-6 55 -6 146q0 130 12 180q1 2 2.5 8t2 7.5t2.5 5.5t3.5 5.5t4.5 4t7 4.5q16 12 32 12q33 0 42 -42q4 -8 8 -79q4 -96 33 -357.5t38 -275.5l2 -2
q6 0 80 60q284 233 518.5 403t322.5 207q29 12 57 12q38 0 38 -31q0 -9 -5 -24t-14 -24l-8 -3q-3 0 -11 10q-3 9 -3 15v8q0 5 -6 5q-30 0 -123 -58q-249 -153 -744 -563l-94 -78q10 -88 48 -267q45 -226 99 -407t100 -264q22 -42 22 -56l-2 -10q-6 -11 -19 -20
q-13 -10 -25 -10q-33 0 -74 68q-59 99 -124 315t-117 485q-11 68 -19 68q-9 0 -148 -130t-236 -229q-148 -154 -284.5 -317t-170.5 -228l-13 -19q31 22 42 22q10 0 10 -11v-5q-13 -27 -42.5 -55t-50.5 -28z" />
    <glyph glyph-name="Y" unicode="Y" horiz-adv-x="1362" 
d="M1000 -39q-20 0 -31 4q-42 12 -57 54q-5 13 -5 30q0 31 15 71q88 193 319 309q73 36 189.5 62.5t201.5 26.5h30q131 191 232 396q26 51 62.5 132t44.5 106l1 6q-5 0 -44 -44q-239 -257 -502 -422q-205 -127 -360 -145q-28 -3 -53 -3q-46 0 -85 14q-151 57 -151 269l1 33
q3 62 25 161q17 71 46 156q12 35 66 156q76 161 175 306.5t145 165.5q13 7 25 7q21 0 29 -22q4 -8 4 -19q0 -12 -4 -24q-12 -29 -59 -101q-217 -341 -304 -584q-19 -53 -33 -109q-14 -59 -14 -132q0 -28 3 -49q10 -73 58.5 -111.5t127.5 -38.5q76 0 176 38q152 60 342.5 206
t352.5 327q73 81 91.5 113t66.5 154q88 229 127 282q29 43 54 43q18 0 27 -25q1 -2 1 -14q0 -10 -9 -63q-8 -32 -17 -57q-5 -18 -27 -60q-56 -104 -123 -202q-24 -34 -35 -56.5t-34 -80.5q-166 -399 -338 -660q-28 -40 -34 -55q79 -35 83 -63q-5 -30 -20 -30q-7 0 -19 14
q-11 17 -33 25q-26 11 -32 11q-9 0 -17.5 -9t-32.5 -39q-131 -166 -273.5 -283.5t-259.5 -156.5q-58 -20 -115 -20zM1026 16q48 0 115 27q98 39 225.5 148.5t230.5 243.5l34 42q-10 -1 -42.5 -5t-39.5 -4.5t-32 -4t-32.5 -5t-28 -4.5t-31.5 -6t-29.5 -7.5t-35.5 -10
t-37 -11.5q-110 -37 -213 -124t-141 -172q-2 -8 -5.5 -19t-5.5 -19t-2 -16q0 -53 70 -53zM2210 1528q5 0 33 63q5 13 9 21t5.5 10.5t4 10t7.5 23.5l-2 4q-3 0 -21 -42q-21 -46 -33 -76z" />
    <glyph glyph-name="Z" unicode="Z" horiz-adv-x="1274" 
d="M1597 -50q-8 0 -20 12q-18 22 -80 41q-164 46 -585 46q-170 0 -258 -4.5t-238 -20.5q-132 -13 -173 -13q-52 0 -68.5 6t-24.5 30q-2 5 -2 14q0 15 3 21q19 51 129 148q108 95 360.5 286.5t518.5 381.5q297 210 420.5 301.5t194.5 156.5q129 114 156 193q8 21 8 42
q-4 31 -36.5 60t-81.5 44q-45 13 -80.5 17.5t-107.5 4.5h-55q-139 0 -216 -11q-286 -42 -502 -156q-49 -26 -90 -56.5t-47 -45.5q0 -24 72 -38q44 -11 44 -25l-3 -11q-6 -18 -20 -22.5t-62 -4.5q-42 0 -53 2t-26 12q-28 21 -28 52q0 21 9 46q8 22 15 32.5t25 31.5
q88 97 305.5 179t455.5 107q38 3 115 3q164 0 217 -10q42 -8 88.5 -25.5t70.5 -34.5q66 -48 66 -129q0 -44 -15 -82q-13 -34 -37 -72q-19 -30 -43 -56.5t-44.5 -43t-64 -52t-76.5 -64.5q-20 -17 -57 -44.5t-94 -68t-110.5 -77.5t-140.5 -97t-149 -104q-675 -472 -933 -721
q-33 -31 -38 -43v-3q0 -6 11 -9q5 -2 22 -2q49 0 229 21q142 15 341 15q338 -3 350 -6q3 -1 63 -5q335 -20 386 -97q10 -13 10 -22l-2 -8q-11 -19 -17 -21q-3 -1 -7 -1z" />
    <glyph glyph-name="bracketleft" unicode="[" horiz-adv-x="557" 
d="M646 -14q-12 0 -49 9q-98 22 -198 65q-47 21 -68 46q-22 35 -22 81q0 49 20 141q10 48 92 271q102 277 141 373q241 616 264 679q42 109 54 124q9 12 37 15h3q54 4 136 17q67 9 126 9q49 0 55 -3q17 -4 17 -22l-2 -11q-11 -20 -25 -20l-30 1q-50 0 -164 -17
q-121 -18 -124 -24q0 -32 -52 -173q-55 -150 -228 -586q-175 -440 -210 -539q-48 -127 -52 -179l-2 -26q0 -48 21 -74q33 -41 205 -96q46 -13 61.5 -20.5t15.5 -17.5l-2 -4q-4 -11 -7.5 -15t-12.5 -4z" />
    <glyph glyph-name="backslash" unicode="\" horiz-adv-x="690" 
d="M1194 -14q-11 0 -20 10t-13 28q-6 28 -10 215t-4 369v62q2 203 14.5 352t46.5 345q35 199 52 349q8 65 13 77q1 2 8 14q11 11 20 11q27 0 32 -47l1 -27q0 -75 -56 -406q-40 -231 -54.5 -415t-16.5 -476q0 -305 9 -387q5 -27 5 -38q0 -8 -3 -16q-3 -7 -10 -14
q-6 -6 -14 -6z" />
    <glyph glyph-name="bracketright" unicode="]" horiz-adv-x="634" 
d="M238 -43q-50 0 -57 11q-5 8 -5 12l2 6q4 6 11 12q5 8 54 11q74 5 175.5 24.5t154.5 40.5q44 18 67 41.5t48 75.5t40 96q37 99 126 403q80 277 172 545q108 318 129 418q14 61 14 66q0 9 -11 12q-16 2 -307 15q-50 4 -59 9q-9 7 -9 20l2 11q9 25 34 29q5 1 96 1
q123 0 153 -3l104 -8q53 -5 66 -14l18 -11q-26 -75 -30 -101q-8 -56 -44.5 -174.5t-144.5 -437.5q-74 -221 -120 -374q-33 -109 -123 -368q-59 -165 -82 -201q-37 -57 -80.5 -82.5t-143.5 -49.5q-158 -35 -250 -35z" />
    <glyph glyph-name="asciicircum" unicode="^" horiz-adv-x="452" 
d="M1218 1049q-10 6 -30 98q-37 164 -55 172q-23 0 -128 -133q-58 -71 -68 -79q-12 -9 -20 -9q-10 0 -10 13q2 8 2 10t4 9t10.5 15.5t20.5 26.5q77 108 146 177q39 40 68 40q13 0 20 -6q16 -13 45 -124.5t29 -162.5q0 -16 -1 -17q-4 -11 -14.5 -20.5t-18.5 -9.5z" />
    <glyph glyph-name="underscore" unicode="_" horiz-adv-x="669" 
d="M156 -14q-43 0 -49 6q-3 3 -3 14q0 8 2 13q9 25 29 30l43 5q246 9 298 9q68 0 170 -5q39 0 39 -23l-1 -10q-7 -21 -18.5 -27.5t-43.5 -6.5q-118 0 -351 -4z" />
    <glyph glyph-name="grave" unicode="`" horiz-adv-x="222" 
d="M1057 1085q-35 0 -38 100l-1 31q0 49 11 84q6 19 22 28q5 3 11 3q16 0 19 -22v-72q-2 -13 -2 -40l2 -36q8 -35 8 -42t-2 -10q-7 -15 -12.5 -19.5t-17.5 -4.5z" />
    <glyph glyph-name="a" unicode="a" horiz-adv-x="730" 
d="M830 180q-105 0 -105 157q0 110 50 310q5 22 16 60t19 65l9 27q-28 -38 -78 -107.5t-67.5 -93t-45.5 -55.5t-53 -53q-36 -32 -72 -32q-33 0 -51 30q-17 26 -17 71q0 37 11 76q2 10 16 55q45 114 107 170q67 62 132 62q20 0 38 -8q20 -9 20 -40q0 -24 -12 -53
q-11 -33 -31.5 -66.5t-36.5 -48.5q-7 -7 -16 -7t-9 7v1q41 41 64 114q10 27 10 41t-8 17l-11 2q-47 0 -112 -107q-30 -53 -50 -106q-30 -85 -30 -131q0 -28 11 -28h3q29 0 107 101l145 195q70 96 76 106q17 22 30 22q14 0 14 -24q0 -10 -2 -16l-7 -25q-8 -24 -22 -75
t-34 -134q-31 -124 -41 -186.5t-12 -135.5v-20q0 -104 55 -104q67 0 149 105q60 79 164 274l55 107q12 24 37 24q11 0 11 -11l-4 -13l-66 -121q-2 -3 -24 -39.5t-45 -73.5t-53 -82t-51 -73q-48 -62 -97.5 -96t-85.5 -34z" />
    <glyph glyph-name="b" unicode="b" horiz-adv-x="719" 
d="M542 104q-31 0 -44 19q-6 11 -6 30q0 23 7 45q21 54 62 95q58 58 201 117l54 122q43 117 43 202q0 36 -13 43l-9 3q-6 0 -27 -8q-57 -26 -157.5 -144t-175.5 -244l-3 -4q-4 -19 -21 -31t-37 -12q-25 0 -36 19q-5 15 -5 39v10q0 15 16.5 94.5t32.5 151.5l16 72
q4 15 10.5 43t8.5 36l7 28t8.5 31t9.5 31t14 42t17.5 50.5t23.5 69.5q198 541 400 756q117 124 243 166q22 7 53 7q70 0 95 -58q20 -46 20 -112q0 -95 -52 -241q-54 -159 -170 -316q-143 -199 -288 -306q-134 -111 -273 -162q-68 -213 -87 -339q153 203 204 254
q105 104 175 104q18 0 30 -4q47 -12 47 -86q0 -70 -40 -177q-13 -38 -36 -91q112 48 174 93.5t111 117.5q3 6 10 19t11 20q12 24 34 24q11 0 11 -9l-1 -8q-7 -23 -22 -46q-39 -60 -130.5 -124.5t-213.5 -118.5q-104 -229 -236 -294q-37 -19 -66 -19zM567 167q12 0 27 13
q76 59 151 195v3q-103 -39 -159 -98q-26 -27 -36 -56q-6 -22 -6 -29q0 -28 23 -28zM577 835q97 33 167 80t167 139q48 44 106 111.5t94 118.5q99 143 149 284q43 118 43 237q0 134 -69 134q-54 0 -124 -67t-173 -216q-18 -26 -35.5 -53.5t-36 -62.5t-31.5 -59t-33.5 -69
t-29 -63.5t-31 -72.5l-27.5 -66t-29.5 -72.5t-26.5 -66.5l-27 -71l-31 -91z" />
    <glyph glyph-name="c" unicode="c" horiz-adv-x="554" 
d="M484 150q-159 0 -159 195q0 123 61 293q126 311 220.5 439.5t187.5 138.5l13 2q39 0 52 -44q3 -12 3 -30q0 -78 -36 -181q-26 -70 -60 -104q-8 -8 -16 -8q-11 0 -11 9l3 10q25 35 50 97q27 75 27 131q0 62 -28 65q-36 0 -115 -142.5t-162 -369.5q-76 -230 -76 -325
q0 -105 57 -121q22 -5 36 -5q77 0 189 112q105 103 211 299q11 18 26 48t21 40q12 24 35 24q11 0 11 -9l-3 -15q-25 -49 -52 -96q-72 -118 -137 -206q-179 -247 -348 -247z" />
    <glyph glyph-name="d" unicode="d" horiz-adv-x="1016" 
d="M826 -74q-39 0 -64 16q-89 54 -89 247q0 86 22 202q3 14 7 35t5 23q0 3 -1 3q-6 0 -49 -50q-74 -82 -158.5 -129.5t-117.5 -47.5q-39 0 -60.5 40t-21.5 100q0 51 13 97q6 30 27 86q43 118 111.5 229.5t151.5 189.5q67 63 127 63q56 0 56 -67q0 -46 -29 -126
q-18 -50 -46 -106q-8 -14 -23 -14q-14 0 -14 11v1q10 10 30 65q30 86 30 135q0 38 -19 38q-31 0 -95.5 -99t-141.5 -280q-71 -184 -71 -265q0 -11 4 -21q7 -11 20 -11q32 0 104 54q46 33 82 70.5t90 104.5q21 25 28 44q21 72 54 195q75 261 130 413l7 19q87 239 184 435
q85 175 175 310t134 155q15 7 28 7q35 0 44 -61q2 -9 2 -36q0 -35 -3 -48q-10 -92 -60 -225q-53 -153 -86.5 -230.5t-120.5 -246.5q-83 -158 -169.5 -295t-244.5 -368q-41 -156 -57.5 -240t-16.5 -161q0 -76 24 -133q30 -71 96 -71q27 0 51 10t52 36t46.5 46.5t56.5 66.5
q49 60 184 266t186 298q11 19 26 19q6 0 10.5 -5t4.5 -10v-4q-70 -137 -233.5 -380t-256.5 -320q-91 -80 -155 -80zM849 722q4 0 74 104q178 269 295 500q62 123 91 187.5t65 165.5q40 110 54.5 169.5t14.5 117.5v21q0 29 -6 41q-3 9 -7 9q-3 0 -9 -6q-49 -37 -136 -198.5
t-192 -406.5q-28 -69 -99 -263q-81 -223 -93 -270q-18 -63 -31 -102q-21 -52 -21 -65v-4z" />
    <glyph glyph-name="e" unicode="e" horiz-adv-x="489" 
d="M503 296q-55 0 -95 30t-47 62q-5 22 -5 42q0 84 38 184q42 100 93 180q54 80 125 128t124 48q22 0 36 -9q24 -16 24 -36q0 -13 -8 -35q-12 -32 -45 -69t-73 -66q-71 -53 -141 -74q-11 -14 -33.5 -63t-37.5 -90q-23 -63 -23 -111q0 -47 23 -70q21 -18 62 -18q49 0 105 25
q154 74 278 298q5 9 12.5 24.5t10.5 21.5t9 14t13 10.5t16 2.5q11 0 11 -10l-1 -9q-9 -27 -27 -54q-75 -114 -138.5 -184t-167.5 -132q-67 -40 -138 -40zM556 723q46 14 95 49q70 49 93 110q4 10 4 25h-3q-12 0 -50.5 -29.5t-62.5 -56.5q-42 -48 -76 -98z" />
    <glyph glyph-name="f" unicode="f" horiz-adv-x="579" 
d="M-186 -704q-65 0 -100 37.5t-35 132.5v11q4 194 174 658q70 192 115 294q55 130 243 510q213 427 407 562q38 27 78 27q35 0 54 -19q9 -13 9 -56q0 -91 -41 -208q-20 -55 -52 -112q-8 -13 -25 -13q-27 0 -27 22l4 14q3 11 12 30t11 25q36 96 36 201l-1 34
q-69 -45 -156 -178q-68 -102 -125.5 -210t-194.5 -390q-101 -208 -189 -430q45 0 74 9q74 19 126 35.5t115.5 45.5t111.5 65.5t99 93t93 129.5l51 85q14 22 36 22q11 0 11 -9l-3 -15l-52 -86q-198 -300 -563 -407q47 -15 91.5 -87t44.5 -179q0 -87 -36 -189
q-64 -179 -182 -317t-214 -138zM-167 -659q75 0 174 128t155 282q36 95 36 180q0 105 -56.5 163.5t-160.5 58.5h-3q-3 0 -3 1q-54 -145 -118.5 -376.5t-64.5 -349.5q0 -87 41 -87z" />
    <glyph glyph-name="g" unicode="g" horiz-adv-x="638" 
d="M-520 -775q-22 0 -49 5q-108 20 -108 127l1 30q9 56 22 93q31 84 120 191q73 91 179.5 182.5t315.5 250.5l41 31q117 416 122 438q-69 -82 -100.5 -105.5t-83.5 -27.5q-80 0 -80 88q0 25 6 45q25 84 30 97q8 20 21 47q26 55 41.5 78.5t44.5 50.5q56 49 99 49q26 0 38 -21
q10 -22 10 -48q0 -38 -18 -90q-12 -37 -34 -68q-3 -3 -10 -3q-11 0 -11 6l2 3q21 32 30 60q14 39 14 71q0 16 -3 22q-4 11 -13 11q-16 0 -55 -55q-42 -57 -76 -151q-26 -70 -26 -118q0 -27 11 -34l6 -1q22 0 104 90q66 73 90 138q31 94 54 142t50 66q10 5 15 5q17 0 22 -17
v-5q0 -19 -12 -52q-4 -11 -8 -21l-7 -17.5t-9 -18.5t-8.5 -16.5t-10.5 -19.5t-10.5 -19t-13.5 -24t-15 -25l-50 -220q-6 -37 -26 -120t-31 -134l120 95q125 108 194.5 181.5t105.5 139.5q33 63 38 72q12 24 35 24q13 0 13 -11l-4 -13q-64 -118 -132.5 -200.5t-204.5 -197.5
q-6 -6 -173 -134q-10 -39 -13 -63q-52 -278 -99 -408q-26 -70 -68 -143q-109 -174 -220.5 -251t-212.5 -77zM-526 -740q82 0 149.5 59t138.5 180q88 149 147 315q22 61 50 159q1 7 30 114q-45 -34 -93.5 -72t-89 -70t-50.5 -40q-156 -129 -276 -264q-74 -85 -107 -175
q-19 -48 -19 -96q0 -26 8 -52q10 -26 42 -42t70 -16z" />
    <glyph glyph-name="h" unicode="h" horiz-adv-x="836" 
d="M780 101q-16 0 -30 3q-44 11 -44 76q0 17 3 40t7 42t13 55.5t14 56.5t18.5 69.5l19.5 71.5q35 124 35 170q0 25 -9 30l-8 2q-46 0 -139 -93q-44 -42 -110 -127.5t-73 -104.5q-10 -26 -27.5 -41t-36.5 -15q-23 0 -32 20q-6 22 -6 49q0 15 16.5 94.5t32.5 151.5l16 72
q8 29 20 77.5t17.5 66.5t20.5 65.5t41 121.5q198 541 400 756q120 125 243 166q22 7 53 7q71 0 96 -58q19 -47 19 -109q0 -97 -52 -244q-55 -159 -170 -316q-143 -199 -288 -306q-136 -113 -273 -162q-78 -257 -87 -314l-1 -3l1 -2q7 0 67 68q101 117 176 178q53 41 109 41
q35 0 50.5 -14t15.5 -55q0 -57 -33 -172q-10 -34 -31 -102.5t-30.5 -101.5t-18 -72t-8.5 -61q0 -19 3 -25q9 -19 30 -19q33 0 88 46q98 80 191 204t148 227q11 18 26 48t21 40q12 24 35 24q12 0 12 -11l-3 -13l-54 -96q-53 -96 -162.5 -239t-199.5 -211q-68 -52 -132 -52z
M577 835q98 33 167 79.5t168 139.5q48 44 106 111.5t94 118.5q101 146 150 284q42 116 42 237q0 134 -69 134q-55 0 -123.5 -66t-174.5 -217q-18 -26 -35.5 -53.5t-36 -62.5t-31.5 -59t-33.5 -69t-29 -63.5t-31 -72.5l-27.5 -66t-29.5 -72.5t-26.5 -66.5q-38 -105 -57 -162z
" />
    <glyph glyph-name="i" unicode="i" horiz-adv-x="351" 
d="M651 1030q-26 0 -26 21q0 10 7 28q18 45 42 57q13 5 19 5q9 0 17 -11q7 -11 7 -26q0 -13 -3 -19q-7 -22 -32 -44q-16 -11 -31 -11zM474 356q-28 0 -45 17q-38 38 -38 107q0 58 20 130q57 168 125 258q40 54 82 54q13 0 18 -8t5 -16q0 -13 -8 -35q-9 -25 -28 -61
q-1 -1 -61 -134q-37 -94 -51 -140.5t-14 -86.5q0 -26 6 -39q8 -18 32 -18q41 0 99 45q45 34 75.5 74t72.5 119l41 77q12 24 36 24q11 0 11 -11l-1 -8q-4 -11 -11 -23.5t-18.5 -29.5t-18.5 -29q-135 -229 -294 -261q-23 -5 -35 -5z" />
    <glyph glyph-name="j" unicode="j" horiz-adv-x="431" 
d="M-515 1030q-25 0 -25 21q0 12 6 28q18 45 42 57q13 5 19 5q9 0 16 -11q8 -10 8 -24q0 -9 -5 -22q-8 -23 -30 -43q-16 -11 -31 -11zM-1794 -1059q-65 0 -112 32q-66 42 -66 153q0 72 26 143q23 63 63.5 127.5t73.5 104t84 96.5q137 149 313 285t467 318l9 6
q10 32 22.5 73.5t13.5 45t12 33t16 42t28 68.5q174 408 267 408q14 0 21 -6q11 -7 11 -22q0 -20 -11 -48q-13 -34 -43 -93q-92 -196 -178 -406q10 5 57 30.5t74.5 40.5t66 38.5t62.5 40.5q92 69 129 108.5t78 110.5q14 26 17 29q12 24 35 24q11 0 11 -11l-2 -8
q-5 -14 -19 -39q-46 -75 -102 -134t-162 -126q-38 -24 -137 -82.5t-133 -79.5q-20 -52 -34.5 -92.5t-22.5 -65t-27.5 -84t-35.5 -107.5q-41 -120 -69 -196q-22 -62 -39 -100q-57 -121 -134 -235.5t-155 -189.5q-81 -79 -184 -140t-192 -79q-55 -13 -99 -13zM-1793 -1010
q157 0 298.5 111t246.5 285q94 155 152 315q36 101 85 258l56 189q-311 -199 -474 -331q-163 -134 -265 -247q-86 -92 -127 -153.5t-73 -147.5q-26 -72 -26 -135q0 -66 31 -105t96 -39z" />
    <glyph glyph-name="k" unicode="k" horiz-adv-x="737" 
d="M673 6q-20 0 -33 7q-52 23 -52 93q0 61 37 192q10 36 36 115.5t38.5 126.5t12.5 71t-13 24q-33 0 -88 -49q-118 -147 -135 -194q-10 -26 -28 -41t-35 -15q-23 0 -32 20q-6 18 -6 39v10q0 15 16.5 94.5t32.5 151.5l16 72q4 16 11.5 48t9.5 40.5t8.5 32t11 37t13.5 41.5
t19 57.5t26 74.5q198 541 400 756q117 124 243 166q22 7 53 7q70 0 95 -58q20 -46 20 -112q0 -95 -52 -241q-54 -159 -170 -316q-143 -199 -288 -306q-134 -111 -273 -162q-79 -257 -87 -314v-1q3 0 28 31.5t64 80.5t64 77q79 89 179 181.5t152 114.5q23 11 52 11
q31 0 37 -11q1 -1 1 -6l-1 -11q-5 -12 -15 -22t-20 -10q-6 0 -17.5 6.5t-22.5 6.5q-13 0 -40 -13q-69 -33 -218 -195l-42 -48q29 15 53 18q30 0 42 -9.5t12 -41.5q0 -26 -11 -77.5t-23.5 -98t-44.5 -159.5q-54 -181 -54 -210q0 -17 10 -27q12 -9 31 -9q40 0 96 47
q53 46 129 155.5t121 186t84 148.5q9 16 28.5 54t30.5 56q12 24 34 24q13 0 13 -11l-3 -13l-62 -110q-64 -116 -175 -285.5t-187 -235.5q-74 -62 -132 -62zM577 835q97 33 167 80t167 139q47 43 105 110t96 120q100 150 148 284q43 118 43 237q0 134 -69 134q-54 0 -124 -67
t-173 -216q-18 -26 -35.5 -53.5t-36 -62.5t-31.5 -59t-33.5 -69t-29 -63.5t-31 -72.5l-27.5 -66t-29.5 -72.5t-26.5 -66.5l-27 -71l-31 -91z" />
    <glyph glyph-name="l" unicode="l" horiz-adv-x="649" 
d="M544 58q-72 0 -101 41q-55 71 -55 246q0 190 55 400q7 26 20 78.5t19.5 78.5t19.5 68.5t27 83.5q198 541 400 756q117 124 243 166q22 7 54 7q69 0 94 -58q21 -48 21 -112q0 -95 -52 -241q-54 -159 -170 -316q-142 -197 -289 -306q-135 -112 -272 -162q-40 -109 -54 -188
q-30 -180 -30 -280q0 -143 46 -205q17 -25 53 -25q24 0 48 9q30 12 73.5 41.5t71.5 56.5q60 57 109 119.5t75.5 106t67.5 117.5q22 38 47.5 90t35.5 69q12 24 36 24q11 0 11 -11l-3 -13q-38 -72 -88 -159q-9 -16 -25.5 -44.5t-61 -92.5t-92 -120.5t-116 -115.5t-135.5 -90
q-41 -19 -83 -19zM567 835q98 33 168.5 80t167.5 139q47 43 105 110.5t95 119.5q100 150 148 284q42 116 42 239q0 132 -67 132q-55 0 -124.5 -66.5t-173.5 -216.5q-49 -69 -102 -174t-80 -168.5t-83 -203.5q-11 -26 -16 -39q-20 -51 -58 -162z" />
    <glyph glyph-name="m" unicode="m" horiz-adv-x="1200" 
d="M325 317q-11 1 -14.5 2.5t-7.5 10t-4 26.5q0 37 22 123q35 132 59 197q23 61 52 114.5t45 69.5q23 21 41 21q8 0 13 -5q13 -10 13 -25q0 -22 -23 -90l-26 -79l45 57q123 153 280 278.5t267 160.5q18 7 36 7q51 0 68 -44q11 -23 11 -62q0 -72 -50 -209q-31 -86 -82 -202
q-65 -152 -70 -165l-4 -15l1 -1q4 0 29 30q63 75 138 127q59 41 109 41q65 0 69 -64q9 -90 73 -90q60 0 100.5 36.5t74.5 95.5q13 26 17.5 34t14.5 17t23 9q11 0 11 -11l-2 -8q-3 -11 -22 -44q-36 -56 -74.5 -90.5t-103.5 -59.5q-46 -17 -94 -17q-39 0 -63 11q-38 21 -46 87
q-5 33 -7 38.5t-14 5.5q-34 -2 -98.5 -59.5t-140.5 -153.5q-25 -30 -50 -30q-13 0 -13 14q0 10 3 16l24 68l149 402q40 111 40 149q0 15 -3 32q-7 40 -43 44q-75 0 -238 -120q-132 -100 -251 -233.5t-187 -259.5q-14 -29 -22 -50q-6 -13 -16 -51t-11 -42q-6 -16 -17 -27
q-14 -17 -31 -17z" />
    <glyph glyph-name="n" unicode="n" horiz-adv-x="723" 
d="M818 279q-34 0 -55 11.5t-29 45.5q-6 17 -6 45t9 67t18.5 69t30.5 91q8 22 24 63.5t21.5 56.5t13 41t10 45.5t2.5 42.5q0 76 -46 76q-30 0 -54 -9.5t-73 -58.5t-114 -143q-113 -163 -140 -237q-5 -16 -8 -28q-7 -22 -21 -36.5t-32 -14.5q-32 0 -32 45q0 17 3 29
q13 73 65 212q76 209 129 289q14 22 27 30q13 13 25 13q10 0 22 -9q14 -9 14 -27q0 -19 -15 -60l-104 -252q32 41 45 61q80 110 144 169.5t132 59.5q135 0 135 -115q0 -46 -25 -114q-93 -260 -107 -321q-5 -33 -5 -52q0 -46 29 -46q50 0 127 96t136 211l39 74q12 24 36 24
q11 0 11 -11l-1 -8q-4 -12 -10 -24t-19.5 -34.5l-16.5 -27.5q-46 -80 -104 -157.5t-88 -107.5q-37 -37 -75.5 -55.5t-67.5 -18.5z" />
    <glyph glyph-name="o" unicode="o" horiz-adv-x="512" 
d="M458 394q-30 0 -48 17q-38 31 -38 90q0 54 31 139q27 78 79 146q38 50 91 82.5t98 32.5q85 0 85 -96q0 -54 -27 -128q-45 -112 -94 -174q22 -4 38 -4q55 0 100.5 14.5t77.5 41t51.5 50.5t38.5 55q13 28 20 39q12 24 35 24q11 0 11 -9l-2 -8q-3 -11 -22 -46
q-46 -77 -123.5 -131.5t-180.5 -54.5q-27 0 -61 6q-51 -57 -112 -77q-24 -9 -48 -9zM488 440q42 0 92 53q-73 32 -95 128q-25 -77 -25 -128q0 -53 28 -53zM599 514q40 48 71 113q10 23 17 43q27 74 27 126q0 67 -41 67q-38 0 -87 -61.5t-83 -135.5q18 -118 96 -152z" />
    <glyph glyph-name="p" unicode="p" horiz-adv-x="734" 
d="M-454 -800q-18 0 -26 9q-12 18 -12 54q0 151 191 712q72 207 176 442t164 355q42 88 85.5 154.5t66.5 81.5q8 5 14 5q16 0 19 -19q0 -5 -13 -41q-19 -55 -101 -236q-43 -93 -97 -221q33 49 77 105.5t102 122t115.5 108t97.5 42.5q83 0 83 -119q0 -66 -23 -153
q-14 -47 -30 -87q140 46 201 75t97 80q3 4 7.5 14t7.5 15q12 24 35 24q13 0 13 -11l-2 -8q-4 -13 -20 -34q-42 -59 -119.5 -99t-235.5 -95q-52 -108 -118 -181q-62 -69 -118.5 -103t-97.5 -34q-58 0 -58 61q0 17 8 39q20 54 67 92q80 66 219 121q15 32 38 96q15 40 31 106.5
t16 111.5q0 53 -28 53q-47 0 -136.5 -97t-235.5 -290l-41 -62q-99 -246 -184 -472q-153 -419 -192 -594l-3 -27q0 -10 9 -19q11 -7 11 -22l-3 -14q-10 -21 -25 -32q-12 -9 -32 -9zM90 208q29 0 84 56.5t91 108.5l39 63q-141 -60 -197 -119q-20 -22 -27 -44q-6 -16 -6 -35
q0 -30 16 -30z" />
    <glyph glyph-name="q" unicode="q" horiz-adv-x="849" 
d="M482 -1030q-62 7 -87 47t-25 165q0 102 24 278q29 220 170 608q89 235 203 485q-1 -1 -16 -19q-118 -150 -185 -209q-68 -60 -100 -75q-24 -9 -47 -9q-40 0 -63 21q-47 47 -47 126q0 84 44 201q46 126 97 203.5t127 146.5q81 74 167 74q36 0 55 -26.5t19 -69.5
q0 -41 -16 -85q-26 -72 -69 -146t-92 -108q-8 -5 -11 -5q-8 0 -8 10v3q7 10 8 11q81 81 137 235q14 39 14 75q0 67 -36 67q-50 0 -124 -104q-92 -134 -142 -273q-50 -136 -50 -230q0 -76 34 -76q2 0 21 7q27 14 54 37.5t43 41.5t54 61q35 38 91 110q43 55 107 151
q106 231 130 262q39 52 66 52q22 -4 22 -22q0 -6 -5 -19q-32 -69 -328 -785q-3 -9 -19.5 -51.5t-24.5 -66.5q-23 -60 -53 -156q6 15 55 85q45 57 163.5 180t230 250.5t176.5 234.5q5 8 11.5 20.5t7.5 15.5q12 24 36 24q11 0 11 -11l-1 -8q-6 -16 -22 -41q-59 -100 -167 -227
t-226 -250.5t-141 -150.5l-30 -37q-52 -57 -62 -85q-4 -12 -4 -26q0 -27 23 -49q3 -3 52 -40q96 -68 96 -220q0 -124 -55 -270l-9 -25q-13 -38 -61 -126.5t-97 -136.5q-52 -50 -126 -50zM514 -992q115 25 201 275q60 163 60 268q0 111 -61 194q-9 11 -46 40.5t-44 38.5
q-16 28 -16 45v7q-51 -161 -96 -366q-50 -234 -50 -367q0 -135 52 -135z" />
    <glyph glyph-name="r" unicode="r" horiz-adv-x="658" 
d="M581 -35q-67 0 -80 68q-5 23 -5 43q0 58 36 157q39 98 98 257q38 105 38 151q0 41 -24 62q-11 12 -23 17t-55 13l-16 3l-40 -77q-14 -24 -36 -24q-11 0 -11 11l2 8l52 97q-41 24 -41 75q0 26 12 59q25 69 68 112q24 24 58 33q9 3 24 3q23 0 30 -20q3 -8 3 -22
q0 -16 -6 -32q-4 -8 -73 -149q18 -8 55 -22q25 -10 39 -24t18.5 -24t13.5 -36q7 -20 7 -45q0 -61 -41 -174q-19 -59 -62 -151l-47 -113q-31 -100 -31 -150q0 -62 44 -69q53 0 105 37q52 38 102.5 97t143.5 198q59 88 99.5 158t71 130t40.5 77q12 24 35 24q11 0 11 -11
l-3 -13q-163 -308 -364 -565q-61 -80 -128 -124.5t-120 -44.5zM558 837q48 92 52 104q4 11 4 17q0 8 -6 8q-4 0 -11 -7q-23 -26 -38 -63q-9 -24 -9 -41q0 -9 3 -14z" />
    <glyph glyph-name="s" unicode="s" horiz-adv-x="343" 
d="M-58 -17q-53 0 -65 55l-3 20q0 26 14 68q16 38 30 63q70 120 219 228q3 15 8.5 38.5t7.5 32t5 27t5.5 35t5 42.5t6.5 62q12 119 47 216q27 67 46 94t57 51q21 12 50 12q19 0 24 -3q23 -16 23 -25v-3q0 -4 -6 -10q-10 -8 -17 -8q-5 0 -21 8l-6 2q-21 0 -47 -51
q-18 -39 -27 -83.5t-16.5 -121t-15.5 -127.5q-1 -6 -8.5 -58t-10.5 -70q130 66 195.5 110t85.5 86q23 39 34 46q8 4 18 4q11 0 11 -11l-2 -8l-17 -34q-18 -28 -47.5 -54.5t-72 -53.5t-81.5 -49t-98 -54q-20 -11 -30 -16q-15 -123 -49 -216q-42 -111 -100 -169.5t-116 -70.5
q-19 -4 -36 -4zM-58 13q81 0 137 151q16 45 52 217q-126 -91 -186 -200q-17 -30 -24 -50q-14 -39 -14 -70q0 -48 35 -48z" />
    <glyph glyph-name="t" unicode="t" horiz-adv-x="523" 
d="M-189 2q-81 0 -110 100q-13 44 -13 98q0 197 118 520q120 329 287 660l-106 11q-69 7 -308 11q-341 -12 -487 -101q-11 -7 -16 -12q-3 -3 -11 -24q-7 -17 -27 -20q-17 0 -17 11q0 4 3 11v3q12 28 57 61q97 58 235 82q136 20 362 28l178 -9q23 -1 156 -13q18 43 85 174
q65 139 101 189q46 60 82 60q28 0 28 -26l-6 -26q-17 -50 -35 -87q-24 -50 -49.5 -103.5t-38.5 -80.5t-19 -37q-6 -14 -19 -39.5t-17 -34.5q118 -9 145 -9l82 -6q65 -5 277 -8q172 0 312 30q139 29 252 93q59 29 107 58q71 41 82 55q0 3 5 8q16 16 26 16t10 -11
q0 -17 -16 -30q-42 -40 -148 -96q-164 -90 -310 -126q-161 -40 -503 -40q-134 4 -283 21l-59 4l-34 -69q-59 -113 -189 -430q-94 -228 -150 -413q-51 -184 -51 -299q0 -26 5 -71q8 -42 43 -42q48 0 96 42q91 77 252 323q93 141 137 227q1 2 35 64q9 24 33 24q12 0 12 -9
l-1 -11q-43 -92 -194 -314q-151 -218 -219 -288q-94 -99 -167 -99z" />
    <glyph glyph-name="u" unicode="u" horiz-adv-x="849" 
d="M816 -11q-34 0 -57 13q-60 37 -60 118q0 73 52 234q41 125 136 331q30 59 42 90l15 28q-27 -32 -75.5 -93t-78 -96t-57.5 -66q-107 -113 -216 -113q-46 0 -71 30q-30 37 -30 91q0 52 35 154q24 66 64.5 137.5t79.5 116.5q42 49 81 49q16 0 20 -9q3 -5 3 -15q0 -11 -4 -23
q-7 -19 -40 -74q-34 -60 -71 -134q-35 -77 -50 -115q-24 -66 -24 -109q0 -24 8 -39q11 -18 32 -18q30 0 79 33q90 62 242 262q100 134 112 143q17 14 41 14q13 0 22.5 -6t9.5 -16l-10 -33q-27 -69 -87 -197q-46 -98 -108 -266q-50 -134 -62 -194q-14 -72 -14 -111
q0 -87 65 -87q32 0 78 33t89 96q23 33 137 230.5t137 245.5l41 75q12 24 34 24q13 0 13 -11l-3 -13q-57 -102 -178 -311t-153 -257q-37 -57 -73.5 -85t-77.5 -44q-36 -13 -68 -13z" />
    <glyph glyph-name="v" unicode="v" horiz-adv-x="745" 
d="M469 153q-26 0 -45 11q-25 16 -35.5 42.5t-10.5 80.5q0 44 3 72q3 41 38 236.5t43 226.5q16 56 25 81q27 73 45 91q13 18 35 28q13 7 17 7q7 0 15 -7q10 -8 14 -26v-2q0 -13 -24 -120q-4 -17 -12 -49q-90 -375 -105 -501l-1 -6q-6 -40 -6 -74q0 -32 17 -39l14 -3
q33 0 98 80q44 52 113 153t112 176l25 44v29q0 56 29 135q34 98 80 147q20 20 36 20q22 0 22 -36q0 -22 -7 -46q-37 -115 -84 -197l-20 -39q15 -57 36.5 -88.5t60.5 -31.5q114 0 185 128q11 19 15.5 26.5t13 14t19.5 6.5t11 -11l-1 -8l-25 -49q-30 -49 -95.5 -92t-117.5 -43
q-110 12 -143 77q-150 -237 -213 -323t-120 -110q-31 -11 -57 -11zM906 774l6 11q7 10 27 63l9 34q-3 -5 -6 -14q-19 -42 -27 -63l-9 -30v-1z" />
    <glyph glyph-name="w" unicode="w" horiz-adv-x="885" 
d="M356 165q-55 0 -69 49q-10 33 -10 71q0 118 93 394l93 230q41 89 96 186.5t88 138.5q29 36 63 36q12 0 20.5 -7.5t8.5 -19.5l-2 -9l-6 -24q-10 -26 -52 -112q-135 -270 -225 -515q-39 -110 -55 -175q-15 -73 -15 -117q0 -24 5 -37l3 -16q30 25 54.5 56.5t87.5 132.5
q205 336 321 365q33 7 43 7q56 0 79 -77q10 -30 12 -71t4 -62.5t12 -21.5q15 2 39.5 18.5t50.5 46.5q65 79 109 198q11 34 19.5 64t13.5 46t11 32q4 12 11.5 19.5t13.5 7.5q8 0 8 -10q-5 -55 -36 -143q-3 -7 -10 -26t-9.5 -25.5t-8.5 -21.5t-9 -21t-8 -18.5t-8.5 -19
t-8.5 -15.5t-10 -16.5t-10 -14.5q-96 -145 -185 -145q-23 0 -44 13q-49 31 -63 151q-5 39 -9.5 53.5t-13.5 14.5q-12 0 -38 -24q-90 -78 -215 -290q-88 -146 -118.5 -189.5t-59.5 -64.5q-26 -22 -61 -22z" />
    <glyph glyph-name="x" unicode="x" horiz-adv-x="650" 
d="M-46 206q-11 0 -11 15l3 12q3 8 13 22q26 28 84 81.5t113 98.5l80 68l-12 61q-11 75 -14 113q-8 57 -8 97q0 33 6 50q14 30 25 41t30 11q18 0 28.5 -18t14.5 -62q19 -216 26 -216q1 0 10.5 7.5t30.5 24t38 29.5q147 113 170 129q94 67 106 67q8 0 8 -13v-5q-2 -7 -60 -50
q-20 -16 -33 -25q-188 -140 -251 -197l-17 -16q34 -172 54 -210q24 -45 72 -45q32 0 74 20q97 45 202 159q13 14 28 35.5t28 42.5t26.5 45t22.5 41t16.5 31.5t7.5 15.5q23 44 34 52q8 5 19 5t11 -11l-3 -13l-25 -45q-148 -271 -345 -375q-55 -29 -113 -29q-20 0 -33 5
q-49 13 -79 49t-82 158q-6 0 -133 -112t-129 -118q-4 -6 -14 -16q-13 -10 -19 -10z" />
    <glyph glyph-name="y" unicode="y" horiz-adv-x="745" 
d="M-301 -774q-21 0 -55 4q-45 5 -71.5 38t-26.5 89l2 30q9 59 22 92q29 79 120 192q74 91 180.5 183t313.5 250l41 31q22 78 50.5 176t43 149t27 98t15.5 67q-60 -69 -108 -109.5t-108 -68.5q-42 -23 -84 -23q-38 0 -70 21.5t-32 71.5q0 21 3 34q6 27 27 89q20 50 38 88
q64 118 123 159q23 16 37 16t22 -11.5t8 -28.5q0 -13 -4 -25q-1 -2 -10.5 -18t-21.5 -37t-22 -39q-55 -91 -76 -149q-18 -50 -18 -78q0 -43 39 -43q16 0 25 3q36 9 80 44t76 68.5t93 103.5q40 113 58 143q15 25 38 51q18 19 40 19q13 0 23 -7.5t10 -19.5l-2 -6
q-17 -45 -35.5 -74t-52.5 -71q-9 -38 -21 -61t-25 -65t-30 -137q-6 -36 -25 -118.5t-30 -135.5l118 95q57 50 83 74t75 73t86 98t68 103q4 8 12 23t12 22q12 24 36 24q11 0 11 -11l-1 -8q-5 -15 -27 -50q-67 -110 -132.5 -186t-174.5 -167l-175 -134q-23 -114 -31.5 -154.5
t-28.5 -114.5t-46 -145q-41 -112 -91 -200q-57 -96 -114.5 -162.5t-111 -101t-100 -49t-95.5 -14.5zM-314 -740q68 0 147.5 70.5t134.5 168.5q127 218 185 381q23 67 30 93q5 23 30 114q-96 -73 -232 -182q-154 -127 -277 -264q-78 -92 -106 -175q-20 -54 -20 -99
q0 -23 8 -49q23 -58 100 -58z" />
    <glyph glyph-name="z" unicode="z" horiz-adv-x="598" 
d="M-707 -770q-55 5 -78 15.5t-44 48.5q-22 42 -22 90q0 47 21 104q33 92 88.5 164t188.5 184q16 13 298 224q37 27 91 65t93 66.5t76 57.5l-2 3l2 2q-4 30 -18 55.5t-28 32.5q-6 6 -28 6q-29 3 -29 17l2 7q1 2 121 149q7 9 21 24q94 111 105 133l2 6l1 9q0 13 -25 25
q-15 7 -69 7q-40 0 -83.5 -1.5t-63.5 -1.5l-23 1l-33 -64q-14 -24 -37 -24q-11 0 -11 11l2 8l41 79q-16 9 -25 25q-11 24 -11 45t11 56q18 54 66 82q21 12 44 12q38 0 43 -33v-11q0 -19 -7 -39l-17 -37q25 -7 113 -20q73 -10 101 -25q44 -28 44 -59q0 -14 -8 -36
q-8 -25 -26 -47.5t-109 -124.5l-103 -118q0 -3 15 -9q21 -11 41.5 -38.5t33.5 -62.5l24 21q153 124 216 192t118 164q15 28 16 29q12 24 36 24q11 0 11 -11l-2 -8q-3 -9 -20 -39q-57 -91 -151 -190.5t-199 -178.5l-39 -33q3 -12 8 -55v-16q0 -141 -46 -266
q-49 -134 -169 -306q-121 -176 -284.5 -283t-283.5 -107zM-696 -718q31 0 50 6q74 19 173.5 93t179.5 170q93 109 146 203.5t100 225.5q30 80 41.5 128t11.5 98v10l-258 -191q-282 -211 -380 -301q-115 -109 -154 -222q-22 -61 -22 -105q0 -68 47 -100q19 -15 65 -15z" />
    <glyph glyph-name="braceleft" unicode="{" horiz-adv-x="500" 
d="M629 -22q-20 0 -38 8q-56 23 -85.5 69.5t-29.5 139.5q4 77 38 169q28 80 96 216q66 127 97 219q11 31 11 38v4q0 15 -6 25q-9 11 -30.5 22.5t-35.5 11.5q-13 0 -17.5 3t-6.5 14q2 16 11 27t21 11q6 0 45 23t62 40q45 34 70.5 69t52.5 101q21 54 29.5 90.5t20.5 123.5
q8 75 25 123q21 57 79 126q93 103 194 145q24 9 41 9q27 0 35 -15q9 -12 9 -21q0 -6 -2 -9q-5 -12 -7 -14q-12 -13 -22 -13q-12 0 -15 5q0 4 -8 4q-17 0 -52.5 -16.5t-63.5 -39.5q-73 -61 -107 -112q-19 -24 -27 -51q-15 -40 -30 -152q-14 -98 -41 -169q-54 -148 -173 -232
l-46 -34q47 -34 47 -77v-13q0 -14 -12 -47q-33 -90 -137 -304q-26 -54 -55 -133q-29 -83 -32 -108l-3 -40q0 -50 17.5 -88t42 -56.5t45.5 -27.5t34 -9q28 0 28 -13l-3 -11q-4 -14 -23.5 -22.5t-42.5 -8.5z" />
    <glyph glyph-name="bar" unicode="|" horiz-adv-x="165" 
d="M151 -14q-16 0 -16 16q0 17 37 115q11 31 39 114.5t38 111.5q64 203 228 651l123 332q64 152 133 334q50 134 61 144q9 9 17 9t15 -11q3 -4 3 -12q0 -14 -29 -101q-125 -323 -332 -878q-97 -271 -147 -416q-36 -125 -89 -264q-6 -16 -16 -43q-31 -83 -38 -90q-2 -2 -5 -4
q-13 -8 -22 -8z" />
    <glyph glyph-name="braceright" unicode="}" horiz-adv-x="466" 
d="M151 -14q-13 0 -14 1q-24 10 -24 32l2 9q4 16 20 16q6 0 16 -5q6 -6 14 -6q12 0 35 8q97 30 175 83q102 70 159 223q21 55 26.5 89t6.5 120q2 64 5.5 83t18.5 62q27 66 53 106l2 3q0 3 -13 11q-19 6 -31.5 23t-12.5 35q0 17 13 49q22 60 55 116q67 108 148 223
q105 155 137.5 206.5t46.5 92.5q26 75 26 107q0 25 -13 46q-17 30 -58 30q-29 0 -60 -21q-12 -9 -24 -9t-20 14l-2 9l2 7q3 8 9 15q19 28 73 46q8 3 33 3q46 0 64 -11q55 -31 55 -126v-6q-3 -38 -22 -85q-23 -61 -50 -109q-37 -62 -165 -246q-100 -145 -138 -204t-50 -90
q-6 -23 -6 -36q0 -30 38 -30q18 0 23.5 -2.5t7.5 -10.5q3 -5 3 -11q0 -8 -1 -11q-3 -9 -30 -52q-28 -41 -41 -76q-14 -39 -22 -135q-6 -83 -13.5 -125t-23.5 -89q-39 -100 -59 -134q-57 -88 -112 -128q-57 -41 -140 -75.5t-122 -34.5z" />
    <glyph glyph-name="asciitilde" unicode="~" horiz-adv-x="478" 
d="M720 810q-14 0 -14 19q0 11 4 22q5 17 32 44q47 47 104 47q32 0 61 -17q48 -32 95 -32q17 0 35 5q29 9 50 46q12 22 17 25q10 6 15 6q8 0 12 -11q0 -11 -3 -19q-7 -20 -27 -44t-42 -39q-33 -21 -95 -21q-33 0 -80 21q-43 19 -58 19q-54 0 -71 -32q-13 -22 -20 -29.5
t-15 -9.5z" />
    <glyph glyph-name="exclamdown" unicode="&#xa1;" horiz-adv-x="266" 
d="M-323 -668q-24 0 -27 36q0 10 16 66q17 50 123 293q43 98 71 161q103 235 255 594.5t178 429.5q6 13 19.5 24t23.5 11q8 0 14 -11.5t6 -26.5v-5q-4 -29 -42 -137q-68 -184 -248 -622q-173 -425 -302 -685q-33 -67 -46 -90t-25 -32q-7 -6 -16 -6zM399 1078q-9 0 -19 6
q-18 10 -18 33q0 10 5 20q4 14 16.5 27.5t22.5 15.5l21 3q31 0 31 -31l-3 -21q-9 -40 -36 -49q-12 -4 -20 -4z" />
    <glyph glyph-name="cent" unicode="&#xa2;" horiz-adv-x="671" 
d="M764 61q-11 0 -14 13q0 1 2.5 8.5t6 20t8 27.5t11 35t13.5 40q140 411 140 425q-39 -20 -77 -20q-36 0 -66 17q-40 24 -58 52t-18 85q0 18 6 74q4 35 35 121q27 77 54 123q74 122 177.5 220t197.5 135q10 4 19 6.5t13 4t7 2t5 4t3.5 5.5t5.5 11t8 17q112 260 134 282
q7 11 20 11q12 0 15 -9l-5 -19q-6 -15 -32.5 -75.5t-48.5 -120.5l-40 -102q55 -11 83 -35.5t28 -77.5l-3 -32q-9 -44 -38 -44q-17 0 -17 21l3 47q0 38 -13.5 49t-44.5 14l-25 3q-230 -652 -230 -657q7 0 60.5 39.5t90.5 72.5q65 56 115 120q21 22 30 22q13 0 13 -11l-2 -10
l-11 -20q-35 -50 -107 -117t-153 -124l-66 -46q-136 -402 -175 -512q-29 -80 -44 -90q-8 -5 -16 -5zM870 674q28 0 64 13l24 9q4 12 19.5 61.5t42.5 125.5t81 223q96 267 96 276l-1 1q-7 0 -36 -15.5t-53 -31.5q-66 -45 -136 -124.5t-119 -163.5q-15 -27 -44 -106
q-32 -89 -36 -129l-2 -35q0 -48 17.5 -69t56.5 -32q8 -3 26 -3z" />
    <glyph glyph-name="sterling" unicode="&#xa3;" horiz-adv-x="1080" 
d="M244 61h-3q-6 6 -6 16l-2 13l2 8q6 14 71 75q155 145 256 290q86 121 97 150v1q-38 0 -130 -7q-96 -8 -130 -8q-11 0 -11 11l1 6q6 18 25 22q46 9 224 21q48 3 52 6l91 167q99 180 161.5 279.5t142.5 200.5q98 123 209.5 228.5t209.5 167.5q100 61 167 77q22 5 35 5
q29 0 47.5 -13t20.5 -35v-6q0 -14 -10 -46q-7 -21 -19.5 -36.5t-22.5 -15.5q-14 0 -14 24q0 13 4 25l4 14q0 18 -32 18q-68 -2 -186 -79.5t-231 -194.5q-215 -222 -394 -547q-109 -206 -122 -224l-1 -1q0 -6 98 -10q137 -4 152 -19l2 -6l-2 -8q-1 -1 -2.5 -4l-2 -4t-2 -3
t-3 -2.5t-4 -1.5t-5.5 -1h-7q-22 0 -82 7q-29 4 -74 4l-98 -4q-91 -150 -159.5 -241.5t-172.5 -193.5q-51 -49 -51 -52q17 0 23 0.5t13.5 2t20.5 2.5q52 8 142 8q117 0 417 -19q186 -12 198 -18q4 -2 5 -9l2 -6l-2 -7q-7 -10 -9 -12l-8 -13l-279 14q-126 8 -296 8h-74
q-70 0 -161 -13q-70 -11 -85 -11z" />
    <glyph glyph-name="currency" unicode="&#xa4;" horiz-adv-x="806" 
d="M340 301q-2 0 -6 9l-3 10l1 6q5 14 275 290l67 69q-15 45 -15 70q0 26 6 52q4 19 14 47q26 74 91 151q32 37 38 46l-12 69q-29 130 -29 178q0 22 5 35q3 9 11 14q10 5 17 5q16 0 16 -18l-2 -12q0 -15 22.5 -116.5t26.5 -101.5t41 26q64 47 101 47q27 0 33 -18q2 -6 51 -6
h50q200 186 230 210q21 17 36 17q11 0 11 -11l-3 -14q-9 -20 -24 -29q-27 -19 -106.5 -93.5t-83.5 -84.5q3 -4 23 -7q18 -2 34 -12t22 -22q8 -12 8 -34q0 -17 -12 -57q-23 -64 -84.5 -138.5t-143.5 -132.5l-47 -36q17 -42 44 -84.5t52 -65.5q20 -18 20 -30l-1 -8
q0 -11 -14 -20q-3 -2 -10 -2q-43 0 -112 120l-36 60q-59 -25 -95 -36t-75 -11q-18 0 -47 11q-18 6 -26 6l-4 -2l-106 -105q-213 -216 -234 -233q-10 -8 -15 -8zM912 928q4 0 23 19t71 72t89 90h-36q-18 0 -34.5 -4.5t-20.5 -4.5h-4q-19 0 -44 -15.5t-74 -54.5l3 -14
q26 -88 27 -88zM989 753q14 7 63.5 45t73.5 62q40 40 72.5 86.5t44.5 79.5q6 11 6 26v5q0 16 -10 24.5t-37 14.5l-33 7q-15 0 -35.5 -17.5t-92.5 -89.5q-102 -102 -110 -114q0 -4 24 -69q24 -60 31 -60h3zM726 742q14 9 71 68l68 67q-19 60 -32 90l-4 11
q-32 -39 -46.5 -57.5t-31 -45t-25.5 -51.5q-8 -25 -8 -47q0 -35 8 -35zM808 690q18 0 27 2q26 2 57 12.5t33 17.5l-46 110q-4 -1 -63 -61t-61 -65v-2q0 -14 53 -14z" />
    <glyph glyph-name="yen" unicode="&#xa5;" horiz-adv-x="1030" 
d="M1152 -14l-8 3q-8 5 -8 14q0 18 80 240l82 226q-28 -1 -56.5 -2.5t-45.5 -2.5t-32 -1q-24 0 -31.5 3t-7.5 11l1 10q6 15 27.5 20.5t89.5 10.5l80 5q5 5 29 65l26 64l-171 -3q0 5 -1 9t-1 5l2 8q3 8 14 16l16 12l127 -1q31 0 35 8q6 10 49 112q67 164 167 386l168 354
q-3 0 -52 -68q-80 -113 -140 -189t-151 -179q-135 -154 -232 -235t-189 -118q-46 -18 -80 -18q-93 0 -107 111l-3 44q0 100 74 307q38 105 67 167q61 124 139 253.5t113 165.5q16 16 30 16q13 0 21 -13q3 -4 3 -12q0 -9 -5 -24q-11 -32 -42 -82q-59 -97 -135.5 -237
t-113.5 -220q-43 -93 -54 -123q-47 -136 -47 -217q0 -61 25 -82q17 -14 46 -14q31 0 65 14q138 55 354 284q145 159 304 382q99 138 125.5 171.5t38.5 33.5q10 0 19 -11l1 -8q0 -13 -9 -34q-77 -188 -114 -265q-102 -214 -215 -485l-76 -178q28 -3 63.5 -6.5t51 -5t33 -5
t25.5 -8.5t13 -13l2 -13l-2 -8q-2 -7 -16 -17q-3 -1 -6 -4q-3 -2 -5 -2t-9 9q-9 11 -27 14q-38 10 -134 10h-9l-51 -123q104 -3 118 -9q14 -4 14 -16v-5q-5 -11 -5.5 -12.5t-7.5 -6t-17.5 -5t-32.5 -0.5l-89 2q-2 -5 -9 -19.5t-11.5 -25t-15.5 -37.5t-29 -74.5t-44 -119.5
q-53 -142 -67.5 -175.5t-23.5 -33.5z" />
    <glyph glyph-name="brokenbar" unicode="&#xa6;" horiz-adv-x="206" 
d="M558 1081q-12 0 -19 19l-2 11q0 39 51 179q58 160 132.5 328t95.5 186q5 5 19 5q14 -3 14 -23q0 -27 -17 -70q-22 -61 -73 -169q-93 -209 -141 -340q-21 -57 -24 -76q0 -11 -5 -24q-8 -21 -23 -25zM110 -20q-5 0 -12 4q-3 4 -3 10l14 47q112 293 272 696q51 121 62 137
t20 16q5 0 9 -7t4 -17v-6q-4 -22 -30 -94q-23 -65 -66 -171l-141 -345q-98 -245 -105 -256q-12 -14 -24 -14z" />
    <glyph glyph-name="section" unicode="&#xa7;" horiz-adv-x="782" 
d="M189 8q-33 0 -44 20q-10 13 -10 22l4 15q6 17 19 20l4 2q6 0 14 -15q4 -10 8 -12.5t16 -2.5q64 0 181 36t207 83q88 47 158 119.5t95 140.5q11 41 11 65q0 130 -209 183q-109 27 -141.5 40.5t-46.5 39.5q-12 20 -12 43q0 15 8 36q10 27 25 47q42 63 136.5 153.5
t181.5 149.5l50 36q-64 20 -96 45t-33 62v6q0 14 8 35q21 58 80 123q79 86 224 181t236 121q22 7 46 7q57 0 71 -32q3 -9 3 -22q0 -12 -5 -25q-10 -20 -11 -21q-14 -17 -23 -17q-10 0 -19 14q-6 10 -12 13t-23 3q-23 0 -80 -22q-97 -41 -226 -131.5t-181 -152.5
q-19 -23 -26 -42q-3 -9 -3 -16q0 -26 37 -47.5t130 -53.5q30 -10 75 -27.5t47 -18.5q117 -55 117 -151q0 -26 -9 -52q-5 -14 -12 -25q-17 -29 -47.5 -64t-59.5 -57q-57 -44 -138 -87t-133 -57l-22 -4q63 -33 92.5 -62t43.5 -85q6 -19 6 -50q0 -43 -16 -87q-25 -69 -86 -139
q-76 -89 -202 -159q-72 -38 -187.5 -76.5t-184.5 -46.5zM696 736q6 0 8 9q8 23 14.5 33.5t17.5 10.5t11 -17q3 -14 4 -14q3 0 40 11q70 21 167.5 81t136.5 106q19 21 33 57q8 26 8 43v7q-13 74 -147 123q-39 14 -44 14q-3 0 -12 -9q-7 -8 -13 -8q-3 1 -4.5 2t-3 1.5
t-5.5 1.5q-19 0 -104 -62q-104 -80 -212 -185q-75 -75 -85 -103l-3 -14q0 -10 4 -17q15 -23 118 -51z" />
    <glyph glyph-name="dieresis" unicode="&#xa8;" horiz-adv-x="272" 
d="M1032 1221q-12 2 -16.5 7t-4.5 20q0 6 4 22q9 25 28 36q12 9 16 9q3 0 12 -9q8 -8 8 -25q0 -14 -5 -27q-14 -33 -42 -33zM1152 1229q-14 0 -22 11q-5 8 -5 14q0 5 5 20q11 26 22 34q8 7 20 7q13 0 22 -9q5 -5 5 -13q0 -5 -5 -20q-7 -21 -18.5 -32.5t-23.5 -11.5z" />
    <glyph glyph-name="copyright" unicode="&#xa9;" horiz-adv-x="1099" 
d="M975 208q-66 0 -96 11q-108 39 -169 143.5t-61 248.5q0 58 13 133q19 102 53 197q58 160 169 300q99 130 217 214.5t237 110.5q20 5 83 5q62 -2 103 -18t86 -55q102 -88 126 -238q8 -47 8 -107q0 -142 -55 -296q-42 -111 -104 -213q-105 -171 -238.5 -282t-276.5 -145
q-40 -9 -95 -9zM992 260q81 0 172 39q38 14 58.5 26t67.5 45q213 158 322 408q45 113 64 190.5t19 164.5q0 29 -3 58q-4 60 -32 126.5t-64 103.5q-34 35 -107 57q-36 9 -84 9q-56 0 -107 -14q-128 -39 -250.5 -147.5t-210.5 -260.5q-54 -94 -81 -170q-45 -127 -49 -236v-26
q0 -221 112 -312q74 -61 173 -61zM1052 583q-45 0 -67 12q-27 17 -43.5 52.5t-16.5 78.5l3 36q5 36 25 87q18 55 39 92q43 79 117 162q123 140 263 190q36 13 65 13q30 0 53 -13q44 -25 44 -80q0 -17 -11 -52q-21 -65 -47 -65q-7 0 -13 8.5t-6 18.5l2 11q1 2 1 16
q0 32 -17 46q-12 12 -41 12q-57 0 -146 -58q-87 -56 -159 -147.5t-106 -181.5q-21 -58 -21 -99q0 -48 27 -73q28 -24 66 -24q60 0 116 24t122 76q153 115 170 162q8 17 18 17q7 0 11 -6q3 -3 3 -9q0 -7 -2 -12q-8 -27 -86 -97q-115 -107 -198 -152t-165 -45z" />
    <glyph glyph-name="ordfeminine" unicode="&#xaa;" horiz-adv-x="360" 
d="M1424 1435q-13 0 -22 16q-5 13 -5 28q0 26 13 81l9 42q-75 -79 -110.5 -110.5t-62.5 -37.5l-19 -3q-4 0 -12 5q-15 15 -15 42q0 28 11 55l15 32q37 74 104 140.5t121 81.5q17 6 30 6q10 0 22 -4q28 -11 31 -48v-6q0 -14 -4 -25q-8 -25 -27 -25q-9 0 -16 9q-8 13 -22 13
q-25 0 -72.5 -34.5t-88.5 -82.5q-15 -18 -37 -65q-13 -31 -13 -34t3 -3q11 0 47.5 31t80.5 80q44 46 55.5 56.5t21.5 11.5q10 0 14.5 -4t4.5 -15q0 -22 -11 -60q-27 -88 -27 -116v-19q0 -23 -3 -27q-7 -11 -16 -11z" />
    <glyph glyph-name="guillemotleft" unicode="&#xab;" horiz-adv-x="516" 
d="M915 573q-25 0 -47 21.5t-60 84.5q-75 116 -80 170q0 21 6 38q14 42 103 126q31 29 126 112t122 104q17 14 34 14q14 0 14 -14l-3 -13q-5 -14 -21 -30q-9 -9 -109 -97q-165 -139 -200 -185q-9 -10 -12 -20q-2 -2 -2 -8v-13q4 -39 56 -130t78 -108q22 -13 22 -23l-1 -8
q-7 -13 -11.5 -17t-14.5 -4zM1074 704q-10 0 -33 22q-85 81 -97 148l-2 18q0 20 6 33q7 24 32 50q21 23 105.5 97t113.5 94q28 19 39 19q8 0 8 -13v-6q0 -13 -24.5 -36.5t-114.5 -97.5q-94 -83 -107 -101q-4 -6 -6 -11l-2 -11q0 -4 4 -20q7 -21 34 -61.5t49 -60.5
q21 -19 21 -33l-2 -8l-8 -12q-10 -10 -16 -10z" />
    <glyph glyph-name="logicalnot" unicode="&#xac;" horiz-adv-x="582" 
d="M1141 674q-16 0 -16 21q0 7 16 94q17 90 17 104q0 15 -11 18q-2 1 -24 1q-58 0 -203 -14q-88 -9 -123 -9q-21 0 -27.5 2t-8.5 9l-2 7q0 9 3 18q5 10 12 17q6 6 39 6q5 1 26 3t46.5 4.5t45.5 5.5q76 10 156 14l76 5q9 0 25 -7t20 -15q8 -13 8 -30q0 -29 -20 -110
q-18 -62 -24 -104q-5 -23 -10.5 -31.5t-20.5 -8.5z" />
    <glyph glyph-name="registered" unicode="&#xae;" horiz-adv-x="691" 
d="M1235 1029q-88 4 -133.5 60t-45.5 156q0 72 28 152q54 149 169.5 267t235.5 145q17 4 41 4q51 0 88 -19q109 -54 109 -197q0 -67 -32 -160q-35 -97 -101 -184.5t-148 -146.5q-108 -77 -211 -77zM1246 1084q34 0 66 8q67 18 139.5 74.5t122.5 128.5q43 63 68 132
q28 77 28 148q0 113 -68 150q-20 11 -71 14h-17q-35 0 -58 -6.5t-62 -27.5q-113 -61 -198 -183q-24 -34 -33 -51t-27 -70q-22 -58 -27.5 -86t-5.5 -77q2 -48 24.5 -89t58.5 -56q21 -9 60 -9zM1473 1241q-39 10 -148 84q-28 19 -32 19q-5 -9 -12.5 -22t-11.5 -20t-9.5 -16
t-9 -14t-8 -9.5t-8.5 -6.5t-8 -2q-8 0 -15 11q-1 1 -1 9q0 13 14 51q20 52 38 79q42 75 60 113q41 88 49 93q7 8 15 8q6 0 11 -5.5t5 -13.5q0 -7 -1 -9l-4 -11l2 -4q7 3 18 9t16 8.5l13 6.5t13 5.5t11.5 2.5t13.5 1q31 0 36 -26l2 -13q0 -10 -5 -25q-22 -65 -135 -147
q-26 -20 -27 -22v-1l1 -3q10 -8 65 -45t61 -39q13 -3 13 -17l-2 -8q-1 -1 -2.5 -4.5t-3.5 -5.5q-8 -11 -14 -11zM1323 1408q76 53 112.5 85t40.5 56q0 7 -8 7q-22 0 -67 -40.5t-63 -80.5z" />
    <glyph glyph-name="macron" unicode="&#xaf;" horiz-adv-x="538" 
d="M1142 1271q-73 0 -88 11q-8 8 -8 19l2 11q5 11 14 18q11 8 31 8q230 2 303 4q83 0 91 -11q5 -8 5 -16l-2 -9q-4 -11 -14 -19q-9 -9 -19 -9q-38 4 -58 4q-49 0 -191 -9q-24 -2 -66 -2z" />
    <glyph glyph-name="degree" unicode="&#xb0;" horiz-adv-x="308" 
d="M1005 1068q-27 0 -42.5 20.5t-17.5 55.5q0 29 14 63q17 47 47.5 90.5t61.5 63.5q18 13 28 13t19.5 -10.5t9.5 -21.5l-5 -16q0 -4 10 -7q17 -4 29.5 -34.5t12.5 -63.5q0 -17 -5 -32q-15 -41 -60 -76.5t-91 -42.5zM1026 1122q27 0 56.5 19t37.5 42q3 9 3 24q0 27 -8 45
q-7 21 -28 21h-6q-16 0 -16 3q-3 5 -5 5q-4 0 -23 -24q-17 -31 -29 -60q-9 -29 -9 -41q0 -15 7.5 -24.5t19.5 -9.5z" />
    <glyph glyph-name="plusminus" unicode="&#xb1;" horiz-adv-x="690" 
d="M775 684q-5 0 -9 3q-7 4 -10 23v7q0 42 33 137l30 66q-51 -6 -138 -8l-95 -3q-14 23 -14 24l3 11q3 14 20 28q14 11 190 25l63 7q4 4 34 77q63 151 77 160q7 4 11 4q6 0 11 -10q4 -6 4 -9q0 -7 -13 -43l-69 -178h263q11 -26 11 -28q0 -6 -2 -11q-7 -14 -12 -19
q-6 -6 -23.5 -7t-91.5 -3q-125 -4 -141 -6q-7 -1 -14 -1.5t-9.5 0t-6 -0.5t-4.5 -1t-3 -3t-3 -5t-4 -9t-6 -13l-22 -55q-30 -83 -30 -112v-5l-2 -19q-8 -23 -28 -23zM904 348q-1 0 -5.5 2t-6.5 2.5t-11.5 2t-22.5 2t-36 1t-55 0.5q-93 0 -258 -5l-147 -3v12q5 27 24 33
q10 3 118 7l112 4q2 2 74 2q146 0 186 -3q45 -4 52 -13q3 -3 3 -11t-2 -11q-10 -22 -25 -22z" />
    <glyph glyph-name="twosuperior" unicode="&#xb2;" horiz-adv-x="463" 
d="M1492 1388q-9 0 -21 8q-20 13 -57.5 17.5t-124.5 4.5q-79 0 -95 1t-20 8l-2 8l2 8q10 23 67 63q83 58 142.5 116t72.5 92l3 13l-2 7q-5 10 -23 10q-32 0 -81 -20t-67 -43q-12 -17 -24 -17q-8 0 -11 11q-2 3 -2 9q0 9 3 14q4 12 21 33q22 26 62 47t83 29l33 8
q25 -9 34.5 -13.5t18 -16.5t8.5 -32q0 -18 -6 -34q-14 -35 -41 -66q-58 -68 -164 -149l-55 -39q139 0 205 -9.5t66 -36.5l-1 -9q-17 -22 -24 -22z" />
    <glyph glyph-name="threesuperior" unicode="&#xb3;" horiz-adv-x="381" 
d="M1235 1367q-19 0 -19 8l3 11q4 12 9 15t24 7q59 15 160 90q52 40 55 52l3 11q0 32 -90 41q-34 4 -41 6.5t-9 12.5l-2 8l2 8q8 17 37 42q20 16 43 37t25 26q0 7 -33 7q-20 0 -28 -2q-34 -6 -48 -14q-13 -5 -18 -5q-12 0 -15 16q2 22 19.5 35.5t64.5 24.5q17 3 36 3
q41 0 60 -9q17 -8 17 -29l-3 -17q-12 -33 -68 -87l-9 -8q0 -3 9 -6q83 -15 92 -68v-8q0 -11 -3 -23q-13 -34 -74 -81q-59 -45 -115.5 -74.5t-83.5 -29.5z" />
    <glyph glyph-name="acute" unicode="&#xb4;" horiz-adv-x="222" 
d="M911 1085q-16 0 -16 15q2 13 6.5 19t39.5 42q20 20 55 76q12 18 31.5 44t20.5 28q20 22 36 22q4 0 9 -3q5 -5 5 -11q0 -5 -3 -17q-14 -37 -76 -115q-72 -100 -108 -100z" />
    <glyph glyph-name="mu" unicode="&#xb5;" horiz-adv-x="861" 
d="M298 -14q-10 0 -16 6q-8 8 -8 25q0 25 16 101q32 151 158.5 554t230.5 689l52 139q89 214 109 234q8 8 17 8q11 0 20 -9q4 -4 4 -13q0 -32 -65 -214q-173 -477 -183 -514q-8 -30 -8 -39l2 -12q13 -38 76.5 -64t144.5 -26q48 0 81.5 8t88.5 33q231 107 351 405l3 12
q29 77 59.5 218t30.5 195v24q0 18 5 33q5 13 11 17q10 8 20 8q14 0 19 -11q5 -10 5 -36q0 -70 -30.5 -212.5t-67.5 -244.5q-52 -129 -113 -215t-152 -157q-87 -68 -193 -107q-37 -12 -52.5 -15t-56.5 -4q-65 0 -93 3q-41 7 -81 24t-62 37l-26 24q-15 -52 -55 -168
q-112 -335 -173 -558q-28 -109 -47 -164q-4 -14 -22 -14z" />
    <glyph glyph-name="paragraph" unicode="&#xb6;" horiz-adv-x="675" 
d="M977 -14q-8 0 -15 9t-7 19v5q0 66 252 759q186 509 255 667l9 26q-214 -308 -274 -390q-273 -374 -397 -374q-60 0 -60 95q0 81 49 219q93 229 204.5 391.5t266.5 276.5q81 59 137 75q20 7 40 7q38 0 63.5 -24.5t32.5 -68.5l3 -25q29 31 43 31q15 0 18 -27q0 -14 -7 -36
q-50 -119 -122 -298q-59 -138 -216 -573q-148 -400 -198 -566q-38 -119 -41 -141q-19 -57 -36 -57zM826 775q61 0 207 167q101 120 212 277q54 77 143.5 212t93.5 144v7q0 15 -5 43.5t-9 38.5q-6 12 -20 17q-10 6 -25 6q-20 0 -45 -12q-109 -46 -256 -219
q-194 -229 -284 -478q-39 -100 -39 -157q0 -19 3 -27q4 -12 8 -15.5t16 -3.5z" />
    <glyph glyph-name="periodcentered" unicode="&#xb7;" horiz-adv-x="170" 
d="M811 917q-13 0 -20 12q-6 7 -6 18l1 8q6 17 33 44q18 17 27 17q7 0 13 -6q11 -8 11 -25q0 -11 -5 -24q-4 -13 -21 -28q-19 -16 -33 -16z" />
    <glyph glyph-name="periodcentered" unicode="&#x2219;" horiz-adv-x="170" 
d="M811 917q-13 0 -20 12q-6 7 -6 18l1 8q6 17 33 44q18 17 27 17q7 0 13 -6q11 -8 11 -25q0 -11 -5 -24q-4 -13 -21 -28q-19 -16 -33 -16z" />
    <glyph glyph-name="cedilla" unicode="&#xb8;" horiz-adv-x="300" 
d="M-2 -329q-23 0 -23 22q0 13 1 16q4 6 7 9q8 9 14 9q7 0 11 -7q5 -5 8 -5q6 0 19 6q21 10 51 34t34 34l1 9q0 17 -19.5 27t-51.5 10l-36 -2q-15 0 -22 8q-6 12 -6 19t5 20q16 35 22 46q47 88 58 96q8 5 14 5q13 0 16 -14q0 -13 -8 -30q-8 -28 -32 -68l-7 -14
q37 -7 50.5 -10.5t28.5 -12.5t25 -25q11 -18 11 -36q0 -12 -5 -27q-12 -36 -73 -78q-62 -41 -93 -41z" />
    <glyph glyph-name="onesuperior" unicode="&#xb9;" horiz-adv-x="258" 
d="M1257 1298q-28 0 -28 35l1 14q22 72 90 213l54 105l12 33q-71 -36 -88 -41q-5 -1 -9 -2.5t-6.5 -2.5t-3.5 -1q-4 0 -8 6l-1 7q0 9 3 14q4 10 15.5 18.5t52.5 30.5l75 39l11 2q26 0 26 -35l-2 -16q-17 -45 -60 -126q-49 -94 -82 -167q-5 -12 -12 -26t-9 -19.5t-4 -14
t-2 -20.5l2 -11q0 -9 -3 -14q-5 -18 -24 -21z" />
    <glyph glyph-name="ordmasculine" unicode="&#xba;" horiz-adv-x="367" 
d="M1218 1352q-34 0 -49 15t-19 57v10q0 19 9 42q3 8 8.5 23t7 19.5t6 15t7 15t7.5 13t10 16.5t13 18q52 77 111 132.5t106 70.5l14 5q5 0 13.5 -7.5t8.5 -11.5q0 -5 10 -17q14 -17 14 -56q0 -47 -22 -126q-22 -62 -55 -106t-92 -84q-37 -26 -59 -35t-49 -9zM1240 1404
q33 0 83 34q33 23 53 49t36 68q34 90 34 143v5q0 10 -1.5 13t-7.5 3h-13q-7 0 -11 4q0 4 -3 4q-6 0 -33 -22q-28 -22 -67.5 -66t-63.5 -79q-13 -22 -28 -60q-13 -48 -13 -59v-4q3 -33 35 -33z" />
    <glyph glyph-name="guillemotright" unicode="&#xbb;" horiz-adv-x="516" 
d="M703 573h-10q-11 0 -11 10q2 12 4 17t11 11t29 14q38 17 155.5 107.5t151.5 130.5q12 13 15 21q1 3 1 20q0 43 -64 185q-34 78 -40 97l-1 13q0 9 3 17q10 27 31 27q14 0 22 -14q12 -24 47.5 -106.5t44.5 -109.5q17 -54 17 -87q0 -23 -6 -39q-7 -21 -22 -38
q-34 -43 -204 -170q-133 -99 -174 -106zM629 704q-5 0 -8 10q0 10 1 12q4 16 48 41q37 20 93 60t78 62t25 31l4 14q0 6 -1.5 12t-5 15.5t-6.5 17.5t-10 24.5t-12 28.5q-46 100 -46 121l2 10q11 22 25 22q12 0 24 -19q15 -20 45.5 -94t34.5 -97q2 -8 2 -22q0 -13 -5 -28
q-8 -21 -33 -51q-57 -64 -205 -148q-39 -22 -50 -22z" />
    <glyph glyph-name="onequarter" unicode="&#xbc;" horiz-adv-x="875" 
d="M191 -14q-6 0 -12 7.5t-6 15.5l2 7q20 55 349.5 564t682.5 1032q25 34 83 130q26 51 40 62q11 11 19 11q9 0 12 -13q2 -3 2 -9q0 -10 -3 -18q-29 -72 -61.5 -125t-153.5 -229q-215 -313 -463.5 -690t-396.5 -619q-51 -81 -67.5 -103.5t-26.5 -22.5zM696 1089
q-15 0 -20 25v12q0 41 39 145q38 109 63 165.5t95 195.5l15.5 31t10.5 20.5t5 12.5t2 16q0 4 -3 4t-74 -41q-65 -40 -76 -40q-7 0 -12 5.5t-5 12.5l1 6q4 9 56 44.5t94 57.5t55 22q15 0 19 -11q8 -10 8 -25q0 -16 -13 -52q-16 -43 -41 -90q-72 -142 -135 -302
q-46 -121 -49 -148q-2 -10 -3.5 -21t-3 -17.5t-2.5 -10.5q-3 -8 -15 -14q-8 -3 -11 -3zM890 43q-7 0 -11 7q-3 5 -3 11q0 5 16 52l69 174q35 77 93 222l39 101q-45 -31 -57.5 -39t-43.5 -26t-49.5 -22t-48.5 -9t-67 -5q-54 0 -75 4t-32 16q-6 12 -6 22q0 11 4 19
q12 37 73 90q49 48 146.5 128t127.5 97q17 15 28 15q6 0 12 -8.5t6 -15.5v-3q-7 -13 -153 -136q-173 -147 -180 -162q0 -5 42.5 -11t75.5 -6q50 0 88.5 17.5t85.5 62.5q47 39 50 39l5 2q7 0 13 -7t7 -17l2 -6q0 -14 -36 -113q-36 -96 -103 -252q-69 -157 -77 -182
q-21 -59 -41 -59z" />
    <glyph glyph-name="onehalf" unicode="&#xbd;" horiz-adv-x="762" 
d="M123 -14q-19 0 -19 19q1 4 2 9t2 7.5t3.5 8t7 13t12.5 20.5q70 118 691 981q293 398 328 445q33 44 95 128.5t72 98.5l68 93q6 6 14 6t11 -5q6 -6 6 -16q0 -12 -8 -33q-21 -53 -59 -113q-57 -92 -308 -429q-610 -824 -827 -1126q-69 -100 -79 -104q-5 -3 -12 -3z
M687 1141q-14 0 -19.5 8.5t-5.5 33.5q0 12 6 52q12 40 28 85q57 151 100 241q32 70 39 92l9 31q-29 -14 -62 -30t-47 -23t-20 -8l-5 -2q-14 0 -14 16l2 8q9 17 26 29t84 45q62 31 81 31q13 0 18 -22l2 -11q0 -17 -11 -44q-11 -32 -65 -145q-47 -102 -85 -205
q-26 -71 -32 -91.5t-6 -38.5q0 -21 -4 -32q-7 -16 -19 -20zM718 22q-44 0 -129.5 4.5t-95.5 6.5q-31 9 -31 35q0 8 3 17q10 28 72 80q88 74 155.5 156.5t90.5 144.5q14 39 14 60q0 32 -28 36h-11q-26 0 -38 -22q-12 -20 -24 -20q-6 0 -11 8q-6 12 -6 19l3 12q2 7 13 22
q25 26 60 38q6 2 19 2q24 0 43.5 -12.5t25.5 -33.5q3 -12 3 -25q0 -29 -14 -73q-38 -100 -150 -228q-81 -90 -132 -134q-18 -16 -18 -17q0 -7 115 -15q61 -5 83 -9t26 -14v-5q0 -8 -3 -17q-3 -12 -9 -14q-2 -2 -26 -2z" />
    <glyph glyph-name="threequarters" unicode="&#xbe;" horiz-adv-x="795" 
d="M673 1133h-10q-12 0 -19 9q-6 6 -6 11v3q2 3 5.5 7.5t4.5 6t3.5 4t5 3t6 1t8.5 0.5q56 0 222 114q75 53 87 85q1 3 1 12q0 10 -3 15q-13 28 -107 28q-42 0 -57 3.5t-15 13.5l1 10q3 8 10 13t47 30q15 9 24 15q92 57 116 112q10 17 10 31q0 17 -21 30q-18 10 -38 10
q-23 0 -66 -16q-28 -11 -44 -27q-12 -14 -20 -14q-3 0 -11 8l-2 8q0 7 3 16q5 19 27 33q12 10 44 23.5t52 17.5q4 1 24 1q32 0 57.5 -13.5t35.5 -36.5l3 -17q0 -10 -13 -46q-14 -39 -34.5 -65.5t-59.5 -57.5q-30 -24 -38 -32q9 -1 20 -1q37 0 64 -19t31 -46v-8q0 -10 -5 -28
q-14 -36 -39 -65q-41 -47 -146 -109.5t-158 -72.5zM321 -14q-19 0 -19 27q0 17 16 67q7 22 27 62q86 180 379.5 630.5t575.5 835.5q92 125 113 163l30 42q13 13 19 13t11 -11q3 -5 3 -11q0 -3 -6 -25q-16 -39 -47 -90q-33 -57 -72 -113t-157 -221q-395 -550 -662 -985
q-130 -211 -160 -293q-3 -6 -8 -27q-9 -35 -17.5 -49.5t-25.5 -14.5zM841 35q-6 0 -10.5 8.5t-4.5 19.5q0 10 14 49q48 132 175 402l59 132q-4 0 -34 -28q-49 -41 -92.5 -59t-103.5 -22l-25 -1q-25 0 -35.5 6t-14.5 22l-2 9q0 9 5 19q20 57 175 186q99 84 142 109
q26 13 36 13q19 0 19 -21v-5q-4 -14 -14.5 -27t-20.5 -14q-12 -2 -33 -16.5t-77 -61.5q-74 -61 -121.5 -105.5t-51.5 -55.5l-2 -3q4 -3 49 -3q43 0 72 11q61 24 128 102q49 59 57 67.5t20 9.5h3q10 0 14 -16q2 -5 2 -12q0 -11 -3 -19q-34 -80 -74 -164q-179 -379 -207 -460
q-27 -72 -44 -72z" />
    <glyph glyph-name="questiondown" unicode="&#xbf;" horiz-adv-x="806" 
d="M-76 -644q-74 0 -123 20t-63 57q-9 24 -9 44q0 19 14 61q33 82 68 133q69 100 307 351q226 239 416 478t219 321l11 33q-7 0 -12 -1t-10 -1q-17 0 -17 18l1 7q12 29 48 32l7 2q33 0 33 -38q0 -20 -9 -49q-18 -43 -31 -66q-72 -127 -257.5 -357t-431.5 -500
q-133 -144 -192.5 -216.5t-84.5 -122.5q-14 -25 -14 -47q0 -49 58 -70q30 -11 101 -11q72 0 126 11q87 19 173 53t139 72q23 16 23 20v2q0 11 -72 19q-57 7 -57 25l2 8q5 12 15.5 17.5t39.5 9.5q24 6 55 6q41 0 64 -14.5t23 -40.5l-2 -11q-22 -69 -110 -126
q-72 -46 -184 -83t-205 -45q-10 -1 -59 -1zM822 1059q-17 0 -17 23q0 14 8 35q6 18 25 33q20 14 28 14q12 0 16 -12v-5q0 -7 -5 -22q-19 -49 -39 -62q-7 -4 -16 -4z" />
    <glyph glyph-name="Agrave" unicode="&#xc0;" horiz-adv-x="1874" 
d="M1883 -151q-11 0 -21 11t-11 30l-1 20q0 143 160 794l41 167q-149 13 -239 43l-22 6q-1 -1 -8.5 -10.5t-22.5 -29.5t-28 -36q-289 -379 -520 -582q-92 -82 -203 -150t-197 -95q-58 -15 -116 -15q-42 0 -62 6q-98 24 -154.5 114.5t-56.5 220.5v5q5 116 51 243
q52 146 151.5 280t224.5 225q135 95 260 114q26 6 63 6q50 0 120 -20q47 -14 86 -31t120 -58q209 -110 240 -110h1q15 15 139.5 201.5t237.5 362.5q103 160 127.5 196t39.5 48q18 15 23 15q8 0 18 -15l14 -14l6 -12l2 -13q0 -40 -44 -186q-102 -349 -145 -509
q-35 -144 -38 -149q0 -7 27 -7q67 0 212.5 22.5t176.5 39.5q7 6 14 6q3 0 6 -9q0 -8 -1 -10q-5 -18 -46 -33q-34 -14 -179 -36t-199 -22h-24q-193 -751 -205 -931l-1 -13q0 -16 9 -25q8 -8 8 -14l-3 -11q-8 -23 -31 -30zM2051 915q13 0 13 3q64 254 148 542l47 159v4
q-1 0 -64 -101q-193 -303 -328 -492l-44 -63q0 -3 22 -10.5t58.5 -16t73.5 -15.5q55 -10 74 -10zM696 63q132 0 298 107q172 108 405 381q86 101 189.5 238t111.5 161v3q-101 40 -247 114q-92 48 -191 78q-60 19 -126 19q-43 0 -79 -9q-92 -22 -195 -95q-175 -130 -289 -331
q-33 -60 -59 -134q-32 -86 -40 -140q-8 -56 -8 -97q0 -66 18 -125q15 -49 51 -92.5t75 -60.5t86 -17zM2319 1876q-35 0 -38 100l-1 31q0 49 11 84q6 19 22 28q5 3 11 3q16 0 19 -22v-72q-2 -13 -2 -40l2 -36q7 -31 7 -43q0 -8 -1 -9q-7 -15 -12.5 -19.5t-17.5 -4.5z" />
    <glyph glyph-name="Aacute" unicode="&#xc1;" horiz-adv-x="1874" 
d="M1883 -151q-11 0 -21 11t-11 30l-1 20q0 143 160 794l41 167q-149 13 -239 43l-22 6q-1 -1 -8.5 -10.5t-22.5 -29.5t-28 -36q-289 -379 -520 -582q-92 -82 -203 -150t-197 -95q-58 -15 -116 -15q-42 0 -62 6q-98 24 -154.5 114.5t-56.5 220.5v5q5 116 51 243
q52 146 151.5 280t224.5 225q135 95 260 114q26 6 63 6q50 0 120 -20q47 -14 86 -31t120 -58q209 -110 240 -110h1q15 15 139.5 201.5t237.5 362.5q103 160 127.5 196t39.5 48q18 15 23 15q8 0 18 -15l14 -14l6 -12l2 -13q0 -40 -44 -186q-102 -349 -145 -509
q-35 -144 -38 -149q0 -7 27 -7q67 0 212.5 22.5t176.5 39.5q7 6 14 6q3 0 6 -9q0 -8 -1 -10q-5 -18 -46 -33q-34 -14 -179 -36t-199 -22h-24q-193 -751 -205 -931l-1 -13q0 -16 9 -25q8 -8 8 -14l-3 -11q-8 -23 -31 -30zM2051 915q13 0 13 3q64 254 148 542l47 159v4
q-1 0 -64 -101q-193 -303 -328 -492l-44 -63q0 -3 22 -10.5t58.5 -16t73.5 -15.5q55 -10 74 -10zM696 63q132 0 298 107q172 108 405 381q86 101 189.5 238t111.5 161v3q-101 40 -247 114q-92 48 -191 78q-60 19 -126 19q-43 0 -79 -9q-92 -22 -195 -95q-175 -130 -289 -331
q-33 -60 -59 -134q-32 -86 -40 -140q-8 -56 -8 -97q0 -66 18 -125q15 -49 51 -92.5t75 -60.5t86 -17zM2352 1901q-16 0 -16 15q2 13 6 18t40 43q20 20 55 76q12 18 31.5 44t20.5 28q20 22 36 22q5 0 10 -3q5 -5 5 -11t-4 -17q-15 -39 -75 -115q-72 -100 -109 -100z" />
    <glyph glyph-name="Acircumflex" unicode="&#xc2;" horiz-adv-x="1874" 
d="M1883 -151q-11 0 -21 11t-11 30l-1 20q0 143 160 794l41 167q-149 13 -239 43l-22 6q-1 -1 -8.5 -10.5t-22.5 -29.5t-28 -36q-289 -379 -520 -582q-92 -82 -203 -150t-197 -95q-58 -15 -116 -15q-42 0 -62 6q-98 24 -154.5 114.5t-56.5 220.5v5q5 116 51 243
q52 146 151.5 280t224.5 225q135 95 260 114q26 6 63 6q50 0 120 -20q47 -14 86 -31t120 -58q209 -110 240 -110h1q15 15 139.5 201.5t237.5 362.5q103 160 127.5 196t39.5 48q18 15 23 15q8 0 18 -15l14 -14l6 -12l2 -13q0 -40 -44 -186q-102 -349 -145 -509
q-35 -144 -38 -149q0 -7 27 -7q67 0 212.5 22.5t176.5 39.5q7 6 14 6q3 0 6 -9q0 -8 -1 -10q-5 -18 -46 -33q-34 -14 -179 -36t-199 -22h-24q-193 -751 -205 -931l-1 -13q0 -16 9 -25q8 -8 8 -14l-3 -11q-8 -23 -31 -30zM2051 915q13 0 13 3q64 254 148 542l47 159v4
q-1 0 -64 -101q-193 -303 -328 -492l-44 -63q0 -3 22 -10.5t58.5 -16t73.5 -15.5q55 -10 74 -10zM696 63q132 0 298 107q172 108 405 381q86 101 189.5 238t111.5 161v3q-101 40 -247 114q-92 48 -191 78q-60 19 -126 19q-43 0 -79 -9q-92 -22 -195 -95q-175 -130 -289 -331
q-33 -60 -59 -134q-32 -86 -40 -140q-8 -56 -8 -97q0 -66 18 -125q15 -49 51 -92.5t75 -60.5t86 -17zM2461 1809q-9 6 -30 97q-37 164 -55 172q-22 0 -128 -132q-58 -71 -68 -79q-13 -10 -20 -10q-10 0 -10 13q2 12 6.5 19.5t30.5 41.5q77 108 146 177q40 41 68 41
q13 0 20 -6q18 -13 47 -124t29 -163q0 -14 -3 -18q-4 -11 -14.5 -20t-18.5 -9z" />
    <glyph glyph-name="Atilde" unicode="&#xc3;" horiz-adv-x="1874" 
d="M1883 -151q-11 0 -21 11t-11 30l-1 20q0 143 160 794l41 167q-149 13 -239 43l-22 6q-1 -1 -8.5 -10.5t-22.5 -29.5t-28 -36q-289 -379 -520 -582q-92 -82 -203 -150t-197 -95q-58 -15 -116 -15q-42 0 -62 6q-98 24 -154.5 114.5t-56.5 220.5v5q5 116 51 243
q52 146 151.5 280t224.5 225q135 95 260 114q26 6 63 6q50 0 120 -20q47 -14 86 -31t120 -58q209 -110 240 -110h1q15 15 139.5 201.5t237.5 362.5q103 160 127.5 196t39.5 48q18 15 23 15q8 0 18 -15l14 -14l6 -12l2 -13q0 -40 -44 -186q-102 -349 -145 -509
q-35 -144 -38 -149q0 -7 27 -7q67 0 212.5 22.5t176.5 39.5q7 6 14 6q3 0 6 -9q0 -8 -1 -10q-5 -18 -46 -33q-34 -14 -179 -36t-199 -22h-24q-193 -751 -205 -931l-1 -13q0 -16 9 -25q8 -8 8 -14l-3 -11q-8 -23 -31 -30zM2051 915q13 0 13 3q64 254 148 542l47 159v4
q-1 0 -64 -101q-193 -303 -328 -492l-44 -63q0 -3 22 -10.5t58.5 -16t73.5 -15.5q55 -10 74 -10zM696 63q132 0 298 107q172 108 405 381q86 101 189.5 238t111.5 161v3q-101 40 -247 114q-92 48 -191 78q-60 19 -126 19q-43 0 -79 -9q-92 -22 -195 -95q-175 -130 -289 -331
q-33 -60 -59 -134q-32 -86 -40 -140q-8 -56 -8 -97q0 -66 18 -125q15 -49 51 -92.5t75 -60.5t86 -17zM2116 1848q-14 0 -14 19q0 14 3 22q7 18 33 44q47 47 104 47q34 0 60 -17q51 -32 96 -32q16 0 34 5q30 9 51 46q12 22 17 25q10 6 13 6q10 0 14 -11l-3 -19
q-8 -20 -28.5 -44.5t-41.5 -38.5q-33 -21 -94 -21q-33 0 -80 21q-43 19 -59 19q-50 0 -71 -32q-21 -37 -34 -39z" />
    <glyph glyph-name="Adieresis" unicode="&#xc4;" horiz-adv-x="1874" 
d="M1883 -151q-11 0 -21 11t-11 30l-1 20q0 143 160 794l41 167q-149 13 -239 43l-22 6q-1 -1 -8.5 -10.5t-22.5 -29.5t-28 -36q-289 -379 -520 -582q-92 -82 -203 -150t-197 -95q-58 -15 -116 -15q-42 0 -62 6q-98 24 -154.5 114.5t-56.5 220.5v5q5 116 51 243
q52 146 151.5 280t224.5 225q135 95 260 114q26 6 63 6q50 0 120 -20q47 -14 86 -31t120 -58q209 -110 240 -110h1q15 15 139.5 201.5t237.5 362.5q103 160 127.5 196t39.5 48q18 15 23 15q8 0 18 -15l14 -14l6 -12l2 -13q0 -40 -44 -186q-102 -349 -145 -509
q-35 -144 -38 -149q0 -7 27 -7q67 0 212.5 22.5t176.5 39.5q7 6 14 6q3 0 6 -9q0 -8 -1 -10q-5 -18 -46 -33q-34 -14 -179 -36t-199 -22h-24q-193 -751 -205 -931l-1 -13q0 -16 9 -25q8 -8 8 -14l-3 -11q-8 -23 -31 -30zM2051 915q13 0 13 3q64 254 148 542l47 159v4
q-1 0 -64 -101q-193 -303 -328 -492l-44 -63q0 -3 22 -10.5t58.5 -16t73.5 -15.5q55 -10 74 -10zM696 63q132 0 298 107q172 108 405 381q86 101 189.5 238t111.5 161v3q-101 40 -247 114q-92 48 -191 78q-60 19 -126 19q-43 0 -79 -9q-92 -22 -195 -95q-175 -130 -289 -331
q-33 -60 -59 -134q-32 -86 -40 -140q-8 -56 -8 -97q0 -66 18 -125q15 -49 51 -92.5t75 -60.5t86 -17zM2251 1873q-13 2 -17.5 7t-4.5 20q0 9 5 22q9 25 28 36q13 10 16 10t13 -10q6 -6 6 -25q0 -15 -3 -27q-14 -33 -43 -33zM2371 1881q-14 0 -22 11q-5 8 -5 14t5 21
q10 24 22 33q10 8 20 8q12 0 22 -10q5 -5 5 -12q0 -6 -5 -21q-7 -21 -18.5 -32.5t-23.5 -11.5z" />
    <glyph glyph-name="Aring" unicode="&#xc5;" horiz-adv-x="1874" 
d="M1883 -151q-11 0 -21 11t-11 30l-1 20q0 143 160 794l41 167q-149 13 -239 43l-22 6q-1 -1 -8.5 -10.5t-22.5 -29.5t-28 -36q-289 -379 -520 -582q-92 -82 -203 -150t-197 -95q-58 -15 -116 -15q-42 0 -62 6q-98 24 -154.5 114.5t-56.5 220.5v5q5 116 51 243
q52 146 151.5 280t224.5 225q135 95 260 114q26 6 63 6q50 0 120 -20q47 -14 86 -31t120 -58q209 -110 240 -110h1q15 15 139.5 201.5t237.5 362.5q103 160 127.5 196t39.5 48q18 15 23 15q8 0 18 -15l14 -14l6 -12l2 -13q0 -40 -44 -186q-102 -349 -145 -509
q-35 -144 -38 -149q0 -7 27 -7q67 0 212.5 22.5t176.5 39.5q7 6 14 6q3 0 6 -9q0 -8 -1 -10q-5 -18 -46 -33q-34 -14 -179 -36t-199 -22h-24q-193 -751 -205 -931l-1 -13q0 -16 9 -25q8 -8 8 -14l-3 -11q-8 -23 -31 -30zM2051 915q13 0 13 3q64 254 148 542l47 159v4
q-1 0 -64 -101q-193 -303 -328 -492l-44 -63q0 -3 22 -10.5t58.5 -16t73.5 -15.5q55 -10 74 -10zM696 63q132 0 298 107q172 108 405 381q86 101 189.5 238t111.5 161v3q-101 40 -247 114q-92 48 -191 78q-60 19 -126 19q-43 0 -79 -9q-92 -22 -195 -95q-175 -130 -289 -331
q-33 -60 -59 -134q-32 -86 -40 -140q-8 -56 -8 -97q0 -66 18 -125q15 -49 51 -92.5t75 -60.5t86 -17zM2303 1850q-27 0 -42.5 20t-17.5 55q0 26 15 63q17 47 47 91.5t61 63.5q16 12 29 12q10 0 19 -10t9 -21l-5 -16q0 -5 10 -8q17 -4 29.5 -34.5t12.5 -63.5q0 -16 -5 -31
q-15 -41 -60 -77t-91 -43zM2324 1903q27 0 56.5 19.5t37.5 42.5q3 6 3 23q0 28 -8 46q-7 20 -28 20h-6q-16 0 -16 3q-3 5 -5 5q-4 0 -23 -23q-17 -31 -29 -60q-9 -29 -9 -41q0 -15 7.5 -25t19.5 -10z" />
    <glyph glyph-name="AE" unicode="&#xc6;" horiz-adv-x="2667" 
d="M2050 915q11 0 14 3q75 294 171 623q24 78 24 82q-9 -9 -61 -96q-3 -3 -3 -5q-171 -274 -358 -533l-14 -22q0 -5 45 -17q117 -35 182 -35zM698 63q123 0 296 107q212 133 533 539q173 221 173 244q-106 44 -247 114q-184 97 -317 97q-129 0 -274 -104
q-173 -125 -289 -331q-31 -52 -59 -134q-48 -127 -48 -236q0 -135 66 -216q65 -80 166 -80zM2092 816q48 33 101 61q-37 -4 -87 -4zM1868 69q39 212 126 575q-63 -50 -130 -129q-117 -141 -117 -252q0 -65 41 -123q30 -45 80 -71zM1881 -151q-30 0 -30 69q0 34 10 99
q-171 79 -171 235q0 152 130 315q95 118 206 202l25 102q-124 12 -261 49l-59 -76q-543 -708 -920 -827q-53 -15 -118 -15q-40 0 -60 6q-207 65 -211 340q14 265 202 522q100 136 225 226q164 120 325 120q54 0 121 -19q67 -20 203 -90q204 -110 241 -110q41 51 457 689
q51 78 71 105q26 29 39 29q6 0 19 -18q11 -11 14 -11q5 0 5 -20q0 -49 -42 -191q-105 -360 -145 -509q-28 -120 -38 -149v-2q0 -5 25 -5q32 0 156 14q22 10 126 51q-97 45 -143 91q-22 38 -22 81t19 91q85 207 349 384q225 147 441 172q30 3 59 3q61 0 88 -11q28 -15 41 -38
q16 -25 16 -45q0 -25 -22 -60q-24 -33 -41 -33q-12 0 -15 25q-5 31 -33 43q-12 3 -56 3q-54 0 -117 -15q-245 -50 -427 -187q-195 -136 -244 -271q-9 -29 -9 -50l1 -18q24 -74 93 -104q71 -31 184 -31q62 0 155 8q20 0 20 -8q0 -26 -80 -47q-151 -38 -229 -65
q-202 -70 -392 -203q-107 -426 -146 -648q51 -20 126 -20q109 0 220 36t263 109q118 60 237 135q119 77 192 133q16 12 25 12q11 0 11 -12q0 -10 -24 -29q-108 -80 -239 -162q-422 -265 -688 -265q-64 0 -131 18q-8 -57 -8 -71q0 -19 8 -27t8 -17q0 -26 -35 -38z" />
    <glyph glyph-name="Ccedilla" unicode="&#xc7;" horiz-adv-x="1105" 
d="M682 -383q-25 0 -25 27q0 8 2 11q7 19 22 19q7 0 11 -6q3 -7 6 -7q6 0 17 7q35 12 70 47q18 18 18 31q0 16 -17 24q-15 11 -53 11l-37 -2q-11 0 -14 2q-7 4 -8 8q-4 7 -4 16q0 25 42 100q-55 0 -90 19q-33 15 -75 62q-100 115 -100 315q0 182 95 443q104 285 277 540
q175 262 364 399q175 127 296 127q93 0 147 -69q44 -72 44 -189q0 -68 -21 -126q-9 -19 -28 -19q-14 0 -14 9l1 8q26 70 26 137q0 35 -10 85q-12 47 -49 87q-39 39 -94 39q-67 0 -159 -66q-179 -131 -366 -380q-257 -341 -372 -753q-48 -167 -48 -291q0 -258 163 -310
q23 -5 52 -5q6 6 16 6q9 0 11 -6q199 17 478 320q193 215 323 392q22 27 36 27q9 0 9 -8q0 -9 -6 -19q-168 -230 -332 -413q-202 -226 -394 -320q-69 -34 -125 -37q-15 -35 -31 -62l12 -3q32 -4 57 -13q22 -9 33 -29q13 -23 13 -40q0 -50 -77 -104q-62 -41 -92 -41z" />
    <glyph glyph-name="Egrave" unicode="&#xc8;" horiz-adv-x="1348" 
d="M674 -16q-135 0 -230 61t-112 157q-4 23 -4 53q0 68 25 136q33 91 102 176q209 258 544 389l63 24q-9 5 -34.5 18t-36 19t-28 16.5t-28 19.5t-17.5 18q-22 27 -22 76q0 48 19 96q48 112 131 202.5t219 181.5q221 147 441 172q28 3 58 3q67 0 89 -11q24 -12 39.5 -34.5
t15.5 -47.5l-2 -11q0 -9 -5 -19q-15 -42 -34 -55q-12 -9 -21 -9q-14 0 -14 25q-3 22 -19 35q-12 8 -22.5 9.5t-48.5 1.5q-54 0 -116 -15q-132 -29 -230 -72t-197 -115q-131 -92 -197 -183q-30 -39 -47 -88q-11 -31 -11 -49q0 -12 3 -19q23 -74 89.5 -104.5t185.5 -30.5
q64 0 152 8q25 0 25 -8l-2 -5q-10 -26 -53 -36q-19 -5 -51 -12.5t-48.5 -12t-42.5 -11.5t-52.5 -15.5t-59.5 -19.5q-101 -34 -217.5 -97t-202.5 -127q-97 -71 -170 -158t-100 -163q-4 -11 -11 -36q-5 -28 -5 -49q0 -83 54.5 -146.5t147.5 -85.5q41 -9 91 -9q104 0 212 33.5
t272 111.5q94 46 229.5 131.5t199.5 136.5q12 12 25 12q11 0 11 -9l-2 -7q-4 -13 -22 -25q-142 -105 -258.5 -176.5t-295.5 -154.5q-212 -96 -374 -96zM1481 1815q-35 0 -38 99v32q0 51 10 83q6 19 22 28q6 4 11 4q15 0 18 -22v-73q-1 -6 -1 -39l1 -37q10 -37 10 -42
q0 -6 -3 -10q-7 -14 -12.5 -18.5t-17.5 -4.5z" />
    <glyph glyph-name="Eacute" unicode="&#xc9;" horiz-adv-x="1348" 
d="M674 -16q-135 0 -230 61t-112 157q-4 23 -4 53q0 68 25 136q33 91 102 176q209 258 544 389l63 24q-9 5 -34.5 18t-36 19t-28 16.5t-28 19.5t-17.5 18q-22 27 -22 76q0 48 19 96q48 112 131 202.5t219 181.5q221 147 441 172q28 3 58 3q67 0 89 -11q24 -12 39.5 -34.5
t15.5 -47.5l-2 -11q0 -9 -5 -19q-15 -42 -34 -55q-12 -9 -21 -9q-14 0 -14 25q-3 22 -19 35q-12 8 -22.5 9.5t-48.5 1.5q-54 0 -116 -15q-132 -29 -230 -72t-197 -115q-131 -92 -197 -183q-30 -39 -47 -88q-11 -31 -11 -49q0 -12 3 -19q23 -74 89.5 -104.5t185.5 -30.5
q64 0 152 8q25 0 25 -8l-2 -5q-10 -26 -53 -36q-19 -5 -51 -12.5t-48.5 -12t-42.5 -11.5t-52.5 -15.5t-59.5 -19.5q-101 -34 -217.5 -97t-202.5 -127q-97 -71 -170 -158t-100 -163q-4 -11 -11 -36q-5 -28 -5 -49q0 -83 54.5 -146.5t147.5 -85.5q41 -9 91 -9q104 0 212 33.5
t272 111.5q94 46 229.5 131.5t199.5 136.5q12 12 25 12q11 0 11 -9l-2 -7q-4 -13 -22 -25q-142 -105 -258.5 -176.5t-295.5 -154.5q-212 -96 -374 -96zM1523 1832q-15 0 -15 14q2 13 6.5 19.5t38.5 42.5q22 22 55 75q12 18 31.5 44.5t20.5 28.5q20 22 37 22q5 0 9 -3
q6 -4 6 -11t-4 -18q-14 -37 -76 -115q-72 -99 -109 -99z" />
    <glyph glyph-name="Ecircumflex" unicode="&#xca;" horiz-adv-x="1348" 
d="M674 -16q-135 0 -230 61t-112 157q-4 23 -4 53q0 68 25 136q33 91 102 176q209 258 544 389l63 24q-9 5 -34.5 18t-36 19t-28 16.5t-28 19.5t-17.5 18q-22 27 -22 76q0 48 19 96q48 112 131 202.5t219 181.5q221 147 441 172q28 3 58 3q67 0 89 -11q24 -12 39.5 -34.5
t15.5 -47.5l-2 -11q0 -9 -5 -19q-15 -42 -34 -55q-12 -9 -21 -9q-14 0 -14 25q-3 22 -19 35q-12 8 -22.5 9.5t-48.5 1.5q-54 0 -116 -15q-132 -29 -230 -72t-197 -115q-131 -92 -197 -183q-30 -39 -47 -88q-11 -31 -11 -49q0 -12 3 -19q23 -74 89.5 -104.5t185.5 -30.5
q64 0 152 8q25 0 25 -8l-2 -5q-10 -26 -53 -36q-19 -5 -51 -12.5t-48.5 -12t-42.5 -11.5t-52.5 -15.5t-59.5 -19.5q-101 -34 -217.5 -97t-202.5 -127q-97 -71 -170 -158t-100 -163q-4 -11 -11 -36q-5 -28 -5 -49q0 -83 54.5 -146.5t147.5 -85.5q41 -9 91 -9q104 0 212 33.5
t272 111.5q94 46 229.5 131.5t199.5 136.5q12 12 25 12q11 0 11 -9l-2 -7q-4 -13 -22 -25q-142 -105 -258.5 -176.5t-295.5 -154.5q-212 -96 -374 -96zM1344 1813q-14 0 -14 19q0 21 74 101q165 179 222 214q15 7 27 7q27 0 36 -41q17 -51 17 -152v-25l2 -19q0 -25 -5 -33
q-13 -22 -24 -22q-6 0 -14 10q-1 2 -9 78q-9 133 -30 133q-18 -7 -183 -172q-81 -88 -99 -98z" />
    <glyph glyph-name="Edieresis" unicode="&#xcb;" horiz-adv-x="1348" 
d="M674 -16q-135 0 -230 61t-112 157q-4 23 -4 53q0 68 25 136q33 91 102 176q209 258 544 389l63 24q-9 5 -34.5 18t-36 19t-28 16.5t-28 19.5t-17.5 18q-22 27 -22 76q0 48 19 96q48 112 131 202.5t219 181.5q221 147 441 172q28 3 58 3q67 0 89 -11q24 -12 39.5 -34.5
t15.5 -47.5l-2 -11q0 -9 -5 -19q-15 -42 -34 -55q-12 -9 -21 -9q-14 0 -14 25q-3 22 -19 35q-12 8 -22.5 9.5t-48.5 1.5q-54 0 -116 -15q-132 -29 -230 -72t-197 -115q-131 -92 -197 -183q-30 -39 -47 -88q-11 -31 -11 -49q0 -12 3 -19q23 -74 89.5 -104.5t185.5 -30.5
q64 0 152 8q25 0 25 -8l-2 -5q-10 -26 -53 -36q-19 -5 -51 -12.5t-48.5 -12t-42.5 -11.5t-52.5 -15.5t-59.5 -19.5q-101 -34 -217.5 -97t-202.5 -127q-97 -71 -170 -158t-100 -163q-4 -11 -11 -36q-5 -28 -5 -49q0 -83 54.5 -146.5t147.5 -85.5q41 -9 91 -9q104 0 212 33.5
t272 111.5q94 46 229.5 131.5t199.5 136.5q12 12 25 12q11 0 11 -9l-2 -7q-4 -13 -22 -25q-142 -105 -258.5 -176.5t-295.5 -154.5q-212 -96 -374 -96zM1492 1856q-13 2 -17.5 7.5t-4.5 19.5q0 9 5 22q9 25 28 36q12 9 16 9q3 0 12 -9q8 -8 8 -25q0 -14 -5 -27
q-14 -33 -42 -33zM1612 1864q-14 0 -22 11q-5 8 -5 14q0 5 5 20q10 24 22 33q10 8 20 8q13 0 22 -9q5 -5 5 -13q0 -5 -5 -20q-7 -21 -18.5 -32.5t-23.5 -11.5z" />
    <glyph glyph-name="Igrave" unicode="&#xcc;" horiz-adv-x="751" 
d="M239 -17q-15 0 -15 9v5q4 16 21 28.5t95 51.5q174 93 252 166l26 25q34 94 96 266t84 232.5t66.5 179.5t68.5 176t63.5 149t77.5 170t87 172q49 97 55 114v1q-38 0 -142 -8t-138 -14q-42 -7 -77.5 -21t-40.5 -25q-11 -18 -33 -18q-21 0 -21 11v3q0 7 2 12q12 33 75 63
t145 40q101 12 403 23q126 5 163 11l42 7q7 0 10 -7q3 -3 3 -9q0 -8 -2 -11q-5 -14 -17 -21q-13 -6 -72 -13.5t-122 -11.5l-66 -3q-18 -46 -107 -249q-159 -352 -232 -524.5t-167 -417.5q-131 -346 -148 -411q-8 -32 -8 -49l4 -20q189 -5 219 -11q63 -12 63 -41l-2 -7
q-9 -17 -21 -17q-5 0 -18 8q-21 14 -60 18t-159 4q-224 0 -375 -25q-71 -11 -78 -11zM359 44q36 8 173 17l46 4q0 10 0.5 13.5t2 7.5t2.5 12q6 50 11 66q6 32 6 34v2q-5 0 -58 -39q-69 -48 -112 -73l-65 -38l-6 -4v-2zM1259 1861q-35 0 -38 99l-2 31q0 49 11 84q6 19 22 28
q4 3 11 3q16 0 19 -22v-72q-3 -20 -3 -40l3 -36q8 -35 8 -42q0 -8 -1 -10q-7 -14 -12.5 -18.5t-17.5 -4.5z" />
    <glyph glyph-name="Iacute" unicode="&#xcd;" horiz-adv-x="751" 
d="M239 -17q-15 0 -15 9v5q4 16 21 28.5t95 51.5q174 93 252 166l26 25q34 94 96 266t84 232.5t66.5 179.5t68.5 176t63.5 149t77.5 170t87 172q49 97 55 114v1q-38 0 -142 -8t-138 -14q-42 -7 -77.5 -21t-40.5 -25q-11 -18 -33 -18q-21 0 -21 11v3q0 7 2 12q12 33 75 63
t145 40q101 12 403 23q126 5 163 11l42 7q7 0 10 -7q3 -3 3 -9q0 -8 -2 -11q-5 -14 -17 -21q-13 -6 -72 -13.5t-122 -11.5l-66 -3q-18 -46 -107 -249q-159 -352 -232 -524.5t-167 -417.5q-131 -346 -148 -411q-8 -32 -8 -49l4 -20q189 -5 219 -11q63 -12 63 -41l-2 -7
q-9 -17 -21 -17q-5 0 -18 8q-21 14 -60 18t-159 4q-224 0 -375 -25q-71 -11 -78 -11zM359 44q36 8 173 17l46 4q0 10 0.5 13.5t2 7.5t2.5 12q6 50 11 66q6 32 6 34v2q-5 0 -58 -39q-69 -48 -112 -73l-65 -38l-6 -4v-2zM1282 1862q-15 0 -15 14q0 2 0.5 6t1 5t2 4.5t4 6.5
l7.5 9t12 13l18 18q22 22 55 75q12 18 31.5 44.5t20.5 28.5q20 22 37 22q4 0 9 -3q5 -5 5 -11t-3 -18q-14 -37 -76 -115q-72 -99 -109 -99z" />
    <glyph glyph-name="Icircumflex" unicode="&#xce;" horiz-adv-x="751" 
d="M239 -17q-15 0 -15 9v5q4 16 21 28.5t95 51.5q174 93 252 166l26 25q34 94 96 266t84 232.5t66.5 179.5t68.5 176t63.5 149t77.5 170t87 172q49 97 55 114v1q-38 0 -142 -8t-138 -14q-42 -7 -77.5 -21t-40.5 -25q-11 -18 -33 -18q-21 0 -21 11v3q0 7 2 12q12 33 75 63
t145 40q101 12 403 23q126 5 163 11l42 7q7 0 10 -7q3 -3 3 -9q0 -8 -2 -11q-5 -14 -17 -21q-13 -6 -72 -13.5t-122 -11.5l-66 -3q-18 -46 -107 -249q-159 -352 -232 -524.5t-167 -417.5q-131 -346 -148 -411q-8 -32 -8 -49l4 -20q189 -5 219 -11q63 -12 63 -41l-2 -7
q-9 -17 -21 -17q-5 0 -18 8q-21 14 -60 18t-159 4q-224 0 -375 -25q-71 -11 -78 -11zM359 44q36 8 173 17l46 4q0 10 0.5 13.5t2 7.5t2.5 12q6 50 11 66q6 32 6 34v2q-5 0 -58 -39q-69 -48 -112 -73l-65 -38l-6 -4v-2zM1486 1872q-10 5 -30 97q-37 164 -55 172
q-24 0 -128 -132q-58 -71 -68 -79q-13 -10 -20 -10q-10 0 -10 13q0 1 0.5 4.5t1 4.5t1.5 4t1.5 4t2.5 4.5t4.5 6.5t6 8.5t8 11t10.5 13.5q74 104 147 177q40 41 68 41q13 0 20 -6q16 -13 45 -124.5t29 -162.5q0 -17 -1 -18q-4 -11 -14.5 -20t-18.5 -9z" />
    <glyph glyph-name="Idieresis" unicode="&#xcf;" horiz-adv-x="751" 
d="M239 -17q-15 0 -15 9v5q4 16 21 28.5t95 51.5q174 93 252 166l26 25q34 94 96 266t84 232.5t66.5 179.5t68.5 176t63.5 149t77.5 170t87 172q49 97 55 114v1q-38 0 -142 -8t-138 -14q-42 -7 -77.5 -21t-40.5 -25q-11 -18 -33 -18q-21 0 -21 11v3q0 7 2 12q12 33 75 63
t145 40q101 12 403 23q126 5 163 11l42 7q7 0 10 -7q3 -3 3 -9q0 -8 -2 -11q-5 -14 -17 -21q-13 -6 -72 -13.5t-122 -11.5l-66 -3q-18 -46 -107 -249q-159 -352 -232 -524.5t-167 -417.5q-131 -346 -148 -411q-8 -32 -8 -49l4 -20q189 -5 219 -11q63 -12 63 -41l-2 -7
q-9 -17 -21 -17q-5 0 -18 8q-21 14 -60 18t-159 4q-224 0 -375 -25q-71 -11 -78 -11zM359 44q36 8 173 17l46 4q0 10 0.5 13.5t2 7.5t2.5 12q6 50 11 66q6 32 6 34v2q-5 0 -58 -39q-69 -48 -112 -73l-65 -38l-6 -4v-2zM1227 1845q-12 2 -16 7t-4 20q0 10 3 22q9 25 28 36
q12 9 16 9t13 -9q7 -7 7 -25q0 -16 -4 -27q-14 -33 -43 -33zM1347 1853q-14 0 -22 11q-5 8 -5 14q0 5 5 20q10 24 22 33q10 8 20 8q13 0 22 -9q5 -5 5 -13q0 -5 -5 -20q-7 -21 -18.5 -32.5t-23.5 -11.5z" />
    <glyph glyph-name="Eth" unicode="&#xd0;" horiz-adv-x="1402" 
d="M826 641q8 0 22 36q3 12 3 19q-1 3 -2.5 7t-2.5 7q-3 8 -6 12q-3 3 -5 3l-11 -57v-13q0 -14 2 -14zM608 -13q64 0 84 7q220 53 474 222q226 151 405 342q242 266 340 537q58 159 58 291q0 298 -257 350q-38 8 -80 8q-131 0 -290 -66q-63 -26 -115 -55q-22 -64 -96 -208
q-138 -270 -211 -451l128 -5q37 0 37 -22l-1 -12q-6 -18 -21 -27q-11 -6 -41 -6h-130l-33 -90q50 -33 50 -76q0 -13 -3 -25q-2 -9 -2 -20q0 -10 3 -13t8 -21l-1 -1q1 -2 1 -6q0 -2 2 -2q4 0 11 3q232 119 367 128q16 0 25 -3q7 -4 16 -15q8 -10 8 -17q0 -11 -13 -24
q-6 -6 -9 -6q-7 0 -19 11q-15 10 -32 10q-65 0 -227 -71q-307 -133 -475 -353q-95 -125 -95 -211q0 -72 63 -98q13 -5 71 -5zM690 959l131 5l5 10q118 303 222 501l20 42q-19 -12 -27 -19q-257 -212 -338 -435q-16 -36 -16 -67q0 -18 3 -37zM581 -69q-102 0 -138 61
q-18 31 -18 69q0 44 22 108q70 179 306 367q-36 19 -36 69q0 42 27 142q4 15 4 23l-23 15q-70 41 -90 102l-77 -2q-32 0 -44 4q-11 4 -11 18q0 5 3 13q7 22 30 30l17 2q6 1 15.5 1.5t26.5 1t30 1.5q0 44 27 122t103 184q140 190 332 331q42 30 50 47q13 24 32 35
q17 12 33 12l20 -1q6 0 40 14q198 104 387 112q95 0 177 -30q202 -86 202 -375q-3 -151 -60 -306q-129 -354 -511 -707q-378 -333 -737 -441q-85 -22 -139 -22zM774 848q7 14 18 42h-72l9 -9q36 -33 45 -33z" />
    <glyph glyph-name="Ntilde" unicode="&#xd1;" horiz-adv-x="1408" 
d="M1156 -16q-56 0 -96 20.5t-68.5 61t-48 114t-31.5 164t-22 226.5q-14 176 -14 375q0 259 24 530l4 77q-56 -153 -143.5 -392.5t-128.5 -352t-88 -237t-75 -192.5q-116 -286 -203 -367q-33 -27 -61 -27q-15 0 -32.5 16.5t-18.5 35.5v3q0 44 22 104q2 4 4.5 8.5t4 8
t2.5 4.5q9 9 27 9q12 0 14 -6q-1 -2 -2.5 -18.5t-4.5 -27.5q-8 -38 -8 -55q0 -25 12 -25l7 2q32 17 82.5 104t107.5 226q80 196 388 1039l94 261q5 13 11 31.5t9.5 29t8.5 24t9 20.5t9 13.5t11 9.5t13 3q18 0 25 -18q10 -28 10 -70q0 -21 -2 -55.5t-5.5 -92t-5.5 -108.5
q-11 -202 -11 -375q0 -139 8 -285q3 -73 6.5 -133t8.5 -131.5t12 -129t16.5 -116.5t22.5 -102t28.5 -78.5t36 -54t44.5 -19.5q44 0 93.5 52t92.5 130t94 193q39 88 187.5 483t266.5 718l63 174q21 57 25 60q7 7 18 7q7 0 12 -5l2 -6q0 -25 -101 -306q-378 -1039 -449 -1197
q-73 -162 -159.5 -258.5t-157.5 -96.5zM1284 1794q-14 0 -14 19q0 10 3 22q7 18 33 44q48 48 104 48q32 0 60 -18q49 -31 96 -31q17 0 35 5q30 9 50 45q12 22 17 25q12 7 13 7q10 0 14 -11l-3 -19q-8 -21 -28 -45.5t-41 -38.5q-31 -20 -95 -20q-35 0 -80 20q-43 19 -59 19
q-50 0 -70 -31q-21 -38 -35 -40z" />
    <glyph glyph-name="Ograve" unicode="&#xd2;" horiz-adv-x="1570" 
d="M941 -16q-101 0 -172 41q-139 83 -139 300v14q4 144 66 316q12 31 17.5 46t8 20.5t9.5 23t19 46.5q-25 104 -25 148q0 61 26 129q64 151 168 276t267 246q179 130 359 187q88 27 144 32q16 3 66 3q57 0 115 -7q140 -25 227.5 -116t112.5 -238q13 -62 13 -113l-3 -67
q-12 -120 -57 -247q-119 -320 -405 -605q-115 -113 -260.5 -214.5t-265.5 -152.5q-158 -68 -291 -68zM977 69q67 0 143 19q47 12 123 43t128 60q173 96 335 250t271 326q69 109 118 233q34 92 47 142t19 118q4 44 4 66q0 149 -70 257t-195 147q-35 11 -63 14l-24 3
q-3 -17 -6 -25q-2 -5 -4.5 -12.5t-3.5 -9t-6.5 -5t-14 -6t-25.5 -5.5q-57 -12 -145 -72q-121 -82 -268.5 -225t-269.5 -295q-58 -72 -126.5 -175.5t-95.5 -158.5q-8 -18 -8 -24q0 -9 12 -28q16 -32 49 -70q117 -141 268 -141q39 0 80 9q43 8 51 8q11 0 11 -9
q-5 -19 -12.5 -25t-42.5 -16q-44 -11 -109 -11q-67 0 -88 7q-7 2 -15 5q-126 46 -220 180l-19 30q-16 -34 -20 -46q-36 -111 -48 -169q-12 -59 -12 -119q0 -62 15 -117q50 -153 237 -153zM789 868q4 4 30 50q102 181 288 394q190 217 388 361q66 46 66 50q-1 0 -20 -6.5
t-42.5 -15.5t-38.5 -15q-174 -72 -348 -222.5t-264 -307.5q-18 -33 -40 -86q-28 -77 -28 -128v-16q0 -58 9 -58zM1730 1862q-35 0 -38 99l-2 32q0 48 11 83q6 20 22 29q4 3 11 3q16 0 19 -22v-73q-1 -7 -1 -39l1 -36q8 -35 8 -43q0 -7 -1 -9q-7 -15 -12.5 -19.5t-17.5 -4.5z
" />
    <glyph glyph-name="Oacute" unicode="&#xd3;" horiz-adv-x="1570" 
d="M941 -16q-101 0 -172 41q-139 83 -139 300v14q4 144 66 316q12 31 17.5 46t8 20.5t9.5 23t19 46.5q-25 104 -25 148q0 61 26 129q64 151 168 276t267 246q179 130 359 187q88 27 144 32q16 3 66 3q57 0 115 -7q140 -25 227.5 -116t112.5 -238q13 -62 13 -113l-3 -67
q-12 -120 -57 -247q-119 -320 -405 -605q-115 -113 -260.5 -214.5t-265.5 -152.5q-158 -68 -291 -68zM977 69q67 0 143 19q47 12 123 43t128 60q173 96 335 250t271 326q69 109 118 233q34 92 47 142t19 118q4 44 4 66q0 149 -70 257t-195 147q-35 11 -63 14l-24 3
q-3 -17 -6 -25q-2 -5 -4.5 -12.5t-3.5 -9t-6.5 -5t-14 -6t-25.5 -5.5q-57 -12 -145 -72q-121 -82 -268.5 -225t-269.5 -295q-58 -72 -126.5 -175.5t-95.5 -158.5q-8 -18 -8 -24q0 -9 12 -28q16 -32 49 -70q117 -141 268 -141q39 0 80 9q43 8 51 8q11 0 11 -9
q-5 -19 -12.5 -25t-42.5 -16q-44 -11 -109 -11q-67 0 -88 7q-7 2 -15 5q-126 46 -220 180l-19 30q-16 -34 -20 -46q-36 -111 -48 -169q-12 -59 -12 -119q0 -62 15 -117q50 -153 237 -153zM789 868q4 4 30 50q102 181 288 394q190 217 388 361q66 46 66 50q-1 0 -20 -6.5
t-42.5 -15.5t-38.5 -15q-174 -72 -348 -222.5t-264 -307.5q-18 -33 -40 -86q-28 -77 -28 -128v-16q0 -58 9 -58zM1783 1892q-15 0 -15 14q2 13 6.5 19.5t38.5 42.5q22 22 55 75q12 18 31.5 44.5t20.5 28.5q20 22 37 22q5 0 9 -3q5 -5 5 -11q0 -10 -3 -18q-14 -37 -76 -115
q-72 -99 -109 -99z" />
    <glyph glyph-name="Ocircumflex" unicode="&#xd4;" horiz-adv-x="1570" 
d="M941 -16q-101 0 -172 41q-139 83 -139 300v14q4 144 66 316q12 31 17.5 46t8 20.5t9.5 23t19 46.5q-25 104 -25 148q0 61 26 129q64 151 168 276t267 246q179 130 359 187q88 27 144 32q16 3 66 3q57 0 115 -7q140 -25 227.5 -116t112.5 -238q13 -62 13 -113l-3 -67
q-12 -120 -57 -247q-119 -320 -405 -605q-115 -113 -260.5 -214.5t-265.5 -152.5q-158 -68 -291 -68zM977 69q67 0 143 19q47 12 123 43t128 60q173 96 335 250t271 326q69 109 118 233q34 92 47 142t19 118q4 44 4 66q0 149 -70 257t-195 147q-35 11 -63 14l-24 3
q-3 -17 -6 -25q-2 -5 -4.5 -12.5t-3.5 -9t-6.5 -5t-14 -6t-25.5 -5.5q-57 -12 -145 -72q-121 -82 -268.5 -225t-269.5 -295q-58 -72 -126.5 -175.5t-95.5 -158.5q-8 -18 -8 -24q0 -9 12 -28q16 -32 49 -70q117 -141 268 -141q39 0 80 9q43 8 51 8q11 0 11 -9
q-5 -19 -12.5 -25t-42.5 -16q-44 -11 -109 -11q-67 0 -88 7q-7 2 -15 5q-126 46 -220 180l-19 30q-16 -34 -20 -46q-36 -111 -48 -169q-12 -59 -12 -119q0 -62 15 -117q50 -153 237 -153zM789 868q4 4 30 50q102 181 288 394q190 217 388 361q66 46 66 50q-1 0 -20 -6.5
t-42.5 -15.5t-38.5 -15q-174 -72 -348 -222.5t-264 -307.5q-18 -33 -40 -86q-28 -77 -28 -128v-16q0 -58 9 -58zM2010 1832q-9 5 -30 98q-37 164 -55 172q-21 0 -127 -133q-58 -71 -68 -79q-12 -9 -21 -9t-9 13q2 8 2 10t4 9t10 15.5t20 26.5q72 101 147 176q40 41 67 41
q14 0 21 -6q18 -13 46.5 -124t28.5 -163q0 -13 -3 -17q-4 -11 -14.5 -20.5t-18.5 -9.5z" />
    <glyph glyph-name="Otilde" unicode="&#xd5;" horiz-adv-x="1570" 
d="M941 -16q-101 0 -172 41q-139 83 -139 300v14q4 144 66 316q12 31 17.5 46t8 20.5t9.5 23t19 46.5q-25 104 -25 148q0 61 26 129q64 151 168 276t267 246q179 130 359 187q88 27 144 32q16 3 66 3q57 0 115 -7q140 -25 227.5 -116t112.5 -238q13 -62 13 -113l-3 -67
q-12 -120 -57 -247q-119 -320 -405 -605q-115 -113 -260.5 -214.5t-265.5 -152.5q-158 -68 -291 -68zM977 69q67 0 143 19q47 12 123 43t128 60q173 96 335 250t271 326q69 109 118 233q34 92 47 142t19 118q4 44 4 66q0 149 -70 257t-195 147q-35 11 -63 14l-24 3
q-3 -17 -6 -25q-2 -5 -4.5 -12.5t-3.5 -9t-6.5 -5t-14 -6t-25.5 -5.5q-57 -12 -145 -72q-121 -82 -268.5 -225t-269.5 -295q-58 -72 -126.5 -175.5t-95.5 -158.5q-8 -18 -8 -24q0 -9 12 -28q16 -32 49 -70q117 -141 268 -141q39 0 80 9q43 8 51 8q11 0 11 -9
q-5 -19 -12.5 -25t-42.5 -16q-44 -11 -109 -11q-67 0 -88 7q-7 2 -15 5q-126 46 -220 180l-19 30q-16 -34 -20 -46q-36 -111 -48 -169q-12 -59 -12 -119q0 -62 15 -117q50 -153 237 -153zM789 868q4 4 30 50q102 181 288 394q190 217 388 361q66 46 66 50q-1 0 -20 -6.5
t-42.5 -15.5t-38.5 -15q-174 -72 -348 -222.5t-264 -307.5q-18 -33 -40 -86q-28 -77 -28 -128v-16q0 -58 9 -58zM1627 1878q-14 0 -14 19q0 10 3 22q7 18 33 44q47 47 104 47q34 0 60 -17q51 -32 96 -32q17 0 35 5q29 9 50 46q12 21 18 25q10 6 12 6q11 0 15 -11l-4 -19
q-8 -21 -28 -45t-41 -38q-33 -21 -94 -21q-34 0 -81 21q-43 19 -58 19q-50 0 -71 -32q-13 -22 -20 -29.5t-15 -9.5z" />
    <glyph glyph-name="Odieresis" unicode="&#xd6;" horiz-adv-x="1570" 
d="M941 -16q-101 0 -172 41q-139 83 -139 300v14q4 144 66 316q12 31 17.5 46t8 20.5t9.5 23t19 46.5q-25 104 -25 148q0 61 26 129q64 151 168 276t267 246q179 130 359 187q88 27 144 32q16 3 66 3q57 0 115 -7q140 -25 227.5 -116t112.5 -238q13 -62 13 -113l-3 -67
q-12 -120 -57 -247q-119 -320 -405 -605q-115 -113 -260.5 -214.5t-265.5 -152.5q-158 -68 -291 -68zM977 69q67 0 143 19q47 12 123 43t128 60q173 96 335 250t271 326q69 109 118 233q34 92 47 142t19 118q4 44 4 66q0 149 -70 257t-195 147q-35 11 -63 14l-24 3
q-3 -17 -6 -25q-2 -5 -4.5 -12.5t-3.5 -9t-6.5 -5t-14 -6t-25.5 -5.5q-57 -12 -145 -72q-121 -82 -268.5 -225t-269.5 -295q-58 -72 -126.5 -175.5t-95.5 -158.5q-8 -18 -8 -24q0 -9 12 -28q16 -32 49 -70q117 -141 268 -141q39 0 80 9q43 8 51 8q11 0 11 -9
q-5 -19 -12.5 -25t-42.5 -16q-44 -11 -109 -11q-67 0 -88 7q-7 2 -15 5q-126 46 -220 180l-19 30q-16 -34 -20 -46q-36 -111 -48 -169q-12 -59 -12 -119q0 -62 15 -117q50 -153 237 -153zM789 868q4 4 30 50q102 181 288 394q190 217 388 361q66 46 66 50q-1 0 -20 -6.5
t-42.5 -15.5t-38.5 -15q-174 -72 -348 -222.5t-264 -307.5q-18 -33 -40 -86q-28 -77 -28 -128v-16q0 -58 9 -58zM1777 1854q-13 2 -17.5 7t-4.5 20q0 9 5 22q9 25 28 36q13 10 16 10q2 0 12 -10q7 -7 7 -25q0 -15 -3 -27q-13 -33 -43 -33zM1897 1862q-14 0 -22 11
q-5 8 -5 14t5 21q10 24 22 33q10 8 20 8q12 0 22 -10q5 -5 5 -12q0 -6 -5 -21q-7 -21 -18.5 -32.5t-23.5 -11.5z" />
    <glyph glyph-name="multiply" unicode="&#xd7;" horiz-adv-x="469" 
d="M545 578q-5 0 -13 8l-3 8l2 8q10 26 151 156q89 84 92 93q-38 174 -38 217l1 11q8 15 14 19q6 6 15 6q14 0 23.5 -29.5t24.5 -111.5l16 -63q7 0 82 66q137 121 151 121q13 -3 13 -13l-2 -11q-5 -11 -69 -67q-155 -136 -162 -150v-2q0 -12 20 -72t32 -80q14 -25 14 -40
l-2 -11q-7 -13 -11.5 -16.5t-13.5 -3.5q-40 0 -83 148q-7 23 -13 23q-7 -3 -110 -99l-110 -104q-15 -11 -21 -11z" />
    <glyph glyph-name="Oslash" unicode="&#xd8;" horiz-adv-x="1570" 
d="M789 868l2 2q3 3 20 34l8 14q106 183 288 394q198 226 435 396q19 13 19 15l-61 -22q-194 -71 -388 -237q-234 -201 -304 -394q-28 -80 -28 -148q0 -54 9 -54zM794 134q51 71 241 332q-129 49 -230 207q-3 -10 -8 -14q-30 -93 -36 -114q-36 -120 -36 -206q0 -136 69 -205
zM726 -28q-17 0 -17 17q0 26 27 60q-106 87 -106 290q0 135 66 316q18 50 54 136q-22 83 -25 135q0 67 26 142q121 289 435 522q223 161 433 206q68 16 136 16l65 -2q102 -5 187 -52q57 66 71 66q7 0 13 -6t6 -16q0 -22 -38 -77q118 -91 151 -274q11 -45 11 -118
q0 -147 -58 -309q-110 -306 -405 -605q-119 -116 -260 -214q-320 -221 -557 -221q-93 0 -164 36q-35 -48 -51 -48zM977 69q165 0 394 122q368 213 606 576q38 60 66 115q35 70 68 161q52 146 52 274q0 236 -145 348q-44 -58 -198 -257q-201 -258 -690 -910q21 -3 39 -3
q39 0 79 9q40 8 50 8q13 0 13 -9l-2 -11q-7 -18 -53 -30q-41 -11 -109 -11q-45 0 -52 1l-260 -350q57 -33 142 -33zM1068 512l32 43q552 754 680 921q114 153 180 227q-41 23 -93 36l-54 8v-6q-1 -1 -1 -5q-2 -2 -2 -6q0 -32 -57 -44t-145 -74q-267 -189 -538 -520
q-55 -66 -128 -177q-102 -156 -102 -179q0 -4 3 -8q8 -25 30 -54q91 -125 195 -162z" />
    <glyph glyph-name="Ugrave" unicode="&#xd9;" horiz-adv-x="1219" 
d="M1240 -173q-12 0 -21 9q-8 10 -8 30q0 28 24 126q39 145 199 616l9 30l-57 -79q-18 -24 -56.5 -78t-59 -81.5t-59 -77t-63.5 -77.5t-64 -69t-69.5 -64.5t-72 -51t-79 -42t-81.5 -24.5t-89 -10q-134 0 -197.5 61.5t-63.5 198.5q0 217 178 709q108 295 288 722
q51 116 74 137q12 12 28 12q9 0 16 -4q14 -9 14 -32q0 -29 -20 -83q-5 -14 -21 -67t-34 -104q-206 -554 -297.5 -854t-91.5 -456q0 -95 36 -140t112 -45q44 0 90 14t91 42.5t86 60.5t87 80.5t81.5 89t80.5 99.5t73.5 98t70.5 98q5 7 7.5 10t6 8.5t6.5 9.5q81 114 99 147
t60 143q200 538 358 802q43 68 76 68q10 0 20 -10q6 -7 6 -30q0 -53 -42 -168l-33 -87q-109 -267 -312 -599q-53 -92 -57 -102q-168 -452 -238 -681q-24 -74 -44 -155t-20 -103q0 -17 -5 -30t-14 -16zM1684 1103q6 0 59.5 101t90.5 182q45 96 75 177q44 130 44 142v1
q-1 0 -42 -79q-39 -77 -120.5 -262t-103.5 -245zM1473 1838q-35 0 -38 100v31q0 52 10 84q6 19 22 28q5 3 11 3q16 0 19 -22v-72q-2 -13 -2 -40l2 -36q9 -33 9 -42q0 -6 -3 -10q-7 -15 -12.5 -19.5t-17.5 -4.5z" />
    <glyph glyph-name="Uacute" unicode="&#xda;" horiz-adv-x="1219" 
d="M1240 -173q-12 0 -21 9q-8 10 -8 30q0 28 24 126q39 145 199 616l9 30l-57 -79q-18 -24 -56.5 -78t-59 -81.5t-59 -77t-63.5 -77.5t-64 -69t-69.5 -64.5t-72 -51t-79 -42t-81.5 -24.5t-89 -10q-134 0 -197.5 61.5t-63.5 198.5q0 217 178 709q108 295 288 722
q51 116 74 137q12 12 28 12q9 0 16 -4q14 -9 14 -32q0 -29 -20 -83q-5 -14 -21 -67t-34 -104q-206 -554 -297.5 -854t-91.5 -456q0 -95 36 -140t112 -45q44 0 90 14t91 42.5t86 60.5t87 80.5t81.5 89t80.5 99.5t73.5 98t70.5 98q5 7 7.5 10t6 8.5t6.5 9.5q81 114 99 147
t60 143q200 538 358 802q43 68 76 68q10 0 20 -10q6 -7 6 -30q0 -53 -42 -168l-33 -87q-109 -267 -312 -599q-53 -92 -57 -102q-168 -452 -238 -681q-24 -74 -44 -155t-20 -103q0 -17 -5 -30t-14 -16zM1684 1103q6 0 59.5 101t90.5 182q45 96 75 177q44 130 44 142v1
q-1 0 -42 -79q-39 -77 -120.5 -262t-103.5 -245zM1492 1820q-16 0 -16 14q2 13 6 18t40 43q20 20 55 76q12 18 31.5 44t20.5 28q20 22 36 22q5 0 10 -3q6 -4 6 -11q0 -4 -5 -17q-15 -39 -75 -115q-72 -99 -109 -99z" />
    <glyph glyph-name="Ucircumflex" unicode="&#xdb;" horiz-adv-x="1219" 
d="M1240 -173q-12 0 -21 9q-8 10 -8 30q0 28 24 126q39 145 199 616l9 30l-57 -79q-18 -24 -56.5 -78t-59 -81.5t-59 -77t-63.5 -77.5t-64 -69t-69.5 -64.5t-72 -51t-79 -42t-81.5 -24.5t-89 -10q-134 0 -197.5 61.5t-63.5 198.5q0 217 178 709q108 295 288 722
q51 116 74 137q12 12 28 12q9 0 16 -4q14 -9 14 -32q0 -29 -20 -83q-5 -14 -21 -67t-34 -104q-206 -554 -297.5 -854t-91.5 -456q0 -95 36 -140t112 -45q44 0 90 14t91 42.5t86 60.5t87 80.5t81.5 89t80.5 99.5t73.5 98t70.5 98q5 7 7.5 10t6 8.5t6.5 9.5q81 114 99 147
t60 143q200 538 358 802q43 68 76 68q10 0 20 -10q6 -7 6 -30q0 -53 -42 -168l-33 -87q-109 -267 -312 -599q-53 -92 -57 -102q-168 -452 -238 -681q-24 -74 -44 -155t-20 -103q0 -17 -5 -30t-14 -16zM1684 1103q6 0 59.5 101t90.5 182q45 96 75 177q44 130 44 142v1
q-1 0 -42 -79q-39 -77 -120.5 -262t-103.5 -245zM1638 1766q-10 5 -30 98q-36 163 -55 171q-23 0 -127 -132q-58 -71 -68 -79q-12 -9 -20 -9q-10 0 -10 12q1 8 1.5 10t4 9.5t10 16t20.5 26.5q72 101 147 176q40 41 68 41q13 0 20 -6q16 -13 45 -124.5t29 -162.5
q0 -14 -2 -17q-4 -11 -14.5 -20.5t-18.5 -9.5z" />
    <glyph glyph-name="Udieresis" unicode="&#xdc;" horiz-adv-x="1219" 
d="M1240 -173q-12 0 -21 9q-8 10 -8 30q0 28 24 126q39 145 199 616l9 30l-57 -79q-18 -24 -56.5 -78t-59 -81.5t-59 -77t-63.5 -77.5t-64 -69t-69.5 -64.5t-72 -51t-79 -42t-81.5 -24.5t-89 -10q-134 0 -197.5 61.5t-63.5 198.5q0 217 178 709q108 295 288 722
q51 116 74 137q12 12 28 12q9 0 16 -4q14 -9 14 -32q0 -29 -20 -83q-5 -14 -21 -67t-34 -104q-206 -554 -297.5 -854t-91.5 -456q0 -95 36 -140t112 -45q44 0 90 14t91 42.5t86 60.5t87 80.5t81.5 89t80.5 99.5t73.5 98t70.5 98q5 7 7.5 10t6 8.5t6.5 9.5q81 114 99 147
t60 143q200 538 358 802q43 68 76 68q10 0 20 -10q6 -7 6 -30q0 -53 -42 -168l-33 -87q-109 -267 -312 -599q-53 -92 -57 -102q-168 -452 -238 -681q-24 -74 -44 -155t-20 -103q0 -17 -5 -30t-14 -16zM1684 1103q6 0 59.5 101t90.5 182q45 96 75 177q44 130 44 142v1
q-1 0 -42 -79q-39 -77 -120.5 -262t-103.5 -245zM1427 1821q-12 2 -16 7t-4 20q0 14 3 22q9 25 28 36q13 10 16 10t13 -10q8 -8 8 -25q0 -14 -5 -27q-14 -33 -43 -33zM1547 1829q-14 0 -22 11q-5 8 -5 14t5 21q10 24 22 33q10 8 21 8q12 0 22 -10q4 -4 4 -12q0 -9 -4 -21
q-7 -20 -19 -32t-24 -12z" />
    <glyph glyph-name="Yacute" unicode="&#xdd;" horiz-adv-x="1362" 
d="M1000 -39q-20 0 -31 4q-42 12 -57 54q-5 13 -5 30q0 31 15 71q88 193 319 309q73 36 189.5 62.5t201.5 26.5h30q131 191 232 396q26 51 62.5 132t44.5 106l1 6q-5 0 -44 -44q-239 -257 -502 -422q-205 -127 -360 -145q-28 -3 -53 -3q-46 0 -85 14q-151 57 -151 269l1 33
q3 62 25 161q17 71 46 156q12 35 66 156q76 161 175 306.5t145 165.5q13 7 25 7q21 0 29 -22q4 -8 4 -19q0 -12 -4 -24q-12 -29 -59 -101q-217 -341 -304 -584q-19 -53 -33 -109q-14 -59 -14 -132q0 -28 3 -49q10 -73 58.5 -111.5t127.5 -38.5q76 0 176 38q152 60 342.5 206
t352.5 327q73 81 91.5 113t66.5 154q88 229 127 282q29 43 54 43q18 0 27 -25q1 -2 1 -14q0 -10 -9 -63q-8 -32 -17 -57q-5 -18 -27 -60q-56 -104 -123 -202q-24 -34 -35 -56.5t-34 -80.5q-166 -399 -338 -660q-28 -40 -34 -55q79 -35 83 -63q-5 -30 -20 -30q-7 0 -19 14
q-11 17 -33 25q-26 11 -32 11q-9 0 -17.5 -9t-32.5 -39q-131 -166 -273.5 -283.5t-259.5 -156.5q-58 -20 -115 -20zM1026 16q48 0 115 27q98 39 225.5 148.5t230.5 243.5l34 42q-10 -1 -42.5 -5t-39.5 -4.5t-32 -4t-32.5 -5t-28 -4.5t-31.5 -6t-29.5 -7.5t-35.5 -10
t-37 -11.5q-110 -37 -213 -124t-141 -172q-2 -8 -5.5 -19t-5.5 -19t-2 -16q0 -53 70 -53zM2210 1528q5 0 33 63q5 13 9 21t5.5 10.5t4 10t7.5 23.5l-2 4q-3 0 -21 -42q-21 -46 -33 -76zM1720 1809q-15 0 -15 14q2 13 6 19t39 42q20 20 55 76q12 18 31.5 44t20.5 28
q20 22 37 22q4 0 9 -3q5 -5 5 -11q0 -5 -3 -17q-14 -37 -76 -115q-72 -99 -109 -99z" />
    <glyph glyph-name="Thorn" unicode="&#xde;" horiz-adv-x="694" 
d="M290 123q-13 0 -21 22l-1 14q0 36 38 155.5t145 422.5q213 584 282 734q13 31 27.5 65t22.5 53.5t16 38t13.5 28.5t9.5 15q8 7 16 7q18 0 21 -25q0 -15 -48 -150q-42 -116 -67 -175l-35 -85h1q10 2 36.5 7.5t37 7t34 3.5t50.5 2q70 0 110 -12q76 -20 125 -66t56 -103
l2 -23q0 -17 -17 -63q-17 -45 -34.5 -70.5t-60.5 -66.5q-84 -82 -310 -213t-292 -136l-12 -1q-109 -303 -112 -334q0 -15 -3 -24q-7 -19 -22 -27q-2 -1 -8 -1zM474 575q171 56 432 232q89 59 128 98.5t55 86.5q11 27 11 43l-2 21q-8 43 -52.5 81.5t-103.5 55.5q-36 7 -94 11
l-43 1q-34 0 -82 -11l-36 -8q-44 -109 -150 -389l-75 -202z" />
    <glyph glyph-name="germandbls" unicode="&#xdf;" horiz-adv-x="1302" 
d="M173 -14q-19 0 -19 41q0 23 10 68q9 41 33 105q77 209 206 454q216 406 484 709.5t462 361.5q18 5 39 5q48 0 68 -16q28 -21 28 -66l-2 -16l-7 -31q-50 -136 -300 -364l-38 -35q76 19 128 24l54 3q90 0 168.5 -28.5t119.5 -77.5q53 -62 53 -168v-22q0 -33 -25 -103
q-23 -64 -52 -110q-98 -156 -274 -284q-135 -98 -317 -159q-121 -40 -230 -63q-119 -25 -176 -25q-88 0 -93 50q0 22 5 40q9 25 27 30q17 0 17 -18q0 -11 -3 -17l-2 -11q0 -9 8 -13t30 -6l20 -1q85 0 257 48t285 103q164 82 288.5 202t167.5 237q9 30 14 56q6 24 6 56
q0 71 -39 123t-112 79q-78 27 -143 27q-86 0 -238 -41q-27 -7 -33 -7t-13 7q-5 8 -5 12q0 8 5 18q4 14 24 33.5t132 123.5q85 77 153 158t83 124q7 15 7 29q0 40 -48 40q-193 -23 -472 -348q-345 -399 -599 -956q-29 -62 -60 -151q-46 -126 -50 -158q-3 -36 -10 -52
q-4 -13 -12 -17z" />
    <glyph glyph-name="agrave" unicode="&#xe0;" horiz-adv-x="730" 
d="M830 180q-105 0 -105 157q0 110 50 310q5 22 16 60t19 65l9 27q-28 -38 -78 -107.5t-67.5 -93t-45.5 -55.5t-53 -53q-36 -32 -72 -32q-33 0 -51 30q-17 26 -17 71q0 37 11 76q2 10 16 55q45 114 107 170q67 62 132 62q20 0 38 -8q20 -9 20 -40q0 -24 -12 -53
q-11 -33 -31.5 -66.5t-36.5 -48.5q-7 -7 -16 -7t-9 7v1q41 41 64 114q10 27 10 41t-8 17l-11 2q-47 0 -112 -107q-30 -53 -50 -106q-30 -85 -30 -131q0 -28 11 -28h3q29 0 107 101l145 195q70 96 76 106q17 22 30 22q14 0 14 -24q0 -10 -2 -16l-7 -25q-8 -24 -22 -75
t-34 -134q-31 -124 -41 -186.5t-12 -135.5v-20q0 -104 55 -104q67 0 149 105q60 79 164 274l55 107q12 24 37 24q11 0 11 -11l-4 -13l-66 -121q-2 -3 -24 -39.5t-45 -73.5t-53 -82t-51 -73q-48 -62 -97.5 -96t-85.5 -34zM792 992q-34 0 -37 100l-2 31q0 49 11 84q6 19 22 28
q4 3 11 3q16 0 19 -22v-72q-3 -20 -3 -40l3 -36q8 -35 8 -42t-2 -10q-7 -15 -12.5 -19.5t-17.5 -4.5z" />
    <glyph glyph-name="aacute" unicode="&#xe1;" horiz-adv-x="730" 
d="M830 180q-105 0 -105 157q0 110 50 310q5 22 16 60t19 65l9 27q-28 -38 -78 -107.5t-67.5 -93t-45.5 -55.5t-53 -53q-36 -32 -72 -32q-33 0 -51 30q-17 26 -17 71q0 37 11 76q2 10 16 55q45 114 107 170q67 62 132 62q20 0 38 -8q20 -9 20 -40q0 -24 -12 -53
q-11 -33 -31.5 -66.5t-36.5 -48.5q-7 -7 -16 -7t-9 7v1q41 41 64 114q10 27 10 41t-8 17l-11 2q-47 0 -112 -107q-30 -53 -50 -106q-30 -85 -30 -131q0 -28 11 -28h3q29 0 107 101l145 195q70 96 76 106q17 22 30 22q14 0 14 -24q0 -10 -2 -16l-7 -25q-8 -24 -22 -75
t-34 -134q-31 -124 -41 -186.5t-12 -135.5v-20q0 -104 55 -104q67 0 149 105q60 79 164 274l55 107q12 24 37 24q11 0 11 -11l-4 -13l-66 -121q-2 -3 -24 -39.5t-45 -73.5t-53 -82t-51 -73q-48 -62 -97.5 -96t-85.5 -34zM797 997q-16 0 -16 14q0 2 0.5 5.5t1 4.5t1.5 3.5
t3 5t4.5 6t8 9t11.5 12t16 16.5q22 22 55 75q12 18 31.5 44.5t20.5 28.5q20 22 36 22q5 0 10 -3q5 -5 5 -11q0 -2 -4 -18q-15 -39 -75 -115q-72 -99 -109 -99z" />
    <glyph glyph-name="acircumflex" unicode="&#xe2;" horiz-adv-x="730" 
d="M830 180q-105 0 -105 157q0 110 50 310q5 22 16 60t19 65l9 27q-28 -38 -78 -107.5t-67.5 -93t-45.5 -55.5t-53 -53q-36 -32 -72 -32q-33 0 -51 30q-17 26 -17 71q0 37 11 76q2 10 16 55q45 114 107 170q67 62 132 62q20 0 38 -8q20 -9 20 -40q0 -24 -12 -53
q-11 -33 -31.5 -66.5t-36.5 -48.5q-7 -7 -16 -7t-9 7v1q41 41 64 114q10 27 10 41t-8 17l-11 2q-47 0 -112 -107q-30 -53 -50 -106q-30 -85 -30 -131q0 -28 11 -28h3q29 0 107 101l145 195q70 96 76 106q17 22 30 22q14 0 14 -24q0 -10 -2 -16l-7 -25q-8 -24 -22 -75
t-34 -134q-31 -124 -41 -186.5t-12 -135.5v-20q0 -104 55 -104q67 0 149 105q60 79 164 274l55 107q12 24 37 24q11 0 11 -11l-4 -13l-66 -121q-2 -3 -24 -39.5t-45 -73.5t-53 -82t-51 -73q-48 -62 -97.5 -96t-85.5 -34zM988 961q-10 6 -30 98q-36 163 -55 171
q-24 0 -128 -132q-58 -71 -68 -79q-12 -9 -20 -9q-10 0 -10 12q2 10 3.5 13.5t8.5 14.5t25 34q74 104 146 176q40 41 68 41q13 0 20 -6q16 -13 45 -124.5t29 -162.5q0 -16 -1 -17q-4 -11 -14.5 -20.5t-18.5 -9.5z" />
    <glyph glyph-name="atilde" unicode="&#xe3;" horiz-adv-x="730" 
d="M830 180q-105 0 -105 157q0 110 50 310q5 22 16 60t19 65l9 27q-28 -38 -78 -107.5t-67.5 -93t-45.5 -55.5t-53 -53q-36 -32 -72 -32q-33 0 -51 30q-17 26 -17 71q0 37 11 76q2 10 16 55q45 114 107 170q67 62 132 62q20 0 38 -8q20 -9 20 -40q0 -24 -12 -53
q-11 -33 -31.5 -66.5t-36.5 -48.5q-7 -7 -16 -7t-9 7v1q41 41 64 114q10 27 10 41t-8 17l-11 2q-47 0 -112 -107q-30 -53 -50 -106q-30 -85 -30 -131q0 -28 11 -28h3q29 0 107 101l145 195q70 96 76 106q17 22 30 22q14 0 14 -24q0 -10 -2 -16l-7 -25q-8 -24 -22 -75
t-34 -134q-31 -124 -41 -186.5t-12 -135.5v-20q0 -104 55 -104q67 0 149 105q60 79 164 274l55 107q12 24 37 24q11 0 11 -11l-4 -13l-66 -121q-2 -3 -24 -39.5t-45 -73.5t-53 -82t-51 -73q-48 -62 -97.5 -96t-85.5 -34zM670 966q-16 0 -16 19q0 9 5 22q7 18 33 44
q47 47 104 47q33 0 59 -17q51 -32 97 -32q16 0 34 5q30 9 51 46q12 22 17 25q10 6 13 6q10 0 14 -11l-3 -19q-8 -20 -28.5 -44.5t-41.5 -38.5q-33 -21 -94 -21q-34 0 -81 21q-43 19 -58 19q-54 0 -71 -32q-21 -37 -34 -39z" />
    <glyph glyph-name="adieresis" unicode="&#xe4;" horiz-adv-x="730" 
d="M830 180q-105 0 -105 157q0 110 50 310q5 22 16 60t19 65l9 27q-28 -38 -78 -107.5t-67.5 -93t-45.5 -55.5t-53 -53q-36 -32 -72 -32q-33 0 -51 30q-17 26 -17 71q0 37 11 76q2 10 16 55q45 114 107 170q67 62 132 62q20 0 38 -8q20 -9 20 -40q0 -24 -12 -53
q-11 -33 -31.5 -66.5t-36.5 -48.5q-7 -7 -16 -7t-9 7v1q41 41 64 114q10 27 10 41t-8 17l-11 2q-47 0 -112 -107q-30 -53 -50 -106q-30 -85 -30 -131q0 -28 11 -28h3q29 0 107 101l145 195q70 96 76 106q17 22 30 22q14 0 14 -24q0 -10 -2 -16l-7 -25q-8 -24 -22 -75
t-34 -134q-31 -124 -41 -186.5t-12 -135.5v-20q0 -104 55 -104q67 0 149 105q60 79 164 274l55 107q12 24 37 24q11 0 11 -11l-4 -13l-66 -121q-2 -3 -24 -39.5t-45 -73.5t-53 -82t-51 -73q-48 -62 -97.5 -96t-85.5 -34zM835 1008q-12 2 -16.5 7t-4.5 20q0 6 4 22
q9 25 28 36q13 10 16 10q2 0 12 -10q8 -8 8 -25q0 -14 -5 -27q-13 -33 -42 -33zM955 1016q-14 0 -22 11q-5 8 -5 14t5 21q10 24 22 33q10 8 20 8q12 0 22 -10q5 -5 5 -12q0 -6 -5 -21q-7 -21 -18.5 -32.5t-23.5 -11.5z" />
    <glyph glyph-name="aring" unicode="&#xe5;" horiz-adv-x="730" 
d="M830 180q-105 0 -105 157q0 110 50 310q5 22 16 60t19 65l9 27q-28 -38 -78 -107.5t-67.5 -93t-45.5 -55.5t-53 -53q-36 -32 -72 -32q-33 0 -51 30q-17 26 -17 71q0 37 11 76q2 10 16 55q45 114 107 170q67 62 132 62q20 0 38 -8q20 -9 20 -40q0 -24 -12 -53
q-11 -33 -31.5 -66.5t-36.5 -48.5q-7 -7 -16 -7t-9 7v1q41 41 64 114q10 27 10 41t-8 17l-11 2q-47 0 -112 -107q-30 -53 -50 -106q-30 -85 -30 -131q0 -28 11 -28h3q29 0 107 101l145 195q70 96 76 106q17 22 30 22q14 0 14 -24q0 -10 -2 -16l-7 -25q-8 -24 -22 -75
t-34 -134q-31 -124 -41 -186.5t-12 -135.5v-20q0 -104 55 -104q67 0 149 105q60 79 164 274l55 107q12 24 37 24q11 0 11 -11l-4 -13l-66 -121q-2 -3 -24 -39.5t-45 -73.5t-53 -82t-51 -73q-48 -62 -97.5 -96t-85.5 -34zM824 967q-27 0 -42.5 20.5t-17.5 55.5q0 29 14 63
q17 47 47.5 90.5t61.5 63.5q18 13 28 13t18.5 -10.5t8.5 -21.5l-3 -15q0 -5 9 -8q16 -4 29.5 -35t13.5 -63q0 -16 -5 -31q-15 -41 -60 -77t-91 -43zM844 1021q27 0 57 19t38 42q3 9 3 24q0 28 -8 46q-7 20 -28 20h-6q-16 0 -16 3q-3 5 -5 5q-5 0 -24 -24q-14 -25 -28 -60
q-9 -29 -9 -40q0 -15 7 -25t19 -10z" />
    <glyph glyph-name="ae" unicode="&#xe6;" horiz-adv-x="795" 
d="M909 723q17 6 41 17q15 7 55 35q34 24 57 51q23 28 33 55q5 13 5 19t1 7q-22 0 -79 -48q-58 -49 -113 -136zM855 296q-57 0 -97 32q-36 29 -44 60q-5 23 -5 45q0 73 38 181q29 69 47 101q22 77 25 82q-43 -54 -77 -104q-161 -235 -239 -235q-29 0 -49 29q-19 25 -19 69
q0 48 27 134q38 104 107 170q74 62 132 62t58 -43q0 -53 -42 -124q-34 -56 -52 -56q-10 0 -10 7v3q73 97 73 150q0 12 -8 20l-11 2q-43 0 -112 -107q-32 -58 -50 -106q-30 -86 -30 -132q0 -27 14 -27q20 0 50 33q36 36 125 157q114 158 124 169l29 43q17 22 28 22
q16 0 16 -26q0 -6 -3 -18q-6 -17 -8 -30q38 43 75 66q69 45 120 45q21 0 38 -9q23 -16 23 -35q0 -48 -53 -105q-83 -93 -213 -140q-35 -47 -71 -153q-23 -62 -23 -136q0 -25 23 -45q21 -18 60 -18q47 0 107 25q46 19 117 84q97 87 186 263q13 24 34 24q15 0 15 -10
q0 -1 -0.5 -2l-1.5 -3l-2 -4t-4 -9t-9 -19.5t-13 -25.5q-58 -91 -128 -170q-69 -79 -178 -146q-73 -40 -139 -40z" />
    <glyph glyph-name="ccedilla" unicode="&#xe7;" horiz-adv-x="554" 
d="M455 -110q-25 0 -25 30q0 9 10 19q7 7 14 7t11 -6t8 -6q8 0 19 6q14 8 33 21q9 6 34 26q16 16 18 21q1 2 1 9q0 37 -72 37l-35 -2q-17 0 -22 8q-5 10 -5 22q0 8 3 17q13 37 24 51q-146 9 -146 192q0 128 61 296q135 336 236 462q91 113 172 116l13 2q55 0 55 -73
q0 -21 -8 -74q-6 -40 -30 -110q-20 -60 -58 -102q-8 -8 -15 -8q-11 0 -11 11l2 6q76 112 76 258q0 32 -27 37q-35 -3 -114 -141q-77 -135 -165 -376q-74 -204 -74 -318q0 -110 57 -123q2 0 4 -2q12 23 16 27q11 11 14 13q7 3 13 3q11 0 16 -14q-1 -2 -3 -12t-5 -18
q72 12 170 110q103 105 211 299l47 88q9 24 35 24q11 0 11 -9q0 -12 -55 -111q-75 -123 -137 -206q-160 -215 -303 -243q-4 -4 -11 -19q-5 -10 -8 -15l13 -3q32 -4 57 -13q21 -9 33 -30t12 -39q0 -52 -77 -104q-65 -41 -93 -41z" />
    <glyph glyph-name="egrave" unicode="&#xe8;" horiz-adv-x="489" 
d="M503 296q-55 0 -95 30t-47 62q-5 22 -5 42q0 84 38 184q42 100 93 180q54 80 125 128t124 48q22 0 36 -9q24 -16 24 -36q0 -13 -8 -35q-12 -32 -45 -69t-73 -66q-71 -53 -141 -74q-11 -14 -33.5 -63t-37.5 -90q-23 -63 -23 -111q0 -47 23 -70q21 -18 62 -18q49 0 105 25
q154 74 278 298q5 9 12.5 24.5t10.5 21.5t9 14t13 10.5t16 2.5q11 0 11 -10l-1 -9q-9 -27 -27 -54q-75 -114 -138.5 -184t-167.5 -132q-67 -40 -138 -40zM556 723q46 14 95 49q70 49 93 110q4 10 4 25h-3q-12 0 -50.5 -29.5t-62.5 -56.5q-42 -48 -76 -98zM729 1038
q-34 0 -37 99l-2 32q0 48 11 83q6 20 22 29q5 3 11 3q16 0 19 -22v-73q-2 -13 -2 -39l2 -36q8 -35 8 -43q0 -6 -2 -9q-7 -15 -12.5 -19.5t-17.5 -4.5z" />
    <glyph glyph-name="eacute" unicode="&#xe9;" horiz-adv-x="489" 
d="M503 296q-55 0 -95 30t-47 62q-5 22 -5 42q0 84 38 184q42 100 93 180q54 80 125 128t124 48q22 0 36 -9q24 -16 24 -36q0 -13 -8 -35q-12 -32 -45 -69t-73 -66q-71 -53 -141 -74q-11 -14 -33.5 -63t-37.5 -90q-23 -63 -23 -111q0 -47 23 -70q21 -18 62 -18q49 0 105 25
q154 74 278 298q5 9 12.5 24.5t10.5 21.5t9 14t13 10.5t16 2.5q11 0 11 -10l-1 -9q-9 -27 -27 -54q-75 -114 -138.5 -184t-167.5 -132q-67 -40 -138 -40zM556 723q46 14 95 49q70 49 93 110q4 10 4 25h-3q-12 0 -50.5 -29.5t-62.5 -56.5q-42 -48 -76 -98zM756 1044
q-16 0 -16 15q2 13 6.5 19t39.5 42q20 20 55 76q12 18 31.5 44t20.5 28q20 22 36 22q5 0 10 -3q5 -5 5 -11q0 -5 -3 -17q-14 -37 -76 -115q-72 -100 -109 -100z" />
    <glyph glyph-name="ecircumflex" unicode="&#xea;" horiz-adv-x="489" 
d="M503 296q-55 0 -95 30t-47 62q-5 22 -5 42q0 84 38 184q42 100 93 180q54 80 125 128t124 48q22 0 36 -9q24 -16 24 -36q0 -13 -8 -35q-12 -32 -45 -69t-73 -66q-71 -53 -141 -74q-11 -14 -33.5 -63t-37.5 -90q-23 -63 -23 -111q0 -47 23 -70q21 -18 62 -18q49 0 105 25
q154 74 278 298q5 9 12.5 24.5t10.5 21.5t9 14t13 10.5t16 2.5q11 0 11 -10l-1 -9q-9 -27 -27 -54q-75 -114 -138.5 -184t-167.5 -132q-67 -40 -138 -40zM556 723q46 14 95 49q70 49 93 110q4 10 4 25h-3q-12 0 -50.5 -29.5t-62.5 -56.5q-42 -48 -76 -98zM893 948
q-9 5 -30 98q-37 164 -55 172q-21 0 -127 -133q-55 -67 -68 -78q-13 -10 -21 -10q-9 0 -9 13q2 8 2 10t4 9t10 15.5t20 26.5q74 104 147 177q40 41 67 41q13 0 21 -7q18 -13 46.5 -123.5t28.5 -162.5q0 -14 -3 -18q-4 -11 -14.5 -20.5t-18.5 -9.5z" />
    <glyph glyph-name="edieresis" unicode="&#xeb;" horiz-adv-x="489" 
d="M503 296q-55 0 -95 30t-47 62q-5 22 -5 42q0 84 38 184q42 100 93 180q54 80 125 128t124 48q22 0 36 -9q24 -16 24 -36q0 -13 -8 -35q-12 -32 -45 -69t-73 -66q-71 -53 -141 -74q-11 -14 -33.5 -63t-37.5 -90q-23 -63 -23 -111q0 -47 23 -70q21 -18 62 -18q49 0 105 25
q154 74 278 298q5 9 12.5 24.5t10.5 21.5t9 14t13 10.5t16 2.5q11 0 11 -10l-1 -9q-9 -27 -27 -54q-75 -114 -138.5 -184t-167.5 -132q-67 -40 -138 -40zM556 723q46 14 95 49q70 49 93 110q4 10 4 25h-3q-12 0 -50.5 -29.5t-62.5 -56.5q-42 -48 -76 -98zM695 1032
q-12 2 -16.5 7t-4.5 20q0 10 3 22q9 24 29 36q12 9 16 9q3 0 12 -9q8 -7 8 -25q0 -14 -5 -27q-12 -33 -42 -33zM814 1040q-14 0 -22 11q-4 7 -4 14q0 8 4 20q11 26 22 34q8 7 21 7t22 -9q5 -5 5 -13q0 -5 -5 -20q-7 -20 -19 -32t-24 -12z" />
    <glyph glyph-name="igrave" unicode="&#xec;" horiz-adv-x="351" 
d="M474 356q-28 0 -45 17q-38 38 -38 107q0 58 20 130q57 168 125 258q40 54 82 54q13 0 18 -8t5 -16q0 -13 -8 -35q-9 -25 -28 -61q-1 -1 -61 -134q-37 -94 -51 -140.5t-14 -86.5q0 -26 6 -39q8 -18 32 -18q41 0 99 45q45 34 75.5 74t72.5 119l41 77q12 24 36 24
q11 0 11 -11l-1 -8q-4 -11 -11 -23.5t-18.5 -29.5t-18.5 -29q-135 -229 -294 -261q-23 -5 -35 -5zM627 1002q-38 0 -38 117q0 129 44 129q14 0 19 -22q0 -62 -1 -73q0 -72 1 -75q8 -25 8 -40q0 -11 -6 -22q-12 -14 -27 -14z" />
    <glyph glyph-name="iacute" unicode="&#xed;" horiz-adv-x="351" 
d="M646 991q-16 0 -16 14l2 10q4 12 44 52q3 3 25 31q5 8 16 22.5t16 21.5l41 58q29 37 45 37q14 0 14 -13q0 -30 -75 -132q-77 -101 -112 -101zM473 356q-24 0 -46 17q-39 47 -39 115q0 50 22 122q49 149 124 258q42 54 82 54q24 0 24 -22t-37 -98q-59 -128 -88 -207
q-38 -103 -38 -155q0 -56 40 -56q33 0 97 45q47 35 76 75q34 48 72 118q11 21 24 43q9 17 17 34q13 24 35 24q13 0 13 -9q0 -10 -30 -62q-11 -12 -19 -30q-117 -215 -295 -261q-18 -5 -34 -5z" />
    <glyph glyph-name="icircumflex" unicode="&#xee;" horiz-adv-x="351" 
d="M772 884l-3 1q-3 2 -27 96q-37 163 -57 172q-18 0 -126 -132l-42 -52q-30 -36 -46 -36q-8 0 -11 12l5 10q8 28 112 152q96 117 135 117q13 0 19 -6q14 -11 36 -79q40 -135 40 -206q0 -16 -2 -21q-4 -11 -14 -19q-12 -9 -19 -9zM473 356q-24 0 -46 17q-39 47 -39 115
q0 50 22 122q49 149 124 258q42 54 82 54q24 0 24 -22t-37 -98q-59 -128 -88 -207q-38 -103 -38 -155q0 -56 40 -56q33 0 97 45q47 35 76 75q34 48 72 118q11 21 24 43q9 17 17 34q13 24 35 24q13 0 13 -9q0 -10 -30 -62q-11 -12 -19 -30q-117 -215 -295 -261q-18 -5 -34 -5
z" />
    <glyph glyph-name="idieresis" unicode="&#xef;" horiz-adv-x="351" 
d="M698 975q-12 0 -19 11q-5 5 -5 11q0 9 5 24q14 41 41 41q9 0 22 -10q5 -5 5 -11q0 -9 -5 -22q-13 -41 -44 -44zM578 967l-6 2q-14 8 -14 28q0 31 33 55q13 10 16 10q4 0 12 -8q4 -5 8 -25q0 -16 -5 -29q-14 -33 -44 -33zM473 356q-24 0 -46 17q-39 47 -39 115
q0 50 22 122q49 149 124 258q42 54 82 54q24 0 24 -22t-37 -98q-59 -128 -88 -207q-38 -103 -38 -155q0 -56 40 -56q33 0 97 45q47 35 76 75q34 48 72 118q11 21 24 43q9 17 17 34q13 24 35 24q13 0 13 -9q0 -10 -30 -62q-11 -12 -19 -30q-117 -215 -295 -261q-18 -5 -34 -5
z" />
    <glyph glyph-name="eth" unicode="&#xf0;" horiz-adv-x="512" 
d="M487 440q39 0 91 53q-77 36 -94 128q-26 -80 -26 -131q0 -50 29 -50zM597 514q56 67 88 156q25 68 25 132q0 61 -39 61q-41 0 -90 -64q-51 -67 -80 -133q12 -112 96 -152zM457 394q-27 0 -49 17q-38 33 -38 85q0 51 32 144q59 161 170 230q54 31 98 31q17 0 20 -1
q-5 23 -5 56q-69 -4 -129 -4q-106 0 -109 22q0 5 4 9q24 30 233 30q5 88 42 88q21 0 21 -31l-2 -55q11 2 92 7q87 15 100 15q48 0 48 -19q0 -42 -240 -59l2 -28q8 -30 8 -42q0 -13 -11 -24q12 -26 12 -62q0 -48 -27 -126q-54 -120 -96 -174q22 -4 52 -4q109 9 166 57
q60 50 88 104q2 5 9.5 19t10.5 22q13 22 35 22q11 0 11 -9t-8 -22q-30 -64 -85 -119q-98 -99 -235 -99q-41 0 -61 6q-77 -86 -159 -86z" />
    <glyph glyph-name="ntilde" unicode="&#xf1;" horiz-adv-x="723" 
d="M818 279q-34 0 -55 11.5t-29 45.5q-6 17 -6 45t9 67t18.5 69t30.5 91q8 22 24 63.5t21.5 56.5t13 41t10 45.5t2.5 42.5q0 76 -46 76q-30 0 -54 -9.5t-73 -58.5t-114 -143q-113 -163 -140 -237q-5 -16 -8 -28q-7 -22 -21 -36.5t-32 -14.5q-32 0 -32 45q0 17 3 29
q13 73 65 212q76 209 129 289q14 22 27 30q13 13 25 13q10 0 22 -9q14 -9 14 -27q0 -19 -15 -60l-104 -252q32 41 45 61q80 110 144 169.5t132 59.5q135 0 135 -115q0 -46 -25 -114q-93 -260 -107 -321q-5 -33 -5 -52q0 -46 29 -46q50 0 127 96t136 211l39 74q12 24 36 24
q11 0 11 -11l-1 -8q-4 -12 -10 -24t-19.5 -34.5l-16.5 -27.5q-46 -80 -104 -157.5t-88 -107.5q-37 -37 -75.5 -55.5t-67.5 -18.5zM690 1059q-16 0 -16 19q0 9 5 22q7 18 33 44q47 47 104 47q34 0 60 -17q51 -32 96 -32q17 0 35 5q29 9 50 46q12 22 17 25q10 6 13 6
q10 0 14 -11l-3 -19q-8 -21 -28 -45t-41 -38q-33 -21 -95 -21q-33 0 -80 21q-43 19 -58 19q-54 0 -71 -32q-13 -22 -20 -29.5t-15 -9.5z" />
    <glyph glyph-name="ograve" unicode="&#xf2;" horiz-adv-x="512" 
d="M458 394q-30 0 -48 17q-38 31 -38 90q0 54 31 139q27 78 79 146q38 50 91 82.5t98 32.5q85 0 85 -96q0 -54 -27 -128q-45 -112 -94 -174q22 -4 38 -4q55 0 100.5 14.5t77.5 41t51.5 50.5t38.5 55q13 28 20 39q12 24 35 24q11 0 11 -9l-2 -8q-3 -11 -22 -46
q-46 -77 -123.5 -131.5t-180.5 -54.5q-27 0 -61 6q-51 -57 -112 -77q-24 -9 -48 -9zM488 440q42 0 92 53q-73 32 -95 128q-25 -77 -25 -128q0 -53 28 -53zM599 514q40 48 71 113q10 23 17 43q27 74 27 126q0 67 -41 67q-38 0 -87 -61.5t-83 -135.5q18 -118 96 -152zM723 970
q-35 0 -38 100l-1 31q0 49 11 84q6 19 22 28q5 3 11 3q16 0 19 -22v-72q-2 -13 -2 -40l2 -36q8 -35 8 -42t-2 -10q-7 -15 -12.5 -19.5t-17.5 -4.5z" />
    <glyph glyph-name="oacute" unicode="&#xf3;" horiz-adv-x="512" 
d="M458 394q-30 0 -48 17q-38 31 -38 90q0 54 31 139q27 78 79 146q38 50 91 82.5t98 32.5q85 0 85 -96q0 -54 -27 -128q-45 -112 -94 -174q22 -4 38 -4q55 0 100.5 14.5t77.5 41t51.5 50.5t38.5 55q13 28 20 39q12 24 35 24q11 0 11 -9l-2 -8q-3 -11 -22 -46
q-46 -77 -123.5 -131.5t-180.5 -54.5q-27 0 -61 6q-51 -57 -112 -77q-24 -9 -48 -9zM488 440q42 0 92 53q-73 32 -95 128q-25 -77 -25 -128q0 -53 28 -53zM599 514q40 48 71 113q10 23 17 43q27 74 27 126q0 67 -41 67q-38 0 -87 -61.5t-83 -135.5q18 -118 96 -152zM726 963
q-16 0 -16 14q2 13 6.5 19t39.5 42q20 20 55 76q12 18 31.5 44t20.5 28q20 22 37 22q4 0 9 -3q5 -5 5 -11q0 -5 -3 -17q-14 -37 -76 -115q-72 -99 -109 -99z" />
    <glyph glyph-name="ocircumflex" unicode="&#xf4;" horiz-adv-x="512" 
d="M458 394q-30 0 -48 17q-38 31 -38 90q0 54 31 139q27 78 79 146q38 50 91 82.5t98 32.5q85 0 85 -96q0 -54 -27 -128q-45 -112 -94 -174q22 -4 38 -4q55 0 100.5 14.5t77.5 41t51.5 50.5t38.5 55q13 28 20 39q12 24 35 24q11 0 11 -9l-2 -8q-3 -11 -22 -46
q-46 -77 -123.5 -131.5t-180.5 -54.5q-27 0 -61 6q-51 -57 -112 -77q-24 -9 -48 -9zM488 440q42 0 92 53q-73 32 -95 128q-25 -77 -25 -128q0 -53 28 -53zM599 514q40 48 71 113q10 23 17 43q27 74 27 126q0 67 -41 67q-38 0 -87 -61.5t-83 -135.5q18 -118 96 -152zM837 865
q-10 6 -30 98q-36 162 -56 171q-21 0 -127 -132q-58 -71 -68 -79q-12 -9 -20 -9q-10 0 -10 12q2 10 3 13.5t8.5 14.5t24.5 34q72 101 147 176q40 41 68 41q13 0 20 -6q16 -13 45 -124.5t29 -162.5q0 -16 -1 -17q-4 -11 -14.5 -20.5t-18.5 -9.5z" />
    <glyph glyph-name="otilde" unicode="&#xf5;" horiz-adv-x="512" 
d="M458 394q-30 0 -48 17q-38 31 -38 90q0 54 31 139q27 78 79 146q38 50 91 82.5t98 32.5q85 0 85 -96q0 -54 -27 -128q-45 -112 -94 -174q22 -4 38 -4q55 0 100.5 14.5t77.5 41t51.5 50.5t38.5 55q13 28 20 39q12 24 35 24q11 0 11 -9l-2 -8q-3 -11 -22 -46
q-46 -77 -123.5 -131.5t-180.5 -54.5q-27 0 -61 6q-51 -57 -112 -77q-24 -9 -48 -9zM488 440q42 0 92 53q-73 32 -95 128q-25 -77 -25 -128q0 -53 28 -53zM599 514q40 48 71 113q10 23 17 43q27 74 27 126q0 67 -41 67q-38 0 -87 -61.5t-83 -135.5q18 -118 96 -152zM529 909
q-15 0 -15 19q0 11 4 22q7 18 33 44q47 47 104 47q34 0 60 -17q51 -32 96 -32q17 0 35 5q29 9 50 46q12 21 18 25q10 6 12 6q11 0 15 -11l-4 -19q-8 -21 -28 -45t-41 -38q-31 -20 -94 -20q-36 0 -81 20q-43 19 -58 19q-54 0 -71 -32q-13 -22 -20 -29.5t-15 -9.5z" />
    <glyph glyph-name="odieresis" unicode="&#xf6;" horiz-adv-x="512" 
d="M458 394q-30 0 -48 17q-38 31 -38 90q0 54 31 139q27 78 79 146q38 50 91 82.5t98 32.5q85 0 85 -96q0 -54 -27 -128q-45 -112 -94 -174q22 -4 38 -4q55 0 100.5 14.5t77.5 41t51.5 50.5t38.5 55q13 28 20 39q12 24 35 24q11 0 11 -9l-2 -8q-3 -11 -22 -46
q-46 -77 -123.5 -131.5t-180.5 -54.5q-27 0 -61 6q-51 -57 -112 -77q-24 -9 -48 -9zM488 440q42 0 92 53q-73 32 -95 128q-25 -77 -25 -128q0 -53 28 -53zM599 514q40 48 71 113q10 23 17 43q27 74 27 126q0 67 -41 67q-38 0 -87 -61.5t-83 -135.5q18 -118 96 -152zM655 939
q-12 2 -16 7t-4 20q0 10 3 22q9 25 28 36q12 9 16 9t13 -9q8 -7 8 -25q0 -14 -5 -27q-12 -33 -43 -33zM775 947q-14 0 -22 11q-5 8 -5 14q0 5 5 20q11 26 22 34q8 7 21 7t22 -9q4 -4 4 -13q0 -8 -4 -20q-7 -20 -19 -32t-24 -12z" />
    <glyph glyph-name="divide" unicode="&#xf7;" horiz-adv-x="608" 
d="M1024 1016q-14 0 -19 10l-1 7q0 16 7 34q10 32 27 47q11 8 21 8q12 0 19 -13q9 -13 9 -30q0 -8 -3 -17q-9 -20 -24 -32q-20 -14 -36 -14zM740 819q-26 0 -31.5 1t-5.5 7v5q2 16 11.5 24t43.5 14.5t93 10t168 6.5q134 5 134 6q2 2 13 2q13 0 35 -4t26 -6l2 -11l-2 -8
q-4 -11 -9 -14q-4 -6 -99 -11q-100 -5 -254 -15q-110 -7 -125 -7zM844 525q-18 0 -18 26q1 4 1.5 10t1.5 8t4.5 7.5t10.5 12.5q4 7 30 32q14 9 19 9q3 0 8 -5q8 -8 8 -22q0 -12 -5 -25q-9 -26 -27 -38q-18 -15 -33 -15z" />
    <glyph glyph-name="oslash" unicode="&#xf8;" horiz-adv-x="512" 
d="M573 514q58 70 89 156q19 50 23 97l-159 -220q20 -20 47 -33zM339 306q-18 0 -18 8q0 7 4 15q12 39 52 90q-29 29 -29 84q0 56 30 137q59 161 170 230q54 31 98 31q42 0 64 -22q10 14 30 38q45 52 62 52q14 -5 14 -11q0 -11 -85 -126l2 -25q0 -52 -27 -130
q-54 -120 -96 -174q22 -4 52 -4q108 9 165 57q60 50 88 104q3 6 10.5 19.5t10.5 21.5q13 22 34 22q11 0 11 -9q0 -11 -7 -22q-30 -64 -85 -119q-97 -99 -235 -99q-42 0 -62 6q-77 -86 -159 -86l-17 1q-65 -89 -77 -89zM435 503l44 61q-16 40 -19 57q-22 -70 -25 -118z
M463 440q40 0 92 53q-24 11 -46 30l-58 -80q5 -3 12 -3zM498 591l83 110l101 137q-9 25 -35 25q-40 0 -89 -64q-53 -70 -81 -133q3 -33 21 -75z" />
    <glyph glyph-name="ugrave" unicode="&#xf9;" horiz-adv-x="849" 
d="M816 -11q-34 0 -57 13q-60 37 -60 118q0 73 52 234q41 125 136 331q30 59 42 90l15 28q-27 -32 -75.5 -93t-78 -96t-57.5 -66q-107 -113 -216 -113q-46 0 -71 30q-30 37 -30 91q0 52 35 154q24 66 64.5 137.5t79.5 116.5q42 49 81 49q16 0 20 -9q3 -5 3 -15q0 -11 -4 -23
q-7 -19 -40 -74q-34 -60 -71 -134q-35 -77 -50 -115q-24 -66 -24 -109q0 -24 8 -39q11 -18 32 -18q30 0 79 33q90 62 242 262q100 134 112 143q17 14 41 14q13 0 22.5 -6t9.5 -16l-10 -33q-27 -69 -87 -197q-46 -98 -108 -266q-50 -134 -62 -194q-14 -72 -14 -111
q0 -87 65 -87q32 0 78 33t89 96q23 33 137 230.5t137 245.5l41 75q12 24 34 24q13 0 13 -11l-3 -13q-57 -102 -178 -311t-153 -257q-37 -57 -73.5 -85t-77.5 -44q-36 -13 -68 -13zM884 1016q-35 0 -38 99l-2 32q0 48 11 83q6 20 22 29q5 3 12 3q15 0 18 -22v-73
q-3 -19 -3 -39l3 -36q8 -35 8 -43q0 -7 -1 -9q-7 -15 -12.5 -19.5t-17.5 -4.5z" />
    <glyph glyph-name="uacute" unicode="&#xfa;" horiz-adv-x="849" 
d="M816 -11q-34 0 -57 13q-60 37 -60 118q0 73 52 234q41 125 136 331q30 59 42 90l15 28q-27 -32 -75.5 -93t-78 -96t-57.5 -66q-107 -113 -216 -113q-46 0 -71 30q-30 37 -30 91q0 52 35 154q24 66 64.5 137.5t79.5 116.5q42 49 81 49q16 0 20 -9q3 -5 3 -15q0 -11 -4 -23
q-7 -19 -40 -74q-34 -60 -71 -134q-35 -77 -50 -115q-24 -66 -24 -109q0 -24 8 -39q11 -18 32 -18q30 0 79 33q90 62 242 262q100 134 112 143q17 14 41 14q13 0 22.5 -6t9.5 -16l-10 -33q-27 -69 -87 -197q-46 -98 -108 -266q-50 -134 -62 -194q-14 -72 -14 -111
q0 -87 65 -87q32 0 78 33t89 96q23 33 137 230.5t137 245.5l41 75q12 24 34 24q13 0 13 -11l-3 -13q-57 -102 -178 -311t-153 -257q-37 -57 -73.5 -85t-77.5 -44q-36 -13 -68 -13zM837 974q-16 0 -16 14q0 2 0.5 5t1 4.5t1 4t2.5 5t4.5 5.5t8 8.5t11.5 12t16 16.5
q23 23 56 76q12 18 31.5 44t20.5 28q20 22 36 22q4 0 9 -3q5 -5 5 -11q0 -5 -3 -17q-14 -37 -76 -115q-72 -99 -108 -99z" />
    <glyph glyph-name="ucircumflex" unicode="&#xfb;" horiz-adv-x="849" 
d="M816 -11q-34 0 -57 13q-60 37 -60 118q0 73 52 234q41 125 136 331q30 59 42 90l15 28q-27 -32 -75.5 -93t-78 -96t-57.5 -66q-107 -113 -216 -113q-46 0 -71 30q-30 37 -30 91q0 52 35 154q24 66 64.5 137.5t79.5 116.5q42 49 81 49q16 0 20 -9q3 -5 3 -15q0 -11 -4 -23
q-7 -19 -40 -74q-34 -60 -71 -134q-35 -77 -50 -115q-24 -66 -24 -109q0 -24 8 -39q11 -18 32 -18q30 0 79 33q90 62 242 262q100 134 112 143q17 14 41 14q13 0 22.5 -6t9.5 -16l-10 -33q-27 -69 -87 -197q-46 -98 -108 -266q-50 -134 -62 -194q-14 -72 -14 -111
q0 -87 65 -87q32 0 78 33t89 96q23 33 137 230.5t137 245.5l41 75q12 24 34 24q13 0 13 -11l-3 -13q-57 -102 -178 -311t-153 -257q-37 -57 -73.5 -85t-77.5 -44q-36 -13 -68 -13zM1063 1000q-10 6 -30 98q-37 164 -55 172q-22 0 -127 -133q-55 -67 -68 -78q-13 -10 -21 -10
q-9 0 -9 13q0 1 0.5 4.5t1 4.5t1.5 4t1.5 4t2.5 4.5t4.5 6.5t6 8.5t8 11t10.5 13.5q74 104 147 177q40 41 68 41q12 0 20 -7q16 -13 45 -124t29 -162q0 -15 -2 -18q-4 -11 -14.5 -20.5t-18.5 -9.5z" />
    <glyph glyph-name="udieresis" unicode="&#xfc;" horiz-adv-x="849" 
d="M816 -11q-34 0 -57 13q-60 37 -60 118q0 73 52 234q41 125 136 331q30 59 42 90l15 28q-27 -32 -75.5 -93t-78 -96t-57.5 -66q-107 -113 -216 -113q-46 0 -71 30q-30 37 -30 91q0 52 35 154q24 66 64.5 137.5t79.5 116.5q42 49 81 49q16 0 20 -9q3 -5 3 -15q0 -11 -4 -23
q-7 -19 -40 -74q-34 -60 -71 -134q-35 -77 -50 -115q-24 -66 -24 -109q0 -24 8 -39q11 -18 32 -18q30 0 79 33q90 62 242 262q100 134 112 143q17 14 41 14q13 0 22.5 -6t9.5 -16l-10 -33q-27 -69 -87 -197q-46 -98 -108 -266q-50 -134 -62 -194q-14 -72 -14 -111
q0 -87 65 -87q32 0 78 33t89 96q23 33 137 230.5t137 245.5l41 75q12 24 34 24q13 0 13 -11l-3 -13q-57 -102 -178 -311t-153 -257q-37 -57 -73.5 -85t-77.5 -44q-36 -13 -68 -13zM822 1002q-12 2 -16 7t-4 20q0 10 3 22q9 25 28 36q12 9 16 9t13 -9q8 -7 8 -25
q0 -14 -5 -27q-13 -33 -43 -33zM942 1010q-14 0 -22 11q-5 8 -5 14t5 21q10 24 22 33q8 7 21 7t22 -9q4 -4 4 -13q0 -8 -4 -20q-7 -20 -19 -32t-24 -12z" />
    <glyph glyph-name="yacute" unicode="&#xfd;" horiz-adv-x="745" 
d="M-301 -774q-21 0 -55 4q-45 5 -71.5 38t-26.5 89l2 30q9 59 22 92q29 79 120 192q74 91 180.5 183t313.5 250l41 31q22 78 50.5 176t43 149t27 98t15.5 67q-60 -69 -108 -109.5t-108 -68.5q-42 -23 -84 -23q-38 0 -70 21.5t-32 71.5q0 21 3 34q6 27 27 89q20 50 38 88
q64 118 123 159q23 16 37 16t22 -11.5t8 -28.5q0 -13 -4 -25q-1 -2 -10.5 -18t-21.5 -37t-22 -39q-55 -91 -76 -149q-18 -50 -18 -78q0 -43 39 -43q16 0 25 3q36 9 80 44t76 68.5t93 103.5q40 113 58 143q15 25 38 51q18 19 40 19q13 0 23 -7.5t10 -19.5l-2 -6
q-17 -45 -35.5 -74t-52.5 -71q-9 -38 -21 -61t-25 -65t-30 -137q-6 -36 -25 -118.5t-30 -135.5l118 95q57 50 83 74t75 73t86 98t68 103q4 8 12 23t12 22q12 24 36 24q11 0 11 -11l-1 -8q-5 -15 -27 -50q-67 -110 -132.5 -186t-174.5 -167l-175 -134q-23 -114 -31.5 -154.5
t-28.5 -114.5t-46 -145q-41 -112 -91 -200q-57 -96 -114.5 -162.5t-111 -101t-100 -49t-95.5 -14.5zM-314 -740q68 0 147.5 70.5t134.5 168.5q127 218 185 381q23 67 30 93q5 23 30 114q-96 -73 -232 -182q-154 -127 -277 -264q-78 -92 -106 -175q-20 -54 -20 -99
q0 -23 8 -49q23 -58 100 -58zM337 901q-16 0 -16 14q2 13 6.5 19.5t39.5 42.5q22 22 55 75q12 18 31.5 44.5t20.5 28.5q20 22 36 22q6 0 10 -3q5 -5 5 -11q0 -2 -4 -18q-15 -39 -75 -115q-72 -99 -109 -99z" />
    <glyph glyph-name="thorn" unicode="&#xfe;" horiz-adv-x="1006" 
d="M416 205q-10 2 -14.5 4.5t-7.5 10.5t-3 24q0 68 83 298l43 115q-19 33 -19 41v5q4 10 14.5 18t18.5 8h11q114 301 176 450.5t130 279.5q28 58 42 72q10 10 19 10q11 0 16 -10l1 -8q0 -7 -8 -30q-9 -29 -74 -178q-118 -269 -156 -373l-3 -11q4 0 38 36q74 77 184 163
t196 135q110 63 220 96q51 14 112 14q41 0 58 -6q48 -15 72.5 -49.5t24.5 -81.5q0 -36 -18 -88q-25 -68 -82 -138.5t-140 -130.5q-68 -50 -136 -81t-179 -64q-258 -75 -410 -84l-53 -3q-72 -195 -98.5 -274.5t-26.5 -111.5l2 -17l-2 -18q-10 -23 -31 -23zM595 703
q6 1 39 4.5t40.5 4.5t36 5t41.5 6.5t41 7.5t50.5 10t54 12.5t65.5 16.5q148 39 229.5 74t157.5 92q141 104 183 217q12 36 12 69v4q0 25 -16.5 50t-39.5 36q-35 14 -84 14q-30 -3 -79 -17q-135 -37 -307 -155t-310 -269q-75 -79 -99 -143z" />
    <glyph glyph-name="ydieresis" unicode="&#xff;" horiz-adv-x="745" 
d="M-301 -774q-21 0 -55 4q-45 5 -71.5 38t-26.5 89l2 30q9 59 22 92q29 79 120 192q74 91 180.5 183t313.5 250l41 31q22 78 50.5 176t43 149t27 98t15.5 67q-60 -69 -108 -109.5t-108 -68.5q-42 -23 -84 -23q-38 0 -70 21.5t-32 71.5q0 21 3 34q6 27 27 89q20 50 38 88
q64 118 123 159q23 16 37 16t22 -11.5t8 -28.5q0 -13 -4 -25q-1 -2 -10.5 -18t-21.5 -37t-22 -39q-55 -91 -76 -149q-18 -50 -18 -78q0 -43 39 -43q16 0 25 3q36 9 80 44t76 68.5t93 103.5q40 113 58 143q15 25 38 51q18 19 40 19q13 0 23 -7.5t10 -19.5l-2 -6
q-17 -45 -35.5 -74t-52.5 -71q-9 -38 -21 -61t-25 -65t-30 -137q-6 -36 -25 -118.5t-30 -135.5l118 95q57 50 83 74t75 73t86 98t68 103q4 8 12 23t12 22q12 24 36 24q11 0 11 -11l-1 -8q-5 -15 -27 -50q-67 -110 -132.5 -186t-174.5 -167l-175 -134q-23 -114 -31.5 -154.5
t-28.5 -114.5t-46 -145q-41 -112 -91 -200q-57 -96 -114.5 -162.5t-111 -101t-100 -49t-95.5 -14.5zM-314 -740q68 0 147.5 70.5t134.5 168.5q127 218 185 381q23 67 30 93q5 23 30 114q-96 -73 -232 -182q-154 -127 -277 -264q-78 -92 -106 -175q-20 -54 -20 -99
q0 -23 8 -49q23 -58 100 -58zM301 931q-12 2 -16.5 7t-4.5 20q0 6 4 22q9 25 28 36q13 10 16 10q2 0 12 -10q8 -8 8 -25q0 -14 -5 -27q-13 -33 -42 -33zM421 939q-14 0 -22 11q-5 8 -5 14t5 21q10 24 22 33q10 8 20 8q12 0 22 -10q5 -5 5 -12q0 -6 -5 -21
q-7 -21 -18.5 -32.5t-23.5 -11.5z" />
    <glyph glyph-name="Dcroat" unicode="&#x110;" horiz-adv-x="1402" 
d="M826 641q8 0 22 36q3 12 3 19q-1 3 -2.5 7t-2.5 7q-3 8 -6 12q-3 3 -5 3l-11 -57v-13q0 -14 2 -14zM608 -13q64 0 84 7q220 53 474 222q226 151 405 342q242 266 340 537q58 159 58 291q0 298 -257 350q-38 8 -80 8q-131 0 -290 -66q-63 -26 -115 -55q-22 -64 -96 -208
q-138 -270 -211 -451l128 -5q37 0 37 -22l-1 -12q-6 -18 -21 -27q-11 -6 -41 -6h-130l-33 -90q50 -33 50 -76q0 -13 -3 -25q-2 -9 -2 -20q0 -10 3 -13t8 -21l-1 -1q1 -2 1 -6q0 -2 2 -2q4 0 11 3q232 119 367 128q16 0 25 -3q7 -4 16 -15q8 -10 8 -17q0 -11 -13 -24
q-6 -6 -9 -6q-7 0 -19 11q-15 10 -32 10q-65 0 -227 -71q-307 -133 -475 -353q-95 -125 -95 -211q0 -72 63 -98q13 -5 71 -5zM690 959l131 5l5 10q118 303 222 501l20 42q-19 -12 -27 -19q-257 -212 -338 -435q-16 -36 -16 -67q0 -18 3 -37zM581 -69q-102 0 -138 61
q-18 31 -18 69q0 44 22 108q70 179 306 367q-36 19 -36 69q0 42 27 142q4 15 4 23l-23 15q-70 41 -90 102l-77 -2q-32 0 -44 4q-11 4 -11 18q0 5 3 13q7 22 30 30l17 2q6 1 15.5 1.5t26.5 1t30 1.5q0 44 27 122t103 184q140 190 332 331q42 30 50 47q13 24 32 35
q17 12 33 12l20 -1q6 0 40 14q198 104 387 112q95 0 177 -30q202 -86 202 -375q-3 -151 -60 -306q-129 -354 -511 -707q-378 -333 -737 -441q-85 -22 -139 -22zM774 848q7 14 18 42h-72l9 -9q36 -33 45 -33z" />
    <glyph glyph-name="dcroat" unicode="&#x111;" horiz-adv-x="1016" 
d="M848 722q4 0 17 20q122 172 219 340q205 346 315 675l-156 -4q-134 -266 -251 -590q-65 -177 -111 -333l-18 -50q-15 -41 -15 -58zM1279 1824q78 5 142 5q20 63 20 145q0 34 -1 38q-7 25 -11 25t-10 -6q-57 -52 -140 -207zM824 -74q-40 0 -63 16q-88 62 -88 244
q0 95 20 205l13 58q-1 1 -1.5 2t-1.5 1l-8 -8q-14 -14 -25 -27l-15 -15q-89 -94 -168 -134q-84 -43 -107 -43q-84 0 -84 140q0 78 41 183q91 256 263 419q67 63 128 63q55 0 55 -67q0 -15 -5 -48q-17 -86 -69 -184q-9 -14 -24 -14q-14 0 -14 8l2 6q15 28 26 63q32 88 32 140
q0 33 -19 33q-27 0 -91 -94q-78 -116 -161 -325q-55 -154 -55 -223q0 -34 24 -34q34 0 103 54q51 38 86 76q56 58 105 124q6 6 14 36l24 87q13 45 25 91q179 621 386 993l-72 -2q-49 0 -49 7q-5 8 -5 17q0 14 16 30q9 9 34 12l115 5q164 277 234 277q47 0 47 -102
q0 -21 -5 -43q-4 -55 -25 -124q7 0 54.5 -2t73.5 -4q37 0 37 -22l-1 -13q-12 -33 -62 -33l-126 2l-33 -92q-43 -120 -79 -201q-47 -103 -105 -213q-84 -163 -186 -322q-111 -172 -228 -341l-26 -96q-47 -181 -47 -305q0 -78 22 -133q30 -71 96 -71q53 0 109 52
q85 78 210 264q183 272 258 407q12 19 25 19q8 0 13 -5q4 -7 4 -10q0 -14 -129 -222q-233 -372 -362 -482q-86 -80 -156 -80z" />
    <glyph glyph-name="idotless" unicode="&#x131;" horiz-adv-x="351" 
d="M651 1030q-26 0 -26 21q0 10 7 28q18 45 42 57q13 5 19 5q9 0 17 -11q7 -11 7 -26q0 -13 -3 -19q-7 -22 -32 -44q-16 -11 -31 -11zM474 356q-28 0 -45 17q-38 38 -38 107q0 58 20 130q57 168 125 258q40 54 82 54q13 0 18 -8t5 -16q0 -13 -8 -35q-9 -25 -28 -61
q-1 -1 -61 -134q-37 -94 -51 -140.5t-14 -86.5q0 -26 6 -39q8 -18 32 -18q41 0 99 45q45 34 75.5 74t72.5 119l41 77q12 24 36 24q11 0 11 -11l-1 -8q-4 -11 -11 -23.5t-18.5 -29.5t-18.5 -29q-135 -229 -294 -261q-23 -5 -35 -5z" />
    <glyph glyph-name="Lslash" unicode="&#x141;" horiz-adv-x="926" 
d="M243 123q8 0 26 8q12 6 29 16q11 7 11 9t-7 2q-22 0 -44 -10q-20 -11 -20 -19q0 -3 5 -6zM896 -16q-67 0 -145 5q-64 4 -141 27q-74 21 -141 69q-11 7 -15 13q-2 2 -4 3.5t-3 2.5t-2 1.5t-1 1.5q-1 1 -2 1.5t-2 1.5t-4 2.5t-4 2.5l-40 20q-105 -77 -160 -77q-28 0 -41 24
q-8 14 -8 28q0 11 4 22l2 8q50 74 131 74l49 -3q3 2 23 28q7 9 22 28t21 26q106 136 235 392l77 153q-69 0 -140 -3q-36 0 -45 3q-9 4 -9 19q0 5 3 13q7 22 30 30l17 1q19 2 178 10l76 163q130 283 181 371q71 123 142 203q53 69 120 118q66 46 113 46q73 0 85 -51
q3 -11 3 -36q0 -75 -56 -159q-8 -10 -22 -10q-10 0 -10 8l3 10q41 80 44 149q0 43 -34 43q-35 0 -104 -82q-73 -87 -128 -172q-82 -127 -209 -409l-89 -189q98 0 200 -5q38 0 38 -22l-1 -13q-6 -17 -21 -26q-11 -7 -41 -7h-209q-206 -423 -366 -600q-44 -51 -44 -60
q11 -5 22 -14q10 -12 29 -27q94 -73 181 -102q96 -32 214 -32q90 0 187 27q91 25 152 55q59 29 66 40q7 9 17 9q16 0 16 -16q0 -9 -11 -20q-23 -19 -109 -52q-174 -65 -320 -65z" />
    <glyph glyph-name="lslash" unicode="&#x142;" horiz-adv-x="649" 
d="M414 835q97 32 172 83q140 95 271 249q99 112 175 252q67 119 93 251q16 76 16 135q0 134 -68 134q-58 0 -125 -67q-75 -74 -173 -216q-112 -164 -261 -541q-10 -29 -19 -44q-44 -114 -81 -236zM391 58q-68 0 -101 41q-55 83 -55 238q0 166 42 355q-46 0 -140 -4
q-49 0 -49 8q-6 10 -6 14q0 5 3 13q7 22 32 30l17 2q16 2 161 7q35 159 82 292q203 551 400 756q170 173 296 173q64 0 94 -58q22 -44 22 -104q0 -100 -52 -250q-53 -151 -171 -315q-115 -171 -289 -306q-114 -98 -272 -162l-8 -21q128 0 230 -5q39 0 39 -23q0 -4 -3 -11
q-7 -19 -20 -27q-10 -6 -265 -6l-3 -2l-3 -9q-39 -134 -51 -328l-1 -42q0 -123 47 -199q21 -25 54 -25q23 0 47 9q71 29 145 98q92 90 149 173q87 128 158 274q6 14 28 55q14 24 35 24q13 0 13 -9l-2 -11q-91 -167 -153 -265q-170 -261 -367 -361q-44 -19 -83 -19z" />
    <glyph glyph-name="OE" unicode="&#x152;" horiz-adv-x="2306" 
d="M789 868l2 2l25 42q102 181 291 400q196 225 388 361q66 49 66 50l-61 -22q-194 -71 -388 -237q-234 -201 -304 -394q-28 -80 -28 -145q0 -57 9 -57zM2116 1059q47 129 47 256l-2 48q-70 -73 -99 -150q-8 -23 -8 -47q0 -15 2 -21q16 -54 60 -86zM2141 969l30 11l-22 11z
M1782 -16q-138 0 -235 66q-73 49 -98 122q-290 -188 -508 -188q-98 0 -172 41q-139 85 -139 304v21q0 155 120 441q-25 88 -25 151q0 59 26 126q123 291 435 522q308 222 569 222q364 0 447 -320q71 67 172 135q222 147 441 172q28 3 59 3q60 0 88 -11q28 -15 41 -38
q14 -22 14 -45q0 -24 -22 -59q-18 -34 -40 -34q-14 0 -14 25q-5 31 -33 43q-12 3 -57 3q-53 0 -116 -15q-285 -59 -518 -256q4 -27 4 -77q0 -143 -55 -305q62 -23 166 -23q61 0 154 8q20 0 20 -8v-3q-12 -29 -53 -38l-143 -35q-111 -30 -224 -82q-117 -217 -328 -433
q-118 -116 -257 -213q8 -32 32 -66q80 -113 253 -113q110 0 221 36t263 109q113 58 236 135q126 81 193 133q13 12 25 12q9 0 9 -9q0 -31 -261 -194q-422 -265 -690 -265zM977 69q116 0 266 62q103 42 194 101v20q0 155 127 315q197 244 508 375l30 74q-47 25 -74 55
q-23 35 -23 82q0 44 18 90q53 112 129 197q-45 216 -252 290q-24 8 -87 17q0 -7 -1 -8q0 -1 -1 -3.5t-1 -5.5q0 -34 -57 -46q-61 -13 -145 -72q-267 -189 -538 -520q-55 -66 -128 -177q-102 -153 -102 -178q0 -18 33 -63q127 -179 296 -179q39 0 79 9q40 8 50 8q13 0 13 -8
q0 -53 -164 -53q-199 0 -342 222q-3 -10 -8 -14q-6 -19 -13 -39t-14.5 -42.5t-10.5 -32.5q-33 -119 -33 -211q0 -61 14 -112q54 -153 237 -153zM1493 268q323 223 514 546q-257 -130 -399 -299q-112 -133 -115 -247z" />
    <glyph glyph-name="oe" unicode="&#x153;" horiz-adv-x="753" 
d="M827 723q16 4 43 17q67 32 110 86q35 43 39 74q0 6 -1 7q-21 0 -76 -48q-56 -47 -115 -136zM599 514q40 48 71 113q42 91 42 175q0 61 -39 61q-41 0 -90 -64q-51 -67 -80 -133q9 -112 96 -152zM488 440q40 0 92 53q-75 36 -95 128q-25 -76 -25 -131q0 -50 28 -50z
M774 296q-57 0 -97 32q-37 30 -45 60q-5 23 -5 45q0 36 6 62q-61 -72 -127 -92q-26 -9 -48 -9q-26 0 -48 17q-38 33 -38 85q0 54 31 144q57 162 170 230q54 31 98 31q87 0 87 -91l-2 -19l2 3q58 85 129 131q69 45 120 45q19 0 36 -9q24 -13 24 -32q0 -50 -52 -108
q-87 -96 -215 -140q-14 -19 -34 -65q-60 -131 -60 -197v-27q3 -23 23 -42q21 -21 62 -21q48 0 105 25q46 19 117 84q97 87 186 263q17 24 36 24q7 0 10 -3t3 -5q-4 -23 -30 -65q-64 -99 -126 -170q-67 -76 -180 -146q-70 -40 -138 -40z" />
    <glyph glyph-name="Scaron" unicode="&#x160;" horiz-adv-x="1520" 
d="M818 -17q-106 0 -169 31t-63 96q0 25 8 46q21 59 86 118.5t161 109.5q132 68 289 68q66 0 129 -30.5t63 -73.5l-3 -14q-13 -32 -33 -32q-13 0 -13 15q0 11 3 17q2 5 2 13q0 28 -42.5 47t-120.5 19q-100 0 -177 -23.5t-163 -83.5q-96 -66 -126 -136q-9 -26 -9 -42
q0 -49 49.5 -80.5t128.5 -31.5q215 10 462 137.5t380 273.5q58 65 74 113q13 45 13 65q0 74 -70 131.5t-202 90.5q-70 18 -150 29t-257 25q-186 16 -205 19q-77 12 -108.5 31.5t-37.5 59.5l-3 20q0 13 12 49q36 94 167 218q193 182 476.5 333.5t508.5 192.5q40 8 98 8
q72 0 99 -13q51 -22 58 -65l2 -17q0 -17 -8 -39q-28 -82 -174 -185q-52 -37 -69 -37q-9 0 -12 3q-4 3 -4 9t2 11q5 12 19 25q86 76 120 111q22 23 34 45l2 10q0 23 -69 27q-229 0 -605 -199q-181 -97 -340.5 -219.5t-211.5 -204.5q-15 -28 -16 -30q-3 -9 -3 -17
q0 -21 27 -36q52 -30 292 -52q34 -3 95 -9l60 -7q283 -30 411 -108.5t128 -181.5v-6q0 -31 -17 -80q-17 -50 -50 -95q-144 -202 -494 -354q-245 -107 -434 -115zM1342 1805q-6 0 -20 7q-16 13 -46 126.5t-30 163.5l2 14q5 11 15.5 20.5t18.5 9.5q6 -3 30 -98
q37 -164 55 -172q16 0 128 133q55 67 68 78q11 11 19 11q11 0 11 -14q-2 -12 -6 -18.5t-31 -42.5q-77 -108 -146 -177q-43 -41 -68 -41z" />
    <glyph glyph-name="scaron" unicode="&#x161;" horiz-adv-x="343" 
d="M-58 -17q-53 0 -65 55l-3 20q0 26 14 68q16 38 30 63q70 120 219 228q3 15 8.5 38.5t7.5 32t5 27t5.5 35t5 42.5t6.5 62q12 119 47 216q27 67 46 94t57 51q21 12 50 12q19 0 24 -3q23 -16 23 -25v-3q0 -4 -6 -10q-10 -8 -17 -8q-5 0 -21 8l-6 2q-21 0 -47 -51
q-18 -39 -27 -83.5t-16.5 -121t-15.5 -127.5q-1 -6 -8.5 -58t-10.5 -70q130 66 195.5 110t85.5 86q23 39 34 46q8 4 18 4q11 0 11 -11l-2 -8l-17 -34q-18 -28 -47.5 -54.5t-72 -53.5t-81.5 -49t-98 -54q-20 -11 -30 -16q-15 -123 -49 -216q-42 -111 -100 -169.5t-116 -70.5
q-19 -4 -36 -4zM-58 13q81 0 137 151q16 45 52 217q-126 -91 -186 -200q-17 -30 -24 -50q-14 -39 -14 -70q0 -48 35 -48zM354 1082q-6 0 -20 7q-16 13 -46 126t-30 163l2 15q5 11 16 20.5t19 9.5q6 -3 30 -98q37 -164 55 -172q10 0 37.5 29.5t89.5 103.5q55 67 68 78
q11 11 19 11q11 0 11 -14q-2 -13 -6.5 -20t-29.5 -41q-74 -104 -147 -177q-43 -41 -68 -41z" />
    <glyph glyph-name="Ydieresis" unicode="&#x178;" horiz-adv-x="1362" 
d="M1000 -39q-20 0 -31 4q-42 12 -57 54q-5 13 -5 30q0 31 15 71q88 193 319 309q73 36 189.5 62.5t201.5 26.5h30q131 191 232 396q26 51 62.5 132t44.5 106l1 6q-5 0 -44 -44q-239 -257 -502 -422q-205 -127 -360 -145q-28 -3 -53 -3q-46 0 -85 14q-151 57 -151 269l1 33
q3 62 25 161q17 71 46 156q12 35 66 156q76 161 175 306.5t145 165.5q13 7 25 7q21 0 29 -22q4 -8 4 -19q0 -12 -4 -24q-12 -29 -59 -101q-217 -341 -304 -584q-19 -53 -33 -109q-14 -59 -14 -132q0 -28 3 -49q10 -73 58.5 -111.5t127.5 -38.5q76 0 176 38q152 60 342.5 206
t352.5 327q73 81 91.5 113t66.5 154q88 229 127 282q29 43 54 43q18 0 27 -25q1 -2 1 -14q0 -10 -9 -63q-8 -32 -17 -57q-5 -18 -27 -60q-56 -104 -123 -202q-24 -34 -35 -56.5t-34 -80.5q-166 -399 -338 -660q-28 -40 -34 -55q79 -35 83 -63q-5 -30 -20 -30q-7 0 -19 14
q-11 17 -33 25q-26 11 -32 11q-9 0 -17.5 -9t-32.5 -39q-131 -166 -273.5 -283.5t-259.5 -156.5q-58 -20 -115 -20zM1026 16q48 0 115 27q98 39 225.5 148.5t230.5 243.5l34 42q-10 -1 -42.5 -5t-39.5 -4.5t-32 -4t-32.5 -5t-28 -4.5t-31.5 -6t-29.5 -7.5t-35.5 -10
t-37 -11.5q-110 -37 -213 -124t-141 -172q-2 -8 -5.5 -19t-5.5 -19t-2 -16q0 -53 70 -53zM2210 1528q5 0 33 63q5 13 9 21t5.5 10.5t4 10t7.5 23.5l-2 4q-3 0 -21 -42q-21 -46 -33 -76zM1667 1697q-13 2 -17 7t-4 19q0 11 3 23q9 24 29 36q12 9 16 9q3 0 12 -9q8 -8 8 -25
q0 -14 -5 -27q-13 -33 -42 -33zM1786 1705q-14 0 -22 11q-4 7 -4 14q0 8 4 20q10 24 22 33q10 8 21 8q13 0 22 -9q5 -5 5 -13q0 -5 -5 -20q-7 -20 -19 -32t-24 -12z" />
    <glyph glyph-name="Zcaron" unicode="&#x17d;" horiz-adv-x="1274" 
d="M1597 -50q-8 0 -20 12q-18 22 -80 41q-164 46 -585 46q-170 0 -258 -4.5t-238 -20.5q-132 -13 -173 -13q-52 0 -68.5 6t-24.5 30q-2 5 -2 14q0 15 3 21q19 51 129 148q108 95 360.5 286.5t518.5 381.5q297 210 420.5 301.5t194.5 156.5q129 114 156 193q8 21 8 42
q-4 31 -36.5 60t-81.5 44q-45 13 -80.5 17.5t-107.5 4.5h-55q-139 0 -216 -11q-286 -42 -502 -156q-49 -26 -90 -56.5t-47 -45.5q0 -24 72 -38q44 -11 44 -25l-3 -11q-6 -18 -20 -22.5t-62 -4.5q-42 0 -53 2t-26 12q-28 21 -28 52q0 21 9 46q8 22 15 32.5t25 31.5
q88 97 305.5 179t455.5 107q38 3 115 3q164 0 217 -10q42 -8 88.5 -25.5t70.5 -34.5q66 -48 66 -129q0 -44 -15 -82q-13 -34 -37 -72q-19 -30 -43 -56.5t-44.5 -43t-64 -52t-76.5 -64.5q-20 -17 -57 -44.5t-94 -68t-110.5 -77.5t-140.5 -97t-149 -104q-675 -472 -933 -721
q-33 -31 -38 -43v-3q0 -6 11 -9q5 -2 22 -2q49 0 229 21q142 15 341 15q338 -3 350 -6q3 -1 63 -5q335 -20 386 -97q10 -13 10 -22l-2 -8q-11 -19 -17 -21q-3 -1 -7 -1zM1380 1881q-8 0 -20 6q-18 12 -47 125.5t-29 164.5l2 14q5 11 15.5 20.5t18.5 9.5q7 -4 30 -97
q37 -164 55 -172q17 0 128 132q58 71 68 79q11 11 18 11q12 0 12 -14q-2 -12 -6.5 -19.5t-30.5 -42.5q-74 -104 -146 -176q-43 -41 -68 -41z" />
    <glyph glyph-name="zcaron" unicode="&#x17e;" horiz-adv-x="598" 
d="M-707 -770q-55 5 -78 15.5t-44 48.5q-22 42 -22 90q0 47 21 104q33 92 88.5 164t188.5 184q16 13 298 224q37 27 91 65t93 66.5t76 57.5l-2 3l2 2q-4 30 -18 55.5t-28 32.5q-6 6 -28 6q-29 3 -29 17l2 7q1 2 121 149q7 9 21 24q94 111 105 133l2 6l1 9q0 13 -25 25
q-15 7 -69 7q-40 0 -83.5 -1.5t-63.5 -1.5l-23 1l-33 -64q-14 -24 -37 -24q-11 0 -11 11l2 8l41 79q-16 9 -25 25q-11 24 -11 45t11 56q18 54 66 82q21 12 44 12q38 0 43 -33v-11q0 -19 -7 -39l-17 -37q25 -7 113 -20q73 -10 101 -25q44 -28 44 -59q0 -14 -8 -36
q-8 -25 -26 -47.5t-109 -124.5l-103 -118q0 -3 15 -9q21 -11 41.5 -38.5t33.5 -62.5l24 21q153 124 216 192t118 164q15 28 16 29q12 24 36 24q11 0 11 -11l-2 -8q-3 -9 -20 -39q-57 -91 -151 -190.5t-199 -178.5l-39 -33q3 -12 8 -55v-16q0 -141 -46 -266
q-49 -134 -169 -306q-121 -176 -284.5 -283t-283.5 -107zM-696 -718q31 0 50 6q74 19 173.5 93t179.5 170q93 109 146 203.5t100 225.5q30 80 41.5 128t11.5 98v10l-258 -191q-282 -211 -380 -301q-115 -109 -154 -222q-22 -61 -22 -105q0 -68 47 -100q19 -15 65 -15z
M90 892q-9 0 -21 6q-16 13 -45.5 126.5t-29.5 163.5l1 14q5 11 16 20.5t19 9.5q6 -3 30 -98q37 -163 55 -171q17 0 128 132q60 73 67 79q11 11 19 11q11 0 11 -14q-2 -8 -2 -10t-4 -9t-10 -16t-20 -27q-74 -104 -146 -176q-43 -41 -68 -41z" />
    <glyph glyph-name="apostrophemod" unicode="&#x2bc;" 
d="M947 1106q-11 0 -14 13l15 20q24 29 41 65q-25 0 -25 26q0 31 30 52q18 13 32 13q4 0 12 -3q27 0 27 -22l-2 -10q-21 -65 -53 -108q-37 -46 -63 -46z" />
    <glyph glyph-name="gravecomb" unicode="&#x300;" horiz-adv-x="222" 
d="M1057 1085q-35 0 -38 100l-1 31q0 49 11 84q6 19 22 28q5 3 11 3q16 0 19 -22v-72q-2 -13 -2 -40l2 -36q8 -35 8 -42t-2 -10q-7 -15 -12.5 -19.5t-17.5 -4.5z" />
    <glyph glyph-name="acutecomb" unicode="&#x301;" horiz-adv-x="222" 
d="M911 1085q-16 0 -16 15q2 13 6.5 19t39.5 42q20 20 55 76q12 18 31.5 44t20.5 28q20 22 36 22q4 0 9 -3q5 -5 5 -11q0 -5 -3 -17q-14 -37 -76 -115q-72 -100 -108 -100z" />
    <glyph glyph-name="circumflexcomb" unicode="&#x302;" horiz-adv-x="452" 
d="M1218 1049q-10 6 -30 98q-37 164 -55 172q-23 0 -128 -133q-58 -71 -68 -79q-12 -9 -20 -9q-10 0 -10 13q2 8 2 10t4 9t10.5 15.5t20.5 26.5q77 108 146 177q39 40 68 40q13 0 20 -6q16 -13 45 -124.5t29 -162.5q0 -16 -1 -17q-4 -11 -14.5 -20.5t-18.5 -9.5z" />
    <glyph glyph-name="tildecomb" unicode="&#x303;" horiz-adv-x="478" 
d="M948 1125q-15 0 -15 19q0 11 4 22q7 18 33 44q47 47 104 47q34 0 60 -17q51 -32 96 -32q17 0 35 5q29 9 50 46q12 21 18 25q10 6 12 6q11 0 15 -11l-4 -19q-8 -21 -28 -45t-41 -38q-33 -21 -94 -21q-34 0 -81 21q-43 19 -58 19q-54 0 -71 -32q-13 -22 -20 -29.5t-15 -9.5
z" />
    <glyph glyph-name="macroncomb" unicode="&#x304;" horiz-adv-x="538" 
d="M1142 1271q-73 0 -88 11q-8 8 -8 19l2 11q5 11 14 18q11 8 31 8q230 2 303 4q83 0 91 -11q5 -8 5 -16l-2 -9q-4 -11 -14 -19q-9 -9 -19 -9q-38 4 -58 4q-49 0 -191 -9q-24 -2 -66 -2z" />
    <glyph glyph-name="overlinecomb" unicode="&#x305;" horiz-adv-x="538" 
d="M1142 1271q-73 0 -88 11q-8 8 -8 19l2 11q5 11 14 18q11 8 31 8q230 2 303 4q83 0 91 -11q5 -8 5 -16l-2 -9q-4 -11 -14 -19q-9 -9 -19 -9q-38 4 -58 4q-49 0 -191 -9q-24 -2 -66 -2z" />
    <glyph glyph-name="brevecomb" unicode="&#x306;" horiz-adv-x="308" 
d="M1005 1068q-55 0 -60 76q4 79 46 82q22 0 22 -13l-2 -11q-7 -17 -12 -46q3 -34 27 -34q27 0 56 20q41 25 41 57q0 20 22 20q26 0 26 -17q0 -3 -4 -13q-18 -43 -60 -77q-46 -37 -102 -44z" />
    <glyph glyph-name="dotaccentcomb" unicode="&#x307;" horiz-adv-x="159" 
d="M1032 1221q-12 2 -16.5 7t-4.5 20q0 6 4 22q9 25 28 36q12 9 16 9q3 0 12 -9q8 -8 8 -25q0 -14 -5 -27q-14 -33 -42 -33z" />
    <glyph glyph-name="dieresiscomb" unicode="&#x308;" horiz-adv-x="272" 
d="M1032 1221q-12 2 -16.5 7t-4.5 20q0 6 4 22q9 25 28 36q12 9 16 9q3 0 12 -9q8 -8 8 -25q0 -14 -5 -27q-14 -33 -42 -33zM1152 1229q-14 0 -22 11q-5 8 -5 14q0 5 5 20q11 26 22 34q8 7 20 7q13 0 22 -9q5 -5 5 -13q0 -5 -5 -20q-7 -21 -18.5 -32.5t-23.5 -11.5z" />
    <glyph glyph-name="ringcomb" unicode="&#x30a;" horiz-adv-x="308" 
d="M1005 1068q-27 0 -42.5 20.5t-17.5 55.5q0 29 14 63q17 47 47.5 90.5t61.5 63.5q18 13 28 13t19.5 -10.5t9.5 -21.5l-5 -16q0 -4 10 -7q17 -4 29.5 -34.5t12.5 -63.5q0 -17 -5 -32q-15 -41 -60 -76.5t-91 -42.5zM1026 1122q27 0 56.5 19t37.5 42q3 9 3 24q0 27 -8 45
q-7 21 -28 21h-6q-16 0 -16 3q-3 5 -5 5q-4 0 -23 -24q-17 -31 -29 -60q-9 -29 -9 -41q0 -15 7.5 -24.5t19.5 -9.5z" />
    <glyph glyph-name="doubleacutecomb" unicode="&#x30b;" horiz-adv-x="329" 
d="M911 1085q-16 0 -16 15q2 13 6.5 19t39.5 42q20 20 55 76q12 18 31.5 44t20.5 28q20 22 36 22q4 0 9 -3q5 -5 5 -11q0 -5 -3 -17q-14 -37 -76 -115q-72 -100 -108 -100zM1018 1085q-16 0 -16 15q2 13 6.5 19t39.5 42q20 20 55 76q12 18 31.5 44t20.5 28q20 22 36 22
q5 0 9 -3q5 -5 5 -11q0 -5 -3 -17q-14 -37 -76 -115q-72 -100 -108 -100z" />
    <glyph glyph-name="caroncomb" unicode="&#x30c;" horiz-adv-x="452" 
d="M1177 1049q-7 0 -21 7q-18 12 -46.5 125t-28.5 164l1 15q5 11 16 20t19 9q7 -4 30 -97q37 -164 55 -172q17 0 128 132q60 73 67 79q11 11 19 11q11 0 11 -14q-2 -13 -6.5 -20t-29.5 -41q-77 -108 -146 -177q-43 -41 -68 -41z" />
    <glyph glyph-name="doublegravecomb" unicode="&#x30f;" horiz-adv-x="329" 
d="M1164 1085q-35 0 -38 100l-1 31q0 49 11 84q6 19 22 28q4 3 11 3q16 0 19 -22v-72q-2 -13 -2 -40l2 -36q8 -35 8 -42t-2 -10q-7 -15 -12.5 -19.5t-17.5 -4.5zM1057 1085q-35 0 -38 100l-1 31q0 49 11 84q6 19 22 28q5 3 11 3q16 0 19 -22v-72q-2 -13 -2 -40l2 -36
q8 -35 8 -42t-2 -10q-7 -15 -12.5 -19.5t-17.5 -4.5z" />
    <glyph glyph-name="turnedcommacomb" unicode="&#x312;" 
d="M966 1106q-6 0 -14 3q-26 0 -26 22l2 10q21 65 53 108q37 46 62 46q14 0 14 -13q0 -3 -16 -22q-22 -26 -39 -63q10 0 13 -4q12 -7 12 -22q0 -32 -28 -51q-20 -14 -33 -14z" />
    <glyph glyph-name="commacomb" unicode="&#x313;" 
d="M947 1106q-11 0 -14 13l15 20q24 29 41 65q-25 0 -25 26q0 31 30 52q18 13 32 13q4 0 12 -3q27 0 27 -22l-2 -10q-21 -65 -53 -108q-37 -46 -63 -46z" />
    <glyph glyph-name="reversedcommacomb" unicode="&#x314;" horiz-adv-x="190" 
d="M959 1104q-23 0 -23 30q0 24 16 68q33 90 75 90l16 1q27 0 27 -31l-3 -14q-17 -46 -63 -46q-2 -4 -8 -20q-6 -12 -15 -65q-5 -13 -22 -13z" />
    <glyph glyph-name="commaaboverightcomb" unicode="&#x315;" 
d="M947 1106q-11 0 -14 13l15 20q24 29 41 65q-25 0 -25 26q0 31 30 52q18 13 32 13q4 0 12 -3q27 0 27 -22l-2 -10q-21 -65 -53 -108q-37 -46 -63 -46z" />
    <glyph glyph-name="horncomb" unicode="&#x31b;" 
d="M947 1106q-11 0 -14 13l15 20q24 29 41 65q-25 0 -25 26q0 31 30 52q18 13 32 13q4 0 12 -3q27 0 27 -22l-2 -10q-21 -65 -53 -108q-37 -46 -63 -46z" />
    <glyph glyph-name="commaaccentcomb" unicode="&#x326;" 
d="M301 217q-11 0 -14 11l14 19q25 27 38 55q-9 0 -13 4q-14 9 -14 22q0 21 27 42q15 11 31 11q6 0 13 -3q27 0 27 -20v-7q-12 -51 -48 -91q-37 -43 -61 -43z" />
    <glyph glyph-name="cedillacomb" unicode="&#x327;" horiz-adv-x="300" 
d="M-2 -329q-23 0 -23 22q0 13 1 16q4 6 7 9q8 9 14 9q7 0 11 -7q5 -5 8 -5q6 0 19 6q21 10 51 34t34 34l1 9q0 17 -19.5 27t-51.5 10l-36 -2q-15 0 -22 8q-6 12 -6 19t5 20q16 35 22 46q47 88 58 96q8 5 14 5q13 0 16 -14q0 -13 -8 -30q-8 -28 -32 -68l-7 -14
q37 -7 50.5 -10.5t28.5 -12.5t25 -25q11 -18 11 -36q0 -12 -5 -27q-12 -36 -73 -78q-62 -41 -93 -41z" />
    <glyph glyph-name="ogonekcomb" unicode="&#x328;" horiz-adv-x="286" 
d="M131 -176q-28 0 -48 6q-61 13 -61 57q0 70 128 151q28 19 47 19q15 0 28 -10q0 -30 -17 -42q-12 -7 -57 -27q-80 -36 -80 -76q0 -10 12 -17q31 -17 56 -17t28 4q1 1 2.5 3.5t3.5 3.5q8 14 18 14q12 0 12 -17q0 -6 -3 -13q-13 -39 -69 -39z" />
    <glyph glyph-name="gravetonemarkcomb" unicode="&#x340;" horiz-adv-x="222" 
d="M1057 1085q-35 0 -38 100l-1 31q0 49 11 84q6 19 22 28q5 3 11 3q16 0 19 -22v-72q-2 -13 -2 -40l2 -36q8 -35 8 -42t-2 -10q-7 -15 -12.5 -19.5t-17.5 -4.5z" />
    <glyph glyph-name="acutetonemarkcomb" unicode="&#x341;" horiz-adv-x="222" 
d="M911 1085q-16 0 -16 15q2 13 6.5 19t39.5 42q20 20 55 76q12 18 31.5 44t20.5 28q20 22 36 22q4 0 9 -3q5 -5 5 -11q0 -5 -3 -17q-14 -37 -76 -115q-72 -100 -108 -100z" />
    <glyph glyph-name="greekperispomenicomb" unicode="&#x342;" horiz-adv-x="478" 
d="M948 1125q-15 0 -15 19q0 11 4 22q7 18 33 44q47 47 104 47q34 0 60 -17q51 -32 96 -32q17 0 35 5q29 9 50 46q12 21 18 25q10 6 12 6q11 0 15 -11l-4 -19q-8 -21 -28 -45t-41 -38q-33 -21 -94 -21q-34 0 -81 21q-43 19 -58 19q-54 0 -71 -32q-13 -22 -20 -29.5t-15 -9.5
z" />
    <glyph glyph-name="greekkoroniscomb" unicode="&#x343;" 
d="M947 1106q-11 0 -14 13l15 20q24 29 41 65q-25 0 -25 26q0 31 30 52q18 13 32 13q4 0 12 -3q27 0 27 -22l-2 -10q-21 -65 -53 -108q-37 -46 -63 -46z" />
    <glyph glyph-name="endash" unicode="&#x2013;" horiz-adv-x="664" 
d="M799 923q-8 21 -8 27l1 11q10 27 49 36q43 8 199 16q17 2 77 2q176 0 198 -8q21 -6 33.5 -18t12.5 -25l-1 -11q-11 -27 -30 -27q-8 0 -22 8q-19 11 -86 13q-217 0 -356 -16z" />
    <glyph glyph-name="emdash" unicode="&#x2014;" horiz-adv-x="664" 
d="M799 923q-8 21 -8 27l1 11q10 27 49 36q43 8 199 16q17 2 77 2q176 0 198 -8q21 -6 33.5 -18t12.5 -25l-1 -11q-11 -27 -30 -27q-8 0 -22 8q-19 11 -86 13q-217 0 -356 -16z" />
    <glyph glyph-name="quoteleft" unicode="&#x2018;" 
d="M966 1106q-6 0 -14 3q-26 0 -26 22l2 10q21 65 53 108q37 46 62 46q14 0 14 -13q0 -3 -16 -22q-22 -26 -39 -63q10 0 13 -4q12 -7 12 -22q0 -32 -28 -51q-20 -14 -33 -14z" />
    <glyph glyph-name="quoteright" unicode="&#x2019;" 
d="M947 1106q-11 0 -14 13l15 20q24 29 41 65q-25 0 -25 26q0 31 30 52q18 13 32 13q4 0 12 -3q27 0 27 -22l-2 -10q-21 -65 -53 -108q-37 -46 -63 -46z" />
    <glyph glyph-name="quotesinglbase" unicode="&#x201a;" 
d="M301 217q-11 0 -14 11l14 19q25 27 38 55q-9 0 -13 4q-14 9 -14 22q0 21 27 42q15 11 31 11q6 0 13 -3q27 0 27 -20v-7q-12 -51 -48 -91q-37 -43 -61 -43z" />
    <glyph glyph-name="quotedblleft" unicode="&#x201c;" horiz-adv-x="299" 
d="M966 1106q-6 0 -14 3q-26 0 -26 22l2 10q21 65 53 108q37 46 62 46q14 0 14 -13q0 -3 -16 -22q-22 -26 -39 -63q10 0 13 -4q12 -7 12 -22q0 -32 -28 -51q-20 -14 -33 -14zM1078 1106q-8 0 -15 3q-25 0 -25 22l2 10q21 65 53 108q37 46 62 46q14 0 14 -13q0 -3 -16 -22
q-22 -26 -39 -63q9 0 12 -4q13 -8 13 -22q0 -32 -28 -51q-20 -14 -33 -14z" />
    <glyph glyph-name="quotedblright" unicode="&#x201d;" horiz-adv-x="308" 
d="M947 1106q-11 0 -14 13l15 20q24 29 41 65q-25 0 -25 26q0 31 30 52q18 13 32 13q4 0 12 -3q27 0 27 -22l-2 -10q-21 -65 -53 -108q-37 -46 -63 -46zM1068 1106q-11 0 -14 13l16 20q24 29 41 65q-26 0 -26 26q0 31 30 52q18 13 32 13q5 0 12 -3q27 0 27 -22l-1 -10
q-20 -62 -54 -108q-37 -46 -63 -46z" />
    <glyph glyph-name="quotedblbase" unicode="&#x201e;" horiz-adv-x="316" 
d="M301 217q-11 0 -14 11l14 19q25 27 38 55q-9 0 -13 4q-14 9 -14 22q0 21 27 42q15 11 31 11q6 0 13 -3q27 0 27 -20v-7q-12 -51 -48 -91q-37 -43 -61 -43zM430 217q-11 0 -14 11l14 19q25 27 38 55q-9 0 -13 4q-14 9 -14 22q0 21 27 42q15 11 31 11q5 0 13 -3
q27 0 27 -20v-7q-13 -52 -47 -91q-37 -43 -62 -43z" />
    <glyph glyph-name="dagger" unicode="&#x2020;" horiz-adv-x="792" 
d="M975 337q-20 0 -20 62q0 43 27 144t114 361l7 18q-16 -1 -29 -2t-39.5 -3.5t-54.5 -4.5q-48 -7 -137 -11l-73 -3q-1 4 -2 8.5t-1.5 7t-0.5 4.5l1 8q14 22 25 28.5t52 14.5q19 4 135.5 13.5t134.5 9.5q8 0 14.5 14t40.5 100q6 15 15 38q28 75 36 83q2 2 7 5q16 13 18 13
q11 -4 14.5 -7t3.5 -9v-3q-78 -218 -78 -226q35 1 88 4.5t101 5.5l50 1q32 0 43 -6q19 -7 19 -22l-2 -8q-5 -10 -14 -19q-11 -11 -22 -11l-32 2q-46 0 -129 -8l-120 -10q-6 0 -11 -14l-12 -42q-83 -238 -109.5 -338t-26.5 -151v-20q-2 -5 -11 -14q-15 -13 -22 -13z" />
    <glyph glyph-name="daggerdbl" unicode="&#x2021;" horiz-adv-x="792" 
d="M865 291q-19 0 -19 62q0 83 63 293l6 17l-123 -9q-53 -5 -208 -14q-1 3 -1.5 7.5t-1.5 6.5q-1 1 -1 5v4v5q13 23 36 33q22 10 118 19q187 14 194 14q4 0 6 2q5 0 47 112l29 74l-123 -10q-81 -10 -210 -14q0 12 -1 14q-3 3 -3 6l1 8q13 23 36 33q22 10 119 19
q187 14 192 14q4 0 6 2q4 0 6 6q1 1 3 7t5 11q11 25 33 89q30 81 41 101q8 19 21 27q13 10 17 10q1 -1 5.5 -3.5t7.5 -3.5q6 -2 6 -9l-22 -60q-58 -158 -58 -169l214 11q49 0 52 -1q33 -4 33 -25q0 -14 -13 -27q-11 -11 -25 -11h-14q-62 0 -205 -13q-62 -4 -64 -6
q-1 -1 -7 -13l-50 -173q22 0 46 3q7 1 27.5 1.5t32.5 1.5q6 0 94 5q44 0 50 -2q35 -4 35 -26q0 -11 -16 -27q-8 -10 -23 -10h-14q-83 0 -145 -7l-101 -8q-7 -34 -7 -76l2 -13q0 -4 -5 -14q-20 -20 -30 -20t-15 22q-46 -156 -46 -233q2 -6 2 -21l-5 -6q-21 -21 -30 -21z" />
    <glyph glyph-name="bullet" unicode="&#x2022;" horiz-adv-x="367" 
d="M644 564q-34 0 -48.5 15t-18.5 57v10q0 19 9 42q4 10 9.5 26t7.5 22t6.5 16.5t9 17.5t10.5 16.5t15 21.5q52 77 111.5 132.5t106.5 70.5l14 5q5 0 13.5 -7.5t8.5 -11.5q0 -6 9 -17q15 -18 15 -55q0 -47 -22 -126q-22 -62 -55.5 -106.5t-91.5 -84.5q-36 -26 -59 -35
t-50 -9z" />
    <glyph glyph-name="ellipsis" unicode="&#x2026;" horiz-adv-x="1194" 
d="M399 340q-23 0 -27 13q-3 5 -3 14q0 11 1 13q4 13 22 26t33 13q27 0 27 -25l-3 -14q-13 -40 -50 -40zM909 340q-23 0 -27 13q-3 5 -3 14q0 8 2 13q4 13 22 26t33 13q27 0 27 -25l-4 -14q-13 -40 -50 -40zM1419 340q-22 0 -26 13q-4 7 -4 14q0 8 2 13q4 13 22 26t33 13
q27 0 27 -25l-3 -14q-13 -40 -51 -40z" />
    <glyph glyph-name="guilsinglleft" unicode="&#x2039;" horiz-adv-x="408" 
d="M915 573q-25 0 -47 21.5t-60 84.5q-75 116 -80 170q0 21 6 38q14 42 103 126q31 29 126 112t122 104q17 14 34 14q14 0 14 -14l-3 -13q-5 -14 -21 -30q-9 -9 -109 -97q-165 -139 -200 -185q-9 -10 -12 -20q-2 -2 -2 -8v-13q4 -39 56 -130t78 -108q22 -13 22 -23l-1 -8
q-7 -13 -11.5 -17t-14.5 -4z" />
    <glyph glyph-name="guilsinglright" unicode="&#x203a;" horiz-adv-x="408" 
d="M544 573h-8q-10 0 -13 10q2 16 9.5 24t34.5 18q39 17 157 108t150 130l16 21q2 6 2 20q-4 47 -66 185q-34 78 -38 97q-2 6 -2 16q0 11 2 14q10 27 33 27q14 0 22 -14q12 -23 47 -106t44 -110q18 -57 18 -87q0 -21 -7 -39q-5 -13 -22 -38q-37 -47 -205 -170
q-133 -99 -174 -106z" />
    <glyph glyph-name="fraction" unicode="&#x2044;" horiz-adv-x="831" 
d="M82 -72q-11 0 -15 3.5t-4 13.5v6q2 14 10.5 27.5t65.5 93.5q93 133 316 438q676 922 815 1094q45 57 89.5 107.5t56.5 59.5q14 9 19 9q4 0 13 -9q6 -6 6 -13t-5 -17q-10 -28 -67 -106t-207 -271q-263 -338 -740 -978l-273 -367q-43 -61 -56 -76t-24 -15z" />
    <glyph glyph-name="fraction" unicode="&#x2215;" horiz-adv-x="831" 
d="M82 -72q-11 0 -15 3.5t-4 13.5v6q2 14 10.5 27.5t65.5 93.5q93 133 316 438q676 922 815 1094q45 57 89.5 107.5t56.5 59.5q14 9 19 9q4 0 13 -9q6 -6 6 -13t-5 -17q-10 -28 -67 -106t-207 -271q-263 -338 -740 -978l-273 -367q-43 -61 -56 -76t-24 -15z" />
    <glyph glyph-name="frenchfrancsign" unicode="&#x20a3;" horiz-adv-x="1235" 
d="M1041 937l8 18l22 69q88 281 260 643q39 83 52 118l2 3q-3 3 -46 3q-49 0 -90 -3q-105 -12 -168 -72q-112 -103 -112 -317q0 -125 36 -293q30 -169 36 -169zM953 30l5 3q20 19 34 19q12 3 19 11q14 26 35 102q19 76 19 158q0 96 -3 135l-51 -1q-64 -265 -64 -381
q0 -14 6 -46zM1057 526q-5 62 -9 62q-2 -4 -19 -62h28zM931 -55q-68 0 -68 148q0 126 52 361q-60 -4 -195 -19l-2 9q-6 6 -6 18q0 31 52 47q20 6 167 14l38 167l-58 -14q-108 -29 -185 -29l-30 4q-53 13 -53 58q0 13 4 24q28 48 45 48q11 -4 11 -17q0 -9 -10 -17
q-8 -7 -8 -21v-6q0 -30 74 -30q52 0 123 16l46 11q31 8 52 16l30 94l-13 60q-2 17 -27 128q-36 168 -44 225q-11 71 -11 149q5 305 218 409q81 42 200 42q69 0 77 3q6 2 11 16l6 13q21 26 40 26q12 0 37 -19l4 -52q140 -20 307 -34q239 -24 364 -24q67 0 97 8q18 5 26 5
q15 0 15 -16q-25 -39 -181 -39q-177 5 -647 52l-19 -43q-10 -32 -104 -249q-172 -407 -255 -669l-13 -49q16 0 88 25q243 72 413 79l57 3q55 0 55 -30q0 -3 -5 -16q-12 -19 -19 -19q-3 0 -6 10t-10 14q-10 5 -33 5q-19 0 -74 -5q-157 -12 -368 -74q-100 -29 -111 -35
q-1 -1 -1 -12l14 -111q5 -27 9 -77q9 -1 52 -1q54 -3 78 -7q45 -16 45 -42l-1 -11q-13 -27 -30 -27q-9 0 -22 8q-11 8 -41 11q-6 1 -76 1l3 -36l2 -74q0 -47 -3 -83q-21 -146 -70 -229q-61 -91 -113 -91z" />
    <glyph glyph-name="lirasign" unicode="&#x20a4;" horiz-adv-x="1080" 
d="M243 61q-1 1 -5 7q-3 4 -3 11q-2 3 -2 8q0 20 73 86q116 107 203 218q-43 -2 -189 -18q-2 2 -5 11q-3 8 -3 16q0 30 50 47q26 7 200 16q83 121 97 150v1q-62 0 -147 -7q-101 -8 -118 -8q-6 4 -6 17q2 5 11 14q6 6 66 14l86 8q133 9 139 13l91 167q91 164 163 280
q62 98 141 200q272 336 509 443q73 35 112 35q56 0 68 -48q0 -26 -8 -52q-19 -52 -44 -52q-16 0 -16 22q0 16 6 27q4 10 4 14q0 18 -22 18q-71 0 -196 -79q-116 -75 -231 -195q-215 -216 -394 -547q-99 -188 -122 -224v-1q0 -6 97 -10q143 -3 152 -19l2 -4q0 -26 -28 -26
q-27 0 -82 7q-32 4 -74 4l-98 -4q-47 -81 -98 -156q172 0 215 -8q45 -17 45 -43l-1 -11q-12 -26 -30 -26q-12 0 -19 6q-6 4 -19 9q-3 1 -11.5 1.5t-13.5 1.5q-11 2 -65 2q-76 0 -151 -3l-5 -6q-79 -105 -179 -202q-51 -49 -51 -52h3q154 13 196 13q138 0 417 -19
q29 -2 98 -7q10 -1 31 -2t29 -2q5 -1 12 -1.5t11 -1t7 -1.5l12 -4q1 -1 1.5 -3.5t1.5 -3.5q2 -3 2 -7q0 -5 -2 -7q-6 -9 -8 -11q-1 -3 -4 -7t-5 -7l-279 14q-163 8 -332 8q-106 0 -125 -2q-20 -2 -74 -11q-61 -11 -86 -11z" />
    <glyph glyph-name="pesetasign" unicode="&#x20a7;" horiz-adv-x="3015" 
d="M810 367l63 173q123 336 271 667l41 102q-10 0 -141 -107q-291 -238 -378 -444q-31 -95 -31 -137q0 -25 12 -70t89 -110zM2426 13q80 0 137 151q16 42 52 217q-121 -84 -186 -200q-36 -63 -36 -120q0 -14 2 -28q3 -20 31 -20zM781 -19q-47 0 -47 69q0 68 35 185
q11 33 11 49q0 31 -66 85q-50 45 -71 71q-66 74 -66 181q8 102 64 197q148 265 531 537q59 42 62 50l48 95q147 291 210 291q19 0 28 -23q3 -3 3 -13q0 -25 -33 -98q-39 -86 -61 -129v-5q9 0 69 35q464 255 723 255q129 0 178 -64q29 -37 29 -85q0 -96 -96 -235l107 -10
q18 43 85 174q65 139 101 189q46 60 82 60q28 0 28 -26l-6 -26q-17 -50 -35 -87q-24 -50 -49.5 -103.5t-38.5 -80.5t-19 -37q-6 -14 -19 -39.5t-17 -34.5q119 -9 144 -9l82 -6q65 -5 278 -8q173 0 312 30q139 29 252 93q59 29 107 58q71 41 82 55q0 4 4 8q16 16 27 16
q10 0 10 -11q0 -17 -16 -30q-42 -40 -148 -96q-163 -90 -311 -126q-161 -40 -502 -40q-136 5 -284 21l-58 4l-35 -69q-59 -113 -189 -430q-90 -219 -149 -413q-51 -184 -51 -299q0 -26 5 -71q7 -42 43 -42q48 0 96 42q91 77 252 323q93 141 137 227l25 47q33 221 101 295
q45 50 94 50q15 0 24 -3q24 -12 24 -24v-6q-1 -1 -3 -3.5t-5 -5.5q-7 -7 -16 -7q-11 0 -21 8l-6 2q-22 0 -58 -74q-16 -48 -33 -191q-4 -54 -14 -118q-2 -6 -5 -39q-1 -5 -14 -89q235 113 280 196q3 5 9 14t7 11q9 14 17 19q7 6 18 6q12 0 12 -9l-1 -10q-39 -78 -131 -138
q-105 -67 -216 -123q-33 -275 -159 -396q-68 -64 -142 -64q-66 0 -66 77q0 56 42 129q49 99 219 228q28 133 30 169q-65 -108 -127 -197q-151 -218 -219 -288q-95 -99 -167 -99q-81 0 -110 100q-13 44 -13 98q0 197 118 520q120 329 287 660q-93 11 -106 11q-6 0 -9 2
q-121 -158 -334 -308q-344 -233 -618 -362q-101 -46 -151 -46q-12 0 -25 13q-6 7 -6 19q0 6 4 17q4 10 10 16q3 3 14 3q9 0 12 -9q0 -11 15 -11q20 0 67 20q129 50 391 208q407 243 574 443q-3 1 -253 6q-340 -12 -486 -101q-11 -7 -16 -12q-3 -3 -11 -24q-7 -17 -27 -20
q-16 0 -16 12l2 13q12 28 57 61q98 59 234 82q136 20 363 28l181 -9q50 67 74 132q19 53 19 89q0 53 -49 83q-42 24 -121 24q-215 0 -604 -196l-77 -41q-125 -70 -132 -77q-10 -6 -51 -90q-96 -193 -203 -439q-127 -288 -220 -545q-60 -161 -73 -211q-9 -38 -9 -74
q0 -19 3 -24q3 -9 3 -17t-5 -21q-16 -44 -60 -44z" />
    <glyph glyph-name="euro" unicode="&#x20ac;" horiz-adv-x="708" 
d="M928 -14q-43 0 -63 14q-87 75 -87 315q0 190 49 429q-137 -14 -172 -18q-1 2 -2 6q-1 3 -2 5q-3 8 -5 10v6q0 31 52 47q32 6 146 13q15 57 41 126q-31 -2 -159 -16q-1 2 -2 6q-1 3 -2 5q-4 7 -4 16q0 31 51 47q31 6 145 13q182 433 501 728q102 96 148 96q12 0 23 -7
q16 -12 16 -26q0 -35 -36 -35q-28 0 -131 -98q-276 -264 -450 -655q16 2 58 2q157 0 200 -8q46 -16 46 -43l-2 -11q-13 -27 -30 -27q-11 0 -19 7q-6 4 -19 9q-3 1 -11.5 1.5t-13.5 1.5q-11 2 -64 2q-86 0 -177 -3q-23 -58 -47 -128q17 2 66 2q161 0 199 -8q47 -16 47 -43
q0 -8 -2 -11q-14 -27 -30 -27q-9 0 -23 8q-8 5 -16 8q-3 1 -11 1.5t-13 1.5q-11 2 -66 2q-85 0 -172 -3q-48 -188 -48 -402q0 -266 75 -299q11 -7 38 -7q29 0 33 -4q6 -4 6 -16q0 -15 -12 -27q-6 -6 -49 -6z" />
    </font>
</defs>
</svg>
