<?xml version="1.0" standalone="no"?>
<!DOCTYPE svg PUBLIC "-//W3C//DTD SVG 1.1//EN" "http://www.w3.org/Graphics/SVG/1.1/DTD/svg11.dtd" >
<svg xmlns="http://www.w3.org/2000/svg" xmlns:xlink="http://www.w3.org/1999/xlink" version="1.1">
<metadata>
Created by FontForge 20170731 at Fri Dec 15 16:29:39 2017
 By Aleksey,,,
Manraj Ubhi 2017
</metadata>
<defs>
<font id="Ollie-" horiz-adv-x="493" >
  <font-face 
    font-family="Ollie"
    font-weight="400"
    font-stretch="normal"
    units-per-em="1460"
    panose-1="0 0 0 0 0 0 0 0 0 0"
    ascent="980"
    descent="-480"
    x-height="496"
    cap-height="742.5"
    bbox="-357.286 -480 994 980"
    underline-thickness="0"
    underline-position="0"
    unicode-range="U+0020-2212"
  />
<missing-glyph horiz-adv-x="730" 
d="M73 -480h584v1460h-584v-1460zM146 -407v1314h438v-1314h-438z" />
    <glyph glyph-name=".notdef" horiz-adv-x="730" 
d="M73 -480h584v1460h-584v-1460zM146 -407v1314h438v-1314h-438z" />
    <glyph glyph-name=".null" horiz-adv-x="0" 
 />
    <glyph glyph-name="nonmarkingreturn" horiz-adv-x="486" 
 />
    <glyph glyph-name="space" unicode=" " horiz-adv-x="292" 
 />
    <glyph glyph-name="exclam" unicode="!" horiz-adv-x="455" 
d="M350 747q10 -2 15.5 -11.5t2.5 -19.5l-167 -570q-3 -10 -11 -16.5t-18 -6.5q-1 0 -2.5 0.5t-2.5 0.5q-10 1 -15.5 10.5t-2.5 20.5l167 570q3 11 13 17.5t21 4.5zM143 59q11 0 18 -8.5t6 -18.5q-1 -11 -10.5 -19t-19.5 -8q-11 0 -18 8t-6 19q1 10 10.5 18.5t19.5 8.5z" />
    <glyph glyph-name="quotedbl" unicode="&#x22;" horiz-adv-x="302" 
d="M80 731v0q3 11 13 16t21 3q10 -2 15.5 -12.5t2.5 -20.5q-3 -13 -6.5 -26.5t-7.5 -26.5q-3 -10 -13 -15.5t-20 -3.5q-10 3 -16 13.5t-3 20.5q4 13 7.5 26t6.5 26zM160 731v0q3 11 13 16t20 3t16 -12.5t3 -20.5q-4 -13 -7.5 -26.5t-7.5 -26.5q-3 -10 -12.5 -15.5
t-20.5 -3.5q-10 3 -15.5 13.5t-3.5 20.5q4 13 7.5 26t7.5 26z" />
    <glyph glyph-name="numbersign" unicode="#" horiz-adv-x="485" 
d="M446 301h-76l-18 -102h72q11 0 19 -8t8 -19t-8 -19t-19 -8h-81l-21 -116q-1 -10 -8.5 -16t-17.5 -6h-2.5h-2.5q-11 2 -17 11.5t-5 19.5l19 107h-141l-20 -116q-2 -10 -9.5 -16t-17.5 -6h-2.5h-2.5q-10 2 -16.5 11.5t-5.5 19.5l19 107h-68q-11 0 -19 8t-8 19t8 19t19 8h78
l18 102h-74q-11 0 -19 8t-8 19t8 19t19 8h83l20 115q2 11 11.5 17.5t20.5 4.5q10 -1 16.5 -10.5t5.5 -20.5l-19 -106h141l20 115q2 11 11.5 17.5t19.5 4.5q11 -1 17.5 -10.5t4.5 -20.5l-18 -106h66q11 0 19 -8t8 -19t-8 -19t-19 -8zM297 199l18 102h-141l-18 -102h141z" />
    <glyph glyph-name="dollar" unicode="$" horiz-adv-x="600" 
d="M361 304q-1 2 -1.5 2.5t-0.5 -0.5q1 0 1.5 -0.5t0.5 -1.5v0zM134 100v0q-1 0 -1 0.5v0.5q-1 1 -0.5 1t1.5 -2zM378 275l-1.5 3l-0.5 1q0 -1 0.5 -1.5l1.5 -1.5v0v-1zM237 64v0h-2.5t2.5 0zM117 138v1.5v1.5v1v-4v0zM285 655l-2.5 -2.5l-0.5 -0.5l1.5 1.5l1.5 1.5v0z
M453 644v0l1 -1zM171 72v0v0q1 0 1 -0.5t1 -0.5h-0.5t-0.5 1v0h-1zM513 648q5 -20 4.5 -41t-4.5 -41q-2 -12 -13.5 -17.5t-22.5 -3.5q-5 1 -10 5.5t-7 8.5q-3 5 -3.5 10.5t0.5 11.5q1 2 1 5t1 5q-1 -7 -1 -3t1 5v9v9v4.5v4.5v2v2v-1v0v0v1v0q-1 1 -1 3t0 1q-1 2 -1.5 5
t-1.5 6q0 1 -1 3.5t-2 4.5q1 -1 1 -2v-1q0 1 -0.5 2t-0.5 2q-1 1 -2 3.5t-2 3.5t-3 3.5t2 -1.5l-6 6t-7 6q0 1 -0.5 1t-0.5 1q-2 1 -4.5 2.5t-4.5 2.5q-1 1 -3.5 2t-4.5 2l-81 -274q27 -20 52 -43t39 -54q10 -20 15 -42t4 -44q0 -22 -5.5 -44.5t-15.5 -43.5
q-27 -58 -86 -94.5t-123 -35.5l-17 -58q-3 -10 -10.5 -15.5t-17.5 -5.5h-3.5t-4.5 1q-11 4 -17 14.5t-3 21.5l16 52q-17 6 -32.5 15.5t-28.5 22.5q-14 15 -23.5 34t-13.5 39q-1 11 -1.5 22t0.5 22q1 13 5 25t9 24q4 11 17 13t23 -2q4 -3 8 -8t5 -10q1 -6 0 -11.5t-3 -10.5
q3 6 1 1t-2 -6q-1 -2 -1.5 -4t-1.5 -4t-1 -5t-1 -5v-1v-1v0v-1h-1h1v0q-1 -4 -1 -9.5v-9.5q0 -1 0.5 -1.5t0.5 -1.5h-0.5t-0.5 1q0 -1 0.5 -1t0.5 -1v0v-2v-1q1 -1 1 -2.5v-2.5q1 -4 2.5 -8.5t2.5 -8.5q-2 7 -0.5 2.5t2.5 -5.5t2 -3.5t2 -3.5t2 -2.5t2 -2.5v-0.5t1 -0.5v-1
l1 -1l-1 1v1v-1v0l1.5 -1.5l1.5 -1.5q2 -3 5 -5.5t5 -4.5q1 0 1 -0.5t1 -0.5q1 -1 2 -1.5t2 -1.5l6 -4t6 -3q1 -1 3 -1.5t3 -1.5h-1.5t-0.5 1q0 -1 0.5 -1h1.5q1 -1 2.5 -1.5t-0.5 0.5h1l93 311q-1 1 -3 2.5t-4 2.5q-18 13 -34 27.5t-29 32.5q-25 34 -30 77t11 82
q16 40 46.5 72.5t70.5 49.5q19 8 39 12.5t41 4.5l13 44q4 12 14.5 17.5t21.5 2.5q12 -4 17.5 -14.5t2.5 -21.5l-11 -37q9 -4 18 -8.5t16 -10.5q17 -13 29 -30.5t17 -38.5zM283 442q1 0 1 -0.5v-0.5l73 245h-1.5h-1.5q-2 -1 -4.5 -1.5t-4.5 -0.5q-4 -1 -9 -3t-9 -3
q-1 -1 -3 -1t-3 -1t-3.5 -2t-3.5 -2q-4 -1 -8.5 -3.5t-8.5 -5.5q-2 -1 -4 -2.5t-4 -2.5q-1 -1 -2 -1.5t-2 -1.5v0v0v0l-1.5 -1.5l-1.5 -1.5q-2 -1 -5 -3.5t-5 -4.5q-4 -4 -7 -7.5t-7 -7.5q-1 -1 -3 -3.5t-3 -3.5t-1 -1.5t-1 -1.5q-3 -4 -6 -9t-5 -9q-1 -2 -2 -4.5t-2 -3.5
t-1 -1.5v-0.5q0 -1 -0.5 -1.5t-0.5 -1.5v0h-1v-1v0v1q-1 -5 -2.5 -10t-2.5 -9q-1 -3 -1.5 -5.5t-0.5 -4.5q-1 -1 -1 -2v-2v2t1 1q-1 0 -1 -0.5v-1.5v-9.5v-9.5v-4t1 -3v-2.5v-2.5q1 -4 2.5 -8.5t2.5 -8.5q1 -1 2.5 -5.5t-1.5 2.5q1 -2 1.5 -4t1.5 -4q2 -4 4.5 -8t5.5 -8
q1 -1 1.5 -2t1.5 -2q0 -1 0.5 -1.5l0.5 -0.5v0l1 -1v0v0v1q1 -1 1 -2t1 -2q7 -7 14 -13.5t14 -11.5l2 -2t2 -1l-1 0.5t-2 1.5l1.5 -1.5zM320 344l-1.5 1.5l-1.5 1.5l-84 -283h3.5h3.5h-1.5h-1.5h1.5h1.5q3 1 6.5 1.5t7.5 1.5q7 1 13.5 3.5t13.5 5.5h-0.5t-0.5 -1q0 1 0.5 1
h1.5q1 1 1.5 1t1.5 1q1 0 2 0.5t2 1.5q3 1 6.5 3t6.5 3q3 2 6.5 4.5t6.5 4.5q1 1 3 2t3 2l0.5 0.5t1.5 0.5q5 4 10.5 9t10.5 10q2 3 4.5 5.5t4.5 5.5l0.5 0.5l1.5 1.5l0.5 0.5t0.5 1.5q0 -1 -0.5 -1h-0.5l2 2l2 2q4 7 8 13.5t7 13.5q0 1 1 3.5t0 -1.5q-1 -3 -0.5 -1t1.5 3
q1 2 1.5 5t1.5 6q1 4 2.5 8.5t2.5 8.5q1 2 1 4t1 4v0.5v1.5v1v1v0v0q0 1 0.5 1.5t0.5 1.5v10v9v5.5t-1 5.5v1.5v1.5v0v1v0v1v-1v0l-2 8l-2 8q-1 3 -1.5 6t-1.5 5q-1 1 -1 1.5v1.5v0v0v1v0l-1.5 1.5t-0.5 1.5q-1 3 -3 6t-3 6q-1 2 -3 4.5t-3 4.5q-1 1 -1.5 2t-1.5 2v0h1v0h-1
q0 1 -0.5 1.5t-1.5 0.5q-2 3 -4 5.5t-4 5.5q-7 7 -15 14t-15 13h-1v0zM281 76l3 1.5l1 0.5l-1 -1h-1l-1 -1h-1v0v0zM458 628v-2t1 -2v0q-1 1 -1 2v2zM247 477q-1 1 -0.5 1t2.5 -3h-1v0.5t-1 1.5zM225 558v0v1.5t0 -1.5zM386 244v-3t0 4v0v0v-1v0zM234 591l-0.5 -1.5
t-1.5 -1.5v0q1 0 1 1t1 2zM283 443v0v0zM353 130q-1 -1 -0.5 -0.5t2.5 3.5v-1v0v0v0h-1q0 -1 -0.5 -1.5zM117 165v0v0q0 2 0.5 2.5t-0.5 -3.5v0v1zM386 204q-1 0 -0.5 1t0.5 3v0v-2v-2z" />
    <glyph glyph-name="percent" unicode="%" horiz-adv-x="582" 
d="M430 750q10 -4 15.5 -15t1.5 -21l-249 -699q-3 -7 -9 -10.5t-13 -3.5q-3 0 -6 1t-7 2q-10 4 -15.5 15t-1.5 21l250 699q3 10 13.5 13t20.5 -2zM159 589q-34 0 -58 24t-24 58t24 58t58 24t57.5 -24t23.5 -58t-23.5 -58t-57.5 -24zM159 699q-12 0 -20 -8.5t-8 -19.5
t8 -19.5t20 -8.5q11 0 19 8.5t8 19.5t-8 19.5t-19 8.5zM418 164q34 0 58 -23.5t24 -57.5t-24 -58t-58 -24t-58 24t-24 58t24 57.5t58 23.5zM418 55q11 0 19.5 8t8.5 20q0 11 -8.5 19t-19.5 8t-19.5 -8t-8.5 -19q0 -12 8.5 -20t19.5 -8z" />
    <glyph glyph-name="ampersand" unicode="&#x26;" horiz-adv-x="756" 
d="M458 696h2h2v0h-3h-1zM523 662v0l1 -1zM342 605v0v0zM527 572v0l-1 -1zM364 661l1 1v0v-0.5t-1 -0.5zM429 696h0.5h1.5v0l-3 -1zM540 605v-2v-2v0v3.5v0.5zM489 688v0v0l-3 1h1h1zM502 552q-1 -1 -1.5 -1t-1.5 -1v0q1 1 2 1.5zM182 446q1 1 2.5 1.5t-2.5 -1.5v0zM288 57
h-1h-1l-1 1l1 -0.5t2 -0.5v0zM502 285v-1.5v-1.5h1l-0.5 0.5t-1.5 2.5v0h1zM340 57v0h-1h1zM188 99q-1 0 -1 0.5t-1 0.5v0.5t-1 0.5l1 -1l2 -2v1v0zM661 442h-1v-1h-1v-1l0.5 1t1.5 2v-1zM593 399v0v-1h-1v0q3 1 2.5 1h-1.5zM645 427v0l1 1zM696 493q11 0 19 -8.5t8 -18.5
q0 -32 -20.5 -56.5t-46.5 -39.5q-27 -16 -56 -26.5t-58 -19.5l6 -12t5 -13q12 -30 10 -64t-12 -64q-11 -31 -29 -58.5t-43 -49.5q-22 -19 -49 -33.5t-56 -21.5t-59 -7t-58 7q-60 13 -108.5 53.5t-73.5 96.5q-14 31 -21 65.5t-6 68.5t11 67.5t29 61.5q33 51 87 84.5t115 40.5
q-1 7 -2 13.5t-1 13.5q-3 43 14.5 85.5t54.5 66.5q37 25 85 26t86 -22q37 -22 55.5 -64t8.5 -85q-6 -21 -19.5 -38.5t-31.5 -30.5q-18 -12 -39.5 -16.5t-43.5 -0.5q-11 1 -16 12t-3 21q1 5 4.5 9.5t7.5 6.5q5 3 10.5 3.5t10.5 -0.5v0h2h2h4.5h4.5v0h1.5t1.5 1q2 0 4.5 0.5
t4.5 1.5q1 0 1.5 0.5t1.5 0.5h-1h1q1 0 1 0.5t1 0.5t1.5 0.5t-0.5 0.5q1 1 2.5 1t2.5 1t3.5 2.5t3.5 2.5h1q0 1 0.5 1t0.5 1q4 3 7 6t6 7q-1 -1 -1 -1.5t-1 -0.5q1 0 1.5 0.5t0.5 1.5q1 1 1 1.5t1 0.5q1 2 2 4.5t2 4.5l1 1v1v0v1q1 2 1.5 4.5t1.5 4.5q0 1 0.5 2t0.5 2v0v-1
v1v0v1v1.5v1.5t0.5 2t0.5 2v5t-1 5v1v1q-1 4 -1.5 7.5t-1.5 7.5q-1 2 -1.5 4.5t-1.5 3.5q2 -6 0.5 -2t-2.5 5q-1 4 -3.5 7.5t-4.5 6.5l-1.5 1.5l-1.5 1.5l1 -1l1 -1l-1 1v1l-3 3l-3 3t-3 2.5t-3 2.5q0 1 -0.5 1t-0.5 1q-2 1 -4.5 2.5t-4.5 2.5q-1 1 -3.5 2t-3.5 2t-2 1.5
t-2 0.5v0h1h-1v0l-1 1h-1q-1 1 -2.5 1t-2.5 1q-4 1 -9 2.5t-9 2.5h-1h-1v0v0h-1.5h-0.5q-1 1 -1.5 0.5l-0.5 -0.5q-1 1 -2.5 1h-2.5h-9.5h-9.5q-1 -1 -1.5 -1h-1.5h1h-1v0h-1.5h-0.5q-1 -1 -3 -1h-3q-4 -1 -8.5 -2.5t-8.5 -2.5q-1 0 -2.5 -0.5t-2.5 -1.5t-3.5 -1.5
t-3.5 -1.5q-4 -2 -8 -4.5t-8 -5.5v0l-1.5 -1.5l-1.5 -1.5t-3.5 -3t-3.5 -3t-1.5 -2t-1.5 -2v0v0l-1 -1l-1 -1l1 1q-1 -1 -2.5 -4t-2.5 -3l-2 -4l-2 -4q-1 -1 -2 -4.5t-2 -4.5t-1 -2t-1 -2t-1.5 -3.5t-0.5 -3.5q-1 -4 -2 -7.5t-2 -7.5q-1 -2 -1 -5t-1 -5q1 2 1 3v1l-0.5 -2
t-0.5 -3q0 -4 -0.5 -8t-0.5 -8v-8.5t1 -8.5v-3.5t1 -3.5q-1 7 -0.5 3t0.5 -6q1 -7 3.5 -15.5t4.5 -15.5l2 -4l2 -4q-2 6 -1 2.5t1 -4.5q2 -3 4 -6.5t4 -7.5q2 -3 4.5 -6.5t4.5 -7.5l1.5 -1.5t0.5 -1.5l1 -1v0q1 -1 1.5 -2t1.5 -2q5 -6 11 -12t13 -10q4 -4 6 -9.5t2 -9.5
q0 -6 -2 -10.5t-6 -8.5t-9 -6t-10 -2q-6 0 -10.5 2t-8.5 6q-19 14 -33 32.5t-24 40.5q-4 0 -7 -0.5t-7 -0.5q-1 0 -1.5 -0.5t-1.5 -0.5h-3.5t-3.5 -1q-4 -1 -7 -1.5t-7 -1.5q-7 -1 -14.5 -3.5t-14.5 -5.5q-1 -1 -3.5 -1.5t-3.5 -1.5q6 2 2.5 1t-4.5 -2q-4 -1 -7 -3t-6 -3
q-7 -4 -13.5 -8t-12.5 -8q-1 -1 -3.5 -2.5t-3.5 -2.5t-1.5 -1t-1.5 -1q1 0 1 0.5v0.5q-2 -2 -5 -4.5t-6 -4.5l-11 -11t-10 -11q-1 -1 -2.5 -3t-2.5 -3l-0.5 -1t-1.5 -1q-1 -3 -3.5 -6t-3.5 -6q-4 -6 -8 -13t-7 -14l-1.5 -1.5t-0.5 -1.5l-1 -2.5t-1 -3.5q-1 -3 -2.5 -6.5
t-2.5 -7.5q-2 -7 -4 -14.5t-3 -14.5q-1 -2 -1 -4v-4q1 7 0.5 3t-1.5 -5v-7t-1 -7v-15t1 -15q0 -4 0.5 -7.5t0.5 -7.5q-1 7 -0.5 3t0.5 -5q1 -2 1 -4t1 -4q1 -7 3 -14l4 -14q1 -4 2.5 -7.5t2.5 -7.5q1 -1 1.5 -3t1.5 -4v-0.5v-1.5q4 -7 7.5 -13.5t7.5 -13.5q1 -3 3.5 -6.5
t4.5 -6.5q1 -1 2 -3t2 -3l1.5 -1.5l1.5 -1.5v-1v0l1.5 -1.5l1.5 -1.5t2 -2.5t2 -2.5q2 -2 4 -4.5t4 -4.5q4 -4 9.5 -8.5t9.5 -8.5l0.5 -0.5l1.5 -1.5v0h1q0 -1 0.5 -1h0.5v0h-1q1 -1 2 -1.5t2 -0.5q3 -2 5.5 -4t5.5 -3q5 -4 10.5 -7t11.5 -6q1 -1 3.5 -1.5t3.5 -1.5
l0.5 -0.5t1.5 -0.5q1 -1 2 -1t1 -1q2 0 4 -0.5t3 -1.5l12 -4t12 -3q4 -1 7 -1.5t6 -1.5h2h2q-1 0 0 -0.5t2 -0.5h1h0.5h1.5h-1h-1q13 -1 25 -1t25 1h3h3h-3h-1h2h3q3 1 6 1.5t6 1.5q6 1 12 3l12 4q1 0 3.5 0.5t3.5 1.5q1 0 1.5 0.5t1.5 0.5q1 1 2 1t1 1q1 0 3 0.5t3 1.5
q6 3 12 6.5t11 7.5q3 1 5.5 3.5t5.5 3.5q0 1 0.5 1h0.5l2 2l2 2q5 4 10.5 9t9.5 10q2 3 4.5 5.5t4.5 5.5l1 1q1 1 2 3t2 3l8 12t7 12q2 4 4 7t3 7v1l1 1q0 1 0.5 2.5t1.5 2.5q2 7 4.5 14.5t3.5 14.5q1 3 1.5 6.5t1.5 7.5q-1 -7 -0.5 -3.5t0.5 4.5v3.5v3.5q1 6 0.5 12.5
t-0.5 12.5q0 -4 -0.5 0t-0.5 5q-1 1 -1 3t-1 3q-1 4 -1.5 7t-1.5 6l-0.5 0.5t-0.5 1.5v1q-1 0 -1 0.5v0.5v-1q0 1 -0.5 2.5t-1.5 2.5q-2 4 -4 7l-4 6q-1 1 -1 2t-1 2q-10 -4 -19 -7t-19 -7l-1 -1q-1 0 -2.5 -0.5t-2.5 -1.5q-2 -1 -4.5 -2t-5.5 -2q-5 -3 -10 -5.5t-10 -5.5
t-10.5 -6t-9.5 -7q-3 -1 -5.5 -3t-4.5 -3q-1 -1 -3 -2.5t3 2.5l-2 -2l-2 -2q-4 -4 -8.5 -7.5t-8.5 -7.5l-4.5 -4.5t-3.5 -4.5l-2 -2l-2 -2l-1 -1t-1 -2q-1 0 -1 -0.5t-1 -1.5t-1.5 -2t-1.5 -2q-1 -2 -2.5 -4.5t-2.5 -4.5q-1 -3 -3 -5.5t-3 -4.5q0 -1 -0.5 -2.5t-1.5 -2.5
l1 1v1q0 -1 -0.5 -1.5t-0.5 -1.5q-4 -10 -13 -15.5t-20 -2.5q-5 1 -9.5 4.5t-6.5 7.5q-3 4 -3.5 10.5t0.5 10.5q10 26 27 48.5t39 40.5q21 16 43.5 28t46.5 22t49.5 18t50.5 16q13 4 25 8.5t25 9.5q1 1 3 1t3 1h-1h1h1v1v0h1q3 1 6 2.5t6 2.5q6 3 11.5 6t11.5 6q2 1 4.5 3
t4.5 3q1 1 2.5 1.5t2.5 1.5q0 1 0.5 1.5t1.5 0.5h-0.5t-1.5 -1q4 4 8 7t8 7l0.5 0.5t0.5 1.5v0h1v1l1 1l-1 -1v0q1 1 1 1.5t1 1.5t3.5 4.5t1.5 4.5l-1 -2.5t0 0.5v1.5t1 1.5q0 1 0.5 2t0.5 2v1v0v2.5v2.5q0 11 8.5 18.5t18.5 8.5zM373 485l-0.5 0.5t-0.5 1.5q0 -1 0.5 -1.5z
M536 586q0 -1 -0.5 -1.5l-0.5 -0.5l0.5 0.5t0.5 1.5zM433 95l-1 -1v0h0.5t0.5 1zM333 193v0q1 1 1 1.5t-1 -1.5z" />
    <glyph glyph-name="quotesingle" unicode="'" horiz-adv-x="158" 
d="M68 731v0q3 11 13 16t21 3q10 -2 15.5 -12.5t2.5 -20.5q-3 -13 -6.5 -26.5t-7.5 -26.5q-3 -10 -13 -15.5t-20 -3.5q-10 3 -16 13.5t-3 20.5q4 13 7.5 26t6.5 26z" />
    <glyph glyph-name="parenleft" unicode="(" horiz-adv-x="439" 
d="M342 702v0h1.5h0.5h1.5t-3.5 0zM73 116q0 1 -0.5 1.5l-0.5 0.5v1v1v-1t1 -3v0zM143 48h-0.5t-1.5 1v0h-1t0 0t4 -1h-1zM387 730q1 -11 -8 -19t-19 -8h-7.5t-7.5 -1v0h-1h-0.5h-1.5v0h-1v0h1q-2 -1 -4 -1t-4 -1q-8 -1 -16.5 -3.5t-15.5 -5.5q-1 -1 -1.5 -1t-1.5 -1l-4 -2
l-4 -2q-4 -1 -7.5 -3.5t-7.5 -4.5t-7.5 -4.5t-7.5 -5.5l-1 -1q-1 0 -1 -0.5t-1 -0.5v0v0v-1v1v0l-3 -3l-3 -3q-7 -5 -13.5 -11.5t-11.5 -13.5l-3 -3t-3 -4q4 5 1.5 2t-3.5 -4q-2 -4 -4.5 -7.5t-4.5 -7.5t-4.5 -7.5t-4.5 -7.5q-1 -2 -2 -6t1 3q-1 -2 -1.5 -4.5t-1.5 -3.5
q-1 -4 -2.5 -8t-2.5 -8q-8 -29 -16.5 -59t-17.5 -59q-12 -45 -24.5 -89.5t-25.5 -89.5q-8 -26 -16 -53t-15 -53v-1.5t-1 -1.5q-1 -4 -1.5 -9t-1.5 -9l-0.5 -0.5t-0.5 -1.5v-4v-3v-7.5v-7.5v-1v-2q1 0 1 -0.5v-0.5v-1v0v1v-2.5t1 -2.5q1 -4 1.5 -7t1.5 -6l0.5 -1t0.5 -2v0
l1 -1v-1v1q0 -1 0.5 -2t1.5 -2q1 -3 3.5 -6t3.5 -6l1 -1v-1l2 -2l2 -2t3 -2.5t3 -2.5t4 -3t-3 2q3 -2 5.5 -4t5.5 -3q1 -1 3 -1.5t3 -1.5q-1 0 0 -0.5t2 -0.5l1 -1h1h-0.5h-1.5q4 -1 7 -2t7 -2q1 0 3.5 -0.5t3.5 -0.5t1.5 -0.5t1.5 -0.5v0h1h1h-1v0q3 0 6.5 -0.5t7.5 -0.5
q11 0 18.5 -8t8.5 -19q1 -10 -8 -18.5t-19 -8.5q-9 0 -18 1.5t-18 2.5q-35 8 -61.5 32t-36.5 58q-7 23 -6 47.5t8 47.5q8 30 17 60t17 60q13 46 26 91.5t26 91.5q7 25 14.5 51t14.5 51q10 33 29.5 62t46.5 51q30 25 66.5 41t76.5 16q11 0 18.5 -8t8.5 -19zM258 665v0h1l1 1
t1.5 1t-3.5 -2zM79 94q-1 1 -1 1.5v0.5v1l-1 1q0 -1 0.5 -2t1.5 -2v0zM119 55h-1h-0.5t-0.5 1l0.5 -0.5l1.5 -1.5v0v1v0z" />
    <glyph glyph-name="parenright" unicode=")" horiz-adv-x="474" 
d="M75 -7v0q-11 0 -18.5 8.5t-8.5 18.5q-1 11 8 19t19 8q4 0 8.5 0.5t8.5 0.5q1 1 3 1t-5 -1h2t2 1q2 0 4 0.5t4 0.5q8 1 16.5 4t15.5 6q1 1 0.5 0.5t-3.5 -1.5q1 0 1.5 0.5t1.5 0.5q1 1 2 1t2 1t3.5 2t3.5 2q4 1 7.5 3.5t6.5 4.5q4 2 8 4.5t8 5.5l2.5 2.5t-3.5 -2.5
q1 1 2 1t2 1t3 2.5t3 2.5q6 6 12.5 12t11.5 13q1 1 2 2.5t2 2.5t2 2.5t-2 -3.5q1 1 2.5 3.5t2.5 3.5q2 3 4.5 6.5t4.5 7.5t4.5 8t3.5 8q1 1 1.5 2t0.5 2q1 4 0 -0.5t0 -0.5q1 1 1 3t1 4q1 4 2.5 7.5t2.5 7.5q8 30 16.5 59.5t17.5 58.5q13 45 25.5 90t25.5 89q7 27 15 53.5
t15 53.5v1.5t1 1.5q1 4 1.5 8t1.5 8q1 1 1 3t-1 -5v2t1 2v4.5v3.5v8v8v2v2q-1 4 0 -1.5t0 -1.5q-1 2 -1 4v3q-1 4 -2 7.5t-2 6.5q-1 1 -1 2t-1 2q-1 3 0.5 -1.5t0.5 -1.5q-1 1 -1.5 3.5t-1.5 3.5q-1 3 -3 6t-4 5q-1 1 -1.5 2t3.5 -4l-1.5 1.5l-1.5 1.5t-2 2.5t-2 2.5
q-2 3 -5 5t-5 4q5 -4 2.5 -2t-3.5 3t-3 2t-3 2t-3.5 1.5t-3.5 1.5q-1 0 -1.5 0.5t-1.5 0.5q-3 1 1.5 0t0.5 0t-7 2t-7 2q-2 1 -4 1t-4 1h-2h-2q-4 1 1 0.5t1 -0.5q-4 1 -8 1h-8q-11 0 -18.5 8t-8.5 19t8 19t19 8t19 -1t19 -3q34 -8 60 -32t36 -58q7 -23 6 -47.5t-8 -46.5
q-8 -30 -17 -60.5t-17 -60.5q-13 -46 -26 -91.5t-26 -91.5q-7 -25 -14.5 -50.5t-14.5 -50.5q-10 -33 -29.5 -62t-45.5 -51q-30 -25 -67 -41t-77 -17z" />
    <glyph glyph-name="asterisk" unicode="*" horiz-adv-x="249" 
d="M154 673l31 -31q8 -8 8 -19.5t-8 -18.5q-4 -4 -9 -6t-10 -2t-10 2t-9 6l-31 31l-32 -31q-4 -4 -9 -6t-10 -2t-10 2t-9 6q-8 7 -8 18.5t8 19.5l31 31l-31 32q-8 7 -8 19t8 19q7 8 19 8t19 -8l32 -31l31 31q8 8 19.5 8t18.5 -8q8 -7 8 -19t-8 -19z" />
    <glyph glyph-name="plus" unicode="+" horiz-adv-x="489" 
d="M373 277q11 0 19 -8t8 -19t-8 -19t-19 -8h-117v-118q0 -11 -8 -19t-19 -8t-19 8t-8 19v118h-118q-11 0 -19 8t-8 19t8 19t19 8h118v117q0 11 8 19t19 8t19 -8t8 -19v-117h117z" />
    <glyph glyph-name="comma" unicode="," horiz-adv-x="217" 
d="M78 8v0q3 11 13 16t20 3t16 -12.5t3 -20.5l-10 -34l-10 -34q-3 -10 -13 -15.5t-20 -3.5t-16 13t-3 21q5 16 10 33.5t10 33.5z" />
    <glyph glyph-name="hyphen" unicode="-" horiz-adv-x="520" 
d="M431 277q11 0 19 -8t8 -19t-8 -19t-19 -8h-338q-11 0 -19 8t-8 19t8 19t19 8h338z" />
    <glyph glyph-name="period" unicode="." horiz-adv-x="212" 
d="M105 -26q11 0 19 8.5t8 19.5q-1 10 -9 18t-19 8v0q-11 0 -19 -8t-8 -20q0 -10 8.5 -18t19.5 -8z" />
    <glyph glyph-name="slash" unicode="/" horiz-adv-x="422" 
d="M315 777q10 -2 16 -12.5t3 -20.5v-1v0q-2 -7 -4.5 -15t-4.5 -15q-4 -15 -8.5 -30.5t-8.5 -31.5q-6 -21 -12.5 -42.5t-12.5 -42.5q-7 -25 -14.5 -51t-14.5 -51q-7 -27 -15.5 -54t-15.5 -55q-7 -27 -15 -53.5t-16 -53.5q-7 -25 -14 -49.5t-14 -49.5q-5 -20 -11 -40.5
t-12 -40.5q-4 -13 -7.5 -27t-7.5 -27q-1 -5 -3 -10.5t-3 -9.5q-3 -11 -13 -16t-20 -3t-16 12.5t-3 20.5v1v0q2 7 4.5 15t4.5 15q4 15 8.5 30.5t8.5 31.5q6 21 12.5 42.5t12.5 42.5q7 25 14.5 51t14.5 51q7 27 15 54t16 55q7 27 15 53.5t15 53.5q7 25 14.5 49.5t14.5 49.5
q5 20 11 40.5t12 40.5q4 13 7.5 27t7.5 27q1 5 3 10.5t3 9.5q3 11 13 16t20 3z" />
    <glyph glyph-name="zero" unicode="0" horiz-adv-x="551" 
d="M536 546q7 -42 5 -84.5t-9 -84.5q-7 -44 -21.5 -86.5t-34.5 -82.5q-19 -38 -45 -74t-58 -64q-35 -31 -77.5 -51.5t-89.5 -24.5q-43 -4 -83.5 13.5t-68.5 51.5q-28 36 -42 79.5t-15 89.5q-1 26 2.5 52.5t8.5 52.5q6 31 15 61t20 59q22 57 54.5 111t78.5 95q22 19 47 35.5
t53 27.5q26 10 54.5 14t56.5 -2q55 -12 92 -57.5t50 -96.5q2 -9 4 -17.5t3 -16.5zM53 203v-1.5v-0.5v1.5v0.5zM70 137q0 -1 0.5 -1.5l0.5 -0.5v0.5t-1 1.5zM485 426l2 38t0 38q-1 4 -1 9t-1 9v4.5t-1 4.5v1.5v1.5q-1 8 -3 16.5t-4 16.5q-1 6 -3 12t-4 11q-1 1 -1.5 3t-0.5 3
v0v0l-2.5 5l-2.5 5q-3 5 -6 10.5t-6 10.5q-2 3 -4 5.5t-3 4.5l-1 1q-1 1 -1.5 2t-1.5 2l-8.5 8.5l-8.5 8.5q-1 1 -2.5 2t-2.5 2v0q-2 1 -4.5 3.5t-5.5 3.5q-2 1 -5 3t-5 3q-1 0 -2 0.5t-2 0.5q0 1 -0.5 1h-1.5v0l-1 1h-1h1q-5 1 -10.5 3t-10.5 3h-1v0h-3h-3q-2 1 -5 1h-6
h-6.5t-6.5 -1h-1h-1h1h1h-3t-3 -1q-6 -1 -12 -2.5t-12 -3.5q-3 -1 -6.5 -2t-6.5 -2q-1 -1 -2 -1t-2 -1v0h-1h-1v-1h-1v0q-12 -5 -23.5 -11.5t-22.5 -13.5q-2 -2 -5 -4l-6 -4q0 -1 -1.5 -2t-2.5 -1l-1 -1v-1l-10 -8t-9 -8q-10 -10 -19.5 -20t-17.5 -21l-1.5 -1.5l-0.5 -0.5
q-1 -1 -2 -3t-2 -3q-2 -2 -4.5 -5t-3.5 -6q-4 -5 -8 -11t-7 -12q-8 -12 -15 -25t-13 -26q-4 -7 -7 -13.5t-6 -13.5v-1.5t-1 -1.5t-1.5 -3.5t-1.5 -3.5q-1 -4 -2.5 -7t-2.5 -7q-5 -14 -10 -29t-9 -29t-7.5 -29t-6.5 -30q-1 -7 -2 -13.5t-2 -13.5q-1 -1 -1 -3.5t-1 -4.5v0v-1
v-4.5t-1 -5.5q-1 -10 -1 -21v-21q1 -5 1 -10t1 -10v-2.5v-2.5q1 -2 1 -5t1 -5q1 -10 4 -19.5t6 -19.5q1 -2 1.5 -4.5t1.5 -5.5q1 -1 1.5 -2t0.5 -2l4 -8l4 -8t4.5 -8.5t5.5 -8.5q1 -1 2.5 -3.5t2.5 -3.5v-1h1q0 -1 0.5 -1t0.5 -1q3 -3 6 -6.5t6 -6.5q2 -1 4 -3l3 -3
l1.5 -1.5l1.5 -1.5h1v-1q1 0 1.5 -0.5l0.5 -0.5q1 -1 2 -1.5t2 -1.5t3.5 -2t3.5 -2q2 -1 4.5 -2.5t4.5 -2.5q1 -1 4 -2.5t2 -0.5l6 -2t7 -2q2 -1 4.5 -1.5t5.5 -0.5q1 -1 2 -1h2q4 -1 9 -1h10h5h5q2 1 5 0.5t5 0.5q-1 0 -3 -0.5t1 0.5h1.5h1.5q1 1 2.5 1h2.5q3 1 5.5 1.5
t5.5 1.5q6 1 12 3t11 4q2 1 4.5 1.5t4.5 1.5q1 0 1.5 0.5t1.5 0.5v0.5t1 0.5q4 1 8.5 3.5t8.5 4.5q8 4 16.5 9.5t16.5 10.5q1 1 4 3t4 3q0 1 -2.5 -1t-0.5 -1q1 1 1.5 1t0.5 1q1 1 2 1.5t2 1.5q4 3 7.5 6t7.5 7q7 6 13.5 13.5t13.5 14.5q3 4 6.5 7.5t6.5 7.5l0.5 0.5
t0.5 1.5q1 1 1 1.5t1 0.5q1 1 3 3.5t3 4.5q6 8 11.5 17t10.5 17q5 9 10.5 18t9.5 19l4.5 9t3.5 10q1 1 1.5 2.5t1.5 2.5v0v0v-1v1.5v0.5l1 1v0q1 1 1.5 3.5t0.5 3.5q8 19 14.5 39t11.5 40q2 10 4.5 20t3.5 20q1 4 1.5 9.5t1.5 9.5v0v1t0.5 2t0.5 2v5.5t1 4.5zM394 675
q1 0 0 0.5l-3 1.5l1 -1v0v0h1v0zM292 670l-4 -1h1t1 0.5t1 0.5v0h1zM443 264q1 4 1 3.5v-1.5v0l-1 -1v0v-1zM337 683v0q-4 -1 -2.5 -1t2.5 1z" />
    <glyph glyph-name="one" unicode="1" horiz-adv-x="255" 
d="M238 734q8 -4 11.5 -13t1.5 -17q-11 -37 -22 -75t-22 -75q-19 -66 -38 -132.5t-38 -132.5t-38.5 -132t-38.5 -132q-3 -11 -12.5 -16.5t-20.5 -2.5q-10 2 -16 12.5t-3 20.5q11 37 22 75t22 75l38 132l38 132q13 43 25 86.5t25 86.5q-32 -30 -64.5 -59.5t-64.5 -58.5
q-8 -8 -19 -8t-19 8q-8 7 -8 19t8 19q11 10 22.5 20.5t22.5 20.5q39 35 78 71l78 72q7 6 15.5 7t16.5 -3z" />
    <glyph glyph-name="two" unicode="2" horiz-adv-x="576" 
d="M372 314v0q-1 -1 -2.5 -1.5t2.5 1.5zM259 645v0q1 0 1.5 0.5l0.5 0.5q1 1 1 0.5t-3 -1.5zM514 564v-2.5t-1 3.5l1 -1v0zM465 403v0q-1 0 -1 -0.5v-0.5l-1.5 -1.5t2.5 2.5v0zM486 629h1v0v-0.5t1 -1.5t0.5 -1t-2.5 3zM516 382q-42 -59 -100.5 -102.5t-116.5 -84.5
q-48 -34 -95.5 -68t-95.5 -68h38.5h38.5h62.5h62.5h51.5h51.5h21.5h21.5q11 0 18.5 -8.5t8.5 -18.5q0 -11 -8.5 -19t-18.5 -8h-1q-13 -1 -26 -0.5t-26 0.5h-54h-54h-62.5h-62.5h-51.5h-51.5h-21.5h-21.5q-9 0 -16 5.5t-10 14.5t1.5 17t11.5 13t15 11t15 11q63 44 125.5 89
t124.5 89l28 20l28 20q3 2 6.5 5t6.5 5t6 5t6 4v0h0.5t0.5 1q1 0 1.5 0.5l1.5 1.5t2.5 2t2.5 2q4 3 7 5.5t6 4.5q12 10 24 21.5t23 22.5q5 6 10.5 12t10.5 12q0 1 0.5 1.5l1.5 1.5v0.5t1 0.5v0v0q1 1 2 2.5t2 2.5q2 4 4.5 7t4.5 6q4 7 7.5 13.5t7.5 13.5q1 2 1.5 4t1.5 3
q0 1 0.5 1.5t0.5 1.5v0v0v0q1 1 1 1.5v1.5q1 2 2 5t2 5q3 7 5 14.5t4 14.5q1 4 1.5 8t0.5 8l0.5 0.5t0.5 1.5v3v3q1 7 1 15v15q-1 2 -1 4.5v4.5q0 1 -0.5 1.5t-0.5 1.5v-1v0q0 3 -0.5 6.5t-1.5 6.5q-1 4 -2.5 7.5t-2.5 7.5q0 1 -0.5 3t-1.5 3q0 -1 0.5 -1h0.5q-1 0 -1 0.5
v0.5v1v0v0v1q-4 7 -7.5 13t-7.5 12q0 1 -0.5 1h-0.5q0 1 -0.5 1t-0.5 1v0q-1 0 -1 0.5v0.5v0v-1q-1 1 -1.5 2.5t-1.5 2.5l-5 5l-5 5l-3 3t-4 3l-4 3l-1.5 1.5l-0.5 0.5q-1 1 -3 2t-3 2q-7 4 -13 7t-13 7q5 -3 2 -1.5t-4 2.5q-1 0 -3.5 0.5t-3.5 1.5q-4 1 -7 2t-7 2
q-3 1 -6.5 1.5t-7.5 1.5h-1.5h-1.5h-3h-3q-8 1 -16.5 1t-16.5 -1v0q-1 -1 -2 -1h-2t-3.5 -0.5t-3.5 -0.5l-8 -2l-8 -2t-8 -3t-8 -3q-1 0 -3 -1t-3 -1v0q-1 0 -1.5 -0.5t-1.5 -0.5l-14 -8t-13 -8q-2 -1 -4.5 -2.5t-3.5 -2.5v-0.5t-1 -0.5v0h-1v-1h-1v-1v0v1q-2 -2 -5 -4.5
t-5 -4.5l-6 -6t-5 -6q-3 -2 -5 -5.5t-5 -5.5l-1 -1l-1 -1t-2 -3.5t-2 -3.5l-4 -6t-3 -6l-2 -4t-2 -3q0 -1 -0.5 -1.5t-0.5 -1.5q-1 -3 -2 -6.5t-2 -7.5l-2 -8l-2 -8q1 7 0.5 3t-0.5 -6v-3v-3v-8.5t1 -8.5v-0.5v-1.5v1q-1 4 -0.5 2t0.5 -3q0 -2 0.5 -4t1.5 -3q1 -4 2 -7.5
t2 -7.5q1 -1 1 -1.5v-1.5q1 -1 2 -3l2 -4q6 -10 3 -20.5t-12 -16.5q-10 -6 -21 -2.5t-16 12.5q-5 8 -9 17t-6 18q-10 36 -2 73t30 66q21 31 51.5 52.5t65.5 34.5q33 11 69.5 11.5t69.5 -10.5q33 -12 61 -33.5t45 -51.5q18 -30 23 -64.5t0.5 -68.5t-18 -66.5t-32.5 -60.5z
M504 599v0v0q-1 4 -1 3t1 -2v0v-1zM498 461v-1.5t-1 -1.5v0q1 3 1.5 3.5t-0.5 -0.5z" />
    <glyph glyph-name="three" unicode="3" horiz-adv-x="585" 
d="M386 252v0q-1 4 -0.5 3t0.5 -3zM578 721q3 -7 2 -15.5t-7 -13.5v-0.5t-1 -0.5q-10 -10 -20.5 -18.5t-20.5 -17.5q-22 -19 -43.5 -38t-43.5 -38l-50 -44l-50 -44q-16 -14 -33 -29t-33 -29q40 -8 75 -32t57 -58q13 -22 21.5 -48.5t9.5 -52.5t-5 -52t-17 -49
q-22 -45 -64 -77t-90 -44q-52 -14 -107.5 -4t-96.5 46q-37 33 -54.5 83t-4.5 99q3 10 13 15.5t20 2.5q11 -2 16.5 -12.5t2.5 -20.5q-1 -2 -1 -5t-1 -5v-2.5t-1 -2.5v-9.5v-10.5v-3t1 -3q-1 1 -0.5 0t0.5 -2v-0.5v-1.5v1.5v0.5v-1q0 -1 0.5 -2.5t0.5 -2.5q1 -5 2.5 -10.5
t2.5 -10.5q1 -1 1.5 -2.5t0.5 -2.5l1 -1v-1q1 -3 0 -0.5l-1 2.5q0 -1 1.5 -4l2.5 -5q3 -4 5.5 -8.5t5.5 -8.5q1 -1 1.5 -3t1.5 -3h1v-1v1l-1 1q1 -2 3 -4t3 -4l7.5 -7.5l7.5 -7.5q1 -1 2.5 -1.5t2.5 -1.5v0q1 -1 3.5 -3t4.5 -3q4 -3 9.5 -6t10.5 -5q1 -1 2 -1t2 -1h1l1 -1
q2 -1 4.5 -1.5t5.5 -1.5q5 -1 10.5 -3t11.5 -3q1 0 3 -0.5t3 -0.5h1.5h1.5q2 -1 -0.5 -0.5l-2.5 0.5q3 -1 6 -1h5q6 -1 12 -1t12 1h6h6q1 1 2.5 1h2.5v0q11 1 22.5 4.5t22.5 7.5q1 0 2 0.5t2 1.5h1v0q3 1 5.5 2.5t4.5 2.5q4 2 9.5 4.5t9.5 5.5q2 1 4.5 3t4.5 4q1 0 2 0.5
t2 1.5q0 1 0.5 1h0.5q4 3 7.5 6.5t7.5 6.5q4 4 7.5 8t7.5 8q1 1 1.5 2.5t1.5 2.5t3 3.5t3 4.5q3 4 6 9t5 9q1 3 2.5 5.5t2.5 4.5q0 1 0.5 2t0.5 2q2 5 4 10.5t3 10.5q0 3 0.5 5.5t1.5 5.5v1v2v2q1 6 1 11.5v11.5q0 3 -0.5 5.5t-0.5 5.5v1v0v0v-1v2.5t-1 2.5q-1 5 -2.5 10.5
t-2.5 10.5q-1 3 -1.5 6t-1.5 6q-1 1 -1.5 2t-0.5 2v0v1q-2 4 -5 9.5t-6 9.5q-1 3 -3 5.5t-3 4.5q-1 1 -1 1.5t-1 0.5q-1 1 -1 1.5t-1 0.5q-3 4 -6.5 8t-7.5 8q-2 2 -4.5 4t-4.5 4v0h-1q-1 1 -2 1.5t-2 1.5q-4 3 -9 6l-10 6l-5 2.5l-5 2.5v0h-1q-1 1 -2 1t-2 1q-5 1 -10.5 3
t-11.5 3q-2 1 -5 1.5t-5 0.5q-1 0 -2 0.5t-2 0.5h-1q-6 1 -11.5 1h-11.5h-6t-5 -1h-1.5h-1.5h-1.5h-1.5q-9 -1 -17 1.5t-13 10.5q-4 7 -3 17t7 16h1q10 10 21 19t21 18q21 19 42.5 38t43.5 38q25 22 50 43.5t50 43.5q16 14 32 28.5t32 28.5h-36h-35h-56h-56h-45.5h-46.5
h-18.5h-19.5q-11 0 -18.5 8t-8.5 19q0 10 8.5 18.5t18.5 8.5h1h23h24h48h48h55.5h55.5h46h46h18.5h19.5q8 0 14.5 -5t9.5 -12zM106 95h-0.5t-1.5 1q1 0 1 -0.5t1 -0.5zM225 67v0v0zM79 121v0q2 -2 1.5 -1.5zM52 186v0v1v1v-1v-1z" />
    <glyph glyph-name="four" unicode="4" horiz-adv-x="522" 
d="M520 248q1 -10 -8 -18.5t-19 -8.5v0h-28.5h-28.5h-19h-19q-4 -13 -8 -26.5t-8 -26.5q-7 -25 -15.5 -50.5t-16.5 -50.5q-3 -10 -6 -21t-7 -21q-3 -11 -12.5 -16.5t-20.5 -2.5q-10 2 -16 12.5t-3 20.5v0v1q4 13 8.5 25.5t8.5 25.5q8 27 16.5 53.5t16.5 53.5q1 5 3 11l4 12
h-12h-12h-68h-68h-55.5h-55.5h-24h-23q-8 0 -15 5t-10 12t-1.5 15.5t7.5 13.5v1v0q13 15 27.5 29.5t27.5 28.5q28 29 56.5 58.5t56.5 58.5q32 34 65 68.5t65 68.5l54 56l54 56q11 12 22.5 24t22.5 24q7 8 18.5 7.5t19.5 -7.5t7.5 -19t-7.5 -20h-1q-13 -15 -27 -29.5
t-28 -28.5q-28 -29 -56 -58.5t-56 -59.5q-33 -34 -65.5 -68t-64.5 -68l-54 -56l-54 -56q0 -1 -0.5 -1t-0.5 -1h56h56h68h68h12h12q3 11 6.5 22.5t6.5 22.5q8 25 16.5 51t15.5 51q3 10 6.5 21t6.5 21q4 10 13.5 15.5t19.5 3.5t16 -12.5t3 -20.5v-1v0l-8 -26l-8 -26
q-8 -26 -16.5 -53t-16.5 -53q-1 -4 -2.5 -8t-2.5 -8h16h15h24h23t19 -8t8 -19z" />
    <glyph glyph-name="five" unicode="5" horiz-adv-x="565" 
d="M261 61v0v0v0h1v0h-1zM78 123h-1v0v1v-1h1zM197 61v0v0h0.5t1.5 -1l-1 1h-1zM566 720q0 -11 -8.5 -19t-18.5 -8h-19h-18h-81h-81h-42h-42q-2 -4 -4 -9t-3 -9q-17 -40 -34 -81.5t-33 -81.5q-4 -9 -7.5 -18t-7.5 -19q15 4 30.5 6.5t31.5 3.5q34 1 66.5 -5t63.5 -19
t57.5 -35t43.5 -51q19 -33 25 -71.5t2 -75.5q-4 -34 -15.5 -66t-31.5 -59q-19 -24 -42.5 -42.5t-51.5 -31.5q-28 -12 -57 -18t-59 -6q-29 0 -58 6t-56 17q-25 11 -47 28.5t-38 39.5q-17 22 -25.5 50.5t-8.5 56.5q0 11 8 18.5t19 8.5q11 0 19 -8.5t8 -18.5v-7v-6q1 -1 1 -3
v-3v-1v0q1 -6 2.5 -12t3.5 -11q1 -2 1.5 -4.5t1.5 -3.5q0 -1 0.5 -2l0.5 -1q1 -1 1.5 -3t1.5 -3q2 -5 5 -10t7 -9q-1 0 -1 0.5t-1 1.5q1 -1 1 -1.5t1 -0.5v-1v0l2 -2t-1 2q1 -1 1 -2t1 -2l4.5 -4.5l3.5 -3.5l4.5 -4.5t4.5 -3.5q1 -1 2.5 -2t2.5 -2v0v-1q4 -3 9 -6l10 -6
t10.5 -5.5t10.5 -5.5v0h1q1 -1 2.5 -1t2.5 -1l6 -2l6 -2q6 -1 12 -3t12 -3q3 -1 6.5 -1.5t6.5 -0.5h-1.5h-1.5h1.5h1.5v0q2 -1 3.5 -1t-1.5 0h2h2q13 -1 26 -1t26 1h3t3 1q-4 -1 -3 -1h2l1 1v0h1.5h1.5h-1.5h-0.5q3 0 6 0.5t6 1.5q6 1 12.5 3t12.5 3l6 2t7 2q1 1 3 1.5
t3 1.5h1q5 2 11 5t11 6q6 3 11.5 7t10.5 8v0h1l2 2l2 2q3 2 5.5 4.5l4.5 4.5l9 9t9 10v0.5t1 0.5q1 1 1.5 3t1.5 3l4 6l4 6q1 3 3 6t3 6q1 1 2 3t2 3v1.5v0.5q3 7 5.5 14t4.5 14q1 4 1.5 7.5t1.5 7.5q1 2 1 4.5t1 4.5v1.5v1.5q1 7 1.5 15.5t0.5 16.5v10v9q-1 2 -1 4.5v4.5
v1.5t-1 1.5q-1 8 -3 16.5t-5 16.5q-1 1 -1 3t-1 3t-1 1.5v1.5q-2 3 -4 6.5t-4 7.5q-1 3 -3.5 6t-4.5 7q-1 0 -1 0.5t-1 1.5t-1.5 2t-1.5 2q-5 6 -10.5 11.5t-11.5 9.5q0 1 -0.5 1t-1.5 1t-2.5 2t-2.5 2q-3 1 -6 3.5t-6 3.5q-6 4 -12 7.5t-13 5.5q-1 1 -1.5 1t-1.5 1
q-1 0 -3 0.5t-4 1.5q-3 1 -6.5 2t-7.5 2l-14 4t-14 3q-2 1 -4 1h-3h-1.5h-0.5q-4 1 -7.5 1t-7.5 1h-14h-14h-7.5t-6.5 -1h-4t-3 -1h-1q-7 -1 -13 -2.5t-13 -2.5l-6 -2l-6 -2q-1 -1 -3 -1t-3 -1h-0.5t-0.5 -1q-5 -2 -10 -4.5t-9 -5.5q-1 -1 -2.5 -1.5t-2.5 -1.5v0
q-2 -1 -4 -3t-3 -4q-7 -6 -16 -7t-17 3q-4 2 -7 5.5t-4 7.5t-1.5 9t0.5 9q4 9 7.5 18.5t7.5 18.5q16 41 33.5 82t33.5 82q10 25 21 51t21 51q1 4 3 7.5t6 6.5t8.5 4.5t8.5 1.5h18h19h80.5h80.5h52h51q11 0 18.5 -8t8.5 -19zM60 153v0v1v-1z" />
    <glyph glyph-name="six" unicode="6" horiz-adv-x="517" 
d="M507 668q6 -10 3 -20.5t-12 -16.5q-10 -6 -21 -3t-16 12q-1 3 -3 5t-3 4v1l-2 2l-2 2q-2 1 -4 3.5t-4 3.5l-1 1q-1 1 -2 1.5t-2 1.5q-4 2 -9 5t-9 5h-1h-1q-1 1 -3 1.5t-3 0.5q-2 1 -5 2t-5 1q-3 1 -6 1.5t-7 1.5h-0.5t-1.5 1h-0.5h-1.5h-1h-1.5h-0.5h1q-5 1 -10.5 1
t-11.5 1q-6 0 -11.5 -0.5t-11.5 -1.5h-0.5h-1.5v0h-1h-0.5h-1.5q-3 -1 -6.5 -1.5t-6.5 -1.5q-7 -1 -14 -3.5t-14 -4.5q-2 -1 -4 -1.5t-4 -1.5v0h-1l-1 -1q-3 -1 -6 -2.5t-6 -3.5q-7 -3 -13.5 -7t-12.5 -8q-3 -1 -6.5 -3.5t-6.5 -5.5q-1 -1 -3 -2t-3 -2q-1 0 -1 -0.5v-0.5
q-12 -9 -22.5 -19.5l-20.5 -20.5q-5 -6 -10 -11.5t-9 -11.5l-3 -3l-3 -3v0v-1v0q2 3 1 1.5t-2 -2.5q-1 -2 -3.5 -5t-4.5 -5q-8 -12 -16 -24.5t-15 -25.5q-4 -7 -7 -13.5t-7 -13.5q-1 -3 -3 -6.5t-3 -6.5q-1 -1 -1.5 -3t-0.5 -3l-1 -1v-1v0q-5 -12 -9.5 -24.5t-8.5 -24.5
q1 1 3 2.5t3 2.5q18 13 38 22.5t41 15.5q42 13 88 12t86 -17q21 -8 40.5 -20.5t34.5 -29.5q16 -17 27.5 -38.5t17.5 -44.5q13 -53 -0.5 -109t-46.5 -99q-17 -22 -38.5 -41t-46.5 -32t-54 -19.5t-57 -5.5q-26 1 -52 9t-49 22q-22 14 -41 33.5t-33 41.5q-13 22 -22.5 47
t-13.5 50q-1 10 -1.5 19t-1.5 19v1.5v1.5v2.5v2.5q0 23 2.5 47t6.5 47q10 62 34.5 122t61.5 111q37 53 89.5 96.5t118.5 56.5q26 6 54.5 5.5t55.5 -8t50 -23t37 -40.5zM52 266v1v2v-1.5v-1.5zM123 93q1 0 1 -0.5v-0.5zM160 71q1 0 1.5 -0.5l0.5 -0.5h-0.5t-1.5 1zM80 335
q-1 -1 -1 -1.5t-1 -1.5t-2 -2.5t-2 -2.5q-1 -3 -3 -5.5t-3 -5.5q-1 -2 -3 -5t-3 -6v0h1h-1v-1v0v-1h-1v0v-1t-0.5 -2.5t-1.5 -2.5q-2 -7 -3.5 -13t-2.5 -13l-1 -1v-1v0v-3v-3q-1 -2 -1 -4.5v-4.5q0 -8 0.5 -16.5t1.5 -16.5v-1v-1t0.5 -3t0.5 -3q1 -3 1 -5.5t1 -5.5
q1 -6 3 -11.5t4 -11.5q1 -2 1.5 -4.5t1.5 -4.5l0.5 -0.5t0.5 -1.5t0.5 -1.5t0.5 -1.5v1l-1 1q1 -1 1.5 -2.5t1.5 -2.5q2 -5 4.5 -10t5.5 -10q3 -4 6 -9t7 -9v-1l2 -2l2 -2q1 -2 3.5 -4.5l3.5 -3.5q4 -4 8.5 -8t8.5 -8q1 -1 2 -1.5t2 -1.5v-1q2 -1 4.5 -3t5.5 -3q4 -3 9 -6
t10 -5q1 -1 2.5 -1.5t2.5 -1.5h1q2 -1 4.5 -1.5t4.5 -1.5q5 -2 10.5 -3.5t11.5 -2.5q1 -1 3 -1h3t1 -0.5t1 -0.5h4.5t4.5 -1h12t12 1h4h3v0q3 1 6.5 1t5.5 1q7 1 13 3l12 4q2 1 5 2l6 2v0q1 1 3 1.5t3 1.5q5 2 10.5 5t9.5 6q3 2 5.5 4t5.5 4v0q1 1 2.5 1.5t2.5 1.5
q9 8 17.5 16.5t15.5 18.5q-1 -1 -1.5 -2t0.5 1l1.5 1.5t0.5 1.5q1 1 2 2.5t2 2.5q1 2 3 4.5t3 4.5q3 5 6.5 11t5.5 11l2.5 5t2.5 6v0l1 1q0 1 0.5 2.5t1.5 2.5q1 6 3.5 11.5t3.5 11.5t2.5 12t2.5 12v1v3v3q1 3 1 6v6v12t-1 11v2v2t-0.5 2l-0.5 1q0 3 -0.5 5.5t-1.5 4.5
q-1 5 -2.5 10.5t-3.5 10.5v1.5t-1 1.5v1v1h-1v0q-1 2 -2 4.5t-2 3.5q-2 4 -4.5 8.5t-5.5 8.5q-1 1 -1.5 2t-1.5 2t-2.5 3t-2.5 3q-3 4 -6.5 7.5t-7.5 6.5q-1 1 -2 1.5t-2 1.5v0q-1 1 -3 2.5t-3 2.5q-4 2 -8 4.5t-8 4.5q-2 1 -4.5 2.5t-4.5 2.5q-1 0 -2 0.5t-2 0.5
q-8 4 -17 7t-19 4q-2 1 -4.5 1t-4.5 1q1 0 -0.5 0h-2.5q-1 1 -1.5 1h-0.5h0.5t0.5 -1v1v0q-5 0 -10 0.5t-10 0.5q-10 0 -20 -0.5t-20 -1.5h-2h-2q-2 -1 -4.5 -1.5t-5.5 -0.5q-4 -1 -9 -2.5t-10 -2.5q-4 -1 -9 -3t-9 -3q-1 -1 -2.5 -1t-2.5 -1h-1v0q-1 -1 -3.5 -1.5
t-3.5 -1.5q-9 -4 -17.5 -9.5t-16.5 -10.5l-1.5 -1.5t-1.5 -0.5q0 -1 -0.5 -1.5t-1.5 -0.5q-2 -2 -5 -4.5t-5 -4.5l-5 -5l-5 -5q-1 -1 -2 -2.5t-2 -2.5l-0.5 -0.5l-1.5 -1.5q0 -1 -0.5 -1t-0.5 -1zM225 635q1 1 2.5 2t-1.5 -1zM332 684h1.5h2.5h-2h-2zM455 649l1 -1v0v0z
M384 684v0h1.5h1.5h-1h-3h1v0zM67 168q0 1 -0.5 1t-0.5 1l0.5 -1t0.5 -2v0v1v0v0zM62 305q-1 -4 -1 -3.5v1.5q1 0 1 0.5v0.5v1zM273 405v0h1h-2h-2h1h1h1z" />
    <glyph glyph-name="seven" unicode="7" horiz-adv-x="532" 
d="M528 725q3 -7 1.5 -15t-7.5 -14v-1v0q-5 -6 -10 -11.5t-9 -10.5q-10 -11 -19.5 -22.5t-19.5 -23.5q-14 -16 -28 -32.5t-27 -32.5q-16 -19 -32 -39.5t-32 -39.5q-18 -22 -35.5 -44t-34.5 -44q-1 -1 -1.5 -2.5t-1.5 -2.5q-1 0 -1.5 -0.5t-0.5 -1.5q-2 -3 -4.5 -5.5
t-4.5 -5.5q-4 -6 -8.5 -11.5t-8.5 -11.5q-8 -11 -17 -22.5t-17 -23.5l-32 -44t-31 -44q-13 -20 -26 -40.5t-25 -41.5q-5 -9 -10.5 -18t-9.5 -18q-2 -4 -4.5 -8.5t-4.5 -8.5q-1 -1 -1.5 -3.5t-1.5 -4.5l-1 -1v-1q-3 -7 -5.5 -14t-4.5 -14q0 -2 -0.5 -4.5t-1.5 -5.5v0v-2.5
v-2.5q0 -11 -8 -19t-19 -8q-11 -1 -19 8t-8 19q0 4 0.5 8.5t1.5 8.5q2 16 8 31.5t13 29.5q8 19 18.5 37t20.5 36q13 21 27 42l28 42q16 22 32.5 45t32.5 45l36 48t37 48q17 22 34.5 43.5t34.5 42.5q16 19 32 38.5t32 38.5q13 16 25.5 31t25.5 31l4.5 4.5t4.5 5.5h-49h-49
h-60.5h-60.5h-50h-50h-11.5h-10.5l-22 -70t-22 -69q-3 -11 -12.5 -16.5t-20.5 -2.5q-10 2 -16 12.5t-3 20.5q1 4 3 9.5t4 10.5q10 34 21 69l22 70q2 8 9.5 14t16.5 6v0h1h25.5h24.5h52.5h52.5h61h60h50.5h50.5h20.5h20.5q8 0 15 -5t10 -12z" />
    <glyph glyph-name="eight" unicode="8" horiz-adv-x="517" 
d="M410 493v0v0.5t1 0.5q-1 0 -1 -0.5v-0.5v0zM418 674v0v0h-1h1zM478 688q16 -22 21.5 -48.5t3.5 -52.5q-2 -29 -12 -56.5t-26 -52.5t-38.5 -46.5t-48.5 -36.5q1 0 1 -0.5t1 -0.5q14 -8 26 -19t22 -24q17 -22 23.5 -51t4.5 -57q-2 -32 -13.5 -62.5t-29.5 -57.5
q-19 -28 -45 -51.5t-57 -39.5q-34 -18 -72.5 -25t-76.5 -4q-34 4 -68 16t-58 38q-20 22 -30 50.5t-9 58.5q1 31 11 61.5t26 56.5q18 29 42.5 53.5t53.5 41.5q7 4 13.5 8t13.5 7q-7 4 -14 10t-13 13q-18 21 -27 47t-8 54q0 28 9 55.5t23 52.5q16 27 38 49.5t47 38.5
q28 17 60.5 26.5t66.5 9.5q10 0 19 -1t19 -2q31 -4 57 -19t44 -40zM431 661q-1 1 -1 0.5t1 -1.5v1v0zM433 658v0v0zM156 476v0q-1 3 -1 2t1 -2zM402 275v0q0 1 -0.5 2t0.5 -2zM382 323q-1 1 -1.5 2t-1.5 2l-4.5 4.5l-4.5 4.5q-1 1 -2 1.5t-2 1.5v0l-1 1q-2 1 -5 3.5t-6 3.5
t-6 3t-6 3h-0.5t-1.5 1q-1 0 -3 0.5t-4 1.5q-7 2 -15 4t-15 3h-1.5h-1.5q-2 1 -4.5 1h-4.5q-4 1 -9.5 1h-9.5h-8.5t-8.5 -1h-4.5t-4.5 -1h-3h-3q-7 -1 -14 -3t-14 -3q-4 -1 -8 -2.5t-8 -2.5q-2 -1 -4 -1.5t-4 -1.5l-1 -1h-1q-7 -4 -14 -7t-14 -7q-3 -2 -6 -4.5t-7 -4.5
q-1 -1 -3 -2t-3 -2t-2 -1.5t-2 -1.5q-11 -9 -21 -19t-19 -21l-1 -1v0v0l-1.5 -1.5t-0.5 -1.5l0.5 0.5t0.5 1.5q-1 -1 -2 -2.5t-2 -2.5q-1 -3 -3.5 -6t-4.5 -6q-4 -7 -7 -13t-6 -13q-1 -1 -1.5 -2t-0.5 -2l-1 -2q-1 -4 -2.5 -7t-2.5 -6q-2 -7 -4 -13t-3 -13q0 -1 -0.5 -3
t-0.5 -3v0v-1q0 -3 -0.5 -6t-0.5 -6v-12t1 -11v-1v-1q1 -1 1 -3v-3q1 -2 1.5 -5t1.5 -6q1 -1 1.5 -3t1.5 -3v-1q1 -2 2 -4.5t2 -4.5t3.5 -5t3.5 -5v-1l2 -2l2 -2q1 -2 3.5 -4.5t4.5 -3.5q1 -1 2.5 -2t2.5 -2v0v-1q6 -4 12 -7l12 -6v0h-0.5t-1.5 1q1 -1 1.5 -1t1.5 -1v0
q1 -1 2 -1t-1 1q1 -1 3 -1.5t3 -0.5q4 -1 7.5 -2.5t7.5 -2.5t8 -1.5t8 -1.5q1 0 2 -0.5t2 -0.5h4h3q10 -1 19 -1.5t19 0.5h8.5t8.5 1q-2 -1 -0.5 -0.5t2.5 0.5h1.5h1.5h-1.5h-1.5h1q1 1 3.5 1t4.5 1q8 1 16.5 3t15.5 5q4 1 7 2.5t7 2.5q-6 -2 -2 -0.5t6 2.5q1 1 3 1.5t3 1.5
q7 4 13.5 8t13.5 8q1 1 3.5 2.5t3.5 2.5q1 0 1 0.5t1 0.5q3 2 5.5 4.5t5.5 4.5q5 5 11 10.5t10 11.5q2 2 4.5 5t4.5 5q1 1 1 1.5t1 1.5t2 2.5t2 2.5q4 6 7.5 12.5t7.5 12.5q1 3 3 6.5t3 6.5q1 1 1 1.5v1.5q1 1 1.5 2t0.5 2q2 7 4.5 13.5t3.5 13.5q1 3 1.5 6t1.5 7v1.5t1 1.5
v2v2q1 6 1 12.5v12.5q0 1 -0.5 3t-0.5 4v0.5v1.5q-1 2 -1 4.5t-1 4.5q-1 3 -1.5 6t-1.5 6q-1 1 -1 3t-1 3v0q-3 5 -5.5 10.5t-6.5 9.5v0l0.5 -0.5l1.5 -1.5l-1.5 1.5t-0.5 1.5v0l-2 2t1 -2zM95 278v0v0zM449 585q1 6 1 12t-1 12v4.5v4.5l-1 1v1v2.5t-1 2.5q-1 2 -1.5 5
t-1.5 5q0 1 -0.5 3t-0.5 3v0q-3 4 -5 9t-5 9h-1q-1 1 -1 1.5t-1 1.5q-2 2 -4 4.5t-4 3.5l-2 2l-2 2l1 -1l-1 1v0v0q-1 0 -1 0.5t-1 0.5q1 0 1 -0.5v-0.5q-2 1 -4.5 3t-4.5 3t-5 3t-5 3q0 -1 0.5 -1h1.5h-1.5t-1.5 1v0q-1 1 -2 1.5t0 -0.5q-1 0 -2 0.5t-2 0.5q-7 2 -13.5 4
t-13.5 3v0h-1h-4h-4q-4 1 -8 1h-8h-8t-8 -1h-3h-4h-1h-1q-7 -1 -14 -3t-14 -3q-3 -1 -6.5 -2.5t-6.5 -2.5q-1 -1 -3 -1t-3 -1l-1 -1q-7 -3 -13 -6t-12 -7q-3 -1 -6 -3.5t-5 -4.5q-1 -1 -2.5 -1.5t-2.5 -1.5l-1 -1h-1q-5 -4 -10 -9t-10 -9q-2 -3 -4.5 -5.5l-4.5 -4.5
q-1 -1 -2 -3t-2 -3q-1 0 -1.5 -0.5t-0.5 -1.5l-1 -1v0q0 -1 -0.5 -1t-1.5 -1t-1.5 -2.5t-1.5 -2.5l-4 -6t-3 -6q-4 -5 -7 -10.5t-5 -11.5q-1 -1 -1 -1.5v-0.5q-1 -1 -1 -2t-1 -2l-2 -6l-2 -6q-1 -5 -3 -11t-3 -12v-2.5v-2.5v0v-1q-1 -2 -1 -5v-6v-10.5t1 -10.5v0v-1v-2.5
t1 -2.5q0 -2 0.5 -5t1.5 -5t1.5 -4t1.5 -3q0 -1 0.5 -1.5t0.5 -1.5q1 -1 1 -2t1 -2q1 -2 3 -4.5t3 -4.5v-1l1 -1q-1 2 -1 1.5t1 -1.5q0 -1 0.5 -1.5l1.5 -1.5q-1 1 -1.5 2l-0.5 1l0.5 -0.5t0.5 -1.5q2 -2 4.5 -4t3.5 -4q1 -1 2.5 -2t2.5 -2v0q4 -4 9.5 -7t10.5 -5h0.5
t0.5 -1q1 0 2.5 -0.5t2.5 -0.5l6 -2t7 -2q3 -1 6.5 -2t7.5 -1q1 -1 2 -1h2v0h1v0h2t2 -1q8 -1 16.5 -1t16.5 1h7.5t7.5 1h0.5h1.5t3 0.5t4 0.5q7 1 14 3.5t14 4.5q1 1 3 1.5t3 0.5v0.5t1 0.5v0q4 1 7 3t6 3q6 3 12 6.5t11 7.5q1 1 2.5 2t2.5 2l1 1q3 2 6 4.5t5 4.5
q4 4 9 9.5t9 9.5q1 1 2.5 3t2.5 3q-1 -1 -1 -1.5t-1 -0.5q1 0 1 0.5t1 1.5v0q1 1 1.5 2t-0.5 -1q1 2 3.5 5t3.5 5q4 5 7 11t6 11q1 3 2.5 6t2.5 6v0l1 1q0 1 0.5 2.5t1.5 2.5l4 12t3 12q1 3 1.5 6t0.5 6v1l1 1v1.5v1.5zM415 676h1h-1zM166 458v0v0v0zM398 686v0h-1.5t-1.5 1
q1 -1 1.5 -1h0.5h1zM93 276q1 0 1 0.5v0.5v-0.5t-1 -0.5v0zM216 58v0h1h1v0h-0.5h-1.5zM383 323v-1v0q0 1 -0.5 1h-0.5h1zM112 69v0l-1 1q1 -1 1.5 -1h0.5v0h-1z" />
    <glyph glyph-name="nine" unicode="9" horiz-adv-x="519" 
d="M0 77q-6 10 -3 20.5t12 16.5t20.5 2.5t16.5 -12.5q1 -2 3 -4.5t3 -4.5v0l2 -2l2 -2l4 -4l4 -4v0h1l1.5 -1.5l1.5 -1.5q4 -3 9.5 -5.5t9.5 -4.5q1 0 1 -0.5t1 -0.5q1 -1 2.5 -1t2.5 -1q3 -1 6 -1.5t5 -1.5q3 -1 6 -1.5t6 -1.5h1.5h1.5h0.5t1.5 -1h1h1h1h-1q5 0 10.5 -0.5
t11.5 -0.5h11t12 1h1h1h1l0.5 0.5t1.5 0.5q3 0 6.5 0.5t6.5 1.5q7 1 14 3.5t14 4.5q2 1 4 1.5t4 1.5v0.5t1 0.5h1q3 1 6 3t6 3q7 4 13 7.5t13 7.5q3 2 6.5 4.5t6.5 4.5q1 1 3 2.5t3 2.5h0.5t0.5 1q12 9 22.5 19t20.5 21q5 5 10 10.5t9 11.5q1 1 2.5 3t2.5 4h1v0v0
q-2 -3 -1 -1t2 2q1 3 3.5 5.5t3.5 5.5q9 12 17 24.5t15 25.5q4 7 7 13t6 13q2 4 4 7t3 7q1 1 1 3t1 3l1 1v1v0q5 12 9.5 24t8.5 25q-1 -1 -3 -2.5t-3 -2.5q-18 -13 -38 -22.5t-41 -16.5q-42 -13 -88 -12t-86 17q-22 9 -41 21.5t-34 28.5q-16 18 -27.5 39t-17.5 44
q-13 54 0.5 109.5t46.5 98.5q17 22 38.5 41.5t46.5 32.5t53.5 19t56.5 5q27 -1 53 -9t48 -22q23 -14 42 -33.5t33 -41.5q13 -22 22.5 -47t13.5 -50q1 -9 1.5 -18.5t1.5 -18.5v-1.5v-1.5v-2.5v-2.5q0 -24 -2.5 -48t-6.5 -47q-10 -62 -34.5 -122t-61.5 -111q-37 -52 -89.5 -96
t-118.5 -57q-26 -5 -54.5 -4.5t-55.5 8t-50 23t-37 40.5zM455 478v-0.5v-1.5v1.5v0.5zM384 652h-1l-1 1q1 -1 1.5 -1h0.5zM347 674h-1.5h-0.5h0.5h1.5zM427 409q0 1 0.5 1.5l1.5 1.5t2 3t2 3q1 2 3 5t3 5q1 3 3 6t3 6q-1 0 -1 -0.5v-0.5q0 1 0.5 1h0.5v1v1v0q1 1 1.5 3
t1.5 3q1 6 3 12.5t3 13.5l1 1v0v1v3v3q1 2 1 4.5v4.5q0 8 -0.5 16.5t-1.5 16.5v1q0 1 -0.5 3t-0.5 3q-1 3 -1.5 6t-0.5 5q-1 6 -3 12l-4 12q-1 2 -1.5 4t-1.5 4l-0.5 1t-0.5 2l-1 1v1v-1q0 1 -0.5 2t-1.5 2q-2 5 -5 10.5t-5 9.5l-6 10t-7 9v0l-1 1t-1.5 2t-1.5 2l-4 4t-3 4
q-4 4 -8.5 8t-8.5 8q-1 1 -2 1.5t-2 1.5v0q-2 1 -4.5 3.5t-5.5 3.5q-4 3 -9 5.5t-10 4.5q-1 1 -2.5 1.5t-2.5 1.5h-1v0q-2 1 -4.5 2t-4.5 2q-5 1 -11 3t-11 3q-1 0 -3 0.5t-3 0.5h-1h-1q-2 0 -4.5 0.5t-4.5 0.5q-6 1 -12 0.5t-12 -0.5h-4t-3 -1v0h-1q-2 -1 -5.5 -1t-6.5 -1
q-6 -1 -12 -2.5t-12 -3.5q-3 -1 -6 -2.5t-5 -1.5v-1h-1t-2.5 -0.5t-2.5 -1.5q-5 -3 -10.5 -6t-9.5 -6q-3 -1 -6 -3.5t-5 -3.5v-0.5t-1 -0.5q-1 -1 -2 -1.5t-2 -1.5q-9 -7 -17.5 -16t-15.5 -19q1 1 1.5 2t-0.5 -1l-1.5 -1.5l-1.5 -1.5t-1.5 -2t-1.5 -2q-1 -2 -3 -4.5t-3 -5.5
q-4 -5 -7 -10.5t-5 -10.5q-1 -3 -2.5 -6l-2.5 -5q0 -1 -0.5 -1h-0.5q0 -1 -0.5 -2.5t-1.5 -2.5l-4 -12t-3 -12t-2.5 -11.5t-2.5 -11.5v-1v-1v-2.5t-1 -2.5v-6v-6v-12t1 -12v-1.5v-2.5v-1.5v-1.5q1 -2 1.5 -5t1.5 -5q1 -5 2.5 -10.5t3.5 -10.5v-0.5t1 -1.5v-1v-1v0v0
q1 -2 2.5 -4.5t2.5 -4.5q2 -4 4.5 -8.5t5.5 -8.5l1.5 -1.5t0.5 -1.5q1 -2 3 -4l3 -3q3 -4 6.5 -7t7.5 -6l2 -2l2 -2v0q1 -1 3 -2t3 -2q4 -3 8 -5.5t8 -4.5q2 -1 4.5 -2t4.5 -2q1 -1 1.5 -1t1.5 -1q9 -4 18 -6.5t19 -4.5q2 0 4.5 -0.5t4.5 -0.5q-1 0 0.5 -0.5t2.5 -0.5h1.5
h0.5h-1v0q5 -1 10 -1t10 -1q10 0 19.5 0.5t19.5 1.5q1 0 2.5 0.5t2.5 0.5q2 0 4.5 0.5t5.5 1.5q4 1 9 2l10 2q4 1 9 3t9 3q1 1 2.5 1.5t2.5 0.5l1 1v0q1 1 3.5 1.5t3.5 1.5q9 4 17.5 9t16.5 11q1 1 1.5 1t1.5 1q0 1 0.5 1t1.5 1q2 2 5 4.5t5 4.5l4.5 4.5l5.5 5.5q1 1 1.5 2
t1.5 2l1.5 1.5l1.5 1.5v0.5t1 0.5zM282 110q-1 -1 -2.5 -2t1.5 0q0 1 0.5 1t0.5 1zM175 61l-1.5 -0.5t-2.5 -0.5h2t2 1zM51 96v1v-1v0zM123 60v0q-1 1 -1.5 1h-1.5h1t3 -1h-1v0zM440 577v-1.5t1 -1.5q0 1 -0.5 1.5t-1.5 2.5l1 -1v0v0v0zM445 440q1 4 1 3.5t-1 -1.5v-1v-1v0z
M234 339h-0.5t-0.5 1q0 -1 1.5 -1h2.5h-1v0h-1h-1z" />
    <glyph glyph-name="colon" unicode=":" horiz-adv-x="286" 
d="M163 331q11 0 19 8t8 19t-8.5 19t-19.5 8v0q-11 0 -19 -8.5t-8 -19.5q1 -11 9 -18.5t19 -7.5zM95 115q11 0 19 8t8 19q-1 11 -9 19t-19 8v0q-11 0 -19 -8.5t-8 -19.5t8.5 -18.5t19.5 -7.5z" />
    <glyph glyph-name="semicolon" unicode=";" horiz-adv-x="135" 
d="M102 177q11 0 19.5 8.5t7.5 19.5q0 11 -8.5 18.5t-18.5 7.5v0q-11 0 -19.5 -8t-7.5 -19q0 -11 8.5 -19t18.5 -8zM17 8v0q3 11 13 16t20 3t16 -12.5t3 -20.5l-10 -34l-10 -34q-3 -10 -13 -15.5t-20 -3.5t-16 13t-3 21q5 16 10 33.5t10 33.5z" />
    <glyph glyph-name="less" unicode="&#x3c;" horiz-adv-x="385" 
d="M287 75q8 0 15.5 4t11.5 11q7 12 4.5 25.5t-13.5 20.5l-175 114l175 114q11 7 13.5 20.5t-4.5 24.5t-20.5 14t-24.5 -4l-217 -142q-7 -4 -11 -11.5t-4 -15.5t4 -16t11 -12l217 -141q4 -3 9 -4.5t9 -1.5z" />
    <glyph glyph-name="equal" unicode="=" horiz-adv-x="520" 
d="M412 337q11 0 19 8t8 19t-8 19t-19 8h-289q-11 0 -19 -8t-8 -19t8 -19t19 -8h289zM412 108q11 0 19 8t8 19t-8 19t-19 8h-289q-11 0 -19 -8t-8 -19t8 -19t19 -8h289z" />
    <glyph glyph-name="greater" unicode="&#x3e;" horiz-adv-x="410" 
d="M91 75q-8 0 -15.5 4t-12.5 11q-7 12 -4 25.5t14 20.5l175 114l-175 114q-11 7 -14 20.5t4 24.5t21 14t25 -4l217 -142q7 -4 11 -11.5t4 -15.5t-4 -16t-11 -12l-217 -141q-4 -3 -9 -4.5t-9 -1.5z" />
    <glyph glyph-name="question" unicode="?" horiz-adv-x="553" 
d="M465 686q16 -22 20.5 -48.5t-2.5 -56.5v-1v-1q-12 -41 -31.5 -71.5t-43 -53t-49 -39.5t-48.5 -31q-38 -22 -61.5 -41t-31.5 -47q-9 -31 -19 -65.5t-19 -68.5q-3 -12 -13 -19.5t-21 -7.5h-3h-3q-13 3 -20 14t-3 24q9 35 19 70t19 66q14 50 50 78.5t76 51.5q44 27 82 58.5
t57 93.5q8 37 -11 56t-43 23q-34 5 -72 -15.5t-52 -74.5q-4 -13 -15.5 -21t-24.5 -5q-13 2 -20 13t-3 24q13 49 37.5 77t46.5 41q26 17 57.5 23.5t61.5 1.5q25 -4 47 -16.5t36 -31.5zM112 1v0v0v0zM116 66q13 0 22.5 -9.5t8.5 -22.5t-11.5 -23t-23.5 -10t-22.5 9.5
t-8.5 22.5t11.5 23t23.5 10z" />
    <glyph glyph-name="at" unicode="@" horiz-adv-x="902" 
d="M238 437v1l1 1l1 1zM600 123v0q-1 -1 -2.5 -1t2.5 1zM681 497v0q0 -1 0.5 -1.5l0.5 -0.5q1 -1 0.5 -1t-1.5 3zM202 9v0q3 -3 2 -2zM708 450v0v0zM780 380q5 -61 -15 -121.5t-57 -109.5q-16 -21 -35.5 -40.5t-43.5 -31.5q-12 -6 -26 -10t-28 -3q-16 2 -31.5 8.5
t-25.5 19.5q-6 7 -10.5 16t-7.5 19q-15 -16 -33.5 -29t-40.5 -20q-21 -7 -43 -5t-41 14q-19 11 -31.5 29t-18.5 39q-7 23 -6 48t6 48q5 19 13 38.5t19 35.5q12 17 28 31.5t35 24.5q21 10 43 14t45 0q18 -3 35 -12.5t30 -22.5q0 1 0.5 3.5t1.5 3.5q4 11 13 16.5t20 2.5
q10 -2 16 -12.5t3 -20.5q-5 -15 -10 -30.5t-9 -31.5t-7.5 -31.5t-7.5 -31.5q-1 -8 -3 -16.5t-3 -16.5q-1 -4 -1.5 -8t-1.5 -8v-2v-2q-1 -1 -1 -3.5v-3.5q0 -4 -0.5 -8.5t0.5 -8.5v-1.5v-1.5q1 -1 1 -2.5v-2.5q1 -1 1 -3t1 -3v1v0v-1q0 -1 0.5 -1h0.5v-1.5v-0.5q1 -1 1.5 -2
t1.5 -2v-0.5t1 -0.5h-1v1v-1h1v-1v0l1.5 -1.5t0.5 0.5q0 -1 0.5 -1.5l1.5 -1.5v0q1 -1 2.5 -1.5t2.5 -1.5q1 0 1.5 -0.5t1.5 -0.5v0q1 0 1.5 -0.5t1.5 -0.5h2t2 -1h2h2h2.5h2.5v0q2 1 4.5 1.5t4.5 1.5q1 1 3 1t3 1h-1v0h1q2 1 4.5 2.5t4.5 2.5q3 1 5.5 3t4.5 4h0.5t1.5 1
l1.5 1.5t1.5 0.5q4 4 8.5 8t8.5 8t8 9t8 9q1 1 3 3.5t3 3.5v1v0q1 1 1.5 2t1.5 2q8 10 15 21.5t13 23.5q1 3 3.5 6.5t3.5 7.5q1 1 1.5 3t1.5 3v1v1q3 7 5.5 14t4.5 14t4.5 14.5t3.5 14.5q0 3 0.5 6.5t1.5 6.5v2v2q1 1 1 3v4q1 14 0.5 28.5t-1.5 28.5v1v1t-0.5 3t-0.5 4
q-1 3 -1.5 6.5t-1.5 6.5q-1 7 -3.5 13.5t-4.5 13.5q-1 1 -1.5 3.5t-1.5 3.5q0 1 -0.5 2.5t-1.5 2.5q0 -1 0.5 -1.5l1.5 -1.5q-1 2 -3 5t-3 6q-3 7 -6 13t-7 11q-2 4 -4 7l-4 6v0h-1v0v1h-0.5t-0.5 1v0v0q-1 1 -1.5 2t-1.5 2q-4 5 -9 10t-10 9l-5.5 5.5t-5.5 4.5l-1 1
q-1 1 -2.5 2t-2.5 2q-6 4 -11.5 7.5t-11.5 6.5q-3 2 -6.5 4t-6.5 3q-1 1 -3 1.5t-3 1.5l-1.5 0.5t-2.5 0.5q0 1 -0.5 1h-0.5q-1 0 -1.5 0.5t-1.5 0.5q-1 1 -3 1t-3 1l-6 2t-7 2q-6 2 -12.5 4t-13.5 3q-4 1 -7.5 1.5t-6.5 0.5l3 -0.5t-1 0.5h-1.5h-1.5q-1 1 -3 1h-4
q-13 1 -27.5 0.5t-28.5 -1.5h-2h-2q-1 -1 -3 -1h-3q-4 -1 -7 -1.5t-7 -1.5q-7 -1 -14.5 -3.5t-14.5 -4.5q-7 -1 -13.5 -4t-13.5 -6h-1v0h-0.5t-1.5 -1t-3.5 -1.5t-3.5 -1.5q-3 -1 -6 -3t-6 -3q-13 -7 -26 -14.5t-25 -16.5q-1 -1 -2.5 -2t-2.5 -2q-1 0 -1.5 -0.5l-0.5 -0.5
q-2 -2 -4.5 -4t-4.5 -4q-5 -4 -10.5 -8.5t-9.5 -8.5q-10 -9 -19 -19t-17 -20q-1 -1 -2.5 -3t-2.5 -3v0v0q0 -1 -0.5 -1h-0.5v-1h-1h1v0q-1 -2 -3.5 -4t-3.5 -4q-4 -6 -7.5 -11.5t-7.5 -11.5q-7 -11 -13.5 -22.5t-11.5 -23.5q-1 -3 -3 -6.5t-3 -6.5l-0.5 -1t-0.5 -2
q-1 -1 -1.5 -2t-0.5 -2q-2 -6 -4.5 -12.5t-4.5 -12.5q-4 -13 -8 -25.5t-6 -25.5q-1 -7 -2.5 -13.5t-2.5 -13.5v-1.5v-0.5v-1v0v0q-1 -2 -1 -4v-4q-1 -3 -1 -6.5t-1 -7.5q-1 -16 -0.5 -31.5t1.5 -31.5q0 -4 0.5 -7.5t0.5 -7.5q0 -1 0.5 -1.5t0.5 -1.5v-3t1 -4q1 -7 3 -15
t4 -15q1 -7 4 -15t5 -15q1 -1 1.5 -2.5t0.5 -2.5l1 -1v-1q1 -2 2.5 -4.5t2.5 -4.5q4 -10 10 -20t13 -19v0q0 1 -0.5 1t-0.5 1q1 -1 1 -1.5t1 -0.5q1 -1 1.5 -2t1.5 -2q1 -2 3 -4.5t4 -3.5q4 -4 7.5 -8t7.5 -8t8 -7.5t8 -6.5q1 0 1 -0.5v-0.5q1 -1 2.5 -1.5t2.5 -1.5
q2 -1 4.5 -3t4.5 -3q4 -3 9 -6t9 -5q5 -2 10 -5t10 -4q-1 0 -3 0.5t1 -0.5h1.5t1.5 -1q1 0 2 -0.5t2 -0.5q3 -1 5.5 -2t4.5 -2q5 -1 10.5 -3t10.5 -3q3 0 6 -0.5t5 -1.5h2.5t2.5 -1h1.5h1.5q3 -1 -0.5 -0.5l-3.5 0.5q3 -1 6 -0.5t6 -0.5h5h5q5 -1 10.5 -0.5t11.5 0.5h5t6 1
h1.5h1.5v0h1l1 1q11 1 22 4t21 7q1 1 2 1t2 1h1l1 1q2 1 4.5 2t5.5 2q5 3 10.5 6t9.5 6q10 6 20.5 2.5t16.5 -11.5q6 -10 2.5 -21t-12.5 -16q-11 -7 -23 -13.5t-24 -10.5q-47 -19 -98.5 -16t-97.5 22q-45 19 -81.5 54t-58.5 79q-29 60 -33 128t9 131q13 57 39.5 110t63.5 97
q40 47 92 82t111 51q60 16 124.5 9.5t118.5 -40.5q26 -16 48.5 -38.5t38.5 -50.5t25.5 -59t11.5 -62zM406 -78h-2.5h-1.5h2h2zM154 235v0.5v1.5v-0.5v-1.5zM464 577v0v0zM479 338q-1 0 -1 0.5t-1 0.5h0.5t1.5 -1zM489 203q2 4 4.5 8.5t4.5 8.5q1 2 2 4.5t2 4.5q0 1 0.5 2
t1.5 2v0l2 4l2 4q2 10 4 19.5t5 19.5v3.5v3.5v2v2q-1 4 -2 7t-2 7h-0.5t-0.5 1l-0.5 0.5t-0.5 1.5l-2 4t-2 3t-2.5 3t2.5 -2q-1 1 -1.5 1t-0.5 1l-3 3l-3 3l-3 3l-3 3h-1l-1 1l-1 1l-4 2l-4 2q0 1 -0.5 1t-1.5 1v0q-4 1 -9 2t-9 2v0.5t-1 0.5h-1.5h-1.5h-4.5h-4.5h-3t-3 -1
h-0.5h-1.5h-1v0v0v0h-1.5h-1.5q-4 -1 -7.5 -2.5t-7.5 -2.5q-1 0 -2.5 -0.5t-2.5 -0.5q-1 -1 -3 -2t-3 -2q-4 -1 -7.5 -3.5t-7.5 -4.5l-1.5 -1.5l-1.5 -1.5q0 1 0.5 1h0.5h-0.5t-0.5 -1q-1 -1 -3 -2.5t-3 -2.5l-5.5 -5.5t-5.5 -6.5q-1 -1 -1.5 -2t-1.5 -2t-2 -2.5t-2 -2.5
q-2 -4 -4.5 -7.5t-4.5 -7.5q-1 -1 -2 -3.5t-2 -4.5q0 -1 -0.5 -2t-0.5 -2v1v0v0v-1v0q-1 -1 -1 -1.5v-1.5q-1 -3 -2.5 -6l-2.5 -5q-2 -9 -4.5 -17.5t-3.5 -17.5v0v-1v0v-1t-0.5 -1.5t-0.5 -1.5v-4.5v-4.5v-10v-9v-1.5v-0.5q1 -1 1 -2v-2q1 -2 1 -4.5t1 -5.5q1 -1 1.5 -3.5
t1.5 -3.5q0 -1 0.5 -1.5t0.5 -1.5v1q1 -4 3.5 -7t4.5 -7l1 -1q1 -1 2.5 -3t2.5 -3t3 -2.5t4 -2.5q-5 4 -2.5 2t3.5 -3t3 -2t3 -2v0l-1 1l1 -1v0h1v0q1 0 1 -0.5t1 -0.5v0q2 -1 4 -1t4 -1h-1h1h1v0h1h1v0h4h4h1h1l8 2l8 2q1 0 2 0.5t2 0.5q1 1 2.5 1.5t2.5 1.5q4 2 7.5 4.5
t7.5 4.5q0 1 0.5 1h1.5v1h1v1h1v0v0q1 1 3 2.5t3 2.5l6 6t6 7q1 0 6 6l5 6l-2 -2l1 1l1 1q1 1 1.5 2t1.5 2q1 2 2.5 4t2.5 4q2 3 4.5 6.5t4.5 7.5zM567 121l0.5 -0.5t1.5 -0.5q-1 1 -1.5 1h-0.5zM574 119h0.5t0.5 -1q0 1 -0.5 1h-0.5zM585 118h-1v0v0h1zM704 248v0v0z
M725 321v0v-1v1v0zM725 323v0q1 1 0.5 1t-0.5 -1zM554 135v1l-1 1v0q1 -1 1.5 -2t-0.5 -1v1v0zM560 127q-1 0 -1.5 0.5t-0.5 1.5v0q1 -1 1 -1.5t1 -0.5zM347 161q-1 1 -1 2.5t1 -2.5v0zM375 130q3 0 3.5 -0.5t-0.5 -0.5q-1 1 -1.5 1h-1.5v0zM386 127h3h-1h-0.5h-1.5v0z
M443 342q1 0 0.5 0h-3.5v0h1.5h1.5zM355 268q-1 -2 -1 -2.5v-0.5v1.5t1 1.5v0zM394 322v0q1 1 1.5 1t-1.5 -1zM441 145q-1 0 -1 0.5t3 1.5v0q-1 0 -1.5 -0.5t-0.5 -1.5z" />
    <glyph glyph-name="A" unicode="A" horiz-adv-x="639" 
d="M669 747q8 -4 12 -13.5t1 -17.5q-8 -24 -16.5 -48t-17.5 -49q-22 -66 -45.5 -132t-45.5 -132l-8 -24l-8 -24q1 1 2 2.5t2 2.5t3 3.5t3 3.5q-4 -5 -1.5 -1.5t3.5 4.5q6 9 16.5 12t20.5 -3q9 -4 12 -16t-3 -21q-6 -8 -12.5 -16.5t-13.5 -15.5q-14 -15 -31 -28t-34 -25
q-16 -47 -31.5 -94.5t-30.5 -94.5q-4 -10 -13 -15.5t-20 -3.5q-10 3 -16 13.5t-3 20.5q2 7 5 15.5t4 16.5q4 16 7.5 33.5t6.5 34.5v1.5t1 0.5v2.5v2.5t0.5 3.5t0.5 3.5q0 3 0.5 6t0.5 5q-33 -15 -67.5 -25t-70.5 -11q-28 -1 -56 5.5t-52 20.5v0h-1q-32 -36 -64 -71.5
t-63 -71.5q-7 -9 -19 -8t-19 8q-9 7 -8 18.5t8 19.5q4 4 7.5 8.5t7.5 8.5q27 31 54 61.5t55 60.5q-19 21 -30.5 47.5t-14.5 54.5q-4 26 1.5 53.5t18.5 50.5q14 26 37 44.5t51 28.5q37 13 76 8t73 -23l10 -6t9 -6q13 15 27 30t27 30l60 66l60 66q25 28 50 57t50 57
q6 7 15.5 8t16.5 -3zM341 386l2 -2l-1 1v0l-1 1v0zM204 409v0q-2 -1 -3 -1t3 1zM182 396q-1 0 -1.5 -0.5l-1.5 -1.5l1 0.5t2 1.5zM139 310q0 -5 0.5 -11t0.5 -11v-1q1 -1 1 -3t1 -3q0 -3 0.5 -5.5t1.5 -5.5t2 -5.5t2 -5.5v-1l1 -1q0 -1 0.5 -2l0.5 -1q3 -6 6 -11.5t6 -10.5
q1 0 1 -0.5t1 -1.5q-1 1 -0.5 0.5l1.5 -1.5q0 -1 0.5 -1.5t0.5 -1.5q0 1 -0.5 1.5l-0.5 0.5l1 -1l1.5 -1.5t0.5 -1.5q29 32 59 64.5t59 64.5q10 10 20 21.5t20 21.5q-1 1 -2 1t-2 1q-4 2 -8 4.5t-8 3.5v0v0v0l-1 1h-1l-0.5 0.5t-1.5 0.5q-2 1 -4.5 1.5t-4.5 1.5q-4 1 -9 2.5
t-9 2.5h-3t-4 1h-2h-2q-7 1 -14.5 1t-14.5 -1q-1 0 -2 -0.5t-2 -0.5t-3.5 -0.5t-3.5 -0.5q-3 -1 -6 -1.5t-6 -1.5q-1 -1 -3 -1.5t-4 -1.5h-1q-2 -1 -4.5 -2.5t-4.5 -2.5q-3 -1 -5.5 -3t-5.5 -3q0 -1 -0.5 -1h-1.5q0 -1 -0.5 -1.5t-1.5 -0.5q-4 -4 -8 -8.5t-8 -8.5h-1v-1
l-1.5 -1.5l-1.5 -1.5q-1 -2 -2.5 -4.5t-2.5 -4.5q-1 -3 -3 -5.5t-3 -5.5v-1q-1 -1 -1 -2t-1 -2q-1 -5 -3 -10.5t-3 -10.5v-2.5t-1 -2.5v0.5t1 0.5l-1 -1v-1v-1v-2v-1v-3.5t-1 -4.5zM150 253q-1 1 -1 2v2q0 -1 0.5 -2t0.5 -2zM370 197q2 1 4.5 2t4.5 2l0.5 0.5t1.5 0.5
q10 4 19.5 9t19.5 10q0 4 -0.5 9t-1.5 9v1v1v1q0 2 -0.5 4.5t-0.5 4.5l-2 8l-2 8q-2 9 -4.5 17.5t-5.5 17.5q-1 1 -1.5 2.5t-0.5 2.5q-1 0 -1 0.5v0.5q-1 1 -1 2.5t-1 2.5q-1 4 -3.5 7.5t-4.5 7.5t-4.5 8t-5.5 8q-1 1 -2 3t-2 3t-1.5 2t-1.5 2t-3 3.5t-3 3.5l-30 -32
t-29 -32q-25 -26 -49 -52.5t-48 -53.5h1l1 -1q1 0 2 -0.5t2 -0.5q8 -4 16.5 -6.5t17.5 -3.5h1h1h2t2 -1h3.5h3.5h10h9h9.5t9.5 1h-1h1v0h1l1 1h0.5h1.5q2 0 4 0.5t4 0.5q10 2 19 4.5t18 5.5q4 1 9.5 3t9.5 3zM417 135v0q-1 -4 -0.5 -3t0.5 3zM469 264q22 66 45 133t46 133
q6 18 12.5 35.5t12.5 35.5q-6 -7 -12 -13.5t-12 -13.5q-30 -33 -60 -66.5t-61 -66.5l-18 -20t-19 -20q16 -16 28 -36t20 -41q7 -14 11 -29.5t7 -30.5zM306 406q-4 1 -3.5 1h1.5t1 -0.5t1 -0.5v0zM165 229q-1 0 -1 0.5v0.5v-0.5t1 -1.5v1v0zM140 322v0v1v-3.5v-1.5v1.5v1.5v1
zM302 179q4 1 3.5 1h-1.5q-1 -1 -1.5 -1h-0.5v0z" />
    <glyph glyph-name="B" unicode="B" horiz-adv-x="611" 
d="M597 508q-7 -34 -29 -63t-51 -48q-12 -8 -24.5 -14.5t-25.5 -10.5q15 -7 28.5 -16.5t25.5 -19.5q8 -7 14.5 -14.5t12.5 -15.5q6 -10 10.5 -20.5t8.5 -20.5q7 -24 8.5 -49.5t-2.5 -50.5q-9 -46 -39.5 -84t-71.5 -59q-20 -10 -41 -17t-43 -10q-25 -3 -49.5 -2t-49.5 5
q-48 9 -92.5 31t-83.5 51q-4 3 -8 7t-5 9t0 10.5t3 10.5v0l1 1q10 31 19 63t19 63q17 57 35 113.5t35 113.5q16 54 33.5 110t33.5 110h-0.5h-1.5h-0.5h-1.5v0h-1.5h-0.5q-2 -1 -4 -1t-3 -1q-4 0 -8 -1l-8 -2q-9 -1 -17.5 -3.5t-16.5 -4.5q-7 -2 -15 -5t-15 -6h1h-1v0h-0.5
t-0.5 -1h-1q-1 -1 -3.5 -1.5t-3.5 -1.5q-3 -1 -6.5 -3t-6.5 -3q-6 -4 -12.5 -7.5t-12.5 -7.5q-3 -2 -6 -4.5t-5 -3.5v0v0l-1 -1v0h-1v-1v0q-1 -1 -3 -2t-3 -2q-5 -4 -10.5 -9.5t-9.5 -10.5l-3 -3l-3 -3t-2.5 -3.5t1.5 2.5q-1 -3 -3.5 -6t-3.5 -6q-4 -6 -7.5 -12t-6.5 -13
q2 4 0.5 1t-1.5 -4q-1 -2 -1.5 -4t-1.5 -4q-1 -3 -2 -6.5t-2 -7.5q-1 -3 -1.5 -6.5t-0.5 -6.5v0v0q0 -1 -0.5 -1h-0.5v-1v0v-1v0v-3.5v-3.5q-1 -7 -1 -15t1 -15v-4.5v-4.5q0 -1 0.5 -1.5t0.5 -1.5v-1.5v-0.5q0 -2 0.5 -5t1.5 -5q1 -7 3.5 -15t4.5 -15q1 -4 2.5 -7.5
t2.5 -7.5l1 -1v0v-1v0v-1h1v0h-1q1 -1 1.5 -3t1.5 -3q4 -7 7.5 -13.5t7.5 -13.5q6 -10 2.5 -20.5t-12.5 -16.5t-20 -2.5t-17 12.5q-4 7 -7.5 14t-7.5 14q-14 31 -22 65.5t-5 69.5q2 35 15.5 67.5t37.5 59.5q22 25 50.5 43t59.5 31q34 14 70 21.5t72 8.5q37 1 74.5 -4.5
t72.5 -17.5q16 -6 32.5 -14t31.5 -18q16 -10 30 -23t25 -29q22 -28 29.5 -63.5t-0.5 -70.5zM52 472v1v0v-1zM446 669q1 0 2.5 -0.5t-1.5 0.5h-1zM227 70v0q-1 1 -1.5 1t1.5 -1zM369 48h-1h-2h1.5h1.5zM365 48v0v-1v1zM420 62h1h-1v0zM479 301l-2 2l1.5 -1.5zM476 303
l-1.5 1.5l-1.5 1.5q-7 5 -16 10.5t-17 9.5q-4 2 -9.5 4t-9.5 4v0v1q-1 0 -2.5 0.5t-2.5 0.5q-2 1 -4.5 2t-4.5 2q-10 4 -20.5 7t-20.5 5l-10 2l-10 2h-3t-3 1h-4.5t-4.5 1h-4t-3 1q-24 2 -48 7t-47 10q-4 -12 -7.5 -24t-6.5 -24q-16 -53 -33 -107t-33 -108
q19 -13 38.5 -23.5t39.5 -19.5l1 -1h1q1 -1 2.5 -1t2.5 -1q2 -1 5 -2t5 -2q5 -1 10.5 -3.5t10.5 -3.5q6 -1 11.5 -2.5t11.5 -2.5q3 -1 6 -1.5t6 -0.5q1 0 2 -0.5t2 -0.5q10 -1 21 -1.5t21 -0.5q5 0 10 0.5t10 1.5v0h2.5h2.5q2 1 4.5 1t4.5 1q9 2 18.5 4.5t18.5 6.5
q1 1 2.5 1t2.5 1q2 1 4.5 2t4.5 2q4 1 8 4t8 5t8.5 5t8.5 6v0l1.5 1.5t1.5 0.5q1 1 3.5 3t3.5 4q4 3 7.5 6.5t6.5 7.5q1 1 1.5 2t1.5 2l0.5 0.5l1.5 1.5l1 1q1 1 1 1.5t1 1.5q3 4 6 9.5t5 9.5l2.5 5l2.5 5q0 -1 -0.5 -1t-0.5 -1q1 1 1 1.5v0.5q1 1 1 2.5t1 2.5q1 5 3 10.5
t3 10.5q0 2 0.5 4.5t0.5 4.5v1v1q1 1 1 2v2v11.5v10.5v5t-1 5v-1l1 -1q-1 1 -1 1.5v1.5v0v1.5v0.5v1.5t-1 1.5q-1 5 -2.5 10.5t-2.5 10.5q-1 3 -2 5.5t-2 4.5v1.5v1.5q-1 1 -1 1.5t-1 1.5q-1 3 -3 6.5t-4 6.5l-1 1l-1 1t-2.5 3t-2.5 3l-6 6l-6 6q-1 1 -3 2.5t-4 2.5z
M339 357h-1h-1h0.5h1.5zM422 334q1 -1 2 -1t-1 1h-1zM505 456q3 3 6 5.5t5 5.5q1 1 2.5 3t2.5 3q1 0 1 0.5v1.5q4 5 8 11t7 13q1 1 1 1.5v1.5q1 1 1.5 3t1.5 3q1 4 2 7t2 7q1 1 1 3.5t1 3.5v1v1q0 3 0.5 6.5t0.5 6.5t-0.5 5.5t-0.5 5.5v0.5v1.5v1v0v1v0v0v-1q0 1 -0.5 1.5
t-0.5 1.5t-0.5 3t-0.5 3q-1 4 -2.5 8t-2.5 8l-0.5 0.5t-0.5 1.5q-1 1 -1.5 3t-1.5 3q-3 6 -6.5 11.5t-7.5 11.5q1 -1 -0.5 1t-2.5 3l-3 3l-3 3q-2 3 -4.5 5.5t-5.5 4.5l-3 3l-3 3q-1 0 -1.5 0.5l-1.5 1.5v0q-3 2 -6 4.5t-7 3.5q-6 4 -13 8l-14 8q-1 1 -4.5 1.5t-4.5 1.5
q0 1 -0.5 1h-0.5q-4 1 -7.5 2.5t-7.5 2.5q-7 3 -15.5 5.5t-16.5 3.5q-8 2 -16.5 4t-16.5 3h-1h-1.5h-1.5q-2 1 -4.5 1h-4.5q-4 1 -8 1h-8q-3 1 -6 1h-6q1 -3 1 -6t-1 -6q-10 -31 -19.5 -63.5t-19.5 -63.5q-10 -32 -19.5 -64t-19.5 -64q7 -1 14 -3t14 -3q9 -1 18 -3t18 -3
q1 -1 3 -1h3h0.5t1.5 -1h2.5h2.5q4 -1 8.5 -1t8.5 -1q10 -1 19 -1h18q4 0 8.5 0.5t8.5 0.5q1 0 3 0.5t4 0.5q1 0 5 0.5t-3 -0.5q8 1 16 3l16 4q4 1 7.5 2t7.5 2q1 1 3.5 1.5t3.5 1.5q1 0 1.5 0.5t1.5 0.5v0q7 3 14 6.5t13 7.5q2 1 4 2.5t4 2.5q0 1 0.5 1t1.5 1q2 2 4.5 4
t4.5 4zM547 555v1v2v0v-1.5v-1.5zM68 414v0v1v1q-1 1 -1 1.5t1 -3.5zM116 633h1v0l1 1q-3 -3 -3 -2.5t1 1.5zM176 667v0v0q-4 -2 -3 -1.5t2 0.5q0 1 0.5 1h0.5zM51 524v0.5t1 1.5v0q-1 -4 -1 -3.5v1.5zM521 222v2v1v-1v-1v0v-1v0zM511 147v0l-1 -1z" />
    <glyph glyph-name="C" unicode="C" horiz-adv-x="648" 
d="M534 519v0q-6 -10 -17.5 -12.5t-21.5 2.5t-12.5 17t2.5 21q1 1 1.5 3t1.5 3t1 1.5v0.5q1 2 0 -0.5l-1 -2.5q1 3 1.5 5.5t1.5 4.5q1 3 1.5 5.5t1.5 4.5v1.5v1.5t-0.5 -2t0.5 -1v3v3v5v6v2.5v2.5t-0.5 3.5t0.5 -1.5q0 -4 -0.5 -0.5t-0.5 4.5t-0.5 2.5t-0.5 2.5
q-1 2 -1.5 4.5t-1.5 5.5q-1 1 -1 3t-1 3q-1 3 0.5 -0.5t-0.5 0.5q-1 2 -2.5 4.5t-2.5 4.5t-3 4.5t-3 5.5q-1 0 -2.5 2.5t0.5 -0.5t1 -1.5t-2 2.5l-8 8l-8 8q-1 1 -2 1.5t-2 1.5l2.5 -1.5t-0.5 0.5q-1 0 -1 0.5t-1 0.5q-2 1 -4.5 3t-4.5 3q-4 3 -9 5.5t-10 4.5q-4 2 0 0.5
t0 -0.5q-1 1 -2.5 1.5t-2.5 0.5q-3 1 -5.5 2t-4.5 1q-5 1 -10.5 2.5t-10.5 2.5q-1 0 -2.5 0.5t-2.5 0.5q-2 0 1 -0.5l3 -0.5q-1 1 -2.5 1h-2.5q-3 0 -6 0.5t-5 0.5h-11h-11h-5.5t-5.5 -1h-2.5h-2.5t-1.5 -0.5t-1.5 -0.5q-2 0 1 0.5l3 0.5q-3 0 -6 -0.5t-6 -1.5q-2 -1 -5 -1
t-5 -1q-5 -1 -10.5 -3t-9.5 -3q-5 -1 -10.5 -3.5t-10.5 -4.5q-2 -1 1 0.5t1 0.5h-0.5t-1.5 -1q-1 0 -2.5 -0.5t-2.5 -1.5q-2 -1 -4.5 -2t-4.5 -2q-10 -5 -19.5 -11t-18.5 -12q-2 -1 -4.5 -3t-4.5 -3q-1 -1 -2.5 -2t-2.5 -2l-0.5 -0.5t-1.5 -0.5q-1 -1 1 0.5l2 1.5
q-4 -4 -8.5 -7.5t-8.5 -7.5q-8 -7 -16.5 -14.5t-15.5 -15.5q-4 -4 -7.5 -8.5t-6.5 -8.5q-2 -1 -4 -3.5t-3 -4.5q-1 -1 -2 -2.5t-2 -2.5t0.5 1l1.5 2q0 -1 -0.5 -1t-0.5 -1q-11 -14 -21 -30t-18 -32q-1 -4 -3.5 -8.5t-3.5 -8.5q-1 -1 -1.5 -2.5t-1.5 -2.5l1.5 2.5t0.5 1.5
q0 -1 -0.5 -1.5t-0.5 -1.5q-1 -2 -1.5 -4t-1.5 -4q-4 -9 -7 -18l-6 -18q-2 -9 -4.5 -18t-4.5 -19q-1 -4 -1.5 -9.5t-1.5 -9.5q-1 -3 -1 -5.5t-1 -4.5q0 -2 0.5 1l0.5 3q-1 -1 -1 -1.5v-1.5v-2v-2q-2 -19 -2.5 -38.5t0.5 -38.5q0 -4 0.5 -9.5t1.5 -9.5v-1.5v-1.5t-0.5 2.5
t-0.5 1.5q1 -1 1 -2v-2q0 -2 0.5 -5t1.5 -5q1 -9 3.5 -18t4.5 -18q1 -4 3 -8.5t3 -8.5q1 -2 1.5 -4.5t1.5 -4.5q1 -1 2 -3t-2 4q0 -1 0.5 -2t1.5 -2q4 -8 8 -16.5t9 -15.5q2 -4 4.5 -8t5.5 -7q1 -1 1.5 -2.5t1.5 -2.5q1 0 -1 2t-1 1l0.5 -0.5l1.5 -1.5t2.5 -3t2.5 -4
q7 -7 14.5 -14t14.5 -14q1 -1 2 -1.5t2 -1.5q3 -2 -0.5 0t0.5 0q2 -1 4 -3t4 -3q4 -3 8.5 -5.5t8.5 -5.5q4 -2 9.5 -4.5t9.5 -4.5q1 0 1.5 -0.5t1.5 -0.5q1 -1 -1.5 0l-2.5 1l2 -0.5t3 -1.5q2 -1 4.5 -1.5t4.5 -1.5q9 -3 18.5 -5.5t19.5 -3.5q1 -1 4 -1.5t-1 0.5t-2 0.5
t3 -0.5q2 0 4.5 -0.5t5.5 -0.5h9.5h10.5h9.5h9.5q3 1 5.5 1h5.5q1 0 2 0.5t2 0.5t-2 -0.5t-1 -0.5l0.5 0.5t1.5 0.5q10 1 19.5 3.5t19.5 4.5q5 1 10 3l10 4q2 1 4.5 1.5t5.5 1.5q1 1 2 1t2 1q1 0 1.5 0.5l0.5 0.5q2 1 -0.5 -0.5t-2.5 -0.5q10 3 19 8l18 10t17.5 10.5
t17.5 12.5q1 1 2 1.5t2 1.5q3 2 0 -0.5t-1 -0.5q2 1 4.5 3.5l3.5 3.5q4 4 9 8t9 8q9 8 17.5 16.5t16.5 18.5q4 4 7.5 9t7.5 9q1 1 1 1.5t1 1.5t-0.5 -1.5t-0.5 -0.5q1 1 1.5 2t1.5 2q1 2 3.5 4.5t3.5 5.5q14 19 26.5 40t23.5 42q5 10 17 12.5t21 -2.5q10 -5 12.5 -16.5
t-2.5 -21.5q-5 -11 -11 -22t-13 -21q-27 -44 -60.5 -83.5t-75.5 -70.5q-37 -26 -78.5 -43t-86.5 -23t-89.5 1.5t-84.5 30.5q-37 22 -66 55t-46 73q-17 39 -24 80.5t-6 84.5q2 41 10.5 82t24.5 80q8 19 17.5 37.5t20.5 35.5q12 19 26.5 37t30.5 34q34 34 75 60.5t88 39.5
t99 8t92 -33q22 -16 39 -38t24 -48t5 -54t-15 -52z" />
    <glyph glyph-name="D" unicode="D" horiz-adv-x="693" 
d="M667 527q14 -48 14 -98.5t-10 -98.5q-10 -49 -31 -95.5t-52 -85.5q-16 -22 -36 -42t-42 -36q-21 -16 -44.5 -28.5t-48.5 -22.5q-49 -18 -102 -20t-102 14q-48 15 -89 46t-67 74q-6 10 -2.5 21t12.5 17t20 3t17 -12q6 21 12.5 41.5t12.5 40.5q14 46 29 93t29 93
q16 50 31 100.5t31 100.5q3 11 13 16.5t21 3.5q10 -3 16 -13.5t3 -20.5q-9 -30 -18 -59.5t-18 -59.5q-14 -46 -29 -93t-29 -93q-16 -49 -31 -99.5t-31 -100.5q1 -1 3 -2.5t3 -2.5l1.5 -1.5l1.5 -1.5h1v0q9 -7 18 -13t19 -11q3 -1 5.5 -2.5t5.5 -2.5q1 0 2 -0.5t2 -1.5h1
l10 -4t10 -3q10 -4 21 -6.5t21 -3.5h1v0q1 -1 3 -1h3q2 0 5 -0.5t6 -0.5h12h12t12 0.5t12 1.5h1h1t2.5 0.5t2.5 0.5q3 0 6 0.5t6 1.5q12 2 23.5 5.5t22.5 7.5q3 1 6 2.5t6 2.5v0h1q1 1 2.5 1.5t2.5 1.5q5 2 10.5 5t10.5 5q11 6 21 13l20 14l1 1h1l2 2l2 2q2 1 4.5 3.5
t4.5 3.5l8.5 8.5l8.5 8.5t8 8.5t8 8.5q2 2 4 4.5t4 4.5q1 1 1.5 2t1.5 2l1 1v0q3 5 6.5 10t7.5 9l6 10l6 10q7 10 12.5 21t9.5 21q1 3 2.5 5.5t2.5 5.5v0.5t1 0.5q0 1 0.5 2.5t1.5 2.5q1 5 3.5 11t4.5 11q4 11 7 22.5t5 22.5q1 5 2 10.5t2 10.5q1 2 1 4v3v0.5t1 1.5v1.5v1.5
v2.5t1 2.5q1 11 1.5 23t0.5 23q0 5 -0.5 11t-0.5 11q0 3 -0.5 6t-0.5 6q0 1 -0.5 2.5t-0.5 2.5v0.5v1.5v2t-1 2v2.5v2.5q-1 3 -1.5 5.5t-0.5 5.5q-1 5 -3 11t-3 11t-3 10.5t-3 9.5q-1 3 -2.5 6l-2.5 5v0q0 1 -0.5 2.5t-1.5 2.5q-4 10 -9.5 19.5t-11.5 18.5q-1 3 -3.5 5.5
t-3.5 4.5v0q-1 1 -1.5 2t-1.5 2q-4 4 -7.5 8t-7.5 8t-8 7.5t-8 7.5q-2 1 -4 3l-4 4v0h-1q-1 1 -2 1.5t-2 1.5q-9 7 -18 12.5t-19 10.5q-3 1 -5.5 2.5t-5.5 2.5q-1 0 -2 0.5t-2 1.5h-1v0q-4 2 -9.5 4t-9.5 3q-11 4 -22 7t-22 5q-5 1 -10.5 2t-10.5 2v0h-1v0h-2.5h-2.5
q-3 1 -5.5 1t-5.5 1q-11 1 -22.5 1h-21.5q-6 0 -11.5 -0.5t-11.5 -0.5q-3 -1 -6 -1t-6 -1h-2.5h-2.5h-1l-22 -4t-22 -5t-22 -6.5t-22 -7.5q-1 -1 -2 -1.5t-2 -0.5t-1 -0.5t-1 -0.5q-2 -1 -4.5 -2t-5.5 -2q-5 -3 -10.5 -5.5t-9.5 -5.5l-10 -6t-9 -6q-2 -1 -5 -3.5t-5 -3.5
l-1 -1l-1.5 -1.5t-1.5 -0.5q-9 -7 -17.5 -15t-15.5 -17q-1 -1 -2 -2.5t-2 -2.5l-0.5 -1t-1.5 -1q0 -1 -0.5 -1t-0.5 -1q-1 -1 -1.5 -2t-1.5 -2q-3 -4 -6 -9t-5 -9q-3 -4 -5.5 -9.5t-4.5 -10.5v0v0q-1 -1 -1.5 -2.5t-0.5 -2.5q-1 -3 -2 -5.5t-2 -4.5q-1 -5 -2.5 -10.5
t-2.5 -10.5q-1 -3 -1.5 -5.5t-1.5 -5.5v-2.5v-2.5v0q-1 -10 -1.5 -21t0.5 -22v-2.5t1 -2.5v0q0 -2 0.5 -5t0.5 -5q1 -5 3 -10.5t3 -9.5l2 -6t2 -5q0 -1 -1 1.5t0 1.5v-1.5t1 -0.5q0 -1 0.5 -2.5t1.5 -2.5q2 -4 5 -9.5t6 -9.5q6 -10 2.5 -21t-12.5 -16q-10 -7 -21 -3.5
t-17 12.5q-7 10 -12 21.5t-9 22.5q-16 47 -10 98t29 94q25 45 65.5 77.5t86.5 51.5q45 19 94 26.5t98 3.5q48 -4 95 -18.5t87 -42.5q22 -15 40 -33t33 -40q14 -19 24 -42t17 -46zM53 495v1.5v0.5v-2zM194 666v0v0zM482 118l-1.5 -1.5t0.5 0.5q0 1 0.5 1h0.5z" />
    <glyph glyph-name="E" unicode="E" horiz-adv-x="515" 
d="M279 59v0h-1v0q2 1 2.5 1h0.5q-1 0 -1 -0.5t-1 -0.5zM474 688q15 -19 24 -42t6 -48q-1 -13 -5.5 -25.5t-11.5 -22.5t-16.5 -19t-20.5 -16q-23 -15 -50.5 -18t-53.5 1q-11 1 -16 12t-3 21q1 5 4.5 9.5t7.5 6.5q5 3 10.5 3.5t10.5 -0.5h1v0h3t3 -1h6h6t5.5 0.5t5.5 0.5h1.5
h0.5q1 1 3 1h3q2 1 5 2l6 2h1h1q1 1 2 1.5t2 0.5q2 1 4.5 2.5t4.5 2.5q1 1 1.5 1t0.5 1q1 0 1.5 0.5l0.5 0.5v0h1v1v0v0q1 1 3.5 3t3.5 3t2 2.5t2 2.5t2.5 3.5t2.5 4.5q0 1 0.5 1.5l0.5 0.5q0 1 0.5 1.5l0.5 0.5v1v0v0q1 2 1.5 4.5t1.5 4.5v1v0v2v2v4.5v4.5v1v1v-0.5v-1.5v2
v2q-1 3 -1.5 5.5t-1.5 4.5q0 1 -0.5 2.5t-0.5 2.5v0v-1v0v1q-1 1 -1.5 2l-0.5 1q-1 3 -3 6t-3 6q-1 1 -2 2.5t-2 2.5l1 -1l-1 1v0q0 1 -0.5 1t-1.5 1t-1.5 2t-1.5 2q-3 4 -6.5 6.5t-6.5 6.5h-1v0q-1 1 -2.5 1.5t-2.5 1.5t-3.5 2.5t-4.5 2.5t-4.5 2.5t-4.5 2.5q-1 0 -2 0.5
t-2 0.5v0q-4 2 -9.5 4t-10.5 3q-2 0 -4 0.5t-4 0.5v0v0h-1h-1t-1.5 0.5l-0.5 0.5h-11.5h-10.5h-3t-3 -1h-1.5h-1.5v0h-1h1v0v0h-2t-2 -1q-5 -1 -10 -2.5t-10 -2.5q-1 -1 -2 -1t-2 -1t-3.5 -1.5t-4.5 -1.5q-4 -2 -8.5 -5t-8.5 -6l-1 -1q-1 0 -1 -0.5t-1 -0.5v0v0v0l-3 -3
t-4 -3q-3 -4 -6.5 -7t-6.5 -7v0v0v-1v0q-1 0 -1 -0.5v-0.5l-1 -1l-1 -1t-2 -3t-2 -3l-2.5 -5l-2.5 -5q-1 -1 -1.5 -3t-1.5 -3l-0.5 -0.5t-0.5 -1.5v0v0v-1v1v0q-1 -1 -1 -2.5t-1 -2.5q-1 -2 -1.5 -4.5t-1.5 -4.5q-1 -4 -2 -9.5t-2 -9.5v-2.5v-2.5q-1 -2 -1 -4.5v-5.5v-10.5
t1 -10.5v-2v-2v0v0v0q0 -1 0.5 -1.5t0.5 -1.5v-3t1 -3q1 -5 2.5 -10.5t2.5 -10.5q1 -2 1.5 -4.5t1.5 -4.5q0 -1 0.5 -1.5t0.5 -1.5v1v0v0v-1l1 -1q0 -1 0.5 -1.5t0.5 0.5q1 -4 3 -8l4 -8t4.5 -8t5.5 -8q1 -2 3 -4.5t3 -4.5v0v1q1 -1 1.5 -2t1.5 -2q3 -4 6 -7t6 -7
q7 -7 14.5 -14t14.5 -13q1 0 1.5 -0.5l1.5 -1.5l-1 1h-1q1 0 2 -0.5t2 -1.5t3.5 -3t3.5 -3q4 -3 8 -5.5t8 -4.5q10 -6 12.5 -16.5t-2.5 -20.5t-16.5 -12.5t-20.5 2.5q-5 3 -10.5 6t-10.5 6h-1h-1q-1 1 -2.5 1.5t-2.5 0.5q-3 1 -5.5 2t-5.5 2q-6 1 -12 2.5t-12 2.5l-1.5 0.5
t-2.5 0.5h-1.5h-1.5q-2 1 -5 1h-6h-12t-12 -1h-2.5h-2.5h-1h-1v0q-3 -1 -6 -1.5t-6 -0.5q-6 -1 -12 -3l-12 -4q-1 -1 -3 -1t-3 -1q-1 0 -2 -0.5t-2 -1.5h-1.5t-0.5 -1q-1 0 -2.5 -0.5t-2.5 -1.5q-6 -3 -11.5 -6t-10.5 -7q-1 -1 -2.5 -1.5t-2.5 -1.5q0 -1 -0.5 -1h-0.5
q-2 -1 -4.5 -3.5t-4.5 -3.5q-4 -4 -8 -9t-8 -9l-1 -1l-1 -1t-1.5 -2t-1.5 -2q-1 -2 -3 -4.5t-3 -4.5q-3 -5 -6 -10.5t-5 -10.5q0 -1 -0.5 -1h-0.5v-1v0q-1 -1 -1 -2.5t-1 -2.5q-1 -3 -2 -5.5t-2 -5.5q-1 -6 -2.5 -12t-2.5 -12q-1 -1 -1 -2v-2t-0.5 -1.5l-0.5 -0.5v-6t-1 -7
v-12v-12q1 -1 1 -3v-3v-2.5v-2.5q1 0 1 -0.5v-0.5v-3t1 -3q1 -6 2.5 -12t3.5 -12q1 -2 2 -5t2 -5v-1l1 -1q0 -1 0.5 -2.5t1.5 -2.5q3 -5 6 -10.5t6 -10.5q1 -1 1.5 -2t1.5 -2v0v1v-1l1 -1v0l1 -1q1 -2 3.5 -4t3.5 -4q4 -4 8.5 -8t8.5 -8q1 -1 2.5 -3t2.5 -2l-2 1.5t0 0.5
q1 -1 1.5 -1t0.5 -1q3 -1 5.5 -3t4.5 -3q4 -4 9.5 -6.5t10.5 -5.5q2 -1 4 -1.5t3 -1.5q1 0 1 -0.5t1 -0.5q3 -1 0.5 0l-2.5 1q0 -1 5 -2.5t6 -1.5q5 -2 11 -4t12 -3q3 -1 6 -1t6 -1h1q1 0 2.5 -0.5t2.5 -0.5q5 -1 11 -1h12q3 1 6.5 1h6.5h1t2 1h1.5h1.5q6 1 11.5 2.5
t11.5 3.5q3 1 5.5 2t5.5 2q0 -1 -0.5 -1h-0.5l0.5 0.5t1.5 0.5v0q1 0 1.5 0.5l0.5 0.5q1 0 1.5 0.5l1.5 1.5q6 2 11.5 5t10.5 7q1 1 2.5 2t2.5 2h1l1 1v0h1q1 1 1 1.5t1 0.5q1 1 2.5 2t2.5 2l8.5 8.5l8.5 8.5l4.5 4.5t3.5 5.5v0v0h1q1 1 1.5 2.5t1.5 2.5q4 5 7 10.5t6 10.5
q1 3 2.5 5.5t2.5 5.5q1 1 1 1.5t1 1.5q0 1 0.5 1.5t0.5 1.5q2 6 4 11.5t3 11.5q1 3 1.5 6.5t1.5 6.5v1v2t0.5 2l0.5 1q0 6 0.5 12t-0.5 12q0 12 8.5 19.5t18.5 7.5q11 1 19 -8t8 -19q1 -6 0.5 -12.5t-1.5 -12.5q-5 -57 -39 -106.5t-85 -74.5q-25 -13 -53.5 -18t-56.5 -3
q-28 3 -55 12t-51 24q-23 15 -42.5 36t-32.5 46t-18.5 53.5t-4.5 56.5q4 57 34 108t82 77q24 12 50.5 18.5t54.5 6.5q-13 18 -23.5 37.5t-16.5 41.5q-13 47 -4 96t43 86q33 36 82 49t95 -1q23 -7 44 -20.5t36 -32.5zM346 111l-1 -1v0v0zM316 81l-1 -1t-2 -1q1 0 1.5 0.5z
M64 279l0.5 0.5t0.5 1.5q-1 -1 -1 -1.5v-0.5zM243 377v0l1 -1zM432 654l1.5 -1.5l0.5 -0.5v0q-2 1 -2 2v0zM249 647q0 1 0.5 1t0.5 1v0q-1 -4 -1.5 -3.5t0.5 1.5zM361 693v0v0q-4 0 -3.5 0h1.5h1h1zM450 615v0q-1 3 -0.5 2t0.5 -2zM261 463v0q4 -4 2.5 -2.5zM308 417v0l1 -1
zM84 113h-1v0v1h-1l2.5 -2.5t-0.5 0.5v0v1zM234 621v0q0 1 0.5 1t0.5 1q1 1 0.5 0.5t-1.5 -2.5zM270 669v0h1l1 1t1.5 0.5t-3.5 -1.5zM447 590v0q0 -1 -0.5 -1.5t-0.5 -1.5q-1 -1 -0.5 0zM429 566v-1h-1.5t-1.5 -1t-0.5 0t3.5 2zM326 693v0h1.5h1.5h1h-4zM238 504
q-1 0 -1 0.5t-1 1.5v0q1 -1 1 -1.5t1 -0.5zM226 545q0 1 -0.5 1.5t-0.5 1.5v0q1 -3 1 -3.5t0 0.5zM444 635q1 -1 1 -1.5t1 -1.5v0l-1.5 1.5t-0.5 1.5z" />
    <glyph glyph-name="F" unicode="F" horiz-adv-x="781" 
d="M267 682h1v0v0h1q-4 -1 -3.5 -0.5t1.5 0.5zM186 444v0q2 -1 1.5 -1t-1.5 1zM136 562v0v1v0v1t0.5 1.5t-0.5 -3.5zM478 496v0v1l1 1t1 1.5t-2 -3.5v0zM163 628v1v0v0q-1 -4 -1.5 -3.5t0.5 1.5l1 1v0zM709 650q-1 -1 -2.5 -1.5t2.5 1.5v0zM717 679q-1 1 -1.5 2t-0.5 0
q1 0 1 -0.5t1 -0.5v0v-1v0zM698 644v0q4 2 3 1.5zM719 665v1t1 3v-1v0v-1l-1 -1v-1zM720 671v0v0.5t-1 0.5q1 0 1 -0.5v-0.5zM775 672q1 -22 -10.5 -40.5t-28.5 -30.5q-19 -13 -43 -14.5t-46 2.5q-19 3 -38 8.5t-38 12.5q-6 1 -11.5 3.5t-10.5 3.5q-1 -1 -2.5 -3t-2.5 -3
t-3.5 -4.5t-0.5 -0.5q-2 -3 -4.5 -6t-4.5 -6q-11 -16 -21 -33t-18 -34l-4.5 -9l-4.5 -9q-1 -2 -1.5 -4t-1.5 -4q-1 -1 -1 -1.5v-1.5l-1 -1v-1v0v0q-4 -8 -7 -17t-7 -17q-5 -16 -10.5 -33t-10.5 -33q23 -2 45.5 -6.5t44.5 -11.5q11 -4 16.5 -13.5t3.5 -20.5q-3 -10 -14 -16.5
t-21 -3.5q-13 4 -27.5 8t-29.5 6q-2 1 -4 1h-4h-1h-1q-3 1 -6.5 1.5t-7.5 0.5q-3 0 -5.5 0.5t-5.5 0.5q-1 -7 -3.5 -13.5t-4.5 -13.5q-19 -64 -45 -128.5t-73 -114.5q-27 -28 -61 -47t-74 -24q-35 -4 -71 7t-61 37q-19 21 -28.5 49t-7.5 56q3 31 14.5 58.5t30.5 51.5
q9 10 19 20t21 18q13 10 27.5 20t29.5 18q30 16 62 28t65 19q29 7 59 11t60 5q4 10 7 21t7 21q16 51 39 102t56 94q-18 7 -36 13.5t-36 11.5q-18 6 -37 10.5t-38 7.5q-1 1 -2.5 1h-2.5q-2 0 -4.5 0.5t-4.5 0.5q-4 1 -9 1h-9q-10 1 -19 1t-18 -1q-2 0 -4.5 -0.5t-4.5 -0.5v0
h1h-1h-1v0v0h-1h-1h-1q-4 -1 -8.5 -2t-8.5 -2t-8.5 -2t-8.5 -2q-2 -1 -4.5 -1.5t-3.5 -1.5t-2.5 -1t-2.5 -1q1 1 -1 0t-3 -2q-1 0 -1.5 -0.5t-1.5 -0.5q-2 -1 -4.5 -2.5t-4.5 -2.5q-3 -1 -6.5 -3.5t-6.5 -4.5q-1 -1 -2 -1.5t-2 -1.5t-3 -2.5t-3 -2.5l-6 -6l-6 -6l-2 -2
l-2 -2h1v0h-0.5t-0.5 -1v0l-1 -1t-1.5 -2t-1.5 -2q-2 -4 -4.5 -7t-3.5 -7q-1 -2 -2.5 -4t-2.5 -4q0 -1 -0.5 -2t-0.5 -2q-1 -4 -2.5 -7.5t-2.5 -7.5t-2 -8.5t-2 -8.5v-1v-1v0q0 -1 -0.5 -1h-0.5h1q-1 -1 -1 -3.5v-3.5v-9v-9v-3t1 -4v-2v-2q1 -7 4 -15l6 -16q-2 7 -1 2.5
t2 -5.5t2 -3l2 -4q2 -4 4.5 -7t4.5 -7q1 -1 1 -1.5t1 -1.5t2.5 -3t2.5 -3q2 -3 5 -6t6 -5l3 -3t4 -3v-0.5t1 -0.5q-1 1 -1.5 1h-0.5q1 0 1 -0.5t1 -0.5q4 -3 7.5 -5.5t7.5 -4.5q10 -5 12.5 -16.5t-3.5 -21.5q-5 -10 -16.5 -12.5t-21.5 2.5q-16 10 -30 22.5t-26 28.5
q-23 31 -31.5 69t-1.5 75q7 39 30 72t56 53q34 21 74 28t79 5q40 -3 79.5 -13.5t77.5 -23.5q14 -5 28 -10.5t27 -9.5q7 7 15 13l16 12q17 11 36.5 20.5t38.5 14.5q22 6 44.5 6t43.5 -9q20 -9 33 -27t14 -40zM144 596v0h1h-1v0zM335 242q6 15 11.5 30t9.5 31q3 10 6 19.5
t6 19.5q-7 0 -14 -0.5t-14 -1.5q-2 0 -4.5 -0.5t-4.5 -0.5h-1.5h-1.5q-4 -1 -7.5 -1.5t-6.5 -1.5q-8 -1 -16.5 -3t-16.5 -3q-16 -4 -31.5 -8.5t-31.5 -10.5q-4 -1 -7.5 -3t-7.5 -3h1v1q0 -1 -0.5 -1h-0.5v0h-1v0l-1 -1t-3 -1.5t-3 -1.5q-7 -3 -14.5 -6.5t-14.5 -7.5
t-13.5 -8t-13.5 -8q-3 -2 -6.5 -4.5t-7.5 -4.5q-1 -1 -3 -2.5t-3 -2.5v0v0l-1 -1v0v0h-1h1q-5 -4 -11 -9t-10 -10q-3 -2 -5.5 -4.5l-4.5 -4.5q-1 -1 -2 -2.5t-2 -2.5v0q-4 -5 -7 -10.5t-6 -10.5q-2 -3 -3.5 -6.5t-2.5 -6.5h-1v0q0 -1 -0.5 -2.5t-1.5 -2.5q-1 -6 -3 -12
t-3 -12q-1 -1 -1 -3v-3q0 4 0 2.5t-1 -2.5v-1v-1.5v-0.5v1.5v0.5v-5v-6v-6v-6v-2v-2v-1q1 -5 2.5 -10t3.5 -9q0 -1 0.5 -2t0.5 -2q1 -1 1.5 -2t1.5 -2q1 -2 2.5 -4.5t2.5 -4.5q1 0 1 -0.5t1 -1.5l2 -2l2 -2q1 -2 3.5 -4t4.5 -3q0 -1 0.5 -1t1.5 -1t2.5 -1.5t2.5 -1.5
q3 -1 6 -3.5t6 -3.5h1.5h0.5q1 -1 1.5 -1h1.5h-1.5h-0.5q2 -1 4 -1.5t4 -1.5q4 -1 8 -1.5t8 -1.5q1 0 1 -0.5t1 -0.5h1h1h4.5h3.5q4 -1 9 -0.5t9 0.5h1.5h1.5t1 0.5t1 0.5v0v0h1h-1q2 0 4 0.5t4 0.5l8 2l8 2q3 1 5.5 2t4.5 2q1 0 1.5 0.5t1.5 0.5l8 4l8 4t7.5 4.5t7.5 5.5
q1 1 2.5 2t2.5 2q1 0 1 0.5t1 0.5q6 5 12 11t12 11q2 3 5 6t5 7q1 1 2 2.5t2 2.5q1 0 1.5 0.5t0.5 1.5q10 13 18.5 27t15.5 28q4 7 7 15t7 15h-1v-1q0 1 0.5 1h0.5v1v0q0 1 0.5 1.5l0.5 0.5q1 2 1.5 4t1.5 4q1 3 2.5 6.5t2.5 7.5zM705 688q0 1 -0.5 1t-1.5 1l1.5 -1.5z
M671 692v0q-2 0 -1.5 0h1.5zM688 641q1 1 2 1h1h-1t-2 -1zM720 668v0v1v1v-1v0v0.5v1.5v0v-1v1v1v1q0 2 -1 1.5t0 -2.5q0 1 -0.5 2.5t-0.5 2.5t-0.5 1t-0.5 1l1 -1q0 1 -0.5 1t-0.5 1q-1 0 -1 0.5t-1 0.5v0q-1 1 -1 1.5t-1 1.5t-3 1.5t-3 1.5t-2 1.5t-2 0.5q0 1 -0.5 1h-0.5
q-1 0 -2.5 0.5t-2.5 0.5t-2 0.5t-2 0.5h-3.5t-4.5 1h-4.5t-4.5 -1h-2h-2q-1 -1 -3 -1h-3t-2.5 -0.5t-2.5 -0.5q-2 -1 -4.5 -1t-5.5 -1q-4 -1 -8.5 -3t-8.5 -3q0 -1 -0.5 -1h-1.5q-1 -1 -1.5 -1t-1.5 -1q-2 -1 -4.5 -2t-4.5 -2q-4 -2 -8 -4.5t-8 -5.5q-2 -1 -4.5 -2.5
t-4.5 -2.5q8 -3 17 -5.5t17 -4.5q5 -1 10 -2.5t10 -2.5q2 -1 5 -1.5t5 -0.5q1 0 2.5 -0.5t2.5 -0.5v0q5 -1 10.5 -1h10.5h1h2v1h1q2 1 4.5 1t4.5 1v0v0h-1q1 0 2 0.5t2 0.5q1 1 3 2l4 2q0 1 0.5 1.5t1.5 0.5h-0.5t-0.5 -1l2.5 2.5l2.5 2.5v1v0l1 1l1 1q0 1 0.5 2t1.5 2v0v1
l1 1v1l0.5 1t0.5 2zM326 217q1 4 1 3t-1 -2v0v-1v0v0zM53 154h1h-0.5t-0.5 -1v0v1zM119 257q1 1 2 1.5t-3 -2.5v0l1 1v0zM203 305q-4 -2 -3 -1.5t2 1.5h1v0zM101 64q0 1 0.5 0.5t2.5 -1.5v0q-1 0 -1 0.5v0.5h-0.5h-1.5v0zM161 56q-1 0 -1.5 0.5t3.5 0.5v0h-1z" />
    <glyph glyph-name="G" unicode="G" horiz-adv-x="578" 
d="M298 456v0l1 1zM554 436q9 -4 13.5 -13t1.5 -19q-1 -7 -3.5 -13.5t-4.5 -12.5q-15 -52 -30.5 -105.5t-31.5 -104.5q-15 -50 -31.5 -101t-44.5 -95q-24 -40 -61 -72.5t-83 -44.5q-43 -11 -91 0t-77 48q-14 18 -22 40t-9 45q0 23 7.5 45t23.5 38q7 8 19 7.5t19 -7.5
q8 -7 7.5 -18.5t-7.5 -19.5q-1 -1 -1 -1.5t-1 -1.5t-2.5 -3t-2.5 -4q0 -1 -0.5 -2t-1.5 -2v0q0 -1 -0.5 -1.5l-0.5 -0.5q0 -1 -0.5 -2.5t-0.5 -2.5q-1 -1 -1.5 -3.5t-1.5 -4.5v-2v-2q-1 -4 -1 -8v-8v-2.5t1 -2.5v-4t1 -3q1 -4 2.5 -8t2.5 -8v0q1 -1 1 -2.5t1 -2.5t2 -3l2 -4
q1 -1 3 -3.5t2 -3.5l1.5 -1.5l1.5 -1.5l3 -3l3 -3l2 -2l2 -2q4 -2 7.5 -4.5t7.5 -4.5q1 -1 3 -1.5t3 -1.5v0q1 0 1.5 -0.5t1.5 -0.5q1 -1 2 -1t2 -1l10 -2t9 -2q1 -1 2 -1h2v0h1q2 0 4.5 -0.5t4.5 -0.5h9.5t10.5 1h2h2q2 1 4.5 1t4.5 1q4 1 9.5 2.5t9.5 2.5q1 1 3 1t3 1v0
l4 2l4 2q4 2 9 5t9 5q2 1 4.5 3t4.5 4q1 0 1.5 0.5l1.5 1.5v0q8 7 15.5 14t14.5 15q1 2 3.5 4t3.5 4q0 1 1 1.5t1 1.5h0.5t0.5 1q3 4 6 8.5t6 8.5q6 10 11.5 20t10.5 20q1 3 2.5 6t2.5 6q1 1 1.5 2.5t0.5 2.5q1 0 1 0.5v0.5q2 5 4.5 11t4.5 11q4 11 7.5 23t7.5 23
q8 25 15.5 49t14.5 49q4 12 7.5 24t7.5 24q-19 -19 -40.5 -36t-46.5 -29t-52 -18.5t-55 -5.5q-13 0 -26.5 2.5t-26.5 6.5q-14 5 -27 12.5t-25 17.5q-20 16 -36 38t-26 46q-12 27 -18 56t-7 58v16t1 16q-1 1 -3.5 2.5t-3.5 2.5q-11 8 -22 17.5t-19 19.5q-10 12 -18 25t-13 27
q-10 25 -12 53.5t6 54.5q4 11 13 16t20 3q10 -2 16 -12.5t3 -20.5q-1 -3 -1.5 -6t-1.5 -5q0 -1 -0.5 -3t-0.5 -3v0v-1q-1 -5 -1 -10.5v-10.5q0 -1 0.5 -3.5t0.5 -3.5v0q0 -3 0.5 -5.5t1.5 -5.5q1 -5 3.5 -10.5t3.5 -10.5q0 -1 0.5 -1t0.5 -1q1 -1 1.5 -3t1.5 -3
q1 -2 2.5 -4.5t2.5 -4.5q1 -3 3.5 -5.5t3.5 -5.5v0h1q1 -1 1.5 -2t1.5 -2l8.5 -8.5l8.5 -8.5q0 -1 0.5 -1.5t1.5 -0.5q1 4 3 9.5t3 9.5q10 26 23.5 49.5t30.5 45.5q33 40 77 69.5t93 44.5q30 9 61.5 11.5t61.5 -6.5q26 -7 48.5 -23.5t36.5 -38.5q16 -24 18 -53t-8 -55
t-27 -48.5t-39 -39.5q-42 -34 -93 -54.5t-105 -24.5q-25 -2 -52 0t-52 7q-10 2 -19 5t-19 7v-4v-4q0 -6 0.5 -12.5t1.5 -12.5v-1v-1v0q1 -1 1 -3v-3q1 -3 1.5 -5.5t0.5 -5.5q1 -7 3 -13l4 -12l2 -6l2 -6q1 -1 1.5 -2.5t0.5 -2.5l1 -1q4 -11 10.5 -21.5t13.5 -20.5l0.5 -0.5
t0.5 -1.5q1 -1 1.5 -2t1.5 -2q2 -1 4 -3.5t4 -4.5q4 -4 8 -7.5t8 -7.5q1 0 1 -0.5t1 -0.5q1 -1 2.5 -1.5t2.5 -1.5q2 -1 4.5 -3t5.5 -3q1 -1 2.5 -1.5t2.5 -1.5q1 0 1.5 -0.5t1.5 -0.5q1 -1 1.5 -1h0.5q1 -1 3 -1.5t3 -0.5q5 -2 11 -3t11 -2l1 -1v0h2.5h2.5h5.5h5.5
q5 -1 11 -0.5t11 1.5h1.5h0.5q1 0 3 0.5t3 0.5q2 1 5 1.5t6 1.5q5 1 11 3t11 4q1 0 3 0.5t3 1.5v0v0q3 1 5.5 2.5t5.5 2.5q5 3 10.5 6t10.5 6q2 1 4.5 3t4.5 3q1 1 2.5 2t2.5 2h1v0q10 8 19 16.5t17 17.5q4 4 8 9l8 10q2 2 4 5t5 5v1l2 2l2 2q15 21 28.5 42t26.5 43
q5 9 14.5 12t19.5 -1zM50 615v0v-1v1v0zM51 590l-1 1v0v-0.5t1 -0.5zM60 556q-1 1 -1 2t1 -2v0zM151 474v0v0zM148 475v0h-1h1zM496 584v0v0zM501 602v0v0zM496 639v1v-1zM486 656l2 -3q0 1 -0.5 1.5zM195 578q-1 -1 -0.5 -1t0.5 1v0zM197 580h-1h1v0zM160 517l-2 -6t-2 -5
q-3 -7 -5 -15l-4 -16h1q1 0 1.5 -0.5l0.5 -0.5q11 -4 22 -7.5t22 -6.5l12 -2l12 -2v0h1q1 0 2.5 -0.5t2.5 -0.5h6t5 -1q12 -1 24 -0.5t24 1.5h6t5 1h2h2h-1.5h-1.5h3t3 1q5 1 11 2l12 2q11 3 22.5 6.5t21.5 7.5q1 1 3.5 1.5t3.5 1.5v0v0q2 1 5 2t5 2q5 3 10.5 5.5t10.5 5.5
t10.5 6t9.5 7q3 1 5.5 3t4.5 4q1 1 2 1t2 1q0 1 0.5 1h0.5q10 7 18.5 15.5t16.5 18.5v0.5t1 0.5q0 1 1 2l2 2q1 3 3 5.5t4 4.5q1 3 2.5 5.5t2.5 5.5q1 1 1.5 2.5t1.5 2.5v1q2 5 3.5 10.5t2.5 11.5v0v1q1 1 1 2.5v2.5v5.5t-1 5.5v0v1v0v2.5t-1 2.5q-1 2 -1.5 5t-1.5 5v0v0
q-1 1 -1.5 2.5t-0.5 2.5q-1 2 -2.5 4.5t-2.5 3.5t-1 1.5t-1 1.5v0q-1 1 -1 1.5t-1 0.5q-1 2 -3 4l-4 4q-1 1 -3.5 3t-4.5 4v0q-1 1 -2 1.5t-2 1.5q-4 3 -9 5.5l-9 4.5h-1h-1q-1 1 -2.5 1t-2.5 1q-3 1 -6 1.5t-5 1.5t-4 1t-4 1h-1q-3 0 -6.5 0.5t-6.5 0.5h-13t-13 -1
q-1 0 -2.5 -0.5t-1.5 0.5q-1 -1 -2.5 -1h-2.5q-3 -1 -6.5 -1.5t-6.5 -1.5q-7 -1 -13.5 -3.5t-12.5 -4.5q-3 -1 -6.5 -2t-6.5 -2q-1 -1 -2.5 -1.5t-2.5 -0.5q-5 -2 -10.5 -5t-9.5 -5q-10 -5 -20 -11t-20 -13q-2 -1 -4.5 -3.5t-4.5 -3.5v0h-1l-2 -2l-2 -2q-4 -4 -8.5 -7.5
t-8.5 -7.5q-8 -7 -15.5 -15.5t-14.5 -17.5l-1 -1q-1 -1 -1.5 -2.5t-1.5 -2.5q-1 -2 -3 -4.5t-3 -3.5q-4 -5 -7 -10t-5 -10q-3 -5 -6 -10.5t-5 -10.5q-1 -1 -2 -4.5t1 2.5q-1 -1 -1 -2.5t-1 -2.5zM460 335q0 -1 -1 -2t1 1v1zM140 19q-1 -1 -1 -2t-1 -2l0.5 1.5t1.5 2.5z
M134 -1v-1q0 -1 0 -0.5v1.5zM403 50v0v0zM404 52v0q1 1 0.5 1t-0.5 -1z" />
    <glyph glyph-name="H" unicode="H" horiz-adv-x="679" 
d="M128 169v0v0q-2 -3 -2 -2.5t1 1.5v1h1zM681 747q10 -2 15.5 -12.5t3.5 -20.5q-10 -37 -21 -75.5t-21 -75.5q-19 -67 -37.5 -135t-37.5 -136q-19 -66 -37.5 -134t-36.5 -134q-3 -11 -13 -16t-21 -3q-10 2 -15.5 12.5t-2.5 20.5q10 37 21 75.5t21 75.5t20.5 75t20.5 75v0
q-9 1 -17.5 1h-17.5t-18.5 -0.5t-18.5 -1.5q-4 -1 -9 -1t-9 -1q-3 0 -5.5 -0.5t-5.5 -0.5h-1.5t-1.5 -1q-34 -4 -67 -12.5t-64 -19.5q-4 -1 -8 -3t-8 -3q-1 -1 -2 -1t-2 -1v0q-1 -1 -2.5 -1t-2.5 -1q-7 -3 -13.5 -6.5t-13.5 -6.5q-7 -4 -13.5 -8t-12.5 -8q-4 -2 -7.5 -5
t-7.5 -5q-1 -1 -3 -2.5t-3 -2.5q-1 0 -1.5 -0.5l-1.5 -1.5q-13 -11 -26.5 -23.5t-25.5 -25.5l-12 -14t-11 -14v1v-1v0h-1v-1q-1 -1 -1.5 -1t-0.5 -1q-1 -2 -2.5 -4t-2.5 -3q-3 -4 -5.5 -7.5t-4.5 -7.5q-10 -14 -19.5 -30t-17.5 -32q-1 -4 -3.5 -8.5t-4.5 -8.5
q-1 -1 -1.5 -3.5t-1.5 -3.5q0 -1 -0.5 -1.5t-0.5 -1.5q-4 -8 -7 -16.5t-5 -16.5q-4 -11 -13.5 -16.5t-19.5 -2.5q-10 2 -16 12.5t-3 20.5q10 37 21.5 74.5t21.5 74.5q20 67 40 135.5t40 136.5q19 66 39 133.5t39 134.5q3 10 13 15.5t20 2.5q10 -2 16 -12.5t3 -20.5
q-10 -37 -21.5 -74.5t-21.5 -74.5q-20 -67 -40.5 -135.5t-39.5 -136.5q-4 -14 -9 -29t-9 -29q17 19 36 36t39 32q27 19 58 34t62 26q35 11 71 19t72 12q27 3 54 3.5t54 -1.5q4 16 9 33.5t9 34.5q19 66 37.5 134t37.5 134q3 11 13 16t20 3z" />
    <glyph glyph-name="I" unicode="I" horiz-adv-x="333" 
d="M114 387q-1 0 0 0t3 -1v0v0q-1 0 -1.5 0.5t-1.5 0.5zM124 623v0q1 1 2.5 2t-2.5 -2zM321 404q6 -9 2.5 -20.5t-12.5 -16.5q-30 -18 -63 -30t-68 -14q-2 -9 -5 -17.5t-5 -16.5q-20 -67 -40.5 -135t-40.5 -135q-4 -10 -13.5 -15.5t-20.5 -3.5q-10 3 -15.5 13.5t-2.5 20.5
q11 37 22.5 75t22.5 76q10 35 21.5 70.5t21.5 71.5q-36 7 -66.5 30.5t-45.5 57.5t-16 72.5t14 73.5q15 37 40.5 66t57.5 51q34 23 73 38t79 25q4 1 8.5 1.5t8.5 -0.5q10 -2 16 -12.5t3 -20.5q-11 -37 -22.5 -75.5t-23.5 -75.5q-13 -45 -27 -90t-27 -89h3t3 1q4 1 8.5 2
t8.5 2q5 1 10 3t9 4q1 0 2 0.5t2 0.5l4 2l4 2q8 4 16.5 8.5t16.5 9.5q10 6 20.5 2.5t16.5 -12.5zM127 382q4 -1 7 -2t7 -1q5 19 11 37.5t11 37.5q17 55 34 111t34 111q-10 -3 -19 -6t-17 -7q-1 0 -1.5 -0.5l-0.5 -0.5q-2 -1 -1.5 -0.5t2.5 1.5q-1 0 -2 -0.5t-2 -1.5
q-2 -1 -4.5 -2t-4.5 -2q-5 -2 -10 -4.5t-9 -5.5q-9 -4 -17.5 -9.5t-16.5 -12.5q-1 0 -2 -0.5t-2 -1.5v0v0q-1 -1 -3 -2.5t-3 -2.5q-3 -2 -6 -5t-5 -6q-6 -5 -11.5 -11t-10.5 -12v0q-1 -1 -1.5 -2t-1.5 -2t-2 -3.5t-2 -3.5q-2 -3 -4.5 -6.5t-3.5 -6.5q-2 -4 -4.5 -7.5
t-3.5 -7.5q0 -1 -0.5 -1.5t-0.5 -1.5q-1 -1 -1.5 -3t-1.5 -4l-2 -8l-2 -8q-1 -2 -1 -4t-1 -3v-5.5t0 3.5q0 -8 -1 -16t0 -15q0 -2 0.5 -4.5t0.5 -4.5q-1 7 -0.5 3t1.5 -5q0 -4 1 -7t2 -7t2 -7l2 -6q-1 3 0 0t2 -4t2 -3l2 -4q1 -3 3.5 -6.5t4.5 -6.5q1 0 1 -0.5v-1.5
l2.5 -2.5l2.5 -2.5q3 -3 6.5 -6t6.5 -5q-4 4 -1.5 1.5l3.5 -3.5t3.5 -2t3.5 -2q3 -1 6 -3t6 -3l1 -0.5t2 -0.5v-1v0v0v1q1 -1 1.5 -1t1.5 -1q1 0 3.5 -0.5t3.5 -1.5z" />
    <glyph glyph-name="J" unicode="J" horiz-adv-x="623" 
d="M696 733q9 -8 8 -20t-8 -19q-6 -7 -11.5 -13.5t-11.5 -13.5q0 -1 -0.5 -2t-1.5 -2h-1v0q-1 -2 -2.5 -4t-2.5 -3q-2 -4 -5 -7t-5 -7q-5 -7 -10 -15t-10 -15q-9 -15 -18 -31t-17 -32q-4 -7 -7.5 -15.5t-7.5 -15.5q-2 -4 -4 -9t-4 -9q-1 -2 -1.5 -4t-1.5 -4q-1 -1 -1 -1.5
t-1 -1.5q-7 -16 -13 -33t-12 -33q-27 -74 -50 -149.5t-51 -148.5q-25 -67 -61.5 -132.5t-98.5 -106.5q-27 -18 -60.5 -27.5t-67.5 -8t-65 14.5t-54 39q-24 28 -35 63.5t-7 71.5q4 40 21 75t42 65q7 9 19.5 8t19.5 -8q9 -8 8 -19.5t-8 -19.5q-1 -1 -2.5 -3t-2.5 -4l-1.5 -1.5
l-1.5 -1.5q-2 -3 -4.5 -6t-4.5 -6q-4 -7 -8 -14.5t-8 -14.5q0 -1 -0.5 -2.5t-1.5 -2.5q-1 -2 -1.5 -4t-1.5 -4q-1 -3 -2 -6.5t-2 -7.5t-2 -8.5t-2 -8.5v-1.5t-1 -1.5v1v-1v0v-0.5v-1.5v-1v-1v-2v-2q-1 -7 -1 -15.5t1 -15.5v2v2v-1.5v-1.5t0.5 -1.5t0.5 -1.5q0 -2 0.5 -4.5
t0.5 -3.5q1 -4 2.5 -7.5t2.5 -7.5q0 -1 0.5 -3.5t1.5 -3.5t1 -1.5t1 -1.5q1 -3 3 -6t3 -6q1 -2 2.5 -4.5t2.5 -3.5t1 -1.5t1 -1.5q2 -2 4.5 -5t4.5 -5q1 -1 3.5 -3t3.5 -3l1 -1h1q2 -2 4.5 -4t5.5 -3l6 -4t6 -3h1.5h0.5q1 -1 3.5 -1.5t3.5 -1.5q3 -1 6.5 -1.5t7.5 -1.5
q1 -1 2.5 -1h2.5q-1 0 0 -0.5t2 -0.5h1v0h1h1h-1h-1q7 -1 14 -1h14q2 0 4.5 0.5t4.5 0.5h0.5h1.5q3 1 6 1.5t6 0.5q7 2 14.5 4t14.5 5q1 0 1.5 0.5t1.5 0.5q1 1 2.5 1.5t2.5 1.5q4 1 7 3l6 4q4 1 7 3.5t6 4.5q1 1 3 2l4 2v1h1v0q0 1 0.5 1h0.5v0v0l12 10t11 11t10.5 12
t10.5 12q1 1 1.5 2t1.5 2t2 3t2 3q2 3 4.5 6.5t4.5 6.5q9 13 17 28t15 30q4 7 7 14.5t7 14.5q0 1 0.5 2.5t1.5 2.5v1v-1v0q1 2 1.5 4.5t1.5 4.5l4 8t3 8q7 18 13.5 36t13.5 37q24 70 46 142.5t50 141.5q20 51 45.5 100t56.5 94q-40 -3 -81.5 1t-82.5 8q-21 2 -42 3.5
t-42 1.5q-10 0 -21 -1t-21 -2h-1q-1 0 -2.5 -0.5t-2.5 -0.5q-2 0 -5 -0.5t-5 -1.5q-4 -1 -9 -2t-9 -2q-5 -1 -10.5 -3t-10.5 -3q-1 -1 -2.5 -1.5t-2.5 -0.5v0v0v0l-1 -1h-1q-1 -1 -3.5 -1.5t-3.5 -1.5q-7 -4 -15 -9t-15 -9v-1q-1 0 -1.5 -0.5l-1.5 -1.5q1 1 1.5 1t0.5 1
l-1.5 -1.5l-0.5 -0.5q-1 -1 -2 -1.5t-2 -1.5t-3 -2.5t-3 -2.5q-3 -3 -6 -6.5t-6 -6.5l-4 -4t-3 -4v0v0v0l-1 -1v0q-1 -1 -1 -1.5t-1 -0.5q-2 -4 -4.5 -7.5t-4.5 -6.5q-3 -4 -5.5 -9l-4.5 -9q-1 -2 -2 -4.5t-2 -3.5q0 -1 -0.5 -1.5t-0.5 -1.5v0l1 1h-1l-6 -18t-5 -19
q0 -2 -0.5 -4.5t-0.5 -4.5q-1 -1 -1 -2v-2q-1 -4 -1 -9v-9q-1 -5 -1 -10.5t1 -9.5v-5.5t1 -4.5v-2.5v-2.5q1 -10 3.5 -19.5t5.5 -18.5q1 -5 3.5 -10.5t3.5 -9.5q1 -1 1 -1.5t1 -1.5q1 -2 2 -4.5t2 -4.5q4 -9 9.5 -18t10.5 -17q1 -1 3 -3.5t3 -3.5v-1h1v-1v0v0v0q1 -1 1.5 -2
t1.5 -2q4 -4 7 -7.5t7 -6.5q7 -9 7 -20t-7 -19t-19.5 -8t-19.5 8q-36 36 -57.5 83t-25.5 98q-3 41 8 83t35 76q13 18 28 33.5t34 28.5q18 12 39 21t42 13q45 10 90.5 9t90.5 -5q25 -3 49 -5.5t49 -3.5q13 -1 25 -1t24 1q4 1 7 1t7 1h3h3v0q6 1 11.5 2.5t11.5 2.5
q3 0 6.5 0.5t6.5 -0.5q7 3 15.5 1t14.5 -7zM270 -58v0q-1 0 -1 -0.5v-0.5q-1 -1 -2 -1t3 2zM378 103v0q1 3 1 2t-1 -2zM147 -94h-1h-1.5t-0.5 1l1 -0.5t2 -0.5v0zM52 38v2v2v0q1 -2 0.5 -3zM191 619v0l1 1v0q-2 -4 -2 -3t1 2zM261 673h1l1 1v0l-3 -2zM166 575v0q0 1 0.5 2.5
t-0.5 -2.5zM223 651h1v1q1 0 0.5 0t-1.5 -1zM201 358v1h-1v1q-1 1 -1 1.5t2 -3.5z" />
    <glyph glyph-name="K" unicode="K" horiz-adv-x="652" 
d="M221 371h-2h-2v0h4t0 0zM517 542l-0.5 -0.5t-0.5 -1.5v0q-1 -1 -0.5 0t2.5 3v0zM533 -76h-1v1h-1v0q0 1 0.5 0.5t1.5 -2.5v1v0zM511 -55v1v0l-1 1v0q1 -2 1.5 -2.5t0.5 0.5v0h-1zM657 -74q4 -4 6 -9.5t2 -10.5t-2 -10t-6 -9q-21 -27 -57 -32.5t-66 6.5q-16 6 -29.5 15.5
t-24.5 21.5t-20.5 25.5t-16.5 28.5q-8 15 -15 31l-14 32t-13.5 33t-12.5 34q-23 61 -43.5 125t-36.5 128q-41 -13 -83.5 -18.5t-84.5 -3.5q-2 -6 -4 -11.5t-3 -10.5q-21 -66 -42 -133.5t-41 -133.5q-3 -11 -13 -16t-21 -3q-10 2 -16 13t-3 21q11 37 22.5 73t22.5 73
q10 33 20.5 66.5t20.5 66.5q-4 1 -9.5 1.5t-9.5 1.5q-11 2 -16.5 13t-2.5 21q2 11 12.5 16t20.5 3q6 -1 11.5 -1.5t10.5 -1.5q7 22 14.5 45.5t14.5 46.5q21 66 41.5 133.5t40.5 133.5q4 11 13.5 16.5t20.5 2.5q11 -2 17 -13t3 -21q-11 -36 -22.5 -72.5t-23.5 -73.5
q-15 -50 -31 -101t-32 -101h1.5h0.5q10 0 21.5 0.5t21.5 1.5h4.5t5.5 1h3t3 1v0v-1v1v0v0h2h2q4 1 8 1.5t8 1.5q19 3 37 8t36 11q5 1 10 3.5t9 3.5q1 1 5 2.5t-2 -1.5q2 1 4.5 2t3.5 2q9 4 17.5 8.5t16.5 8.5q16 9 32 19.5t30 21.5v0h1q1 1 1.5 1t1.5 1l3 3t4 3q3 2 5.5 4.5
l5.5 5.5q7 5 13 11l12 12q6 5 11.5 11t10.5 12q3 3 5.5 6.5t5.5 6.5v0.5t1 0.5v1v0l1 1v1v-1v0q1 1 2 2.5t2 2.5q9 13 17.5 26.5t15.5 27.5q1 4 3 7.5t3 6.5q1 1 2.5 5.5t-0.5 -2.5q0 1 0.5 3t1.5 4q3 7 6 15t5 16q5 16 8.5 33t5.5 34q1 5 5 9.5t8 6.5q4 3 10 3.5t11 -0.5
t9.5 -4.5t7.5 -7.5q3 -5 3.5 -10.5t-0.5 -11.5q-6 -39 -18.5 -77t-31.5 -72q-16 -30 -38 -57t-47 -50q-28 -26 -59.5 -48.5t-65.5 -39.5l-12 -6t-12 -5q8 -34 18 -67t20 -65q10 -33 21 -65.5t24 -64.5q6 -16 12 -32.5t13 -32.5q1 -1 1.5 -2.5t1.5 -2.5v-1q1 -1 1 -2t1 -2
q1 -4 2.5 -7t2.5 -6q3 -7 6.5 -13.5t6.5 -12.5q4 -7 7.5 -13t7.5 -12q1 -1 2 -3t2 -3v0l-1 1l1 -1l1 -1v0l1 -1q2 -3 4.5 -5.5l4.5 -4.5q2 -3 4.5 -5.5t5.5 -4.5l1 -1h1v0q0 -1 0.5 -1h0.5h-1q1 0 2 -0.5t2 -1.5q3 -2 5.5 -3.5t5.5 -2.5l1 -1v0q1 0 2.5 -0.5t2.5 -1.5
q3 -1 6 -1.5t6 -1.5h1.5h2.5l1 -1h1h6h6h2t2 1h1v0q3 1 6 1.5t5 1.5h1q1 1 2 1t2 1t2.5 1.5t2.5 1.5v0q2 2 4 4.5t4 4.5q7 9 19.5 8t19.5 -8zM550 -86l1 -1v0v0zM586 -92h0.5h1.5h-1.5h-0.5zM602 -88q0 1 0.5 1h0.5v0zM609 -84h-1v0v0h1z" />
    <glyph glyph-name="L" unicode="L" horiz-adv-x="775" 
d="M51 93v-0.5v-2.5v0v1.5v1.5zM679 692h-1t-2 1v0h1.5t1.5 -1zM602 -96v0h-1h-1l3 -1v0.5t-1 0.5zM212 509v1v0v1.5v0.5v-2v-1zM434 336q-11 -27 -23 -54t-26 -53q-17 -32 -38 -62.5t-45 -58.5q20 -18 40 -36.5t39 -36.5q15 -14 31 -28t32 -27l3.5 -3.5t4.5 -3.5l1 -1
q1 -1 1.5 -1t1.5 -1q4 -3 8.5 -6t8.5 -6q7 -5 15 -10.5t16 -9.5q7 -4 14.5 -7.5t14.5 -7.5h1.5h0.5l1 -1h1v0h0.5t0.5 -1v1h-1q2 -1 4 -1.5t3 -1.5q4 -1 7.5 -2.5t7.5 -2.5q8 -3 16 -5l16 -4q2 0 4.5 -0.5t4.5 -0.5h1v0h1q1 -1 1.5 -1h1.5h-1.5h-0.5q4 0 7.5 -0.5t7.5 -0.5
h16t17 2q-1 -1 -2.5 -1h-2.5h1.5h1.5q1 1 2 1h2t3.5 0.5t3.5 1.5l8 2l8 2q1 1 3 1.5t4 1.5h1.5t0.5 1q4 1 7.5 3.5t7.5 4.5q1 1 3.5 2t3.5 2l1.5 1.5l1.5 1.5q3 2 6.5 5t5.5 6q8 7 19.5 7t19.5 -7q7 -7 7 -19.5t-7 -19.5q-14 -13 -30 -23.5t-34 -17.5q-34 -13 -70 -12
t-70 10q-36 10 -69 27.5t-62 39.5q-33 25 -63.5 54t-61.5 57q-9 8 -18 16.5t-18 16.5q-19 -17 -40 -31.5t-45 -24.5q-22 -9 -45.5 -13t-47.5 0q-19 2 -37 11.5t-30 24.5q-7 8 -12.5 18t-7.5 20q-3 11 -3 22t2 22q4 20 17 37.5t30 28.5q28 19 61.5 20t64.5 -10
q24 -9 46.5 -22.5t42.5 -29.5q2 3 4.5 5.5t4.5 5.5q1 2 3.5 4.5t3.5 4.5l1.5 1.5l1.5 1.5q2 4 5 7t5 7q10 14 19.5 29t18.5 30q10 18 20 37.5t19 38.5q1 3 2 5.5t2 5.5q1 1 1.5 2t0.5 2v1v0q1 1 1 1.5v0.5q-31 1 -61 8.5t-56 22.5q-31 19 -54.5 46.5t-35.5 61.5
q-13 34 -8.5 71t24.5 67q7 9 17 12t20 -2q9 -5 12.5 -17t-2.5 -20q-2 -4 -4.5 -7.5t-4.5 -7.5q-1 -1 -1.5 -3t-1.5 -3q0 -1 -0.5 -1.5t-0.5 -1.5q-1 -4 -2 -7.5t-2 -7.5q-1 -1 -1 -3v-3t-0.5 -1t-0.5 -1v-8v-8v-3t1 -4v0q0 1 -0.5 1.5l-0.5 0.5q1 -1 1 -1.5v-1.5v-1v-1
q1 -7 3.5 -13.5t4.5 -13.5q0 -1 0.5 -1.5t0.5 -1.5q1 -1 2 -3.5t2 -3.5q1 -3 3.5 -6.5t3.5 -6.5q1 -1 2.5 -3t2.5 -3q0 -1 0.5 -1.5l1.5 -1.5q2 -3 4.5 -6t4.5 -5l6 -6t6 -5l2.5 -2.5l2.5 -2.5t1.5 -1t1.5 -1q6 -4 12.5 -8.5t13.5 -7.5q1 -1 3 -1.5t3 -1.5v0h-1h1l1 -1v0
h0.5h1.5v-1q5 -1 10 -3t9 -3q5 -1 10.5 -2.5t10.5 -2.5h4.5t4.5 -1h2.5t2.5 -1q10 -1 19.5 -1t19.5 1v0.5t1 1.5q15 40 30.5 80.5t34.5 79.5q18 37 40.5 73t51.5 66q28 29 69 49t82 4q20 -7 36.5 -22t25.5 -34q8 -19 9.5 -39.5t-3.5 -40.5q-9 -36 -30.5 -67.5t-46.5 -57.5
q-25 -27 -54.5 -51t-62.5 -42q-34 -19 -70.5 -32t-74.5 -19zM88 146q-1 -1 -2 -1t-2 -1l1.5 0.5t2.5 1.5zM212 94q1 1 3.5 3t3.5 3l2 2l2 2q-3 1 -5.5 3.5t-4.5 3.5q-7 4 -13.5 8.5t-13.5 8.5q-4 1 -7 3.5t-7 3.5l-4 2t-3 2h-1.5t-0.5 1q-7 2 -14 4.5t-14 3.5q-1 1 -3 1
t-4 1h1l1 -1l-1 1h-1v0h-2.5t-0.5 0h-6h-6h-2.5h-2.5q1 0 -0.5 0h-2.5v0h-1.5h-1.5h1.5h0.5q-3 -1 -6 -1.5t-6 -1.5q-1 -1 -2 -1h-2v-0.5t-1 -0.5q-1 -1 -1.5 -1t-1.5 -1q-4 -1 -7 -3t-5 -4h-1v-1q-1 0 -1.5 -0.5l-1.5 -1.5t-2.5 -3t-2.5 -3v1v0v-0.5t-1 -0.5v0v-1l-1 -1
q-1 -2 -2.5 -4t-2.5 -4q0 -1 -0.5 -1.5t-0.5 -1.5q-1 -2 -1.5 -4t-1.5 -4v-0.5v-1.5q-1 -1 -1 -1.5v-1.5v0v-1v-1v1v0v-1.5v-1.5v-2v-2v-1v-2v-0.5v-1.5v1.5v0.5v0q1 -1 1 -2v-2q1 -1 1 -2v-2q1 -1 2 -2.5t2 -2.5v-1.5t1 -0.5q0 -1 0.5 -1t0.5 -1v0l1 -1l-1 1l2.5 -2.5
l2.5 -2.5l1.5 -1.5l1.5 -1.5q0 1 -0.5 1h-0.5h0.5t0.5 -1v0q1 -1 1.5 -1h0.5q1 -1 2 -1.5t2 -1.5l4 -2l4 -2q1 0 1.5 -0.5t1.5 -0.5q1 -1 3.5 -1.5t3.5 -0.5q1 -1 4.5 -1t4.5 -1v0h1h2h2h6h5h5t4 1l-3 -1l2 1h1q1 0 3 0.5t3 0.5q5 1 10.5 3t10.5 3q3 1 5.5 2t4.5 2
q1 0 1.5 0.5t1.5 0.5q8 4 15.5 8.5t14.5 8.5q4 3 7.5 5.5t7.5 5.5q-5 -4 -2 -2t4 3zM229 99q-1 1 -1 0.5t3 -1.5v0q-1 0 -1.5 0.5zM485 468l-14 -36l-14 -36q13 3 26 7.5t26 8.5q1 1 2.5 1.5t2.5 0.5q1 1 3.5 2t4.5 2q4 2 8.5 4.5t8.5 3.5q8 4 16.5 9.5t16.5 10.5q4 2 8.5 5
t8.5 6q1 1 3 2.5t4 2.5q1 1 2 1.5t2 1.5v0v-1v1q1 0 1 0.5t1 1.5q3 2 6.5 5t6.5 5q4 3 7 6t7 6q11 10 22.5 21.5t21.5 24.5q2 3 5 6.5t6 6.5q-4 -4 -2 -1.5t3 3.5q1 2 3 4t3 4q4 7 9 14.5t9 14.5l2 4l2 4q1 1 2 5t-1 -2q1 4 2.5 7t2.5 7l2 8l2 8v1v4.5v3.5v4v3v1.5v1.5v1v1
v-1q-1 3 -2 6.5t-2 7.5h-1v1t-0.5 1.5t-0.5 1.5q-1 1 -2.5 3t-2.5 4q-1 0 -1 0.5t-1 1.5l-3 3l-3 3l-1.5 1.5t-1.5 0.5l1 -0.5t2 -1.5l-1.5 1.5t-1.5 0.5q-1 1 -3.5 2.5t-3.5 2.5h-1l-1 1v-1l-1 1h-1v1h-1v0v0q-1 1 -3.5 1t-3.5 1h-1.5h-1.5q1 1 0.5 1h-1.5h-1h-1v0h-1h1v0
h-3.5h-3.5h-4h-4q-1 -1 -2 -1h-2q-2 -1 -4.5 -1.5t-4.5 -1.5q-1 0 -2 -0.5t-2 -0.5q-3 -2 -7 -4l-8 -4q-2 -1 -4.5 -2.5t-3.5 -2.5t-3 -2t-3 -2q0 -1 -0.5 -1t-1.5 -1v0v0v0q-1 -1 -1.5 -1t-1.5 -1l-3 -3t-4 -3q-7 -7 -13 -13.5t-12 -13.5q-1 -2 -3 -4l-4 -4q0 -1 -1 -2
l-2 -2l2 2l-1 -1v-0.5t-1 -0.5q-3 -4 -5.5 -8t-5.5 -8q-11 -16 -21.5 -33.5t-19.5 -35.5q-4 -9 -8.5 -18t-8.5 -18q-2 -5 -4.5 -10t-4.5 -10v-1.5t-1 -1.5q1 1 1 1.5v1.5l-0.5 -2t-1.5 -3t-1.5 -3.5t-1.5 -4.5zM615 671q1 0 1 -0.5t-3 -1.5v0q1 1 1.5 1t0.5 1zM303 401h-1.5
h-0.5h-0.5t-0.5 1q4 -1 4 -1.5t-1 0.5zM701 683v0l-1 1zM692 689h-1.5t-1.5 1v0h1q0 -1 0.5 -1h1.5zM63 127q-2 -3 -2 -2.5t1 1.5v1v0v0h1v0zM537 -78v0h-0.5t-1.5 1h-1.5t3.5 -1zM58 75q-1 1 -0.5 0.5t1.5 -2.5v0q0 1 -0.5 1t-0.5 1zM52 104v-0.5t-1 -3.5v1v0v1.5t1 1.5z
M128 150v0h-2h-1h1h1h1zM67 65q2 -1 2.5 -1.5t-0.5 0.5l-0.5 0.5t-1.5 0.5v0zM723 644v0.5v3.5v-1v0v0v-1v-1v0v-1zM600 465q2 1 2.5 1.5t-0.5 0.5q-1 -1 -1 -1.5t-1 -0.5v0zM106 150h1h1h-2h-2h1v0h1z" />
    <glyph glyph-name="M" unicode="M" horiz-adv-x="908" 
d="M896 744q7 -4 11 -13.5t1 -16.5q-12 -39 -24.5 -77.5t-24.5 -76.5q-21 -67 -42 -134.5t-40 -134.5q-21 -69 -40.5 -140t-38.5 -140q-3 -11 -13 -16t-20 -3t-15.5 12.5t-3.5 20.5q10 40 21.5 80.5t22.5 80.5q19 68 39.5 136t41.5 136q11 38 23.5 76.5t24.5 77.5
q-6 -7 -12 -13.5t-12 -13.5q-48 -51 -95.5 -103t-94.5 -103t-94.5 -103.5t-94.5 -103.5q-7 -7 -16 -7.5t-16 3.5q-7 1 -12 6t-7 12q-8 29 -16.5 59t-16.5 59q-14 51 -29 104t-29 104q-9 31 -17.5 62.5t-17.5 62.5q-6 -19 -11.5 -37.5t-11.5 -36.5q-21 -67 -41.5 -135
t-41.5 -134l-42 -136t-42 -135q-3 -11 -12.5 -16.5t-20.5 -2.5q-10 2 -16 12.5t-3 20.5q12 38 23.5 76.5t23.5 76.5q21 66 42 134t41 135q21 67 42 135.5t42 135.5q1 4 3 6.5t4 5.5q3 4 7 7.5t9 4.5q10 4 20 -2.5t13 -16.5q8 -29 16.5 -58.5t16.5 -58.5q15 -52 29.5 -104.5
t29.5 -104.5q12 -42 23.5 -84t23.5 -83q19 21 39 42t39 42q47 51 94.5 103.5t95.5 103.5q47 51 94.5 103.5t94.5 103.5q6 7 15.5 7.5t17.5 -3.5z" />
    <glyph glyph-name="N" unicode="N" horiz-adv-x="695" 
d="M527 -101v0q-1 0 -1 0.5t-1 0.5t-0.5 0t3.5 -1v0h-1zM597 663l1 -1v0q-2 1 -2.5 1t0.5 0v0h1zM632 624v-1.5v-1.5v0q-1 1 -1 2t1 1zM632 607v-1v0v-1l-1 -1zM676 659q7 -14 9 -29t0 -31q-2 -14 -6 -27.5t-8 -26.5q-17 -51 -39 -101.5t-44 -100.5q-3 -6 -5.5 -12t-5.5 -12
q-1 -1 -1.5 -3t-1.5 -4l-0.5 -1t-0.5 -2v0v-1q-1 -1 -1 -1.5t-1 -1.5t-1 -3t-1 -3q-5 -12 -10.5 -24.5t-9.5 -25.5l-18 -50t-17 -50q-7 -25 -14.5 -51.5t-11.5 -52.5q-1 -3 -1 -6.5t-1 -7.5v0v-1q0 -1 -0.5 -2.5t-0.5 -2.5q-1 -7 -1 -13.5t-1 -13.5v-13.5v-12.5v-5.5v-4.5
q1 -1 1 -1.5v-1.5q1 -4 2.5 -8.5t2.5 -8.5v0v-1q1 -1 1 -1.5t1 -1.5t2 -3.5t2 -4.5q1 -1 2.5 -3.5t2.5 -4.5q1 -1 1 -1.5t1 -0.5q3 -4 6 -7.5t7 -6.5l1 -1q1 0 1 -0.5t1 -0.5q1 -1 3 -2l4 -2v0l0.5 -0.5t1.5 -0.5t1 -0.5t1 -0.5h-1v1q1 -1 3.5 -1.5t4.5 -1.5v0h1.5h0.5h4h3
v1h1h2t2 1q1 0 1.5 0.5t1.5 0.5h1v0q10 5 20 2.5t17 -12.5q5 -8 2.5 -20t-12.5 -16q-10 -5 -22 -8.5t-24 -2.5q-45 4 -74.5 42.5t-31.5 81.5q-1 28 2 55.5t8 54.5q5 26 12.5 51.5t15.5 50.5t17 50t19 50q10 26 21 52t22 51q5 12 10.5 24t10.5 24q3 6 5.5 12t5.5 12
q1 4 2.5 7t2.5 6q0 1 0.5 1.5t0.5 1.5q1 1 1 2t1 2q10 24 19.5 49t17.5 50q2 7 4 13t3 12q1 2 1 4t1 4v0v1v0v1v1v-1v0v6v6v1v1v0v0v1v0v1.5v0.5l-1 1v0q0 2 -0.5 4t-1.5 3v1q0 1 -0.5 1.5t-0.5 1.5q-1 1 -1.5 2t-1.5 2t-1.5 2t-0.5 2q-2 1 -4 3.5t-4 4.5q-1 1 -2 1.5
t-2 1.5v0q-2 1 -4.5 2.5t-4.5 2.5q-1 1 -2 1.5t-2 0.5h1v0v0h-1v0.5t-1 0.5h-1l-6 2t-5 1q-1 1 -2.5 1h-2.5q0 1 -0.5 1h-0.5h-10.5h-11.5v0h-1q-1 -1 -2 -1h-2q-3 -1 -5.5 -1.5t-5.5 -1.5q-5 -1 -10.5 -3t-10.5 -4h-1h-1q-1 -1 -2.5 -1.5t-2.5 -1.5l-5 -2.5l-5 -2.5
q-5 -3 -10.5 -5.5t-10.5 -5.5q-19 -11 -37.5 -23t-36.5 -25q-5 -4 -9.5 -7t-8.5 -7h-1v0q-1 -1 -2 -1.5t-2 -1.5q-2 -1 -4 -3l-4 -4q-8 -7 -16.5 -14t-16.5 -14q-16 -14 -30.5 -30t-28.5 -32q-7 -8 -13.5 -16.5t-13.5 -16.5l-1 -1q-1 -1 -1.5 -2t-1.5 -2q-1 -2 -3 -4.5
t-3 -3.5q-3 -4 -6.5 -9t-6.5 -9l-24 -36t-22 -37q-11 -19 -21.5 -39t-20.5 -39q-4 -10 -9 -19.5t-9 -19.5q-2 -5 -4.5 -10.5t-4.5 -10.5q-1 -1 -1 -2.5t-1 -2.5q-1 -2 -2 -4.5t-2 -4.5q-16 -40 -30.5 -81t-27.5 -82q-3 -10 -12.5 -15.5t-20.5 -3.5q-10 2 -16 13t-3 21
q12 37 23.5 75.5t23.5 76.5q21 67 42 135t42 135t42 135t42 135q3 11 12.5 16t20.5 3q10 -2 16 -12.5t3 -20.5q-12 -38 -24 -76.5t-23 -75.5q-10 -34 -21 -67.5t-21 -67.5q20 30 43 58.5t48 54.5q31 32 65.5 61t72.5 53q21 13 42.5 26t44.5 23t47.5 14t50.5 -1
q25 -4 47.5 -20.5t32.5 -39.5zM259 444v0l1 1zM554 667l0.5 0.5t1.5 0.5h-1zM577 668v0h1h-1zM628 635l1 -1v0v0zM552 -102h-1h1zM516 -95l-1.5 1.5l-0.5 0.5q0 -1 0.5 -1t1.5 -1zM488 -57v0v1v-1zM486 31v2v1v-1.5v-1.5z" />
    <glyph glyph-name="O" unicode="O" horiz-adv-x="658" 
d="M73 194q2 -4 2 -3t-1 2h-0.5t-0.5 1v0v0zM713 312q3 -4 3.5 -10.5t-0.5 -10.5q-1 -5 -4.5 -9t-7.5 -7q-16 -11 -32 -21.5t-33 -18.5q-15 -7 -30 -13t-31 -10q-20 -34 -45 -66.5t-54 -59.5q-31 -28 -67 -48.5t-76 -30.5q-38 -8 -77.5 -6.5t-76.5 14.5q-39 15 -71.5 41.5
t-56.5 60.5q-23 33 -36.5 72t-18.5 79q-4 38 0.5 76t17.5 75q12 36 29 70.5t38 66.5t46.5 61.5t55.5 54.5q31 25 65 44t71 29q3 1 6.5 1t6.5 -1q15 3 30 4.5t30 1.5q36 -1 71 -11t65 -30q35 -24 60.5 -57.5t40.5 -72.5q16 -43 19.5 -89t-3.5 -91q-4 -30 -13 -59.5t-21 -57.5
q16 8 32 18t30 20q9 7 20.5 3t16.5 -12zM399 697h-16.5t-16.5 -1q-1 -1 -2 -1h-2q-2 0 -4 -0.5t-3 -0.5q-4 -1 -7.5 -1.5t-7.5 -1.5q-8 -2 -16.5 -4.5t-16.5 -5.5q-2 -1 -4 -1.5t-4 -1.5q-1 -1 -1.5 -1h-1.5h1v0q-4 -1 -7.5 -3.5t-7.5 -3.5q-8 -4 -16.5 -9t-15.5 -10
q-2 -1 -4.5 -3t-4.5 -3q-1 -1 -2 -1.5t-2 -1.5v0v0v0l-1.5 -1.5l-0.5 -0.5q-3 -3 -6.5 -5.5t-6.5 -4.5q-7 -7 -13.5 -14t-13.5 -14q-1 -1 -2 -2.5t-2 -2.5h1v0h-1v0l-0.5 -0.5t-0.5 -1.5q-1 -1 -2 -2.5t-2 -2.5q-3 -4 -5.5 -8.5t-5.5 -8.5q-2 -4 -4.5 -8.5t-4.5 -8.5
q0 -1 -0.5 -2t-1.5 -2v0v0v0v-1v-1q-1 -1 -1.5 -3t-1.5 -3q-3 -9 -5.5 -17.5t-3.5 -17.5v-1.5t-1 -1.5l0.5 1t0.5 2q0 -1 -0.5 -2.5t-0.5 -2.5v-3.5t-1 -4.5v-8.5v-8.5t0.5 -9t1.5 -10q-1 7 -0.5 3.5t0.5 -4.5q1 -2 1 -4t1 -4q1 -9 4 -17.5t6 -16.5v0q1 -1 1 -2t1 -2t1.5 -3
t1.5 -3q2 -4 4 -7.5t4 -7.5t5 -8t5 -8q1 -1 2.5 -3.5t2.5 -3.5v0v1v-1v0h1v0v-1v0l1 -1v0l12 -14t13 -13q4 -4 7.5 -7t7.5 -6l2.5 -2.5l2.5 -2.5t2 -1.5t2 -1.5l-1 1v0q8 -6 16 -11.5t17 -10.5q7 -4 15.5 -8.5t17.5 -8.5q2 -1 4.5 -2t4.5 -2q-6 3 -1.5 1t5.5 -3q4 -1 8 -3
t8 -3q18 -6 36 -10t36 -7h1v0h2t2 -1h4.5t4.5 -1q5 0 10 -0.5t9 -0.5h18h18q5 1 10 1t10 1h4.5t4.5 1v0h-0.5t-0.5 -1q1 1 2 1h2q8 1 16 3t16 3q4 7 7 13.5t7 13.5q2 5 4.5 10.5t4.5 10.5l0.5 0.5t0.5 1.5q1 1 1 1.5v1.5q1 2 2 5t2 5q8 20 14 41t10 43q0 2 0.5 5t0.5 6v0
q1 1 1 2.5v2.5q1 4 1 9.5t1 10.5v20v20q-1 4 -1.5 9t-0.5 9v2t-1 2v0v0v0v2.5v2.5q-1 2 -1.5 4.5t-0.5 5.5q-2 10 -4.5 19.5t-6.5 18.5l-2 6l-2 6q0 1 -0.5 2t-1.5 2q-1 4 -3.5 9l-4.5 9q-4 8 -9.5 16.5t-11.5 15.5v0q-1 1 -1.5 2t-1.5 2t-2.5 3t-2.5 3l-5.5 5.5l-5.5 5.5
t-6.5 6t-6.5 6q-1 1 -1.5 1t-1.5 1t-3 2t-3 2q-6 4 -13 8.5t-14 7.5l-4 2l-4 2h1h-0.5h-1.5v1h-1v0q-4 1 -7.5 2.5t-7.5 2.5q-7 3 -15 5t-15 3h-2.5h-2.5q-1 1 -3 1h-3q-4 0 -7.5 0.5t-7.5 0.5zM302 681h-1q4 1 3.5 1h-1.5q0 -1 -0.5 -1h-0.5zM152 559v0q1 2 1 1.5t-1 -1.5z
M490 177q4 5 7 10.5t7 9.5q-6 -1 -12.5 -1t-12.5 -1q-40 -1 -80 4.5t-77 18.5q-40 13 -76 34.5t-66 50.5q-28 27 -49 61t-29 73q-2 8 -3 17t-2 17l-1 -1v-1q-4 -8 -7.5 -16t-7.5 -16v0v0q-1 -1 -1 -2t-1 -2t-1.5 -3.5t-1.5 -4.5q-1 -4 -2.5 -7t-2.5 -7q-6 -16 -10.5 -33
t-7.5 -34v0v-1v-2v-2q-1 -2 -1 -4.5v-4.5q-1 -4 -1 -9v-9v-18t1 -18q1 -2 1 -4.5v-4.5q1 -1 1 -2v-2q1 -4 1.5 -8t1.5 -8q2 -10 4.5 -19t5.5 -17q1 -4 3 -8.5t3 -8.5v0v1v-1v0q0 -1 0.5 -1h0.5v-1.5t1 -0.5q1 -2 1.5 -4.5t1.5 -4.5q4 -8 9 -16.5t10 -15.5q2 -4 4.5 -7.5
t5.5 -6.5q0 -1 0.5 -1.5l1.5 -1.5t3 -3.5t3 -3.5q6 -7 12 -13t13 -12q1 -1 2.5 -2t2.5 -2v0h-1q2 -1 4 -2.5t3 -2.5q4 -2 7.5 -4.5t7.5 -4.5t7.5 -4.5t7.5 -4.5q2 -1 4.5 -2t3.5 -2q1 0 2 -0.5t2 -0.5h-1q8 -3 16.5 -6t17.5 -4l8 -2t8 -1v0h-1h1h1v0q0 -1 0.5 -1h0.5h1v0
h4.5t4.5 -1h17h17q2 1 5 1h5h2t2 1q4 0 8 0.5t8 1.5q8 2 16.5 4.5t16.5 5.5q2 1 4.5 2t5.5 2q1 0 2 0.5t2 0.5h-1v0q4 1 7.5 3.5t7.5 3.5q8 4 16 9t15 10q2 1 4.5 3t4.5 4q1 1 2 1.5t2 1.5q4 3 7.5 6t6.5 6q8 7 15.5 14.5l14.5 14.5q4 4 7 8t7 8q1 2 3 4l3 3t1.5 2t1.5 2z
M242 56q4 -1 3.5 -1h-1.5h-0.5t-0.5 1h-1zM364 73q-1 -1 -3 -1.5t3 1.5v0zM145 97v0q4 -3 2.5 -2t-2.5 2zM192 69q-1 1 -2.5 1.5t2.5 -1.5v0zM237 642q-1 -2 -2 -2.5t0 0.5l1 1l1 1v0zM507 252v0q5 1 3 0.5t-3 -0.5zM597 499v0t-1 4v0q1 -1 1 -2v-2zM242 320v0q-1 1 -2.5 2
t2.5 -2zM297 677v0q1 1 2.5 1t-2.5 -1zM472 681q-4 1 -3.5 1.5t1.5 -0.5h1v-1h1v0v0zM191 597q-1 -3 -1.5 -3t0.5 1l1 1v1v0zM164 552q-1 -4 -1 -3.5t1 1.5v1v0v1zM151 506v0q0 -2 0 -1.5v1.5zM192 369q3 -3 2.5 -2.5l-1.5 1.5v0.5t-1 0.5v0z" />
    <glyph glyph-name="P" unicode="P" horiz-adv-x="603" 
d="M230 688h2h2l-1 -0.5t-3 0.5v0zM524 405h-1v-1v0q1 1 1 2v1v-1v-1zM454 315h-1q0 -1 -0.5 -1h-0.5q-1 -1 -0.5 -0.5t2.5 1.5zM561 591q16 -30 24.5 -63.5t5.5 -67.5q-2 -32 -13 -63t-29 -57q-18 -27 -42 -50t-52 -39q-29 -17 -62 -26.5t-67 -12.5q-48 -3 -95 7.5
t-90 31.5q-16 -57 -32 -115t-30 -115q-3 -11 -13.5 -16t-20.5 -3t-15.5 12.5t-2.5 20.5q8 33 16.5 66t17.5 66q7 28 15.5 55.5t15.5 55.5q-8 5 -16 10.5t-16 11.5q-4 4 -5.5 9.5t-1.5 9.5q-1 6 1.5 11t5.5 9q4 4 9.5 5.5t10.5 1.5t10 -2t9 -5q-5 4 -2 1.5t4 -3.5t3 -2.5
t4 -2.5v0q4 16 9.5 33.5t10.5 33.5q17 58 35 116.5t37 115.5q3 10 12.5 15.5t20.5 3.5q10 -2 16 -13t3 -21q-10 -32 -20.5 -64.5t-20.5 -65.5q-14 -46 -28 -91.5t-27 -91.5q5 -3 10.5 -5.5t10.5 -4.5q1 -1 4 -2t-1 0q-3 1 -1 0.5l2 -0.5q2 -1 4 -1.5t3 -1.5q4 -1 7.5 -2.5
t7.5 -2.5q7 -3 15.5 -5.5t15.5 -3.5q7 -2 15.5 -3.5t15.5 -2.5h1.5h1.5q2 -1 4.5 -1h3.5q4 -1 8.5 -1h8.5q7 -1 15.5 -1t15.5 1q4 1 8.5 1t8.5 1v0h1h1q1 1 3 1h4q7 1 15 3.5t15 4.5q4 1 7.5 2t6.5 2q1 1 3 1.5t3 1.5h1h1q13 6 25.5 13.5t24.5 16.5v0h0.5t0.5 1v0q1 0 1 0.5
t1 0.5h-0.5t-0.5 -1q1 1 2.5 2t2.5 2l5 5l5 5q5 4 10.5 9.5t9.5 10.5q1 1 2.5 3t2.5 3q0 1 0.5 1t0.5 1q2 2 4 5t3 5l8 12t7 12q1 3 3 6.5t3 6.5v-1v0.5v1.5v0q1 1 1.5 2t-0.5 0q1 1 1.5 2.5t0.5 2.5q2 7 4.5 13.5t3.5 13.5q1 3 1.5 6.5t0.5 6.5l1 1v1v4v3q1 7 1 15t-1 15v3
t-1 4v0.5v1.5q-1 4 -1.5 7.5t-1.5 6.5q-1 7 -3.5 14.5t-5.5 14.5q0 1 -0.5 2t-0.5 2q-1 1 -1.5 3t-1.5 3q-1 3 -3 6t-3 6q-4 7 -8.5 13.5t-8.5 12.5q-1 1 -1.5 2t-0.5 2l-2 2l-2 2q-2 3 -5 6t-5 6q-5 5 -11 10.5t-11 10.5q-1 1 -3 2t-3 2t-1.5 1t-0.5 1q-3 2 -6.5 4.5
t-6.5 4.5q-7 4 -14.5 8t-14.5 8l-4 2l-4 2q-1 0 -1.5 0.5t-1.5 0.5q-4 1 -7 2.5t-7 2.5q-8 3 -16.5 5.5t-16.5 4.5q-4 1 -8.5 1.5t-8.5 1.5q-1 1 -3.5 1t-3.5 1h-2.5h-2.5q-8 1 -16 1.5t-16 1.5h-17.5t-16.5 -1q-4 0 -8.5 -0.5t-8.5 -0.5q-1 0 -2.5 -0.5t-2.5 -0.5h-0.5
h-1.5h-0.5h-1.5v0v0h-0.5t-1.5 -1q-17 -2 -34.5 -6.5t-33.5 -9.5q-8 -2 -16.5 -5t-16.5 -6q-1 -1 -5 -2t-5 -2l2.5 0.5t-1.5 -0.5q-1 0 -2 -0.5t-2 -1.5q-4 -1 -7.5 -3t-7.5 -4q-16 -7 -31.5 -15.5t-30.5 -17.5q-10 -6 -20.5 -3t-16.5 12q-6 10 -3 21t12 16q8 5 16 9.5
t15 8.5q34 18 69 32.5t72 22.5q38 9 76.5 11t76.5 -3q36 -5 70.5 -17.5t64.5 -32.5q28 -19 52 -44.5t40 -55.5zM321 688h1v0v0h-1zM323 688h2t-1 0h-1v0zM340 268h-1v0h1z" />
    <glyph glyph-name="Q" unicode="Q" horiz-adv-x="709" 
d="M726 -25q3 -4 3.5 -10.5t-0.5 -10.5q-1 -6 -5 -9.5t-8 -6.5q-16 -13 -34.5 -22.5t-37.5 -16.5q-40 -13 -82 -14t-82 9t-77.5 29t-69.5 44q-9 7 -18 14.5t-17 15.5q-7 -1 -14.5 -1.5t-14.5 -0.5q-37 0 -74.5 9t-69.5 28q-34 20 -60 50.5t-42 66.5q-16 37 -22.5 77.5
t-2.5 80.5q4 41 16 80.5t31 76.5q19 35 43 68t53 61q27 27 59 49.5t66 38.5q27 22 59 38t66 22q42 8 84.5 1.5t79.5 -27.5q36 -19 64.5 -49t47.5 -66q20 -40 27 -83t5 -87q-3 -45 -14.5 -88t-30.5 -84q-18 -38 -43 -73t-55 -64q-29 -29 -63.5 -52.5t-71.5 -39.5
q-13 -6 -27.5 -11t-28.5 -9h1v0l1.5 -1.5l1.5 -1.5q2 -1 4 -2.5t3 -2.5q4 -3 8.5 -5.5t8.5 -5.5q8 -5 16.5 -10t16.5 -9q4 -2 8.5 -4t8.5 -4h1h1q0 -1 0.5 -1h1.5q2 -1 4.5 -2t4.5 -2q8 -3 17 -6t18 -5l10 -2t9 -2q2 -1 5 -1t5 -1h1.5h1.5q9 -1 18 -1.5t18 -0.5h10t9 1h4.5
t4.5 1h1.5h1.5q9 1 18 3.5t18 5.5q2 1 5 2t5 2h1.5t0.5 1q1 1 9 4t9 4q9 4 17.5 9.5t15.5 11.5q9 7 20.5 3t16.5 -12zM642 501v0q0 1 -0.5 3t0.5 -3zM413 691h1.5h0.5h-1.5h-0.5zM315 650q-1 -1 -2.5 -1.5t-2.5 -1.5v0l-1 -1t-3.5 -3t-3.5 -3q-8 -7 -15.5 -14.5t-14.5 -15.5
q-1 -1 -2 -2.5t-2 -2.5v0q-2 -2 -4 -4.5t-3 -4.5q-3 -4 -6 -9.5t-6 -9.5q-2 -5 -5 -10.5t-5 -10.5q-1 -1 -1.5 -2.5t-1.5 -2.5q0 -1 -0.5 -2.5t-1.5 -1.5v-1v0q-1 -1 -1 -3t-1 -3q-8 -21 -13.5 -43.5t-8.5 -44.5v0l-1 -1v-2.5v-2.5q-1 -2 -1 -5v-5q-1 -6 -1.5 -11.5
t-0.5 -10.5q-1 -11 -1 -22v-22q1 -11 1.5 -22.5t1.5 -21.5q0 -5 0.5 -10.5t1.5 -10.5v-1v-1q1 -1 1 -2.5v-2.5q1 -3 1 -5.5t1 -5.5q4 -22 9.5 -43.5t12.5 -42.5q1 -5 3.5 -10.5t3.5 -10.5q1 -3 2.5 -5.5t2.5 -5.5v0v-1q1 -1 1 -1.5t1 -1.5q4 -10 9 -20l10 -20t11 -19l12 -18
q3 -4 6 -8.5t6 -8.5l1.5 -1.5l1.5 -1.5q1 -2 3 -4l3 -3q1 -2 3 -4l3 -3q2 0 5 0.5t6 1.5q17 3 34 8t33 12q1 1 1.5 1t1.5 1t3.5 1.5t4.5 1.5l8 4l8 4q8 4 16.5 9.5t16.5 10.5q4 3 8.5 5.5t8.5 5.5q1 1 3.5 3t3.5 3t2 1.5t2 1.5q7 6 14.5 12.5t14.5 13.5l14 14l14 14
q3 4 6 7.5t6 7.5q1 1 2 2.5t2 2.5v0q1 2 3 4l3 3q11 16 21.5 33.5t19.5 34.5l4.5 9t4.5 10l0.5 1t0.5 2v1v0q1 2 2 4.5t2 4.5q4 9 7 18.5t6 19.5q2 10 5 20t4 20q1 3 1 5.5t1 5.5v2v2q1 4 1.5 9.5t0.5 10.5q1 10 1.5 20.5t-0.5 20.5v10.5t-1 9.5v6t-1 5v3v3h-1v0q-1 9 -3 18
t-5 18q-1 4 -2.5 9t-3.5 9q0 1 -0.5 2t-0.5 2l-2 4l-2 4q-4 8 -8.5 16.5t-9.5 15.5q-1 2 -3 4t-3 4v0.5t-1 0.5v0.5t-1 0.5v1q-3 4 -6 7t-6 7q-6 7 -13 13l-14 12q-1 0 -1.5 0.5l-1.5 1.5t-3.5 2.5t-3.5 2.5q-4 3 -7.5 5.5t-7.5 4.5t-8 4.5t-8 3.5q-2 1 -4.5 2t-3.5 2
q-1 0 -2 0.5t-2 0.5q-8 3 -17 6t-18 4q-2 1 -4.5 1t-3.5 1h-2h-2q-4 1 -9.5 1h-9.5h-9t-9 -1h-4.5h-4.5v-1v0h-2h-2q-10 -2 -20 -4.5t-20 -6.5q-2 -1 -5 -2t-5 -2q5 2 2.5 1t-3.5 -1q-1 -1 -2.5 -1.5t-2.5 -1.5q-4 -2 -9.5 -4.5t-9.5 -5.5q-4 -2 -9 -5t-9 -7zM248 167v0v0z
M138 509q-1 0 -1 -0.5t-1 -1.5l1.5 1.5zM53 242v0v1v-1zM222 53q1 0 3.5 -0.5t4.5 -0.5h1.5t0.5 -1q5 0 10 -0.5t10 -0.5q-8 11 -15 22.5t-14 23.5q-23 41 -39 86t-23 91q-8 48 -9.5 96.5t5.5 96.5q4 23 9.5 46t14.5 45l-13 -13t-12 -13q-3 -4 -6 -7.5t-6 -7.5
q-1 -1 -3 -3.5t-3 -3.5l-1 -1l-1 -1v0v-1h-1q-11 -15 -21 -31.5t-19 -32.5q-4 -8 -8 -16.5t-8 -16.5v0v-1q-1 -1 -1 -2t-1 -2t-1.5 -3.5t-1.5 -4.5q-1 -4 -3 -8.5t-3 -8.5q-3 -9 -5.5 -18t-4.5 -19q-1 -4 -1.5 -8.5t-1.5 -8.5q-1 -2 -1 -4.5t-1 -3.5v-2.5v-2.5
q-2 -17 -2 -35.5t2 -35.5v-1v0v-1.5t1 -1.5v-4.5t1 -3.5l2 -10t2 -9q2 -8 5 -17t6 -17q1 -1 1 -2t1 -2q1 -2 2 -4.5t2 -3.5q2 -4 4 -8.5t5 -8.5q2 -4 4.5 -8t5.5 -8q1 -1 2.5 -3t2.5 -3q0 -1 0.5 -1.5l1.5 -1.5q5 -7 11.5 -13.5t13.5 -12.5q1 -1 3 -2.5t3 -2.5q1 0 1 -0.5
t1 -1.5q4 -2 7 -4.5t7 -4.5t7.5 -4t7.5 -4q1 -1 3.5 -2t3.5 -2h1.5t1.5 -1l-1 1v0q1 -1 4 -2t4 -2q2 -1 4 -1t4 -1q4 -1 8 -2.5t8 -2.5t8.5 -2t8.5 -2zM177 66h-1l-1 1h-1q1 0 2.5 -1t0.5 0z" />
    <glyph glyph-name="R" unicode="R" horiz-adv-x="630" 
d="M576 336q-19 -31 -46 -55.5t-59 -40.5q-17 -9 -35.5 -16t-37.5 -11q5 -7 10 -14.5t9 -15.5q8 -16 16 -31.5t17 -31.5q4 -7 8.5 -14.5t9.5 -14.5l1 -1v0l1.5 -1.5t0.5 -1.5l3 -3l3 -3l6 -6l6 -6q1 0 2 -1l2 -2t3 -1.5t3 -1.5t3 -1.5t3 -1.5q0 -1 0.5 -1h0.5h1q0 -1 0.5 -1
h0.5v0l-1 1q4 -1 7.5 -2.5t7.5 -2.5h4.5t-3.5 0h3t3 -1h4.5h3.5q1 1 1.5 1h1.5q3 1 6 1.5t6 1.5h1v0h1v1q1 1 3 1.5t3 1.5l-1 -1v0l0.5 0.5t1.5 0.5v1v0v0h1q1 1 2 2.5t2 2.5q7 9 19 8t20 -8t7.5 -19t-7.5 -19q-14 -16 -35.5 -23.5t-42.5 -6.5t-39.5 9t-34.5 21
q-15 12 -27 28t-22 33q-10 16 -18 33.5t-17 33.5q-2 4 -5 8.5t-5 8.5q-2 3 -4.5 6t-4.5 6q0 1 -0.5 1.5l-0.5 0.5v1h-1h1v0q-1 1 -2 1.5t-2 1.5q-1 2 -3 4t-3 4q-1 1 -3.5 3t-3.5 3h-1.5h-1.5q-46 0 -90 13.5t-84 36.5q-19 -59 -37 -118.5t-37 -118.5q-3 -11 -13 -16t-20 -3
t-16 12.5t-3 20.5q10 34 20.5 67t20.5 66q10 31 19.5 61.5t19.5 61.5q-10 8 -19.5 16.5t-17.5 17.5q-7 9 -7 20t7 19q7 7 19 7t19 -7l8 -8l8 -8q5 15 10 30.5t10 30.5q19 60 37.5 119.5t36.5 119.5q4 10 13.5 15.5t20.5 3.5q10 -2 16 -13t3 -21q-10 -33 -21 -66t-21 -67
q-14 -47 -29 -94.5t-30 -93.5q2 -2 5 -4t5 -3q7 -4 14.5 -8t14.5 -7q2 -1 4.5 -2t4.5 -2l1 -1l1 -1q4 -1 7 -2.5t7 -2.5q7 -3 15.5 -5.5t16.5 -3.5q4 -1 8.5 -2t8.5 -2q1 0 3.5 -0.5t3.5 -0.5t1.5 -0.5l0.5 -0.5h1v0h1h-1q16 -1 32.5 -1t32.5 1h2h2q1 1 3 1h4q4 1 7.5 2
t7.5 2q8 1 16 3.5t16 5.5q2 1 4.5 1.5t4.5 1.5l0.5 0.5t1.5 0.5q3 1 6.5 3t6.5 3q7 4 14 8.5t14 8.5q2 1 4.5 2.5t3.5 2.5t1.5 1t0.5 1v0q3 2 6 4.5t5 4.5q6 5 12 11t11 12q1 1 2.5 3.5t2.5 3.5q-4 -5 -2 -2t3 4q3 3 5 6t4 7q4 7 8 13.5t7 13.5q1 1 1 2t1 2q0 1 0.5 3t1.5 3
q1 4 2.5 7.5t2.5 7.5q2 7 4 15t3 15q0 1 0.5 2.5t0.5 2.5v-1v-1v1v3v4q1 4 1 7.5v6.5v8.5t-1 8.5v3v4v0.5v1.5v0q-1 1 -1 1.5v0.5v-1q-1 7 -2.5 14t-3.5 14q-1 4 -2.5 8t-2.5 8q-1 1 -2.5 4.5t1.5 -2.5q-1 1 -1.5 3t-1.5 3q-3 7 -7 13.5t-8 13.5q-2 3 -4 6.5t-4 6.5
q-1 1 -3.5 4t1.5 -2q-1 1 -2 2.5t-2 2.5q-5 6 -10.5 12t-10.5 11q-3 2 -6 5l-5 5q-1 1 -3 2.5t-3 2.5q-1 0 -1.5 0.5l-0.5 0.5q-13 10 -27 18t-28 14l-1 1v0q-1 0 -2 0.5t-2 0.5q-2 1 -4 1.5t-4 1.5q-4 1 -7.5 2.5t-7.5 2.5q-8 3 -16.5 5t-17.5 3q-2 1 -4.5 1.5t-4.5 0.5
q-1 0 -5.5 1t2.5 0q-4 0 -8.5 0.5t-8.5 0.5q-8 1 -17 1.5t-18 0.5q-9 -1 -17.5 -1t-17.5 -1q-2 -1 -4.5 -1h-4.5h1q-1 0 -1.5 -0.5t-1.5 -0.5q-4 -1 -9 -1.5t-9 -1.5q-17 -3 -34.5 -7.5t-34.5 -10.5q-4 -1 -9 -3.5t-9 -3.5q-2 -1 -4 -1.5t-4 -1.5q-1 -1 -2 -1t-2 -1
q-3 -1 -1 0t3 1q-2 0 -5 -1.5l-5 -2.5t-4.5 -2t-3.5 -2l-8 -4l-8 -4q-16 -7 -31.5 -16t-31.5 -19q-10 -6 -20.5 -2.5t-16.5 12.5t-3 20t13 17q7 5 15.5 10t16.5 9q66 37 141 58.5t152 14.5q38 -4 75 -15t71 -30q29 -18 54 -43t44 -54q18 -29 28 -63.5t9 -68.5
q0 -35 -10.5 -69.5t-29.5 -64.5zM553 57q-1 0 -1.5 -0.5l-0.5 -0.5h0.5t1.5 1zM561 497v-1v-1v0q0 -1 0 -0.5t-1 3.5q0 -1 0.5 -1h0.5zM561 449v0q-1 -1 -1 -2.5t1 2.5zM295 262q-1 0 -1.5 0.5l-0.5 0.5v0h-1h-1l4 -1v0zM251 689q-4 -1 -2.5 -1t2.5 1v0zM561 62l-1 -1v0v0
l1.5 1.5t0.5 -0.5h-1v0zM507 59h-1.5t-0.5 1v0q-1 0 -0.5 0t2.5 -1v0zM349 189v-1v0l0.5 -0.5t0.5 -1.5q1 -1 0.5 -0.5t-1.5 3.5z" />
    <glyph glyph-name="S" unicode="S" horiz-adv-x="496" 
d="M474 557v0l-7.5 -7.5t-8.5 -4.5q-5 -2 -11 -1t-10 3t-7.5 7t-4.5 9t-0.5 10.5t3.5 10.5q1 2 2.5 4t2.5 4q1 1 1 2.5t1 2.5l-1 -2.5t0 -1.5v1.5v0.5q1 2 1.5 4.5t1.5 4.5v1.5v1.5q1 0 0.5 -3t-0.5 -1v2v2v5.5v5.5q0 1 -0.5 3t0.5 -4v2v2q-1 2 -1.5 4.5t-1.5 5.5
q0 1 -0.5 2t-0.5 2q-1 1 -1.5 3.5t0.5 -1.5q1 -3 0 -0.5t-1 3.5q-1 1 -1.5 2t-0.5 2q-1 2 -2.5 4.5t-2.5 3.5t-1.5 2.5t-1.5 2.5q-3 4 -0.5 0.5t0.5 -1.5q-1 2 -3 4l-4 4l-3.5 3.5l-3.5 3.5t-3 2t3 -2q-1 1 -2 1t-2 1q-4 3 -8.5 6t-9.5 5q-1 1 -2.5 1t-2.5 1t1 0l2 -1
l-1 0.5t-2 0.5q-2 1 -4.5 1.5t-4.5 1.5q-5 1 -10 2.5t-10 2.5q-3 0 0 0t3 -1q0 1 -1 1h-2h-2.5h-2.5q-2 0 -4.5 0.5t-4.5 0.5q-3 0 -6 -0.5t-5 -0.5h-2.5h-2.5h-2t-1 -1l2.5 0.5t0.5 0.5q-4 -1 -9.5 -2.5t-10.5 -2.5q-2 -1 -4.5 -1.5t-4.5 -1.5q5 1 3 1t-3 -1t-2.5 -1.5
t-2.5 -0.5q-4 -3 -8.5 -5.5t-8.5 -5.5q-2 -1 1 0.5t1 0.5q-1 0 -1 -0.5t-1 -1.5t-2 -1.5t-2 -1.5l-3 -3l-3 -3l-4 -4t-3 -4l-1 -1l-1 -1t1 1.5t1 0.5q-1 -1 -1.5 -2t-1.5 -2q-3 -4 -5.5 -8t-4.5 -8q-1 -1 -1.5 -3t-1.5 -3q0 -1 -1 -3t0 1q1 4 0.5 1.5t-0.5 -3.5
q-1 -1 -1.5 -2t-0.5 -2q-1 -4 -2.5 -9.5t-2.5 -9.5q0 -1 -0.5 -3t-0.5 -3q-1 -2 0 1.5t0 1.5v-1v-1v-5t-1 -5q0 -4 0.5 -9.5t0.5 -10.5q0 7 0 4.5t1 -3.5v-3t1 -3q0 -2 1 -5l2 -6q1 -2 2 -5l2 -6q1 -4 -0.5 0t-0.5 0q1 -1 1.5 -2.5t1.5 -2.5q2 -5 5 -10.5t6 -9.5
q2 -3 4 -5.5t3 -4.5q1 -1 2 -2.5t2 -2.5q2 -3 -0.5 0t-0.5 0q31 -39 69 -72t62 -77q24 -43 30 -94t-8 -98q-14 -43 -44.5 -79.5t-71.5 -56.5q-22 -10 -44.5 -16t-46.5 -6q-23 -1 -46 4t-45 15q-42 18 -73 54t-41 81q-4 23 -3.5 47.5t7.5 46.5q8 23 22.5 42.5t34.5 33.5
q17 12 38.5 18t42.5 6q23 1 44.5 -7t38.5 -22q9 -7 8 -19t-8 -19q-3 -4 -8.5 -6t-9.5 -2q-6 0 -10.5 2t-8.5 6q-1 0 -1.5 0.5l-0.5 0.5q4 -3 3.5 -2.5l-1.5 1.5q-1 0 -1.5 0.5l-1.5 1.5l-4 2l-4 2q-1 1 -2 1.5t-2 0.5q-4 2 0 0.5t1 -0.5q-2 1 -4 1.5t-4 1.5q-2 0 -4.5 0.5
t-4.5 1.5h-2t-2 1q-3 0 1 -0.5t0 -0.5q-4 1 -9 1h-9q-1 0 -2.5 -0.5t-2.5 -0.5h-1.5h-1.5t2 0t2 1q-1 0 -4 -1t-5 -1q-4 -1 -8.5 -2.5t-8.5 -3.5h-1.5t-1.5 -1q6 2 5 2h-2q-1 -1 -2 -1t-2 -1t-3.5 -2t-4.5 -2q-1 -1 -3.5 -3t-4.5 -3l-2 -2t3 3l-1.5 -1.5l-1.5 -1.5
q-4 -3 -7 -6t-6 -7q-1 0 -1.5 -1.5t0.5 1.5q2 2 1.5 1.5t-0.5 -1.5q-1 -1 -1.5 -2t-1.5 -2q-1 -2 -3 -4.5t-3 -4.5t-2 -4.5t-2 -4.5q-2 -4 -0.5 0t0.5 1q-1 -1 -1 -2.5t-1 -2.5q-1 -5 -2.5 -10t-2.5 -10q0 -1 -0.5 -3t-0.5 -3q0 -2 0.5 1t-0.5 3v-1.5v-1.5v-5v-5
q-1 -5 -1 -10.5t1 -9.5q0 -1 0.5 -4t-0.5 1q0 4 0.5 1t0.5 -4q0 -2 0.5 -5t1.5 -5q1 -5 3 -10t3 -10q1 -1 2 -3.5t-2 3.5q1 -1 1 -2t1 -2l2.5 -5l2.5 -5q2 -4 5 -8.5t6 -8.5q0 -1 1 -2t-1 2q-1 2 -1 1.5t1 -1.5t1.5 -2t1.5 -2t3 -3.5t4 -3.5q3 -4 6.5 -7t7.5 -7
q1 0 1.5 -0.5l1.5 -1.5t-1 0.5t-1 1.5q1 -1 2 -1.5t2 -1.5t3.5 -3t4.5 -3q4 -2 9 -5t9 -5q2 -1 4.5 -2t5.5 -2l-2.5 1t-0.5 0l0.5 -0.5t1.5 -0.5t2 -0.5t2 -1.5q5 -1 10 -2.5t10 -2.5q2 -1 5 -1.5t6 -1.5h2.5t2.5 -1h2l-2.5 0.5t-1.5 0.5q5 -1 10.5 -1.5t10.5 -0.5h10.5
t10.5 1h2l-3 -0.5t1 0.5q1 0 2 0.5t2 0.5q2 0 5 0.5t5 1.5q5 1 10 2.5t9 3.5q1 0 3 0.5t3 1.5q1 0 3 0.5t-1 -0.5q-4 -1 -1.5 0t3.5 1q1 1 2 1.5t2 0.5q4 2 9 5t9 5q2 1 4.5 3t4.5 3q1 1 2 1.5t2 1.5q1 0 1 0.5t1 0.5q1 1 -1.5 -0.5t-0.5 -0.5q7 6 14.5 13.5l14.5 14.5l2 2
l2 2t2 3t-2 -3q1 2 2.5 4t2.5 4q3 4 6 8.5t5 8.5l2.5 5l2.5 5q1 1 1 2t1 2q1 4 0 0.5t0 -0.5q2 5 4 10.5t3 10.5t2.5 11t2.5 11v1.5v1.5q1 4 0.5 1l-0.5 -3v2.5t1 2.5v5.5v5.5q1 5 1 11t-1 11v6t-1 6v1.5v0.5q0 4 0 1v-3v2.5v2.5q-2 11 -5 22.5t-7 21.5q-1 1 -1.5 3t-0.5 3
q-1 1 0 -1l1 -2q-1 1 -1 1.5t-1 1.5q-1 2 -2 4.5t-2 4.5q-2 5 -5 10l-6 10q-1 2 -3.5 5t-3.5 5q-1 1 -2 2.5t-2 2.5t0.5 -0.5l1.5 -1.5l-1 1l-1 1q-4 4 -8 9.5t-8 9.5q-8 9 -17 17.5t-17 16.5q-18 17 -35.5 35.5t-31.5 38.5q-14 21 -23.5 44.5t-12.5 48.5q-4 45 18 87.5
t60 65.5q40 24 89 22.5t87 -26.5q20 -13 35 -32.5t22 -42.5q7 -22 5 -46t-16 -43z" />
    <glyph glyph-name="T" unicode="T" horiz-adv-x="781" 
d="M157 664v0q1 0 1.5 0.5l0.5 0.5q1 0 1.5 -0.5t-3.5 -0.5zM662 692q-1 -1 -3 -1t3 1v0zM477 674v0h1h-1zM91 639v0q1 1 2.5 1.5t-2.5 -1.5zM57 594q1 1 1 1.5t1 1.5v0l-1.5 -3t-0.5 0zM707 718v0q-1 0 -1.5 -0.5l-0.5 -0.5q-1 -1 -1.5 -1t3.5 2zM53 558v1v0.5v1.5
q-1 1 -0.5 1t0.5 -4zM242 663v0h1.5h0.5q1 -1 1.5 -1t-3.5 1zM766 737q8 -7 7.5 -19.5t-7.5 -19.5q-31 -33 -72.5 -52t-85.5 -26q-20 -3 -40.5 -4.5t-40.5 -0.5q-24 1 -47 3.5t-46 6.5q-2 1 -4.5 1t-4.5 1q-8 -22 -16.5 -45.5t-16.5 -45.5q-18 -51 -35.5 -102t-34.5 -102
q-8 -25 -21.5 -67.5t-28 -87.5t-27.5 -87t-21 -68q-3 -11 -13 -16.5t-21 -2.5q-10 2 -16.5 13t-2.5 21q4 14 13.5 45t20.5 65t21 65t14 46q16 51 33 102.5t35 102.5q15 43 30.5 87.5t31.5 87.5q-30 7 -60 13.5t-61 10.5q-1 0 -2.5 0.5t-2.5 0.5h-0.5h-1.5v0v0v0q-2 1 -5 1
h-5q-5 1 -10.5 1.5t-9.5 0.5q-10 1 -21.5 1t-21.5 -1q-2 -1 -5 -1h-5h-0.5t-1.5 -1v0v0v0h-2h-2q-5 -1 -10 -2.5t-10 -2.5l-6 -2l-6 -2q-1 0 -1.5 -0.5t-1.5 -0.5q-1 -1 -4.5 -2.5t-4.5 -1.5q-2 -1 -4 -2.5t-4 -2.5t-4.5 -2.5t-4.5 -3.5q-1 0 -1 -0.5t-1 -0.5h0.5t0.5 1v-1
v0q-4 -3 -7 -6t-7 -6q-1 -1 -2.5 -3.5t-2.5 -3.5l-1.5 -1.5t-0.5 -1.5q-3 -4 -5.5 -7.5t-4.5 -7.5q0 -1 -0.5 -2t-0.5 -2v1v0v0v-1h-1v-1t-0.5 -1.5l-0.5 -0.5q0 -1 -0.5 -2t-0.5 -2q-1 -2 -1.5 -4.5t-0.5 -4.5q-1 -1 -1 -5t0 3q0 -4 -0.5 -8.5t-0.5 -8.5q0 -1 0.5 -1h0.5
v-1.5v-0.5v0v-1v-1v1v0q0 -1 0.5 -3.5t1.5 -4.5q3 -11 -3 -20.5t-17 -13.5q-10 -3 -20.5 3t-13.5 16q-13 48 11 93t65 67q42 24 90.5 26t94.5 -5q47 -7 93.5 -18t93.5 -19l12 -2t13 -2q1 0 1.5 -0.5t1.5 -0.5h-1t-2 1q1 -1 2 -1h2q3 0 6 -0.5t6 -0.5q10 -1 21 -2t22 -1h19
t19 1q5 0 10.5 0.5t9.5 1.5q-7 -1 -3 -0.5t6 0.5q2 1 4.5 1t4.5 1q10 1 19.5 3.5t18.5 5.5q4 1 9 3t9 4q1 0 2 0.5t2 0.5h-1q2 1 4.5 2t3.5 2q8 4 16.5 9t15.5 10q1 0 1.5 0.5l1.5 1.5l1 1h1v0v0l3 3l3 3q4 3 7.5 6t6.5 7q8 8 19.5 7.5t19.5 -7.5z" />
    <glyph glyph-name="U" unicode="U" horiz-adv-x="587" 
d="M53 197l-1 1l1 -1v0zM565 748q11 -2 16.5 -12.5t2.5 -20.5q-2 -8 -4.5 -16.5t-4.5 -16.5q-10 -37 -19 -75t-19 -75q-10 -40 -21 -80t-23 -80q-10 -36 -22 -72.5t-26 -71.5q-12 -29 -25.5 -58.5t-31.5 -55.5q-24 -32 -54.5 -59.5t-68.5 -41.5q-19 -7 -39 -9.5t-40 -1.5
q-22 1 -45 7t-42 17q-36 21 -59.5 56t-33.5 74q-5 20 -7.5 40.5t-1.5 41.5q1 26 3.5 52.5t6.5 52.5q8 51 22 100.5t30 98.5q16 48 33.5 95.5t33.5 95.5q4 10 13 15.5t20 3.5q10 -2 16.5 -12.5t2.5 -20.5q-4 -11 -8 -22.5t-8 -22.5q-16 -47 -33 -94t-32 -95q-7 -24 -14 -48.5
t-12 -48.5q-3 -13 -5.5 -25t-4.5 -24q-1 -6 -2 -12.5t-2 -12.5v-1.5v-1.5t-0.5 -2t-0.5 -2q0 -3 -0.5 -6t-0.5 -6q-2 -22 -3.5 -45t0.5 -45v-5t1 -4v0v1v-2v-2q1 -4 2 -9t2 -9t2.5 -8.5t2.5 -8.5q1 -2 1.5 -4.5t1.5 -4.5q1 -1 1 -1.5v-1.5q1 -2 2 -4.5t2 -4.5q1 -1 2 -3.5
t2 -3.5q2 -4 4.5 -8t4.5 -8q1 -1 3 -3.5t3 -3.5v-1v0v0l1 -1v-1q3 -3 6 -6.5t6 -6.5q2 -1 4 -3l3 -3l1.5 -1.5l1.5 -1.5h0.5t0.5 -1q1 0 1.5 -0.5l0.5 -0.5q1 -1 2 -1.5t2 -1.5t3 -2l4 -2t4 -2.5t4 -2.5q1 0 2 -0.5t2 -0.5v0q4 -1 8 -3t8 -3q6 -1 11.5 -2t10.5 -2
q1 0 1.5 -0.5t1.5 -0.5v0h1h1q2 0 4.5 -0.5t4.5 -0.5h10h9q2 0 4.5 0.5t4.5 0.5h2t2 1q4 1 8.5 2t8.5 2q2 1 4.5 1.5t3.5 1.5q1 0 2.5 0.5t2.5 0.5v0q1 1 1.5 1h1.5l1.5 1.5t1.5 0.5l4 2l4 2q4 2 7.5 4.5t7.5 4.5q1 1 3.5 3t3.5 3q1 0 1.5 0.5l1.5 1.5q3 3 6.5 6t6.5 6
q7 7 13.5 14t12.5 14q2 1 4 3.5t3 3.5t1 1.5t1 1.5q1 2 3 4.5t3 3.5q4 6 7 11.5t7 11.5q7 13 14 27t13 27v1.5t1 1.5q1 2 1.5 4t1.5 3q1 4 3 8t3 8q3 9 6 17.5t6 16.5q13 37 24.5 74t21.5 74q11 39 21 78l20 78q9 35 18 70.5t19 70.5q3 11 13 16t20 3zM90 105q0 -1 0.5 -1
t0.5 -1l-0.5 0.5t-0.5 1.5zM179 56q-1 0 -2.5 0.5t-0.5 0.5q1 -1 1.5 -1h1.5zM339 139q-1 -1 -1.5 -2t0.5 0v1zM340 140v0v0zM52 198v2v0v-1v-1z" />
    <glyph glyph-name="V" unicode="V" horiz-adv-x="567" 
d="M42 638v0h1h0.5t0.5 -1l-0.5 0.5t-1.5 0.5v0zM67 624v-1h1v0q-1 1 -2 1.5l-1 0.5q1 0 1 -0.5t1 -0.5zM524 721q27 -39 33.5 -86.5t-0.5 -93.5q-4 -25 -12.5 -49t-18.5 -47q-8 -21 -18.5 -41t-21.5 -39q-21 -38 -46 -74t-53 -69q-27 -32 -57 -62t-63 -58t-69 -53t-74 -46
q-7 -4 -14 -4t-13 4q-6 3 -10.5 9.5t-3.5 13.5q6 43 11.5 85.5t10.5 85.5q4 38 9.5 76.5t9.5 75.5q4 36 7.5 72.5t-0.5 72.5v4v3v0.5t-1 1.5v1v0v1v-1v0v2v2q-1 4 -2 8.5t-2 8.5q-1 7 -3.5 14t-4.5 14q-1 1 -2.5 5t1.5 -2q-1 1 -1.5 3t-1.5 3q-1 3 -3 6t-3 6q-3 6 -7 12
t-8 11q0 1 -0.5 1.5l-0.5 0.5l-2.5 2.5l-2.5 2.5q-2 3 -4.5 5.5l-4.5 4.5t-5 4.5t-5 4.5v-0.5t1 -0.5l-1 1h-1v1q-1 0 -1.5 0.5l-0.5 0.5q-1 1 -2 1.5t-2 1.5q-3 1 -6 3.5t-6 3.5q-1 1 -2.5 1.5t-2.5 0.5q1 0 0.5 0.5t-1.5 0.5h-1v0q-1 0 -1 0.5t-1 0.5h1l1 -1q-7 2 -13.5 4
t-13.5 3q-10 2 -15 13t-3 20q1 5 4.5 9.5t7.5 6.5q5 3 10 3.5t11 -0.5q36 -5 65 -27.5t49 -51.5q21 -31 30.5 -65.5t11.5 -70.5t-2 -72.5t-8 -71.5q-8 -65 -16.5 -130.5t-16.5 -130.5l20 14l20 14q4 3 8.5 6t8.5 6q1 1 2 1.5t2 1.5q2 1 4.5 3t3.5 3q8 7 16.5 13.5t15.5 13.5
q31 27 60 57t54 61q2 2 4 4.5t3 3.5t1.5 2.5t1.5 2.5v0h1q2 4 5 8l6 8q6 8 12 16.5t12 17.5q11 17 22 34.5t21 35.5q5 9 10 18.5t9 19.5q3 5 5.5 10.5t4.5 10.5q1 1 1.5 3t1.5 3v0.5t1 1.5q0 1 0.5 2t0.5 2q1 1 1.5 2.5t0.5 2.5q4 10 8 21.5t7 22.5q1 6 2.5 11.5t2.5 11.5
q1 3 1.5 5.5t0.5 5.5l1 1v1v2.5v2.5q1 10 1.5 21t-0.5 21v4.5t-1 5.5v1.5v1.5v1q-1 5 -2.5 10.5t-2.5 10.5q-1 4 -2.5 9.5t-3.5 9.5q0 1 -0.5 2t-0.5 2v0h-1q-1 2 -2 4.5t-2 4.5q-2 4 -5 9t-5 9q-1 1 -1.5 2t-1.5 2q-2 1 -4 3.5t-3 3.5q-7 9 -7 19.5t7 18.5t19 8t19 -8
q4 -4 8.5 -9.5t8.5 -10.5zM506 620v-2v-1v1.5v1.5zM130 504v0q0 -1 0.5 -1.5t0.5 -1.5v0t-1 3z" />
    <glyph glyph-name="W" unicode="W" horiz-adv-x="836" 
d="M744 695v0q1 -1 1.5 -2t-1.5 2zM776 741q32 -34 43.5 -79.5t5.5 -91.5q-6 -45 -23 -87.5t-37 -82.5q-18 -36 -38.5 -71t-42.5 -69q-45 -68 -98 -131.5t-113 -119.5q-6 -6 -14 -7.5t-15 1.5q-8 4 -12 10.5t-5 14.5l-6 60t-5 60q-4 52 -8 105.5t-8 105.5q-1 32 -3 64.5
t-3 64.5l-16 -24l-16 -24q-34 -51 -69 -104t-69 -104q-34 -52 -69 -104.5t-69 -104.5q-5 -7 -13.5 -10.5t-17.5 -1.5q-8 1 -13.5 9t-6.5 17v3.5v4.5q0 26 -0.5 52t-0.5 51q-1 36 -1.5 72t-1.5 72q-1 39 -2.5 78.5t-2.5 78.5q-2 34 -4.5 69.5t-6.5 69.5q-1 4 -1 7.5t-1 7.5
q0 2 -0.5 6t0.5 -5q0 1 -0.5 3t-0.5 4l-2 12t-2 13q-1 10 -3.5 19.5t-6.5 19.5t2.5 20t16.5 13q11 4 20.5 -2.5t12.5 -16.5q1 -2 1.5 -4t1.5 -4q7 -25 11 -52.5t6 -54.5q4 -35 6.5 -71t3.5 -72q2 -39 3.5 -78t2.5 -79q1 -35 1.5 -70.5t0.5 -70.5v-4.5v-4.5q7 11 14.5 22.5
t14.5 21.5q34 52 69.5 104.5t69.5 104.5t69 104.5t69 104.5q5 7 13 10.5t17 1.5t14.5 -9.5t5.5 -16.5q1 -30 2.5 -60t2.5 -60l6 -106t7 -106q3 -38 6.5 -76.5t6.5 -76.5q22 21 42 43.5t39 45.5q3 4 6.5 8t6.5 8q1 2 3 4t3 4q1 1 3 3.5t3 3.5v1l1 1q0 1 0.5 1t1.5 1
q1 2 3 4.5t3 4.5q3 4 6 7.5t5 7.5q12 16 23.5 32.5t21.5 32.5q21 33 40.5 67.5t36.5 69.5q4 9 8.5 18t8.5 19l2 4l2 4q0 1 0.5 1.5l0.5 0.5q1 1 1 2.5t1 2.5q1 4 3.5 9.5t3.5 9.5q4 10 7 20t5 20q1 5 2.5 11t2.5 11v0.5v1.5v1v1q1 3 1 5.5v4.5q1 9 1 18t-1 18v2.5v2.5v-1v1
v0v1v0q0 1 -0.5 1.5l-0.5 0.5v2.5t-1 2.5q-1 4 -2 8.5t-2 8.5t-2.5 8t-2.5 8q-1 1 -1 2t-1 2q-1 2 -2 4.5t-2 3.5q-2 4 -4.5 8t-5.5 8q0 1 -0.5 1.5l-1.5 1.5l1 -1v-1v1v0q-1 1 -3 3.5t-3 3.5q-8 8 -8 19t8 19q7 8 19 7.5t19 -7.5zM761 666v0v0zM771 628q0 -1 0.5 -1.5
t0.5 -1.5v0q-1 3 -1 3.5t0 -0.5z" />
    <glyph glyph-name="X" unicode="X" horiz-adv-x="773" 
d="M751 734q10 -4 12 -15.5t-2 -21.5q-5 -10 -16.5 -12t-20.5 3h-1q-1 1 -2 1h-2q-1 1 -1.5 1h-1.5h-3h-3h-1h-1v0q-1 0 -2.5 -0.5t-2.5 -0.5q-1 -1 -2 -1t-2 -1q-2 -1 -4.5 -2t-4.5 -2t-4.5 -3t-4.5 -3q-1 -1 -2 -1.5t-2 -1.5l-8 -8l-8 -8t-7.5 -8.5t-6.5 -8.5
q-2 -2 -4 -4.5t-4 -4.5q-1 -1 -1.5 -2t-1.5 -2q-8 -10 -16 -21.5t-16 -21.5q-37 -49 -73.5 -97t-72.5 -97q-6 -7 -11.5 -14t-10.5 -14q1 -4 3 -7.5t3 -7.5q2 -7 5 -14l6 -14q2 -7 5.5 -13.5t5.5 -13.5q-1 1 -1 1.5t1 -1.5v-1v0v0v0q1 -1 1 -1.5v-1.5q1 -1 1.5 -3t1.5 -4
q1 -3 3 -6t3 -6l6 -14t7 -14q6 -13 13 -27t14 -27t15.5 -26t16.5 -26q1 -2 3.5 -5t3.5 -6q1 -1 2 -2.5t2 -2.5q1 0 1 -0.5v-0.5q4 -5 9 -11t10 -11q4 -5 9.5 -10.5t10.5 -9.5q1 -1 3 -2.5t3 -2.5q1 0 2.5 -1.5t-1.5 0.5q-2 2 -1 1.5t1 -1.5q3 -1 6 -3.5t5 -3.5q3 -1 6 -3
t5 -3q1 0 1 -0.5t1 -0.5v0h1l1 -1q-1 0 -1 0.5v0.5q1 -1 2 -1t2 -1q3 -1 5.5 -1.5t5.5 -0.5q1 0 2.5 -0.5t2.5 -0.5h6t6 1h1h2t2 1q3 0 5.5 1t5.5 2h1.5t0.5 1v0q1 0 1.5 0.5l0.5 0.5q1 1 3 1.5t3 1.5l1.5 1.5t1.5 0.5q-1 0 -1.5 -0.5l-1.5 -1.5q1 1 3.5 3t3.5 3t1 1.5
t1 1.5q0 1 0.5 1h0.5q1 1 1.5 2.5t0.5 2.5v0q4 10 13.5 15.5t20.5 3.5q10 -2 16 -12.5t3 -20.5q-3 -8 -7 -15t-9 -14q-16 -20 -43.5 -29t-52.5 -6q-15 2 -29 7.5t-27 13.5t-25 18.5t-22 21.5q-20 22 -37 47.5t-31 51.5q-15 26 -28 53.5t-25 55.5q-4 10 -9 21.5t-9 22.5
q-22 -28 -43 -57.5t-42 -58.5q-16 -22 -33 -45.5t-33 -45.5q-17 -22 -36 -43t-41 -37q-19 -13 -41.5 -20.5t-44.5 -6.5q-13 1 -25 4t-22 9q-12 6 -21 16t-16 20q-6 10 -3 21t12 16q10 6 21 3t16 -12q1 -1 2 -2.5t2 -2.5v0q1 -2 3 -4l3 -3l0.5 -0.5l1.5 -1.5q1 0 1.5 -0.5
l0.5 -0.5q1 -1 3.5 -2t3.5 -2v0q1 -1 2.5 -1t2.5 -1t3.5 -1h3.5l1 -1v0h2h2h4.5h4.5h0.5h1.5v0l1 1h1q2 0 4.5 0.5t4.5 1.5t5 1.5t5 1.5q1 0 2 0.5t2 0.5q4 2 8.5 4.5t8.5 5.5q3 1 5.5 3t4.5 4v0h1q1 1 2 1.5t2 1.5q4 4 9 8.5t9 8.5t8.5 9.5t8.5 9.5q2 3 4 5.5t4 5.5l3 3
t-2 -2l2 2l2 2q7 10 14.5 20.5t14.5 20.5q18 25 35.5 49.5t35.5 48.5q19 25 37.5 50.5t37.5 50.5q-12 32 -23.5 64.5t-24.5 63.5l-6 14t-5 14q-1 1 -2.5 4.5t0.5 -1.5q-1 1 -1.5 3t-0.5 3q-1 4 -3 7t-3 7q-7 14 -13 28t-13 27q-6 12 -13 24.5t-14 23.5q-1 1 -2.5 3t-2.5 3v1
q-2 2 -4 4.5t-4 4.5t-4.5 5t-5.5 5l-1.5 1.5l-1.5 1.5v-1h1q-1 0 -1 0.5v0.5h-1v1q-1 0 -1.5 0.5l-0.5 0.5q-2 1 -4.5 2.5t-4.5 2.5q-1 1 -2 1t-2 1q-1 0 -2 0.5l-1 0.5q-3 1 -6.5 2.5t-6.5 0.5l3 -0.5t-1 0.5h-1.5h-1.5h-3h-3h-1.5h-1.5h-0.5h-1.5h-0.5t-0.5 -1h-1v0h1
h-1.5h-1.5l-6 -2l-6 -2h-1.5t-0.5 -1q-1 -1 -3 -1.5t-3 -1.5q-3 -1 -5.5 -3t-4.5 -3l-1.5 -1.5t-1.5 -0.5q-1 -1 -2 -2.5t-2 -2.5q-3 -2 -5 -4.5t-4 -5.5q4 4 1.5 1.5l-3.5 -3.5t-2 -3t-2 -3q-1 -3 -3 -6t-3 -6q0 -1 -0.5 -1.5l-0.5 -0.5v-1v0q-1 -1 -1.5 -3.5t-1.5 -3.5
l-2 -6t-2 -7t-1.5 -7.5t-1.5 -7.5q0 -1 -0.5 -4.5t0.5 0.5q0 4 0 2t-1 -3v-2v-2q-1 -11 -8 -18.5t-19 -8.5q-10 0 -19 8.5t-8 18.5q1 9 2.5 17.5t2.5 17.5q7 31 26 59t47 44q14 7 30.5 11.5t32.5 3.5t30.5 -6t27.5 -15q25 -18 41.5 -42t29.5 -50q14 -28 27 -57.5t24 -58.5
q10 -25 19.5 -49t18.5 -49q7 10 15 20.5t16 20.5q35 47 71 95t71 95q15 19 31.5 37.5t36.5 33.5q9 7 19.5 12t21.5 7q14 2 28 0t27 -9zM51 68v0v0zM66 56q-1 0 -1 0.5v0.5q0 -1 0.5 -1h0.5zM95 52q1 0 2 0.5t2 0.5h-1.5t-2.5 -1zM696 70l-1.5 -1.5l-0.5 -0.5q1 0 1 0.5
t1 1.5zM679 58q-1 -1 -2 -1.5l-1 -0.5q1 0 1.5 0.5zM700 688h1v0v0h-1zM725 688v0l1 -1zM690 64v0v1v-1zM182 694v0q1 1 1.5 1h1.5l-1 -0.5t-2 -0.5zM628 57v0h-1v1h-1t-0.5 0t3.5 -1v0h-1zM225 683l1 -1h1v0q-1 1 -2 1.5l-1 0.5q0 -1 0.5 -1h0.5zM464 292v0v0v1v-1v0z" />
    <glyph glyph-name="Y" unicode="Y" horiz-adv-x="584" 
d="M265 -22v0q-1 0 -1 -0.5t-1 -1.5t-1 -0.5t3 2.5zM61 -37q0 1 -0.5 1.5l-0.5 0.5v1l1.5 -3t-0.5 -1v1v0zM563 740q10 -2 16 -13t3 -21q-2 -7 -5 -15.5t-5 -16.5q-21 -67 -41.5 -134.5t-42.5 -133.5t-44.5 -133t-45.5 -133q-12 -32 -24 -64.5t-27 -63.5q-13 -28 -31 -54.5
t-41 -47.5q-11 -10 -24 -19t-26 -16q-16 -7 -31.5 -11.5t-32.5 -6.5q-31 -3 -61 6t-53 29q-24 21 -36.5 52t-13.5 62q-1 35 9 68.5t25 64.5q5 10 16.5 12t20.5 -2q10 -5 12 -16t-2 -21q-1 -4 -3.5 -7.5t-3.5 -7.5q-1 -1 -2 -3.5t1 1.5q-1 -1 -1.5 -3t-1.5 -4q-2 -7 -5 -14.5
t-4 -14.5l-2 -8l-2 -8q-1 -1 -1 -3.5v-3.5l-0.5 -0.5t-0.5 -1.5v0v-1q-1 -7 -1 -14.5v-14.5q0 -1 0.5 -3.5t0.5 -3.5v-1v-1q1 -3 1.5 -6t1.5 -6q1 -4 1.5 -7t1.5 -6q1 -1 1 -2t1 -2v0v0v-1v-0.5t1 -0.5v-1v-1q1 -2 3 -5l4 -6q1 -1 1.5 -2.5t1.5 -2.5q0 -1 0.5 -1t0.5 -1
l4.5 -4.5l4.5 -4.5q1 -1 2 -2.5t2 -2.5q1 0 1 -0.5t1 -0.5q2 -1 4.5 -3t5.5 -3q1 -1 3 -2t3 -1q0 -1 1 -1.5t2 -0.5q1 -1 2 -1t2 -1q1 0 3 -0.5t3 -0.5q3 -1 6 -1.5t6 -1.5q1 0 1.5 -0.5t1.5 -0.5h2.5h2.5q3 -1 6 -1h6t6.5 0.5t6.5 0.5h1q1 1 3 1h3q6 1 12.5 3.5t12.5 4.5
h0.5t1.5 1q1 0 2.5 0.5t2.5 1.5q3 1 6 3l6 4q3 1 6 3.5t6 4.5l2.5 1.5t1.5 0.5l1.5 1.5l0.5 0.5q5 4 10 9l10 10q2 2 4.5 5t4.5 5q1 1 2 2.5t2 2.5v0q0 1 0.5 1h0.5v0.5t1 0.5v1v0v-1q8 12 15.5 24.5t14.5 25.5q4 7 7 14.5t7 14.5v0.5v1.5l1 1q1 1 1.5 3.5t1.5 3.5
q1 4 2.5 7t2.5 7q12 31 23.5 63t22.5 63q7 19 13.5 39t13.5 40q-5 -6 -10.5 -12t-10.5 -12q-18 -18 -37.5 -34t-41.5 -29q-24 -13 -51 -22.5t-55 -8.5q-27 0 -53 10t-45 30q-18 19 -27 44t-10 51t2.5 52.5t7.5 51.5q4 27 10.5 54t13.5 54q15 54 33.5 107.5t37.5 106.5
q4 10 13 15.5t20 3.5q10 -2 16.5 -12.5t2.5 -20.5q-2 -7 -4.5 -13t-4.5 -12q-18 -51 -35.5 -103t-30.5 -104q-7 -25 -13 -51.5t-10 -53.5q0 -4 -0.5 -7t-1.5 -7v-1.5v-1.5v0q0 -1 -0.5 -1.5t-0.5 -1.5q-1 -6 -1 -11.5t-1 -10.5q0 -5 -0.5 -11t0.5 -11v-11.5t1 -10.5
l-0.5 2.5t0.5 -0.5v-1.5v-1.5q1 -1 1 -2v-2q1 -3 1.5 -5.5t1.5 -4.5q1 -3 1.5 -5.5t1.5 -5.5v0q1 -1 1 -2t1 -2q1 -2 3 -4.5t3 -4.5q0 -1 0.5 -2t1.5 -2h1q1 -2 3.5 -4.5l3.5 -3.5t2 -1.5t2 -1.5v0h1q2 -2 4.5 -3.5t4.5 -2.5q1 -1 2.5 -1.5t2.5 -1.5h1q4 -1 9.5 -3t10.5 -3
h1.5h1.5v0q1 0 1.5 -0.5l0.5 -0.5h6h5h6h6q1 0 2 0.5t2 0.5h1h1q6 1 12 3t12 3q3 1 6 2.5t6 2.5v0q1 1 3 1.5t3 0.5q11 5 21 11.5t20 13.5q1 1 3 2t3 2v0v1q2 1 4 3t4 3q4 4 8.5 7.5t8.5 7.5q8 7 16 15.5t15 17.5q4 4 7.5 9t7.5 9l1 1l1 1.5t2 2.5q1 2 3 4.5t4 4.5
q7 9 13 18.5t12 19.5q13 19 25 39.5t23 39.5q1 2 3 4l3 3q19 60 38 122t38 123q4 10 13.5 15.5t19.5 3.5zM106 357v0v0zM111 268v1v0v-1zM176 222h-1h-2h1.5h1.5zM163 -89h1v0h-1z" />
    <glyph glyph-name="Z" unicode="Z" horiz-adv-x="692" 
d="M669 -38q3 4 2 2.5t-2 -2.5v0zM739 -24q1 -4 0.5 -10.5t-3.5 -10.5q-13 -16 -28.5 -29.5t-34.5 -23.5t-38.5 -15.5t-40.5 -7.5q-37 -5 -75.5 2.5t-73.5 20.5q-37 14 -73 33t-71 38q-9 4 -17.5 9t-17.5 9q-4 2 -9.5 4.5t-9.5 4.5q-1 1 -3 1.5t-3 0.5l-1 1h-1q-1 1 -2 1
t-2 1q-17 7 -35 12.5t-37 8.5q-2 1 -5 1t-5 1v0h-2h-2q-4 1 -9 1h-9q-9 1 -18 0.5t-18 -1.5v0h-2h-2q-2 -1 -4.5 -1t-4.5 -1l-8 -2l-8 -2t-8.5 -3t-8.5 -3q6 2 2 0.5t-5 -2.5q-2 -1 -4.5 -2t-4.5 -2q-8 -5 -18 -3t-16 10q-7 7 -6 17.5t8 17.5q34 37 69.5 75.5t70.5 75.5
q62 66 124 133t124 133q51 54 102 110t102 110q-8 -1 -16.5 -1h-16.5q-87 -2 -176 -2.5t-177 -0.5q-11 0 -18.5 8t-8.5 19q0 10 8.5 18.5t18.5 8.5h52.5h51.5q87 0 173.5 1t172.5 5q8 0 15 -5t10 -12t1.5 -15t-7.5 -14q-34 -37 -69.5 -75.5t-70.5 -75.5q-62 -66 -124 -133
t-124 -133q-46 -50 -92.5 -100t-92.5 -99q19 1 37.5 -0.5t37.5 -5.5q39 -7 76 -23t72 -35q17 -9 34.5 -18.5t34.5 -18.5q8 -4 16.5 -8.5t17.5 -8.5q2 -1 5 -2t5 -2q1 -1 2.5 -1.5t2.5 -0.5q0 -1 0.5 -1h1.5q3 -1 6.5 -3t7.5 -3l18 -6t19 -6l18 -4t19 -3q-6 1 -3 0.5t4 -1.5
h2h2h4t4 -1h8h8h8.5t8.5 1h3.5h3.5t1 0.5v0.5h1v0q8 1 16 3l16 4q1 1 3.5 1.5t4.5 1.5q1 1 5 2.5t-3 -1.5q4 1 7 3t7 3q4 2 7 4t7 4q1 1 3 2t3 2h-1v0q1 0 1 0.5t1 1.5q3 2 6 5t6 5l3 3l3 3t3 4.5t-2 -2.5q4 4 7.5 8t9.5 5q5 1 10.5 0t9.5 -3t8 -7t5 -9z" />
    <glyph glyph-name="bracketleft" unicode="[" horiz-adv-x="423" 
d="M388 753q11 0 19 -8t8 -19t-8 -19t-19 -8h-138l-191 -644h127q11 0 19 -8t8 -19t-8 -19t-19 -8h-163q-7 0 -12.5 3t-9.5 8t-4.5 11.5t0.5 12.5l207 697q2 9 9.5 14.5t16.5 5.5h158z" />
    <glyph glyph-name="backslash" unicode="\" horiz-adv-x="406" 
d="M77 777q-10 -2 -16 -12.5t-3 -20.5v-1v0q2 -7 4.5 -15t4.5 -15q4 -15 8.5 -30.5t8.5 -31.5q6 -21 12.5 -42.5t12.5 -42.5q7 -25 14.5 -51t14.5 -51q7 -27 15 -54t16 -55q7 -27 15 -53.5t15 -53.5q7 -25 14.5 -49.5t14.5 -49.5q5 -20 11 -40.5t12 -40.5q4 -13 7.5 -27
t7.5 -27q1 -5 3 -10.5t3 -9.5q3 -11 13 -16t20 -3t16 12.5t3 20.5v1v0q-2 7 -4.5 15t-4.5 15q-4 15 -8.5 30.5t-8.5 31.5q-6 21 -12.5 42.5t-12.5 42.5q-7 25 -14.5 51t-14.5 51q-7 27 -15.5 54t-15.5 55q-7 27 -15 53.5t-16 53.5q-7 25 -14 49.5t-14 49.5q-5 20 -11 40.5
t-12 40.5q-4 13 -7.5 27t-7.5 27q-1 5 -3 10.5t-3 9.5q-3 11 -13 16t-20 3z" />
    <glyph glyph-name="bracketright" unicode="]" horiz-adv-x="441" 
d="M425 737q4 -4 4.5 -10.5t-0.5 -13.5l-214 -699q-3 -9 -10 -14t-16 -5h-165q-11 0 -19 8t-8 19t8 19t19 8h145l198 645h-124q-11 0 -19 8t-8 19t8 19t19 8h160q7 0 12.5 -3t9.5 -8z" />
    <glyph glyph-name="asciicircum" unicode="^" horiz-adv-x="382" 
d="M320 561q6 -10 3.5 -20.5t-11.5 -17.5q-4 -2 -7.5 -3t-7.5 -1q-7 0 -13 3t-10 9l-93 144l-93 -144q-7 -9 -17.5 -11.5t-20.5 3.5q-9 7 -11.5 17.5t3.5 20.5l116 178q4 5 10 8.5t13 3.5t13 -3.5t10 -8.5z" />
    <glyph glyph-name="underscore" unicode="_" horiz-adv-x="708" 
d="M621 22q16 0 28 -8.5t12 -18.5q0 -11 -12 -19t-28 -8h-496q-16 0 -28 8t-12 19q0 10 12 18.5t28 8.5h496z" />
    <glyph glyph-name="a" unicode="a" horiz-adv-x="484" 
d="M193 436h1h-1t-2 -1v0h1zM298 122v0q1 0 1.5 1l0.5 1l-1 -1zM333 408v0q0 1 -0.5 1h-0.5h1v-1v0zM117 62v1h-1q1 0 1.5 -0.5t1.5 -0.5v0v0h-1h-1zM79 92v1q0 -1 0.5 -1.5l0.5 -0.5v0l-1 1v0zM359 270v-1v2v2v-1v-1v-1zM559 169q10 -2 16 -12.5t3 -20.5q-1 -7 -3.5 -13.5
t-5.5 -12.5q-9 -22 -21.5 -43t-31.5 -37q-16 -13 -34.5 -21.5t-39.5 -10.5q-33 -4 -64 12.5t-47 45.5l-3.5 7t-2.5 7q-9 -10 -19.5 -18.5t-20.5 -16.5q-29 -21 -64.5 -30t-70.5 -5q-19 1 -37 6.5t-34 15.5q-15 8 -27 20t-22 26q-19 27 -26 60t-7 65q1 37 9.5 73t23.5 70
q14 32 34.5 61.5t47.5 51.5q29 23 63.5 37t71.5 14q10 0 19.5 -1t19.5 -3q33 -6 60 -26t43 -49q3 -5 5.5 -10.5t4.5 -10.5q6 21 12 42.5t12 42.5q3 11 13 16t20 3t16 -12.5t3 -20.5q-1 -3 -1.5 -6t-1.5 -5q-10 -37 -21 -73t-21 -73q-5 -20 -11 -40l-12 -40q-2 -12 -5.5 -24
t-7.5 -24q-2 -7 -4.5 -15t-4.5 -15t-4 -13.5t-4 -13.5q-1 -2 -1 -4.5t-1 -4.5q-1 -1 -1 -3t-1 -3v-2v-2q-1 -2 -1 -4.5v-4.5q1 -1 1 -1.5v-1.5v-2v-2q1 -1 1.5 -3t0.5 -3l1 -1q1 -3 2.5 -5.5t2.5 -4.5l0.5 -0.5t0.5 -1.5l1.5 -1.5l1.5 -1.5l3.5 -3.5l4.5 -4.5h1q1 -1 2.5 -2
t2.5 -2t3 -1.5t3 -1.5h1l1 -1q2 -1 5 -1.5t6 -1.5q1 0 3 -0.5t3 -0.5v0q4 -1 7 -1t7 1h1.5h1.5h2.5t2.5 1l6 2t7 2q1 0 1 0.5t1 0.5q1 1 3.5 2t3.5 2t3.5 2t3.5 2q0 1 0.5 1h1.5l6 6t6 7q2 1 4 3t3 4q0 1 0.5 1.5l1.5 1.5q3 4 6 9l6 10l2.5 5l2.5 5q1 1 1 2.5t1 2.5v1v0
q3 6 5 12.5t4 12.5q3 10 13 15.5t20 3.5zM53 223v0v0zM304 129q2 4 4.5 7t4.5 7q4 7 8 14.5t8 14.5q2 4 4 7.5t3 7.5q0 1 0.5 1h0.5v1v1q1 1 1.5 3t1.5 4q0 1 0.5 1.5t0.5 1.5q4 12 7.5 24.5t6.5 24.5q1 3 1.5 6t1.5 6q0 2 0.5 4.5t0.5 3.5v-0.5v-1.5v1.5v1.5v0q0 1 0.5 2.5
t-0.5 0.5q1 4 1 7.5t1 6.5q0 8 0.5 16.5t-0.5 15.5v7.5t-1 7.5q0 2 -0.5 6.5t0.5 -4.5q0 1 -0.5 3.5t-0.5 3.5q-1 7 -3 14l-4 14q-1 2 -1.5 4.5t-1.5 4.5q-1 1 -1.5 2.5t-0.5 2.5q-1 1 -1.5 3t-1.5 3l-4 6t-3 6q-1 1 -2 2.5t-2 2.5q1 0 1 -0.5t1 -1.5l-1.5 1.5l-0.5 0.5v0v1
l-2 2t1 -2q-4 4 -7.5 8t-7.5 8q-1 1 -2 1.5t-2 1.5t-3 1.5t-3 1.5q-2 1 -5 3t-6 3q-1 0 -1 0.5t-1 0.5q-1 1 -3 1.5t-3 0.5q-4 1 -7.5 2t-7.5 2q-1 0 -3 0.5t-4 0.5h-0.5h-1.5q-4 1 -8.5 1h-8.5h-8h-8q-1 -1 -1.5 -1h-1.5h-3t-3 -1q-7 -1 -14 -3t-14 -5q1 1 0 0.5t-2 -1.5
h-1v0q-1 0 -1 -0.5t-1 -0.5q1 0 1 0.5t1 0.5q-1 -1 -3 -1.5t-3 -1.5q-4 -1 -7.5 -3.5t-6.5 -4.5q-3 -1 -6.5 -3.5t-6.5 -4.5q-1 -1 -2.5 -2t-2.5 -2t-1.5 -1t-0.5 -1q-7 -4 -12.5 -10t-11.5 -12q-2 -3 -5 -6t-5 -6l-1.5 -1.5l-1.5 -1.5v0v-1h-1v-1l-1.5 -1.5t-0.5 -1.5
q-5 -6 -9.5 -13t-8.5 -14t-8 -15t-8 -15q0 -1 -0.5 -2t-0.5 -2v0q-1 -1 -1 -1.5v-0.5q-1 -1 -1 -2t-1 -2q-1 -4 -2.5 -8t-2.5 -8q-3 -7 -5.5 -15.5t-4.5 -16.5q-1 -4 -1.5 -7.5t-1.5 -7.5q0 -2 -0.5 -4.5t-0.5 -4.5q0 -1 -0.5 -1.5t-0.5 -1.5q-1 -15 -1.5 -30t0.5 -30
q0 -2 0.5 -4t0.5 -4q-1 9 -0.5 5t0.5 -6q1 -4 1.5 -7t1.5 -7q1 -6 3 -12t4 -11q1 -1 1.5 -2.5t0.5 -2.5q1 -1 1.5 -3t1.5 -3q1 -3 3.5 -6t3.5 -5q1 -1 2 -2.5t2 -2.5q-1 0 -1 0.5t-1 0.5q1 0 1 -0.5t1 -1.5v0l2 -2t-1 1l4.5 -4.5l4.5 -4.5l3 -3l3 -3l2 -2t2 -1q1 -1 3 -2
t3 -2q3 -1 5.5 -3t5.5 -3q-1 1 0.5 0.5t2.5 -1.5l0.5 -0.5t1.5 -0.5h-1.5t-0.5 1q1 -1 3 -1.5t3 -0.5q4 -1 7.5 -2.5t7.5 -2.5q2 0 4 -0.5t4 -0.5h1h1q8 -1 16.5 -1.5t16.5 0.5h3.5h3.5q1 1 1.5 1h1.5q4 1 7.5 1.5t6.5 1.5q4 1 7.5 2.5t7.5 2.5q1 0 1.5 0.5t1.5 0.5
q1 1 2.5 1.5t2.5 1.5q7 3 13.5 7t13.5 8l1.5 1.5l1.5 1.5h1v1q1 1 1.5 1t1.5 1q3 3 6 5.5t6 5.5q6 5 11.5 11t10.5 12v1q-1 -1 -1 -1.5t1 0.5v1v0l1.5 1.5l1.5 1.5h-0.5t-0.5 -1q1 1 2 2.5t2 2.5z" />
    <glyph glyph-name="b" unicode="b" horiz-adv-x="549" 
d="M391 408v0q0 1 -0.5 1h-0.5v0h1v-1v0zM251 436h1h-1.5t-1.5 -1v0h1zM417 270v-1v2v2v-1v-1v-1zM175 62q0 1 -0.5 1h-0.5q1 0 1.5 -0.5t1.5 -0.5v0v0h-1h-1zM137 92v1q0 -1 0.5 -1.5l0.5 -0.5v0l-1 1v0zM586 323q10 1 19 -8t8 -19v-1v-1q-3 -28 -14.5 -55.5t-28.5 -49.5
q-15 -18 -34 -31.5t-40 -22.5q-18 -7 -37.5 -11t-38.5 -5q-15 -24 -34.5 -45.5t-42.5 -38.5q-29 -21 -64.5 -30t-70.5 -5q-19 1 -37 6.5t-34 15.5q-15 8 -27 20t-22 26q-5 7 -9 15.5t-8 16.5q-1 -1 -1 -3.5t-1 -3.5q-4 -13 -7.5 -25t-7.5 -25q-1 -4 -2.5 -9t-2.5 -9
q-3 -11 -13 -16t-20 -3t-16 12.5t-3 20.5v1v0q2 7 4 13.5t4 13.5q4 14 8.5 28t8.5 28q5 19 11 39t11 39q7 23 13.5 46.5t13.5 45.5q7 25 14.5 49.5t14.5 49.5t14.5 49.5t14.5 49.5q7 22 13.5 44.5t13.5 44.5q5 18 10.5 36.5t10.5 36.5q4 13 7.5 25t7.5 25q1 4 2.5 9t2.5 9
q3 11 13 16t20 3t16 -12.5t3 -20.5v-1v0q-2 -7 -4 -13.5t-4 -13.5q-4 -14 -8.5 -28t-8.5 -28q-5 -19 -11 -39t-11 -39q-7 -23 -13.5 -46.5t-13.5 -45.5l-1 -1v0q28 22 61 35t70 13q10 0 19.5 -1t19.5 -3q33 -6 60 -26t43 -49q16 -30 21.5 -63.5t4.5 -67.5q-1 -29 -8 -57.5
t-17 -55.5q2 1 4.5 1.5t5.5 0.5q4 1 9.5 3t9.5 4q1 0 2 0.5t2 0.5q1 1 2 1.5t2 1.5q2 1 4.5 2t4.5 2t4.5 3t4.5 3q1 1 2 1.5t2 1.5v0q3 2 6.5 5t6.5 6q2 3 5 6t5 6h1q0 1 0.5 2t1.5 2t2 3t2 3q2 4 4.5 7t3.5 7q1 1 1.5 3.5t1.5 3.5v0q2 6 4.5 11.5t3.5 11.5q1 4 1.5 7.5
t1.5 7.5v1q1 11 8.5 18.5t18.5 8.5zM211 412q-1 -1 -1.5 -1t-1.5 -1t-3.5 -3t-3.5 -3t-2 -2.5t-2 -2.5l-1 -1l-1 -1t-2 -3t-2 -3v-1.5t-1 -1.5v0v-1q-2 -5 -3.5 -10.5t-2.5 -11.5v0v-1v-2.5v-2.5q-1 -3 -1 -6.5v-6.5v-7t1 -7v-3.5v-3.5v1.5v1.5v-1.5v-1.5q1 -2 1 -3.5t0 2.5
q1 -7 2.5 -15t4.5 -15q0 -1 0.5 -3.5t1.5 -4.5q1 -1 1.5 -3t1.5 -3q1 -2 2.5 -4.5t2.5 -5.5q1 -4 3.5 -7t4.5 -7q1 -2 2.5 -4t2.5 -4q1 0 1 -0.5t1 -1.5q5 -7 11.5 -13.5t13.5 -12.5q1 -1 1.5 -1t1.5 -1l-0.5 0.5t-1.5 0.5q1 0 1.5 -0.5t1.5 -0.5v-1v0h1l1.5 -1.5t-0.5 0.5
q1 -1 2.5 -2t2.5 -2q4 -3 9 -5.5l9 -4.5t8 -4.5t8 -3.5q1 -1 1.5 -1t1.5 -1q1 0 2.5 -0.5t2.5 -1.5q3 -1 5.5 -1.5t5.5 -1.5l12 -4t12 -3t12.5 -2.5t13.5 -1.5h-2h-2h1h1h2h2q1 -1 3 -1h3q4 -1 7.5 -1h6.5q2 0 5 -0.5t5 -0.5q1 4 3 7.5t3 6.5v1h1v1v1q1 1 1.5 3t1.5 4
q6 16 10.5 32t7.5 32v4.5t1 3.5v-0.5v-1.5v1.5v1.5v0q0 1 0.5 2.5t-0.5 0.5q1 4 1 7.5t1 6.5q0 8 0.5 16.5t-0.5 15.5q0 4 -0.5 7.5t-0.5 7.5q0 2 -0.5 6.5t0.5 -4.5q-1 1 -1 3.5v3.5q-1 7 -3 14l-4 14q-1 2 -1.5 4.5t-1.5 4.5q-1 1 -1.5 2.5t-0.5 2.5q-1 1 -1.5 3t-1.5 3
l-4 6t-3 6q-1 1 -2 2.5t-2 2.5l0.5 -0.5l1.5 -1.5l-1.5 1.5l-0.5 0.5v0v1l-2 2t1 -2q-4 4 -7.5 8t-7.5 8q-1 1 -2 1.5t-2 1.5t-3 1.5t-3 1.5q-2 1 -5 3t-6 3q-1 0 -1 0.5t-1 0.5q-1 1 -3 1.5t-3 0.5q-4 1 -7.5 2t-7.5 2q-1 0 -3.5 0.5t-3.5 0.5h-1h-1q-4 1 -8.5 1h-8.5h-8
h-8q-1 -1 -1.5 -1h-1.5h-3t-3 -1q-7 -1 -14 -3t-14 -5q1 1 -0.5 0.5t-2.5 -1.5v0q-1 0 -1 -0.5t-1 -0.5q1 0 1 0.5t1 0.5q-1 -1 -3 -1.5t-3 -1.5q-4 -1 -7.5 -3.5t-6.5 -4.5q-4 -1 -7 -3.5t-6 -4.5q-1 -1 -2.5 -2t-2.5 -2zM111 223v0v0zM356 122q-1 -1 -1 -1.5t1 0.5v1v0v0
v0v0q-46 5 -89.5 22t-76.5 51q-22 22 -36.5 51t-20.5 60v-1v0q-1 -1 -1 -2t-1 -2q-1 -4 -2.5 -8t-2.5 -8q-1 -1 -1 -1.5t-1 -1.5q-1 -5 -3 -10.5t-3 -10.5q0 -1 -0.5 -3.5t-1.5 -4.5q-1 -4 -1.5 -7.5t-1.5 -7.5q0 -2 -0.5 -4.5t-0.5 -4.5q0 -1 -0.5 -1.5t-0.5 -1.5
q-1 -15 -1.5 -30t0.5 -30q0 -2 0.5 -4t0.5 -4q-1 9 -0.5 5t0.5 -6q1 -4 1.5 -7t1.5 -7q1 -6 3 -12t4 -11q1 -1 1.5 -2.5t0.5 -2.5q1 -1 1.5 -3t1.5 -3q1 -3 3.5 -6t3.5 -5q1 -1 2 -2.5t2 -2.5q-1 0 -1 0.5t-1 0.5q1 0 1 -0.5t1 -1.5v0l2 -2t-1 1l4.5 -4.5t3.5 -4.5
q2 -1 4 -3l3 -3l2 -2t2 -1q1 -1 3 -2t3 -2q3 -1 5.5 -3t5.5 -3q-2 1 0 0.5t3 -1.5l0.5 -0.5t1.5 -0.5h-1.5t-0.5 1q1 -1 3 -1.5t3 -0.5q4 -1 7.5 -2.5t7.5 -2.5q2 0 4 -0.5t4 -0.5h1h1q8 -1 16.5 -1.5t16.5 0.5h3.5h3.5q1 1 1.5 1h1.5q4 1 7 1.5t7 1.5t7.5 2.5t7.5 2.5
q1 0 1.5 0.5t1.5 0.5q1 1 2.5 1.5t2.5 1.5q7 3 13.5 7t13.5 8l1.5 1.5l1.5 1.5h1v1q1 1 1.5 1t1.5 1q3 3 6 5.5t6 5.5q6 5 11.5 11t10.5 12v1zM476 185v0h-1h1zM246 217q0 1 -0.5 1h-0.5q1 -1 1.5 -1t1.5 -1q-1 1 -1.5 1h-0.5zM184 325v0v-1h1h-1v0v1v0z" />
    <glyph glyph-name="c" unicode="c" horiz-adv-x="427" 
d="M381 151q3 4 2 2.5t-2 -2.5v0zM311 443v0q-4 1 -2.5 1t2.5 -1zM286 450v0h1.5h1.5h-1h-2zM73 292v0v1v0q-1 -4 -1.5 -3.5t0.5 1.5v1h1zM64 128v0.5t-1 0.5v0q2 -3 2 -2.5t-1 1.5zM460 262q10 -2 15.5 -12.5t3.5 -20.5q-2 -7 -4.5 -14.5t-4.5 -14.5q-24 -62 -71 -109.5
t-108 -72.5q-30 -13 -63.5 -18.5t-64.5 -1.5q-19 2 -37 7t-34 14q-17 9 -31 21.5t-25 28.5q-22 29 -31.5 66.5t-7.5 74.5q1 20 5.5 40t11.5 39q6 19 14.5 37t18.5 35q19 31 46 58.5t58 48.5q13 8 27 15.5t29 11.5q12 4 24.5 6.5t24.5 3.5q24 1 49.5 -4t44.5 -18
q10 -7 19.5 -16.5t14.5 -21.5q7 -13 9 -27.5t1 -29.5q-1 -11 -8 -18.5t-19 -8.5q-10 -1 -19 8t-8 19q1 3 1 6v6v3v3v0.5t-1 0.5q0 2 -0.5 4.5t-1.5 4.5v1.5t-1 1.5q-1 2 -2.5 4.5t-2.5 3.5v1v0q0 1 -0.5 1t-0.5 1q-1 1 -3.5 3t-3.5 3t-1.5 1t-1.5 1q-2 1 -4.5 2.5t-4.5 2.5
v0h-1h1.5h0.5q-1 0 -2 0.5t-2 0.5q-4 1 -9.5 2.5t-9.5 2.5h-0.5t-0.5 1q1 -1 -0.5 -0.5t-2.5 0.5h-0.5h-1.5h1h1h-1q-2 0 -4.5 0.5t-4.5 0.5h-11t-11 -1h-2.5h-2.5q-2 -1 -5 -1t-5 -1q-4 -1 -9.5 -2.5t-10.5 -2.5q-1 -1 -2.5 -1.5t-2.5 -0.5q-3 -1 -5.5 -2.5t-5.5 -2.5
q-7 -4 -13.5 -8.5t-13.5 -8.5q-4 -2 -7 -4.5t-6 -4.5v0l-1.5 -1.5t-1.5 -0.5l-3 -3l-3 -3q-7 -5 -13 -11l-12 -12q-3 -3 -5.5 -6t-5.5 -6q-1 -1 -2.5 -3t-2.5 -4q-1 0 -2.5 -2t-1.5 -3q-10 -13 -17.5 -26t-14.5 -27q-1 -2 -2 -4.5t-2 -4.5v0v0v-1h-1v-1v-0.5t-1 -0.5
q-1 -4 -3 -8.5t-3 -8.5q-3 -9 -5.5 -17.5t-4.5 -17.5q-1 -4 -1.5 -9t-1.5 -9q1 7 0.5 2.5t-0.5 -5.5v-4.5t-1 -4.5v-16.5t1 -17.5v-1.5v-0.5q1 -2 1 -4.5t1 -3.5q1 -4 1.5 -8t1.5 -8t2.5 -8t2.5 -8q1 -1 1 -1.5v-1.5v0v1v-1v0q1 0 1 -0.5v-0.5q1 -1 1 -2.5t1 -2.5
q4 -7 8 -13.5t8 -13.5q1 0 1 -0.5v-0.5l1.5 -1.5l0.5 -0.5l3 -3l3 -3q2 -3 5 -5.5t5 -4.5h1q0 -1 0.5 -1t1.5 -1t3 -2t3 -2l6 -4t6 -3q2 -1 5.5 -2t-2.5 1q1 -1 3 -1.5t4 -1.5l6 -2t7 -2t8 -1.5t8 -1.5l1 -1h1h3h3q7 -1 15 -1h15q4 0 8.5 0.5t8.5 1.5l-3.5 -0.5t0.5 -0.5
q1 0 1.5 0.5t1.5 0.5t3.5 0.5t3.5 0.5q7 1 14 3l14 4q6 1 11.5 3.5t11.5 4.5l2.5 1t3.5 2q1 0 3 0.5t3 1.5q3 1 6 3l6 4q7 3 13 7l12 8q3 1 5.5 3.5t5.5 4.5q1 0 1 0.5t1 0.5l2.5 2.5l2.5 2.5q11 9 21 19.5t19 21.5v-1q0 1 0.5 1.5l1.5 1.5t2 2.5t2 2.5q1 3 3.5 6t4.5 6
q4 6 7.5 12t6.5 13q1 3 3 6t3 7v0v0.5t1 0.5q0 1 0.5 3.5t1.5 3.5q2 7 4.5 13.5t4.5 13.5q2 11 12.5 16t20.5 3zM338 418v-1.5t0 0.5v1zM53 169v0v-1v1z" />
    <glyph glyph-name="d" unicode="d" horiz-adv-x="565" 
d="M298 122v0q1 0 1.5 1l0.5 1l-1 -1zM193 436h1h-1t-2 -1v0h1zM359 270v-1v2v2v-1v-1v-1zM117 62v1h-1q1 0 1.5 -0.5t1.5 -0.5v0v0h-1h-1zM333 408v0q0 1 -0.5 1h-0.5h1v-1v0zM79 92v1q0 -1 0.5 -1.5l0.5 -0.5v0l-1 1v0zM571 169q10 -2 16 -12.5t3 -20.5q-3 -11 -7.5 -21.5
t-8.5 -20.5q-13 -30 -36.5 -54.5t-55.5 -35.5q-24 -9 -50.5 -6t-48.5 16q-19 12 -31.5 29t-17.5 37q-11 -13 -23.5 -24t-25.5 -21q-29 -21 -64.5 -30t-70.5 -5q-19 1 -37 6.5t-34 15.5q-15 8 -27 20t-22 26q-19 27 -26 60t-7 65q1 37 9.5 73t23.5 70q14 32 34.5 61.5
t47.5 51.5q29 23 63.5 37t71.5 14q10 0 19.5 -1t19.5 -3q33 -6 60 -26t43 -49q5 -10 9.5 -20.5t7.5 -21.5q7 22 13 44t13 44q8 28 16.5 57t16.5 57q7 23 13.5 46.5t13.5 46.5l8 28t8 27q3 11 13 16t20 3t16 -12.5t3 -20.5q-1 -2 -1.5 -4.5t-0.5 -4.5q-4 -16 -9.5 -32
t-9.5 -32l-14 -48t-14 -49q-8 -28 -16.5 -57t-17.5 -57q-8 -29 -16.5 -58.5t-17.5 -57.5q-7 -25 -15 -51t-15 -52q-5 -18 -10.5 -36t-10.5 -36q-1 -5 -2.5 -10.5t-2.5 -9.5q-1 -1 -1 -3t-1 -3v-1.5v-1.5v-1v0q-1 -2 -1 -4.5t1 -5.5v-0.5v-1.5v-1q1 -2 1 -4.5t1 -4.5l1 -1v0
v-1.5t1 -0.5q1 -2 2 -4.5t2 -3.5t1 -1.5t1 -0.5v-1v0l3.5 -3.5l3.5 -3.5l1.5 -1.5t1.5 -0.5q4 -3 7.5 -5t7.5 -4v0q1 -1 2.5 -1t2.5 -1q2 -1 5 -1t5 -1v0h1.5h1.5q3 -1 5.5 -1t5.5 1h2h2q3 0 5.5 0.5t4.5 1.5q1 1 3 1t3 1h0.5t0.5 1q2 1 4.5 2t4.5 2t4.5 3t5.5 3v1h1
l2.5 2.5l2.5 2.5l4.5 4.5t4.5 5.5l2 2l2 2t1 1.5t1 1.5q4 7 8.5 14t7.5 15q1 1 1.5 2t1.5 2v1v0q0 1 0.5 1.5l0.5 0.5q0 1 0.5 2t0.5 2l4 10t3 10q3 10 13 15.5t20 3.5zM53 223v0v0zM313 143q4 7 8 14.5t8 14.5q2 4 4 7.5t3 7.5q0 1 0.5 1h0.5v1v1q1 1 1.5 3t1.5 4
q6 16 10.5 32t7.5 32q0 2 0.5 4.5t0.5 3.5v-0.5v-1.5v1.5v1.5v0q0 1 0.5 2.5t-0.5 0.5q1 4 1 7.5t1 6.5q0 8 0.5 16.5t-0.5 15.5v7.5t-1 7.5q0 2 -0.5 6.5t0.5 -4.5q0 1 -0.5 3.5t-0.5 3.5q-1 7 -3 14l-4 14q-1 2 -1.5 4.5t-1.5 4.5q-1 1 -1.5 2.5t-0.5 2.5q-1 1 -1.5 3
t-1.5 3l-4 6t-3 6q-1 1 -2 2.5t-2 2.5q1 0 1 -0.5t1 -1.5l-1.5 1.5l-0.5 0.5v0v1l-2 2t1 -2q-4 4 -7.5 8t-7.5 8q-1 1 -2 1.5t-2 1.5t-3 1.5t-3 1.5q-2 1 -5 3t-6 3q-1 0 -1 0.5t-1 0.5q-1 1 -3 1.5t-3 0.5q-4 1 -7.5 2t-7.5 2q-1 0 -3 0.5t-4 0.5h-0.5h-1.5q-4 1 -8.5 1
h-8.5h-8h-8q-1 -1 -1.5 -1h-1.5h-3t-3 -1q-7 -1 -14 -3t-14 -5q1 1 0 0.5t-2 -1.5h-1v0q-1 0 -1 -0.5t-1 -0.5q1 0 1 0.5t1 0.5q-1 -1 -3 -1.5t-3 -1.5q-4 -1 -7.5 -3.5t-6.5 -4.5q-3 -1 -6.5 -3.5t-6.5 -4.5q-1 -1 -2.5 -2t-2.5 -2t-1.5 -1t-0.5 -1q-7 -4 -12.5 -10
t-11.5 -12q-2 -3 -5 -6t-5 -6l-1.5 -1.5l-1.5 -1.5v0v-1h-1v-1l-1.5 -1.5t-0.5 -1.5q-5 -6 -9.5 -13t-8.5 -14t-8 -15t-8 -15q0 -1 -0.5 -2t-0.5 -2v0q-1 -1 -1 -1.5v-0.5q-1 -1 -1 -2t-1 -2q-1 -4 -2.5 -8t-2.5 -8q-3 -7 -5.5 -15.5t-4.5 -16.5q-1 -4 -1.5 -7.5t-1.5 -7.5
q0 -2 -0.5 -4.5t-0.5 -4.5q0 -1 -0.5 -1.5t-0.5 -1.5q-1 -15 -1.5 -30t0.5 -30q0 -2 0.5 -4t0.5 -4q-1 9 -0.5 5t0.5 -6q1 -4 1.5 -7t1.5 -7q1 -6 3 -12t4 -11q1 -1 1.5 -2.5t0.5 -2.5q1 -1 1.5 -3t1.5 -3q1 -3 3.5 -6t3.5 -5q1 -1 2 -2.5t2 -2.5q-1 0 -1 0.5t-1 0.5
q1 0 1 -0.5t1 -1.5v0l2 -2t-1 1l4.5 -4.5l4.5 -4.5l3 -3l3 -3l2 -2t2 -1q1 -1 3 -2t3 -2q3 -1 5.5 -3t5.5 -3q-1 1 0.5 0.5t2.5 -1.5l0.5 -0.5t1.5 -0.5h-1.5t-0.5 1q1 -1 3 -1.5t3 -0.5q4 -1 7.5 -2.5t7.5 -2.5q2 0 4 -0.5t4 -0.5h1h1q8 -1 16.5 -1.5t16.5 0.5h3.5h3.5
q1 1 1.5 1h1.5q4 1 7.5 1.5t6.5 1.5q4 1 7.5 2.5t7.5 2.5q1 0 1.5 0.5t1.5 0.5q1 1 2.5 1.5t2.5 1.5q7 3 13.5 7t13.5 8l1.5 1.5l1.5 1.5h1v1q1 1 1.5 1t1.5 1q3 3 6 5.5t6 5.5q6 5 11.5 11t10.5 12v1q-1 -1 -1 -1.5t1 0.5v1v0l1.5 1.5l1.5 1.5h-0.5t-0.5 -1q1 1 2 2.5
t2 2.5q2 4 4.5 7t4.5 7zM384 101v0v0zM403 66v0v0zM450 51v0v0z" />
    <glyph glyph-name="e" unicode="e" horiz-adv-x="426" 
d="M150 412v1q0 -1 -0.5 -1t-0.5 -1v1h1zM324 69v0q-1 -1 -1.5 -1h-1.5q-1 -1 0.5 0t2.5 1zM454 199q11 -2 16.5 -12.5t2.5 -20.5q-2 -9 -5 -17.5t-7 -16.5q-14 -32 -39 -59t-55 -43q-34 -19 -72.5 -27t-76.5 -8q-37 -1 -74 7t-68 29q-24 16 -41 39t-27 50q-7 22 -9.5 46.5
t-1.5 48.5q-1 2 -0.5 4.5t0.5 3.5q3 26 9 52t16 50q24 57 69 106t108 64q32 7 66.5 4t63.5 -19q19 -11 34 -27t25 -35q2 -2 4 -5t3 -7t2.5 -7.5t2.5 -7.5q0 -1 0.5 -1.5t0.5 -1.5v0q0 -1 0.5 -1.5t0.5 -1.5q7 -28 3.5 -58t-19.5 -55t-39 -43.5t-49 -31.5q-28 -13 -57 -22
t-59 -13q-28 -4 -56.5 -4.5t-56.5 4.5q-4 1 -8.5 2t-8.5 2q1 -2 1 -4t1 -4q1 -5 2.5 -10.5t2.5 -10.5q1 -1 1.5 -3.5t1.5 -3.5q0 -1 0.5 -2l0.5 -1q1 -1 1.5 -3t1.5 -3q2 -4 5 -9t6 -9l0.5 -0.5t0.5 -1.5l1.5 -1.5l1.5 -1.5l4 -4l4 -4l4.5 -4.5t4.5 -3.5v-0.5t1 -0.5
l1.5 -1.5l1.5 -1.5q5 -3 10.5 -6.5t11.5 -5.5q1 -1 2 -1.5t2 -0.5h1v0q1 -1 3 -1.5t3 -1.5q4 -1 8 -2.5t8 -2.5t9 -2l10 -2q1 0 3.5 -0.5t3.5 -0.5t1.5 -0.5t1.5 -0.5q17 -1 35 -1t35 1q1 1 4.5 1.5t5.5 0.5h1.5h0.5q4 1 8.5 1.5t8.5 1.5q8 1 16 3.5t16 5.5q2 1 4.5 1.5
t5.5 1.5v0v1h0.5h1.5v0.5t1 0.5v0v0q4 1 7 3t7 4q4 1 7.5 3.5t6.5 4.5q1 1 3.5 2.5t3.5 2.5l0.5 0.5t1.5 0.5q5 4 11 9.5t10 10.5q3 3 5.5 6t4.5 5q1 1 1 1.5t1 1.5t2 3t2 3q4 6 7.5 12.5t7.5 13.5q0 1 0.5 2t0.5 2q1 1 1.5 2.5t1.5 2.5q1 4 2 7.5t2 7.5q3 11 13 16t20 3z
M330 409v0l-1 1zM293 438h-0.5h-1.5h0.5h1.5zM73 308v0v-1v1zM75 311q-1 0 -1 -1t-1 -2q1 1 1.5 2zM54 240q-1 -1 -1 -3v-4q-1 0 -1 -1v-2v-1v-1v-1.5t-1 -1.5q1 -1 3 -2t3 -1q0 -1 0.5 -1t1.5 -1q4 -1 8 -2.5t8 -2.5q2 0 5 -0.5t5 -1.5h2h2q12 -1 24 -1.5t24 -0.5
q6 1 12.5 1.5t13.5 1.5h2.5h2.5h1h1q3 1 6.5 1.5t6.5 1.5q14 2 27.5 5.5t26.5 7.5q4 1 7 2.5t6 2.5q2 1 4 1.5t3 1.5h1h1q6 3 11.5 5.5t11.5 6.5q6 3 11.5 6t10.5 7q1 1 3 2t3 2v0l4.5 4.5l4.5 4.5q2 1 4.5 3.5l4.5 4.5q1 1 2 2.5t2 2.5q1 0 1 0.5t1 1.5t1 1.5t1 1.5
t1.5 2.5t1.5 2.5q1 2 3 4.5t3 5.5q0 1 0.5 2t1.5 2v0v1q1 2 2 5l2 6q0 1 0.5 3.5t0.5 4.5q0 1 0.5 2t0.5 2v3v3v6.5v6.5l-1 1v1v2.5t-1 2.5q0 3 -0.5 5.5t-1.5 5.5q-1 1 -1.5 3t-0.5 3l-1 1v1q-1 2 -2 4.5t-2 4.5q-1 3 -3.5 5.5t-3.5 5.5q-1 1 -1.5 2t-1.5 2q0 1 -0.5 1.5
l-1.5 1.5q-3 4 -6.5 7.5l-7.5 7.5q-1 1 -4 3t3 -2q-1 1 -2 1.5t-2 1.5q-3 1 -5.5 3t-5.5 3q-1 1 -3 1.5t-3 1.5v0l-6 2t-5 2q-4 1 -7.5 2t-6.5 2h-2.5h-2.5h-1.5t-1.5 1q-7 0 -15 0.5t-15 -0.5q-1 0 -3.5 -0.5t-3.5 -0.5q7 1 3 0.5t-5 -0.5q-3 -1 -6.5 -1.5t-6.5 -1.5
t-6.5 -2t-7.5 -2q-1 -1 -3 -1.5t-3 -1.5v0h-1.5t-0.5 -1q-6 -2 -12 -5.5t-12 -7.5q-3 -1 -6 -3.5t-6 -4.5v0h-1h1l1 1l-1 -1l-1 -1v0q-1 -1 -1.5 -1t0.5 0q-1 -1 -2.5 -1.5t-2.5 -1.5q-5 -5 -10.5 -10t-9.5 -10q-3 -3 -5.5 -6t-4.5 -6l-2 -2l-2 -2q0 -1 -0.5 -1t-0.5 -1
q-8 -10 -15 -22t-13 -24q-1 -3 -2.5 -5.5t-2.5 -5.5q-1 -1 -1.5 -2.5t-1.5 -2.5v0q-2 -5 -4 -10.5t-4 -10.5q-3 -11 -6 -23t-5 -24zM62 129q1 -1 1 -1.5v-1.5v1.5t-1 1.5zM260 52q-1 0 -3 -0.5t1 -0.5q1 0 1 0.5t1 0.5z" />
    <glyph glyph-name="f" unicode="f" horiz-adv-x="443" 
d="M491 219q7 -7 7 -19t-7 -19q-20 -19 -47 -27t-54 -12q-25 -3 -51.5 -3t-52.5 1q-14 1 -28 2.5t-28 2.5q25 -28 44.5 -61t32.5 -67q17 -43 26 -89.5t6 -92.5q-2 -40 -13.5 -79t-30.5 -75q-16 -31 -39 -57t-51 -47q-23 -16 -50.5 -27.5t-55.5 -12.5q-14 0 -28 3t-27 9
t-23.5 15.5t-18.5 20.5q-21 28 -27 63.5t-5 69.5q1 35 7.5 70.5t16.5 69.5q5 19 11 38.5t11 38.5q10 34 20 68.5t20 68.5l14 48l14 48q-7 1 -13.5 3t-13.5 3q-10 2 -15.5 11t-4.5 19q1 9 9 16.5t18 6.5q9 0 18 -1.5t17 -3.5q1 4 2.5 8t2.5 8q12 40 23.5 81t23.5 81l18 62
l18 62q4 13 8 27.5t8 27.5q10 37 33 70.5t60 49.5q18 7 37 10t38 -1q17 -4 32.5 -14t26.5 -24q34 -41 35.5 -95.5t-9.5 -103.5q-13 -58 -41.5 -111.5t-71.5 -93.5q-22 -21 -48 -38t-54 -30v0h1q13 -1 27 -2.5t27 -2.5q13 0 26 -0.5t26 0.5q7 0 13 0.5t12 0.5q3 1 5.5 1h4.5
q-1 0 0.5 0t2.5 1v0h1h0.5h1.5h-0.5h-1.5h2t2 1q10 1 20.5 3.5t20.5 6.5h1v0q1 1 1.5 1t1.5 1l4 2t3 2l4 2t3 2t1.5 1t1.5 1q8 8 19 7.5t19 -7.5zM204 202h-1v0h1v0v0zM383 415v1.5t1 1.5l-0.5 -1t-0.5 -2zM222 451q-10 -36 -21 -72.5t-21 -72.5q-6 -20 -12 -41l-12 -42
q5 1 10.5 3t10.5 4q4 1 7.5 2.5t7.5 2.5q2 1 4 1.5t4 1.5q1 1 3 1.5t3 1.5q7 3 15 6.5t15 7.5q9 5 18 10.5t17 11.5q2 1 4.5 3t4.5 4q1 0 2 0.5t2 1.5v0q4 4 9 7.5t9 7.5l16.5 16.5t16.5 18.5q1 1 2 2.5t2 2.5l0.5 0.5t0.5 1.5l4 4t3 4q4 6 7.5 11.5t6.5 10.5q4 6 7 12l6 12
q2 4 4 7t3 7q0 1 0.5 1.5t0.5 1.5t0.5 1h0.5q0 1 0.5 2t0.5 2q6 14 10.5 29.5t8.5 30.5q1 7 3 15.5t3 15.5q1 2 1 4.5v3.5q-1 -7 -0.5 -3.5t0.5 4.5q1 3 1 6t1 7q1 12 0.5 24t-1.5 24v1q-1 1 -1 2.5v2.5q-1 2 -1 4.5t-1 4.5q-1 5 -3 10t-3 9v0q0 1 -0.5 1.5t-0.5 1.5
q-1 1 -2 3.5t-2 3.5q-1 2 -2.5 4t-2.5 4l-0.5 0.5t-0.5 1.5q-2 2 -4.5 5t-5.5 5q-1 0 -1 0.5t-1 0.5q-1 1 -2 1.5t-2 1.5t-3 2l-4 2h-1l-6 2l-6 2h-1.5h-1.5h-2h-2q-1 1 -3.5 0.5t-3.5 -0.5h-1.5h-0.5q-4 -1 -7 -1.5t-6 -1.5q-1 0 -2.5 -0.5t-2.5 -1.5q-1 0 -1.5 -0.5
t-1.5 -0.5q-3 -1 -6.5 -3.5t-6.5 -4.5q-1 -1 -1.5 -1t-1.5 -1t-2.5 -2t-2.5 -2q-3 -3 -6.5 -6t-5.5 -7l-1.5 -1.5l-1.5 -1.5t-2.5 -3t-2.5 -4q-2 -4 -5 -8t-5 -8q-1 -3 -2.5 -5.5t-2.5 -4.5v-1q0 -1 -0.5 -1.5t-0.5 -1.5q-2 -4 -3.5 -9.5t-2.5 -9.5t-3 -9t-3 -10
q-7 -23 -13.5 -47t-13.5 -47zM251 12q-4 7 -7.5 15t-7.5 15q-4 8 -9 16l-10 16q-2 3 -4.5 6.5t-5.5 7.5q0 1 -0.5 1.5l-1.5 1.5l-0.5 0.5t-0.5 1.5l-1.5 1.5l-1.5 1.5q-8 10 -17.5 19.5t-19.5 18.5q-1 0 -1 0.5t-1 0.5l-1.5 1.5t-1.5 0.5q-2 1 -4.5 3t-4.5 3q-4 2 -7.5 4.5
t-7.5 4.5q-1 -3 -1.5 -5.5t-1.5 -4.5q-10 -39 -21.5 -77.5t-22.5 -76.5q-8 -28 -16.5 -56t-15.5 -56q-4 -13 -8 -27l-8 -28q-3 -13 -6 -25.5t-5 -25.5q0 -3 -0.5 -6.5t-0.5 -6.5v0q-1 -1 -1 -2.5v-2.5q-1 -5 -1.5 -10.5t-0.5 -11.5q-1 -10 -1 -19.5v-19.5q1 -4 1 -9t1 -9v0
v-1v1.5v1.5v-1.5v-1.5t0.5 -3t-0.5 1q1 -2 1 -4v-3q1 -7 3.5 -14t4.5 -13q-1 3 -0.5 1t0.5 -3h1v0v-1.5t1 -1.5q-1 1 -1 1.5v1.5q1 -1 1 -2.5t1 -2.5q1 -3 3 -5.5t3 -5.5q1 -1 1.5 -2t1.5 -2v0l4 -4l4 -4l1.5 -1.5l1.5 -1.5q2 -1 4.5 -2.5t4.5 -2.5q1 -1 1.5 -1t1.5 -1
q3 -1 5.5 -1.5t4.5 -1.5q1 0 3 -0.5t3 -0.5v0q2 0 4.5 -0.5t4.5 -0.5t5 0.5t6 0.5h0.5h1.5h0.5h1.5q6 1 12 3t11 4q1 0 2.5 0.5t2.5 1.5q0 -1 -0.5 -1h-1.5h1.5t1.5 1v0v0q1 1 2.5 1.5t-2.5 -1.5q3 1 6 3t6 3q6 3 11.5 6.5t11.5 7.5q1 1 2.5 2t2.5 2v0h1v1q3 2 5.5 4.5
t5.5 4.5q5 5 11 10.5t11 10.5q2 3 4.5 6t4.5 6q1 1 1.5 1t0.5 1q1 1 2 3t2 3q5 7 9.5 14t8.5 14t7.5 14.5t7.5 14.5q-1 -3 -1 -2t1 2v0.5t1 0.5v1.5t1 1.5l-1 -1v-1v1l1 1q1 2 1.5 4t1.5 4q1 4 2.5 8.5t2.5 8.5q3 9 5.5 18t3.5 18q1 2 1.5 4.5t0.5 4.5q0 1 0.5 2t0.5 2v1.5
v0.5v1.5v0.5q0 1 0.5 2.5t0.5 2.5v4.5t1 4.5q1 10 1 20t-1 20v10.5t-1 10.5q0 3 -0.5 5.5t-0.5 5.5v0v1t-0.5 1.5t-0.5 1.5q-3 23 -9.5 45t-14.5 44q-1 1 -1.5 3t-0.5 4q0 -1 -1 1.5t-2 3.5q0 1 -0.5 3t-1.5 3zM254 5q0 -1 0.5 -1.5l0.5 -0.5q-1 0 -1 0.5v1.5zM139 -399v0
h-1h1v0v0zM387 196h-1v0h-1.5t-1.5 -1l1.5 0.5t2.5 0.5v0zM26 -328v0v-1.5v-0.5v0v1v1zM35 -365v0v1q0 -1 0.5 -1.5l0.5 -0.5v0zM261 -266v-1v1l1 1v0v-1h-1v0z" />
    <glyph glyph-name="g" unicode="g" 
d="M93 91v1q1 -1 1 -1.5t1 -0.5h-1v1h-1v0zM347 407v0q0 1 -0.5 1h-0.5h1v-1v0zM131 61v1h-1q1 0 1.5 -0.5t1.5 -0.5v0v0h-1h-1zM312 121v0q1 0 1.5 1l0.5 1v-0.5t-1 -0.5v-0.5t-1 -0.5zM373 269v-1v2t1 2l-1 -1v-1v-1zM207 435h1h-1t-2 -1v0h1zM541 143q8 -7 7.5 -19
t-7.5 -19t-15 -14l-16 -14q-37 -30 -78 -54t-84 -46q-3 -10 -6 -21t-6 -21q-9 -33 -19.5 -66.5t-18.5 -67.5q-9 -34 -19 -67.5t-25 -64.5q-13 -28 -32.5 -53t-44.5 -44q-23 -17 -52.5 -26t-59.5 -7q-16 1 -31 5.5t-28 12.5q-14 8 -26 20t-20 25q-17 29 -20 63.5t5 65.5
t24.5 58.5t38.5 50.5q31 34 72 58.5t82 45.5q34 18 70 35.5t71 34.5q2 7 4 14.5t4 14.5q-3 -2 -6 -4.5t-6 -4.5q-29 -21 -64 -30t-71 -5q-19 1 -37 6.5t-34 15.5q-14 8 -26.5 20t-22.5 26q-19 27 -26 60t-7 65q1 37 9.5 73t23.5 70q14 32 35 61.5t47 51.5q29 23 63.5 37
t71.5 14q10 0 19.5 -1t19.5 -3q33 -6 60 -26t43 -49q3 -5 5.5 -11t4.5 -11q6 19 12 39.5t11 39.5q3 11 13 16t20 3q11 -2 16.5 -12.5t2.5 -20.5q-1 -4 -2.5 -8.5t-2.5 -8.5q-9 -31 -18 -63.5t-18 -63.5q-7 -25 -14.5 -49.5t-14.5 -48.5q-1 -6 -3 -12.5t-4 -12.5
q-3 -10 -6 -20.5t-6 -20.5q-7 -27 -15 -53.5t-15 -52.5q17 9 34 19.5t33 20.5q5 4 10.5 7t9.5 7q2 1 5 3.5t5 3.5v0l1 1l1.5 1.5l1.5 1.5q9 7 17.5 14.5t15.5 14.5q8 8 19.5 7.5t18.5 -7.5zM67 222v0v0zM290 97q6 5 11.5 11t10.5 12v1q0 -1 -0.5 -1.5t0.5 0.5v1v0q1 1 2 1.5
t1 1.5v0l-1 -1q1 1 2 2.5t2 2.5q2 4 4.5 7t4.5 7q4 7 8 14.5t8 14.5q2 4 4 7.5t3 7.5l1 1v0v1v1q1 1 1.5 3t1.5 4q1 3 2.5 6t2.5 6q0 1 0.5 3t0.5 3l4 12t3 12q1 5 2.5 11t2.5 11q0 2 0.5 4.5t0.5 3.5v-0.5v-1.5v1.5v1.5v0q0 1 0.5 2.5t0.5 0.5q0 4 0.5 7.5t0.5 6.5
q1 8 1 16.5t-1 15.5v7.5t-1 7.5q0 2 -0.5 6.5t0.5 -4.5q0 1 -0.5 3.5t-0.5 3.5q-1 7 -3 14l-4 14q-1 2 -1.5 4.5t-1.5 4.5q-1 1 -1.5 2.5t-0.5 2.5q-1 1 -1.5 3t-1.5 3q-1 3 -3.5 6t-3.5 6q-1 1 -2 2.5t-2 2.5q1 0 1 -0.5t1 -1.5q-1 1 -1 1.5t-1 0.5v0v1l-2 2t1 -2
q-3 4 -7 8l-8 8q-1 1 -2 1.5t-2 1.5t-2.5 1.5t-2.5 1.5q-3 1 -6 3t-6 3l-0.5 0.5t-1.5 0.5q-1 1 -3 1.5t-3 0.5q-4 1 -7.5 2t-7.5 2q-1 0 -3 0.5t-4 0.5h-0.5h-1.5q-4 1 -8.5 1h-8.5h-8h-8q-1 -1 -1.5 -1h-1.5h-2.5t-2.5 -1q-7 -1 -14.5 -3t-14.5 -5q1 1 0 0.5t-2 -1.5h-1
l-0.5 -0.5t-1.5 -0.5q1 0 1 0.5t1 0.5q-1 -1 -3 -1.5t-3 -1.5q-4 -1 -7 -3.5t-7 -4.5q-3 -1 -6.5 -3.5t-6.5 -4.5q-1 -1 -2.5 -2t-2.5 -2t-1.5 -1t-0.5 -1q-7 -4 -12.5 -10t-10.5 -12l-6 -6t-5 -6l-1.5 -1.5l-1.5 -1.5v0v-1h-1v-1q-1 -1 -1 -1.5t-1 -1.5q-5 -6 -9.5 -13
t-8.5 -14t-8 -15t-7 -15q-1 -1 -1.5 -2t-0.5 -2v0q-1 -1 -1 -1.5v-0.5q0 -1 -0.5 -2t-0.5 -2q-2 -4 -3.5 -8t-2.5 -8q-3 -7 -5.5 -15.5t-3.5 -16.5q-1 -4 -2 -7.5t-2 -7.5q0 -2 -0.5 -4.5t-0.5 -4.5v-1.5t-1 -1.5q-1 -15 -1.5 -30t0.5 -30q1 -2 1 -4v-4q-1 9 -0.5 5t0.5 -6
q1 -4 1.5 -7t1.5 -7q1 -6 3.5 -12t3.5 -11q1 -1 1.5 -2.5t1.5 -2.5t1 -3t1 -3l4 -6t3 -5q1 -1 2 -2.5t2 -2.5q-1 0 -1 0.5v0.5l0.5 -0.5t0.5 -1.5v0l2 -2t0 1q1 -2 3.5 -4.5l4.5 -4.5l3 -3l3 -3t2.5 -2t2.5 -1q1 -1 2.5 -2t2.5 -2q3 -1 6 -3t5 -3q-1 1 0.5 0.5t2.5 -1.5
l0.5 -0.5t1.5 -0.5h-1l-1 1q1 -1 3 -1.5t3 -0.5q4 -1 7.5 -2.5t7.5 -2.5q2 0 4 -0.5t4 -0.5h1h1q8 -1 16.5 -1.5t16.5 0.5h3.5h3.5q1 1 1.5 1h1.5q4 1 7.5 1.5t7.5 1.5t7.5 2.5t7.5 2.5l0.5 0.5t1.5 0.5q1 1 3 1.5t3 1.5q7 3 13.5 7t12.5 8l1.5 1.5l1.5 1.5h1v0v0.5t1 0.5
q1 1 1.5 1t1.5 1q3 3 6 5.5t5 5.5zM213 -291v0v0zM250 -166q4 16 9.5 32.5t10.5 32.5q3 11 6.5 22.5t6.5 22.5q-32 -15 -64 -31t-63 -33q-19 -10 -37.5 -21.5t-36.5 -24.5q-1 -1 -2 -1.5t-2 -1.5l-1 -1q-1 -1 -3 -2.5t-3 -2.5q-4 -3 -7.5 -6t-7.5 -7l-9.5 -9.5t-9.5 -10.5
q-1 -1 -2.5 -3t-2.5 -3l-1 -1v-1q-2 -2 -4.5 -5t-3.5 -6q-4 -6 -7.5 -12t-6.5 -12q-1 -1 -1.5 -3.5t-1.5 -3.5t-1 -1.5v-1.5l-2.5 -5t-2.5 -6q-1 -7 -3 -14t-3 -14v-1.5v-1.5q-1 -1 -1 -3.5v-3.5v-7v-7v-3.5t1 -4.5v-1q0 -4 0.5 -7t1.5 -6q1 -4 2.5 -7t2.5 -6h-1v1
q0 -1 0.5 -1t0.5 -1v0v-1l1 -1q1 -1 1.5 -3t1.5 -3q1 -3 3.5 -5.5t3.5 -5.5l1 -1l1 -1t2 -2.5t2 -2.5t2.5 -2t2.5 -2h-0.5t-0.5 1l1 -1l1 -1v0h1v0q2 -1 4.5 -3t4.5 -3q1 -1 3 -1.5t3 -1.5h-1h-1h1.5h0.5h1v-1h1.5h0.5q2 -1 5 -1.5t5 -1.5t4.5 -1.5t4.5 -0.5q-1 0 -0.5 0
h1.5q1 -1 1.5 -1h0.5l-0.5 0.5t-1.5 0.5q1 -1 1.5 -1h0.5h4h3h7h6h3.5t3.5 1v0v0q7 1 13 2.5t12 3.5q2 1 5 2t-3 -2q1 1 2.5 1.5t2.5 1.5q3 1 6 3t6 3l6 4t5 4q1 0 2.5 1t0.5 1q1 1 2 1.5t2 1.5q5 4 10.5 9.5t9.5 10.5q1 1 2.5 3t2.5 3v0v1h1v1h0.5t0.5 1q0 -1 -0.5 -1h-0.5
q2 2 4 5t4 5q4 6 7.5 12t6.5 13q1 3 3.5 6.5t3.5 6.5q1 1 1.5 3t1.5 4v0.5t1 1.5q5 15 10.5 30.5t9.5 31.5t8.5 32.5t8.5 32.5zM63 -406h-1h1v0zM23 -390q3 -1 3 -1.5t-1 0.5v0h-1v0v1h-1v0zM1 -359q1 -2 1 -3v0v0v1q-1 0 -1 0.5v0.5v1zM40 -400q2 -1 2.5 -1h0.5h-1h-1v1h-1
v0zM179 -352q-1 -1 -1 -0.5t2 2.5v0q0 -1 -0.5 -1t-0.5 -1z" />
    <glyph glyph-name="h" unicode="h" horiz-adv-x="562" 
d="M527 90v0l-1 -1v0q1 1 1 1.5t1 0.5q-1 0 -1 -0.5v-0.5zM548 127v0q1 4 1 2.5t-1 -2.5zM590 172q10 -2 16 -12.5t3 -20.5q-10 -34 -29 -66.5t-50 -52.5q-21 -13 -45 -17.5t-48 -0.5q-22 4 -40.5 16.5t-30.5 31.5q-6 8 -10 17.5t-5 19.5q-1 6 -1.5 11.5t0.5 11.5
q1 8 2.5 16t3.5 15q2 8 4.5 16.5t4.5 16.5v2t1 2q1 4 2 7.5t2 7.5t2.5 7.5t2.5 7.5q7 26 14.5 52t14.5 51v1v1q1 4 1.5 7.5t1.5 7.5q1 2 1 4v4q1 1 1 1.5v1.5q1 7 1.5 13t0.5 12v7t-1 7v3v3q-1 3 -1.5 6t-1.5 6t-2 5.5t-1 4.5l-1 1v0q-1 1 -1.5 2.5t-1.5 2.5t-1.5 2.5
t-1.5 2.5q-1 2 -3.5 4.5l-4.5 4.5h-1v1q-1 1 -2.5 1.5t-2.5 1.5q-2 1 -5 3t-6 3h-1h-1q-1 1 -3.5 1.5t-3.5 1.5l-8 2l-8 2q-2 1 -4.5 1h-4.5q-1 1 -1.5 1h-1.5q-10 1 -21 1.5t-21 -0.5h-3t-4 -1v0q-1 0 -3.5 -0.5t-4.5 -0.5q-5 -1 -10 -2.5t-10 -3.5q-2 -1 -4.5 -1.5
t-4.5 -1.5v0q-1 -1 -2 -1t-2 -1q-5 -2 -9.5 -4.5t-8.5 -5.5q-2 -1 -4.5 -2.5t-4.5 -2.5l-2 -2l-2 -2q-1 0 -1.5 -0.5t-1.5 -0.5q0 -1 -0.5 -1t-0.5 -1q-1 -1 -2 -1.5t-2 -1.5t-3.5 -3t-3.5 -3q-7 -7 -14 -14.5t-13 -14.5q-1 -1 -1.5 -2t-1.5 -1q-1 -1 -1.5 -2.5t-0.5 -2.5
q-1 -1 -3 -3.5t-3 -4.5q-3 -4 -6 -9l-6 -10q-2 -4 -5 -9.5t-5 -9.5q-1 -3 -2.5 -5.5t-2.5 -5.5v-0.5t-1 -1.5v-1.5t-1 -0.5q-1 -5 -3.5 -10.5t-3.5 -10.5q-1 -2 -1.5 -4t-1.5 -4q-1 -4 -2 -7t-2 -7q0 -1 -0.5 -3t-0.5 -3q-7 -22 -13.5 -44.5t-13.5 -44.5q-5 -18 -10.5 -36.5
t-10.5 -36.5q-4 -13 -7.5 -25t-7.5 -25q-1 -4 -2.5 -9t-2.5 -9q-3 -11 -13 -16t-20 -3t-16 12.5t-3 20.5v1v0q2 7 4 13.5t4 13.5q4 14 8.5 28t8.5 28q5 19 11 39t11 39q6 19 11.5 38.5t11.5 38.5q-1 -2 0 0.5t1 4.5q1 1 1.5 3.5t0.5 3.5q1 1 1.5 3.5t1.5 3.5q7 24 13.5 47.5
t13.5 47.5q7 25 14.5 49.5t14.5 49.5q7 22 13.5 44.5t13.5 44.5q5 18 10.5 36.5t10.5 36.5q4 13 7.5 25t7.5 25q1 4 2.5 9t2.5 9q3 11 13 16t20 3t16 -12.5t3 -20.5v-1v0q-2 -7 -4 -13.5t-4 -13.5q-4 -14 -8.5 -28t-8.5 -28q-5 -19 -11 -39t-11 -39q-7 -23 -13.5 -46.5
t-13.5 -45.5l-1 -1v-1q2 2 4.5 4t4.5 4q18 13 38.5 23t42.5 14q24 4 48 3.5t48 -4.5q18 -3 34.5 -10.5t30.5 -19.5q12 -10 20.5 -23t12.5 -28q10 -30 6.5 -62.5t-10.5 -62.5t-16.5 -59t-17.5 -58q-4 -14 -7.5 -28t-7.5 -28q-1 -2 -1.5 -7t0.5 4v-3.5v-4.5v-3.5v-3.5v-1.5
v-0.5q1 -2 1.5 -4.5t1.5 -4.5q-1 4 -1 2t1 -3q0 -1 0.5 -1t0.5 -1q0 1 -0.5 1t-0.5 1v0l2 -4t2 -3t1 -1.5t1 -1.5l4.5 -4.5l4.5 -4.5q-3 2 -2 1.5t2 -1.5l1 -1l1 -1l1 -1l-1 1l-1 1l1 -1h1q1 -1 3 -2.5t4 -2.5q1 -1 4 -2l3 -1h0.5t1.5 -1q2 0 4.5 -0.5t3.5 -1.5h2h2
q4 -1 8 -1h8l1 1l-1 -0.5t-2 -0.5q1 0 2 0.5t2 0.5h2t-1 0q2 0 4.5 0.5t3.5 1.5q2 1 4.5 1.5t4.5 1.5q1 0 1.5 0.5l1.5 1.5q3 1 5.5 2.5t4.5 2.5q1 1 2 1.5t2 1.5v0l8 8l8 8l2 2l2 2l-0.5 -0.5t-0.5 -1.5q0 1 0.5 1.5l0.5 0.5v0v1q1 1 2 1.5t0 -0.5q1 2 3 4.5t3 5.5
q4 6 7.5 12t6.5 13v1v-1q0 1 0.5 2t0.5 2q1 1 1.5 3t1.5 3q1 4 2.5 8.5t2.5 8.5q4 11 13.5 16.5t19.5 2.5zM250 436h1v0v0h-1zM409 340v0v1v-1zM434 59q1 0 1.5 -0.5t1.5 -0.5q-1 0 -1.5 0.5t-1.5 0.5zM507 69q0 1 0.5 1t0.5 1v-0.5t-1 -1.5zM407 86v1v0v0v0v-1v0zM423 66v0
h-0.5t-0.5 1q0 -1 0.5 -1h0.5v0zM472 54h-1v0h-1h1.5h0.5v0z" />
    <glyph glyph-name="i" unicode="i" horiz-adv-x="224" 
d="M167 591q-11 0 -18.5 8t-8.5 19q0 11 8.5 19t18.5 8q12 0 19.5 -8t7.5 -19q1 -11 -8 -19t-19 -8zM270 141q10 -3 15.5 -12.5t2.5 -19.5q-10 -32 -31.5 -57.5t-52.5 -41.5q-18 -9 -37.5 -13.5t-38.5 -4.5q-11 0 -22 1.5t-21 4.5q-25 7 -45 24t-31 39q-12 25 -12.5 56.5
t9.5 67.5v0l91 304q3 10 13 15t20 2t15.5 -13t2.5 -20l-92 -303q-13 -48 -1.5 -79.5t45.5 -41.5q19 -5 40.5 -3t40.5 12q21 10 35.5 27t20.5 39q3 10 13 15.5t20 1.5z" />
    <glyph glyph-name="j" unicode="j" horiz-adv-x="188" 
d="M236 150q8 -7 7.5 -19t-7.5 -20q-7 -7 -15 -14.5t-16 -14.5q-34 -30 -73 -54t-79 -44q-3 -1 -6 -3t-7 -3q-13 -47 -27 -94.5t-28 -94.5q-13 -49 -30.5 -96.5t-51.5 -86.5q-31 -35 -77.5 -53t-92.5 -3q-24 7 -43.5 23t-30.5 38q-12 23 -15 48.5t1 50.5t15 48t25 43
q13 19 28 36.5t32 32.5q34 30 72 54t78 44q25 13 50 24.5t50 23.5q4 14 8.5 28.5t8.5 28.5q14 51 29 102.5t30 102.5q15 50 29.5 101t29.5 102q3 10 13 15.5t20 3.5q10 -3 16 -13.5t3 -20.5q-4 -12 -7.5 -24.5t-7.5 -25.5q-15 -52 -30 -105t-30 -104q-12 -40 -23.5 -79
t-22.5 -79q19 10 37.5 21t35.5 24q2 1 4.5 3t4.5 4q1 1 2.5 1.5t2.5 1.5q4 4 8.5 7t8.5 7q8 7 16.5 15.5t15.5 16.5q8 8 19.5 7.5t19.5 -7.5zM-303 -332v-0.5v-1.5v1.5v0.5zM-47 -130q5 19 11 38.5t11 38.5q-20 -9 -40 -19t-39 -20t-37.5 -21t-35.5 -23q-4 -4 -8.5 -7
t-8.5 -6v0q-1 -1 -2 -1.5t-2 -1.5q-2 -1 -4.5 -3.5l-3.5 -3.5l-16 -14t-15 -14q-4 -4 -7.5 -8t-6.5 -8q-2 -2 -4 -4.5t-3 -4.5q-1 -1 -1.5 -1t-0.5 -1l-1 -1v0q-7 -9 -13 -18.5t-11 -19.5l-2.5 -5t-2.5 -6l-1.5 -1.5t-0.5 -1.5t-0.5 -1.5l-0.5 -0.5q-2 -5 -4 -10.5t-3 -11.5
q-1 -3 -1.5 -6t-0.5 -6v-0.5t-1 -0.5v-2v-2q-1 -6 -1 -11.5t1 -10.5v-2v-2v0q1 -2 1.5 -5t1.5 -5q0 -2 1 -5t2 -5q0 -1 0.5 -2t0.5 -2v0q2 -4 4.5 -8.5t5.5 -8.5l1 -1l1.5 -1.5l1.5 -1.5q1 -2 3 -4t4 -3q0 -1 0.5 -1h0.5l1.5 -1.5t1.5 -0.5q1 -1 3.5 -2.5t4.5 -2.5
q1 0 2 -0.5t2 -1.5q2 -1 4.5 -1.5t4.5 -1.5t5 -1.5t5 -0.5h1.5t1.5 -1v0h10.5h10.5h2t2 1v0q2 0 4.5 0.5t4.5 0.5q3 1 5.5 1.5t4.5 1.5q1 1 2.5 1t2.5 1h1v0q1 1 2 1.5t2 0.5q1 1 2 1.5t2 0.5q2 1 4.5 2.5t4.5 2.5t4.5 3t4.5 3q1 1 1.5 1t0.5 1q1 0 1 0.5t1 0.5q7 7 14 14.5
t14 14.5q0 1 0.5 1t0.5 1l1.5 1.5l1.5 1.5q1 2 3 4.5t3 4.5q2 4 5 9t5 9q3 6 6 11.5t5 11.5v0v1q1 1 1.5 2.5t1.5 2.5q1 3 2 5.5t2 5.5q4 11 7.5 23t7.5 24q7 25 14.5 49.5t14.5 49.5zM185 591q-11 0 -18.5 8t-8.5 19q0 11 8.5 19t18.5 8q11 0 19 -8t8 -19q1 -11 -8 -19
t-19 -8z" />
    <glyph glyph-name="k" unicode="k" 
d="M343 451h-3h1h1h1zM307 451v0q-5 -1 -3 -0.5t3 0.5zM148 234v0q5 -2 3 -1.5t-3 1.5zM535 110q3 -3 5 -8.5t2 -10.5q0 -6 -2 -10.5t-5 -8.5q-21 -25 -50 -42t-60 -24q-28 -6 -58 -5t-57 11t-50 27t-43 37q-18 18 -35 37.5t-36 37.5q-4 4 -9 8.5t-9 8.5q-1 1 -3 2t-3 2
t-3 2.5t3 -2.5q-2 2 -4.5 4t-5.5 3q-3 3 -6.5 5t-6.5 4q-2 -7 -4 -13t-4 -13q-5 -19 -10.5 -37t-11.5 -37q-4 -13 -7.5 -25.5t-7.5 -25.5q-1 -4 -2.5 -9t-2.5 -9q-3 -11 -13 -16.5t-20 -2.5q-10 2 -16 12.5t-3 20.5v1q2 7 4.5 13.5t3.5 13.5q4 14 8.5 28.5t8.5 28.5l12 40
t11 40q2 7 4.5 13.5t3.5 13.5v4t1 4t2 4.5t2 4.5q4 12 7.5 24.5t7.5 25.5q7 25 14.5 50t14.5 50t15 50t15 50q7 23 13 46t13 45q6 19 11.5 37.5t10.5 37.5q4 13 7.5 25.5t7.5 25.5q1 4 3 9t3 9q3 11 12.5 16t20.5 3q10 -2 16 -12.5t3 -20.5l-1 -1v0q-1 -7 -3.5 -14t-4.5 -14
q-4 -14 -8 -28.5t-8 -28.5q-6 -19 -12 -39.5t-12 -39.5q-7 -23 -13.5 -47t-13.5 -47l-2 -6l-2 -6q13 11 27 21t29 18q22 11 44.5 17.5t47.5 7.5q22 1 45 -4.5t42 -16.5q22 -13 38 -34t23 -46q7 -30 2 -60.5t-18 -57.5q-22 -46 -64 -78t-91 -42q-22 -5 -44 -6t-44 1
q12 -13 23.5 -25.5t23.5 -24.5q4 -4 9 -8.5t9 -8.5q3 -2 5.5 -4.5t5.5 -3.5l-2.5 1.5t0.5 -0.5l0.5 -0.5t1.5 -0.5q1 -1 2.5 -2t2.5 -2q4 -3 9.5 -6.5t11.5 -6.5l5 -2.5l5 -2.5h1.5t0.5 -1q1 0 3 -0.5t3 -1.5q6 -1 12.5 -3t12.5 -3h1h1t3 -0.5t3 -0.5h5h6q7 -1 13.5 -0.5
t12.5 1.5q-1 0 -2.5 -0.5t1.5 0.5h1.5h1.5q1 1 3 1h3q3 1 6 1.5t6 1.5q4 1 7 2.5t6 2.5q1 0 2.5 0.5t2.5 0.5v0.5t1 0.5v0v0v0h1l1 1l-1 -1q6 3 11.5 6t10.5 6q3 1 5.5 3.5t4.5 3.5l1 1h1l2 2l2 2q5 4 9.5 9t8.5 10q7 9 19.5 8t19.5 -8zM214 216v0v0zM317 229
q-1 0 -2.5 -0.5l-1.5 -0.5h2t2 1zM408 317q0 1 0.5 1.5t0.5 1.5q0 -1 -0.5 -2zM186 378q-2 -2 -4 -4.5t-4 -4.5q-1 -1 -1.5 -2t-1.5 -2v0l-1 -1q-12 -17 -23.5 -35.5t-21.5 -37.5q-3 -9 -5.5 -18.5t-5.5 -19.5q0 -1 -0.5 -1.5t-0.5 -1.5q2 -1 4.5 -2.5t4.5 -2.5
q5 -3 10.5 -6t11.5 -5v0v0l1 -1h1q1 -1 3 -1.5t3 -0.5q3 -1 6 -2.5l5 -2.5q6 -1 12.5 -3t12.5 -3q3 -1 6 -1.5t7 -1.5q1 0 3 -0.5t3 -0.5h0.5h1.5q12 -1 24 -1.5t24 0.5h4t4 1v0q3 0 6 0.5t6 1.5q6 1 11.5 3t10.5 3q3 1 5.5 2t5.5 2q1 0 1.5 0.5t1.5 0.5v0q1 0 1 0.5t1 0.5
q4 2 9.5 4.5t9.5 5.5t9 6t9 6h1v1v0q1 1 2 1.5t2 1.5q2 2 4.5 4t3.5 3l8 8t7 8q1 1 2 2.5t2 2.5q1 2 3 4.5t3 4.5q3 4 6 9t5 9q1 1 1.5 3t1.5 3v0.5t1 1.5v1v0q1 1 1.5 3t0.5 3l4 12t3 12v2v2v2t1 2v6v6v4.5v3.5t-0.5 3.5t-0.5 1.5v1v1q-1 1 -1 3t-1 3q-1 3 -1.5 6t-1.5 6
q-1 0 -1 0.5v0.5q-1 1 -1 2t-1 2q-1 2 -2.5 4.5t-2.5 4.5l-1.5 1.5t-0.5 1.5v0l-6.5 6.5l-6.5 6.5q-1 0 -2 0.5t-2 1.5t-3.5 2.5t-3.5 2.5q-2 1 -4.5 2t-3.5 2q-1 0 -2 0.5t-2 0.5q-4 1 -9 2.5t-9 2.5q-1 0 -2.5 0.5t-2.5 0.5h-1h0.5h1.5h-1.5h-1.5h-1q-1 0 -2.5 0.5
t-2.5 0.5h-9.5h-9.5h-5t-5 -1v0h1h-2h-2q-4 -1 -9.5 -2.5t-9.5 -2.5q-2 0 -4.5 -0.5t-4.5 -1.5q-1 -1 -2 -1t-2 -1v0q-4 -3 -10 -5t-10 -5q-5 -3 -10.5 -6t-9.5 -6q-2 -1 -4.5 -3.5t-4.5 -3.5h-1v0l-2 -2l-2 -2q-4 -3 -8.5 -7t-8.5 -8t-7.5 -8t-7.5 -8zM357 56q1 -1 1.5 -1
h0.5h-0.5t-1.5 1zM439 67v0q-1 0 -1 -0.5v-0.5h-1l3 1v0h-1v0v0z" />
    <glyph glyph-name="l" unicode="l" horiz-adv-x="253" 
d="M276 152q11 -3 16.5 -13t2.5 -21q-10 -33 -32 -58.5t-54 -41.5q-19 -10 -39 -14.5t-39 -4.5q-11 0 -22.5 1.5t-21.5 4.5q-26 7 -46.5 24t-31.5 41q-12 25 -12.5 57t9.5 69v1l159 528q3 10 13 15.5t21 2.5q10 -3 15.5 -13t2.5 -21l-159 -528q-14 -49 -2.5 -81.5
t46.5 -42.5q19 -5 41.5 -3t41.5 12q22 10 36.5 28t21.5 40q3 10 13 15.5t20 2.5z" />
    <glyph glyph-name="m" unicode="m" horiz-adv-x="919" 
d="M112 225v0v0zM418 273v-0.5v-1.5v-1v-1v2.5v1.5zM774 273v-1v-1v-1v-1v2v2zM932 125v1v0v0v-1zM974 169q10 -2 16 -12.5t3 -20.5q-10 -35 -29.5 -67t-50.5 -52q-20 -13 -44.5 -17t-48.5 1q-22 4 -40 17t-31 32q-3 4 -5.5 9.5t-4.5 10.5q-1 4 -2 8.5t-2 8.5q-1 6 -1.5 12
t-0.5 12q1 7 2.5 14.5t3.5 14.5q4 16 9.5 33t9.5 33v0q3 9 5.5 18.5t5.5 18.5v0q1 4 1.5 9t1.5 9q1 2 1 4t1 4v-0.5t-1 -1.5q1 1 1 1.5v1.5v0v2v2v0q1 3 1 6.5v6.5q1 8 1 16.5v15.5q0 4 -0.5 7.5t-0.5 7.5q0 1 -0.5 3.5t-0.5 3.5v-1v-2v2.5v2.5q-1 7 -3 14l-4 14
q-1 2 -1.5 4.5t-1.5 4.5v0v0v0q-1 1 -1.5 2.5t-1.5 2.5t-1.5 3t-1.5 3q-1 3 -3 6l-4 6q-1 1 -1.5 2.5t-1.5 2.5v-0.5t1 -0.5q-1 0 -1 0.5v0.5v0l-1 1l-1 1l1 -1h1v-1v1l-1.5 1.5t-1.5 0.5h0.5t0.5 -1q-3 4 -6.5 7.5l-7.5 7.5v0q-1 1 -2.5 1.5t-2.5 1.5t-2.5 1.5t-2.5 1.5
q-2 1 -5 3t-6 3v0q-1 0 -1 0.5t-1 0.5q-1 1 -3 1.5t-4 0.5q-3 1 -6.5 2t-7.5 2q-1 1 -3.5 1h-3.5h-1h-1q-4 1 -8.5 1h-8.5h-8h-8q-1 -1 -1.5 -1h-1.5h-3t-3 -1q-7 -1 -14 -3t-14 -5v0h-1t-2 -1v0h0.5t1.5 1v0h1q-1 0 -2 -0.5t-2 -0.5h1h-1v0v0q-1 -1 -2.5 -1.5t-2.5 -1.5
q-4 -1 -7.5 -3.5t-6.5 -4.5q-4 -1 -7 -3.5t-6 -4.5q-1 -1 -3 -2t-3 -2l-0.5 -0.5l-1.5 -1.5q-6 -4 -12 -10t-11 -12q-3 -3 -5.5 -6t-4.5 -6l-1.5 -1.5l-1.5 -1.5v0l-1 -1v-1l-1.5 -1.5l-1.5 -1.5q-4 -6 -9 -13t-9 -14t-7.5 -15t-7.5 -15q0 -1 -0.5 -2t-1.5 -2v0v-1v-1
q-1 -1 -1 -2t-1 -2q-1 -4 -3 -8t-3 -8q-1 -1 -1 -3.5t-1 -3.5v0l-2 -6l-2 -6v0v0q-1 -3 -1.5 -5.5t-1.5 -5.5q-6 -22 -12.5 -44.5t-13.5 -44.5q-4 -16 -9.5 -33t-9.5 -33q-1 -1 -1.5 -3.5t-0.5 -3.5q-4 -13 -7.5 -25t-7.5 -25q-1 -4 -2.5 -9t-2.5 -9q-4 -11 -13.5 -16
t-20.5 -3q-10 2 -15.5 12.5t-2.5 20.5v1v0q0 1 0.5 2t0.5 2q1 6 3.5 11.5t3.5 11.5l8 28l8 28q6 19 12 39t11 39q1 5 3 10t3 10q3 10 5.5 20t3.5 20q1 2 1 4t1 4v-0.5t-1 -1.5q1 1 1 1.5v1.5v0v2v2v0q1 3 1 6.5v6.5q1 8 1 16.5v15.5q0 4 -0.5 7.5t-0.5 7.5q0 1 -0.5 3.5
t-0.5 3.5v-1v-2v2.5v2.5q-1 7 -3 14l-4 14q-1 2 -1.5 4.5t-1.5 4.5v0v0v0q-1 1 -1.5 2.5t-1.5 2.5t-1.5 3t-1.5 3q-1 3 -3 6l-4 6q-1 1 -1.5 2.5t-1.5 2.5v-0.5t1 -0.5q-1 0 -1 0.5v0.5v0l-1 1l-1 1l1 -1h1v-1v1l-1.5 1.5t-1.5 0.5h0.5t0.5 -1q-3 4 -6.5 7.5l-7.5 7.5v0
q-1 1 -2.5 1.5t-2.5 1.5t-2.5 1.5t-2.5 1.5q-2 1 -5 3t-6 3v0q-1 0 -1 0.5t-1 0.5q-1 1 -3 1.5t-4 0.5q-3 1 -6.5 2t-7.5 2q-1 1 -3.5 1h-3.5h-1h-1q-4 1 -8.5 1h-8.5h-8h-8q-1 -1 -1.5 -1h-1.5h-3t-3 -1q-7 -1 -14 -3t-14 -5v0h-1t-2 -1v0h0.5t1.5 1v0h1q-1 0 -2 -0.5
t-2 -0.5h1h-1v0v0q-1 -1 -2.5 -1.5t-2.5 -1.5q-4 -1 -7.5 -3.5t-6.5 -4.5q-4 -1 -7 -3.5t-6 -4.5q-1 -1 -3 -2t-3 -2l-0.5 -0.5l-1.5 -1.5q-6 -4 -12 -10t-11 -12q-3 -3 -5.5 -6t-4.5 -6l-1.5 -1.5l-1.5 -1.5v0l-1 -1v-1l-1.5 -1.5l-1.5 -1.5q-4 -6 -9 -13t-9 -14t-7.5 -15
t-7.5 -15q0 -1 -0.5 -2t-1.5 -2v0v-1v-1q-1 -1 -1 -2t-1 -2q-1 -4 -3 -8t-3 -8v-0.5t-1 -1.5q-1 -6 -3 -11.5t-3 -10.5q0 -1 -0.5 -3t-1.5 -3q-6 -22 -12.5 -44.5t-13.5 -44.5q-4 -16 -9.5 -33t-9.5 -33v0.5t-1 0.5q-2 -8 -4.5 -16.5t-4.5 -16.5q-3 -10 -6.5 -21.5
t-6.5 -21.5q-3 -11 -13 -16t-20 -3t-16 12.5t-3 20.5v1q4 13 8 26.5t8 26.5q8 28 16 55t16 55q9 31 18.5 63.5t18.5 63.5q7 26 15.5 52.5t15.5 52.5q3 10 6 21.5t7 21.5q3 11 12.5 16t20.5 3q10 -2 16 -12.5t3 -20.5v-1l-2 -6l-2 -6h0.5t0.5 1q28 22 61 35t69 13h1
q10 0 19.5 -1t18.5 -3q33 -6 60.5 -26t43.5 -49l6 -12t5 -12q1 -5 3.5 -10.5t3.5 -10.5q12 20 27.5 38.5t33.5 34.5q1 1 2 1.5t2 1.5q28 22 61 35t69 13h1q10 0 19.5 -1t18.5 -3q33 -6 60.5 -26t43.5 -49q16 -30 21.5 -63.5t4.5 -67.5q-1 -14 -3 -29t-5 -29v0q-1 -1 -1 -1.5
v-1.5t-0.5 -1.5t-0.5 -1.5v0q-2 -8 -4.5 -16.5t-5.5 -16.5v0q-5 -19 -11 -38t-10 -38q-1 -3 -1.5 -7t0.5 3q-1 -2 -1 -4v-3v-4v-4l1 -1v-1q0 -2 0.5 -4t1.5 -4q0 1 -0.5 1.5l-0.5 0.5l0.5 -1.5t1.5 -2.5l-1 1v1q0 -1 0.5 -1t0.5 -1v0v0v-1v0v1q1 -3 2.5 -5.5t2.5 -4.5v0
l2.5 -2.5l2.5 -2.5l2.5 -2.5l2.5 -2.5l1 -1l1 -1q-1 1 -1.5 1t-1.5 1q1 0 1.5 -0.5l1.5 -1.5v0v0h1v0q0 -1 0.5 -1h0.5v0l-1 1q1 -1 3 -2t3 -2t3.5 -2t3.5 -2h1.5t1.5 -1q2 -1 5 -1.5t6 -1.5v0h3.5t3.5 -1h4.5t4.5 1h2h2t3.5 0.5t4.5 1.5t4.5 1.5t4.5 1.5q1 0 1.5 0.5
t1.5 0.5q4 1 7 3.5t6 4.5v0h1v0l2 2l2 2t2 1.5t2 1.5q2 2 4 4.5t4 3.5q1 1 1.5 2t1.5 2q-1 -1 0 0t1 2v0v-1v0v0.5t1 0.5v0q0 1 0.5 1t0.5 1q0 -1 -0.5 -1t-0.5 -1q1 3 3 5.5t4 4.5q4 6 7 12.5t6 13.5v0l1 1l-1 -1v0q1 1 1 1.5t1 1.5q1 2 1 4t1 3q1 4 3 8.5t3 8.5
q3 10 12.5 15.5t20.5 3.5z" />
    <glyph glyph-name="n" unicode="n" horiz-adv-x="582" 
d="M420 273v-1v-1q-1 0 -1 -0.5v-0.5v-1q0 1 0.5 2t0.5 2zM578 125v1v0v0v-1zM620 169q10 -2 16 -12.5t2 -20.5q-10 -35 -29 -67t-50 -52q-21 -13 -45 -17t-48 1q-22 4 -40.5 17t-30.5 32q-3 4 -6 9.5t-4 10.5q-1 4 -2.5 8.5t-2.5 8.5q-1 6 -1.5 12t0.5 12q1 7 2.5 14.5
t3.5 14.5q4 16 9 33t10 33v0q2 9 5 18.5t5 18.5v0q1 4 2 9t2 9q0 2 0.5 4t0.5 4v-0.5v-1.5v1.5v1.5v0q1 1 1 2v2v0q0 3 0.5 6.5t0.5 6.5q1 8 1 16.5t-1 15.5v7.5t-1 7.5v3.5t-1 3.5q1 0 1 -1v-2q0 1 -0.5 2.5t-0.5 2.5q-1 7 -3 14l-4 14q-1 2 -1.5 4.5t-1.5 4.5v0v0v0
q0 1 -0.5 2.5t-1.5 2.5t-1.5 3t-1.5 3q-1 3 -3 6l-4 6q-1 1 -1.5 2.5t-1.5 2.5v-1v0.5t-1 0.5v0h1q-1 1 -1.5 1t-0.5 1q0 -1 0.5 -1h0.5v-1v1l-1.5 1.5l-0.5 0.5v0l1 -1q-3 4 -7 7.5t-8 7.5v0q-1 1 -2 1.5t-2 1.5t-2.5 1.5t-2.5 1.5q-3 1 -6 3t-5 3v0q-1 0 -1.5 0.5
l-0.5 0.5q-2 1 -4 1.5t-3 0.5q-4 1 -7.5 2t-7.5 2q-1 1 -3 1h-3h-1.5h-1.5q-4 1 -8.5 1h-8.5h-7.5h-7.5q-1 -1 -1.5 -1h-1.5h-3t-3 -1q-7 -1 -14 -3t-14 -5v0h-1t-2 -1h-1h1.5t0.5 1h1v0l-1 -0.5t-2 -0.5v0v0v0q-1 -1 -3 -1.5t-3 -1.5q-4 -1 -7 -3.5t-7 -4.5q-3 -1 -6 -3.5
t-6 -4.5q-1 -1 -3 -2t-3 -2q-1 0 -1 -0.5t-1 -1.5q-6 -4 -12 -10t-11 -12q-3 -3 -5.5 -6t-5.5 -6l-1.5 -1.5l-1.5 -1.5v0v-1l-1 -1q-1 -1 -1 -1.5t-1 -1.5q-4 -6 -9 -13t-9 -14t-8 -15t-7 -15q-1 -1 -1 -2t-1 -2v0v-1l-1 -1q0 -1 -0.5 -2t-0.5 -2q-1 -4 -3 -8t-3 -8
q-1 -1 -1.5 -3.5t-1.5 -3.5v0q-1 -3 -1.5 -6t-1.5 -6v0v0q-1 -3 -1.5 -5.5t-1.5 -5.5q-7 -22 -13.5 -44.5t-12.5 -44.5q-5 -16 -10 -33t-10 -33q0 -1 -0.5 -3.5t-1.5 -3.5q-4 -13 -7 -25t-7 -25q-1 -4 -3 -9t-3 -9q-2 -10 -10 -15t-17 -5h-4t-4 1q-10 2 -16 12.5t-3 20.5v1
q4 13 8 26.5t8 26.5q8 28 16 55t16 55q9 31 18.5 63.5t18.5 63.5q7 26 15.5 52.5t15.5 52.5q3 10 6 21.5t7 21.5q3 11 12.5 16t20.5 3q10 -2 16 -12.5t3 -20.5v-1q-1 -4 -2 -7t-2 -7l1.5 1.5t0.5 1.5q28 22 61.5 35t69.5 13v0q10 0 19.5 -1t19.5 -3q33 -6 60 -26t43 -49
q16 -30 22 -63.5t4 -67.5q-1 -14 -3 -29t-5 -29v0v-1.5t-1 -1.5v-1.5v-1.5v0q-2 -8 -4.5 -16.5t-5.5 -16.5v0q-6 -19 -11.5 -38t-10.5 -38q-1 -3 -1.5 -7t0.5 3v-4v-3v-4v-4v-1v-1q1 -2 1.5 -4t1.5 -4q-1 1 -1 1.5v0.5l0.5 -1.5t0.5 -2.5v1v1v-1l1 -1h-1v0q1 0 1 -0.5v-0.5
v0v1q1 -3 2.5 -5.5t2.5 -4.5v0q1 -1 2 -2.5t2 -2.5t3 -2.5t3 -2.5q0 -1 0.5 -1t1.5 -1q-1 1 -1.5 1t-1.5 1q1 0 1.5 -0.5l1.5 -1.5v0v0v0v0q1 -1 1.5 -1h0.5h-0.5t-1.5 1l4 -2t3 -2t3 -2t3 -2h1.5t1.5 -1q3 -1 6 -1.5t5 -1.5h1h3.5t3.5 -1h4.5t4.5 1h1.5h1.5q2 0 4.5 0.5
t4.5 1.5t4.5 1.5t4.5 1.5q1 0 1.5 0.5t1.5 0.5q3 1 6.5 3.5t6.5 4.5v0v0v0l2 2l2 2t2 1.5t2 1.5l4.5 4.5t4.5 3.5q1 1 1.5 2t1.5 2q-1 -1 -0.5 0t1.5 2v0v-1h-1v0l1 1v0l1 1l1 1l-1 -1l-1 -1q2 3 4 5.5t3 4.5q4 6 7.5 12.5t6.5 13.5v0v1v-1v0q0 1 0.5 1.5t0.5 1.5q1 2 1.5 4
t1.5 3q1 4 2.5 8.5t2.5 8.5q4 10 13.5 15.5t20.5 3.5z" />
    <glyph glyph-name="o" unicode="o" horiz-adv-x="448" 
d="M193 436h1h-1t-2 -1v0h1zM333 408v0q0 1 -0.5 1h-0.5h1v-1v0zM117 62v1h-1q1 0 1.5 -0.5t1.5 -0.5v0v0h-1h-1zM79 92v1q0 -1 0.5 -1.5l0.5 -0.5v0l-1 1v0zM359 270v-1v2v2v-1v-1v-1zM106 305v0v-1v0v0v1v0zM167 197v1v0q1 -1 1.5 -1t0.5 -1q0 1 -0.5 1h-1.5zM508 303
q10 1 19 -8t8 -19q0 -1 -0.5 -1t-0.5 -1q-2 -28 -13.5 -55.5t-29.5 -49.5q-14 -18 -33 -31.5t-41 -22.5q-16 -7 -33.5 -10.5t-34.5 -4.5q-13 -19 -29 -35.5t-35 -29.5q-29 -21 -64.5 -30t-70.5 -5q-19 1 -37 6.5t-34 15.5q-15 8 -27 20t-22 26q-19 27 -26 60t-7 65
q1 37 9.5 73t23.5 70q7 18 17.5 35t22.5 33q2 4 4.5 7t5.5 6h1v0q7 9 15 17t16 15q29 23 63.5 37t71.5 14q10 0 19.5 -1t19.5 -3q33 -6 60 -26t43 -49q16 -30 21.5 -63.5t4.5 -67.5q-2 -34 -10.5 -66.5t-21.5 -62.5q4 1 8 2.5t8 2.5q1 0 1.5 0.5t1.5 0.5q1 1 2.5 1.5
t2.5 1.5q2 1 4.5 2t4.5 2t4.5 3t3.5 3t2 1.5t2 1.5h1q3 2 6 5l6 6l6 6t5 6v0q1 1 1.5 2t0.5 2q1 1 2.5 3t2.5 3q2 4 4 7t3 7q1 1 2 3.5t2 3.5v0q2 6 4 11.5t3 11.5q1 4 2 7.5t1 7.5q1 0 1 0.5v0.5q1 11 8 18.5t19 8.5zM151 410q-7 -4 -12.5 -10t-11.5 -12q-2 -3 -5 -6t-5 -6
q-1 -1 -1.5 -1t-0.5 -1q-1 -1 -1 -1.5t-1 -1.5q0 -1 -0.5 -1.5t-0.5 -1.5v0l-1 -1q-1 -5 -2.5 -10.5t-2.5 -11.5v0v-1t-0.5 -2.5t-0.5 -2.5v-6.5v-6.5v-7v-7q0 -1 0.5 -3.5t0.5 -3.5v1.5v1.5v-1.5v-1.5q0 -2 0.5 -3.5t-0.5 2.5q1 -7 3 -15t4 -15q1 -1 1.5 -3.5t1.5 -4.5
q0 -1 1 -3t1 -3q1 -2 2.5 -4.5t2.5 -5.5q2 -4 4.5 -7t4.5 -7q1 -2 2.5 -4t2.5 -4l0.5 -0.5t0.5 -1.5q6 -7 12.5 -13.5t13.5 -12.5q1 -1 1.5 -1t1.5 -1q-1 0 -1 0.5t-1 0.5q1 0 1 -0.5t1 -0.5v-1h1v0l1.5 -1.5t-0.5 0.5q1 -1 3 -2t3 -2q4 -3 8.5 -5.5t8.5 -4.5t8 -4.5t8 -3.5
q1 -1 2 -1t2 -1q1 0 2.5 -0.5t2.5 -1.5q2 -1 5 -1.5t6 -1.5q5 -2 11 -4t13 -3q6 -1 12.5 -2.5t13.5 -1.5h-2.5h-2.5h1.5h1.5h1.5h1.5q1 -1 3.5 -1h3.5q4 -1 7 -1h7q4 -1 9.5 -1h9.5q3 4 5.5 9.5t4.5 9.5t4 7.5t3 7.5q0 1 0.5 1h0.5v1v1q1 1 1.5 3t1.5 4q6 16 10.5 32t7.5 32
q0 2 0.5 4.5t0.5 3.5v-0.5v-1.5v1.5v1.5v0q0 1 0.5 2.5t-0.5 0.5q1 4 1 7.5t1 6.5q0 8 0.5 16.5t-0.5 15.5v7.5t-1 7.5q0 2 -0.5 6.5t0.5 -4.5q0 1 -0.5 3.5t-0.5 3.5q-1 7 -3 14l-4 14q-1 2 -1.5 4.5t-1.5 4.5q-1 1 -1.5 2.5t-0.5 2.5q-1 1 -1.5 3t-1.5 3l-4 6t-3 6
q-1 1 -2 2.5t-2 2.5q1 0 1 -0.5t1 -1.5l-1.5 1.5l-0.5 0.5v0v1l-2 2t1 -2q-4 4 -7.5 8t-7.5 8q-1 1 -2 1.5t-2 1.5t-3 1.5t-3 1.5q-2 1 -5 3t-6 3q-1 0 -1 0.5t-1 0.5q-1 1 -3 1.5t-3 0.5q-4 1 -7.5 2t-7.5 2q-1 0 -3 0.5t-4 0.5h-0.5h-1.5q-4 1 -8.5 1h-8.5h-8h-8
q-1 -1 -1.5 -1h-1.5h-3t-3 -1q-7 -1 -14 -3t-14 -5q1 1 0 0.5t-2 -1.5h-1v0q-1 0 -1 -0.5t-1 -0.5q1 0 1 0.5t1 0.5q-1 -1 -3 -1.5t-3 -1.5q-4 -1 -7.5 -3.5t-6.5 -4.5q-3 -1 -6.5 -3.5t-6.5 -4.5q-1 -1 -2.5 -2t-2.5 -2t-1.5 -1t-0.5 -1zM53 223v0v0zM264 87q3 3 6 5.5
t6 5.5q1 1 2 1.5t2 1.5q-46 5 -90.5 22.5t-77.5 51.5q-18 19 -31 41t-20 46q-1 -2 -1.5 -4.5t-1.5 -4.5q-1 -4 -1.5 -7.5t-1.5 -7.5q0 -2 -0.5 -4.5t-0.5 -4.5q0 -1 -0.5 -1.5t-0.5 -1.5q-1 -15 -1.5 -30t0.5 -30q0 -2 0.5 -4t0.5 -4q-1 9 -0.5 5t0.5 -6q1 -4 1.5 -7t1.5 -7
q1 -6 3 -12t4 -11q1 -1 1.5 -2.5t0.5 -2.5q1 -1 1.5 -3t1.5 -3q1 -3 3.5 -6t3.5 -5q1 -1 2 -2.5t2 -2.5q-1 0 -1 0.5t-1 0.5q1 0 1 -0.5t1 -1.5v0l2 -2t-1 1l4.5 -4.5l4.5 -4.5l3 -3l3 -3l2 -2t2 -1q1 -1 3 -2t3 -2q3 -1 5.5 -3t5.5 -3q-1 1 0.5 0.5t2.5 -1.5l0.5 -0.5
t1.5 -0.5h-1.5t-0.5 1q1 -1 3 -1.5t3 -0.5q4 -1 7.5 -2.5t7.5 -2.5q2 0 4 -0.5t4 -0.5h1h1q8 -1 16.5 -1.5t16.5 0.5h3.5h3.5q1 1 1.5 1h1.5q4 1 7.5 1.5t6.5 1.5q4 1 7.5 2.5t7.5 2.5q1 0 1.5 0.5t1.5 0.5q1 1 2.5 1.5t2.5 1.5q7 3 13.5 7t13.5 8l1.5 1.5l1.5 1.5h1v1
q1 1 1.5 1t1.5 1zM398 165v0h-1h1z" />
    <glyph glyph-name="p" unicode="p" horiz-adv-x="540" 
d="M260 436h1h-1t-2 -1v0h1.5t0.5 1zM146 92v1q1 -1 1 -1.5t1 -0.5h-1v1h-1zM255 218q1 -1 1.5 -1t0.5 -1q0 1 -0.5 1h-0.5q0 1 -0.5 1h-0.5zM613 317q4 -4 7 -9.5t3 -11.5v-1v-1q-3 -28 -14.5 -55.5t-29.5 -49.5q-14 -18 -33 -31.5t-41 -22.5v0q-18 -7 -37.5 -11t-38.5 -5
q-15 -24 -34.5 -45.5t-42.5 -38.5q-29 -21 -64 -30t-71 -5q-19 1 -37 6.5t-34 15.5q-14 8 -26.5 20t-21.5 26q-5 7 -9.5 15t-7.5 17q-7 -25 -15 -50t-15 -50l-38 -131q-9 -29 -17.5 -59t-17.5 -60q-7 -24 -14 -48.5t-14 -48.5q-5 -16 -10 -33t-10 -33q-1 -6 -3.5 -12
t-3.5 -12q-3 -11 -13 -16.5t-20 -2.5q-10 2 -16 12.5t-3 20.5v1q3 9 5.5 18t5.5 18q5 18 10.5 36.5t11.5 37.5q7 26 15 52t15 52q9 31 18 61.5t18 61.5q10 32 19.5 65t18.5 66q10 32 19.5 65t19.5 65q7 25 14 49t14 49q1 6 3.5 12t3.5 11l14 48l14 48q5 16 10 33t10 33
q1 6 3 12l4 12q3 11 12.5 16t20.5 3q10 -2 16 -12.5t3 -20.5v-1l-1 -1q-1 -4 -2 -7.5t-2 -7.5q28 22 61 35t69 13q10 0 19.5 -1t19.5 -3q33 -6 60 -26t43 -49q16 -30 22 -63.5t4 -67.5q-1 -29 -8 -57.5t-17 -55.5q6 1 11.5 3t10.5 3q1 0 2 0.5t2 0.5q1 1 2 1t2 1v0
q1 0 2 0.5t2 0.5q1 1 2 1.5t2 1.5q2 1 4.5 2t4.5 2t4.5 3t4.5 3q1 1 2 1.5t2 1.5v0q3 2 6.5 5t5.5 6l6 6t5 6v0h1q0 1 0.5 2t1.5 2t2 3t2 3q2 4 4 7t4 7q1 1 1.5 3.5t1.5 3.5v0v0q2 6 4.5 11.5t3.5 11.5q1 4 1.5 7.5t1.5 7.5v1q1 11 8 18.5t19 8.5q4 0 8.5 -1.5t8.5 -4.5z
M220 412l-1 -1l-1 -1t-3 -2.5t-3 -2.5t-2.5 -3t-2.5 -3l-1 -1l-1 -1t-2 -3t-2 -3v-1.5t-1 -1.5v0v-1q-2 -5 -3.5 -10.5t-2.5 -11.5v0v-1v0v-2.5v-2.5q-1 -3 -1 -6.5v-6.5v-7t1 -7v-3.5v-3.5v0q1 -2 1 -3.5t-1 2.5q1 -7 3 -15t5 -15q0 -1 0.5 -3.5t1.5 -4.5q1 -1 1.5 -3
t1.5 -3v0q1 -2 2.5 -4.5t2.5 -5.5q1 -4 3.5 -7t4.5 -7q1 -2 2.5 -4t2.5 -4q1 0 1 -0.5t1 -1.5q5 -7 11.5 -13.5t13.5 -12.5q1 -1 1.5 -1t1.5 -1l-0.5 0.5t-1.5 0.5q1 0 1.5 -0.5t1.5 -0.5v-1v0h1l1.5 -1.5t-0.5 0.5q1 -1 2.5 -2t2.5 -2q4 -3 8.5 -5.5t8.5 -4.5l8 -4l8 -4v0
v0q1 0 2 -0.5t2 -1.5q1 0 2.5 -0.5t2.5 -1.5q3 -1 5.5 -1.5t5.5 -1.5l12 -4t12 -3q1 0 3.5 -0.5t3.5 -0.5t1.5 -0.5l0.5 -0.5q4 -1 7 -1t7 -1v0v0h1h0.5h1.5v0h-2h-2h0.5h1.5h2h2q1 -1 3 -1h3q4 -1 7.5 -1h6.5q2 0 4.5 -0.5t4.5 -0.5q1 4 3.5 7.5t3.5 6.5v1v0v1l1 1
q0 1 0.5 3t1.5 4q6 16 10.5 32t7.5 32q0 2 0.5 4.5t0.5 3.5v-1v1v1v-1q0 1 0.5 2t0.5 2v-1l-1 -1v-1v0q1 1 1 2v2v-1q0 4 0.5 7.5t0.5 6.5q1 8 1 16.5t-1 15.5v7.5t-1 7.5v3.5t-1 3.5q1 -1 1 -1.5v-1.5q0 1 -0.5 2.5t-0.5 2.5q-1 7 -3 14l-4 14q-1 2 -1.5 4.5t-1.5 4.5
q0 1 -1 2.5t-1 2.5q-1 1 -1.5 3t-1.5 3q-1 3 -3.5 6t-3.5 6q-1 1 -2 2.5t-2 2.5q1 0 1 -0.5v-0.5v0.5t-1 0.5v0v1h-1h1v0v-1v0v1l-1.5 1.5l-0.5 0.5v-0.5t1 -1.5q-3 4 -7 8l-8 8q-1 1 -2 1.5t-2 1.5t-2.5 1.5t-2.5 1.5q-3 1 -6 3t-6 3l-1 1q-2 1 -4 1.5t-3 0.5q-4 1 -7.5 2
t-7.5 2q-1 1 -3 1h-3h-1.5h-1.5q-4 1 -8.5 1h-8.5h-7.5h-7.5q-1 -1 -1.5 -1h-1.5h-3t-3 -1q-7 -1 -14.5 -3t-14.5 -5q1 1 0 0.5t-2 -1.5v0h-1v0h-1h1q-1 -1 -3 -1.5t-3 -1.5q-4 -1 -7 -3.5t-7 -4.5q-3 -1 -6 -3.5t-7 -4.5q-1 -1 -2.5 -2t-2.5 -2zM365 121v1v0v0v0v0
q-45 4 -87 21t-75 49q-24 23 -39 52.5t-21 61.5q-1 0 -1 -0.5v-0.5q0 -1 -0.5 -2t-0.5 -2q-1 -3 -2.5 -6.5t-2.5 -7.5q-2 -7 -4.5 -15t-5.5 -16v-1.5v-1.5q-1 -4 -2 -7.5t-1 -7.5q-1 -2 -1.5 -4.5t-0.5 -4.5v-1.5v-1.5q-2 -15 -2.5 -30t0.5 -30q1 -1 1 -3.5v-3.5v2v2v-3
t1 -3q0 -4 0.5 -7t1.5 -7q1 -6 3.5 -12t4.5 -11q0 -1 0.5 -2.5t1.5 -2.5t1.5 -3t1.5 -3q1 -3 3 -6t4 -5q1 -1 1.5 -2.5t1.5 -2.5h-0.5t-0.5 1q0 -1 0.5 -1t0.5 -1v0l2 -2t0 1q1 -2 3.5 -4.5l4.5 -4.5l3 -3l3 -3t2.5 -2t2.5 -1q1 -1 2.5 -2t2.5 -2q3 -1 6 -3t6 -3
q-2 1 -0.5 0.5t2.5 -1.5h-1v0l-1 1h-1q1 0 1.5 -0.5t1.5 -0.5v0v0v0h0.5t0.5 -1q0 1 -0.5 1h-0.5q1 -1 3 -1.5t3 -0.5q4 -1 7.5 -2.5t7.5 -2.5q2 0 4.5 -0.5t3.5 -0.5h1.5h0.5q8 -1 16.5 -1.5t16.5 0.5h4h3q1 1 1.5 1h1.5q4 1 7.5 1.5t7.5 1.5t7.5 2.5t7.5 2.5q1 0 1 0.5
t1 0.5q1 1 3 1.5t3 1.5q7 3 13.5 7t12.5 8q1 1 2 1.5t2 1.5v0l1 1q1 1 1.5 1t1.5 1q3 3 6 5.5t5 5.5q6 5 11.5 11t10.5 12v1v-1v0v0z" />
    <glyph glyph-name="q" unicode="q" horiz-adv-x="475" 
d="M193 436h1h-1t-2 -1v0h1zM359 270v-1v2v2v-1v-1v-1zM298 122v0q1 0 1.5 1l0.5 1l-1 -1zM333 408v0q0 1 -0.5 1h-0.5h1v-1v0zM117 62v1h-1q1 0 1.5 -0.5t1.5 -0.5v0v0h-1h-1zM79 92v1q0 -1 0.5 -1.5l0.5 -0.5v0l-1 1v0zM456 499q11 -2 16.5 -12.5t2.5 -20.5q0 -2 -0.5 -4
t-1.5 -4q-4 -17 -9.5 -34.5t-10.5 -34.5q-8 -28 -16.5 -55.5t-16.5 -55.5q-3 -13 -6.5 -25t-7.5 -24q-2 -11 -5.5 -22t-7.5 -21q-3 -11 -6.5 -22.5t-6.5 -23.5q-10 -36 -21.5 -72.5t-21.5 -73.5q-10 -34 -20.5 -68.5t-20.5 -68.5q-8 -28 -16.5 -56.5t-16.5 -56.5
q-4 -17 -9.5 -34.5t-10.5 -34.5q-1 -2 -1 -4.5t-1 -4.5q-1 -1 -1 -2.5t-1 -2.5v-1.5v-0.5q0 -1 -0.5 -2.5t-0.5 -2.5v-4v-3l1 -1q0 -3 0.5 -5.5t1.5 -5.5q0 -1 0.5 -2t1.5 -2v-1q1 -2 3 -4.5t3 -4.5v-0.5t1 -0.5q1 -1 2 -2.5t2 -2.5t2 -1.5t2 -1.5q-3 2 -2 1l2 -2h1l1 -1
l1 -1l-1 1l-1 1q2 -1 5 -3t5 -3q1 -1 2 -1.5t2 -0.5t1 -0.5t1 -0.5q3 -1 6 -1.5t6 -1.5q1 0 1.5 -0.5l0.5 -0.5h2.5h2.5h6h6h1h1q1 1 3 1t3 1q2 1 4 1t3 1q1 0 2 0.5t2 0.5q3 1 5.5 3t5.5 3q1 1 3 2.5t3 2.5q1 0 1.5 0.5l0.5 0.5q4 3 7 6t6 7q1 1 2.5 3t2.5 3v0q1 1 1.5 2
t1.5 2q3 4 6 9t5 9l2.5 5t2.5 6l1 1v1q1 1 1 1.5v0.5q3 7 5 13l4 12q3 11 13 16.5t20 2.5q10 -2 16 -12.5t3 -20.5q-4 -13 -9 -26t-11 -25q-18 -35 -50.5 -60.5t-73.5 -26.5q-31 -1 -61 16t-44 45q-7 16 -9.5 33.5t1.5 35.5q1 5 3 10.5t3 10.5q5 19 11 39t11 39q9 29 18 59
t17 60q10 35 21 71t21 71q1 2 1.5 4.5t1.5 4.5q-2 -2 -5 -4t-5 -4q-29 -21 -64.5 -30t-70.5 -5q-19 1 -37 6.5t-34 15.5q-15 8 -27 20t-22 26q-19 27 -26 60t-7 65q1 37 9.5 73t23.5 70q14 32 34.5 61.5t47.5 51.5q29 23 63.5 37t71.5 14q10 0 19.5 -1t19.5 -3q33 -6 60 -26
t43 -49q3 -6 5.5 -11.5t5.5 -11.5q1 7 3 13l4 12q4 14 8 28.5t8 28.5q3 11 13 16.5t20 2.5zM327 -396v0v0zM242 -368q0 1 -0.5 1.5t-0.5 1.5q0 -1 0.5 -1.5t0.5 -1.5zM53 223v0v0zM276 98q6 5 11.5 11t10.5 12v1q-1 -1 -1 -1.5t1 0.5v1v0l1.5 1.5l1.5 1.5h-0.5t-0.5 -1
q1 1 2 2.5t2 2.5q2 4 4.5 7t4.5 7q4 7 8 14.5t8 14.5q2 4 4 7.5t3 7.5q0 1 0.5 1h0.5v1v1q1 1 1.5 3t1.5 4q0 1 0.5 1.5t0.5 1.5q4 11 7 22.5t6 22.5l2 8l2 8q0 2 0.5 4.5t0.5 3.5v-0.5v-1.5v1.5v1.5v0q0 1 0.5 2.5t-0.5 0.5q1 4 1 7.5t1 6.5q0 8 0.5 16.5t-0.5 15.5v7.5
t-1 7.5q0 2 -0.5 6.5t0.5 -4.5q0 1 -0.5 3.5t-0.5 3.5q-1 7 -3 14l-4 14q-1 2 -1.5 4.5t-1.5 4.5q-1 1 -1.5 2.5t-0.5 2.5q-1 1 -1.5 3t-1.5 3l-4 6t-3 6q-1 1 -2 2.5t-2 2.5q1 0 1 -0.5t1 -1.5l-1.5 1.5l-0.5 0.5v0v1l-2 2t1 -2q-4 4 -7.5 8t-7.5 8q-1 1 -2 1.5t-2 1.5
t-3 1.5t-3 1.5q-2 1 -5 3t-6 3q-1 0 -1 0.5t-1 0.5q-1 1 -3 1.5t-3 0.5q-4 1 -7.5 2t-7.5 2q-1 0 -3 0.5t-4 0.5h-0.5h-1.5q-4 1 -8.5 1h-8.5h-8h-8q-1 -1 -1.5 -1h-1.5h-3t-3 -1q-7 -1 -14 -3t-14 -5q1 1 0 0.5t-2 -1.5h-1v0q-1 0 -1 -0.5t-1 -0.5q1 0 1 0.5t1 0.5
q-1 -1 -3 -1.5t-3 -1.5q-4 -1 -7.5 -3.5t-6.5 -4.5q-3 -1 -6.5 -3.5t-6.5 -4.5q-1 -1 -2.5 -2t-2.5 -2t-1.5 -1t-0.5 -1q-7 -4 -12.5 -10t-11.5 -12q-2 -3 -5 -6t-5 -6l-1.5 -1.5l-1.5 -1.5v0v-1h-1v-1l-1.5 -1.5t-0.5 -1.5q-5 -6 -9.5 -13t-8.5 -14t-8 -15t-8 -15
q0 -1 -0.5 -2t-0.5 -2v0q-1 -1 -1 -1.5v-0.5q-1 -1 -1 -2t-1 -2q-1 -4 -2.5 -8t-2.5 -8q-3 -7 -5.5 -15.5t-4.5 -16.5q-1 -4 -1.5 -7.5t-1.5 -7.5q0 -2 -0.5 -4.5t-0.5 -4.5q0 -1 -0.5 -1.5t-0.5 -1.5q-1 -15 -1.5 -30t0.5 -30q0 -2 0.5 -4t0.5 -4q-1 9 -0.5 5t0.5 -6
q1 -4 1.5 -7t1.5 -7q1 -6 3 -12t4 -11q1 -1 1.5 -2.5t0.5 -2.5q1 -1 1.5 -3t1.5 -3q1 -3 3.5 -6t3.5 -5q1 -1 2 -2.5t2 -2.5q-1 0 -1 0.5t-1 0.5q1 0 1 -0.5t1 -1.5v0l2 -2t-1 1l4.5 -4.5l4.5 -4.5l3 -3l3 -3l2 -2t2 -1q1 -1 3 -2t3 -2q3 -1 5.5 -3t5.5 -3q-1 1 0.5 0.5
t2.5 -1.5l0.5 -0.5t1.5 -0.5h-1.5t-0.5 1q1 -1 3 -1.5t3 -0.5q4 -1 7.5 -2.5t7.5 -2.5q2 0 4 -0.5t4 -0.5h1h1q8 -1 16.5 -1.5t16.5 0.5h3.5h3.5q1 1 1.5 1h1.5q4 1 7.5 1.5t6.5 1.5q4 1 7.5 2.5t7.5 2.5q1 0 1.5 0.5t1.5 0.5q1 1 2.5 1.5t2.5 1.5q7 3 13.5 7t13.5 8
l1.5 1.5l1.5 1.5h1v1q1 1 1.5 1t1.5 1q3 3 6 5.5t6 5.5zM259 -389v0q-1 0 -1 0.5v0.5l1 -1v0z" />
    <glyph glyph-name="r" unicode="r" horiz-adv-x="418" 
d="M397 475q9 -6 12 -16.5t-3 -20.5q-4 -9 -16 -12t-21 2q-2 1 -4.5 3t-4.5 3q-1 1 -2.5 1.5t-2.5 1.5h-1.5t-1.5 1t1.5 -0.5t1.5 -0.5t-4.5 1.5t-5.5 1.5t-5 2t-6 1q-2 1 -5 1.5t-5 0.5h-1.5t-0.5 1h-3h-4h-11h-11q-2 0 -4.5 -0.5t-4.5 -0.5h-1.5t-1.5 -1q-4 -1 -8.5 -2
t-8.5 -2q-2 -1 -4.5 -1.5t-4.5 -1.5q-1 0 -3.5 -1t-3.5 -2q-1 0 -2 -0.5t-2 -0.5q-1 -1 -3.5 -2t-3.5 -2q-4 -2 -8 -4.5t-8 -4.5q-1 -1 -3 -2.5t-4 -2.5l-1.5 -1.5t-1.5 -0.5v0q-7 -6 -13.5 -12t-12.5 -13q-3 -3 -6 -6.5t-6 -7.5h-0.5t-0.5 -1v0v-1q-1 0 -1 -0.5t-1 -0.5
q-1 -2 -2.5 -4t-2.5 -3q-5 -8 -10.5 -16.5t-9.5 -16.5l-4 -8l-4 -8q-1 -2 -2 -4.5t-2 -4.5q0 -1 -0.5 -2t-0.5 -2q-2 -4 -4 -9.5t-3 -10.5q-2 -5 -4 -10.5t-3 -10.5v0v-1q-6 -21 -12.5 -42t-12.5 -42q-7 -27 -15.5 -53.5t-15.5 -53.5q-3 -11 -6.5 -22t-6.5 -22t-13 -16
t-20 -3t-16 12.5t-3 20.5v1q4 13 8 27t8 27q8 28 16.5 55.5t16.5 55.5q5 18 10 35.5t10 35.5q1 5 3 10.5t4 10.5q2 10 5 19l6 18q7 27 15 53.5t16 53.5l6 22t7 22q3 11 12.5 16t20.5 3q10 -2 16 -12.5t3 -20.5v-1q-1 -4 -2.5 -9t-2.5 -9q10 9 21.5 16.5t23.5 12.5
q41 19 89.5 19t87.5 -25zM170 370l0.5 1t1.5 2l-1.5 -1.5t-0.5 -1.5zM248 435q1 0 2.5 1t-0.5 0q0 -1 -0.5 -1h-1.5v0z" />
    <glyph glyph-name="s" unicode="s" horiz-adv-x="458" 
d="M120 595v1v0v0v0v-1zM130 563h-1v1v0q0 -1 0.5 -1t0.5 -1v1zM65 125v0v0v-1v0v1zM247 87v0v-1v0h-1q1 0 1 0.5t1 0.5v0h-1zM302 188l-1 -1v-1v0v1l1 1v0v0zM91 80v0v0v0zM260 321v-1h1v-1l-1.5 1.5t-0.5 1.5q0 -1 0.5 -1h0.5zM186 60h-1h-1h-1h1h2v0zM529 300
q9 -5 12 -16.5t-2 -20.5q-15 -23 -31.5 -46t-33.5 -44q-29 -35 -63.5 -66t-74.5 -52q-31 -16 -65 -28.5t-69 -18.5q-23 -4 -48 -3t-47 8q-19 6 -36.5 16.5t-30.5 25.5q-14 17 -22 37.5t-8 42.5q0 11 8 18.5t19 8.5t19 -8t8 -19v-4.5v-4.5v-0.5t1 -0.5q-1 1 -1 1.5v1.5v-1.5
t1 -1.5v-3t0 2l2 -8l2 -8v0l0.5 -0.5t0.5 -1.5q1 -1 2 -3t2 -3t2 -3t2 -3q0 -1 0.5 -1.5l0.5 -0.5l6 -6t6 -5v-1v0l-1 1l-1 1l1 -1l1 -1l2 -1l-2 1h0.5t0.5 -1l4 -2t3 -2q4 -2 7 -4t7 -3q1 -1 1.5 -1t1.5 -1q2 0 4 -0.5t4 -1.5q4 -1 8.5 -2t8.5 -2h1.5t1.5 -1v0h4.5h4.5
t4.5 -0.5t4.5 -0.5q5 1 10.5 1t10.5 1q-1 0 0 0h2v0h1h0.5t0.5 1v0l-1 -1q1 1 1.5 1h0.5q4 1 7 1.5t7 1.5t8 2.5t8 3.5v0q1 0 2.5 0.5t2.5 1.5t3.5 2t4.5 2q4 2 7.5 4.5t7.5 5.5q-2 -1 -1 -1t2 1v1q1 0 1.5 0.5t1.5 0.5q-1 0 -1.5 -0.5l-0.5 -0.5l1.5 1.5l1.5 1.5t3.5 3
t3.5 3q4 3 7 6.5t6 7.5q0 1 0.5 1h0.5q1 1 1.5 2t0.5 2q1 2 3 4.5t3 4.5t3 5t3 5q0 1 0.5 2.5t1.5 2.5q0 1 0.5 1.5t0.5 1.5q2 4 4 9t3 10q1 6 2.5 12.5t2.5 12.5q0 -2 0 -0.5t1 2.5v1.5v1.5v-1.5v-1.5v3.5v3.5q1 3 1 6.5v6.5v13t-1 13v1v2.5t-1 2.5q-1 3 -1.5 6t-1.5 6
l-2 6l-2 6q-1 1 -2 4t2 -4q-1 1 -1 3t-1 3q-3 6 -6 11.5t-7 10.5q-3 6 -6.5 11.5t-7.5 9.5q-1 1 -2 3t-2 3l1 -1q0 1 -0.5 1t-0.5 1v0l-2 2t0 0q-1 2 -3.5 4.5t-3.5 4.5q-19 22 -39 43l-40 42q-23 24 -46 51.5t-39 58.5q-11 -30 -22.5 -60t-21.5 -60q-24 -67 -46.5 -135
t-44.5 -135q-3 -11 -12.5 -16.5t-20.5 -2.5q-10 2 -16 12.5t-3 20.5q13 40 26.5 80t26.5 80q19 55 38.5 111t39.5 111q8 22 16.5 44t17.5 44q4 10 11.5 15t17.5 4t17 -8.5t7 -17.5v-6.5v-6.5q0 -1 0.5 -2t0.5 -2v2t-1 2q0 -1 0.5 -2t0.5 -2v-1.5t0 0.5v0v-1q1 -6 3 -12
l4 -12q1 -1 1 -3t1 -3v0.5t-1 1.5q1 -1 1 -1.5v-0.5v-1v0q1 -1 1.5 -2t-0.5 1l2.5 -5t2.5 -6q3 -5 6.5 -11t6.5 -11q2 -3 4.5 -6t4.5 -6q1 -1 2 -3t2 -3l0.5 -1t1.5 -2q18 -22 38 -43t39 -41q20 -21 40 -43t36.5 -46.5t28 -51.5t12.5 -57q1 -28 -4 -55.5t-16 -52.5
q4 3 8 5.5t8 5.5l1.5 1.5t1.5 0.5t1 0.5v0.5q2 1 4 3l4 4q4 3 8.5 6.5t8.5 7.5q16 16 31.5 32.5t29.5 34.5q1 1 1.5 2t1.5 2l1 1q1 2 3.5 4.5t3.5 4.5q3 4 6.5 9t6.5 9q7 10 13 19t12 19t16.5 12.5t20.5 -2.5z" />
    <glyph glyph-name="t" unicode="t" horiz-adv-x="230" 
d="M272 150q10 -3 15.5 -12.5t2.5 -19.5q-10 -33 -32 -58.5t-53 -41.5q-18 -9 -38 -13.5t-39 -4.5q-10 0 -21 1.5t-21 4.5q-26 7 -46 24t-31 40q-12 25 -12.5 56.5t9.5 67.5v0v1l86 279h-41q-11 0 -19 8t-8 19t8 19t19 8h57l19 62q3 10 13 15.5t20 1.5q10 -3 15.5 -13
t2.5 -20l-14 -46h32q10 0 18 -8t8 -19t-8 -19t-18 -8h-49l-90 -295q-14 -48 -2.5 -80t45.5 -42q19 -5 41 -3t41 12q21 10 35.5 27.5t21.5 38.5q3 10 12.5 16t20.5 2z" />
    <glyph glyph-name="u" unicode="u" horiz-adv-x="492" 
d="M260 84v0q4 3 2.5 2t-2.5 -2zM53 161v0q1 -4 0.5 -2.5t-0.5 2.5zM191 54v0q-1 -1 -2.5 -1t2.5 1zM300 124v0l-1 -1v-1q-1 -1 -1.5 -1t2.5 3v0zM97 75h-1v0l-1 1l0.5 -0.5l1.5 -1.5v1zM559 169q10 -2 16 -12.5t3 -20.5q-1 -7 -3.5 -13.5t-5.5 -12.5q-9 -22 -21.5 -43
t-31.5 -37q-16 -13 -34.5 -21.5t-39.5 -10.5q-32 -4 -63.5 12.5t-47.5 45.5q-2 3 -3.5 6.5t-2.5 7.5q-1 0 -1 -0.5t-1 -1.5q-27 -28 -61 -46.5t-74 -22.5q-36 -4 -71.5 6.5t-62.5 34.5q-25 22 -38 53.5t-17 63.5q-3 26 -1.5 53.5t7.5 52.5q0 -1 0 -0.5v1.5l6 20l6 20v1v0
q7 24 13.5 47.5t13.5 47.5q6 21 12.5 42.5t12.5 42.5q3 11 13 16t20 3t16 -12.5t3 -20.5q-2 -8 -4.5 -16.5t-5.5 -16.5q-8 -31 -17 -61t-17 -60q-1 -6 -3.5 -12.5t-3.5 -12.5v-0.5t-1 -1.5q-1 -5 -3 -10.5t-3 -10.5t-2.5 -10.5t-3.5 -9.5v-3t-1 -3q-1 -4 -1.5 -8.5
t-1.5 -8.5v-2v-2q0 -2 -0.5 -4.5t-0.5 -3.5q-1 -9 -1 -17.5v-17.5q1 -4 1 -8.5t1 -8.5v-1v1l-1 1l1 -1v-1q0 -2 0.5 -4.5t0.5 -4.5q1 -7 3 -13.5t4 -13.5q1 -1 1.5 -3t1.5 -4v-0.5t1 -0.5q1 -3 2.5 -5.5t2.5 -5.5l4 -6l4 -6v0q1 -1 2 -2.5t2 -2.5q2 -3 4.5 -5.5t5.5 -4.5
l1.5 -1.5l1.5 -1.5q-1 1 0 0.5t2 -1.5v0q0 -1 0.5 -1t0.5 -1q0 1 -0.5 1h-0.5q4 -3 9.5 -6t9.5 -5q1 0 3.5 -1t3.5 -2q1 0 3 -0.5t4 -1.5q3 -1 6.5 -1.5t6.5 -1.5q2 -1 4.5 -1t4.5 -1q-7 1 -3 0.5t6 -0.5q4 0 7.5 -0.5t7.5 -0.5t9.5 0.5t9.5 0.5q1 0 2 0.5t2 0.5h-1.5h-0.5
v0h3.5t3.5 1q4 1 8.5 2t8.5 2q1 1 3.5 1.5t4.5 1.5q1 1 2 1.5t2 0.5q7 3 13 6.5t12 7.5q2 1 4 3t4 3v0q0 -1 -0.5 -1h-0.5q1 1 1.5 1t1.5 1q3 2 6 5t6 5l12 12t11 13q0 1 0.5 1.5t1.5 0.5v1l1 1v0v1v-1v0q1 1 2.5 3t2.5 4q2 3 4.5 6t4.5 7q4 7 8.5 15.5t8.5 16.5q1 1 2 3.5
t2 4.5q1 1 1 2v2q1 3 2.5 6t2.5 6q4 12 7.5 24.5t6.5 24.5q1 1 1 1.5v1.5q7 23 13.5 46t13.5 46q10 35 20 70.5t20 70.5q3 11 13 16t20 3q11 -2 16.5 -12.5t2.5 -20.5q-1 -3 -1.5 -6t-1.5 -5q-10 -37 -21 -73t-21 -73q-5 -19 -11 -39.5t-12 -39.5v0q-1 -6 -2.5 -12t-2.5 -11
q-2 -7 -4.5 -14t-4.5 -14l-4 -14l-4 -14t-4 -13.5t-4 -13.5q0 -2 -0.5 -4.5t-1.5 -4.5q-1 -1 -1 -3t-1 -3v-2v-2q0 -2 -0.5 -4.5t0.5 -4.5v-1.5v-1.5v-2t1 -2q0 -1 0.5 -3t0.5 -3l1 -1q1 -3 2.5 -5.5t2.5 -4.5l0.5 -0.5t0.5 -1.5l1.5 -1.5l1.5 -1.5l3.5 -3.5l4.5 -4.5h1v0
q1 -1 2.5 -2t2.5 -2t3 -1.5t3 -1.5h1l1 -1q2 -1 5 -1.5t6 -1.5q1 0 3 -0.5t3 -0.5v0q4 -1 7 -1t7 1h1.5h1.5h2.5t2.5 1l6 2t7 2q1 0 1 0.5t1 0.5l4 2t3 2t3.5 2t3.5 2l1 1h1l6 6t6 7q2 1 4 3t3 4q1 1 1 1.5t1 1.5q3 4 6 9l6 10l2.5 5l2.5 5q1 1 1 2.5t1 2.5v1v0
q3 6 5.5 12.5t3.5 12.5q3 10 13 15.5t20 3.5zM226 63h-1.5t-0.5 -1q0 1 0.5 1h1.5z" />
    <glyph glyph-name="v" unicode="v" horiz-adv-x="441" 
d="M511 297q10 -2 16 -12.5t3 -20.5q-1 -7 -4 -13t-7 -12q-16 -25 -42.5 -42.5t-54.5 -27.5q-29 -10 -62 -11t-61 10q-4 1 -8 3l-8 4q-4 -4 -8 -9t-8 -9q-25 -28 -52 -53.5t-55 -50.5q-13 -11 -27 -22.5t-28 -21.5q-10 -7 -24 -1.5t-16 17.5v0q-2 12 -4 23.5t-4 23.5
q-4 24 -8.5 48.5t-8.5 48.5q-4 30 -9.5 60t-9.5 59t-8.5 58.5t-8.5 57.5q-2 17 -4.5 35t-2.5 36q0 11 8 18.5t19 8.5q11 0 19 -8.5t8 -18.5v-3v-3q1 -8 1.5 -16t1.5 -16q1 -5 1 -10.5t1 -10.5q1 -3 1 -5.5t1 -5.5v-2.5v-2.5v-1v0q4 -28 8.5 -56t8.5 -56q5 -30 10 -59.5
t10 -58.5q4 -22 7.5 -43.5t7.5 -43.5q8 7 16 13.5t15 13.5q26 24 51.5 49t48.5 51q-12 15 -20.5 32.5t-12.5 36.5q-5 25 -6 50.5t2 50.5q3 23 9.5 46t18.5 44q16 28 44 48.5t62 19.5q15 -1 29.5 -6.5t25.5 -15.5q12 -11 18.5 -25.5t7.5 -30.5q1 -8 0.5 -16.5t-1.5 -16.5
q-1 -11 -3 -22t-6 -21q-6 -21 -15 -41.5t-19 -39.5q-12 -22 -26 -43t-30 -41q4 -1 9 -2.5t10 -2.5h1h3h3q3 -1 6.5 -1h7.5q3 0 6 0.5t7 0.5h1.5h0.5q1 1 2.5 1h2.5q7 1 13.5 3t13.5 4l6 2l6 2l1 1q1 1 3 1.5t3 1.5q6 2 11.5 5.5t10.5 7.5q1 1 2.5 1.5t2.5 1.5v0l1 1
q2 1 4.5 3.5l3.5 3.5l4.5 4.5t3.5 4.5v0q1 1 1.5 2t1.5 2t2.5 3.5t2.5 4.5q-2 -4 -1.5 -2.5t1.5 2.5v0v1v0l0.5 0.5t0.5 1.5q0 -1 -0.5 -1.5l-0.5 -0.5q0 1 0.5 1.5t0.5 1.5q3 11 13 16t20 3zM363 464l1 -1l-1 1v0zM362 468v0v0zM339 483v0h-3t3 0zM257 359q-1 -6 -1 -12.5
v-12.5t0.5 -11.5t0.5 -11.5q0 -1 0.5 -2.5t0.5 -2.5q0 -2 0.5 -4.5t0.5 -4.5q1 -4 2.5 -9t2.5 -9q1 -2 1.5 -4.5t1.5 -4.5q0 -1 0.5 -1t0.5 -1q1 -4 3 -7t4 -7q0 -1 0.5 -1.5l1.5 -1.5q1 1 2.5 3.5t-2.5 -3.5q1 1 1.5 2t1.5 2q1 2 2.5 4.5t2.5 3.5q4 4 7 9t6 9
q12 16 22.5 34t19.5 37q1 2 2.5 4.5t2.5 5.5q0 1 0.5 1.5t0.5 1.5q2 4 4 9t3 9q3 9 5.5 18t4.5 18q0 2 0.5 4.5t0.5 4.5v1.5t1 1.5q0 4 0.5 9t0.5 9v3t-1 3v1v0q0 2 -0.5 4.5t-1.5 4.5v0q-1 1 -1 2t-1 2t-1 1.5t-1 1.5t-1.5 2t-1.5 2h-1l-1 1l-1 1q-1 1 -2 1t-2 1h-1
q-1 1 -1.5 1h-1.5q-1 1 -2.5 1t-2.5 1v0h-4.5h-3.5h-2h-2v0q-3 -1 -6 -1.5t-5 -1.5l-1 -1v0q-1 -1 -2.5 -1t-2.5 -1q-2 -1 -4.5 -3t-4.5 -3l-1 -1h-1l-2.5 -2.5l-2.5 -2.5l-4.5 -4.5t-3.5 -5.5q-1 0 -1.5 -0.5t-0.5 -1.5q-1 -1 -2 -3.5t-2 -3.5q-2 -4 -4.5 -7.5t-3.5 -7.5
l-1 -1l-1 -1v-1v0q-1 -2 -1.5 -4.5t-1.5 -4.5q-4 -10 -6 -20l-4 -20v-1v0v-3.5v-3.5q-1 -3 -1 -6v-6zM477 275v0v-1v0v0v1z" />
    <glyph glyph-name="w" unicode="w" horiz-adv-x="658" 
d="M667 206v0q0 -1 -0.5 -1t-0.5 -1q0 1 0.5 1.5l0.5 0.5v0zM719 263q10 -2 16 -12.5t3 -20.5t-7 -19l-8 -18q-16 -30 -45 -49.5t-63 -20.5q-28 -1 -54.5 10.5t-47.5 29.5q-4 -4 -8 -9t-8 -9q-22 -25 -45.5 -48.5t-48.5 -46.5q-10 -9 -20.5 -18.5t-20.5 -18.5
q-7 -5 -14.5 -7t-15.5 1q-8 4 -12 10.5t-5 14.5v0v1q-1 11 -2.5 22.5t-2.5 22.5q-3 23 -5.5 46.5t-5.5 46.5q-3 27 -6 53.5t-6 53.5q-1 12 -3 24t-3 24q-12 -19 -23.5 -37.5t-23.5 -36.5l-34 -54l-34 -54q-14 -22 -28.5 -44.5t-28.5 -44.5q-5 -9 -11 -18t-12 -19
q-5 -7 -13.5 -10.5t-17.5 -1.5t-13.5 9.5t-5.5 16.5v1q-1 13 -2.5 26.5t-2.5 26.5q-2 27 -5 54.5t-5 54.5q-2 31 -5 63t-6 63q-2 26 -4.5 52.5t-4.5 52.5l-2 22l-2 22t8 18.5t19 8.5q12 0 19 -8.5t8 -18.5v-1v0q1 -13 2.5 -26.5t2.5 -26.5q2 -28 4.5 -55t4.5 -54l6 -64
t6 -63q1 -16 2.5 -33t2.5 -33q11 17 22.5 35t22.5 36q17 26 34.5 53t34.5 54q13 22 27.5 44.5t28.5 44.5q6 9 12 18.5t11 18.5q5 7 13.5 10.5t17.5 1.5q4 -1 8 -3.5t6 -5.5q3 -4 4 -8.5t2 -8.5v0q1 -11 2.5 -23t2.5 -23q3 -23 5.5 -46.5t5.5 -46.5q3 -26 6 -53t7 -54
q1 -18 3.5 -36t4.5 -36q4 4 9 8.5t9 8.5q25 24 48.5 48.5t45.5 49.5l1.5 1.5l1.5 1.5q-19 29 -29.5 62.5t-13.5 67.5q-4 43 5 86.5t40 75.5q22 22 54 32.5t62 -1.5q15 -6 27.5 -16.5t19.5 -25.5q7 -16 9.5 -33.5t0.5 -35.5q-4 -38 -19.5 -73.5t-35.5 -67.5
q-12 -18 -24.5 -36t-25.5 -34q1 -1 3 -3.5t4 -3.5h0.5t0.5 -1q1 -1 3 -2t3 -2q3 -1 6 -3l6 -4q1 0 2.5 -0.5t2.5 -1.5h1l1 -1l6 -2l6 -2q1 0 3.5 -0.5t3.5 -0.5h1q3 -1 5.5 -1h5.5h3h3t1.5 0.5t1.5 0.5q2 0 4.5 0.5t4.5 1.5q1 0 3 0.5t3 1.5h1q2 1 4.5 2.5t5.5 2.5
q1 1 2.5 2t2.5 2v0q3 2 5.5 4.5l4.5 4.5l2 2l2 2q-1 0 -1 -0.5v-0.5l1.5 1.5t0.5 1.5l1 1q1 1 0.5 0.5l-1.5 -1.5v0q2 3 4.5 6.5t3.5 6.5l2 4l2 4q1 1 1 1.5t1 1.5v0q0 1 0.5 1.5l0.5 0.5q0 1 0.5 2t0.5 2q1 2 1.5 4.5t1.5 4.5q4 10 13.5 15.5t19.5 2.5zM590 468v0
q0 1 -0.5 1t0.5 -1zM561 479v0v0zM512 451q0 -1 -0.5 -1.5t-0.5 -1.5q-1 0 0 1t1 2zM489 388q-1 -11 -1.5 -22.5t0.5 -22.5q1 -3 1 -6v-6v-0.5v-1.5l0.5 -0.5t0.5 -1.5v-1v-1v-1v1q1 -4 1.5 -9.5t1.5 -9.5q2 -10 5 -19t7 -19q0 -1 0.5 -1.5t0.5 -1.5l2 -4l2 -4l2 -4l2 -4v0
v1l3 3t3 4q11 15 21.5 31t20.5 32q4 7 8 15.5t8 16.5q1 1 2 3.5t2 4.5q1 1 1 1.5v1.5q1 4 3 7.5t3 6.5q3 8 5 16t4 15q0 2 0.5 4t0.5 4v1v1q1 3 1 6.5v7.5v6.5v6.5v1.5v0.5q-1 1 -1 3.5t-1 3.5t-1 2.5t-1 2.5v0q-1 1 -1.5 3t-1.5 3q0 1 -0.5 1t-1.5 1l-2.5 2.5l-2.5 2.5
t-2 1.5t-2 1.5t-2 1t-2 1q-2 1 -4.5 1t-4.5 1h-1h-2.5h-2.5h-2.5h-2.5q-3 -1 -6 -1.5t-6 -1.5q-2 -1 -4.5 -2.5t4.5 2.5q-1 -1 -3 -1.5t-3 -1.5q-2 -1 -5 -3t-6 -3l-1 -1l-1 -1t-2 -1.5t-2 -1.5l-5 -5t-5 -6v0q-1 0 -1 -0.5v-0.5q-1 -1 -2 -3t-2 -3q-2 -4 -4.5 -7t-3.5 -7
q-1 -1 -1 -1.5t-1 -1.5q0 -2 -0.5 -4t-1.5 -4q-1 -4 -2.5 -8.5t-2.5 -8.5q-1 -3 -1 -5.5t-1 -5.5v0v-1.5v-1.5zM557 197q0 -1 -0.5 -0.5l-1.5 1.5q1 0 1.5 -0.5zM602 178v0q2 -1 3 -1t-3 1zM623 178v0h1h-1zM489 329q1 0 1 -1v-3v1v0v1.5t-1 1.5z" />
    <glyph glyph-name="x" unicode="x" horiz-adv-x="580" 
d="M430 66v0q-1 1 -1.5 1t-1.5 1q1 -1 2 -1t2 -1v0h-1zM411 77l-1 1l-1 1v0h-1q1 -1 2 -1t1 -1zM639 149q1 -5 0 -10.5t-3 -10.5q-3 -7 -6.5 -13t-6.5 -13q-8 -13 -17.5 -26t-19.5 -24q-13 -12 -27.5 -21t-30.5 -16q-13 -5 -28.5 -7.5t-30.5 -2.5q-12 0 -24.5 1.5t-23.5 5.5
q-49 16 -77.5 57t-46.5 85q-4 10 -7 20l-6 20q-12 -16 -24 -32.5t-25 -32.5q-12 -16 -25 -32t-27 -30q-13 -13 -27 -25t-29 -21q-13 -7 -29 -12.5t-32 -4.5q-18 1 -33.5 8.5t-28.5 20.5q-8 8 -7.5 19.5t7.5 18.5q7 8 19 7.5t19 -7.5l2.5 -2.5l2.5 -2.5h1v0q2 -1 4.5 -3
t4.5 -3h1v0q1 -1 3 -1t3 -1h1h2h2h2.5h2.5h-1.5t-1.5 -1q1 1 1.5 1h1.5v0h1v0q1 0 2.5 0.5t-2.5 -0.5q3 1 5.5 1.5t5.5 1.5q1 0 1.5 0.5l0.5 0.5q1 1 2 1t2 1q6 3 11.5 6t10.5 7q1 1 2.5 2t2.5 2l3 3l3 3q4 3 7 6l6 6q7 7 13.5 14t12.5 14q7 7 13.5 15.5t13.5 16.5
q1 1 2 2.5t2 2.5l0.5 0.5l1.5 1.5t2 3t2 3q4 4 7 9t6 9q13 17 25.5 35t25.5 36q-4 16 -8.5 32t-8.5 32q-3 11 -6.5 23t-7.5 24q-1 3 -2.5 5.5t-2.5 5.5v1q-1 1 -1.5 2.5t-0.5 2.5q-3 5 -5.5 10.5t-6.5 10.5q-1 2 -3 4.5t-3 5.5l-1.5 1.5l-1.5 1.5l-4.5 4.5l-3.5 3.5l-1 1
l-1 1l-0.5 0.5t-1.5 0.5q-2 1 -4.5 3t-4.5 3v0q-1 0 -2 0.5t-2 0.5q-1 1 -3.5 1t-3.5 1h-1.5h-1.5h-2.5h-2.5h-4h-3v0h-1q-3 -1 -6 -1.5t-5 -1.5l-6 -2t-5 -2h-1.5t-1.5 -1h-1v0v0l-0.5 -0.5t-1.5 -0.5q-1 -1 -3 -1.5t-4 -1.5q-3 -2 -5.5 -4t-5.5 -4q-1 0 -1.5 -0.5
t-0.5 -1.5q-1 -1 -2.5 -2t-2.5 -2l-5.5 -5.5t-4.5 -5.5q-1 0 -1 -0.5v-0.5q-1 -1 -2 -2.5t-2 -2.5q-4 -6 -7.5 -12.5t-6.5 -12.5v-1.5t-1 -1.5q0 -1 -0.5 -3t-1.5 -3q-1 -4 -2 -7l-2 -6q-1 -4 -1.5 -7.5t-1.5 -7.5q-1 -1 -1 -3.5t-1 -3.5v-1.5v-1.5q-1 -7 -1.5 -13.5
t-0.5 -13.5q0 -11 -8 -18.5t-19 -8.5q-10 -1 -18.5 8t-8.5 19q0 7 0.5 14t1.5 14q4 33 16 64t35 56q12 13 27 22.5t31 16.5q13 5 27.5 7.5t28.5 1.5q16 -2 29.5 -7.5t26.5 -15.5q10 -8 17.5 -18t14.5 -20q13 -22 22 -47.5t16 -50.5q1 -4 2.5 -9.5t2.5 -10.5q4 6 8.5 12
t8.5 11q13 19 27.5 37t29.5 36q12 13 24.5 26t26.5 24q13 10 28.5 19t31.5 12q14 3 28.5 2t27.5 -8q10 -6 18 -15.5t12 -20.5q3 -11 -3 -20.5t-16 -12.5q-10 -4 -19.5 1.5t-13.5 14.5q0 1 -0.5 1.5t-0.5 1.5q-1 0 -1 0.5v0.5v0v-1v1v0v0h-1v1v0v0h-1l-1 1v0v0h-1l-0.5 0.5
t-1.5 0.5q1 0 1.5 -0.5l0.5 -0.5q-1 0 -1 0.5t-1 0.5h-1h-2t-1 0.5t-1 0.5q1 0 1 -0.5t1 -0.5h-2h-2h-2h-2v0h-1t-2.5 -0.5t-2.5 -0.5q-1 -1 -3 -1.5t-3 -0.5h-1v-1q-6 -2 -12 -5.5t-12 -7.5q0 -1 -0.5 -1.5t-1.5 -0.5q-1 -1 -2.5 -2t-2.5 -2q-3 -3 -6.5 -6t-6.5 -6
q-14 -13 -27 -28t-25 -30q-1 -2 -3.5 -4.5t-3.5 -4.5l-1 -1q1 1 0 0l-2 -2v0v0q0 -1 -0.5 -1.5l-1.5 -1.5q1 1 1 1.5t1 0.5q-4 -4 -7 -8.5t-6 -8.5q-7 -9 -13.5 -18t-13.5 -18q-6 -9 -12 -17.5t-11 -16.5q5 -21 11.5 -41.5t14.5 -40.5q1 -1 1 -3t1 -3v0q1 -3 2 -5.5t2 -4.5
q3 -5 5.5 -10.5t5.5 -9.5q2 -5 5 -10t6 -9q1 -2 3 -4.5t4 -4.5v-1v0q1 -1 1 -1.5t1 -1.5q4 -4 7 -7.5t7 -7.5q2 -1 4 -3l3 -3q0 1 -0.5 1h-0.5l0.5 -0.5t1.5 -0.5v0v-1q1 -1 2 -1.5t0 0.5q1 0 1 -0.5t1 -0.5q3 -2 6.5 -4.5t7.5 -3.5l1 -0.5t2 -1.5v0q1 0 1.5 -0.5t1.5 -0.5
q-1 0 -1 0.5t-1 0.5q1 -1 1.5 -1h1.5q2 -1 4.5 -1.5t5.5 -1.5q2 -1 4.5 -1.5t5.5 -0.5q1 -1 2.5 -1h2.5h12t12 1h0.5h1.5h2.5t2.5 1q4 1 7.5 1.5t6.5 1.5q2 1 4.5 1.5t3.5 1.5h1h1q3 1 6 3l6 4l4 2t3 2t1.5 1t1.5 1v0l1 1t1.5 1t1.5 1l2.5 2.5l2.5 2.5l4.5 4.5l5.5 5.5
q1 1 2 2.5t2 2.5v1h1q8 12 15.5 25t13.5 26q5 10 16.5 12.5t20.5 -2.5q4 -2 8 -7t5 -9zM524 439v0v0v0v0zM175 443v0l1 -1zM194 435q-1 0 0 -0.5t2 -1.5l-1.5 1.5zM197 166v0q1 1 1 1.5t-1 -1.5zM515 68h1v0h-1zM132 435v0q1 0 2 0.5t2 0.5h-1t-3 -1zM75 58v0h-1v0h1z
M514 443v0h1.5h1.5h-1h-2v0zM521 441q1 0 1 -0.5v-0.5h1v0q-1 1 -1.5 1h-1.5v1h-1v0h1v0v0h0.5t0.5 -1h1v0h-1zM387 337v1q1 0 1 0.5t1 1.5q0 -1 -0.5 -1.5z" />
    <glyph glyph-name="y" unicode="y" horiz-adv-x="488" 
d="M89 91h-1v0v1q1 -1 1 -1.5t1 -0.5h-1v1zM308 122v-0.5t-1 -0.5v0q1 0 1.5 1l0.5 1v-0.5t-1 -0.5zM536 143q8 -7 7.5 -19t-7.5 -19t-15 -14l-16 -14q-37 -30 -78 -54t-84 -46q-3 -10 -6 -21t-6 -21q-9 -33 -19.5 -66.5t-18.5 -67.5q-9 -34 -19 -67.5t-25 -64.5
q-13 -28 -32.5 -53t-44.5 -44q-23 -17 -52.5 -26t-59.5 -7q-16 1 -31 5.5t-28 12.5q-14 8 -26 20t-20 25q-17 29 -20 63.5t5 65.5t24.5 58.5t38.5 50.5q31 34 72 58.5t82 45.5q34 18 70 35.5t71 34.5q1 4 2 7.5t2 7.5v5t1 5v1v0v1v0q-2 -1 -4.5 -3.5t-4.5 -3.5
q-29 -21 -64 -30t-71 -5q-19 1 -37 6.5t-34 15.5q-14 8 -26.5 20t-22.5 26q-4 7 -8.5 15t-7.5 16l-1 1q-9 22 -12.5 46t-3.5 47q0 18 2 35.5t6 33.5q1 3 1.5 5.5t1.5 5.5q1 4 2.5 8.5t2.5 8.5q0 1 0.5 2t0.5 2q7 25 14.5 49.5t14.5 49.5q1 1 1 3t1 4v-1v0q6 19 11.5 39.5
t11.5 39.5q3 11 13 16t20 3t15.5 -12t3.5 -20q-1 -3 -1.5 -6t-1.5 -5v-1.5t-1 -0.5h1v1q-7 -25 -14 -49.5t-14 -48.5q-4 -15 -8.5 -29.5t-8.5 -28.5q-3 -10 -6 -20.5t-6 -20.5q-1 -2 -1.5 -4.5t-1.5 -4.5q0 -2 -0.5 -4.5t-1.5 -4.5q0 -2 -0.5 -4.5t-0.5 -4.5v-1.5t-1 -1.5
q-1 -15 -1.5 -30t0.5 -30q1 -1 1 -3.5v-3.5v2v2v-3v-3q1 -4 1.5 -7t1.5 -7q1 -6 3.5 -12t4.5 -11q0 -1 0.5 -2.5t1.5 -2.5t1 -3t1 -3l4 -6t3 -5q1 -1 2 -2.5t2 -2.5v0h-1h1v-1v0l2 -2t0 1q1 -2 3.5 -4.5l4.5 -4.5l3 -3l3 -3t2.5 -2t2.5 -1q1 -1 2.5 -2t2.5 -2q3 -1 6 -3
t5 -3q-1 1 0.5 0.5t2.5 -1.5h-1h-1v1h-1q1 0 1.5 -0.5t1.5 -0.5v0h0.5t0.5 -1q0 1 -0.5 1h-0.5q1 -1 3 -1.5t3 -0.5q4 -1 7.5 -2.5t7.5 -2.5q2 0 4 -0.5t4 -0.5h1h1q8 -1 16.5 -1.5t16.5 0.5h3.5h3.5q1 1 1.5 1h1.5q4 1 7.5 1.5t7.5 1.5t7.5 2.5t7.5 2.5l0.5 0.5t1.5 0.5
q1 1 3 1.5t3 1.5q7 3 13.5 7t12.5 8l1.5 1.5l1.5 1.5h1v0v0.5t1 0.5q1 1 1.5 1t1.5 1q3 3 6 5.5t5 5.5q6 5 11.5 11t10.5 12v1v-1v0v0v1v0q1 1 2 1.5t1 1.5v0l-1 -1q1 1 2 2.5t2 2.5q2 4 4.5 7t4.5 7q4 7 8 14.5t8 14.5q2 4 4 7.5t3 7.5l1 1v0v1v1q1 0 1 0.5v1.5q1 2 1.5 5
t1.5 5q4 13 7.5 26t7.5 26l6 20l6 20q7 25 14.5 49.5t14.5 49.5q1 1 1.5 3t0.5 4v-1v0q6 19 12 39.5t11 39.5q3 11 13 16t20 3t16 -12t4 -20l-1 -1q-1 -4 -2.5 -8.5t-2.5 -8.5q-9 -31 -18 -63.5t-18 -63.5q-7 -25 -14.5 -49.5t-14.5 -48.5q-1 -6 -3 -12.5t-4 -12.5
q-3 -10 -6 -20.5t-6 -20.5q-7 -27 -15 -53.5t-15 -52.5q17 9 34 19.5t33 20.5q5 4 10.5 7t9.5 7q2 1 5 3.5t5 3.5v0l1 1l1.5 1.5l1.5 1.5q9 7 17.5 14.5t15.5 14.5q8 8 19.5 7.5t18.5 -7.5zM174 -352v1h1v1q0 -1 -0.5 -1t-0.5 -1zM265 -101q3 11 6.5 22.5t6.5 22.5
q-32 -15 -64 -31t-63 -33q-19 -10 -37.5 -21.5t-36.5 -24.5q-1 -1 -2 -1.5t-2 -1.5l-1 -1q-1 -1 -3 -2.5t-3 -2.5q-4 -3 -7.5 -6t-7.5 -7l-9.5 -9.5t-9.5 -10.5q-1 -1 -2.5 -3t-2.5 -3l-1 -1v-1q-2 -2 -4.5 -5t-3.5 -6q-4 -6 -7.5 -12t-6.5 -12q-1 -1 -1.5 -3.5t-1.5 -3.5
t-1 -1.5v-1.5l-2.5 -5t-2.5 -6q-1 -7 -3 -14t-3 -14v-1.5v-1.5q-1 -1 -1 -3.5v-3.5v-7v-7v-3.5t1 -4.5v-1q0 -4 0.5 -7t1.5 -6q1 -4 2.5 -7t2.5 -6h-1v1q0 -1 0.5 -1t0.5 -1v1v0q1 -2 1 -3v0v0v1q-1 0 -1 0.5v0.5v0v-1l1 -1q1 -1 1.5 -3t1.5 -3q1 -3 3.5 -5.5t3.5 -5.5l1 -1
l1 -1t2 -2.5t2 -2.5t2.5 -2t2.5 -2h-0.5t-0.5 1l1 -1l1 -1v0v0v1h-1v0q3 -1 3 -1.5t-1 0.5v0v0v0q2 -1 4.5 -3t4.5 -3q1 -1 3 -1.5t3 -1.5h-1h-1h1.5h0.5h1v-1h1.5h0.5h-1h-1v1h-1v0q2 -1 2.5 -1h0.5q2 -1 5 -1.5t5 -1.5t4.5 -1.5t3.5 -0.5v0h1h1v0h-1h1v0q1 -1 1.5 -1h0.5
h4h3h7h6h3.5t3.5 1v0v0q7 1 13 2.5t12 3.5q1 1 3 1.5l2 0.5l-1 -0.5t-2 -1.5q1 1 2.5 1.5t2.5 1.5q3 1 6 3t6 3l6 4t5 4q1 0 2 1l1 1v0q1 1 2 1.5t2 1.5q5 4 10.5 9.5t9.5 10.5q1 1 2.5 3t2.5 3v0q-1 -1 -1 -0.5t2 2.5v0h0.5t0.5 1q0 -1 -0.5 -1h-0.5q2 2 4 5t4 5
q4 6 7.5 12t6.5 13q1 3 3.5 6.5t3.5 6.5q1 1 1.5 3t1.5 4v0.5t1 1.5q5 15 10.5 30.5t9.5 31.5t8.5 32.5t8.5 32.5t9.5 32.5t10.5 32.5z" />
    <glyph glyph-name="z" unicode="z" horiz-adv-x="484" 
d="M66 31v0h1q0 1 0.5 1h0.5h-1t-2 -1v0h1zM49 21v0l1.5 1.5t1.5 0.5l-0.5 -0.5t-2.5 -1.5zM436 133l-1 -1v-0.5t-1 -0.5q-1 -1 -0.5 -0.5l2.5 2.5v0zM495 202q10 -2 16 -12.5t3 -20.5q-9 -31 -27 -57.5t-42 -46.5q-45 -37 -102 -53t-114 -3q-13 3 -25.5 7t-25.5 8t-27 7
t-27 5v0h-2t-2 1h-3h-3q-4 0 -7 0.5t-6 0.5q-4 -1 -7.5 -1h-6.5v0h-1v0q-1 -1 -3 -1t-3 -1q-3 0 -6 -1l-6 -2q1 0 0 0t-2 -1v0h-1l-1 -1q0 1 0.5 1h0.5q-1 -1 -2 -1.5t-2 -0.5q-2 -1 -4.5 -3t-4.5 -3h-0.5t-1.5 -1l-1 -1v0v0l-0.5 -0.5t-1.5 -0.5l-2.5 -2.5l-2.5 -2.5
q-8 -8 -19 -7.5t-19 7.5t-7.5 19t7.5 19v0h1q12 13 25 27t26 27q27 27 53.5 54t53.5 55q31 31 61.5 63t61.5 63q25 26 51 52.5t52 51.5q-20 1 -40 1.5t-40 1.5q-28 1 -55.5 1t-54.5 1h-46.5t-46.5 -1q-7 0 -13.5 -0.5t-13.5 -1.5v0h-1l-6 -2t-7 -2q-10 0 -19 8.5t-8 18.5
q0 6 2 11t6 9q7 7 15.5 8.5t16.5 2.5t16 1.5t15 0.5q24 1 48 1h48q28 -1 56.5 -1t56.5 -1q23 -1 46.5 -1.5t47.5 -1.5q10 -1 19.5 -1t19.5 -1q7 0 14 -4.5t10 -11.5t1.5 -15.5t-6.5 -14.5h-1v-1q-13 -13 -26 -26.5t-26 -26.5q-26 -27 -53 -54t-54 -55q-31 -31 -61.5 -63
t-61.5 -63q-18 -18 -35.5 -36t-35.5 -36q6 -1 11.5 -1.5t10.5 -1.5q27 -4 53 -12.5t52 -14.5q3 -1 6.5 -1.5t6.5 -0.5l1 -1v0h2.5h2.5q7 -1 13 -1h13q4 0 7 0.5t6 0.5h2t2 1h1.5h0.5q7 1 13 2.5t12 2.5q7 2 13 4.5t12 4.5v0h1q1 1 3 1.5t3 1.5q3 1 5.5 3t5.5 3q5 3 11 6.5
t11 7.5q1 1 2.5 1.5t2.5 1.5l1 1v0q2 2 4.5 4t4.5 4q5 4 9.5 9t8.5 9q1 1 2 2.5t2 2.5q1 0 1 0.5t1 1.5v0v0.5t1 0.5q-1 0 -1 -0.5v-0.5q1 2 3 4.5t3 4.5q4 5 7 10.5t6 11.5q0 1 0.5 2t0.5 2h1v0q0 1 0.5 1.5t0.5 1.5l2 6l2 6q3 11 13 16.5t20 2.5zM92 469v1v0v0v-1z
M457 169q0 1 0.5 1t0.5 1l-0.5 -0.5t-0.5 -1.5z" />
    <glyph glyph-name="braceleft" unicode="{" horiz-adv-x="586" 
d="M485 752q11 0 19 -8t8 -19t-8 -19t-19 -8q-51 0 -94 -33.5t-56 -84.5l-17 -67q-1 -6 -5 -10.5t-8 -6.5l-157 -92l100 -102q5 -5 7 -12t0 -14l-36 -143v0q-5 -19 -1.5 -38t14.5 -33t27 -22t35 -8q11 0 19 -8t8 -19t-8 -19t-19 -8q-31 0 -58.5 13.5t-46.5 37.5t-24.5 55
t2.5 62l32 129l-114 116q-4 4 -6.5 10t-1.5 12t4.5 11.5t8.5 8.5l178 104l15 57q18 68 75.5 113t126.5 45z" />
    <glyph glyph-name="bar" unicode="|" horiz-adv-x="197" 
d="M66 751v0q0 11 8 18.5t19 8.5t19 -8t8 -19v-1v-14.5v-14.5v-31.5v-30.5v-43.5v-42.5v-50.5v-50.5v-55v-54v-54v-54v-49.5v-49.5v-40.5v-39.5v-28v-27v-10v-10q0 -11 -8 -18.5t-19 -8.5t-19 8t-8 19v1v14.5v14.5v31.5v30.5v43.5v42.5v50.5v50.5v55v54v54v54v49.5v49.5
v40.5v39.5v28v27v10v10z" />
    <glyph glyph-name="braceright" unicode="}" horiz-adv-x="590" 
d="M512 441q5 -4 7.5 -10t2.5 -13q-1 -6 -4.5 -11.5t-8.5 -8.5l-185 -116l-7 -38l-1 -1v-1l-25 -94v-0.5t-1 -0.5q-13 -45 -33 -76t-47 -50q-28 -19 -60 -24.5t-58 -5.5q-11 0 -19 8.5t-8 18.5q0 11 8 19t19 8q54 0 89.5 22t57.5 95l25 93l10 49q1 5 4.5 9.5t7.5 7.5
l163 103l-106 90q-4 4 -6.5 9.5t-2.5 11.5v3.5t1 3.5q1 8 3.5 16.5t5.5 15.5q9 33 15.5 66t-6.5 50q-10 14 -33 18t-43 4q-11 0 -19 8.5t-8 18.5q0 11 8 19t19 8q43 0 73 -10.5t46 -32.5q25 -34 18.5 -78t-19.5 -86q-1 -4 -2 -7.5t-2 -7.5z" />
    <glyph glyph-name="asciitilde" unicode="~" horiz-adv-x="576" 
d="M143 222v0q-7 -8 -19 -7.5t-19 7.5q-8 7 -7.5 19t7.5 19q16 17 37 26t44 11q40 3 76.5 -11.5t73.5 -24.5q4 -1 9 -2t9 -2q1 -1 3.5 -1t-4.5 1h1.5h0.5q2 -1 4.5 -1h4.5h7.5h7.5h2t2 1q4 0 0.5 -0.5l-3.5 -0.5q2 0 4.5 0.5t3.5 1.5q4 1 7.5 2t7.5 2t-0.5 -0.5t-0.5 0.5
h0.5t1.5 1l4 2t3 2q2 1 5 3t-2 -2q1 1 3 2.5t3 2.5t2.5 3t2.5 3l1.5 1.5l1.5 1.5q3 3 0 -0.5t-1 -0.5q7 10 17 12.5t20 -2.5q4 -2 8 -7t5 -9t0.5 -10.5t-3.5 -10.5q-13 -18 -31 -31t-40 -17q-19 -4 -38 -3.5t-37 4.5q-20 4 -39.5 11.5t-38.5 14.5q-8 3 -17 5.5t-19 3.5
q-1 1 -4 1t4 -1q-1 0 -1.5 0.5t-1.5 0.5h-4.5h-4.5h-6.5h-7.5h-3h-3q5 0 4 0h-2q-2 -1 -4 -1t-4 -1q-4 -1 -7 -2t-7 -2q6 1 3.5 0.5t-3.5 -1.5q-1 0 -2 -0.5t-2 -1.5t-3 -2t-3 -2q-1 0 -1.5 -0.5l-1.5 -1.5l1.5 1.5l1.5 1.5q0 -1 -1 -1.5l-1 -0.5q-2 -1 -4 -3.5t-3 -3.5z
" />
    <glyph glyph-name="sterling" unicode="&#xa3;" horiz-adv-x="619" 
d="M416 99v-1h-1v-1q-1 -1 -2 -1t3 3zM127 27v0q1 1 2.5 1.5t-2.5 -1.5zM355 64q-1 -1 -3 -1t3 1v0zM167 43v0h1h1.5t-3.5 0h1v0zM377 70v0h-1.5t-0.5 -1h-1zM462 117q10 -5 12 -17.5t-5 -22.5q-15 -22 -35.5 -37.5t-44.5 -24.5q-20 -7 -40.5 -8.5t-40.5 2.5q-21 4 -40.5 12
t-39.5 15q-4 1 -9.5 3t-11.5 3h-2h-2q-1 1 -3.5 1h-3.5q-4 0 -9 0.5t-9 -0.5h-4.5h-3.5h-1h-1h-1q-1 0 -1 -0.5t-1 -0.5h1v1q-4 -1 -8.5 -2.5t-8.5 -2.5q-2 -1 -5.5 -2.5t3.5 2.5q-2 -1 -4.5 -2t-4.5 -2q-1 -1 -3.5 -2.5t-4.5 -2.5q-1 -1 -2 -1.5t-2 -1.5q1 0 1 0.5v0.5v0
q-4 -3 -7 -6.5t-6 -6.5q-9 -10 -21.5 -8.5t-19.5 8.5q-4 4 -6 9.5t-1 10.5q1 4 2 7.5t3 6.5l66 252h-45q-11 0 -18.5 8t-6.5 19t9.5 19t19.5 8h55l50 191v0q14 52 37 94t53 69q13 13 28.5 22t31.5 14t31 6.5t31 -1.5q28 -5 50 -23.5t34 -46.5q13 -29 14 -66t-9 -77
q-3 -11 -12.5 -17.5t-20.5 -4.5q-10 1 -16 10.5t-3 20.5q17 66 -1.5 105.5t-50.5 45.5q-17 3 -36 -4t-37 -23q-16 -15 -36 -46.5t-36 -87.5l-47 -181h66q11 0 18.5 -8t6.5 -19t-10 -19t-20 -8h-75l-54 -206q4 1 9.5 2t10.5 2q22 4 43.5 2.5t41.5 -7.5t39 -14t39 -13
q3 -1 5.5 -1.5t5.5 -0.5v0q1 0 2 -0.5t2 -0.5h8t8 1h2.5h2.5h-1.5h-0.5q1 0 3.5 0.5t3.5 0.5q3 1 6.5 2t6.5 2q0 1 0.5 1h1.5h1v0h-1h1v1q1 0 2.5 0.5t2.5 1.5t3 2l4 2q1 1 3 2l4 2q-1 0 -1 -0.5v-0.5l1 1v0q1 0 1 0.5v0.5q1 0 1 0.5v0.5q4 3 8 6.5t7 6.5q0 1 0.5 1h0.5v1h1
v0v1v0v0q1 1 3 3.5t3 3.5q7 10 18.5 13t21.5 -2zM398 82l-1 -1v0l2 2z" />
    <glyph glyph-name="Agrave" unicode="&#xc0;" horiz-adv-x="691" 
d="M669 747q8 -4 12 -13.5t1 -17.5q-8 -24 -16.5 -48t-17.5 -49q-22 -66 -45.5 -132t-45.5 -132l-8 -24l-8 -24q1 1 2 2.5t2 2.5t3 3.5t3 3.5q-4 -5 -1.5 -1.5t3.5 4.5q6 9 16.5 12t20.5 -3q9 -4 12 -16t-3 -21q-6 -8 -12.5 -16.5t-13.5 -15.5q-14 -15 -31 -28t-34 -25
q-16 -47 -31.5 -94.5t-30.5 -94.5q-4 -10 -13 -15.5t-20 -3.5q-10 3 -16 13.5t-3 20.5q2 7 5 15.5t4 16.5q4 16 7.5 33.5t6.5 34.5v1.5t1 0.5v2.5v2.5t0.5 3.5t0.5 3.5q0 3 0.5 6t0.5 5q-33 -15 -67.5 -25t-70.5 -11q-28 -1 -56 5.5t-52 20.5v0h-1q-32 -36 -64 -71.5
t-63 -71.5q-7 -9 -19 -8t-19 8q-9 7 -8 18.5t8 19.5q4 4 7.5 8.5t7.5 8.5q27 31 54 61.5t55 60.5q-19 21 -30.5 47.5t-14.5 54.5q-4 26 1.5 53.5t18.5 50.5q14 26 37 44.5t51 28.5q37 13 76 8t73 -23l10 -6t9 -6q13 15 27 30t27 30l60 66l60 66q25 28 50 57t50 57
q6 7 15.5 8t16.5 -3zM341 386l2 -2l-1 1v0l-1 1v0zM204 409v0q-2 -1 -3 -1t3 1zM182 396q-1 0 -1.5 -0.5l-1.5 -1.5l1 0.5t2 1.5zM139 310q0 -5 0.5 -11t0.5 -11v-1q1 -1 1 -3t1 -3q0 -3 0.5 -5.5t1.5 -5.5t2 -5.5t2 -5.5v-1l1 -1q0 -1 0.5 -2l0.5 -1q3 -6 6 -11.5t6 -10.5
q1 0 1 -0.5t1 -1.5q-1 1 -0.5 0.5l1.5 -1.5q0 -1 0.5 -1.5t0.5 -1.5q0 1 -0.5 1.5l-0.5 0.5l1 -1l1.5 -1.5t0.5 -1.5q29 32 59 64.5t59 64.5q10 10 20 21.5t20 21.5q-1 1 -2 1t-2 1q-4 2 -8 4.5t-8 3.5v0v0v0l-1 1h-1l-0.5 0.5t-1.5 0.5q-2 1 -4.5 1.5t-4.5 1.5q-4 1 -9 2.5
t-9 2.5h-3t-4 1h-2h-2q-7 1 -14.5 1t-14.5 -1q-1 0 -2 -0.5t-2 -0.5t-3.5 -0.5t-3.5 -0.5q-3 -1 -6 -1.5t-6 -1.5q-1 -1 -3 -1.5t-4 -1.5h-1q-2 -1 -4.5 -2.5t-4.5 -2.5q-3 -1 -5.5 -3t-5.5 -3q0 -1 -0.5 -1h-1.5q0 -1 -0.5 -1.5t-1.5 -0.5q-4 -4 -8 -8.5t-8 -8.5h-1v-1
l-1.5 -1.5l-1.5 -1.5q-1 -2 -2.5 -4.5t-2.5 -4.5q-1 -3 -3 -5.5t-3 -5.5v-1q-1 -1 -1 -2t-1 -2q-1 -5 -3 -10.5t-3 -10.5v-2.5t-1 -2.5v0.5t1 0.5l-1 -1v-1v-1v-2v-1v-3.5t-1 -4.5zM150 253q-1 1 -1 2v2q0 -1 0.5 -2t0.5 -2zM370 197q2 1 4.5 2t4.5 2l0.5 0.5t1.5 0.5
q10 4 19.5 9t19.5 10q0 4 -0.5 9t-1.5 9v1v1v1q0 2 -0.5 4.5t-0.5 4.5l-2 8l-2 8q-2 9 -4.5 17.5t-5.5 17.5q-1 1 -1.5 2.5t-0.5 2.5q-1 0 -1 0.5v0.5q-1 1 -1 2.5t-1 2.5q-1 4 -3.5 7.5t-4.5 7.5t-4.5 8t-5.5 8q-1 1 -2 3t-2 3t-1.5 2t-1.5 2t-3 3.5t-3 3.5l-30 -32
t-29 -32q-25 -26 -49 -52.5t-48 -53.5h1l1 -1q1 0 2 -0.5t2 -0.5q8 -4 16.5 -6.5t17.5 -3.5h1h1h2t2 -1h3.5h3.5h10h9h9.5t9.5 1h-1h1v0h1l1 1h0.5h1.5q2 0 4 0.5t4 0.5q10 2 19 4.5t18 5.5q4 1 9.5 3t9.5 3zM417 135v0q-1 -4 -0.5 -3t0.5 3zM469 264q22 66 45 133t46 133
q6 18 12.5 35.5t12.5 35.5q-6 -7 -12 -13.5t-12 -13.5q-30 -33 -60 -66.5t-61 -66.5l-18 -20t-19 -20q16 -16 28 -36t20 -41q7 -14 11 -29.5t7 -30.5zM306 406q-4 1 -3.5 1h1.5t1 -0.5t1 -0.5v0zM165 229q-1 0 -1 0.5v0.5v-0.5t1 -1.5v1v0zM140 322v0v1v-3.5v-1.5v1.5v1.5v1
zM302 179q4 1 3.5 1h-1.5q-1 -1 -1.5 -1h-0.5v0zM615 854v0q-3 11 3 20.5t16 12.5q10 4 20 -2t13 -16q4 -14 7.5 -28t7.5 -28q3 -10 -3 -19.5t-16 -13.5q-10 -3 -20 3t-13 16q-4 14 -7.5 28t-7.5 27z" />
    <glyph glyph-name="Aacute" unicode="&#xc1;" horiz-adv-x="704" 
d="M669 747q8 -4 12 -13.5t1 -17.5q-8 -24 -16.5 -48t-17.5 -49q-22 -66 -45.5 -132t-45.5 -132l-8 -24l-8 -24q1 1 2 2.5t2 2.5t3 3.5t3 3.5q-4 -5 -1.5 -1.5t3.5 4.5q6 9 16.5 12t20.5 -3q9 -4 12 -16t-3 -21q-6 -8 -12.5 -16.5t-13.5 -15.5q-14 -15 -31 -28t-34 -25
q-16 -47 -31.5 -94.5t-30.5 -94.5q-4 -10 -13 -15.5t-20 -3.5q-10 3 -16 13.5t-3 20.5q2 7 5 15.5t4 16.5q4 16 7.5 33.5t6.5 34.5v1.5t1 0.5v2.5v2.5t0.5 3.5t0.5 3.5q0 3 0.5 6t0.5 5q-33 -15 -67.5 -25t-70.5 -11q-28 -1 -56 5.5t-52 20.5v0h-1q-32 -36 -64 -71.5
t-63 -71.5q-7 -9 -19 -8t-19 8q-9 7 -8 18.5t8 19.5q4 4 7.5 8.5t7.5 8.5q27 31 54 61.5t55 60.5q-19 21 -30.5 47.5t-14.5 54.5q-4 26 1.5 53.5t18.5 50.5q14 26 37 44.5t51 28.5q37 13 76 8t73 -23l10 -6t9 -6q13 15 27 30t27 30l60 66l60 66q25 28 50 57t50 57
q6 7 15.5 8t16.5 -3zM341 386l2 -2l-1 1v0l-1 1v0zM204 409v0q-2 -1 -3 -1t3 1zM182 396q-1 0 -1.5 -0.5l-1.5 -1.5l1 0.5t2 1.5zM139 310q0 -5 0.5 -11t0.5 -11v-1q1 -1 1 -3t1 -3q0 -3 0.5 -5.5t1.5 -5.5t2 -5.5t2 -5.5v-1l1 -1q0 -1 0.5 -2l0.5 -1q3 -6 6 -11.5t6 -10.5
q1 0 1 -0.5t1 -1.5q-1 1 -0.5 0.5l1.5 -1.5q0 -1 0.5 -1.5t0.5 -1.5q0 1 -0.5 1.5l-0.5 0.5l1 -1l1.5 -1.5t0.5 -1.5q29 32 59 64.5t59 64.5q10 10 20 21.5t20 21.5q-1 1 -2 1t-2 1q-4 2 -8 4.5t-8 3.5v0v0v0l-1 1h-1l-0.5 0.5t-1.5 0.5q-2 1 -4.5 1.5t-4.5 1.5q-4 1 -9 2.5
t-9 2.5h-3t-4 1h-2h-2q-7 1 -14.5 1t-14.5 -1q-1 0 -2 -0.5t-2 -0.5t-3.5 -0.5t-3.5 -0.5q-3 -1 -6 -1.5t-6 -1.5q-1 -1 -3 -1.5t-4 -1.5h-1q-2 -1 -4.5 -2.5t-4.5 -2.5q-3 -1 -5.5 -3t-5.5 -3q0 -1 -0.5 -1h-1.5q0 -1 -0.5 -1.5t-1.5 -0.5q-4 -4 -8 -8.5t-8 -8.5h-1v-1
l-1.5 -1.5l-1.5 -1.5q-1 -2 -2.5 -4.5t-2.5 -4.5q-1 -3 -3 -5.5t-3 -5.5v-1q-1 -1 -1 -2t-1 -2q-1 -5 -3 -10.5t-3 -10.5v-2.5t-1 -2.5v0.5t1 0.5l-1 -1v-1v-1v-2v-1v-3.5t-1 -4.5zM150 253q-1 1 -1 2v2q0 -1 0.5 -2t0.5 -2zM370 197q2 1 4.5 2t4.5 2l0.5 0.5t1.5 0.5
q10 4 19.5 9t19.5 10q0 4 -0.5 9t-1.5 9v1v1v1q0 2 -0.5 4.5t-0.5 4.5l-2 8l-2 8q-2 9 -4.5 17.5t-5.5 17.5q-1 1 -1.5 2.5t-0.5 2.5q-1 0 -1 0.5v0.5q-1 1 -1 2.5t-1 2.5q-1 4 -3.5 7.5t-4.5 7.5t-4.5 8t-5.5 8q-1 1 -2 3t-2 3t-1.5 2t-1.5 2t-3 3.5t-3 3.5l-30 -32
t-29 -32q-25 -26 -49 -52.5t-48 -53.5h1l1 -1q1 0 2 -0.5t2 -0.5q8 -4 16.5 -6.5t17.5 -3.5h1h1h2t2 -1h3.5h3.5h10h9h9.5t9.5 1h-1h1v0h1l1 1h0.5h1.5q2 0 4 0.5t4 0.5q10 2 19 4.5t18 5.5q4 1 9.5 3t9.5 3zM417 135v0q-1 -4 -0.5 -3t0.5 3zM469 264q22 66 45 133t46 133
q6 18 12.5 35.5t12.5 35.5q-6 -7 -12 -13.5t-12 -13.5q-30 -33 -60 -66.5t-61 -66.5l-18 -20t-19 -20q16 -16 28 -36t20 -41q7 -14 11 -29.5t7 -30.5zM306 406q-4 1 -3.5 1h1.5t1 -0.5t1 -0.5v0zM165 229q-1 0 -1 0.5v0.5v-0.5t1 -1.5v1v0zM140 322v0v1v-3.5v-1.5v1.5v1.5v1
zM302 179q4 1 3.5 1h-1.5q-1 -1 -1.5 -1h-0.5v0zM680 865v0q5 10 15.5 13t20.5 -1t13.5 -15t-0.5 -21q-6 -13 -12 -25.5t-12 -25.5q-5 -10 -15.5 -13.5t-20.5 0.5t-13.5 15t0.5 21l12 26z" />
    <glyph glyph-name="Acircumflex" unicode="&#xc2;" horiz-adv-x="720" 
d="M669 747q8 -4 12 -13.5t1 -17.5q-8 -24 -16.5 -48t-17.5 -49q-22 -66 -45.5 -132t-45.5 -132l-8 -24l-8 -24q1 1 2 2.5t2 2.5t3 3.5t3 3.5q-4 -5 -1.5 -1.5t3.5 4.5q6 9 16.5 12t20.5 -3q9 -4 12 -16t-3 -21q-6 -8 -12.5 -16.5t-13.5 -15.5q-14 -15 -31 -28t-34 -25
q-16 -47 -31.5 -94.5t-30.5 -94.5q-4 -10 -13 -15.5t-20 -3.5q-10 3 -16 13.5t-3 20.5q2 7 5 15.5t4 16.5q4 16 7.5 33.5t6.5 34.5v1.5t1 0.5v2.5v2.5t0.5 3.5t0.5 3.5q0 3 0.5 6t0.5 5q-33 -15 -67.5 -25t-70.5 -11q-28 -1 -56 5.5t-52 20.5v0h-1q-32 -36 -64 -71.5
t-63 -71.5q-7 -9 -19 -8t-19 8q-9 7 -8 18.5t8 19.5q4 4 7.5 8.5t7.5 8.5q27 31 54 61.5t55 60.5q-19 21 -30.5 47.5t-14.5 54.5q-4 26 1.5 53.5t18.5 50.5q14 26 37 44.5t51 28.5q37 13 76 8t73 -23l10 -6t9 -6q13 15 27 30t27 30l60 66l60 66q25 28 50 57t50 57
q6 7 15.5 8t16.5 -3zM341 386l2 -2l-1 1v0l-1 1v0zM204 409v0q-2 -1 -3 -1t3 1zM182 396q-1 0 -1.5 -0.5l-1.5 -1.5l1 0.5t2 1.5zM139 310q0 -5 0.5 -11t0.5 -11v-1q1 -1 1 -3t1 -3q0 -3 0.5 -5.5t1.5 -5.5t2 -5.5t2 -5.5v-1l1 -1q0 -1 0.5 -2l0.5 -1q3 -6 6 -11.5t6 -10.5
q1 0 1 -0.5t1 -1.5q-1 1 -0.5 0.5l1.5 -1.5q0 -1 0.5 -1.5t0.5 -1.5q0 1 -0.5 1.5l-0.5 0.5l1 -1l1.5 -1.5t0.5 -1.5q29 32 59 64.5t59 64.5q10 10 20 21.5t20 21.5q-1 1 -2 1t-2 1q-4 2 -8 4.5t-8 3.5v0v0v0l-1 1h-1l-0.5 0.5t-1.5 0.5q-2 1 -4.5 1.5t-4.5 1.5q-4 1 -9 2.5
t-9 2.5h-3t-4 1h-2h-2q-7 1 -14.5 1t-14.5 -1q-1 0 -2 -0.5t-2 -0.5t-3.5 -0.5t-3.5 -0.5q-3 -1 -6 -1.5t-6 -1.5q-1 -1 -3 -1.5t-4 -1.5h-1q-2 -1 -4.5 -2.5t-4.5 -2.5q-3 -1 -5.5 -3t-5.5 -3q0 -1 -0.5 -1h-1.5q0 -1 -0.5 -1.5t-1.5 -0.5q-4 -4 -8 -8.5t-8 -8.5h-1v-1
l-1.5 -1.5l-1.5 -1.5q-1 -2 -2.5 -4.5t-2.5 -4.5q-1 -3 -3 -5.5t-3 -5.5v-1q-1 -1 -1 -2t-1 -2q-1 -5 -3 -10.5t-3 -10.5v-2.5t-1 -2.5v0.5t1 0.5l-1 -1v-1v-1v-2v-1v-3.5t-1 -4.5zM150 253q-1 1 -1 2v2q0 -1 0.5 -2t0.5 -2zM370 197q2 1 4.5 2t4.5 2l0.5 0.5t1.5 0.5
q10 4 19.5 9t19.5 10q0 4 -0.5 9t-1.5 9v1v1v1q0 2 -0.5 4.5t-0.5 4.5l-2 8l-2 8q-2 9 -4.5 17.5t-5.5 17.5q-1 1 -1.5 2.5t-0.5 2.5q-1 0 -1 0.5v0.5q-1 1 -1 2.5t-1 2.5q-1 4 -3.5 7.5t-4.5 7.5t-4.5 8t-5.5 8q-1 1 -2 3t-2 3t-1.5 2t-1.5 2t-3 3.5t-3 3.5l-30 -32
t-29 -32q-25 -26 -49 -52.5t-48 -53.5h1l1 -1q1 0 2 -0.5t2 -0.5q8 -4 16.5 -6.5t17.5 -3.5h1h1h2t2 -1h3.5h3.5h10h9h9.5t9.5 1h-1h1v0h1l1 1h0.5h1.5q2 0 4 0.5t4 0.5q10 2 19 4.5t18 5.5q4 1 9.5 3t9.5 3zM417 135v0q-1 -4 -0.5 -3t0.5 3zM469 264q22 66 45 133t46 133
q6 18 12.5 35.5t12.5 35.5q-6 -7 -12 -13.5t-12 -13.5q-30 -33 -60 -66.5t-61 -66.5l-18 -20t-19 -20q16 -16 28 -36t20 -41q7 -14 11 -29.5t7 -30.5zM306 406q-4 1 -3.5 1h1.5t1 -0.5t1 -0.5v0zM165 229q-1 0 -1 0.5v0.5v-0.5t1 -1.5v1v0zM140 322v0v1v-3.5v-1.5v1.5v1.5v1
zM302 179q4 1 3.5 1h-1.5q-1 -1 -1.5 -1h-0.5v0zM771 774q1 -6 0.5 -11t-2.5 -10q-3 -4 -7.5 -7.5t-8.5 -4.5q-5 -1 -11 -0.5t-10 2.5t-8 7t-5 10q0 4 -0.5 7.5t-1.5 7.5q-2 18 -4.5 36t-5.5 35q-23 -15 -46.5 -30.5t-47.5 -31.5q-10 -6 -20.5 -2.5t-16.5 12.5
q-6 10 -2.5 20.5t12.5 16.5q4 3 8 5.5t8 5.5q28 18 56 36.5t56 36.5q6 4 12.5 4t11.5 -2t10 -7t6 -11q1 -4 1 -7.5t1 -7.5q4 -28 7.5 -55.5t7.5 -54.5z" />
    </font>
</defs>
</svg>
